<?xml version="1.0" encoding="utf-8"?>
<!-- Generator: Adobe Illustrator 25.2.1, SVG Export Plug-In . SVG Version: 6.00 Build 0)  -->
<svg version="1.1" id="圖層_1" xmlns="http://www.w3.org/2000/svg" xmlns:xlink="http://www.w3.org/1999/xlink" x="0px" y="0px"
	 viewBox="0 0 350 665" style="enable-background:new 0 0 350 665;" xml:space="preserve">
<style type="text/css">
	.st0{fill:#FFE100;}
	.st1{fill:#231815;}
	.st2{fill:none;stroke:#231815;stroke-width:0.3402;}
	.st3{fill:none;}
	.st4{fill:#F2F2F2;}
	.st5{fill:#F3D922;}
	.st6{fill:#FFFFFF;}
	.st7{fill:#584942;}
	.st8{fill:#F3D922;stroke:#231815;stroke-width:1.3606;stroke-miterlimit:10;}
	.st9{fill:#F2F2F2;stroke:#231815;stroke-width:1.3606;stroke-miterlimit:10;}
	.st10{fill:none;stroke:#231815;stroke-width:1.3606;stroke-miterlimit:10;}
	.st11{fill:none;stroke:#D6D6D6;stroke-width:1.0541;stroke-miterlimit:10;}
</style>
<g>
	<g>
		<g>
			<g>
				<g>
					<path class="st0" d="M154.8,567v8.7h7.8V567h2.6v20.6h-2.6V578h-7.8v9.6h-2.6V567H154.8z"/>
					<path class="st0" d="M171.2,574.2c1.3-1.5,2.8-2.3,4.7-2.3c1.8,0,3.3,0.8,4.7,2.3c1.3,1.5,2,3.4,2,5.6c0,2.2-0.6,4-2,5.6
						c-1.3,1.5-2.9,2.3-4.7,2.3c-1.8,0-3.3-0.8-4.7-2.3c-1.3-1.5-2-3.4-2-5.6C169.3,577.6,170,575.8,171.2,574.2z M173.1,583.6
						c0.8,1.1,1.7,1.6,2.7,1.6c1.1,0,2-0.6,2.7-1.6s1.2-2.4,1.2-3.9s-0.4-2.8-1.2-3.9c-0.8-1.1-1.7-1.6-2.7-1.6
						c-1.1,0-2,0.6-2.7,1.6c-0.8,1.1-1.2,2.4-1.2,3.9S172.4,582.6,173.1,583.6z"/>
					<path class="st0" d="M184.3,572.2h2.6l2.8,11.3l2.3-11.3h2.5l2.7,11.3l2.5-11.3h2.6l-3.6,15.4h-2.7l-2.5-11.1l-2.1,11.1h-2.7
						L184.3,572.2z"/>
				</g>
				<g>
					<path class="st1" d="M126.4,613.8l-1.2-0.8c2-2.5,3.5-5.8,4.2-9.7l1.4,0.1C129.9,607.5,128.5,610.9,126.4,613.8z M139.4,613
						l-1.2,0.8c-2.5-3.4-4.1-7.3-4.6-11.8h-2.7v-1.4h4C135.3,605.6,136.8,609.6,139.4,613z"/>
					<path class="st1" d="M146.9,604.1h-1.4v3.1l1.2-0.4l0.6,1.3l-1.8,0.6v5.6H143v-1.4h1.1v-3.7l-1.6,0.6l-0.5-1.3l2.1-0.8v-3.6
						h-2.1v-1.4h2.1v-2.8h1.4v2.8h1.4V604.1z M156.3,600.6v4.2c0,1.4-0.7,2.1-2.1,2.1h-0.7v-1.4h0.7c0.5,0,0.7-0.2,0.7-0.7v-2.8
						h-3.2c0,2.9-1.1,4.7-3.1,5.5l-0.8-1.3c1.6-0.6,2.5-2,2.5-4.3h-2.5v-1.4h8.5V600.6z M155.9,614.1h-7.3v-6.3h7.3V614.1z
						 M154.5,612.7v-3.5H150v3.5H154.5z"/>
					<path class="st1" d="M159.3,600.3h6.3v-1h1.4v1h6.3v2.3h-1.4v-1.3h-11.1v1.3h-1.4L159.3,600.3L159.3,600.3z M161.8,604.5h-2.5
						v-0.9h2.5V602h9.1v1.6h2.5v0.9h-2.5v1.6h-9.1V604.5z M159.9,614.5l-0.2-1.1c1.2-0.1,2.5-0.4,3.6-0.8h-1.9v-5.8h9.8v5.8h-2
						c1.2,0.4,2.5,0.7,3.7,0.8l-0.2,1.1c-1.6-0.2-3-0.6-4.4-1.1l0.4-0.8h-4.8l0.4,0.8C162.9,614,161.5,614.4,159.9,614.5z
						 M169.8,608.4v-0.7h-7v0.7H169.8z M169.8,610.1v-0.7h-7v0.7H169.8z M169.8,611h-7v0.7h7V611z M163.2,603.6h2.5v-0.7h-2.5V603.6
						z M165.7,605.2v-0.7h-2.5v0.7H165.7z M167,602.9v0.7h2.5v-0.7H167z M169.5,604.5H167v0.7h2.5V604.5z"/>
					<path class="st1" d="M176.7,604.4h7v5.7H181v1h3.1v1c0.8-0.5,1.6-1.1,2.2-1.8c-0.3-1.2-0.4-2.7-0.4-4.8h-1.4v-1.4h1.4v-4.5h1.4
						v4.5h3.2v1.4h-3.2c0,1.3,0.1,2.5,0.2,3.5c0.6-0.7,1.1-1.5,1.6-2.5l1.3,0.6c-0.8,1.5-1.6,2.7-2.5,3.7c0.4,1.1,0.9,1.7,1.5,1.9
						v-1.3h1.4v2.8H190c-1.5,0-2.6-0.8-3.2-2.4c-1,0.9-2.3,1.7-3.7,2.4l-0.6-1.3c0.4-0.2,0.8-0.4,1.1-0.6H181v1.9h-1.4v-1.9h-3.5
						v-1.3h3.5v-1h-2.8L176.7,604.4L176.7,604.4z M176.1,599.8h3.7v3.5h-3.7V599.8z M178.4,602.1v-1h-1v1H178.4z M178.1,605.6v1h1.4
						v-1H178.1z M178.1,607.8v1h1.4v-1H178.1z M180.7,599.8h3.7v3.5h-3.7V599.8z M181,605.6v1h1.4v-1H181z M181,607.8v1h1.4v-1H181z
						 M183.1,602.1v-1h-1v1H183.1z M187.9,601.3l1.1-0.6l1,1.7l-1.1,0.6L187.9,601.3z"/>
					<path class="st1" d="M197.6,612.8h1.2V610h-3.2v0.3c0,1.8-0.5,3-1.6,3.9l-1.1-0.9c0.8-0.6,1.3-1.6,1.3-3v-5.1l-0.5,0.5l-1-1
						c1.3-1.3,2.3-3,2.9-5l1.3,0.2l-0.2,0.8h1.6l1.2,0.4l-0.8,2.4h1.3v10.9h-2.4V612.8z M195.7,606.1h1v-1.4h-1V606.1z M195.7,608.7
						h1v-1.4h-1V608.7z M197.4,603.4l0.5-1.4h-1.5c-0.2,0.6-0.4,1-0.8,1.4H197.4z M198.8,604.6h-0.9v1.4h0.9V604.6z M198.8,607.2
						h-0.9v1.4h0.9V607.2z M207.1,600.4v2.8c0,1.3-0.6,2-2,2h-0.9v-1.3h0.9c0.4,0,0.6-0.2,0.6-0.6v-1.5h-1.7c-0.2,2-1.3,3.4-3.2,3.9
						l-0.4-1.3c1.3-0.4,2-1.3,2.3-2.6h-2v-1.3H207.1z M200.7,610.3h3.1v-1.8h-1.5c-0.2,0.4-0.4,0.7-0.7,1.1l-1.1-0.6
						c0.6-0.8,1.1-1.8,1.4-3l1.1,0.2c-0.1,0.4-0.2,0.8-0.3,1.1h0.9v-1.4h1.3v1.4h1.9v1.3H205v1.8h2.6v1.3H205v2.5h-1.3v-2.5h-3.1
						L200.7,610.3L200.7,610.3z"/>
					<path class="st1" d="M218.2,599.8v2.5h6.3v1.4h-7.7c0,0.9,0,1.6,0,2.1h5.6v4.9c0,2.3-1.2,3.5-3.5,3.5h-0.7v-1.4h0.7
						c1.4,0,2.1-0.7,2.1-2.1v-3.5h-4.4c-0.3,1.4-0.7,2.6-1.3,3.5c-0.8,1.4-2,2.5-3.5,3.5L211,613c1.3-0.8,2.4-1.8,3.2-3.3
						c0.9-1.8,1.3-3.7,1.2-6h-4.9v-1.4h6.3v-2.5L218.2,599.8L218.2,599.8z"/>
					<path class="st1" d="M108.2,618.9h2.5v-1.1h1.4v1.1h1.1v-1.4h1.4v1.4h1.4v-1.4h1.4v1.4h1.1v-1.1h1.4v1.1h2.5v1.4h-2.5v0.9
						c0,0.2,0.1,0.4,0.4,0.4h0.7v-0.6h1.1v1.8h-1.9c-1.2,0-1.8-0.5-1.8-1.5v-0.9h-1.1v2.5h-4.2v-2.5H112c-0.3,1.7-1.2,2.7-2.8,3
						l-0.5-1.3c1-0.2,1.6-0.8,1.8-1.7h-2.3L108.2,618.9L108.2,618.9z M122.2,626.6h-1.4v-1.4h-4.9v1.1h4.2v4.5h-2.8v-1.4h1.4v-1.8
						h-2.8v4.5h-1.4v-4.5h-2.8v3.2h-1.4v-4.5h4.2v-1.1h-4.9v1.4h-1.4v-2.8h14.1V626.6z M115.9,621.4v-1.1h-1.4v1.1H115.9z"/>
					<path class="st1" d="M129.9,617.9c-0.4,1.3-0.8,2.5-1.5,3.9v10.4h-1.4v-8.1c-0.4,0.4-0.6,0.8-1,1.3l-1.1-1
						c1.6-1.7,2.8-3.9,3.6-6.8L129.9,617.9z M133.1,618.2c-0.1,0.8-0.3,1.3-0.5,1.8h5.4l0.1-0.2l1.3,0.5l-1.3,3.2l-1.3-0.5l0.6-1.6
						h-2.3v10.9h-3v-1.4h1.6v-9.4h-1.8c-0.5,0.8-1.3,1.6-2.4,2.5l-1-1.1c1.7-1.3,2.7-2.9,3.2-4.9L133.1,618.2z M131.3,624.5l1.3,0.6
						l-2.3,5.1l-1.3-0.6L131.3,624.5z M138.3,630.2l-2.3-5.1l1.3-0.6l2.3,5.1L138.3,630.2z"/>
					<path class="st1" d="M149.7,617.5h1.4v3.2h4.9v1.4h-4.9c0.1,2.4,0.4,4,0.8,5c0.8-1.1,1.6-2.5,2.1-3.9l1.3,0.6
						c-0.7,2-1.6,3.6-2.7,4.8c0.6,1.1,1.5,1.8,2.7,2v-1.2h1.4v2.8c-2.3,0-4-0.9-5.1-2.6c-1.2,1.1-2.6,2-4.2,2.6l-0.7-1.3
						c1.7-0.7,3-1.6,4.2-2.6c-0.7-1.4-1.1-3.5-1.1-6.2h-4.9v1.8h4.2v3.5c0,1.4-0.7,2.1-2.1,2.1h-0.7v-1.4h0.7c0.5,0,0.7-0.2,0.7-0.7
						v-2.1h-2.8c-0.1,2.6-0.6,4.9-1.5,7l-1.3-0.6c0.8-1.7,1.3-3.9,1.4-6.6v-4.3h6.3L149.7,617.5L149.7,617.5z M152.1,619l0.8-1.1
						l1.6,1.3l-0.9,1.1L152.1,619z"/>
					<path class="st1" d="M163.2,626.8l2.5-0.6l0.4,1.3l-6.3,1.8l-0.4-1.3l2.5-0.6v-5.8h-2.1v-1.4h5.6v1.4h-2.1L163.2,626.8
						L163.2,626.8z M167.7,621.1v-3.2h1.4v3.2h4.2v4.2c0,1.4-0.1,2.8-0.4,4.4c-0.1,1.3-0.8,1.9-2.1,1.9h-1.4v-1.4h1.4
						c0.4,0,0.6-0.3,0.8-0.8c0.2-1.3,0.3-2.6,0.3-4v-2.8H169c0,4.8-1.7,8.1-5,9.8l-0.8-1.3c2.9-1.5,4.3-4.4,4.3-8.5h-2.1V621
						L167.7,621.1L167.7,621.1z"/>
					<path class="st1" d="M176.4,628.5h9.1v-0.8h-0.4c-2.5,0-4.4-0.5-5.6-1.4l-2.6,1.5l-0.5-1l1.8-1v-2.5h-1.8V622h3.2v2.4
						c0.8,1.4,2.7,2.1,5.6,2.1h5.2v1.1h-3.5v0.8h3.5v1.1h-3.5v2.5h-2.5V631h1.1v-1.4h-5.6l1.8,1.1l-0.6,1.1l-1.8-1.1l0.6-1.1h-3.4
						L176.4,628.5L176.4,628.5z M177.5,618.4l2.1,1.3l-0.6,1l-2.1-1.3L177.5,618.4z M185.7,620.6h3.8v5.3h-7.7v-5.3h2.7l0.4-0.6
						h-4.2v-1.1h2.4l-0.4-0.8l1.1-0.6l0.8,1.3h2.2l0.7-1.3l1.1,0.6l-0.4,0.8h2.4v1.1H186L185.7,620.6z M183.2,621.5v0.5h4.9v-0.5
						H183.2z M183.2,623v0.5h4.9V623H183.2z M183.2,624.4v0.5h4.9v-0.5H183.2z"/>
					<path class="st1" d="M200.7,621.7c-0.1-0.6-0.2-1.3-0.3-2h-3.8v-1.4h5.1c0.5,6.4,2.5,10.6,6.1,12.8l-0.7,1.3
						c-3.1-1.7-5.1-4.9-6.2-9.8c-1.1,4.6-3.4,7.9-7,9.8l-0.7-1.3c3.5-1.8,5.6-5.1,6.5-9.6L200.7,621.7z"/>
					<path class="st1" d="M214,618.1c-0.1,0.4-0.4,0.8-0.6,1.2h4.8v1.4h-5.6c-0.4,0.5-0.7,1-1.1,1.4h5.1l1.4,0.1l-0.1,1.8
						c1.3-1.7,2.2-3.9,2.5-6.5l1.3,0.2c-0.1,0.8-0.4,1.8-0.6,2.9h3.8v1.3h-0.7c-0.1,2.5-0.7,4.7-1.6,6.5c0.6,1.1,1.6,2,2.7,2.8
						l-0.9,1c-1.1-0.8-2-1.6-2.5-2.6c-0.7,1-1.6,1.8-2.8,2.6l-0.8-1.1c1.3-0.8,2.2-1.7,2.9-2.8c-0.6-1.2-1.1-2.6-1.4-4.4
						c-0.2,0.4-0.5,0.7-0.8,1l-0.9-0.8l-0.1,1h1v1.4h-1.1l-0.1,1.8h0.9v1.4h-1.2l-0.2,2.5h-2.4v-1.2h1.1l0.1-1.2h-3.8l-0.1,1.1
						l-1.4-0.1l0.4-4.1h-1v-1.4h1.1l0.3-3c-0.1,0.1-0.3,0.3-0.4,0.4l-1.1-1c1.1-1,2-2.3,2.9-4.2L214,618.1z M213.5,626.6h-1.1
						l-0.1,1.8h1.2L213.5,626.6z M213.8,623.5h-1.2l-0.1,1.8h1.1L213.8,623.5z M214.9,626.6l-0.1,1.8h1.3l0.1-1.8H214.9z
						 M215.2,623.5l-0.1,1.8h1.3l0.1-1.8H215.2z M220.5,622c0.1,2,0.5,3.6,1.1,4.9c0.6-1.3,1-3,1.1-4.9H220.5z"/>
					<path class="st1" d="M231.8,621.8h-1.4v3.8l0.9-0.4l0.6,1.3l-1.5,0.5v5.2h-2.5v-1.4h1.1v-3.3l-1.3,0.5l-0.5-1.3l1.8-0.7v-4.3
						h-1.8v-1.4h1.8v-2.8h1.4v2.8h1.4V621.8z M233.1,625.4h3.2v-0.9h-4.5v-1.3h4.5v-0.9h-3.5v-1.3h3.5v-0.9h-4.2v-1.3h4.2v-1.3h1.4
						v1.3h3.8v1.3h-3.8v0.9h3.2v2.2h1.1v1.3h-1.1v2.2h-3.2v1.1h3.2v1.2h-3.2v2c0.4,0.1,0.9,0.1,1.4,0.1h2.8v1.2h-2.8
						c-2.5,0-4.3-0.6-5.5-1.8c-0.4,0.7-0.9,1.3-1.6,1.8l-0.9-0.9c1.1-0.8,1.8-2.3,2-4l1.3,0.1c-0.1,0.5-0.1,1-0.4,1.6
						c0.6,0.7,1.3,1.2,2.1,1.5v-3.9h-3.2V625.4z M239.4,623.2v-0.9h-1.8v0.9H239.4z M239.4,625.4v-0.9h-1.8v0.9H239.4z"/>
				</g>
			</g>
			<g>
				<path class="st2" d="M154,566.1v8.7h7.8v-8.7h2.6v20.6h-2.7v-9.6h-7.8v9.6h-2.6v-20.6H154z"/>
				<path class="st2" d="M170.3,573.3c1.3-1.5,2.8-2.3,4.7-2.3c1.8,0,3.3,0.8,4.7,2.3c1.3,1.5,2,3.4,2,5.6c0,2.2-0.6,4-2,5.6
					c-1.3,1.5-2.9,2.3-4.7,2.3c-1.8,0-3.3-0.8-4.7-2.3c-1.3-1.5-2-3.4-2-5.6C168.4,576.7,169,574.8,170.3,573.3z M172.2,582.7
					c0.8,1.1,1.7,1.6,2.7,1.6s2-0.6,2.7-1.6c0.8-1.1,1.2-2.4,1.2-3.9s-0.4-2.8-1.2-3.9c-0.8-1.1-1.7-1.6-2.7-1.6s-2,0.6-2.7,1.6
					c-0.8,1.1-1.2,2.4-1.2,3.9C171,580.4,171.4,581.7,172.2,582.7z"/>
				<path class="st2" d="M183.3,571.2h2.6l2.8,11.3l2.3-11.3h2.5l2.7,11.3l2.5-11.3h2.6l-3.6,15.4h-2.7l-2.5-11.1l-2.1,11.1h-2.7
					L183.3,571.2z"/>
			</g>
		</g>
		<g>
			<g>
				<g>
					<path class="st3" d="M202.8,479.2c2.9,4.8,4.5,10.4,4.5,16.5c0,16.9-13,30.8-29.6,32.1v14.8c19.7-1.3,35.2-17.8,35.2-37.7
						C212.9,495,209,486,202.8,479.2z"/>
					<path class="st3" d="M142.8,495.7c0-6,1.6-11.6,4.5-16.5c-6.3,6.8-10.1,15.8-10.1,25.7c0,20,15.5,36.4,35.2,37.7v-14.8
						C155.8,526.5,142.8,512.6,142.8,495.7z"/>
					<path class="st4" d="M172.4,526.6v-6.6c-12.3-1.3-21.8-11.8-21.8-24.3c0-13.5,11-24.4,24.4-24.4c13.5,0,24.4,11,24.4,24.4
						c0,12.6-9.6,23-21.8,24.3v6.6c15.9-1.3,28.4-14.7,28.4-30.9c0-8-3-15.1-7.9-20.6c-6.4-4.9-14.4-7.9-23.1-7.9
						c-8.7,0-16.7,3-23.1,7.9c-4.9,5.5-7.9,12.8-7.9,20.6C144,511.9,156.5,525.3,172.4,526.6z"/>
					<path class="st5" d="M198.3,495.7c0-12.8-10.4-23.3-23.3-23.3s-23.3,10.4-23.3,23.3c0,11.9,9,21.8,20.6,23.1v-3.6h-6.1
						c-0.2,0-0.4-0.1-0.6-0.3c-0.1-0.2-0.1-0.4,0-0.6l2-3.5c-5.6-2.7-9.5-8.5-9.5-15.1c0-9.2,7.5-16.7,16.7-16.7
						c9.2,0,16.7,7.5,16.7,16.7c0,6.6-3.9,12.4-9.5,15.1l2,3.5c0.1,0.2,0.1,0.4,0,0.6c-0.1,0.2-0.3,0.3-0.6,0.3h-6.1v3.6
						C189.3,517.5,198.3,507.6,198.3,495.7z"/>
					<path class="st4" d="M190.5,495.7c0-8.5-7-15.5-15.5-15.5c-8.5,0-15.5,7-15.5,15.5c0,6.2,3.7,11.6,8.9,14l3.5-6.1
						c-3.2-1.2-5.4-4.3-5.4-7.9c0-4.7,3.8-8.5,8.5-8.5c4.7,0,8.5,3.8,8.5,8.5c0,3.6-2.3,6.6-5.4,7.9l3.5,6.1
						C186.9,507.3,190.5,501.9,190.5,495.7z"/>
					<path class="st5" d="M182.2,495.7c0-3.9-3.2-7.2-7.2-7.2c-3.9,0-7.2,3.2-7.2,7.2c0,3.1,2,5.8,4.8,6.8l1.9-3.2
						c0.1-0.2,0.3-0.3,0.6-0.3c0.2,0,0.4,0.1,0.6,0.3l1.9,3.2C180.2,501.5,182.2,498.9,182.2,495.7z M178.6,498.3
						c0.2,0.2,0.2,0.6,0,0.8c-0.1,0.1-0.3,0.2-0.4,0.2c-0.1,0-0.3-0.1-0.4-0.2l-2.6-2.6l-2.6,2.6c-0.1,0.1-0.3,0.2-0.4,0.2
						c-0.1,0-0.3-0.1-0.4-0.2c-0.2-0.2-0.2-0.6,0-0.8l2.6-2.6l-2.6-2.6c-0.2-0.2-0.2-0.6,0-0.8c0.2-0.2,0.6-0.2,0.8,0l2.6,2.6
						l2.6-2.6c0.2-0.2,0.6-0.2,0.8,0c0.2,0.2,0.2,0.6,0,0.8l-2.6,2.6L178.6,498.3z"/>
					<path class="st4" d="M176.4,514.7c0-0.4,0.3-0.6,0.6-0.6h5.6l-7.7-13.2l-7.7,13.2h5.6c0.4,0,0.6,0.3,0.6,0.6v28.1
						c0.5,0,1,0,1.4,0c0.5,0,1,0,1.4,0V514.7z"/>
				</g>
			</g>
			<g>
				<path class="st1" d="M172.4,527.8v-1.2c-15.9-1.3-28.4-14.7-28.4-30.9c0-8,3-15.1,7.9-20.6c-1.6,1.3-3.2,2.7-4.6,4.2
					c-2.9,4.8-4.5,10.4-4.5,16.5C142.8,512.6,155.8,526.5,172.4,527.8z"/>
				<path class="st1" d="M177.7,526.6v1.2c16.6-1.3,29.6-15.2,29.6-32.1c0-6-1.6-11.6-4.5-16.5c-1.4-1.5-3-3-4.6-4.2
					c4.9,5.5,7.9,12.8,7.9,20.6C206,511.9,193.6,525.3,177.7,526.6z"/>
				<path class="st1" d="M199.5,495.7c0-13.5-11-24.4-24.4-24.4c-13.5,0-24.4,11-24.4,24.4c0,12.6,9.6,23,21.8,24.3v-1.2
					c-11.6-1.3-20.6-11.2-20.6-23.1c0-12.8,10.4-23.3,23.3-23.3c12.8,0,23.3,10.4,23.3,23.3c0,11.9-9,21.8-20.6,23.1v1.2
					C190,518.8,199.5,508.3,199.5,495.7z"/>
				<path class="st1" d="M191.7,495.7c0-9.2-7.5-16.7-16.7-16.7c-9.2,0-16.7,7.5-16.7,16.7c0,6.6,3.9,12.4,9.5,15.1l0.6-1.1
					c-5.3-2.5-8.9-7.8-8.9-14c0-8.5,7-15.5,15.5-15.5c8.5,0,15.5,7,15.5,15.5c0,6.2-3.7,11.6-8.9,14l0.6,1.1
					C187.9,508.1,191.7,502.3,191.7,495.7z"/>
				<path class="st1" d="M183.5,495.7c0-4.7-3.8-8.5-8.5-8.5c-4.7,0-8.5,3.8-8.5,8.5c0,3.6,2.3,6.6,5.4,7.9l0.6-1.1
					c-2.8-1-4.8-3.7-4.8-6.8c0-3.9,3.2-7.2,7.2-7.2c3.9,0,7.2,3.2,7.2,7.2c0,3.1-2,5.8-4.8,6.8l0.6,1.1
					C181.2,502.3,183.5,499.3,183.5,495.7z"/>
				<path class="st1" d="M177.7,526.6v-6.6v-1.2v-3.6h6.1c0.2,0,0.4-0.1,0.6-0.3c0.1-0.2,0.1-0.4,0-0.6l-2-3.5l-0.6-1.1l-3.5-6.1
					l-0.6-1.1l-1.9-3.2c-0.1-0.2-0.3-0.3-0.6-0.3c-0.2,0-0.4,0.1-0.6,0.3l-1.9,3.2l-0.6,1.1l-3.5,6.1l-0.6,1.1l-2,3.5
					c-0.1,0.2-0.1,0.4,0,0.6c0.1,0.2,0.3,0.3,0.6,0.3h6.1v3.6v1.2v6.6v1.2v14.8c0.4,0,0.8,0.1,1.2,0.1v-28.1c0-0.4-0.3-0.6-0.6-0.6
					h-5.6l7.7-13.2l7.7,13.2H177c-0.4,0-0.6,0.3-0.6,0.6v28.1c0.4,0,0.8-0.1,1.2-0.1v-14.8v-1.2H177.7z"/>
				<path class="st1" d="M175.9,495.7l2.6-2.6c0.2-0.2,0.2-0.6,0-0.8c-0.2-0.2-0.6-0.2-0.8,0l-2.6,2.6l-2.6-2.6
					c-0.2-0.2-0.6-0.2-0.8,0c-0.2,0.2-0.2,0.6,0,0.8l2.6,2.6l-2.6,2.6c-0.2,0.2-0.2,0.6,0,0.8c0.1,0.1,0.3,0.2,0.4,0.2
					s0.3-0.1,0.4-0.2l2.6-2.6l2.6,2.6c0.1,0.1,0.3,0.2,0.4,0.2s0.3-0.1,0.4-0.2c0.2-0.2,0.2-0.6,0-0.8L175.9,495.7z"/>
				<g>
					<g>
						<g>
							<path class="st1" d="M185,469.2c-0.1,0-0.1,0-0.2,0c-1.3-0.4-2.5-0.6-3.8-0.8c-0.4-0.1-0.7-0.5-0.6-0.8
								c0.1-0.4,0.5-0.7,0.8-0.6c1.3,0.2,2.7,0.5,4,0.8c0.4,0.1,0.6,0.6,0.6,0.9C185.6,469,185.3,469.2,185,469.2z"/>
						</g>
						<g>
							<path class="st1" d="M175,543.6c-10.3,0-20-4-27.3-11.3c-7.3-7.3-11.3-17-11.3-27.3c0-10.3,4-20,11.3-27.3
								c7.3-7.3,17-11.3,27.3-11.3c0.4,0,0.8,0.4,0.8,0.8c0,0.4-0.4,0.8-0.8,0.8c-9.9,0-19.2,3.9-26.2,10.9
								c-7,7-10.9,16.3-10.9,26.2c0,9.9,3.9,19.2,10.9,26.2c7,7,16.3,10.9,26.2,10.9c9.9,0,19.2-3.9,26.2-10.9
								c7-7,10.9-16.3,10.9-26.2c0-7-1.9-13.7-5.6-19.6c-3.5-5.7-8.6-10.4-14.6-13.4c-0.4-0.2-0.5-0.6-0.4-1.1
								c0.2-0.4,0.6-0.5,1.1-0.4c6.2,3.2,11.5,8,15.1,14c3.8,6.1,5.8,13.2,5.8,20.4c0,10.3-4,20-11.3,27.3
								C195,539.5,185.3,543.6,175,543.6z"/>
						</g>
					</g>
					<g>
						<circle class="st1" cx="188.7" cy="469.6" r="1"/>
					</g>
				</g>
			</g>
		</g>
	</g>
	<g>
		<g>
			<g>
				<path class="st0" d="M242.7,363.8l3.1-14.7h2.7l-4.7,20.6h-2.7l-1.9-14.7l-1.9,14.7h-2.7l-4.7-20.6h2.7l3.1,14.8l2-14.8h2.7
					L242.7,363.8z"/>
				<path class="st0" d="M252,349.2h2.6v6.6l0.2-0.3c1-1,2.2-1.5,3.6-1.5s2.6,0.5,3.6,1.5c1,1,1.6,2.3,1.6,3.6v10.6H261v-10.6
					c0-0.8-0.4-1.4-1-1.9c-0.6-0.6-1.3-0.8-2.3-0.8s-1.7,0.3-2.3,0.8c-0.6,0.6-0.9,1.2-0.9,1.9v10.6h-2.6L252,349.2L252,349.2z"/>
				<path class="st0" d="M268.3,356.4c1.3-1.5,2.7-2.3,4.6-2.3c1.8,0,3.2,0.8,4.5,2.3c1.3,1.5,1.9,3.4,1.9,5.6l-0.1,1h-10.1
					c0.1,1.1,0.5,2.1,1.1,3c0.8,1.1,1.6,1.6,2.7,1.6c1.1,0,2-0.6,2.7-1.6c0.2-0.4,0.4-0.7,0.6-1.1h2.7c-0.3,1-0.8,1.9-1.5,2.7
					c-1.3,1.5-2.7,2.3-4.5,2.3s-3.3-0.8-4.6-2.3c-1.3-1.5-1.9-3.4-1.9-5.6C266.4,359.7,267,357.9,268.3,356.4z M272.8,356.4
					c-1.1,0-2,0.6-2.7,1.6c-0.6,0.8-0.9,1.6-1.1,2.6h7.5c-0.1-1-0.5-1.8-1.1-2.6C274.8,356.9,273.8,356.4,272.8,356.4z"/>
				<path class="st0" d="M282,354.3h2.6v1.6l0.2-0.2c1-1,2.2-1.5,3.6-1.5s2.6,0.5,3.6,1.5c1,1,1.6,2.3,1.6,3.6v10.5h-2.6v-10.5
					c0-0.8-0.4-1.4-1-1.9c-0.6-0.6-1.3-0.8-2.3-0.8s-1.7,0.3-2.3,0.8c-0.6,0.6-0.9,1.2-0.9,1.9v10.5h-2.6L282,354.3L282,354.3z"/>
			</g>
			<g>
				<path class="st2" d="M241.8,363l3.1-14.7h2.7l-4.7,20.6h-2.7l-1.9-14.7l-1.9,14.7h-2.7l-4.7-20.6h2.7l3.1,14.8l2-14.8h2.7
					L241.8,363z"/>
				<path class="st2" d="M251.2,348.3h2.6v6.6l0.2-0.3c1-1,2.2-1.5,3.6-1.5c1.4,0,2.6,0.5,3.6,1.5c1,1,1.6,2.3,1.6,3.6v10.6h-2.6
					v-10.6c0-0.8-0.4-1.4-1-1.9c-0.6-0.6-1.3-0.8-2.3-0.8s-1.6,0.3-2.3,0.8c-0.6,0.6-0.9,1.2-0.9,1.9v10.6h-2.6L251.2,348.3
					L251.2,348.3z"/>
				<path class="st2" d="M267.4,355.4c1.3-1.5,2.7-2.3,4.6-2.3c1.8,0,3.2,0.8,4.5,2.3c1.3,1.6,1.9,3.4,1.9,5.6l-0.1,1h-10.1
					c0.1,1.1,0.5,2.1,1.1,3c0.8,1.1,1.6,1.6,2.7,1.6c1.1,0,2-0.6,2.7-1.6c0.2-0.4,0.4-0.7,0.6-1.1h2.7c-0.3,1-0.8,1.9-1.5,2.7
					c-1.3,1.5-2.7,2.3-4.5,2.3s-3.3-0.8-4.6-2.3c-1.3-1.5-1.9-3.4-1.9-5.6C265.5,358.8,266.1,357,267.4,355.4z M271.9,355.5
					c-1.1,0-2,0.6-2.7,1.6c-0.6,0.8-0.9,1.6-1.1,2.6h7.5c-0.1-1-0.5-1.8-1.1-2.6C273.8,356.1,272.9,355.5,271.9,355.5z"/>
				<path class="st2" d="M281,353.4h2.6v1.6l0.2-0.2c1-1,2.2-1.5,3.6-1.5c1.4,0,2.6,0.5,3.6,1.5c1,1,1.6,2.3,1.6,3.6v10.5H290v-10.5
					c0-0.8-0.4-1.4-1-1.9c-0.6-0.6-1.3-0.8-2.3-0.8s-1.6,0.3-2.3,0.8c-0.6,0.6-0.9,1.2-0.9,1.9v10.5H281L281,353.4L281,353.4z"/>
			</g>
			<g>
				<path class="st1" d="M228,392.6h9.1v-0.8h-0.4c-2.5,0-4.4-0.5-5.6-1.4l-2.6,1.5l-0.5-1l1.8-1v-2.5H228v-1.2h3.2v2.4
					c0.8,1.4,2.7,2.1,5.6,2.1h5.2v1.1h-3.5v0.8h3.5v1.1h-3.5v2.5h-2.5v-1.1h1.1v-1.4h-5.6l1.8,1.1l-0.6,1.1l-1.8-1.1l0.6-1.1h-3.4
					L228,392.6L228,392.6z M229.1,382.5l2.1,1.3l-0.6,1l-2.1-1.3L229.1,382.5z M237.3,384.8h3.8v5.3h-7.7v-5.3h2.7l0.4-0.6h-4.2V383
					h2.4l-0.4-0.8l1.1-0.6l0.8,1.3h2.2l0.7-1.3l1.1,0.6l-0.4,0.8h2.4v1.1h-4.5L237.3,384.8z M234.8,385.7v0.5h4.9v-0.5H234.8z
					 M234.8,387.2v0.5h4.9v-0.5H234.8z M234.8,388.6v0.5h4.9v-0.5H234.8z"/>
				<path class="st1" d="M252.3,385.8c-0.1-0.6-0.2-1.3-0.3-2h-3.8v-1.4h5.1c0.5,6.4,2.5,10.6,6.1,12.8l-0.7,1.3
					c-3.1-1.7-5.1-4.9-6.2-9.8c-1.1,4.6-3.4,7.9-7,9.8l-0.7-1.3c3.5-1.8,5.6-5.1,6.5-9.6L252.3,385.8z"/>
				<path class="st1" d="M265.6,382.3c-0.1,0.4-0.4,0.8-0.6,1.2h4.8v1.4h-5.6c-0.4,0.5-0.7,1-1.1,1.4h5.1l1.4,0.1l-0.1,1.8
					c1.3-1.7,2.2-3.9,2.5-6.5l1.3,0.2c-0.1,0.8-0.4,1.8-0.6,2.9h3.8v1.3h-0.7c-0.1,2.5-0.7,4.7-1.6,6.5c0.6,1.1,1.6,2,2.7,2.8
					l-0.9,1c-1.1-0.8-2-1.6-2.5-2.6c-0.7,1-1.6,1.8-2.8,2.6l-0.8-1.1c1.3-0.8,2.2-1.7,2.9-2.8c-0.6-1.2-1.1-2.6-1.4-4.4
					c-0.2,0.4-0.5,0.7-0.8,1l-0.9-0.8l-0.1,1h1v1.4h-1.1l-0.1,1.8h0.9v1.4h-1.1l-0.2,2.5h-2.4v-1.2h1.1l0.1-1.2h-4l-0.1,1.1
					l-1.4-0.1l0.4-4.1h-1v-1.4h1.1l0.3-3c-0.1,0.1-0.3,0.3-0.4,0.4l-1.1-1c1.1-1,2-2.3,2.9-4.2L265.6,382.3z M265.1,390.7H264
					l-0.1,1.8h1.2L265.1,390.7z M265.4,387.6h-1.2l-0.1,1.8h1.1L265.4,387.6z M266.5,390.7l-0.1,1.8h1.3l0.1-1.8H266.5z
					 M266.8,387.6l-0.1,1.8h1.3l0.1-1.8H266.8z M272.2,386.1c0.1,2,0.5,3.6,1.1,4.9c0.6-1.3,1-3,1.1-4.9H272.2z"/>
				<path class="st1" d="M283.3,385.9h-1.4v3.8l0.9-0.4l0.6,1.3l-1.5,0.5v5.2h-2.5v-1.4h1.1v-3.3l-1.3,0.5l-0.5-1.3l1.8-0.7v-4.3
					h-1.8v-1.4h1.8v-2.8h1.4v2.8h1.4V385.9L283.3,385.9z M284.7,389.5h3.2v-0.9h-4.5v-1.3h4.5v-0.9h-3.5v-1.3h3.5v-0.9h-4.2V383h4.2
					v-1.3h1.4v1.3h3.8v1.3h-3.8v0.9h3.2v2.2h1.1v1.3h-1.1v2.2h-3.2v1.1h3.2v1.2h-3.2v2c0.4,0.1,0.9,0.1,1.4,0.1h2.8v1.2h-2.8
					c-2.5,0-4.3-0.6-5.5-1.8c-0.4,0.7-0.9,1.3-1.6,1.8l-0.9-0.9c1.1-0.8,1.8-2.3,2-4l1.3,0.1c-0.1,0.5-0.1,1-0.4,1.6
					c0.6,0.7,1.3,1.2,2.1,1.6v-3.9h-3.2V389.5L284.7,389.5z M291,387.4v-0.9h-1.8v0.9H291z M291,389.5v-0.9h-1.8v0.9H291z"/>
				<path class="st1" d="M223.5,400.5l-0.6,2.4h2.3V413h-5.2v-10.1h1.6l0.7-2.8L223.5,400.5z M223.7,407.2v-3h-2.5v3H223.7z
					 M223.7,411.6v-3h-2.5v3H223.7z M229,400.3c-0.1,0.9-0.4,1.8-0.6,2.6h4.7v7.7c0,2.5-1.3,3.8-3.8,3.8h-0.4v-1.4h0.4
					c1.6,0,2.5-0.8,2.5-2.5v-6.3h-3.8c-0.4,1-0.8,1.8-1.4,2.6l-1.3-0.8c1.2-1.6,2-3.6,2.4-6.1L229,400.3z M227.4,407.6l1-1l2,2l-1,1
					L227.4,407.6z"/>
				<path class="st1" d="M250.8,406.8h-7.7v7.6h-1.4v-1.6l-5.4,0.9l-0.1-1.1l1.4-0.2v-5.5h-1.4v-1.2h14.7L250.8,406.8L250.8,406.8z
					 M248.8,400v4.8h-10.5V400H248.8z M241.7,411.6V411h-2.8v1.1L241.7,411.6z M241.7,407.7v-0.9h-2.8v0.9H241.7z M241.7,409.8v-0.9
					h-2.8v0.9H241.7z M247.4,402v-0.7h-7.7v0.7H247.4z M247.4,403h-7.7v0.7h7.7V403z M250.2,408.1c-0.6,1.5-1.4,2.7-2.3,3.5
					c0.8,0.6,1.7,1.2,2.8,1.6l-0.7,1.1c-1.2-0.5-2.2-1.1-3-1.8c-0.8,0.6-1.8,1.3-3,1.8l-0.7-1.1c1.1-0.5,2-1.1,2.8-1.6
					c-0.8-0.7-1.4-1.6-1.9-2.7h-0.5v-1.3h5.4L250.2,408.1z M248.6,408.9h-2.9c0.4,0.6,0.8,1.3,1.5,1.8
					C247.6,410.2,248.1,409.6,248.6,408.9z"/>
				<path class="st1" d="M257.9,400.4c-0.4,1.3-0.8,2.5-1.5,3.9v10H255v-7.8c-0.4,0.4-0.6,0.8-1,1.3l-1.1-1c1.6-1.7,2.8-3.9,3.6-6.8
					L257.9,400.4z M257.4,405.3h4.5v-2.1h-3.5v-1.4h3.5V400h1.4v1.8h3.5v1.4h-3.5v2.1h4.5v1.4h-10.5L257.4,405.3L257.4,405.3z
					 M257.4,413h4.5v-2.5h-3.5v-1.4h3.5v-1.8h1.4v1.8h3.5v1.4h-3.5v2.5h4.5v1.4h-10.5L257.4,413L257.4,413z"/>
				<path class="st1" d="M275.1,412.3H271v-10.9h4.2V412.3z M273.8,406v-3.2h-1.4v3.2H273.8z M273.8,410.9v-3.5h-1.4v3.5H273.8z
					 M283.9,403.6H281v1.8h3.8v1.4h-2.5v1.4h2.1v1.4h-2.1v4.9h-2.8V413h1.4v-3.5h-4.5v-1.4h4.5v-1.4h-5.2v-1.4h3.8v-1.8h-2.8v-1.4
					h2.8V400h1.4v2.1h2.8L283.9,403.6L283.9,403.6z M277,411l1-1l1.5,1.5l-1,1L277,411z"/>
				<path class="st1" d="M290.7,404.2v1.5l1.6,1.6l-0.8,0.9l-0.7-0.7v7h-1.3v-5.6c-0.2,0.4-0.6,0.8-1.1,1.4l-0.9-0.9
					c1-0.9,1.7-2.1,2-3.7v-1.3h-1.7v-1.1h1.8v-3h1.3v3h1.2v1.1L290.7,404.2L290.7,404.2z M294,409.4l2.1,1.3l-0.6,1.1l-1.7-1
					c-0.3,1.5-0.8,2.7-1.8,3.4l-0.8-0.9c1-0.8,1.6-2.3,1.6-4.4v-0.1h-0.7v-1.1h4.2v-1l-0.8,0.3l-0.1-0.4h-3.2v-1h0.6l0.6-1.1
					l-1.3-0.8l1.9-3.1l0.8,0.5l-1.4,2.3l0.5,0.4l1.1-1.6l0.8,0.5l-1.9,3.1h1l-0.3-0.8l0.9-0.3l0.6,2v-6.3h1.1v7.5h1.8l-0.8-0.6
					l0.4-0.5h-1.2v-1h0.6l0.6-1.1l-1.3-0.8l2-3.1l0.8,0.5l-1.4,2.3l0.5,0.4l1.1-1.6l0.8,0.5l-1.9,3.1h1l-0.3-0.8l0.9-0.3l0.7,2.2
					l-0.9,0.3l-0.1-0.4h-1.2l0.8,0.6l-0.4,0.5h2v1.1h-4.5v0.4c0.1,0.8,0.3,1.5,0.6,2c0.5-0.4,1.1-1.1,1.7-1.8l1,0.7
					c-0.7,0.9-1.3,1.6-1.9,2c0.5,0.5,1.2,0.8,2,0.9v-0.9h1.1v2.2c-1.8,0-3.2-0.5-4.2-1.5c-0.8,0.6-1.9,1.1-3.2,1.4l-0.5-1.1
					c1.1-0.4,2.1-0.8,2.9-1.3c-0.4-0.8-0.7-1.7-0.8-2.7v-0.5H294v0.1V409.4z"/>
			</g>
		</g>
		<g>
			<g>
				<g>
					<path class="st3" d="M260.9,249.3c-16.9,0-31.3,11.1-36.1,26.5c3.7-3.7,8.4-6.1,13.4-7.1v-4.5c0-1.1,0.8-2,2-2h7.2
						c1.1,0,2,0.8,2,2v4.5c4.1,0.8,7.9,2.6,11.2,5.2l2.1-2.1l-1.2-1.2c-1-1-1-2.6,0-3.7c0.5-0.5,1.1-0.8,1.8-0.8s1.3,0.3,1.8,0.8
						l7,7c1,1,1,2.6,0,3.7c-0.5,0.5-1.1,0.8-1.8,0.8s-1.3-0.3-1.8-0.8l-1.2-1.2l-2.1,2.1c8.4,10.6,7.7,26.2-2.2,36
						c-4.3,4.3-9.9,7-15.9,7.8c4.2,1.7,8.9,2.6,13.7,2.6c20.9,0,37.8-16.9,37.8-37.8C298.7,266.3,281.7,249.3,260.9,249.3z
						 M283.5,297.7H273c-0.2,0-0.4-0.1-0.4-0.4s0.1-0.4,0.4-0.4h10.5c0.2,0,0.4,0.1,0.4,0.4S283.7,297.7,283.5,297.7z M290.8,292.2
						H273c-0.2,0-0.4-0.1-0.4-0.4s0.1-0.4,0.4-0.4h17.8c0.2,0,0.4,0.1,0.4,0.4S291,292.2,290.8,292.2z M296.2,287.3H273
						c-0.2,0-0.4-0.1-0.4-0.4s0.1-0.4,0.4-0.4h23.2c0.2,0,0.4,0.1,0.4,0.4S296.4,287.3,296.2,287.3z"/>
					<path class="st5" d="M247.3,263.4h-7.2c-0.4,0-0.8,0.4-0.8,0.8v4.3c1.4-0.2,2.9-0.4,4.3-0.4c1.5,0,2.9,0.1,4.3,0.4v-4.3
						C248.1,263.8,247.7,263.4,247.3,263.4z"/>
					<path class="st6" d="M263.4,272.7l-2,2c0.5,0.4,1.1,0.9,1.6,1.4c0.5,0.5,1,1,1.4,1.5l2-2L263.4,272.7z"/>
					<path class="st5" d="M269.3,276.8c0.3,0.3,0.6,0.4,1,0.4s0.7-0.1,1-0.4c0.5-0.5,0.5-1.4,0-1.9l-7-7c-0.3-0.3-0.6-0.4-1-0.4
						c-0.4,0-0.7,0.1-1,0.4c-0.5,0.5-0.5,1.4,0,1.9L269.3,276.8z"/>
					<path class="st5" d="M262.1,277c-4.9-4.9-11.4-7.6-18.4-7.6s-13.5,2.7-18.4,7.6c-0.4,0.4-0.8,0.8-1.3,1.3
						c-0.6,2.7-1,5.6-1.1,8.5c1.1-2.7,2.7-5.1,4.9-7.3c4.2-4.2,9.9-6.6,15.8-6.6c6,0,11.6,2.3,15.8,6.6c8.7,8.7,8.7,22.9,0,31.6
						c-4.2,4.2-9.9,6.6-15.8,6.6c-2.1,0-4.2-0.3-6.3-0.9c2.3,1.8,4.7,3.3,7.3,4.5c6.6-0.3,12.7-2.9,17.3-7.6
						C272.2,303.6,272.2,287.1,262.1,277z"/>
					<path class="st4" d="M258.7,310.3c8.2-8.2,8.2-21.6,0-29.9c-4-4-9.3-6.2-14.9-6.2c-5.6,0-10.9,2.2-14.9,6.2
						c-2.8,2.8-4.7,6.3-5.6,9.9c0.8,9.5,5.1,18,11.6,24.2c2.7,1.3,5.8,2,8.9,2C249.4,316.5,254.7,314.3,258.7,310.3z M263.3,295.1
						c0,0.2-0.1,0.4-0.4,0.4h-5.2c-0.2,0-0.4-0.1-0.4-0.4s0.1-0.4,0.4-0.4h5.2C263.1,294.8,263.3,294.9,263.3,295.1z M255.6,287.8
						l4.5-2.6c0.2-0.1,0.4-0.1,0.5,0.1c0.1,0.2,0.1,0.4-0.1,0.5l-4.5,2.6c-0.1,0-0.1,0.1-0.2,0.1c-0.1,0-0.3-0.1-0.4-0.2
						C255.4,288.2,255.5,288,255.6,287.8z M255.5,301.9c0.1-0.2,0.4-0.2,0.5-0.1l4.5,2.6c0.2,0.1,0.2,0.4,0.1,0.5
						c-0.1,0.1-0.2,0.2-0.4,0.2c-0.1,0-0.1,0-0.2-0.1l-4.5-2.6C255.5,302.3,255.4,302.1,255.5,301.9z M250.4,282.9l2.6-4.5
						c0.1-0.2,0.4-0.2,0.5-0.1c0.2,0.1,0.2,0.4,0.1,0.5l-2.6,4.5c-0.1,0.1-0.2,0.2-0.4,0.2c-0.1,0-0.1,0-0.2-0.1
						C250.3,283.3,250.2,283,250.4,282.9z M240.7,295.3c0-1.5,1.1-2.7,2.5-3V281c0-0.2,0.1-0.4,0.2-0.5v-4.7c0-0.2,0.1-0.4,0.4-0.4
						c0.2,0,0.4,0.1,0.4,0.4v4.7c0.1,0.1,0.2,0.3,0.2,0.5v11.3c1.4,0.3,2.5,1.5,2.5,3c0,0.6-0.2,1.3-0.6,1.8l11.3,11.5
						c0.2,0.2,0.2,0.6,0,0.8c-0.1,0.1-0.3,0.1-0.4,0.1c-0.1,0-0.3-0.1-0.4-0.2l-11.3-11.5c-0.5,0.4-1.1,0.5-1.7,0.5
						C242,298.4,240.7,297,240.7,295.3z"/>
					<path class="st1" d="M244.1,280.6V276c0-0.2-0.1-0.4-0.4-0.4c-0.2,0-0.4,0.1-0.4,0.4v4.7c0.1-0.1,0.2-0.1,0.4-0.1
						C243.9,280.5,244,280.6,244.1,280.6z"/>
					<path class="st1" d="M255.6,302.5l4.5,2.6c0.1,0,0.1,0.1,0.2,0.1c0.1,0,0.3-0.1,0.4-0.2c0.1-0.2,0.1-0.4-0.1-0.5l-4.5-2.6
						c-0.2-0.1-0.4-0.1-0.5,0.1C255.4,302.1,255.5,302.3,255.6,302.5z"/>
					<path class="st1" d="M257.3,295.1c0,0.2,0.1,0.4,0.4,0.4h5.2c0.2,0,0.4-0.1,0.4-0.4s-0.1-0.4-0.4-0.4h-5.2
						C257.5,294.8,257.3,294.9,257.3,295.1z"/>
					<path class="st1" d="M255.8,288.5c0.1,0,0.1,0,0.2-0.1l4.5-2.6c0.2-0.1,0.2-0.4,0.1-0.5c-0.1-0.2-0.4-0.2-0.5-0.1l-4.5,2.6
						c-0.2,0.1-0.2,0.4-0.1,0.5C255.5,288.4,255.7,288.5,255.8,288.5z"/>
					<path class="st1" d="M250.5,283.4c0.1,0,0.1,0.1,0.2,0.1c0.1,0,0.3-0.1,0.4-0.2l2.6-4.5c0.1-0.2,0.1-0.4-0.1-0.5
						c-0.2-0.1-0.4-0.1-0.5,0.1l-2.6,4.5C250.2,283,250.3,283.3,250.5,283.4z"/>
					<path class="st5" d="M243.8,293.5c-1.1,0-1.9,0.8-1.9,1.9c0,1.1,0.8,1.9,1.9,1.9c1.1,0,1.9-0.8,1.9-1.9
						C245.7,294.4,244.8,293.5,243.8,293.5z"/>
					<path class="st1" d="M296.2,286.5H273c-0.2,0-0.4,0.1-0.4,0.4c0,0.2,0.1,0.4,0.4,0.4h23.2c0.2,0,0.4-0.1,0.4-0.4
						C296.5,286.7,296.4,286.5,296.2,286.5z"/>
					<path class="st1" d="M290.8,291.4H273c-0.2,0-0.4,0.1-0.4,0.4s0.1,0.4,0.4,0.4h17.8c0.2,0,0.4-0.1,0.4-0.4
						S291,291.4,290.8,291.4z"/>
					<path class="st1" d="M283.5,296.9H273c-0.2,0-0.4,0.1-0.4,0.4s0.1,0.4,0.4,0.4h10.5c0.2,0,0.4-0.1,0.4-0.4
						S283.7,296.9,283.5,296.9z"/>
				</g>
			</g>
			<g>
				<path class="st1" d="M239.4,268.5v-4.3c0-0.4,0.4-0.8,0.8-0.8h7.2c0.4,0,0.8,0.4,0.8,0.8v4.3c0.4,0.1,0.8,0.1,1.2,0.2v-4.5
					c0-1.1-0.8-2-2-2h-7.2c-1.1,0-2,0.8-2,2v4.5C238.6,268.6,239,268.6,239.4,268.5z"/>
				<path class="st1" d="M266.4,275.6l-2,2c0.3,0.3,0.5,0.6,0.8,0.9l2.1-2.1L266.4,275.6z"/>
				<path class="st1" d="M261.4,274.7l2-2l-0.8-0.8l-2.1,2.1C260.8,274.2,261.2,274.4,261.4,274.7z"/>
				<path class="st1" d="M263.4,272.7l2.9,2.9l0.8,0.8l1.2,1.2c0.5,0.5,1.1,0.8,1.8,0.8s1.3-0.3,1.8-0.8c1-1,1-2.6,0-3.7l-7-7
					c-0.5-0.5-1.1-0.8-1.8-0.8s-1.3,0.3-1.8,0.8c-1,1-1,2.6,0,3.7l1.2,1.2L263.4,272.7z M262.2,267.9c0.3-0.3,0.6-0.4,1-0.4
					c0.4,0,0.7,0.1,1,0.4l7,7c0.5,0.5,0.5,1.4,0,1.9c-0.3,0.3-0.6,0.4-1,0.4c-0.4,0-0.7-0.1-1-0.4l-7-7
					C261.7,269.3,261.7,268.4,262.2,267.9z"/>
				<path class="st1" d="M265.1,278.6c-0.3-0.4-0.5-0.6-0.8-0.9c-0.4-0.5-0.9-1-1.4-1.5s-1-1-1.6-1.4c-0.3-0.3-0.6-0.5-0.9-0.8
					c-3.3-2.6-7.1-4.4-11.2-5.2c-0.4-0.1-0.8-0.1-1.2-0.2c-1.4-0.2-2.9-0.4-4.3-0.4c-1.5,0-2.9,0.1-4.3,0.4
					c-0.4,0.1-0.8,0.1-1.2,0.2c-5,1.1-9.7,3.5-13.4,7.1c-0.3,0.8-0.5,1.6-0.7,2.5c0.4-0.4,0.8-0.9,1.3-1.3
					c4.9-4.9,11.4-7.6,18.4-7.6c7,0,13.5,2.7,18.4,7.6c10.1,10.1,10.1,26.6,0,36.8c-4.7,4.7-10.8,7.3-17.3,7.6
					c0.8,0.4,1.6,0.7,2.4,1.1c6-0.8,11.5-3.5,15.9-7.8C272.8,304.8,273.5,289.2,265.1,278.6z"/>
				<path class="st1" d="M259.5,311.1c8.7-8.7,8.7-22.9,0-31.6c-4.2-4.2-9.9-6.6-15.8-6.6c-6,0-11.6,2.3-15.8,6.6
					c-2.1,2.1-3.7,4.7-4.9,7.3c0,0.1,0,0.2,0,0.3c0,1.1,0.1,2.2,0.1,3.2c0.9-3.7,2.7-7.1,5.6-9.9c4-4,9.3-6.2,14.9-6.2
					c5.6,0,10.9,2.2,14.9,6.2c8.2,8.2,8.2,21.6,0,29.9c-4,4-9.3,6.2-14.9,6.2c-3.1,0-6.1-0.7-8.9-2c0.8,0.8,1.8,1.5,2.7,2.3
					c2,0.6,4.1,0.9,6.3,0.9C249.7,317.7,255.3,315.4,259.5,311.1z"/>
				<path class="st1" d="M244.3,292.3V281c0-0.2-0.1-0.4-0.2-0.5c-0.1-0.1-0.2-0.1-0.4-0.1c-0.1,0-0.3,0.1-0.4,0.1
					c-0.1,0.1-0.2,0.3-0.2,0.5v11.3c0.2-0.1,0.4-0.1,0.6-0.1C244,292.2,244.1,292.3,244.3,292.3z"/>
				<path class="st7" d="M245.5,298l11.3,11.5c0.1,0.1,0.3,0.2,0.4,0.2c0.1,0,0.3-0.1,0.4-0.1c0.2-0.2,0.2-0.6,0-0.8l-11.3-11.5
					C246.1,297.5,245.7,297.7,245.5,298z"/>
				<path class="st1" d="M245.5,298c0.4-0.2,0.6-0.5,0.8-0.8c0.4-0.5,0.6-1.1,0.6-1.8c0-1.5-1.1-2.7-2.5-3c-0.2-0.1-0.4-0.1-0.6-0.1
					s-0.4,0-0.6,0.1c-1.4,0.3-2.5,1.5-2.5,3c0,1.7,1.4,3.1,3.1,3.1C244.3,298.4,245,298.2,245.5,298z M243.8,297.3
					c-1.1,0-1.9-0.8-1.9-1.9c0-1.1,0.8-1.9,1.9-1.9c1.1,0,1.9,0.8,1.9,1.9C245.7,296.4,244.8,297.3,243.8,297.3z"/>
				<g>
					<g>
						<g>
							<path class="st1" d="M270.8,251.4c-0.1,0-0.1,0-0.2,0c-1.3-0.4-2.5-0.6-3.8-0.8c-0.4-0.1-0.7-0.4-0.6-0.8
								c0.1-0.4,0.5-0.7,0.8-0.6c1.3,0.2,2.7,0.5,4,0.8c0.4,0.1,0.6,0.6,0.6,0.9C271.5,251.2,271.2,251.4,270.8,251.4z"/>
						</g>
						<g>
							<path class="st1" d="M260.9,325.7c-10.3,0-20-4-27.3-11.3c-7.3-7.3-11.3-17-11.3-27.3s4-20,11.3-27.3
								c7.3-7.3,17-11.3,27.3-11.3c0.4,0,0.8,0.4,0.8,0.8s-0.4,0.8-0.8,0.8c-9.9,0-19.2,3.9-26.2,10.9c-7,7-10.9,16.3-10.9,26.2
								c0,9.9,3.9,19.2,10.9,26.2c7,7,16.3,10.9,26.2,10.9s19.2-3.9,26.2-10.9c7-7,10.9-16.3,10.9-26.2c0-7-1.9-13.7-5.6-19.6
								c-3.5-5.7-8.6-10.4-14.6-13.4c-0.4-0.2-0.5-0.6-0.4-1.1c0.2-0.4,0.6-0.5,1.1-0.4c6.2,3.2,11.5,8,15.1,14
								c3.8,6.1,5.8,13.2,5.8,20.4c0,10.3-4,20-11.3,27.3C280.9,321.7,271.2,325.7,260.9,325.7z"/>
						</g>
					</g>
					<g>
						<g>
							<circle class="st1" cx="274.6" cy="251.8" r="1"/>
						</g>
					</g>
				</g>
			</g>
		</g>
	</g>
	<g>
		<g>
			<g>
				<path class="st0" d="M246.4,147.9l3.1-14.7h2.7l-4.7,20.6h-2.7l-1.9-14.7l-1.9,14.7h-2.7l-4.7-20.6h2.7l3.1,14.8l2-14.8h2.7
					L246.4,147.9z"/>
				<path class="st0" d="M255.7,133.2h2.6v6.6l0.2-0.3c1-1,2.2-1.6,3.6-1.6s2.6,0.5,3.6,1.6c1,1,1.6,2.3,1.6,3.6v10.6h-2.6v-10.6
					c0-0.8-0.4-1.4-1-1.9c-0.6-0.6-1.3-0.8-2.3-0.8s-1.7,0.3-2.3,0.8c-0.6,0.6-0.9,1.2-0.9,1.9v10.6h-2.6L255.7,133.2L255.7,133.2z"
					/>
				<path class="st0" d="M278.3,141.4c-0.6-0.5-1.4-0.8-2.3-0.8c-0.9,0-1.7,0.3-2.3,0.8c-0.8,0.6-1.1,1.3-1.1,2.1H270
					c0-1.5,0.6-2.7,1.8-3.8c0.9-1,2.3-1.6,4.1-1.6c1.8,0.1,3.2,0.6,4.1,1.6c1.2,1.1,1.8,2.3,1.8,3.8v7.6c0,0.8,0.4,1.7,1,2.5h-3
					c-0.1-0.3-0.2-0.5-0.4-0.8c-1,0.5-2,0.8-3.2,0.9c-1.8,0.1-3.4-0.2-4.7-1c-1.3-0.8-2-1.8-2-3.1c-0.1-1.3,0.6-2.4,1.8-3.5
					c1.3-1.1,2.7-1.7,4.5-1.8c1.1-0.1,2.3-0.4,3.4-0.7v-0.2C279.3,142.7,279,141.9,278.3,141.4z M279.3,145.8
					c-1.1,0.4-2.2,0.6-3.2,0.8c-1.1,0.2-2,0.6-2.8,1.1c-0.6,0.6-0.9,1.2-0.8,1.8c0,0.6,0.4,1.2,1.1,1.6s1.7,0.5,2.7,0.4
					c1.1-0.1,2-0.4,2.7-0.9l0.4-0.3v-1.1L279.3,145.8L279.3,145.8z"/>
				<path class="st0" d="M290.9,153.8c-3,0-4.5-1.4-4.5-4.3v-8.9h-2.6v-2.3h2.6v-4.4h2.6v4.4h4.2v2.3H289v8.9c0,1.3,0.6,1.9,1.9,1.9
					h1.3v2.3L290.9,153.8L290.9,153.8z"/>
			</g>
			<g>
				<g>
					<path class="st2" d="M245.5,147l3.1-14.7h2.7l-4.7,20.6h-2.7l-1.9-14.7l-1.9,14.7h-2.7l-4.7-20.6h2.7l3.1,14.8l2-14.8h2.7
						L245.5,147z"/>
					<path class="st2" d="M254.9,132.3h2.6v6.6l0.2-0.3c1-1,2.2-1.6,3.6-1.6s2.6,0.5,3.6,1.6c1,1,1.6,2.3,1.6,3.6v10.6h-2.6v-10.6
						c0-0.8-0.4-1.4-1-1.9c-0.6-0.6-1.3-0.8-2.3-0.8s-1.7,0.3-2.3,0.8c-0.6,0.6-0.9,1.2-0.9,1.9v10.6h-2.6L254.9,132.3L254.9,132.3z
						"/>
					<path class="st2" d="M277.4,140.5c-0.6-0.5-1.4-0.8-2.3-0.8c-0.9,0-1.7,0.3-2.3,0.8c-0.8,0.6-1.1,1.3-1.1,2.1h-2.5
						c0-1.5,0.6-2.7,1.8-3.8c0.9-1,2.3-1.6,4.1-1.6c1.8,0.1,3.2,0.6,4.1,1.6c1.2,1.1,1.8,2.3,1.8,3.8v7.6c0,0.8,0.4,1.7,1,2.5h-3
						c-0.1-0.3-0.2-0.5-0.4-0.8c-1,0.5-2,0.8-3.2,0.9c-1.8,0.1-3.4-0.2-4.7-1c-1.3-0.8-2-1.8-2-3.1c-0.1-1.3,0.6-2.4,1.8-3.5
						c1.3-1.1,2.7-1.7,4.5-1.8c1.1-0.1,2.3-0.4,3.4-0.7v-0.2C278.4,141.7,278,141,277.4,140.5z M278.4,144.9
						c-1.1,0.4-2.2,0.6-3.2,0.8c-1.1,0.2-2,0.6-2.8,1.1c-0.6,0.6-0.9,1.2-0.8,1.8c0,0.6,0.4,1.2,1.1,1.6s1.7,0.5,2.7,0.4
						c1.1-0.1,2-0.4,2.7-0.9l0.4-0.3v-1.1L278.4,144.9L278.4,144.9z"/>
					<path class="st2" d="M290.1,152.9c-3,0-4.5-1.4-4.5-4.3v-8.9H283v-2.3h2.6v-4.4h2.6v4.4h4.2v2.3h-4.2v8.9
						c0,1.3,0.6,1.9,1.9,1.9h1.3v2.3H290.1z"/>
				</g>
				<g>
					<path class="st1" d="M229.1,171.5c1.2-0.5,2.4-1.2,3.6-2.2c1.2-1,2.3-2.2,3.1-3.6l1.3,0.6c-0.1,0.2-0.2,0.4-0.4,0.5
						c0.7,0.9,1.6,1.8,2.5,2.5c1,0.8,2.3,1.4,3.7,2l-0.7,1.3c-0.8-0.4-1.5-0.6-2.1-1v1.1h-3.5v2.5h3.8v1.4h-3.8v2.5h5.6v1.4h-12.5
						v-1.4h5.6v-2.5h-3.8v-1.4h3.8v-2.5h-3.5v-1c-0.6,0.4-1.3,0.7-2.1,1.1L229.1,171.5z M236,168.1c-0.8,1-1.7,1.9-2.6,2.7
						c-0.2,0.2-0.5,0.4-0.8,0.6h7c-0.4-0.2-0.7-0.4-1.1-0.7C237.5,169.9,236.7,169,236,168.1z"/>
					<path class="st1" d="M260.1,168.2h-6.2l-0.4,1.4h5.9v10.9h-12.5v-10.9h5.2l0.4-1.4h-6.3v-1.4h14L260.1,168.2L260.1,168.2z
						 M250.4,178.9v-8h-2.1v8L250.4,178.9L250.4,178.9z M254.6,172.7V171h-2.8v1.8L254.6,172.7L254.6,172.7z M254.6,175.8v-1.8h-2.8
						v1.8H254.6z M254.6,178.9v-1.8h-2.8v1.8H254.6z M258,178.9v-8h-2.1v8L258,178.9L258,178.9z"/>
					<path class="st1" d="M268.1,170.2h-5.2v-1.3h5.2V170.2z M267.8,180.3h-4.5v-4.3h4.5V180.3z M267.4,167.7h-3.8v-1.3h3.8V167.7z
						 M267.4,172.6h-3.8v-1.3h3.8V172.6z M267.4,175h-3.8v-1.3h3.8V175z M266.3,179v-1.6h-1.8v1.6H266.3z M268.8,176.3l1.3,0.1
						l-0.4,3.2l-1.3-0.1L268.8,176.3z M276.8,166.4v5.2c0,1.4-0.7,2.1-2.1,2.1h-1.1v-1.4h1.1c0.5,0,0.7-0.2,0.7-0.7v-3.8H273
						c0,0.8-0.1,1.5-0.2,2l1.5,0.6l-0.5,1.1l-1.3-0.6c-0.6,1.6-1.8,2.6-3.5,3l-0.4-1.3c1.3-0.4,2.1-1.1,2.6-2.3l-1.5-0.6l0.5-1.1
						l1.4,0.6c0.1-0.4,0.1-1,0.1-1.5h-2.5v-1.4H276.8z M272.3,178.3c0,0.5,0.2,0.7,0.7,0.7h1.4v-1.4h1.4v2.8H273
						c-1.4,0-2.1-0.7-2.1-2.1v-2.5h1.4V178.3z M271.8,174.6l0.8-1l2,1.7l-0.8,1L271.8,174.6z M275.3,176.2l1.1-0.6l1.3,2.7l-1.1,0.5
						L275.3,176.2z"/>
					<path class="st1" d="M284.5,170.2h-4.6v-1.3h4.6V170.2z M284.3,180.3h-4.2v-4.3h4.2V180.3z M284.1,172.6h-3.9v-1.3h3.9V172.6z
						 M284.1,175h-3.9v-1.3h3.9V175z M284.1,167.7h-3.5v-1.3h3.5V167.7z M283,179v-1.6h-1.6v1.6H283z M284.4,170.6h1.3l-0.3-1.5
						h-0.7v-1.3h1.9V166h1.3v1.7h1.9v1.3h-0.7l-0.3,1.5h1.8v-4.1h1.3v4.1h2.7v1.3h-2.7v3c0,0.4,0,0.6,0,0.8c0.4-0.6,0.8-1.6,1.1-2.7
						l1.3,0.4c-0.5,1.7-1.1,3.1-2,4.2c0.2,0.6,0.5,1.1,0.8,1.3l0.4-1.5l1.3,0.4l-0.8,2.7h-1c-0.8-0.5-1.3-1.1-1.7-1.8
						c-0.6,0.6-1.3,1.3-2.2,1.8l-0.8-1.1c1-0.6,1.8-1.4,2.5-2.3c-0.1-0.6-0.3-1.4-0.3-2.3v-3h-6.2L284.4,170.6L284.4,170.6z
						 M285.1,172.6h4.4v5.7h-4.4V172.6z M288.1,174.9v-1h-1.8v1H288.1z M288.1,177v-1h-1.8v1H288.1z M287.5,170.6l0.3-1.5h-1
						l0.3,1.5H287.5z M292.2,167.4l1.2-0.4l0.8,2.5l-1.2,0.4L292.2,167.4z"/>
					<path class="st1" d="M207,184.3c-0.1,0.4-0.4,0.8-0.6,1.2h4.8v1.4h-5.6c-0.4,0.5-0.7,1-1.1,1.4h5.1l1.4,0.1l-0.1,1.8
						c1.3-1.7,2.2-3.9,2.5-6.5l1.3,0.2c-0.1,0.8-0.4,1.8-0.6,2.9h3.8v1.3h-0.7c-0.1,2.5-0.7,4.7-1.6,6.5c0.6,1.1,1.6,2,2.7,2.8
						l-0.9,1c-1.1-0.8-2-1.6-2.5-2.6c-0.7,1-1.6,1.8-2.8,2.6l-0.8-1.1c1.3-0.8,2.2-1.7,2.9-2.8c-0.6-1.2-1.1-2.6-1.4-4.4
						c-0.2,0.4-0.5,0.7-0.8,1l-0.9-0.8l-0.1,1h1v1.4h-1.1l-0.1,1.8h0.9v1.4h-1.2l-0.2,2.5h-2.4v-1.2h1.1l0.1-1.2h-3.8l-0.1,1.1
						l-1.4-0.1l0.3-4.2h-1v-1.4h1.1l0.3-3c-0.1,0.1-0.3,0.3-0.4,0.4l-1.1-1c1.1-1,2-2.3,2.9-4.2L207,184.3z M206.6,192.8h-1.2
						l-0.1,1.8h1.2L206.6,192.8z M206.9,189.7h-1.2l-0.1,1.8h1.1L206.9,189.7z M208,192.8l-0.1,1.8h1.3l0.1-1.8H208z M208.3,189.7
						l-0.1,1.8h1.3l0.1-1.8H208.3z M213.6,188.2c0.1,2,0.5,3.6,1.1,4.9c0.6-1.3,1-3,1.1-4.9H213.6z"/>
					<path class="st1" d="M224.8,188h-1.4v3.8l0.9-0.4l0.6,1.3l-1.5,0.5v5.2h-2.5V197h1.1v-3.3l-1.3,0.5l-0.5-1.3l1.8-0.7v-4.3h-1.8
						v-1.4h1.8v-2.8h1.4v2.8h1.4C224.8,186.5,224.8,188,224.8,188z M226.2,191.6h3.2v-0.9h-4.5v-1.3h4.5v-0.9h-3.5v-1.3h3.5v-0.9
						h-4.2V185h4.2v-1.3h1.4v1.3h3.8v1.3h-3.8v0.9h3.2v2.2h1.1v1.3h-1.1v2.2h-3.2v1.1h3.2v1.2h-3.2v2c0.4,0.1,0.9,0.1,1.4,0.1h2.8
						v1.2h-2.8c-2.5,0-4.3-0.6-5.5-1.8c-0.4,0.7-0.9,1.3-1.6,1.8l-0.9-0.9c1.1-0.8,1.8-2.3,2-4l1.3,0.1c-0.1,0.5-0.1,1-0.4,1.6
						c0.6,0.7,1.3,1.2,2.1,1.6v-3.9h-3.2L226.2,191.6L226.2,191.6z M232.5,189.4v-0.9h-1.8v0.9H232.5z M232.5,191.6v-0.9h-1.8v0.9
						H232.5z"/>
					<path class="st1" d="M238.9,194.4l1.3,0.6l-1.3,2.5l-1.3-0.6L238.9,194.4z M239,184.4h11.1v8H239V184.4z M243.9,187.7v-1.9
						h-3.5v1.9H243.9z M243.9,191.1v-1.9h-3.5v1.9H243.9z M241.1,193.9h1.4v1.8c0,0.9,0.5,1.4,1.4,1.4h3.2V196h1.4v2.5H244
						c-1.8,0-2.8-0.9-2.8-2.8L241.1,193.9L241.1,193.9z M244.6,192.9l2.3,1.8l-0.9,1.1l-2.2-1.8L244.6,192.9z M248.8,187.7v-1.9
						h-3.5v1.9H248.8z M248.8,191.1v-1.9h-3.5v1.9H248.8z M250.4,197.5l-1.3-2.5l1.3-0.6l1.3,2.5L250.4,197.5z"/>
					<path class="st1" d="M258.2,184.4l-2.1,3.7l1.1,0.6l1.8-3.1l1.1,0.6l-2.5,4.4h1.3l-0.2-0.8l1.2-0.4l1.1,2.9l-1.2,0.4l-0.3-0.8
						h-1.2v6.3h-1.4v-6.1h-2.5v-1.4h1.8l0.5-0.8l-2.2-1.3l2.7-4.8L258.2,184.4z M255,193.2l1.3,0.2l-0.7,4l-1.3-0.2L255,193.2z
						 M258.8,193.9l1.3-0.4l0.7,2.6l-1.3,0.3L258.8,193.9z M261.7,189.8c-0.1,0.3-0.4,0.6-0.7,0.9l-1.1-0.8c1.3-1.5,2.1-3.5,2.6-5.8
						l1.3,0.2c-0.1,0.8-0.4,1.6-0.5,2.3h2l0.6-2.4l1.2,0.4l-0.6,2h2.4v1.4h-2.8v2.1h2.1v1.4h-2.1v2.1h2.1v1.4h-2.1v2h2.8v1.3h-7.3
						L261.7,189.8L261.7,189.8z M263,188v2.1h1.8V188H263z M264.8,193.5v-2.1H263v2.1H264.8z M264.8,197v-2.1H263v2L264.8,197
						L264.8,197z"/>
					<path class="st1" d="M279.3,195.1c-1.3-1.2-2.3-2.5-3.1-4.2c-0.7,2.8-1.9,5.1-3.7,7l-1.2-0.9c2.5-2.6,3.9-6.3,4.2-11.2h-2.4
						v-1.4h7.8l1.3,0.2l-0.6,4h2l1.3,0.4c-0.6,2.4-1.6,4.4-3.3,6.1c1.1,0.8,2.5,1.4,3.9,1.9l-0.6,1.3c-1.7-0.6-3.2-1.3-4.5-2.3
						c-1.2,1-2.6,1.7-4.2,2.3l-0.6-1.3C277.1,196.6,278.3,196,279.3,195.1z M281.3,190l-0.1,0.3l-1.3-0.3l0.7-4.2h-3.7l-0.3,2.5
						c0.8,2.4,2,4.3,3.8,5.8c1.3-1.1,2.1-2.5,2.5-4.2L281.3,190L281.3,190z"/>
					<path class="st1" d="M296.8,183.6v1.2h5.9v1.2h-3.4l1,0.5l-0.5,0.9h2.5v1h-2.8v0.7h2.4v1h-2.4v0.7h2.4v1h-2.4v0.7h2.8v1H295
						v-3.9c-0.3,0.4-0.6,0.6-0.9,0.8l-0.6-0.6v3.6h-1.3v-3c-0.2,0.2-0.5,0.5-0.9,0.7l-0.5-0.6v0.8c0,2.7-0.4,4.9-1.2,6.7l-1.4-0.5
						c0.8-1.7,1.1-3.7,1.2-6.1v-6.6h5.9v-1.2L296.8,183.6L296.8,183.6z M292.1,194.8l1.1,0.6l-1.2,2.4l-1.1-0.6L292.1,194.8z
						 M290.9,190c1.3-1,2.2-2.3,2.7-3.9h-2.7V190z M293.6,188.9v0.4c1.1-1,1.9-2,2.4-3.3h-2.3l1.1,0.4
						C294.5,187.4,294.1,188.2,293.6,188.9z M293.6,194.7h1.3v1.6c0,0.6,0.4,1,1,1h3.4v-1h1.3v2.2h-4.7c-1.6,0-2.3-0.7-2.3-2.1
						L293.6,194.7L293.6,194.7z M296.1,194.8l0.8-1l1.6,1.3l-0.8,1L296.1,194.8z M296.6,187.4h1.9l0.7-1.4h-3l1,0.3
						C297,186.9,296.8,187.3,296.6,187.4z M296.4,188.4v0.7h1.8v-0.7H296.4z M298.2,190.8v-0.7h-1.8v0.7H298.2z M298.2,192.5v-0.7
						h-1.8v0.7H298.2z M302.3,197.8l-1.2-2.4l1.2-0.6l1.2,2.4L302.3,197.8z"/>
					<path class="st1" d="M319.3,198.4h-2.8V197h1.4v-4.2h-3.9v4.9h-1.4v-4.9h-4c-0.1,2.2-0.6,4-1.4,5.6l-1.3-0.6
						c0.9-1.8,1.4-4,1.5-6.6v-6.7h12V198.4z M312.6,188v-2.1h-3.9v2.1H312.6z M312.6,191.4v-2.1h-3.9v2.1H312.6z M317.8,188v-2.1
						h-3.9v2.1H317.8z M317.8,191.4v-2.1h-3.9v2.1H317.8z"/>
				</g>
			</g>
		</g>
		<g>
			<g>
				<path class="st3" d="M228.2,76.2c0-1.7,1.3-3,2.9-3.2v-4.5c0-1.8,1.4-3.2,3.2-3.2h41.1l0.7-2c0.4-1.6,1.7-2.7,3.1-2.7h11.9
					c1.4,0,2.6,1.1,2.6,2.6v13v14c3.3-5.6,5.2-12.1,5.2-19.2c0-20.9-16.9-37.8-37.8-37.8c-20.9,0-37.8,16.9-37.8,37.8
					c0,6.8,1.8,13.2,4.9,18.7L228.2,76.2L228.2,76.2z"/>
				<path class="st5" d="M291.1,61.9h-11.9c-0.8,0-1.7,0.8-1.9,1.8v0.1l-0.9,2.4c-0.1,0.2-0.4,0.4-0.6,0.4h-41.5c-1.1,0-2,0.9-2,2
					v4.5h1.1v-1.9c0-0.4,0.3-0.6,0.6-0.6h2.3v-2c0-0.4,0.3-0.6,0.6-0.6h52.4c0.4,0,0.6,0.3,0.6,0.6v4.5h0.6c0.8,0,1.4,0.3,2,0.7
					V63.3C292.5,62.5,291.9,61.9,291.1,61.9z"/>
				<path class="st4" d="M237.5,69.2v1.3h48.9c0.4,0,0.6,0.3,0.6,0.6V73h1.6v-3.9L237.5,69.2L237.5,69.2z"/>
				<rect x="234.6" y="71.8" class="st4" width="51.2" height="1.3"/>
				<path class="st5" d="M290.5,74.3h-59.1c-1.1,0-2,0.8-2,2v15.6c6.8,10.3,18.4,17.1,31.6,17.1c13.1,0,24.6-6.6,31.4-16.7v-16
					C292.5,75.2,291.6,74.3,290.5,74.3z M282.8,87.3h-20.4v-7h20.4V87.3z"/>
				<path class="st4" d="M262.3,87.3h20.4v-7h-20.4V87.3z M265.1,82.3h14.8c0.2,0,0.4,0.1,0.4,0.4s-0.1,0.4-0.4,0.4h-14.8
					c-0.2,0-0.4-0.1-0.4-0.4S264.9,82.3,265.1,82.3z M265.1,84.7h14.8c0.2,0,0.4,0.1,0.4,0.4s-0.1,0.4-0.4,0.4h-14.8
					c-0.2,0-0.4-0.1-0.4-0.4S264.9,84.7,265.1,84.7z"/>
				<path class="st1" d="M265.1,83h14.8c0.2,0,0.4-0.1,0.4-0.4s-0.1-0.4-0.4-0.4h-14.8c-0.2,0-0.4,0.1-0.4,0.4S264.9,83,265.1,83z"
					/>
				<path class="st1" d="M265.1,85.4h14.8c0.2,0,0.4-0.1,0.4-0.4s-0.1-0.4-0.4-0.4h-14.8c-0.2,0-0.4,0.1-0.4,0.4
					S264.9,85.4,265.1,85.4z"/>
			</g>
		</g>
		<path class="st1" d="M231,73v-4.5c0-1.1,0.9-2,2-2h41.5c0.3,0,0.5-0.1,0.6-0.4l0.9-2.4v-0.1c0.2-1,1.1-1.8,1.9-1.8h11.9
			c0.8,0,1.3,0.6,1.3,1.3v10.6c0.8,0.6,1.2,1.5,1.2,2.5v-13c0-1.4-1.1-2.6-2.6-2.6h-11.9c-1.3,0-2.7,1.2-3.1,2.7l-0.7,2h-41.1
			c-1.8,0-3.2,1.4-3.2,3.2v4.5c0.1,0,0.2,0,0.3,0L231,73L231,73z"/>
		<path class="st1" d="M287.3,68h-52.4c-0.4,0-0.6,0.3-0.6,0.6v2h1.2v-1.3h51.2v3.9h1.2v-4.5C287.9,68.3,287.6,68,287.3,68z"/>
		<path class="st1" d="M287.3,70.6h-49h-1.2h-2.3c-0.4,0-0.6,0.3-0.6,0.6v1.9h1.2v-1.3h51.2v1.3h1.2v-1.9
			C287.9,70.8,287.6,70.6,287.3,70.6z"/>
		<path class="st1" d="M292.6,73.7c-0.6-0.4-1.2-0.7-2-0.7H290h-1.2h-1.6H286h-51.2h-1.2h-1.1h-0.9c-0.1,0-0.2,0-0.3,0
			c-1.6,0.1-2.9,1.5-2.9,3.2v13.6c0.4,0.7,0.8,1.3,1.2,2V76.1c0-1.1,0.8-2,2-2h59.1c1.1,0,2,0.8,2,2v16c0.4-0.6,0.8-1.3,1.2-2v-14
			C293.8,75.2,293.3,74.3,292.6,73.7z"/>
		<g>
			<g>
				<g>
					<path class="st1" d="M271,35.4c-0.1,0-0.1,0-0.2,0c-1.3-0.4-2.5-0.6-3.8-0.8c-0.4-0.1-0.7-0.4-0.6-0.8c0.1-0.4,0.5-0.7,0.8-0.6
						c1.3,0.2,2.7,0.5,4,0.8c0.4,0.1,0.6,0.6,0.6,0.9C271.6,35.2,271.3,35.4,271,35.4z"/>
				</g>
				<g>
					<path class="st1" d="M261.1,109.8c-10.3,0-20-4-27.3-11.3c-7.3-7.3-11.3-17-11.3-27.3s4-20,11.3-27.3
						c7.3-7.3,17-11.3,27.3-11.3c0.4,0,0.8,0.4,0.8,0.8s-0.4,0.8-0.8,0.8c-9.9,0-19.2,3.9-26.2,10.9c-7,7-10.9,16.3-10.9,26.2
						s3.9,19.2,10.9,26.2c7,7,16.3,10.9,26.2,10.9c9.9,0,19.2-3.9,26.2-10.9c7-7,10.9-16.3,10.9-26.2c0-7-1.9-13.7-5.6-19.6
						C289,46,284,41.3,278,38.3c-0.4-0.2-0.5-0.6-0.4-1.1c0.2-0.4,0.6-0.5,1.1-0.4c6.2,3.2,11.5,8,15.1,14
						c3.8,6.1,5.8,13.2,5.8,20.4c0,10.3-4,20-11.3,27.3C281.1,105.7,271.3,109.8,261.1,109.8z"/>
				</g>
			</g>
			<g>
				<circle class="st1" cx="274.7" cy="35.8" r="1"/>
			</g>
		</g>
	</g>
	<g>
		<g>
			<g>
				<g>
					<path class="st1" d="M36.4,171.5c1.2-0.5,2.4-1.2,3.6-2.2c1.2-1,2.3-2.2,3.1-3.6l1.3,0.6c-0.1,0.2-0.2,0.4-0.3,0.5
						c0.7,0.9,1.6,1.8,2.5,2.5c1,0.8,2.3,1.4,3.7,2l-0.7,1.3c-0.8-0.4-1.5-0.6-2.1-1v1.1H44v2.5h3.9v1.4h-3.8v2.5h5.6v1.4H37.1v-1.4
						h5.6v-2.5h-3.8v-1.4h3.8v-2.5h-3.5v-1c-0.6,0.4-1.3,0.7-2.1,1.1L36.4,171.5z M43.2,168.1c-0.8,1-1.7,1.9-2.6,2.7
						c-0.2,0.2-0.5,0.4-0.8,0.6h7c-0.4-0.2-0.7-0.4-1.1-0.7C44.8,169.9,44,169,43.2,168.1z"/>
					<path class="st1" d="M58.3,169.2h-1.8v2.5H58v1.4h-1.4v3.2L58,176l0.4,1.3l3.9-2.4v-4.6h-3.5v-1.4h3.5V166h1.4v2.8h3.8v1.4
						h-3.8v0.7c0.2,0.8,0.5,1.6,0.8,2l2-1.7l0.9,1.1l-2.3,1.9c0.7,1.2,1.7,2.3,2.8,3.1l-0.8,1.3c-1.3-1-2.5-2.3-3.4-3.8v5.6h-2.8
						V179h1.4v-2.5l-3.2,2l-0.7-1.2v0.1l-4.9,1.3l-0.4-1.3l2-0.5v-3.6h-1.4v-1.4h1.4v-2.5h-1.8v-1.4h4.9L58.3,169.2L58.3,169.2z
						 M59.7,171.7l1.7,1.8l-1,1l-1.7-1.8L59.7,171.7z M64.5,167l1-1l1.5,1.5l-1,1L64.5,167z"/>
					<path class="st1" d="M70.5,171.9c1.2-0.5,2.4-1.2,3.6-2.2c1.2-1,2.3-2.2,3.1-3.6l1.3,0.6c-0.1,0.2-0.2,0.4-0.3,0.5
						c0.7,0.9,1.6,1.8,2.5,2.5c1,0.8,2.3,1.4,3.7,2l-0.7,1.3c-1.5-0.6-2.7-1.3-3.8-2c-1.1-0.8-1.9-1.6-2.6-2.5
						c-0.8,1-1.7,1.9-2.6,2.7c-1,0.8-2.2,1.4-3.5,2L70.5,171.9z M78.5,170.6v3.2h3.8v1.4h-3.8v3.8H84v1.4H70.8V179h2.1v-5.2h1.4v5.2
						h2.8v-8.4H78.5z"/>
					<path class="st1" d="M93.9,165.7v2.7H95v-2.7h1.3v2.7h1.1l1.3-2.2l1.1,0.6l-0.9,1.6h2.7v1.3h-4.3l-0.3,1.5h3.2v1.3h-4.9v0.8
						h4.2v1.3h-4.2v0.8h6.2v1.3h-4.4c1.3,0.8,2.9,1.6,4.7,2.2l-0.4,1.1c-2.3-0.7-4.3-1.7-6.1-3v3.4h-0.1h-1.3l0,0V177
						c-1.7,1.2-3.7,2.2-6.1,2.9l-0.4-1.1c1.8-0.6,3.3-1.3,4.7-2.2h-4.5v-1.3h6.3v-0.8h-4.2v-1.3h4.2v-0.8h-4.9v-1.3h3.2l-0.4-1.5
						h-4.3v-1.3h2.6l-0.9-1.6l1.1-0.6l1.3,2.2h1.1v-2.7L93.9,165.7L93.9,165.7z M95.5,171.2l0.4-1.5h-2.5l0.3,1.5H95.5z"/>
					<path class="st1" d="M108.1,166.4l-2.1,3.7l1.1,0.6l1.8-3.1l1.1,0.6l-2.5,4.4h1.3l-0.3-0.8l1.2-0.4l1.1,2.9l-1.2,0.4l-0.3-0.8
						h-1.1v6.3h-1.4v-6.3h-2.5v-1.4h1.8l0.5-0.8l-2.2-1.3l2.7-4.8L108.1,166.4z M104.9,175.1l1.3,0.2l-0.7,4l-1.3-0.2L104.9,175.1z
						 M108.7,175.8l1.3-0.4l0.7,2.6l-1.3,0.3L108.7,175.8z M117.3,172.3c-0.8-1.3-1.3-3-1.8-4.9h-1.4V166h2.5
						c0.4,2.7,1.3,4.9,2.5,6.6l-1.2,0.8c-0.2-0.3-0.4-0.6-0.6-0.8v5.6c0,1.4-0.7,2.1-2.1,2.1h-0.7V179h0.7c0.5,0,0.7-0.2,0.7-0.7
						v-4.5h-1.8c-0.3,3.1-1.5,5.3-3.8,6.6l-0.8-1.2c1.8-1.1,2.9-2.9,3.2-5.4h-1v-1.4L117.3,172.3L117.3,172.3z M113.6,167.5
						c-0.4,2.2-1.1,4.1-2.2,5.7l-1.3-0.8c1-1.5,1.7-3.2,2.1-5.2L113.6,167.5z"/>
					<path class="st1" d="M125.1,166.4l-2.1,3.7l1.1,0.6l1.8-3.1l1.1,0.6l-2.5,4.4h1.3l-0.3-0.8l1.2-0.4l1.1,2.9l-1.2,0.4l-0.3-0.8
						h-1.1v6.3h-1.4v-6.3h-2.5v-1.4h1.8l0.5-0.8l-2.2-1.3l2.7-4.8L125.1,166.4z M121.9,175.1l1.3,0.2l-0.7,4l-1.3-0.2L121.9,175.1z
						 M125.8,175.8l1.3-0.4l0.7,2.6l-1.3,0.3L125.8,175.8z M134.3,172.3c-0.8-1.3-1.3-3-1.8-4.9h-1.4V166h2.5
						c0.4,2.7,1.3,4.9,2.5,6.6l-1.2,0.8c-0.2-0.3-0.4-0.6-0.6-0.8v5.6c0,1.4-0.7,2.1-2.1,2.1h-0.7V179h0.7c0.5,0,0.7-0.2,0.7-0.7
						v-4.5h-1.8c-0.3,3.1-1.5,5.3-3.8,6.6l-0.8-1.2c1.8-1.1,2.9-2.9,3.2-5.4h-0.8v-1.4L134.3,172.3L134.3,172.3z M130.6,167.5
						c-0.4,2.2-1.1,4.1-2.2,5.7l-1.3-0.8c1-1.5,1.7-3.2,2.1-5.2L130.6,167.5z"/>
					<path class="st1" d="M138.6,176.6h9.1v-0.7h-0.4c-2.5,0-4.4-0.5-5.6-1.4l-2.6,1.5l-0.5-1l1.8-1v-2.5h-1.8v-1.2h3.2v2.4
						c0.8,1.4,2.7,2.1,5.6,2.1h5.2v1.1h-3.5v0.8h3.5v1.1h-3.5v2.5h-2.5v-1.1h1.1v-1.4H142l1.8,1.1l-0.6,1.1l-1.8-1.1l0.6-1.1h-3.4
						L138.6,176.6L138.6,176.6z M139.8,166.5l2.1,1.3l-0.6,1l-2.1-1.3L139.8,166.5z M147.9,168.8h3.8v5.3h-7.7v-5.3h2.7l0.4-0.6H143
						V167h2.4l-0.4-0.8l1.1-0.6l0.8,1.3h2.2l0.7-1.3l1.1,0.6l-0.4,0.8h2.4v1.1h-4.5L147.9,168.8z M145.5,169.7v0.5h4.9v-0.5H145.5z
						 M145.5,171.2v0.5h4.9v-0.5H145.5z M145.5,172.6v0.5h4.9v-0.5H145.5z"/>
					<path class="st1" d="M163,169.9c-0.1-0.6-0.2-1.3-0.3-2h-3.8v-1.4h5.1c0.5,6.4,2.5,10.6,6.1,12.8l-0.7,1.3
						c-3.1-1.7-5.1-4.9-6.2-9.8c-1.1,4.6-3.4,7.9-7,9.8l-0.7-1.3c3.5-1.8,5.6-5.1,6.5-9.6L163,169.9z"/>
					<path class="st1" d="M39.9,184.3c-0.1,0.4-0.4,0.8-0.6,1.2h4.8v1.4h-5.6c-0.4,0.5-0.7,1-1.1,1.4h5.1l1.4,0.1l-0.1,1.8
						c1.3-1.7,2.2-3.9,2.5-6.5l1.3,0.2c-0.1,0.8-0.4,1.8-0.6,2.9h3.8v1.3H50c-0.1,2.5-0.7,4.7-1.6,6.5c0.6,1.1,1.6,2,2.7,2.8l-0.9,1
						c-1.1-0.8-2-1.6-2.5-2.6c-0.7,1-1.6,1.8-2.8,2.6l-0.8-1.1c1.3-0.8,2.2-1.7,2.9-2.8c-0.6-1.2-1.1-2.6-1.4-4.4
						c-0.2,0.4-0.5,0.7-0.8,1l-0.9-0.8l-0.1,1h1v1.4h-1.1l-0.1,1.8h0.9v1.4h-1.1l-0.2,2.5h-2.4v-1.2h1.1l0.1-1.2h-3.8l-0.1,1.1
						l-1.4-0.1l0.4-4.1h-1v-1.4h1.1l0.3-3c-0.1,0.1-0.3,0.3-0.4,0.4l-1.1-1c1.1-1,2-2.3,2.9-4.2L39.9,184.3z M39.4,192.8h-1.1
						l-0.1,1.8h1.2L39.4,192.8z M39.7,189.7h-1.2l-0.1,1.8h1.1L39.7,189.7z M40.9,192.8l-0.1,1.8H42l0.1-1.8H40.9z M41.1,189.7
						l-0.1,1.8h1.3l0.1-1.8H41.1z M46.4,188.2c0.1,2,0.5,3.6,1.1,4.9c0.6-1.3,1-3,1.1-4.9H46.4z"/>
					<path class="st1" d="M57.6,188h-1.4v3.8l0.9-0.4l0.6,1.3l-1.5,0.5v5.2h-2.5V197h1.1v-3.3l-1.3,0.5l-0.5-1.3l1.8-0.7v-4.3H53
						v-1.4h1.8v-2.8h1.4v2.8h1.4C57.6,186.5,57.6,188,57.6,188z M59,191.6h3.2v-0.9h-4.5v-1.3h4.5v-0.9h-3.5v-1.3h3.5v-0.9H58V185
						h4.2v-1.3h1.4v1.3h3.8v1.3h-3.8v0.9h3.2v2.2h1.1v1.3h-1.1v2.2h-3.2v1.1h3.2v1.2h-3.2v2c0.4,0.1,0.9,0.1,1.4,0.1h2.8v1.2H65
						c-2.5,0-4.3-0.6-5.5-1.8c-0.4,0.7-0.9,1.3-1.6,1.8l-0.9-0.9c1.1-0.8,1.8-2.3,2-4l1.3,0.1c-0.1,0.5-0.1,1-0.4,1.6
						c0.6,0.7,1.3,1.2,2.1,1.6v-3.9H59V191.6z M65.3,189.4v-0.9h-1.8v0.9H65.3z M65.3,191.6v-0.9h-1.8v0.9H65.3z"/>
					<path class="st1" d="M74.5,184.4l-0.6,2.4h2.3V197h-5.2v-10.1h1.6l0.7-2.8L74.5,184.4z M74.7,191.3v-3h-2.5v3H74.7z
						 M74.7,195.6v-3h-2.5v3H74.7z M80,184.3c-0.1,0.9-0.4,1.8-0.6,2.6H84v7.7c0,2.5-1.3,3.8-3.8,3.8h-0.4V197h0.4
						c1.6,0,2.5-0.8,2.5-2.5v-6.3h-3.8c-0.4,1-0.8,1.8-1.4,2.6l-1.3-0.8c1.2-1.6,2-3.6,2.4-6.1L80,184.3z M78.4,191.6l1-1l2,2l-1,1
						L78.4,191.6z"/>
					<path class="st1" d="M91,184.4l-0.6,2.5h2.6v1.4c-0.1,2.3-0.4,4.2-1.1,5.6l1.4,0.8l-0.7,1.2l-1.4-0.8l-0.1,0.1
						c-0.7,1.1-1.6,2-2.7,2.8l-1-1.1c1.1-0.8,1.9-1.6,2.5-2.6v-0.1l-1.1-0.6l-0.1,0.5l-1.3-0.4l1.2-5.6h-1.6v-1.4H89l0.6-2.8
						L91,184.4z M90.2,188.3l-0.8,3.9l1.5,0.9c0.6-1.3,0.9-3,0.8-4.9H90.2z M100.2,184.4l1.1,0.8l-3.1,4.2v1.3h3.5v1.4h-3.5v6.3
						h-2.8V197h1.4v-4.9h-3.5v-1.4h3.5v-2.8h1l1.5-2.1h-5.2v-1.4L100.2,184.4L100.2,184.4z"/>
					<path class="st1" d="M109.1,196c-0.2-0.3-0.4-0.6-0.5-1c-0.2,0.4-0.5,0.8-0.8,1.1l-1-0.7c-0.2,1-0.6,1.8-1.3,2.7l-1.2-0.9
						c0.8-0.8,1.3-1.8,1.3-3.1v-8h5.1v-2.5h1.4v0.8h4.5v1h-4.5v0.6h5.3v-0.1l1.3,0.2l-0.4,2l-1.4-0.2l0.1-0.8h-5.7v0.6h4.5v1.1h-4.5
						v0.1c0,0.4,0.2,0.5,0.7,0.5h4.2v-0.6h1.4v1.7h-5.6c-1.4,0-2.1-0.6-2.1-1.6v-0.1h-2.5v-1h2.5v-0.7h-3v6.9c0,0.4-0.1,0.8-0.1,1.1
						c1.1-1.3,1.8-2.7,2-4.4l1.3,0.1l-0.1,0.7h1.1l1.2,0.1c-0.1,1.7-0.6,3-1.6,4.2c0.8,0.8,2.4,1.2,4.5,1.2h3.6v1.2h-3.6
						c-2.5,0-4.2-0.5-5.4-1.4c-0.6,0.5-1.4,1-2.5,1.5l-0.6-1.1C107.8,197,108.6,196.6,109.1,196z M109.6,193l-0.2,0.6
						c0.1,0.6,0.3,1.1,0.6,1.4c0.5-0.7,0.8-1.4,0.8-2L109.6,193L109.6,193z M113.1,194.2v-2.8h3.9v3.4c0,0.3,0.1,0.4,0.4,0.4h0.6
						v-0.5h1v1.7h-1.6c-1.1,0-1.7-0.6-1.7-1.6v-2.2h-1.3v1.6c0,1.1-0.4,2-1.3,2.7l-1.1-0.8C112.7,195.6,113.1,195,113.1,194.2z"/>
					<path class="st1" d="M126.2,184.4c-0.4,1.3-0.8,2.5-1.5,3.9v10h-1.4v-7.8c-0.4,0.4-0.6,0.8-1,1.3l-1.1-1
						c1.6-1.7,2.8-3.9,3.6-6.8L126.2,184.4z M135.9,186.5h-1.4v11.8h-2.8V197h1.4v-10.5h-7v-1.4h9.8V186.5z M131.4,194.6h-4.9v-6.3
						h4.9V194.6z M130,193.2v-3.5h-2.1v3.5H130z"/>
					<path class="st1" d="M139,185.8h4.2c0.1-0.6,0.3-1.2,0.4-1.8l1.4,0.1c-0.1,0.6-0.2,1.1-0.4,1.6h8v1.4h-8.4
						c-0.5,1.6-1.2,2.9-2.1,4v7.2h-1.4v-5.6c-0.5,0.5-1.1,0.9-1.7,1.3l-0.9-1.1c2.1-1.3,3.6-3.2,4.6-5.7H139L139,185.8L139,185.8z
						 M143.6,197h3.8v-4.5h-3.2v-1.4h3.2v-2.8h1.4v2.8h3.2v1.4h-3.2v4.5h3.8v1.4h-9.1L143.6,197L143.6,197z"/>
					<path class="st1" d="M158.8,188.9c0-1.1,0.4-2,1.1-2.7c0.8-0.8,1.7-1.1,2.7-1.1c1.1,0,2,0.4,2.7,1.1c0.8,0.8,1.1,1.7,1.1,2.7
						c0,0.7-0.2,1.3-0.7,1.9c-0.4,0.5-1,0.8-1.6,0.8c-0.3,0-0.5,0.1-0.7,0.4c-0.1,0.3-0.3,0.6-0.3,0.9v1.7H162V193
						c0-0.7,0.2-1.3,0.6-1.9c0.4-0.5,1-0.8,1.6-0.8c0.3,0,0.5-0.1,0.6-0.4c0.2-0.3,0.3-0.6,0.3-0.9c0-0.7-0.3-1.3-0.8-1.8
						s-1.1-0.8-1.8-0.8c-0.7,0-1.3,0.3-1.8,0.8c-0.5,0.5-0.8,1.1-0.8,1.8v1.4h-1.3L158.8,188.9L158.8,188.9z M161.9,196.4h1.5v1.4
						h-1.5V196.4z"/>
				</g>
			</g>
			<g>
				<g>
					<path class="st0" d="M93,147.9l3.1-14.7h2.7l-4.7,20.6h-2.7l-1.9-14.7l-1.9,14.7h-2.7l-4.7-20.6H83l3.1,14.8l2-14.8h2.7
						L93,147.9z"/>
					<path class="st0" d="M102.4,133.2h2.6v6.6l0.2-0.3c1-1,2.2-1.6,3.6-1.6c1.4,0,2.6,0.5,3.6,1.6c1,1,1.6,2.3,1.6,3.6v10.6h-2.6
						v-10.6c0-0.8-0.4-1.4-1-1.9c-0.6-0.6-1.3-0.8-2.3-0.8c-0.9,0-1.7,0.3-2.3,0.8c-0.6,0.6-0.9,1.2-0.9,1.9v10.6h-2.6L102.4,133.2
						L102.4,133.2z"/>
					<path class="st0" d="M117,156h1.3c1.2,0,2-0.5,2.4-1.6l0.8-2l-5-14h2.7l3.7,10.2l3.7-10.2h2.7l-5.8,16.1
						c-0.9,2.6-2.6,3.9-5.1,3.9h-1.3L117,156L117,156z"/>
				</g>
				<g>
					<path class="st2" d="M92.1,147l3.1-14.7h2.7l-4.7,20.6h-2.7l-1.9-14.7l-1.9,14.7H84l-4.7-20.6h2.7l3.1,14.8l2-14.8h2.7
						L92.1,147z"/>
					<path class="st2" d="M101.4,132.3h2.6v6.6l0.2-0.3c1-1,2.2-1.6,3.6-1.6c1.4,0,2.6,0.5,3.6,1.6c1,1,1.6,2.3,1.6,3.6v10.6h-2.6
						v-10.6c0-0.8-0.4-1.4-1-1.9c-0.6-0.6-1.3-0.8-2.3-0.8s-1.7,0.3-2.3,0.8c-0.6,0.6-0.9,1.2-0.9,1.9v10.6h-2.5V132.3z"/>
					<path class="st2" d="M116.1,155.1h1.3c1.2,0,2-0.5,2.4-1.6l0.8-2l-5-14h2.7l3.7,10.2l3.7-10.2h2.7l-5.8,16.1
						c-0.9,2.6-2.6,3.9-5.1,3.9h-1.3L116.1,155.1L116.1,155.1z"/>
				</g>
				<g>
					<path class="st1" d="M36.4,171.5c1.2-0.5,2.4-1.2,3.6-2.2c1.2-1,2.3-2.2,3.1-3.6l1.3,0.6c-0.1,0.2-0.2,0.4-0.3,0.5
						c0.7,0.9,1.6,1.8,2.5,2.5c1,0.8,2.3,1.4,3.7,2l-0.7,1.3c-0.8-0.4-1.5-0.6-2.1-1v1.1H44v2.5h3.9v1.4h-3.8v2.5h5.6v1.4H37.1v-1.4
						h5.6v-2.5h-3.8v-1.4h3.8v-2.5h-3.5v-1c-0.6,0.4-1.3,0.7-2.1,1.1L36.4,171.5z M43.2,168.1c-0.8,1-1.7,1.9-2.6,2.7
						c-0.2,0.2-0.5,0.4-0.8,0.6h7c-0.4-0.2-0.7-0.4-1.1-0.7C44.8,169.9,44,169,43.2,168.1z"/>
					<path class="st1" d="M58.3,169.2h-1.8v2.5H58v1.4h-1.4v3.2L58,176l0.4,1.3l3.9-2.4v-4.6h-3.5v-1.4h3.5V166h1.4v2.8h3.8v1.4
						h-3.8v0.7c0.2,0.8,0.5,1.6,0.8,2l2-1.7l0.9,1.1l-2.3,1.9c0.7,1.2,1.7,2.3,2.8,3.1l-0.8,1.3c-1.3-1-2.5-2.3-3.4-3.8v5.6h-2.8
						V179h1.4v-2.5l-3.2,2l-0.7-1.2v0.1l-4.9,1.3l-0.4-1.3l2-0.5v-3.6h-1.4v-1.4h1.4v-2.5h-1.8v-1.4h4.9L58.3,169.2L58.3,169.2z
						 M59.7,171.7l1.7,1.8l-1,1l-1.7-1.8L59.7,171.7z M64.5,167l1-1l1.5,1.5l-1,1L64.5,167z"/>
					<path class="st1" d="M70.5,171.9c1.2-0.5,2.4-1.2,3.6-2.2c1.2-1,2.3-2.2,3.1-3.6l1.3,0.6c-0.1,0.2-0.2,0.4-0.3,0.5
						c0.7,0.9,1.6,1.8,2.5,2.5c1,0.8,2.3,1.4,3.7,2l-0.7,1.3c-1.5-0.6-2.7-1.3-3.8-2c-1.1-0.8-1.9-1.6-2.6-2.5
						c-0.8,1-1.7,1.9-2.6,2.7c-1,0.8-2.2,1.4-3.5,2L70.5,171.9z M78.5,170.6v3.2h3.8v1.4h-3.8v3.8H84v1.4H70.8V179h2.1v-5.2h1.4v5.2
						h2.8v-8.4H78.5z"/>
					<path class="st1" d="M93.9,165.7v2.7H95v-2.7h1.3v2.7h1.1l1.3-2.2l1.1,0.6l-0.9,1.6h2.7v1.3h-4.3l-0.3,1.5h3.2v1.3h-4.9v0.8
						h4.2v1.3h-4.2v0.8h6.2v1.3h-4.4c1.3,0.8,2.9,1.6,4.7,2.2l-0.4,1.1c-2.3-0.7-4.3-1.7-6.1-3v3.4h-0.1h-1.3l0,0V177
						c-1.7,1.2-3.7,2.2-6.1,2.9l-0.4-1.1c1.8-0.6,3.3-1.3,4.7-2.2h-4.5v-1.3h6.3v-0.8h-4.2v-1.3h4.2v-0.8h-4.9v-1.3h3.2l-0.4-1.5
						h-4.3v-1.3h2.6l-0.9-1.6l1.1-0.6l1.3,2.2h1.1v-2.7L93.9,165.7L93.9,165.7z M95.5,171.2l0.4-1.5h-2.5l0.3,1.5H95.5z"/>
					<path class="st1" d="M108.1,166.4l-2.1,3.7l1.1,0.6l1.8-3.1l1.1,0.6l-2.5,4.4h1.3l-0.3-0.8l1.2-0.4l1.1,2.9l-1.2,0.4l-0.3-0.8
						h-1.1v6.3h-1.4v-6.3h-2.5v-1.4h1.8l0.5-0.8l-2.2-1.3l2.7-4.8L108.1,166.4z M104.9,175.1l1.3,0.2l-0.7,4l-1.3-0.2L104.9,175.1z
						 M108.7,175.8l1.3-0.4l0.7,2.6l-1.3,0.3L108.7,175.8z M117.3,172.3c-0.8-1.3-1.3-3-1.8-4.9h-1.4V166h2.5
						c0.4,2.7,1.3,4.9,2.5,6.6l-1.2,0.8c-0.2-0.3-0.4-0.6-0.6-0.8v5.6c0,1.4-0.7,2.1-2.1,2.1h-0.7V179h0.7c0.5,0,0.7-0.2,0.7-0.7
						v-4.5h-1.8c-0.3,3.1-1.5,5.3-3.8,6.6l-0.8-1.2c1.8-1.1,2.9-2.9,3.2-5.4h-1v-1.4L117.3,172.3L117.3,172.3z M113.6,167.5
						c-0.4,2.2-1.1,4.1-2.2,5.7l-1.3-0.8c1-1.5,1.7-3.2,2.1-5.2L113.6,167.5z"/>
					<path class="st1" d="M125.1,166.4l-2.1,3.7l1.1,0.6l1.8-3.1l1.1,0.6l-2.5,4.4h1.3l-0.3-0.8l1.2-0.4l1.1,2.9l-1.2,0.4l-0.3-0.8
						h-1.1v6.3h-1.4v-6.3h-2.5v-1.4h1.8l0.5-0.8l-2.2-1.3l2.7-4.8L125.1,166.4z M121.9,175.1l1.3,0.2l-0.7,4l-1.3-0.2L121.9,175.1z
						 M125.8,175.8l1.3-0.4l0.7,2.6l-1.3,0.3L125.8,175.8z M134.3,172.3c-0.8-1.3-1.3-3-1.8-4.9h-1.4V166h2.5
						c0.4,2.7,1.3,4.9,2.5,6.6l-1.2,0.8c-0.2-0.3-0.4-0.6-0.6-0.8v5.6c0,1.4-0.7,2.1-2.1,2.1h-0.7V179h0.7c0.5,0,0.7-0.2,0.7-0.7
						v-4.5h-1.8c-0.3,3.1-1.5,5.3-3.8,6.6l-0.8-1.2c1.8-1.1,2.9-2.9,3.2-5.4h-0.8v-1.4L134.3,172.3L134.3,172.3z M130.6,167.5
						c-0.4,2.2-1.1,4.1-2.2,5.7l-1.3-0.8c1-1.5,1.7-3.2,2.1-5.2L130.6,167.5z"/>
					<path class="st1" d="M138.6,176.6h9.1v-0.7h-0.4c-2.5,0-4.4-0.5-5.6-1.4l-2.6,1.5l-0.5-1l1.8-1v-2.5h-1.8v-1.2h3.2v2.4
						c0.8,1.4,2.7,2.1,5.6,2.1h5.2v1.1h-3.5v0.8h3.5v1.1h-3.5v2.5h-2.5v-1.1h1.1v-1.4H142l1.8,1.1l-0.6,1.1l-1.8-1.1l0.6-1.1h-3.4
						L138.6,176.6L138.6,176.6z M139.8,166.5l2.1,1.3l-0.6,1l-2.1-1.3L139.8,166.5z M147.9,168.8h3.8v5.3h-7.7v-5.3h2.7l0.4-0.6H143
						V167h2.4l-0.4-0.8l1.1-0.6l0.8,1.3h2.2l0.7-1.3l1.1,0.6l-0.4,0.8h2.4v1.1h-4.5L147.9,168.8z M145.5,169.7v0.5h4.9v-0.5H145.5z
						 M145.5,171.2v0.5h4.9v-0.5H145.5z M145.5,172.6v0.5h4.9v-0.5H145.5z"/>
					<path class="st1" d="M163,169.9c-0.1-0.6-0.2-1.3-0.3-2h-3.8v-1.4h5.1c0.5,6.4,2.5,10.6,6.1,12.8l-0.7,1.3
						c-3.1-1.7-5.1-4.9-6.2-9.8c-1.1,4.6-3.4,7.9-7,9.8l-0.7-1.3c3.5-1.8,5.6-5.1,6.5-9.6L163,169.9z"/>
					<path class="st1" d="M39.9,184.3c-0.1,0.4-0.4,0.8-0.6,1.2h4.8v1.4h-5.6c-0.4,0.5-0.7,1-1.1,1.4h5.1l1.4,0.1l-0.1,1.8
						c1.3-1.7,2.2-3.9,2.5-6.5l1.3,0.2c-0.1,0.8-0.4,1.8-0.6,2.9h3.8v1.3H50c-0.1,2.5-0.7,4.7-1.6,6.5c0.6,1.1,1.6,2,2.7,2.8l-0.9,1
						c-1.1-0.8-2-1.6-2.5-2.6c-0.7,1-1.6,1.8-2.8,2.6l-0.8-1.1c1.3-0.8,2.2-1.7,2.9-2.8c-0.6-1.2-1.1-2.6-1.4-4.4
						c-0.2,0.4-0.5,0.7-0.8,1l-0.9-0.8l-0.1,1h1v1.4h-1.1l-0.1,1.8h0.9v1.4h-1.1l-0.2,2.5h-2.4v-1.2h1.1l0.1-1.2h-3.8l-0.1,1.1
						l-1.4-0.1l0.4-4.1h-1v-1.4h1.1l0.3-3c-0.1,0.1-0.3,0.3-0.4,0.4l-1.1-1c1.1-1,2-2.3,2.9-4.2L39.9,184.3z M39.4,192.8h-1.1
						l-0.1,1.8h1.2L39.4,192.8z M39.7,189.7h-1.2l-0.1,1.8h1.1L39.7,189.7z M40.9,192.8l-0.1,1.8H42l0.1-1.8H40.9z M41.1,189.7
						l-0.1,1.8h1.3l0.1-1.8H41.1z M46.4,188.2c0.1,2,0.5,3.6,1.1,4.9c0.6-1.3,1-3,1.1-4.9H46.4z"/>
					<path class="st1" d="M57.6,188h-1.4v3.8l0.9-0.4l0.6,1.3l-1.5,0.5v5.2h-2.5V197h1.1v-3.3l-1.3,0.5l-0.5-1.3l1.8-0.7v-4.3H53
						v-1.4h1.8v-2.8h1.4v2.8h1.4C57.6,186.5,57.6,188,57.6,188z M59,191.6h3.2v-0.9h-4.5v-1.3h4.5v-0.9h-3.5v-1.3h3.5v-0.9H58V185
						h4.2v-1.3h1.4v1.3h3.8v1.3h-3.8v0.9h3.2v2.2h1.1v1.3h-1.1v2.2h-3.2v1.1h3.2v1.2h-3.2v2c0.4,0.1,0.9,0.1,1.4,0.1h2.8v1.2H65
						c-2.5,0-4.3-0.6-5.5-1.8c-0.4,0.7-0.9,1.3-1.6,1.8l-0.9-0.9c1.1-0.8,1.8-2.3,2-4l1.3,0.1c-0.1,0.5-0.1,1-0.4,1.6
						c0.6,0.7,1.3,1.2,2.1,1.6v-3.9H59V191.6z M65.3,189.4v-0.9h-1.8v0.9H65.3z M65.3,191.6v-0.9h-1.8v0.9H65.3z"/>
					<path class="st1" d="M74.5,184.4l-0.6,2.4h2.3V197h-5.2v-10.1h1.6l0.7-2.8L74.5,184.4z M74.7,191.3v-3h-2.5v3H74.7z
						 M74.7,195.6v-3h-2.5v3H74.7z M80,184.3c-0.1,0.9-0.4,1.8-0.6,2.6H84v7.7c0,2.5-1.3,3.8-3.8,3.8h-0.4V197h0.4
						c1.6,0,2.5-0.8,2.5-2.5v-6.3h-3.8c-0.4,1-0.8,1.8-1.4,2.6l-1.3-0.8c1.2-1.6,2-3.6,2.4-6.1L80,184.3z M78.4,191.6l1-1l2,2l-1,1
						L78.4,191.6z"/>
					<path class="st1" d="M91,184.4l-0.6,2.5h2.6v1.4c-0.1,2.3-0.4,4.2-1.1,5.6l1.4,0.8l-0.7,1.2l-1.4-0.8l-0.1,0.1
						c-0.7,1.1-1.6,2-2.7,2.8l-1-1.1c1.1-0.8,1.9-1.6,2.5-2.6v-0.1l-1.1-0.6l-0.1,0.5l-1.3-0.4l1.2-5.6h-1.6v-1.4H89l0.6-2.8
						L91,184.4z M90.2,188.3l-0.8,3.9l1.5,0.9c0.6-1.3,0.9-3,0.8-4.9H90.2z M100.2,184.4l1.1,0.8l-3.1,4.2v1.3h3.5v1.4h-3.5v6.3
						h-2.8V197h1.4v-4.9h-3.5v-1.4h3.5v-2.8h1l1.5-2.1h-5.2v-1.4L100.2,184.4L100.2,184.4z"/>
					<path class="st1" d="M109.1,196c-0.2-0.3-0.4-0.6-0.5-1c-0.2,0.4-0.5,0.8-0.8,1.1l-1-0.7c-0.2,1-0.6,1.8-1.3,2.7l-1.2-0.9
						c0.8-0.8,1.3-1.8,1.3-3.1v-8h5.1v-2.5h1.4v0.8h4.5v1h-4.5v0.6h5.3v-0.1l1.3,0.2l-0.4,2l-1.4-0.2l0.1-0.8h-5.7v0.6h4.5v1.1h-4.5
						v0.1c0,0.4,0.2,0.5,0.7,0.5h4.2v-0.6h1.4v1.7h-5.6c-1.4,0-2.1-0.6-2.1-1.6v-0.1h-2.5v-1h2.5v-0.7h-3v6.9c0,0.4-0.1,0.8-0.1,1.1
						c1.1-1.3,1.8-2.7,2-4.4l1.3,0.1l-0.1,0.7h1.1l1.2,0.1c-0.1,1.7-0.6,3-1.6,4.2c0.8,0.8,2.4,1.2,4.5,1.2h3.6v1.2h-3.6
						c-2.5,0-4.2-0.5-5.4-1.4c-0.6,0.5-1.4,1-2.5,1.5l-0.6-1.1C107.8,197,108.6,196.6,109.1,196z M109.6,193l-0.2,0.6
						c0.1,0.6,0.3,1.1,0.6,1.4c0.5-0.7,0.8-1.4,0.8-2L109.6,193L109.6,193z M113.1,194.2v-2.8h3.9v3.4c0,0.3,0.1,0.4,0.4,0.4h0.6
						v-0.5h1v1.7h-1.6c-1.1,0-1.7-0.6-1.7-1.6v-2.2h-1.3v1.6c0,1.1-0.4,2-1.3,2.7l-1.1-0.8C112.7,195.6,113.1,195,113.1,194.2z"/>
					<path class="st1" d="M126.2,184.4c-0.4,1.3-0.8,2.5-1.5,3.9v10h-1.4v-7.8c-0.4,0.4-0.6,0.8-1,1.3l-1.1-1
						c1.6-1.7,2.8-3.9,3.6-6.8L126.2,184.4z M135.9,186.5h-1.4v11.8h-2.8V197h1.4v-10.5h-7v-1.4h9.8V186.5z M131.4,194.6h-4.9v-6.3
						h4.9V194.6z M130,193.2v-3.5h-2.1v3.5H130z"/>
					<path class="st1" d="M139,185.8h4.2c0.1-0.6,0.3-1.2,0.4-1.8l1.4,0.1c-0.1,0.6-0.2,1.1-0.4,1.6h8v1.4h-8.4
						c-0.5,1.6-1.2,2.9-2.1,4v7.2h-1.4v-5.6c-0.5,0.5-1.1,0.9-1.7,1.3l-0.9-1.1c2.1-1.3,3.6-3.2,4.6-5.7H139L139,185.8L139,185.8z
						 M143.6,197h3.8v-4.5h-3.2v-1.4h3.2v-2.8h1.4v2.8h3.2v1.4h-3.2v4.5h3.8v1.4h-9.1L143.6,197L143.6,197z"/>
					<path class="st1" d="M158.8,188.9c0-1.1,0.4-2,1.1-2.7c0.8-0.8,1.7-1.1,2.7-1.1c1.1,0,2,0.4,2.7,1.1c0.8,0.8,1.1,1.7,1.1,2.7
						c0,0.7-0.2,1.3-0.7,1.9c-0.4,0.5-1,0.8-1.6,0.8c-0.3,0-0.5,0.1-0.7,0.4c-0.1,0.3-0.3,0.6-0.3,0.9v1.7H162V193
						c0-0.7,0.2-1.3,0.6-1.9c0.4-0.5,1-0.8,1.6-0.8c0.3,0,0.5-0.1,0.6-0.4c0.2-0.3,0.3-0.6,0.3-0.9c0-0.7-0.3-1.3-0.8-1.8
						s-1.1-0.8-1.8-0.8c-0.7,0-1.3,0.3-1.8,0.8c-0.5,0.5-0.8,1.1-0.8,1.8v1.4h-1.3L158.8,188.9L158.8,188.9z M161.9,196.4h1.5v1.4
						h-1.5V196.4z"/>
				</g>
			</g>
		</g>
		<g>
			<g>
				<g>
					<g>
						<g>
							<path class="st3" d="M102.9,33.4C82,33.4,65,50.3,65,71.2c0,16.5,10.6,30.5,25.3,35.7v-0.4v-3.9v-3.5c0-0.4,0.3-0.6,0.6-0.6
								h0.2c-0.7-3-2.3-8.2-5.7-14l0,0c-2-3.3-3.2-7-3.2-11c0-11.3,9.2-20.6,20.6-20.6s20.6,9.2,20.6,20.6c0,4.2-1.3,8.2-3.7,11.7
								c-3.2,5.5-4.7,10.4-5.3,13.3h0.3c0.4,0,0.6,0.3,0.6,0.6v3.4v3.9v0.4c14.7-5.1,25.3-19.2,25.3-35.7
								C140.7,50.3,123.7,33.4,102.9,33.4z M90.2,54.8c-0.1,0.2-0.4,0.3-0.6,0.3c-0.1,0-0.2,0-0.3-0.1l-3.8-2.2
								c-0.3-0.1-0.4-0.6-0.2-0.8c0.1-0.3,0.6-0.4,0.8-0.2L90,54C90.2,54.2,90.3,54.5,90.2,54.8z M95.7,50.7
								c-0.1,0.1-0.2,0.1-0.3,0.1c-0.2,0-0.4-0.1-0.6-0.3l-2.2-3.8c-0.1-0.3-0.1-0.6,0.2-0.8c0.3-0.1,0.6-0.1,0.8,0.2l2.2,3.8
								C96.2,50.2,96,50.6,95.7,50.7z M103.5,48.6c0,0.4-0.3,0.6-0.6,0.6s-0.6-0.3-0.6-0.6v-4.4c0-0.4,0.3-0.6,0.6-0.6
								s0.6,0.3,0.6,0.6V48.6z M113,46.7l-2.2,3.8c-0.1,0.2-0.4,0.3-0.6,0.3c-0.1,0-0.2,0-0.3-0.1c-0.3-0.1-0.4-0.6-0.2-0.8l2.2-3.8
								c0.1-0.3,0.6-0.4,0.8-0.2C113.1,46.1,113.1,46.4,113,46.7z M120.2,52.8l-3.8,2.2c-0.1,0.1-0.2,0.1-0.3,0.1
								c-0.2,0-0.4-0.1-0.6-0.3c-0.1-0.3-0.1-0.6,0.2-0.8l3.8-2.2c0.3-0.1,0.6-0.1,0.8,0.2C120.6,52.3,120.5,52.7,120.2,52.8z"/>
							<rect x="97.7" y="78" class="st5" width="10.4" height="20.5"/>
							<path class="st5" d="M94.8,78c-1.8,0-3.2-1.4-3.2-3.2s1.4-3.2,3.2-3.2H111c1.8,0,3.2,1.4,3.2,3.2S112.8,78,111,78h-1.8v20.5
								h4c0.6-3,2.2-8.2,5.5-14c0,0,0,0,0-0.1c2.3-3.2,3.5-7,3.5-11.1c0-10.7-8.7-19.4-19.4-19.4s-19.4,8.7-19.4,19.4
								c0,3.7,1.1,7.3,3,10.4c0,0,0,0,0,0.1c2.9,4.9,4.5,9.3,5.3,12.2c0.3,0.9,0.5,1.8,0.6,2.5h4.1V78H94.8z"/>
							<path class="st4" d="M91.6,107.1v0.1c3.6,1.1,7.4,1.7,11.3,1.7s7.8-0.6,11.3-1.7v-0.1H91.6z"/>
							<rect x="91.6" y="103.1" class="st4" width="22.6" height="2.7"/>
							<polygon class="st4" points="114.1,99.7 108.6,99.7 97.1,99.7 91.6,99.7 91.6,101.9 114.1,101.9 							"/>
							<path class="st4" d="M111,76.8c1.1,0,1.9-0.8,1.9-1.9c0-1.1-0.8-1.9-1.9-1.9H94.7c-1.1,0-1.9,0.8-1.9,1.9
								c0,1.1,0.8,1.9,1.9,1.9H111z"/>
						</g>
					</g>
					<g>
						<path class="st1" d="M102.9,43.6c-0.4,0-0.6,0.3-0.6,0.6v4.4c0,0.4,0.3,0.6,0.6,0.6s0.6-0.3,0.6-0.6v-4.4
							C103.5,43.9,103.2,43.6,102.9,43.6z"/>
						<path class="st1" d="M93.8,46.1c-0.1-0.3-0.6-0.4-0.8-0.2c-0.3,0.1-0.4,0.6-0.2,0.8l2.2,3.8c0.1,0.2,0.4,0.3,0.6,0.3
							c0.1,0,0.2,0,0.3-0.1c0.3-0.1,0.4-0.6,0.2-0.8L93.8,46.1z"/>
						<path class="st1" d="M89.9,54l-3.8-2.2c-0.3-0.1-0.6-0.1-0.8,0.2c-0.1,0.3-0.1,0.6,0.2,0.8l3.8,2.2c0.1,0.1,0.2,0.1,0.3,0.1
							c0.2,0,0.4-0.1,0.6-0.3C90.3,54.5,90.2,54.2,89.9,54z"/>
						<path class="st1" d="M119.6,51.8l-3.8,2.2c-0.3,0.1-0.4,0.6-0.2,0.8c0.1,0.2,0.4,0.3,0.6,0.3c0.1,0,0.2,0,0.3-0.1l3.8-2.2
							c0.3-0.1,0.4-0.6,0.2-0.8C120.3,51.7,119.9,51.6,119.6,51.8z"/>
						<path class="st1" d="M112.8,45.8c-0.3-0.1-0.6-0.1-0.8,0.2l-2.2,3.8c-0.1,0.3-0.1,0.6,0.2,0.8c0.1,0.1,0.2,0.1,0.3,0.1
							c0.2,0,0.4-0.1,0.6-0.3l2.2-3.8C113.1,46.4,113.1,46.1,112.8,45.8z"/>
						<path class="st1" d="M92.4,98.5c-0.1-0.7-0.4-1.6-0.6-2.5c-0.8-2.9-2.4-7.3-5.3-12.2c0,0,0,0,0-0.1c-2-3.1-3-6.7-3-10.4
							c0-10.7,8.7-19.4,19.4-19.4s19.4,8.7,19.4,19.4c0,3.9-1.2,7.8-3.5,11.1c0,0,0,0,0,0.1c-3.3,5.8-4.9,10.9-5.5,14h1.3
							c0.7-3,2.2-7.8,5.3-13.3c2.4-3.5,3.7-7.5,3.7-11.7c0-11.3-9.2-20.6-20.6-20.6s-20.6,9.2-20.6,20.6c0,3.9,1.1,7.7,3.2,11l0,0
							c3.5,5.8,5,11,5.7,14H92.4z"/>
						<path class="st1" d="M90.9,105.9h0.6v-2.7h-0.6c-0.4,0-0.6-0.3-0.6-0.6v3.9C90.3,106.2,90.6,105.9,90.9,105.9z"/>
						<path class="st7" d="M115.3,106.9c0.1,0,0.1,0,0.1-0.1v-0.4C115.4,106.7,115.3,106.8,115.3,106.9z"/>
						<path class="st1" d="M114.8,103.1h-0.6v2.7h0.6c0.4,0,0.6,0.3,0.6,0.6v-3.9C115.4,102.8,115.1,103.1,114.8,103.1z"/>
						<path class="st7" d="M90.3,106.9c0.1,0,0.1,0,0.1,0.1c-0.1-0.1-0.1-0.2-0.1-0.4V106.9z"/>
						<path class="st1" d="M90.9,101.9h0.6v-2.2h5.6c-0.4,0-0.6-0.3-0.6-0.6v-0.6h-4.1h-1.3h-0.2c-0.4,0-0.6,0.3-0.6,0.6v3.4
							C90.3,102.2,90.6,101.9,90.9,101.9z"/>
						<path class="st1" d="M113.2,98.5h-4v0.6c0,0.4-0.3,0.6-0.6,0.6h5.6v2.2h0.6c0.4,0,0.6,0.3,0.6,0.6v-3.5c0-0.4-0.3-0.6-0.6-0.6
							h-0.3L113.2,98.5L113.2,98.5z"/>
						<path class="st7" d="M91.1,107.1c0.1,0.1,0.3,0.1,0.4,0.1v-0.1H91.1z"/>
						<path class="st7" d="M114.1,107.2c0.1-0.1,0.3-0.1,0.4-0.1h-0.4V107.2z"/>
						<path class="st1" d="M108,99.1v-0.6H97.6v0.6c0,0.4-0.3,0.6-0.6,0.6h11.6C108.3,99.7,108,99.5,108,99.1z"/>
						<path class="st1" d="M90.9,103.1h0.6h22.5h0.6c0.4,0,0.6-0.3,0.6-0.6s-0.3-0.6-0.6-0.6h-0.6H91.6h-0.6c-0.4,0-0.6,0.3-0.6,0.6
							S90.6,103.1,90.9,103.1z"/>
						<path class="st1" d="M114.8,105.9h-0.6H91.6h-0.6c-0.4,0-0.6,0.3-0.6,0.6c0,0.1,0.1,0.3,0.1,0.4c0.2,0.1,0.4,0.1,0.6,0.2h0.4
							h22.6h0.4c0.2-0.1,0.4-0.1,0.6-0.2c0.1-0.1,0.1-0.2,0.1-0.4C115.4,106.2,115.1,105.9,114.8,105.9z"/>
						<path class="st1" d="M97.7,99.1v-0.6V78h-1.2v20.5v0.6c0,0.4,0.3,0.6,0.6,0.6C97.5,99.7,97.7,99.5,97.7,99.1z"/>
						<path class="st1" d="M108,78v20.5v0.6c0,0.4,0.3,0.6,0.6,0.6s0.6-0.3,0.6-0.6v-0.6V78H108z"/>
						<path class="st1" d="M109.3,78h1.8c1.8,0,3.2-1.4,3.2-3.2s-1.4-3.2-3.2-3.2H94.8c-1.8,0-3.2,1.4-3.2,3.2S93,78,94.8,78h1.8
							h1.2h10.4H109.3z M94.8,76.8c-1.1,0-1.9-0.8-1.9-1.9c0-1.1,0.8-1.9,1.9-1.9H111c1.1,0,1.9,0.8,1.9,1.9c0,1.1-0.8,1.9-1.9,1.9
							H94.8z"/>
						<g>
							<g>
								<g>
									<path class="st1" d="M112.8,35.4c-0.1,0-0.1,0-0.2,0c-1.3-0.4-2.5-0.6-3.8-0.8c-0.4-0.1-0.7-0.4-0.6-0.8
										c0.1-0.4,0.5-0.7,0.8-0.6c1.3,0.2,2.7,0.5,4,0.8c0.4,0.1,0.6,0.6,0.6,0.9C113.4,35.2,113.1,35.4,112.8,35.4z"/>
								</g>
								<g>
									<path class="st1" d="M102.9,109.8c-10.3,0-20-4-27.3-11.3c-7.3-7.3-11.3-17-11.3-27.3s4-20,11.3-27.3
										c7.3-7.3,17-11.3,27.3-11.3c0.4,0,0.8,0.4,0.8,0.8s-0.4,0.8-0.8,0.8c-9.9,0-19.2,3.9-26.2,10.9c-7,7-10.9,16.3-10.9,26.2
										c0,9.9,3.9,19.2,10.9,26.2c7,7,16.3,10.9,26.2,10.9c9.9,0,19.2-3.9,26.2-10.9c7-7,10.9-16.3,10.9-26.2
										c0-7-1.9-13.7-5.6-19.6c-3.5-5.7-8.6-10.4-14.6-13.4c-0.4-0.2-0.5-0.6-0.4-1.1c0.2-0.4,0.6-0.5,1.1-0.4
										c6.2,3.2,11.5,8,15.1,14c3.8,6.1,5.8,13.2,5.8,20.4c0,10.3-4,20-11.3,27.3C122.9,105.7,113.1,109.8,102.9,109.8z"/>
								</g>
							</g>
							<g>
								<path class="st1" d="M117.4,35.8c0,0.6-0.4,1-1,1c-0.6,0-1-0.4-1-1c0-0.6,0.4-1,1-1C117,34.9,117.4,35.4,117.4,35.8z"/>
							</g>
						</g>
					</g>
				</g>
			</g>
		</g>
	</g>
	<g>
		<g>
			<g>
				<g>
					<path class="st0" d="M95.1,364.1l3.1-14.7h2.7L96.3,370h-2.7l-1.9-14.7L89.7,370H87l-4.7-20.6h2.7l3.1,14.8l2-14.8h2.7
						L95.1,364.1z"/>
					<path class="st0" d="M104.4,349.4h2.6v6.6l0.2-0.3c1-1,2.2-1.6,3.6-1.6s2.6,0.5,3.6,1.6c1,1,1.6,2.3,1.6,3.6V370h-2.6v-10.6
						c0-0.8-0.4-1.4-1-1.9c-0.6-0.6-1.3-0.8-2.3-0.8s-1.7,0.3-2.3,0.8c-0.6,0.6-0.9,1.2-0.9,1.9V370h-2.6L104.4,349.4L104.4,349.4z"
						/>
					<path class="st0" d="M120.6,356.6c1.3-1.6,2.8-2.3,4.7-2.3c1.8,0,3.3,0.8,4.7,2.3c1.3,1.6,2,3.4,2,5.6c0,2.2-0.6,4-2,5.6
						c-1.3,1.6-2.9,2.3-4.7,2.3s-3.3-0.8-4.7-2.3c-1.3-1.6-2-3.4-2-5.6C118.7,360,119.4,358.1,120.6,356.6z M122.5,366.1
						c0.8,1.1,1.7,1.6,2.7,1.6s2-0.6,2.7-1.6c0.8-1.1,1.2-2.4,1.2-3.9s-0.4-2.8-1.2-3.9c-0.8-1.1-1.7-1.6-2.7-1.6s-2,0.6-2.7,1.6
						c-0.8,1.1-1.2,2.4-1.2,3.9C121.3,363.7,121.8,365,122.5,366.1z"/>
				</g>
			</g>
			<g>
				<path class="st1" d="M44.2,386.4h-5.6V385h5.6V386.4z M43.8,396.6H39v-4.3h4.9V396.6z M43.5,388.4c1.5-1.6,2.5-3.6,3-6.1
					l1.2,0.1c-0.1,0.8-0.4,1.6-0.6,2.3h2.1l0.6-2.4l1.2,0.4l-0.6,2h2.7v1.4H50v2.1h2.5v1.4H50v2.1h2.5v1.4H50v2.1h3.2v1.4h-7.7v-8.8
					l-1.1,1.4L43.5,388.4v0.4h-4.2v-1.3h4.2V388.4z M43.5,383.9h-4.2v-1.3h4.2V383.9z M43.5,391.2h-4.2v-1.3h4.2V391.2z M42.4,395.3
					v-1.6h-2.1v1.6H42.4z M46.9,386.1v2.1h1.8v-2.1H46.9z M48.7,391.7v-2.1h-1.8v2.1H48.7z M48.7,395.2v-2.1h-1.8v2.1H48.7z"/>
				<path class="st1" d="M59,388v4.8c0.6,1.6,2.1,2.5,4.4,2.5h6.8v1.3h-6.8c-2.3,0-3.9-0.6-4.9-1.8l-2.1,1.8l-0.8-1.1l2-1.7v-4.5h-2
					V388L59,388L59,388z M57,382.2l2,2.3l-1,0.8l-2-2.3L57,382.2z M60.5,385.5h2.2l-0.6-1.1h-2v-1.3h4.2v-1.2h1.3v1.2h4.2v1.3h-2
					l-0.6,1.1h2.2v8.7h-2.4V393h1.1v-6.1h-2.7v0.9h1.9v1.2h-1.9v0.9h1.6v3.2h-4.3v-3.2h1.6V389h-1.9v-1.2h1.9v-0.9h-2.7v7.3h-1.2
					V385.5z M66.1,385.5l0.6-1.1h-3.2l0.6,1.1H66.1z M66,391.9V391h-2v0.9H66z"/>
				<path class="st1" d="M73,388.1c1.2-0.5,2.4-1.2,3.6-2.2c1.2-1,2.3-2.2,3.1-3.6l1.3,0.6c-0.1,0.2-0.2,0.4-0.3,0.5
					c0.7,0.9,1.6,1.8,2.5,2.5c1,0.8,2.3,1.4,3.7,2l-0.7,1.3c-1.5-0.6-2.7-1.3-3.8-2c-1.1-0.8-1.9-1.6-2.6-2.5
					c-0.8,1-1.7,1.9-2.6,2.7c-1,0.8-2.2,1.4-3.5,2L73,388.1z M84.9,396.6h-9.8v-5.9h9.8V396.6z M76.5,387.9h7v1.4h-7V387.9z
					 M83.5,395.2V392h-7v3.2H83.5z"/>
				<path class="st1" d="M90.1,392.9h9.1v-0.8h-0.4c-2.5,0-4.4-0.5-5.6-1.4l-2.6,1.5l-0.5-1l1.8-1v-2.5h-1.8v-1.2h3.2v2.4
					c0.8,1.4,2.7,2.1,5.6,2.1h5.2v1.1h-3.5v0.8h3.5v1.1h-3.5v2.5H98v-1.1h1.1V394h-5.6l1.8,1.1l-0.6,1.1l-1.8-1.1l0.6-1.1h-3.3
					V392.9z M91.2,382.8l2.1,1.3l-0.6,1l-2.1-1.3L91.2,382.8z M99.4,385h3.8v5.3h-7.7V385h2.7l0.4-0.6h-4.2v-1.1h2.4l-0.4-0.8
					l1.1-0.6l0.8,1.3h2.2l0.7-1.3l1.1,0.6l-0.4,0.8h2.4v1.1h-4.5L99.4,385z M96.9,386v0.5h4.9V386H96.9z M96.9,387.4v0.5h4.9v-0.5
					H96.9z M96.9,388.8v0.5h4.9v-0.5H96.9z"/>
				<path class="st1" d="M114.4,386c-0.1-0.6-0.2-1.3-0.3-2h-3.8v-1.4h5.1c0.5,6.4,2.5,10.6,6.1,12.8l-0.7,1.3
					c-3.1-1.7-5.1-4.9-6.2-9.8c-1.1,4.6-3.4,7.9-7,9.8l-0.7-1.3c3.5-1.8,5.6-5.1,6.5-9.6L114.4,386z"/>
				<path class="st1" d="M127.6,382.5c-0.1,0.4-0.4,0.8-0.6,1.2h4.8v1.4h-5.6c-0.4,0.5-0.7,1-1.1,1.4h5.1l1.4,0.1l-0.1,1.8
					c1.3-1.7,2.2-3.9,2.5-6.5l1.3,0.2c-0.1,0.8-0.4,1.8-0.6,2.9h3.8v1.3h-0.7c-0.1,2.5-0.7,4.7-1.6,6.5c0.6,1.1,1.6,2,2.7,2.8
					l-0.9,1c-1.1-0.8-2-1.6-2.5-2.6c-0.7,1-1.6,1.8-2.8,2.6l-0.8-1.1c1.3-0.8,2.2-1.7,2.9-2.8c-0.6-1.2-1.1-2.6-1.4-4.4
					c-0.2,0.4-0.5,0.7-0.8,1l-0.9-0.8l-0.1,1h1v1.4h-1.1l-0.1,1.8h0.9v1.4h-1.2l-0.2,2.5h-2.4v-1.2h1.1l0.1-1.2h-3.8l-0.1,1.1
					l-1.4-0.1l0.4-4.1h-1v-1.4h1.1l0.3-3c-0.1,0.1-0.3,0.3-0.4,0.4l-1.1-1c1.1-1,2-2.3,2.9-4.2L127.6,382.5z M127.2,391H126
					l-0.1,1.8h1.2L127.2,391z M127.5,387.9h-1.2l-0.1,1.8h1.1L127.5,387.9z M128.6,391l-0.1,1.8h1.3l0.1-1.8H128.6z M128.9,387.9
					l-0.1,1.8h1.3l0.1-1.8H128.9z M134.2,386.3c0.1,2,0.5,3.6,1.1,4.9c0.6-1.3,1-3,1.1-4.9H134.2z"/>
				<path class="st1" d="M145.4,386.1H144v3.8l0.9-0.4l0.6,1.3l-1.5,0.5v5.2h-2.5v-1.4h1.1v-3.3l-1.3,0.5l-0.5-1.3l1.8-0.7V386h-1.8
					v-1.4h1.8v-2.8h1.4v2.8h1.4L145.4,386.1L145.4,386.1z M146.8,389.8h3.2v-0.9h-4.5v-1.3h4.5v-0.9h-3.5v-1.3h3.5v-0.9h-4.2v-1.3
					h4.2v-1.3h1.4v1.3h3.8v1.3h-3.8v0.9h3.2v2.2h1.1v1.3h-1.1v2.2h-3.2v1.1h3.2v1.2h-3.2v2c0.4,0.1,0.9,0.1,1.4,0.1h2.8v1.2h-2.8
					c-2.5,0-4.3-0.6-5.5-1.8c-0.4,0.7-0.9,1.3-1.6,1.8l-0.9-0.9c1.1-0.8,1.8-2.3,2-4l1.3,0.1c-0.1,0.5-0.1,1-0.4,1.6
					c0.6,0.7,1.3,1.2,2.1,1.6v-3.9h-3.2L146.8,389.8L146.8,389.8z M153.1,387.6v-0.9h-1.8v0.9H153.1z M153.1,389.8v-0.9h-1.8v0.9
					H153.1z"/>
				<path class="st1" d="M161.4,387.2c0-1.1,0.4-2,1.1-2.7c0.8-0.8,1.7-1.1,2.7-1.1s2,0.4,2.7,1.1c0.8,0.8,1.1,1.7,1.1,2.7
					c0,0.7-0.2,1.3-0.7,1.9c-0.4,0.5-1,0.8-1.6,0.8c-0.3,0-0.5,0.1-0.7,0.4c-0.1,0.3-0.3,0.6-0.3,0.9v1.7h-1.3v-1.7
					c0-0.7,0.2-1.3,0.6-1.9c0.4-0.5,1-0.8,1.6-0.8c0.3,0,0.5-0.1,0.6-0.4c0.2-0.3,0.3-0.6,0.3-0.9c0-0.7-0.3-1.3-0.8-1.8
					c-0.5-0.5-1.1-0.8-1.8-0.8c-0.7,0-1.3,0.3-1.8,0.8c-0.5,0.5-0.8,1.1-0.8,1.8v1.4h-1.3L161.4,387.2L161.4,387.2z M164.5,394.6
					h1.5v1.4h-1.5V394.6z"/>
				<path class="st1" d="M30.7,400.3H44v14.3H30.7V400.3z M43,413.6v-12.2h-4.9v1.1h3.5v0.9h-3.5v0.7h3v3.9l0.1-0.1l0.7,1.6l-1,0.4
					l-0.2-0.4l-0.6,0.1v0.8H42v0.9h-2v2h-2.3v-0.8h0.8v-1.3h-3.8l1.3,0.7l-0.5,0.8l-1.4-0.8l0.4-0.6h-2v-0.9h6.1v-0.6l-5.4,0.4
					l-0.1-0.9l3.5-0.3v-0.6h-3v-4.1h3v-0.7h-3.9v-0.9h3.9v-1.1h-4.9v12.2L43,413.6L43,413.6z M36.7,405.7V405h-1.6v0.7H36.7z
					 M36.7,407.3v-0.7h-1.6v0.7H36.7z M39.7,405h-1.6v0.7h1.6V405z M39.7,406.6h-1.6v0.7h1.6V406.6z M38.1,408.7l2.2-0.1l-0.1-0.2
					l0.3-0.1h-2.4V408.7z"/>
				<path class="st1" d="M47.8,400.8h3.5l1.2,0.4l-1.4,4.7l0.6,1.1c0.4,1.1,0.7,2,0.7,2.7c0,1.4-0.7,2.1-2.1,2.1h-0.4v-1.2h0.4
					c0.5,0,0.7-0.3,0.7-0.8c0-0.6-0.2-1.3-0.5-2.2l-0.7-1.5l0,0l0,0l1.2-4h-1.8v12.5h-1.4V400.8z M56.8,405.3c0.4,0.5,0.6,1.1,1,1.7
					l1.8-1.8l0.9,0.9l-2.2,2.2c0.9,1.5,2,2.7,3.4,3.6l-0.8,1.1c-0.8-0.4-1.6-1.1-2.4-2v0.9c0,1.2-0.4,2.1-1.1,2.7h-1.6v-1.3h1
					c0.3-0.3,0.4-0.8,0.4-1.4c0-0.1,0-0.4-0.1-0.8c-1.5,1.4-3.2,2.5-5.1,3.1l-0.4-1.3c2.1-0.7,3.9-2,5.4-3.7
					c-0.1-0.2-0.1-0.6-0.2-0.9c-0.9,0.8-2,1.6-3.3,2.2l-0.5-1.3c1.1-0.5,2.2-1.3,3.2-2.3c-0.1-0.2-0.4-0.5-0.6-0.8
					c-0.8,0.6-1.7,1-2.6,1.3l-0.5-1.3c1.3-0.5,2.5-1.2,3.7-2.1h-3.9v-1.3h4.9l1.5-2.4l1.1,0.6l-1.1,1.8H61v1.3h-2.8
					C57.8,404.6,57.3,405,56.8,405.3z M53.8,401l1.1-0.6l1,1.7l-1.1,0.6L53.8,401z"/>
				<path class="st1" d="M77.4,414.6h-2.8v-1.4H76v-2.1h-7.8c-0.3,1.6-1.1,2.8-2.4,3.5l-0.8-1.3c1.3-0.7,1.9-2,1.9-4v-4.8
					c-0.5,0.4-1,0.6-1.6,1l-0.8-1.3c2-1,3.6-2.5,4.8-4.3l1.3,0.7c-0.1,0.2-0.3,0.4-0.5,0.7h4.2l0.9,1.1l-2,1.8h4.2L77.4,414.6
					L77.4,414.6z M69.1,402.7c-0.4,0.5-0.9,1-1.5,1.4h3.7l1.6-1.4H69.1z M71.5,407v-1.4h-3.2v1.4H71.5z M71.5,408.4h-3.2v1.1v0.4
					h3.2V408.4z M76,407v-1.4h-3.2v1.4H76z M76,409.7v-1.4h-3.2v1.4H76z"/>
				<path class="st1" d="M85.5,400l1.4,0.5l-0.1,0.2h4.1l1.2,0.7l-1.6,2.7h4v5.6h-9.8v2.8c0,0.5,0.2,0.7,0.7,0.7h8.2l0.7-1.8
					l1.3,0.5l-1,2.7h-9.2c-1.4,0-2.1-0.7-2.1-2.1v-6.7c-0.4,0.4-0.8,0.7-1.3,1l-0.8-1.2C83.2,404.3,84.6,402.4,85.5,400z
					 M84.7,405.5v2.8h3.5v-2.8H84.7z M90.1,402h-3.9c-0.4,0.8-0.9,1.6-1.3,2.1h3.9L90.1,402z M89.6,405.5v2.8h3.5v-2.8H89.6z"/>
				<path class="st1" d="M102.5,400.9l-0.6,2.5h2.6v1.4c-0.1,2.3-0.4,4.2-1.1,5.6l1.4,0.8l-0.7,1.2l-1.4-0.8l-0.1,0.1
					c-0.7,1-1.6,2-2.7,2.8l-1-1.1c1.1-0.8,1.9-1.6,2.5-2.6v-0.1l-1.1-0.6l-0.1,0.5l-1.3-0.4l1.2-5.6h-1.6v-1.4h1.9l0.6-2.8
					L102.5,400.9z M101.6,404.8l-0.8,3.9l1.5,0.9c0.6-1.3,0.9-3,0.8-4.9L101.6,404.8L101.6,404.8z M105.9,402h5.9v11.9h-5.9V402z
					 M110.4,412.5v-9.1h-3.2v9.1H110.4z"/>
				<path class="st1" d="M120.3,400.7c-0.4,1.3-0.8,2.5-1.5,3.9v10h-1.4v-7.8c-0.4,0.4-0.6,0.8-1,1.3l-1.1-1
					c1.6-1.7,2.8-3.9,3.6-6.8L120.3,400.7z M129.9,402.7h-1.4v11.9h-2.8v-1.4h1.4v-10.5h-7v-1.4h9.8V402.7z M125.4,410.8h-4.9v-6.3
					h4.9V410.8z M124,409.3v-3.5h-2.1v3.5H124z"/>
				<path class="st1" d="M138.3,401.9c-0.8,1.6-1.9,3-3.2,4.2h8.4v5.6c0,1.8-0.9,2.8-2.8,2.8H140v-1.4h0.7c0.9,0,1.4-0.5,1.4-1.4
					v-4.2h-3.5c0,3.5-1.3,5.8-4,7l-0.8-1.3c2.3-0.9,3.5-2.8,3.5-5.7h-2.1v-1.4c-0.6,0.6-1.3,1.1-2,1.6l-0.8-1.3
					c1.8-1.1,3.4-2.9,4.7-5.2L138.3,401.9z M147,406.6l-0.9,1.1c-2.2-1.4-3.9-3.3-5-5.7h-1.8v-1.4h2.7
					C143.1,403.1,144.7,405.1,147,406.6z"/>
				<path class="st1" d="M162.6,403.1h-5.2v9.1h6.3v1.4h-14v-1.4h6.3v-9.1h-5.2v-1.4h11.8V403.1z"/>
				<path class="st1" d="M169.9,405.2c0-1.1,0.4-2,1.1-2.7c0.8-0.8,1.7-1.1,2.7-1.1s2,0.4,2.7,1.1c0.8,0.8,1.1,1.7,1.1,2.7
					c0,0.7-0.2,1.3-0.7,1.9c-0.4,0.5-1,0.8-1.6,0.8c-0.3,0-0.5,0.1-0.7,0.4c-0.1,0.3-0.3,0.6-0.3,0.9v1.7h-1.3v-1.7
					c0-0.7,0.2-1.3,0.6-1.9c0.4-0.5,1-0.8,1.6-0.8c0.3,0,0.5-0.1,0.6-0.4c0.2-0.3,0.3-0.6,0.3-0.9c0-0.7-0.3-1.3-0.8-1.8
					c-0.5-0.5-1.1-0.8-1.8-0.8c-0.7,0-1.3,0.3-1.8,0.8c-0.5,0.5-0.8,1.1-0.8,1.8v1.4h-1.3L169.9,405.2L169.9,405.2z M173,412.6h1.5
					v1.4H173V412.6z"/>
			</g>
			<g>
				<path class="st2" d="M94.2,363.2l3.1-14.7h2.7l-4.7,20.6h-2.7l-1.9-14.7l-1.9,14.7H86l-4.7-20.6h2.7l3.1,14.8l2-14.8H92
					L94.2,363.2z"/>
				<path class="st2" d="M103.5,348.5h2.6v6.6l0.2-0.3c1-1,2.2-1.6,3.6-1.6s2.6,0.5,3.6,1.6c1,1,1.6,2.3,1.6,3.6v10.6h-2.6v-10.6
					c0-0.8-0.4-1.4-1-1.9c-0.6-0.6-1.3-0.8-2.3-0.8s-1.6,0.3-2.3,0.8c-0.6,0.6-0.9,1.2-0.9,1.9v10.6h-2.6L103.5,348.5L103.5,348.5z"
					/>
				<path class="st2" d="M119.8,355.7c1.3-1.6,2.8-2.3,4.7-2.3c1.8,0,3.3,0.8,4.7,2.3c1.3,1.6,2,3.4,2,5.6c0,2.2-0.6,4-2,5.6
					c-1.3,1.6-2.9,2.3-4.7,2.3s-3.3-0.8-4.7-2.3c-1.3-1.6-2-3.4-2-5.6C117.8,359.1,118.5,357.2,119.8,355.7z M121.6,365.2
					c0.8,1.1,1.7,1.6,2.7,1.6c1.1,0,2-0.6,2.7-1.6c0.8-1.1,1.2-2.4,1.2-3.9s-0.4-2.8-1.2-3.9c-0.8-1.1-1.7-1.6-2.7-1.6
					c-1.1,0-2,0.6-2.7,1.6c-0.8,1.1-1.2,2.4-1.2,3.9C120.4,362.8,120.9,364,121.6,365.2z"/>
			</g>
		</g>
		<g>
			<g>
				<g>
					<path class="st1" d="M114.1,251.7c-0.1,0-0.1,0-0.2,0c-1.3-0.4-2.5-0.6-3.8-0.8c-0.4-0.1-0.7-0.4-0.6-0.8
						c0.1-0.4,0.5-0.7,0.8-0.6c1.3,0.2,2.7,0.5,4,0.8c0.4,0.1,0.6,0.6,0.6,0.9C114.7,251.4,114.4,251.7,114.1,251.7z"/>
				</g>
				<g>
					<path class="st1" d="M104.2,325.9c-10.3,0-20-4-27.3-11.3c-7.3-7.3-11.3-17-11.3-27.3c0-10.3,4-20,11.3-27.3
						c7.3-7.3,17-11.3,27.3-11.3c0.4,0,0.8,0.4,0.8,0.8c0,0.4-0.4,0.8-0.8,0.8c-9.9,0-19.2,3.9-26.2,10.9c-7,7-10.9,16.3-10.9,26.2
						s3.9,19.2,10.9,26.2c7,7,16.3,10.9,26.2,10.9c9.9,0,19.2-3.9,26.2-10.9c7-7,10.9-16.3,10.9-26.2c0-7-1.9-13.7-5.6-19.6
						c-3.5-5.7-8.6-10.4-14.6-13.4c-0.4-0.2-0.5-0.6-0.4-1.1c0.2-0.4,0.6-0.5,1.1-0.4c6.2,3.2,11.5,8,15.1,14
						c3.8,6.1,5.8,13.2,5.8,20.4c0,10.3-4,20-11.3,27.3C124.2,321.9,114.4,325.9,104.2,325.9z"/>
				</g>
			</g>
			<g>
				<circle class="st1" cx="117.8" cy="252" r="1"/>
			</g>
		</g>
		<rect x="96.8" y="297.1" class="st8" width="14.8" height="10.4"/>
		<polygon class="st9" points="110,300 113,303.5 97.8,311.6 95.3,307.4 		"/>
		<polygon class="st9" points="113,307.4 110.5,311.6 95.3,303.5 98.3,300 		"/>
		<circle class="st8" cx="104.2" cy="283.4" r="16.3"/>
		<g>
			<path class="st1" d="M106.6,280.1c0-1.3-0.8-2.5-2.5-2.5c-1.1,0-2.1,0.5-2.8,1.4l-0.7-0.6c0.9-1,2.1-1.8,3.7-1.8
				c2.3,0,3.6,1.5,3.6,3.5c0,3-3.8,4.4-3.4,7.8h-1.1C102.9,284.1,106.6,282.7,106.6,280.1z M103,291.1c0-0.7,0.5-1.1,1-1.1
				s1.1,0.4,1.1,1.1s-0.5,1.1-1.1,1.1S103,291.8,103,291.1z"/>
		</g>
		<line class="st10" x1="109.5" y1="305.6" x2="98.8" y2="315.4"/>
		<line class="st10" x1="104.2" y1="307.5" x2="104.2" y2="324.8"/>
		<line class="st10" x1="98.8" y1="305.6" x2="109.5" y2="315.4"/>
	</g>
	<line class="st11" x1="33.8" y1="223" x2="319.3" y2="223"/>
	<line class="st11" x1="33.8" y1="440.6" x2="319.3" y2="440.6"/>
</g>
</svg>
