<?xml version="1.0" encoding="utf-8"?>
<!-- Generator: Adobe Illustrator 25.2.1, SVG Export Plug-In . SVG Version: 6.00 Build 0)  -->
<svg version="1.1" id="圖層_1" xmlns="http://www.w3.org/2000/svg" xmlns:xlink="http://www.w3.org/1999/xlink" x="0px" y="0px"
	 viewBox="0 0 1000 260" style="enable-background:new 0 0 1000 260;" xml:space="preserve">
<style type="text/css">
	.st0{fill:#FFE100;}
	.st1{fill:none;stroke:#231815;stroke-width:0.3979;}
	.st2{fill:#231815;}
	.st3{fill:none;}
	.st4{fill:#F3D922;}
	.st5{fill:#FFFFFF;}
	.st6{fill:#F2F2F2;}
	.st7{fill:#584942;}
	.st8{fill:#F3D922;stroke:#231815;stroke-width:1.5916;stroke-miterlimit:10;}
	.st9{fill:#F2F2F2;stroke:#231815;stroke-width:1.5916;stroke-miterlimit:10;}
	.st10{fill:none;stroke:#231815;stroke-width:1.5916;stroke-miterlimit:10;}
</style>
<g>
	<g>
		<g>
			<g>
				<path class="st0" d="M690.3,168.2l3.6-17.1h3.1l-5.4,24.1h-3.2l-2.2-17.2l-2.2,17.2h-3.2l-5.4-24.1h3.1l3.7,17.2l2.5-17.2h3.1
					L690.3,168.2z"/>
				<path class="st0" d="M701.3,151.1h3v7.7l0.2-0.3c1.1-1.2,2.6-1.8,4.3-1.8c1.7,0,3,0.6,4.3,1.8c1.2,1.2,1.8,2.6,1.8,4.3v12.4h-3
					v-12.4c0-0.9-0.3-1.6-1.1-2.2c-0.8-0.7-1.6-1-2.7-1c-1,0-1.9,0.3-2.7,1s-1.1,1.3-1.1,2.2v12.4h-3v-24.1H701.3z"/>
				<path class="st0" d="M720.3,159.5c1.5-1.8,3.2-2.7,5.4-2.7c2,0,3.8,0.9,5.3,2.7s2.2,4,2.2,6.5l-0.1,1.1h-11.9
					c0.1,1.3,0.6,2.5,1.2,3.5c0.9,1.2,1.9,1.9,3.1,1.9c1.2,0,2.2-0.7,3.1-1.9c0.2-0.3,0.4-0.8,0.7-1.2h3.1c-0.3,1.2-0.9,2.2-1.7,3.1
					c-1.5,1.8-3.2,2.7-5.3,2.7c-2.1,0-3.8-0.9-5.4-2.7c-1.5-1.8-2.2-3.9-2.2-6.5C718,163.4,718.7,161.3,720.3,159.5z M725.5,159.5
					c-1.2,0-2.3,0.7-3.1,1.9c-0.7,0.9-1,1.9-1.2,3h8.8c-0.2-1.1-0.6-2.1-1.2-3C727.9,160.1,726.8,159.5,725.5,159.5z"/>
				<path class="st0" d="M736.3,157h3v1.9l0.2-0.2c1.1-1.2,2.6-1.8,4.3-1.8c1.7,0,3,0.6,4.3,1.8c1.2,1.2,1.8,2.6,1.8,4.3v12.3h-3
					v-12.3c0-0.9-0.3-1.6-1.1-2.2c-0.8-0.7-1.6-1-2.7-1c-1,0-1.9,0.3-2.7,1c-0.8,0.7-1.1,1.3-1.1,2.2v12.3h-3V157H736.3z"/>
			</g>
			<g>
				<path class="st1" d="M689.3,167.2l3.6-17.1h3.1l-5.4,24.1h-3.2l-2.2-17.2l-2.2,17.2h-3.2l-5.4-24.1h3.1l3.7,17.2l2.5-17.2h3.1
					L689.3,167.2z"/>
				<path class="st1" d="M700.3,150h3v7.7l0.2-0.3c1.1-1.2,2.6-1.8,4.3-1.8c1.7,0,3,0.6,4.3,1.8c1.2,1.2,1.8,2.6,1.8,4.3V174h-3
					v-12.4c0-0.9-0.3-1.6-1.1-2.2c-0.8-0.7-1.6-1-2.7-1c-1,0-1.9,0.3-2.7,1s-1.1,1.3-1.1,2.2V174h-2.9V150z"/>
				<path class="st1" d="M719.2,158.4c1.5-1.8,3.2-2.7,5.4-2.7c2,0,3.8,0.9,5.3,2.7s2.2,4,2.2,6.5l-0.1,1.1h-11.9
					c0.1,1.3,0.6,2.5,1.2,3.5c0.9,1.2,1.9,1.9,3.1,1.9c1.2,0,2.2-0.7,3.1-1.9c0.2-0.3,0.4-0.8,0.7-1.2h3.1c-0.3,1.2-0.9,2.2-1.7,3.1
					c-1.5,1.8-3.2,2.7-5.3,2.7c-2.1,0-3.8-0.9-5.4-2.7c-1.5-1.8-2.2-3.9-2.2-6.5C716.9,162.4,717.7,160.3,719.2,158.4z M724.5,158.5
					c-1.2,0-2.3,0.7-3.1,1.9c-0.7,0.9-1,1.9-1.2,3h8.8c-0.2-1.1-0.6-2.1-1.2-3C726.8,159.1,725.8,158.5,724.5,158.5z"/>
				<path class="st1" d="M735.3,156h3v1.9l0.2-0.2c1.1-1.2,2.6-1.8,4.3-1.8c1.7,0,3,0.6,4.3,1.8c1.2,1.2,1.8,2.6,1.8,4.3v12.3h-3
					v-12.3c0-0.9-0.3-1.6-1.1-2.2c-0.8-0.7-1.6-1-2.7-1c-1,0-1.9,0.3-2.7,1c-0.8,0.7-1.1,1.3-1.1,2.2v12.3h-3V156H735.3z"/>
			</g>
			<g>
				<path class="st2" d="M673.2,201.9h10.6V201h-0.4c-2.9,0-5.1-0.6-6.6-1.7l-3,1.8l-0.6-1.2l2-1.2v-2.9h-2v-1.3h3.7v2.8
					c1,1.7,3.2,2.5,6.5,2.5h6.2v1.3h-4v0.9h4v1.3h-4v3h-2.9v-1.3h1.2v-1.7h-6.6l2.1,1.2l-0.7,1.2l-2.1-1.2l0.7-1.2h-3.9L673.2,201.9
					L673.2,201.9z M674.4,190l2.5,1.5l-0.7,1.1l-2.5-1.5L674.4,190z M684,192.7h4.5v6.3h-9v-6.3h3.2l0.4-0.8h-4.8v-1.3h2.8l-0.4-0.9
					l1.2-0.7l0.9,1.6h2.6l0.9-1.6l1.2,0.7l-0.4,0.9h2.8v1.3h-5.3L684,192.7z M681.1,193.8v0.6h5.7v-0.6H681.1z M681.1,195.5v0.6h5.7
					v-0.6H681.1z M681.1,197.1v0.6h5.7v-0.6H681.1z"/>
				<path class="st2" d="M701.6,193.9c-0.1-0.8-0.2-1.6-0.3-2.3h-4.5v-1.7h5.9c0.6,7.5,3,12.5,7.2,14.9l-0.9,1.5
					c-3.7-2-6-5.8-7.3-11.4c-1.2,5.4-3.9,9.2-8.2,11.4l-0.9-1.5c4-2.1,6.5-5.9,7.6-11.2L701.6,193.9z"/>
				<path class="st2" d="M717.1,189.8c-0.2,0.6-0.4,1-0.7,1.3h5.6v1.7h-6.5c-0.4,0.6-0.8,1.1-1.2,1.7h5.9l1.7,0.1l-0.2,2.1
					c1.6-2,2.6-4.5,3-7.5l1.5,0.2c-0.2,1-0.4,2.1-0.8,3.5h4.4v1.5h-0.9c-0.1,3-0.8,5.5-1.9,7.5c0.8,1.2,1.8,2.3,3.1,3.4l-1,1.2
					c-1.2-0.9-2.2-1.9-3-3c-0.8,1.1-1.9,2.1-3.4,3l-0.9-1.2c1.5-0.9,2.6-2,3.5-3.2c-0.7-1.3-1.2-3.1-1.7-5c-0.2,0.4-0.6,0.8-0.9,1.1
					l-1.1-0.9l-0.1,1.1h1.1v1.7h-1.3l-0.2,2h1.1v1.7H721l-0.2,2.9h-2.8v-1.5h1.3l0.1-1.5h-4.5l-0.1,1.2l-1.7-0.1l0.4-4.8h-1.1v-1.7
					h1.2l0.3-3.5c-0.1,0.2-0.3,0.3-0.4,0.4l-1.3-1.1c1.2-1.1,2.3-2.7,3.4-4.8L717.1,189.8z M716.6,199.8h-1.3l-0.2,2h1.3
					L716.6,199.8z M716.9,196.1h-1.3l-0.1,2h1.3L716.9,196.1z M718.3,199.8l-0.2,2h1.5l0.2-2H718.3z M718.5,196.1l-0.2,2h1.5l0.2-2
					H718.5z M724.8,194.3c0.1,2.3,0.6,4.3,1.3,5.8c0.7-1.6,1.1-3.5,1.3-5.8H724.8z"/>
				<path class="st2" d="M737.8,193.9h-1.7v4.4l1.1-0.3l0.7,1.5l-1.7,0.6v6h-2.9v-1.7h1.2v-3.8l-1.6,0.6l-0.6-1.6l2.1-0.8v-5h-2V192
					h2v-3.2h1.7v3.2h1.7L737.8,193.9L737.8,193.9z M739.5,198.3h3.7v-1.1H738v-1.5h5.3v-1.1h-4v-1.5h4V192h-4.9v-1.5h4.9v-1.5h1.7
					v1.5h4.5v1.5h-4.5v1.1h3.7v2.6h1.2v1.5h-1.2v2.6h-3.7v1.2h3.7v1.5h-3.7v2.3c0.6,0.1,1,0.1,1.7,0.1h3.2v1.5h-3.2
					c-2.9,0-5-0.7-6.4-2.1c-0.4,0.9-1.1,1.6-1.8,2.1l-1.1-1.1c1.3-1,2.1-2.6,2.5-4.7l1.6,0.1c-0.1,0.6-0.2,1.2-0.3,1.9
					c0.7,0.8,1.5,1.5,2.5,1.8v-4.5h-3.7v-1.6H739.5z M746.8,195.7v-1.1h-2v1.1H746.8z M746.8,198.3v-1.1h-2v1.1H746.8z"/>
				<path class="st2" d="M667.8,211.1l-0.8,2.8h2.7v11.9h-6.2v-11.9h1.8l0.9-3.2L667.8,211.1z M668,219v-3.5h-2.9v3.5H668z M668,224
					v-3.5h-2.9v3.5H668z M674.3,210.8c-0.2,1.1-0.4,2.1-0.7,3h5.5v9c0,3-1.5,4.5-4.5,4.5h-0.4v-1.7h0.4c1.9,0,2.9-1,2.9-2.9v-7.4
					h-4.5c-0.4,1.1-1,2.2-1.7,3l-1.5-0.9c1.5-1.9,2.3-4.3,2.8-7L674.3,210.8z M672.5,219.4l1.1-1.1l2.3,2.3l-1.1,1.1L672.5,219.4z"
					/>
				<path class="st2" d="M699.8,218.4h-9v8.8h-1.7v-1.9l-6.4,1l-0.1-1.3l1.7-0.2v-6.4h-1.7v-1.3h17.1V218.4z M697.5,210.6v5.6h-12.2
					v-5.6H697.5z M689.3,224v-0.8H686v1.2L689.3,224z M689.3,219.6v-1.1H686v1h3.2V219.6z M689.3,221.9v-1H686v1H689.3z
					 M695.8,212.8v-0.8h-9v0.8H695.8z M695.8,214.1h-9v0.8h9V214.1z M699.2,220c-0.8,1.8-1.6,3.1-2.6,4.1c0.9,0.8,2,1.5,3.2,1.9
					l-0.8,1.2c-1.3-0.6-2.6-1.3-3.5-2.1c-0.9,0.8-2.1,1.5-3.6,2.1l-0.8-1.2c1.3-0.6,2.5-1.2,3.2-1.9c-0.9-0.8-1.6-1.9-2.2-3.2h-0.6
					v-1.5h6.4L699.2,220z M697.2,220.9h-3.5c0.4,0.8,1,1.5,1.7,2.1C696.1,222.5,696.8,221.7,697.2,220.9z"/>
				<path class="st2" d="M708.1,211.1c-0.3,1.5-1,3-1.8,4.6v11.7h-1.6v-9.1c-0.3,0.6-0.8,1-1.2,1.5l-1.2-1.1c1.9-2,3.2-4.6,4.3-7.9
					L708.1,211.1z M707.5,216.8h5.3v-2.5h-4v-1.7h4v-2h1.7v2h4v1.7h-4v2.5h5.3v1.7h-12.2V216.8z M707.5,225.7h5.3v-2.9h-4v-1.7h4v-2
					h1.7v2h4v1.7h-4v2.9h5.3v1.7h-12.2V225.7z"/>
				<path class="st2" d="M728.3,224.9h-4.9v-12.6h4.9V224.9z M726.7,217.5v-3.7H725v3.7H726.7z M726.7,223.2v-4H725v4H726.7z
					 M738.5,214.6h-3.2v2h4.5v1.7h-2.9v1.7h2.5v1.7h-2.5v5.7h-3.2v-1.7h1.7v-4H730V220h5.3v-1.7h-6.2v-1.7h4.5v-2h-3.2V213h3.2v-2.3
					h1.7v2.5h3.2V214.6z M730.5,223.4l1.1-1.1l1.8,1.8l-1.1,1.1L730.5,223.4z"/>
				<path class="st2" d="M746.6,215.4v1.7l1.8,1.9l-1,1l-0.8-0.8v8.2H745v-6.6c-0.2,0.4-0.7,1-1.3,1.6l-1.1-1.1
					c1.1-1,1.9-2.5,2.5-4.4v-1.6h-2V214h2v-3.4h1.6v3.5h1.5v1.3H746.6L746.6,215.4z M750.4,221.5l2.5,1.5l-0.7,1.2l-1.9-1.1
					c-0.3,1.8-1,3.1-2,3.9l-0.9-1.1c1.2-1,1.8-2.7,1.8-5v-0.1h-0.8v-1.3h4.8v-1.1l-1,0.3l-0.2-0.4h-3.7V217h0.8l0.8-1.2l-1.5-1
					l2.2-3.7l1,0.6l-1.7,2.7l0.6,0.3l1.2-1.9l0.9,0.6l-2.2,3.6h1.1l-0.3-0.9l1.1-0.3l0.8,2.3v-7.4h1.3v8.7h2.1l-0.9-0.7l0.4-0.6
					h-1.6V217h0.8l0.8-1.2l-1.6-1l2.2-3.7l1,0.6l-1.7,2.7l0.6,0.3l1.2-1.9l0.9,0.6l-2.2,3.6h1.1l-0.3-0.9l1.1-0.3l0.9,2.6l-1.1,0.3
					l-0.2-0.4h-1.5l1,0.7l-0.4,0.6h2.3v1.3h-5.3v0.6c0.1,0.9,0.3,1.7,0.7,2.5c0.6-0.6,1.2-1.2,2-2.1l1.1,0.8
					c-0.8,1.1-1.6,1.9-2.2,2.5c0.6,0.6,1.3,1,2.3,1.1v-1.1h1.3v2.6c-2.1,0-3.8-0.6-4.8-1.7c-1,0.7-2.2,1.2-3.7,1.7l-0.6-1.2
					c1.3-0.4,2.5-1,3.4-1.6c-0.4-0.9-0.8-2-0.9-3.2v-0.7h-2.7v0.1v0.7L750.4,221.5L750.4,221.5z"/>
			</g>
		</g>
		<g>
			<g>
				<g>
					<path class="st3" d="M707.6,34.3c-19.8,0-36.6,13-42.2,31c4.4-4.3,9.8-7,15.7-8.3v-5.3c0-1.2,1-2.3,2.3-2.3h8.4
						c1.2,0,2.3,1,2.3,2.3V57c4.8,1,9.3,3,13.1,6.2l2.5-2.5l-1.5-1.5c-1.1-1.1-1.1-3.1,0-4.3c0.6-0.6,1.3-0.9,2.1-0.9
						c0.8,0,1.6,0.3,2.1,0.9l8.3,8.3c1.1,1.1,1.1,3.1,0,4.3c-0.6,0.6-1.3,0.9-2.1,0.9c-0.8,0-1.6-0.3-2.1-0.9l-1.5-1.5l-2.5,2.5
						c9.8,12.5,9,30.7-2.6,42.2c-5,5-11.5,8.2-18.6,9.1c5,1.9,10.4,3,16.1,3c24.4,0,44.2-19.8,44.2-44.2S732,34.3,707.6,34.3z
						 M734,90.8h-12.3c-0.2,0-0.4-0.2-0.4-0.4c0-0.2,0.2-0.4,0.4-0.4H734c0.2,0,0.4,0.2,0.4,0.4C734.5,90.5,734.3,90.8,734,90.8z
						 M742.7,84.4h-20.8c-0.2,0-0.4-0.2-0.4-0.4c0-0.2,0.2-0.4,0.4-0.4h20.8c0.2,0,0.4,0.2,0.4,0.4
						C743.1,84.2,742.9,84.4,742.7,84.4z M748.9,78.7h-27.1c-0.2,0-0.4-0.2-0.4-0.4c0-0.2,0.2-0.4,0.4-0.4h27.1
						c0.2,0,0.4,0.2,0.4,0.4C749.4,78.5,749.1,78.7,748.9,78.7z"/>
					<path class="st4" d="M691.7,50.7h-8.4c-0.4,0-0.9,0.3-0.9,0.9v5c1.7-0.2,3.4-0.4,5-0.4s3.4,0.1,5,0.4v-5
						C692.6,51.2,692.3,50.7,691.7,50.7z"/>
					<path class="st5" d="M710.7,61.6l-2.3,2.3c0.6,0.6,1.2,1.1,1.8,1.7c0.6,0.6,1.1,1.1,1.7,1.8l2.3-2.3L710.7,61.6z"/>
					<path class="st4" d="M717.5,66.5c0.3,0.3,0.7,0.4,1.1,0.4s0.8-0.1,1.1-0.4c0.7-0.7,0.7-1.6,0-2.2l-8.3-8.3
						c-0.3-0.3-0.7-0.4-1.1-0.4s-0.8,0.1-1.1,0.4c-0.7,0.7-0.7,1.6,0,2.2L717.5,66.5z"/>
					<path class="st4" d="M709.1,66.6c-5.7-5.7-13.4-9-21.5-9c-8.2,0-15.8,3.1-21.5,9c-0.6,0.6-1,1-1.5,1.6c-0.8,3.2-1.2,6.5-1.2,10
						c1.2-3.1,3.1-6,5.7-8.5c4.9-4.9,11.5-7.6,18.5-7.6s13.5,2.7,18.5,7.6c10.2,10.2,10.2,26.7,0,36.9c-4.9,4.9-11.5,7.6-18.5,7.6
						c-2.5,0-4.9-0.3-7.3-1c2.6,2,5.5,3.8,8.5,5.3c7.7-0.3,14.9-3.5,20.4-8.8C721,97.7,721,78.5,709.1,66.6z"/>
					<path class="st6" d="M705.1,105.5c9.6-9.6,9.6-25.3,0-34.9c-4.7-4.7-10.9-7.3-17.5-7.3c-6.6,0-12.8,2.6-17.5,7.3
						c-3.4,3.4-5.5,7.4-6.5,11.6c0.9,11.1,5.9,21,13.5,28.3c3.2,1.5,6.7,2.2,10.4,2.2C694.2,112.8,700.4,110.2,705.1,105.5z
						 M710.4,87.9c0,0.2-0.2,0.4-0.4,0.4h-6.2c-0.2,0-0.4-0.2-0.4-0.4c0-0.2,0.2-0.4,0.4-0.4h6.2C710.3,87.4,710.4,87.6,710.4,87.9z
						 M701.5,79.2l5.3-3c0.2-0.1,0.4,0,0.6,0.1c0.1,0.2,0,0.4-0.1,0.6l-5.3,3c-0.1,0-0.1,0.1-0.2,0.1c-0.1,0-0.3-0.1-0.3-0.2
						C701.3,79.7,701.3,79.4,701.5,79.2z M701.4,95.8c0.1-0.2,0.4-0.3,0.6-0.1l5.3,3c0.2,0.1,0.3,0.4,0.1,0.6
						c-0.1,0.1-0.2,0.2-0.3,0.2c-0.1,0-0.1,0-0.2-0.1l-5.3-3C701.3,96.3,701.3,96,701.4,95.8z M695.3,73.4l3-5.3
						c0.1-0.2,0.4-0.3,0.6-0.1c0.2,0.1,0.3,0.4,0.1,0.6l-3,5.3c-0.1,0.1-0.2,0.2-0.3,0.2c-0.1,0-0.1,0-0.2-0.1
						C695.3,74,695.2,73.7,695.3,73.4z M683.9,88.1c0-1.8,1.2-3.2,2.9-3.6V71.3c0-0.2,0.1-0.4,0.2-0.6v-5.5c0-0.2,0.2-0.4,0.4-0.4
						s0.4,0.2,0.4,0.4v5.5c0.1,0.1,0.2,0.3,0.2,0.6v13.2c1.7,0.3,2.9,1.8,2.9,3.6c0,0.8-0.2,1.5-0.7,2l13.2,13.4
						c0.2,0.3,0.2,0.8,0,1c-0.1,0.1-0.3,0.2-0.4,0.2c-0.2,0-0.3-0.1-0.6-0.2l-13.2-13.4c-0.6,0.3-1.2,0.6-2,0.6
						C685.6,91.7,683.9,90.1,683.9,88.1z"/>
					<path class="st2" d="M688.1,70.9v-5.5c0-0.2-0.2-0.4-0.4-0.4c-0.2,0-0.4,0.2-0.4,0.4v5.5c0.1-0.1,0.2-0.1,0.4-0.1
						C687.7,70.6,687.9,70.7,688.1,70.9z"/>
					<path class="st2" d="M701.5,96.4l5.3,3c0.1,0,0.1,0.1,0.2,0.1c0.1,0,0.3-0.1,0.3-0.2c0.1-0.2,0-0.4-0.1-0.6l-5.3-3
						c-0.2-0.1-0.4,0-0.6,0.1C701.3,96,701.3,96.3,701.5,96.4z"/>
					<path class="st2" d="M703.5,87.9c0,0.2,0.2,0.4,0.4,0.4h6.2c0.2,0,0.4-0.2,0.4-0.4c0-0.2-0.2-0.4-0.4-0.4h-6.2
						C703.6,87.4,703.5,87.6,703.5,87.9z"/>
					<path class="st2" d="M701.7,80.1c0.1,0,0.1,0,0.2-0.1l5.3-3c0.2-0.1,0.3-0.4,0.1-0.6c-0.1-0.2-0.4-0.3-0.6-0.1l-5.3,3
						c-0.2,0.1-0.3,0.4-0.1,0.6C701.4,80,701.6,80.1,701.7,80.1z"/>
					<path class="st2" d="M695.6,74.1c0.1,0,0.1,0.1,0.2,0.1c0.1,0,0.3-0.1,0.3-0.2l3-5.3c0.1-0.2,0-0.4-0.1-0.6
						c-0.2-0.1-0.4,0-0.6,0.1l-3,5.3C695.2,73.7,695.3,74,695.6,74.1z"/>
					<path class="st4" d="M687.6,85.8c-1.2,0-2.2,1-2.2,2.2c0,1.2,1,2.2,2.2,2.2c1.2,0,2.2-1,2.2-2.2
						C689.7,86.9,688.8,85.8,687.6,85.8z"/>
					<path class="st2" d="M748.9,77.8h-27.1c-0.2,0-0.4,0.2-0.4,0.4c0,0.2,0.2,0.4,0.4,0.4h27.1c0.2,0,0.4-0.2,0.4-0.4
						C749.4,78,749.1,77.8,748.9,77.8z"/>
					<path class="st2" d="M742.7,83.5h-20.8c-0.2,0-0.4,0.2-0.4,0.4c0,0.2,0.2,0.4,0.4,0.4h20.8c0.2,0,0.4-0.2,0.4-0.4
						C743.1,83.7,742.9,83.5,742.7,83.5z"/>
					<path class="st2" d="M734,89.9h-12.3c-0.2,0-0.4,0.2-0.4,0.4c0,0.2,0.2,0.4,0.4,0.4H734c0.2,0,0.4-0.2,0.4-0.4
						C734.5,90.1,734.3,89.9,734,89.9z"/>
				</g>
			</g>
			<g>
				<path class="st2" d="M682.6,56.6v-5c0-0.4,0.3-0.9,0.9-0.9h8.4c0.4,0,0.9,0.3,0.9,0.9v5c0.4,0.1,1,0.1,1.5,0.2v-5.3
					c0-1.2-1-2.3-2.3-2.3h-8.4c-1.2,0-2.3,1-2.3,2.3v5.3C681.6,56.9,682,56.8,682.6,56.6z"/>
				<path class="st2" d="M714,65l-2.3,2.3c0.3,0.3,0.7,0.8,0.9,1.1L715,66L714,65z"/>
				<path class="st2" d="M708.3,63.9l2.3-2.3l-1-1l-2.5,2.5C707.5,63.4,708,63.6,708.3,63.9z"/>
				<path class="st2" d="M710.7,61.6l3.5,3.5l1,1l1.5,1.5c0.6,0.6,1.3,0.9,2.1,0.9c0.8,0,1.6-0.3,2.1-0.9c1.1-1.1,1.1-3.1,0-4.3
					l-8.3-8.3c-0.6-0.6-1.3-0.9-2.1-0.9c-0.8,0-1.6,0.3-2.1,0.9c-1.1,1.1-1.1,3.1,0,4.3l1.5,1.5L710.7,61.6z M709.2,56
					c0.3-0.3,0.7-0.4,1.1-0.4s0.8,0.1,1.1,0.4l8.3,8.3c0.7,0.7,0.7,1.6,0,2.2c-0.3,0.3-0.7,0.4-1.1,0.4s-0.8-0.1-1.1-0.4l-8.3-8.3
					C708.6,57.5,708.6,56.5,709.2,56z"/>
				<path class="st2" d="M712.7,68.5c-0.3-0.3-0.6-0.8-0.9-1.1c-0.6-0.6-1-1.2-1.7-1.8c-0.6-0.6-1.1-1.1-1.8-1.7
					c-0.3-0.3-0.8-0.7-1.1-0.9c-3.9-3-8.4-5.1-13.1-6.2c-0.4-0.1-0.9-0.2-1.5-0.2c-1.7-0.2-3.4-0.4-5-0.4c-1.7,0-3.4,0.1-5,0.4
					c-0.4,0.1-1,0.1-1.5,0.2c-5.8,1.2-11.3,4-15.7,8.3c-0.3,1-0.6,1.9-0.8,2.9c0.4-0.6,0.9-1,1.5-1.6c5.7-5.7,13.4-9,21.5-9
					c8.2,0,15.8,3.1,21.5,9c11.9,11.9,11.9,31.1,0,43c-5.5,5.5-12.6,8.6-20.4,8.8c0.9,0.4,1.9,0.8,2.8,1.2c6.9-0.9,13.4-4,18.6-9.1
					C721.6,99.1,722.4,80.9,712.7,68.5z"/>
				<path class="st2" d="M706.1,106.5c10.2-10.2,10.2-26.7,0-36.9c-4.9-4.9-11.5-7.6-18.5-7.6s-13.5,2.7-18.5,7.6
					c-2.5,2.5-4.4,5.4-5.7,8.5c0,0.1,0,0.2,0,0.3c0,1.2,0.1,2.6,0.1,3.8c1-4.3,3.2-8.3,6.5-11.6c4.7-4.7,10.9-7.3,17.5-7.3
					c6.6,0,12.8,2.6,17.5,7.3c9.6,9.6,9.6,25.3,0,34.9c-4.7,4.7-10.9,7.3-17.5,7.3c-3.7,0-7.2-0.8-10.4-2.2c1,0.9,2,1.8,3.1,2.7
					c2.3,0.7,4.8,1,7.3,1C694.5,114.3,701.1,111.5,706.1,106.5z"/>
				<path class="st2" d="M688.3,84.5V71.3c0-0.2-0.1-0.4-0.2-0.6c-0.1-0.1-0.2-0.1-0.4-0.1c-0.2,0-0.3,0.1-0.4,0.1
					c-0.1,0.1-0.2,0.3-0.2,0.6v13.2c0.2,0,0.4-0.1,0.7-0.1C687.8,84.5,688.1,84.5,688.3,84.5z"/>
				<path class="st7" d="M689.5,91.1l13.2,13.4c0.1,0.1,0.3,0.2,0.6,0.2c0.2,0,0.3-0.1,0.4-0.2c0.3-0.2,0.3-0.8,0-1l-13.2-13.4
					C690.3,90.5,690,90.9,689.5,91.1z"/>
				<path class="st2" d="M689.5,91.1c0.4-0.2,0.8-0.6,1-1c0.4-0.6,0.7-1.2,0.7-2c0-1.8-1.2-3.2-2.9-3.6c-0.2,0-0.4-0.1-0.7-0.1
					c-0.2,0-0.4,0-0.7,0.1c-1.7,0.3-2.9,1.8-2.9,3.6c0,2,1.7,3.6,3.6,3.6C688.3,91.7,689,91.4,689.5,91.1z M687.6,90.3
					c-1.2,0-2.2-1-2.2-2.2c0-1.2,1-2.2,2.2-2.2c1.2,0,2.2,1,2.2,2.2C689.7,89.3,688.8,90.3,687.6,90.3z"/>
				<g>
					<g>
						<g>
							<path class="st2" d="M719.3,36.7c-0.1,0-0.1,0-0.2,0c-1.5-0.4-3-0.7-4.5-1c-0.4-0.1-0.8-0.6-0.8-1c0.1-0.4,0.6-0.8,1-0.8
								c1.6,0.2,3.1,0.6,4.7,1c0.4,0.1,0.8,0.7,0.7,1.1C720.1,36.4,719.7,36.7,719.3,36.7z"/>
						</g>
						<g>
							<path class="st2" d="M707.6,123.6c-12.1,0-23.4-4.7-31.9-13.2c-8.5-8.5-13.2-19.8-13.2-31.9s4.7-23.4,13.2-31.9
								c8.5-8.5,19.8-13.2,31.9-13.2c0.4,0,0.9,0.4,0.9,0.9s-0.4,0.9-0.9,0.9c-11.5,0-22.5,4.5-30.7,12.6
								c-8.2,8.2-12.6,19-12.6,30.7c0,11.5,4.5,22.5,12.6,30.7s19,12.6,30.7,12.6c11.5,0,22.5-4.5,30.7-12.6
								c8.2-8.2,12.6-19,12.6-30.7c0-8.2-2.2-16-6.5-22.9c-4.1-6.7-10.1-12.1-17-15.7c-0.4-0.2-0.6-0.8-0.3-1.2
								c0.2-0.4,0.8-0.6,1.2-0.3c7.3,3.7,13.4,9.4,17.7,16.3c4.5,7.2,6.8,15.3,6.8,23.8c0,12.1-4.7,23.4-13.2,31.9
								C731,118.9,719.7,123.6,707.6,123.6z"/>
						</g>
					</g>
					<g>
						<g>
							<circle class="st2" cx="723.6" cy="37.2" r="1.1"/>
						</g>
					</g>
				</g>
			</g>
		</g>
	</g>
	<g>
		<g>
			<g>
				<path class="st0" d="M272.2,168.2l3.6-17.1h3.1l-5.4,24.1h-3.2l-2.2-17.2l-2.2,17.2h-3.2l-5.4-24.1h3.1l3.7,17.2l2.5-17.2h3.1
					L272.2,168.2z"/>
				<path class="st0" d="M283.2,151.1h3v7.7l0.2-0.3c1.1-1.2,2.6-1.8,4.3-1.8s3,0.6,4.3,1.8c1.2,1.2,1.8,2.6,1.8,4.3v12.4h-3v-12.4
					c0-0.9-0.3-1.6-1.1-2.2c-0.8-0.7-1.6-1-2.7-1c-1,0-1.9,0.3-2.7,1c-0.8,0.7-1.1,1.3-1.1,2.2v12.4h-3L283.2,151.1L283.2,151.1z"/>
				<path class="st0" d="M309.5,160.6c-0.8-0.7-1.7-0.9-2.7-1c-1,0-2,0.3-2.7,1c-0.9,0.7-1.3,1.6-1.3,2.5h-2.9
					c0-1.7,0.7-3.2,2.1-4.5c1-1.1,2.7-1.8,4.8-1.9c2.1,0.1,3.7,0.8,4.7,1.9c1.5,1.2,2.1,2.7,2.1,4.5v9c0,1,0.3,2,1.1,2.9h-3.5
					c-0.1-0.3-0.2-0.6-0.3-0.9c-1.1,0.6-2.3,1-3.8,1.1c-2.1,0.1-3.9-0.2-5.5-1.1c-1.6-0.9-2.3-2.1-2.5-3.6c0-1.5,0.7-2.8,2.1-4
					c1.5-1.2,3.2-1.9,5.3-2.1c1.3-0.1,2.6-0.4,3.9-0.9v-0.2C310.7,162.2,310.3,161.3,309.5,160.6z M310.7,165.8
					c-1.2,0.3-2.6,0.7-3.8,0.9s-2.3,0.7-3.2,1.2c-0.8,0.7-1.1,1.5-1,2.1c0,0.8,0.4,1.3,1.3,1.8c0.9,0.4,1.9,0.6,3.2,0.4
					c1.2-0.1,2.3-0.4,3.1-1.1l0.3-0.3v-1.3V165.8z"/>
				<path class="st0" d="M324.4,175.1c-3.5,0-5.3-1.7-5.3-5v-10.4h-3V157h3v-5.1h3v5.1h4.9v2.7h-4.9v10.4c0,1.5,0.8,2.2,2.2,2.2h1.6
					v2.7h-1.6L324.4,175.1L324.4,175.1z"/>
			</g>
			<g>
				<g>
					<path class="st1" d="M271.2,167.2l3.6-17.1h3.1l-5.4,24.1h-3.2l-2.2-17.2l-2.2,17.2h-3.2l-5.4-24.1h3.1l3.7,17.2l2.5-17.2h3.1
						L271.2,167.2z"/>
					<path class="st1" d="M282.1,150h3v7.7l0.2-0.3c1.1-1.2,2.6-1.8,4.3-1.8c1.7,0,3,0.6,4.3,1.8s1.8,2.6,1.8,4.3V174h-3v-12.4
						c0-0.9-0.3-1.6-1.1-2.2c-0.8-0.7-1.6-1-2.7-1c-1,0-1.9,0.3-2.7,1s-1.1,1.3-1.1,2.2V174h-3L282.1,150L282.1,150z"/>
					<path class="st1" d="M308.5,159.6c-0.8-0.7-1.7-0.9-2.7-1c-1,0-2,0.3-2.7,1c-0.9,0.7-1.3,1.6-1.3,2.5h-2.9
						c0-1.7,0.7-3.2,2.1-4.5c1-1.1,2.7-1.8,4.8-1.9c2.1,0.1,3.7,0.8,4.7,1.9c1.5,1.2,2.1,2.7,2.1,4.5v9c0,1,0.3,2,1.1,2.9h-3.5
						c-0.1-0.3-0.2-0.6-0.3-0.9c-1.1,0.6-2.3,1-3.8,1.1c-2.1,0.1-3.9-0.2-5.5-1.1c-1.6-0.9-2.3-2.1-2.5-3.6c0-1.5,0.7-2.8,2.1-4
						c1.5-1.2,3.2-1.9,5.3-2.1c1.3-0.1,2.6-0.4,3.9-0.9v-0.2C309.6,161,309.3,160.3,308.5,159.6z M309.7,164.7
						c-1.2,0.3-2.6,0.7-3.8,0.9s-2.3,0.7-3.2,1.2c-0.8,0.7-1.1,1.5-1,2.1c0,0.8,0.4,1.3,1.3,1.8c0.9,0.4,1.9,0.6,3.2,0.4
						c1.2-0.1,2.3-0.4,3.1-1.1l0.3-0.3v-1.3V164.7z"/>
					<path class="st1" d="M323.4,174.1c-3.5,0-5.3-1.7-5.3-5v-10.4h-3V156h3v-5.1h3v5.1h4.9v2.7h-4.9v10.4c0,1.5,0.8,2.2,2.2,2.2
						h1.6v2.7h-1.6V174.1z"/>
				</g>
				<g>
					<path class="st2" d="M252,195.8c1.3-0.6,2.8-1.5,4.3-2.6c1.5-1.1,2.6-2.6,3.6-4.3l1.6,0.8c-0.1,0.2-0.2,0.4-0.3,0.6
						c0.8,1.1,1.8,2.1,3,3c1.2,0.9,2.6,1.7,4.4,2.3l-0.8,1.5c-0.9-0.3-1.7-0.8-2.5-1.1v1.2h-4v2.9h4.5v1.7h-4.5v2.9h6.5v1.7H253
						v-1.7h6.5v-2.9H255v-1.7h4.5v-2.9h-4v-1.1c-0.8,0.4-1.6,0.9-2.5,1.2L252,195.8z M260,191.9c-0.9,1.2-1.9,2.2-3.1,3.1
						c-0.2,0.2-0.6,0.4-0.9,0.7h8.3c-0.4-0.2-0.9-0.6-1.2-0.8C261.9,193.9,260.8,192.9,260,191.9z"/>
					<path class="st2" d="M288.3,191.9h-7.3l-0.4,1.7h6.9v12.6h-14.7v-12.6h6.2l0.4-1.7h-7.4v-1.7h16.3L288.3,191.9L288.3,191.9z
						 M276.8,204.6v-9.4h-2.5v9.4H276.8z M281.7,197.3v-2h-3.2v2H281.7z M281.7,200.9v-2h-3.2v2H281.7z M281.7,204.6v-2h-3.2v2
						H281.7z M285.9,204.6v-9.4h-2.5v9.4H285.9z"/>
					<path class="st2" d="M297.6,194.3h-6.2v-1.6h6.2V194.3z M297.2,206.2h-5.3v-5h5.3V206.2z M296.8,191.5h-4.5v-1.6h4.5V191.5z
						 M296.8,197.2h-4.5v-1.6h4.5V197.2z M296.8,200h-4.5v-1.6h4.5V200z M295.6,204.7v-1.9h-2v1.9H295.6z M298.5,201.4l1.6,0.2
						l-0.6,3.8l-1.5-0.2L298.5,201.4z M307.8,189.9v6.2c0,1.7-0.8,2.5-2.5,2.5h-1.2v-1.7h1.2c0.6,0,0.8-0.2,0.8-0.8v-4.5h-2.9
						c0,0.9-0.1,1.7-0.2,2.5l1.7,0.8l-0.6,1.3l-1.6-0.7c-0.7,1.8-2.1,3-4.1,3.6l-0.6-1.6c1.5-0.4,2.5-1.3,3.1-2.7l-1.8-0.8l0.6-1.3
						l1.6,0.7c0.1-0.6,0.1-1.1,0.1-1.8h-2.9v-1.7H307.8L307.8,189.9z M302.5,203.8c0,0.6,0.2,0.8,0.8,0.8h1.7v-1.7h1.7v3.2h-3.2
						c-1.7,0-2.5-0.8-2.5-2.5v-2.9h1.7L302.5,203.8L302.5,203.8z M302,199.5l0.9-1.1l2.5,1.9l-0.9,1.1L302,199.5z M306,201.3
						l1.3-0.7l1.5,3.2l-1.3,0.6L306,201.3z"/>
					<path class="st2" d="M316.8,194.3h-5.4v-1.6h5.4V194.3z M316.5,206.2h-4.9v-5h4.9V206.2z M316.3,197.2h-4.5v-1.6h4.5V197.2z
						 M316.3,200h-4.5v-1.6h4.5V200z M316.3,191.5h-4.1v-1.6h4.1V191.5z M315,204.7v-1.9h-1.8v1.8h1.8V204.7z M316.6,194.7h1.6
						l-0.3-1.7H317v-1.5h2.2v-2h1.5v2h2.2v1.5h-0.8l-0.3,1.7h2v-4.8h1.5v4.8h3.2v1.5h-3.2v3.5c0,0.4,0,0.8,0,0.9
						c0.4-0.8,0.9-1.8,1.3-3.1l1.5,0.3c-0.6,1.9-1.3,3.6-2.3,4.9c0.2,0.7,0.6,1.2,1,1.6l0.4-1.7l1.5,0.3l-0.9,3.2h-1.1
						c-0.9-0.6-1.6-1.3-2-2.1c-0.7,0.8-1.5,1.5-2.6,2.1l-1-1.2c1.2-0.8,2.1-1.7,2.9-2.6c-0.2-0.8-0.3-1.7-0.3-2.7v-3.5h-7.3v-1.5
						L316.6,194.7L316.6,194.7z M317.4,197.2h5.1v6.7h-5.1V197.2z M321.1,199.8v-1.1H319v1.1H321.1z M321.1,202.3v-1.1H319v1.1
						H321.1z M320.3,194.7l0.3-1.7h-1.1l0.3,1.7H320.3z M325.8,191l1.5-0.4l1,2.9l-1.5,0.4L325.8,191z"/>
					<path class="st2" d="M226.2,210.8c-0.2,0.6-0.4,1-0.7,1.3h5.6v1.7h-6.5c-0.4,0.6-0.8,1.1-1.2,1.7h5.9l1.7,0.1l-0.2,2.1
						c1.6-2,2.6-4.5,3-7.5l1.5,0.2c-0.2,1-0.4,2.1-0.8,3.5h4.4v1.5H238c-0.1,3-0.8,5.5-1.9,7.5c0.8,1.2,1.8,2.3,3.1,3.4l-1,1.2
						c-1.2-0.9-2.2-1.9-3-3c-0.8,1.1-1.9,2.1-3.4,3l-0.9-1.2c1.5-0.9,2.6-2,3.5-3.2c-0.7-1.3-1.2-3.1-1.7-5
						c-0.2,0.4-0.6,0.8-0.9,1.1l-1.1-0.9l-0.1,1.1h1.1v1.7h-1.3l-0.2,2h1.1v1.7H230l-0.2,2.9H227v-1.5h1.3l0.1-1.5H224l-0.1,1.2
						l-1.7-0.1l0.4-4.8h-1.1v-1.7h1.2l0.3-3.5c-0.1,0.2-0.3,0.3-0.4,0.4l-1.3-1.1c1.2-1.1,2.3-2.7,3.4-4.8L226.2,210.8z
						 M225.7,220.8h-1.3l-0.2,2h1.3L225.7,220.8z M226,217.1h-1.3l-0.1,2h1.3L226,217.1z M227.4,220.8l-0.2,2h1.5l0.2-2H227.4z
						 M227.6,217.1l-0.1,2h1.5l0.1-2H227.6z M233.8,215.3c0.1,2.3,0.6,4.3,1.3,5.8c0.7-1.6,1.1-3.5,1.3-5.8H233.8z"/>
					<path class="st2" d="M246.9,215.1h-1.7v4.4l1.1-0.3l0.7,1.5l-1.7,0.6v6h-2.9v-1.7h1.2v-3.7l-1.6,0.6l-0.6-1.6l2.1-0.8v-4.9h-2
						v-1.7h2v-3.2h1.7v3.2h1.7v1.7H246.9z M248.6,219.3h3.7v-1.1H247v-1.5h5.3v-1.1h-4v-1.5h4v-1.1h-4.9v-1.3h4.9v-1.5h1.7v1.5h4.5
						v1.5H254v1.1h3.7v2.6h1.2v1.5h-1.2v2.6H254v1.2h3.7v1.5H254v2.3c0.6,0.1,1,0.1,1.7,0.1h3.2v1.5h-3.2c-2.9,0-5-0.7-6.4-2.1
						c-0.4,0.9-1.1,1.6-1.8,2.1l-1.1-1.1c1.3-1,2.1-2.6,2.5-4.7l1.6,0.1c-0.1,0.6-0.2,1.2-0.3,1.9c0.7,0.8,1.5,1.5,2.5,1.8V221h-3.7
						v-1.7L248.6,219.3L248.6,219.3z M255.9,216.8v-1.1h-2v1.1H255.9z M255.9,219.3v-1.1h-2v1.1H255.9z"/>
					<path class="st2" d="M263.4,222.7l1.5,0.7l-1.3,2.9l-1.5-0.7L263.4,222.7z M263.6,211.1h13.1v9.4h-13.1V211.1z M269.3,214.9
						v-2.2h-4v2.2H269.3z M269.3,218.8v-2.2h-4v2.2H269.3z M266.1,222h1.7v2c0,1.1,0.6,1.7,1.7,1.7h3.7v-1.2h1.7v2.9h-5.3
						c-2.1,0-3.2-1.1-3.2-3.2V222L266.1,222L266.1,222z M270.1,220.9l2.6,2l-1,1.2l-2.6-2L270.1,220.9z M275,214.9v-2.2h-4v2.2H275z
						 M275,218.8v-2.2h-4v2.2H275z M276.8,226.3l-1.5-2.9l1.5-0.7l1.5,2.9L276.8,226.3z"/>
					<path class="st2" d="M286,211.1l-2.5,4.4l1.3,0.8l2-3.7l1.3,0.8l-3,5.1h1.6l-0.2-0.9l1.3-0.4l1.2,3.5l-1.5,0.6l-0.3-0.9H286
						v7.3h-1.7v-7.3h-3v-1.7h2l0.6-1l-2.6-1.5l3.2-5.6L286,211.1z M282.3,221.2l1.5,0.2l-0.8,4.7l-1.5-0.2L282.3,221.2z M286.8,222
						l1.5-0.3l0.8,3l-1.5,0.3L286.8,222z M290.1,217.2c-0.2,0.3-0.4,0.7-0.8,1.1l-1.2-1c1.5-1.8,2.5-4,3-6.7l1.5,0.2
						c-0.2,1-0.4,1.9-0.6,2.6h2.3l0.8-2.8l1.3,0.3l-0.7,2.5h2.8v1.7h-3.2v2.5h2.5v1.7h-2.5v2.5h2.5v1.7h-2.5v2.5h3.2v1.6H290v-10.2
						L290.1,217.2L290.1,217.2z M291.7,215.1v2.5h2v-2.5H291.7z M293.8,221.7v-2.5h-2v2.5H293.8z M293.8,225.7v-2.5h-2v2.5H293.8z"
						/>
					<path class="st2" d="M310.7,223.6c-1.5-1.3-2.7-3-3.7-4.9c-0.8,3.4-2.2,6-4.3,8.2l-1.3-1c2.9-3,4.6-7.4,4.9-13.1h-2.8v-1.7h9.1
						l1.5,0.2l-0.8,4.7h2.3l1.6,0.4c-0.7,2.8-1.9,5.1-3.9,7.2c1.3,0.9,2.9,1.7,4.6,2.2l-0.7,1.6c-2-0.7-3.7-1.5-5.3-2.6
						c-1.5,1.1-3,2-4.8,2.7l-0.7-1.6C308.1,225.3,309.5,224.5,310.7,223.6z M313.1,217.5l-0.1,0.3l-1.6-0.3l0.9-4.9H308l-0.3,3
						c1,2.8,2.5,5,4.4,6.8c1.5-1.2,2.5-2.9,3-4.9L313.1,217.5L313.1,217.5z"/>
					<path class="st2" d="M331.2,210v1.5h6.9v1.5h-3.9l1.1,0.6l-0.6,1.1h3v1.2h-3.4v0.8h2.8v1.2h-2.8v0.8h2.8v1.2h-2.8v0.8h3.4v1.1
						h-8.6v-4.6c-0.3,0.4-0.7,0.8-1,1l-0.7-0.7v4.3h-1.6v-3.6c-0.2,0.3-0.6,0.6-1.1,0.8l-0.6-0.8v1c0,3.1-0.4,5.7-1.3,7.8l-1.7-0.6
						c0.9-1.9,1.3-4.4,1.5-7.2v-7.7h6.9v-1.5h1.6V210z M325.6,223.1l1.3,0.7l-1.5,2.8l-1.3-0.7L325.6,223.1z M324.3,217.4
						c1.6-1.1,2.6-2.7,3.2-4.6h-3.2V217.4z M327.5,216.2v0.6c1.3-1.1,2.2-2.3,2.8-3.8h-2.7l1.2,0.3
						C328.5,214.4,328.1,215.4,327.5,216.2z M327.5,223h1.6v1.8c0,0.8,0.3,1.1,1.1,1.1h3.9v-1.2h1.6v2.6h-5.5
						c-1.8,0-2.7-0.8-2.7-2.5V223z M330.3,223.1l1-1.1l1.8,1.6l-1,1.1L330.3,223.1z M331,214.4h2.2l0.9-1.6h-3.6l1.1,0.3
						C331.4,213.8,331.2,214.3,331,214.4z M330.7,215.6v0.8h2.1v-0.8H330.7z M332.9,218.4v-0.8h-2.1v0.8H332.9z M332.9,220.5v-0.8
						h-2.1v0.8H332.9z M337.6,226.6l-1.5-2.8l1.3-0.7l1.3,2.8L337.6,226.6z"/>
					<path class="st2" d="M357.5,227.3h-3.2v-1.7h1.7v-4.9h-4.6v5.7h-1.7v-5.7H345c-0.2,2.6-0.8,4.7-1.7,6.5l-1.6-0.7
						c1.1-2.1,1.7-4.7,1.7-7.7v-7.8h14.1V227.3z M349.7,215.1v-2.5h-4.6v2.5H349.7z M349.7,219.2v-2.5h-4.6v2.5H349.7z M355.8,215.1
						v-2.5h-4.6v2.5H355.8z M355.8,219.2v-2.5h-4.6v2.5H355.8z"/>
				</g>
			</g>
		</g>
		<g>
			<g>
				<path class="st3" d="M257.2,84.4c0-1.9,1.5-3.6,3.4-3.7v-5.3c0-2,1.7-3.7,3.7-3.7h48.1l0.9-2.2c0.4-1.8,2-3.1,3.6-3.1h13.9
					c1.7,0,3,1.3,3,3v15.2v16.4c3.9-6.6,6-14.2,6-22.4c0-24.4-19.8-44.2-44.2-44.2s-44.2,19.8-44.2,44.2c0,7.9,2.1,15.4,5.8,21.9
					L257.2,84.4L257.2,84.4z"/>
				<path class="st4" d="M330.7,67.6h-13.9c-0.9,0-2,1-2.2,2.1v0.1l-1,2.8c-0.1,0.3-0.3,0.4-0.7,0.4h-48.6c-1.2,0-2.3,1-2.3,2.3v5.3
					h1.2v-2.2c0-0.4,0.3-0.7,0.7-0.7h2.7v-2.3c0-0.4,0.3-0.7,0.7-0.7h61.3c0.4,0,0.7,0.3,0.7,0.7v5.3h0.7c0.9,0,1.7,0.3,2.3,0.8
					V69.3C332.4,68.4,331.6,67.6,330.7,67.6z"/>
				<path class="st6" d="M268.1,76.1v1.6h57.3c0.4,0,0.7,0.3,0.7,0.7v2.2h1.9V76h-59.9L268.1,76.1L268.1,76.1z"/>
				<rect x="264.7" y="79.1" class="st6" width="59.9" height="1.6"/>
				<path class="st4" d="M330.1,82.2h-69.1c-1.2,0-2.3,1-2.3,2.3v18.2c7.9,12.1,21.5,20,37,20c15.3,0,28.8-7.7,36.7-19.6V84.5
					C332.4,83.2,331.4,82.2,330.1,82.2z M321.1,97.3h-23.9v-8.2h23.9V97.3z"/>
				<path class="st6" d="M297.2,97.3h23.9v-8.2h-23.9V97.3z M300.5,91.4h17.3c0.2,0,0.4,0.2,0.4,0.4c0,0.2-0.2,0.4-0.4,0.4h-17.3
					c-0.2,0-0.4-0.2-0.4-0.4C300.1,91.7,300.2,91.4,300.5,91.4z M300.5,94.4h17.3c0.2,0,0.4,0.2,0.4,0.4c0,0.2-0.2,0.4-0.4,0.4
					h-17.3c-0.2,0-0.4-0.2-0.4-0.4C300.1,94.5,300.2,94.4,300.5,94.4z"/>
				<path class="st2" d="M300.5,92.3h17.3c0.2,0,0.4-0.2,0.4-0.4c0-0.2-0.2-0.4-0.4-0.4h-17.3c-0.2,0-0.4,0.2-0.4,0.4
					C300.1,92.2,300.2,92.3,300.5,92.3z"/>
				<path class="st2" d="M300.5,95.2h17.3c0.2,0,0.4-0.2,0.4-0.4c0-0.2-0.2-0.4-0.4-0.4h-17.3c-0.2,0-0.4,0.2-0.4,0.4
					C300.1,95,300.2,95.2,300.5,95.2z"/>
			</g>
		</g>
		<path class="st2" d="M262,80.7v-5.3c0-1.2,1-2.3,2.3-2.3H313c0.3,0,0.6-0.2,0.7-0.4l1-2.8v-0.1c0.2-1.1,1.3-2.1,2.2-2.1h13.9
			c0.9,0,1.6,0.7,1.6,1.6v12.2c0.9,0.7,1.5,1.8,1.5,2.9V69.1c0-1.7-1.3-3-3-3h-13.9c-1.6,0-3.1,1.3-3.6,3.1l-0.9,2.2h-48.1
			c-2,0-3.7,1.7-3.7,3.7v5.3c0.1,0,0.2,0,0.3,0h1.1V80.7L262,80.7z"/>
		<path class="st2" d="M328.7,74.8h-61.3c-0.4,0-0.7,0.3-0.7,0.7v2.3h1.5v-1.6h59.9v4.6h1.5v-5.3C329.4,75,329.1,74.8,328.7,74.8z"
			/>
		<path class="st2" d="M325.4,77.8h-57.3h-1.5h-2.7c-0.4,0-0.7,0.3-0.7,0.7v2.2h1.5v-1.6h59.9v1.6h1.5v-2.2
			C326,78,325.8,77.8,325.4,77.8z"/>
		<path class="st2" d="M332.4,81.5c-0.7-0.4-1.5-0.8-2.3-0.8h-0.7h-1.5H326h-1.5h-59.9h-1.5H262h-1.1c-0.1,0-0.2,0-0.3,0
			c-1.9,0.1-3.4,1.8-3.4,3.7v15.9c0.4,0.8,0.9,1.6,1.5,2.3V84.4c0-1.2,1-2.3,2.3-2.3h69.1c1.2,0,2.3,1,2.3,2.3v18.7
			c0.4-0.8,1-1.5,1.5-2.2V84.4C333.9,83.3,333.3,82.2,332.4,81.5z"/>
		<g>
			<g>
				<g>
					<path class="st2" d="M307.4,36.7c-0.1,0-0.1,0-0.2,0c-1.5-0.4-3-0.7-4.5-1c-0.4-0.1-0.8-0.6-0.8-1c0.1-0.4,0.6-0.8,1-0.8
						c1.6,0.2,3.1,0.6,4.7,1c0.4,0.1,0.8,0.7,0.7,1.1C308,36.4,307.7,36.7,307.4,36.7z"/>
				</g>
				<g>
					<path class="st2" d="M295.7,123.6c-12.1,0-23.4-4.7-31.9-13.2c-8.5-8.5-13.2-19.8-13.2-31.9s4.7-23.4,13.2-31.9
						c8.5-8.5,19.8-13.2,31.9-13.2c0.4,0,0.9,0.4,0.9,0.9s-0.4,0.9-0.9,0.9c-11.5,0-22.5,4.5-30.7,12.6s-12.6,19-12.6,30.7
						c0,11.5,4.5,22.5,12.6,30.7c8.2,8.2,19,12.6,30.7,12.6c11.5,0,22.5-4.5,30.7-12.6c8.2-8.2,12.6-19,12.6-30.7
						c0-8.2-2.2-16-6.5-22.9c-4.1-6.7-10.1-12.1-17-15.7c-0.4-0.2-0.6-0.8-0.3-1.2s0.8-0.6,1.2-0.3c7.3,3.7,13.4,9.4,17.7,16.3
						c4.5,7.2,6.8,15.3,6.8,23.8c0,12.1-4.7,23.4-13.2,31.9C319.2,118.9,307.7,123.6,295.7,123.6z"/>
				</g>
			</g>
			<g>
				<circle class="st2" cx="311.6" cy="37.2" r="1.1"/>
			</g>
		</g>
	</g>
	<g>
		<g>
			<g>
				<g>
					<path class="st0" d="M898.1,151.1v10.2h9.1v-10.2h3v24.1h-3v-11.2h-9.1v11.2h-3v-24.1H898.1L898.1,151.1z"/>
					<path class="st0" d="M917.3,159.5c1.6-1.8,3.4-2.7,5.4-2.7c2.1,0,3.9,0.9,5.5,2.7s2.2,4,2.2,6.5c0,2.6-0.8,4.7-2.2,6.5
						c-1.6,1.8-3.4,2.7-5.5,2.7c-2.1,0-3.9-0.9-5.4-2.7c-1.6-1.8-2.2-3.9-2.2-6.5C915.1,163.4,915.7,161.3,917.3,159.5z
						 M919.4,170.5c0.9,1.2,2,1.9,3.2,1.9c1.2,0,2.3-0.7,3.2-1.9c0.9-1.2,1.3-2.8,1.3-4.6c0-1.8-0.4-3.2-1.3-4.6
						c-0.9-1.2-2-1.9-3.2-1.9s-2.3,0.7-3.2,1.9c-0.9,1.2-1.3,2.8-1.3,4.6C918.1,167.8,918.5,169.3,919.4,170.5z"/>
					<path class="st0" d="M932.5,157.1h3l3.4,13.3l2.7-13.3h2.9l3.1,13.3l2.9-13.3h3l-4.1,18h-3.2l-3-13l-2.5,13h-3.2L932.5,157.1z"
						/>
				</g>
				<g>
					<path class="st2" d="M864.7,205.8l-1.5-1c2.3-3,4-6.7,4.8-11.3l1.7,0.2C869,198.4,867.3,202.4,864.7,205.8z M880.1,204.8
						l-1.5,1c-3-3.9-4.8-8.6-5.4-13.9H870v-1.7h4.7C875.2,196.1,877,201,880.1,204.8z"/>
					<path class="st2" d="M888.8,194.4h-1.7v3.6l1.5-0.6l0.7,1.5l-2,0.8v6.5h-2.9v-1.7h1.2v-4.3l-1.9,0.7l-0.6-1.6l2.5-0.9v-4.1
						h-2.5v-1.7h2.5v-3.2h1.7v3.2h1.7L888.8,194.4L888.8,194.4z M899.7,190.4v4.9c0,1.7-0.8,2.5-2.5,2.5h-0.8v-1.7h0.8
						c0.6,0,0.8-0.2,0.8-0.8V192h-3.7c0,3.4-1.2,5.5-3.6,6.5l-0.9-1.5c1.9-0.8,2.9-2.3,2.9-5h-2.9v-1.7L899.7,190.4L899.7,190.4z
						 M899.4,206.2h-8.6v-7.4h8.6V206.2z M897.7,204.6v-4h-5.3v4H897.7z"/>
					<path class="st2" d="M903.4,190h7.4v-1.1h1.7v1.1h7.4v2.7h-1.7v-1.5h-13.1v1.5h-1.7V190L903.4,190z M906.2,194.9h-2.9v-1.1h2.9
						v-1.9h10.6v1.9h2.9v1.1h-2.9v1.9h-10.6V194.9z M904,206.7l-0.2-1.3c1.5-0.1,2.8-0.4,4.3-0.9h-2.2v-6.7h11.4v6.7h-2.3
						c1.5,0.6,2.8,0.8,4.3,0.9l-0.2,1.3c-1.8-0.2-3.6-0.7-5.1-1.3l0.4-1h-5.6l0.4,1C907.6,206,905.9,206.5,904,206.7z M915.6,199.5
						v-0.8h-8.2v0.8H915.6z M915.6,201.4v-0.8h-8.2v0.8H915.6z M915.6,202.5h-8.2v0.8h8.2V202.5z M907.9,193.8h2.9V193h-2.9V193.8z
						 M910.7,195.7v-0.8h-2.9v0.8H910.7z M912.4,193v0.8h2.9V193H912.4z M915.2,194.9h-2.9v0.8h2.9V194.9z"/>
					<path class="st2" d="M923.7,194.7h8.2v6.7h-3.2v1.1h3.7v1.1c1-0.6,1.8-1.2,2.6-2c-0.3-1.3-0.6-3.2-0.4-5.6h-1.7v-1.7h1.7v-5.3
						h1.7v5.3h3.7v1.7h-3.7c0,1.5,0,2.8,0.2,4c0.7-0.8,1.2-1.8,1.8-2.9l1.6,0.8c-0.9,1.8-1.9,3.2-2.9,4.3c0.4,1.2,1,2,1.8,2.2V203
						h1.7v3.2h-0.8c-1.8,0-3-0.9-3.8-2.8c-1.2,1.1-2.6,2-4.3,2.8l-0.8-1.5c0.4-0.2,0.9-0.4,1.3-0.7h-3v2.2h-1.7v-2.2h-4.1v-1.5h4.1
						v-1.1H924v-6.8L923.7,194.7L923.7,194.7z M922.9,189.5h4.3v4.1h-4.3V189.5z M925.7,192.1V191h-1.1v1.1H925.7z M925.4,196.2v1.1
						h1.7v-1.1H925.4z M925.4,198.9v1.1h1.7v-1.1H925.4z M928.4,189.5h4.3v4.1h-4.3V189.5z M928.6,196.2v1.1h1.6v-1.1H928.6z
						 M928.6,198.9v1.1h1.6v-1.1H928.6z M931.2,192.1V191h-1.1v1.1H931.2z M936.7,191.1l1.3-0.8l1.2,2l-1.2,0.8L936.7,191.1z"/>
					<path class="st2" d="M948.1,204.7h1.5v-3.2h-3.7v0.3c0,2.1-0.6,3.6-1.8,4.5l-1.2-1.1c1-0.8,1.6-1.9,1.6-3.5v-6l-0.6,0.6
						l-1.1-1.2c1.6-1.6,2.7-3.5,3.5-5.8l1.6,0.2l-0.2,0.9h1.8l1.3,0.4l-1,2.8h1.6v12.6h-3v-1.5H948.1z M945.8,196.8h1.1v-1.7h-1.1
						V196.8z M945.8,199.9h1.1v-1.7h-1.1V199.9z M947.9,193.6l0.6-1.7h-1.8c-0.2,0.7-0.6,1.2-0.9,1.7H947.9z M949.5,195.2h-1.1v1.7
						h1.1V195.2z M949.5,198.2h-1.1v1.7h1.1V198.2z M959.2,190.1v3.4c0,1.6-0.8,2.3-2.3,2.3h-1.1v-1.6h1.1c0.4,0,0.7-0.2,0.7-0.7
						v-1.8h-1.9c-0.3,2.5-1.5,3.9-3.7,4.6l-0.6-1.5c1.5-0.4,2.3-1.5,2.6-3h-2.1v-1.6h7.4V190.1z M951.8,201.7h3.7v-2.1h-1.8
						c-0.2,0.4-0.4,0.9-0.8,1.2l-1.2-0.8c0.8-1,1.3-2.1,1.7-3.6l1.3,0.2c-0.1,0.4-0.2,0.9-0.3,1.2h1.1v-1.7h1.6v1.7h2.2v1.6H957v2.1
						h3v1.6h-3v3h-1.6v-3h-3.7V201.7z"/>
					<path class="st2" d="M972.1,189.5v2.9h7.4v1.7h-9c0,1.1,0,1.9,0,2.5h6.6v5.7c0,2.7-1.3,4-4,4h-0.8v-1.7h0.8
						c1.7,0,2.5-0.8,2.5-2.5v-4h-5.1c-0.3,1.7-0.9,3-1.6,4c-0.9,1.6-2.2,3-4,4l-1-1.3c1.5-0.9,2.8-2.1,3.8-3.8c1.1-2,1.6-4.4,1.3-7
						h-5.7v-1.7h7.4v-2.9L972.1,189.5L972.1,189.5z"/>
					<path class="st2" d="M843.6,211.8h2.9v-1.2h1.7v1.2h1.2v-1.7h1.7v1.7h1.7v-1.7h1.7v1.7h1.2v-1.2h1.7v1.2h2.9v1.7h-2.9v1
						c0,0.2,0.1,0.4,0.4,0.4h0.8v-0.7h1.2v2h-2c-1.3,0-2-0.6-2-1.8v-1h-1.2v2.9h-4.9v-2.9h-1.3c-0.3,2-1.5,3.1-3.4,3.6l-0.6-1.6
						c1.1-0.2,1.9-0.9,2.1-2h-2.7v-1.7L843.6,211.8L843.6,211.8z M859.9,220.8h-1.7v-1.7h-5.7v1.2h4.9v5.3h-3.2V224h1.7v-2h-3.2v5.3
						H851V222h-3.2v3.7H846v-5.3h4.9v-1.2h-5.7v1.7h-1.7v-3.2h16.3V220.8z M852.5,214.6v-1.2h-1.7v1.2H852.5z"/>
					<path class="st2" d="M869,210.6c-0.3,1.5-1,3-1.8,4.6v12.1h-1.6v-9.5c-0.3,0.6-0.8,1-1.2,1.5l-1.2-1.1c1.9-2,3.2-4.6,4.3-7.9
						L869,210.6z M872.7,210.9c-0.1,0.9-0.3,1.6-0.6,2.1h6.4l0.1-0.2l1.6,0.6l-1.5,3.8l-1.6-0.6l0.7-1.9h-2.7v12.6h-3.5v-1.7h1.8
						v-11.1h-2.1c-0.6,0.9-1.6,1.9-2.8,2.9l-1.1-1.2c2-1.5,3.2-3.4,3.7-5.7L872.7,210.9z M870.5,218.3l1.5,0.7l-2.7,6l-1.5-0.7
						L870.5,218.3z M878.8,224.9l-2.7-6l1.5-0.7l2.7,6L878.8,224.9z"/>
					<path class="st2" d="M892,210.2h1.7v3.7h5.7v1.7h-5.7c0.1,2.8,0.4,4.7,0.9,5.8c1-1.3,1.8-2.9,2.5-4.6l1.6,0.8
						c-0.9,2.3-1.9,4.1-3.2,5.6c0.7,1.2,1.8,2.1,3.1,2.5V224h1.7v3.2c-2.7,0-4.7-1-5.9-3c-1.3,1.2-3,2.2-4.9,3l-0.8-1.5
						c2-0.8,3.6-1.9,4.8-3.1c-0.8-1.7-1.2-4.1-1.3-7.3h-5.7v2h4.9v4c0,1.7-0.8,2.5-2.5,2.5H888v-1.7h0.8c0.6,0,0.8-0.2,0.8-0.8V219
						h-3.2c0,3-0.7,5.7-1.8,8.2l-1.5-0.8c1-2,1.6-4.6,1.7-7.7v-5h7.4L892,210.2L892,210.2z M894.8,211.8l1-1.2l1.9,1.6l-1,1.2
						L894.8,211.8z"/>
					<path class="st2" d="M907.9,221l2.9-0.8l0.4,1.6l-7.4,2l-0.4-1.6l2.9-0.8v-6.8h-2.5V213h6.5v1.7h-2.5L907.9,221L907.9,221z
						 M913.2,214.3v-3.7h1.7v3.7h4.9v4.9c0,1.6-0.1,3.4-0.3,5c-0.2,1.5-1,2.2-2.5,2.2h-1.7v-1.7h1.7c0.4,0,0.7-0.3,0.9-1
						c0.2-1.5,0.3-3.1,0.3-4.7v-3.2h-3.4c0,5.6-1.9,9.4-5.8,11.4l-0.9-1.5c3.4-1.8,5-5,5-10h-2.5v-1.7L913.2,214.3L913.2,214.3z"/>
					<path class="st2" d="M923.4,222.9H934V222h-0.4c-2.9,0-5.1-0.6-6.6-1.7l-3,1.8l-0.6-1.2l2-1.2v-2.9h-2v-1.3h3.7v2.8
						c1,1.7,3.2,2.5,6.5,2.5h6.2v1.3h-4v0.9h4v1.3h-4v3h-2.9v-1.3h1.2v-1.7h-6.6l2.1,1.2l-0.7,1.2l-2.1-1.2l0.7-1.2h-3.9
						L923.4,222.9L923.4,222.9z M924.6,211.2l2.5,1.5l-0.7,1.1l-2.5-1.5L924.6,211.2z M934.2,213.7h4.5v6.3h-9v-6.3h3.2l0.4-0.8
						h-4.8v-1.3h2.8l-0.4-0.9l1.2-0.7l0.9,1.6h2.6l0.9-1.6l1.2,0.7l-0.4,0.9h2.8v1.3h-5.3L934.2,213.7z M931.3,214.9v0.6h5.7v-0.6
						H931.3z M931.3,216.5v0.6h5.7v-0.6H931.3z M931.3,218.2v0.6h5.7v-0.6H931.3z"/>
					<path class="st2" d="M951.8,215c-0.1-0.8-0.2-1.6-0.3-2.3H947v-1.7h5.9c0.6,7.5,3,12.5,7.2,14.9l-0.9,1.5
						c-3.7-2-6-5.8-7.3-11.4c-1.2,5.4-3.9,9.2-8.2,11.4l-0.9-1.5c4-2.1,6.5-5.9,7.6-11.2L951.8,215z"/>
					<path class="st2" d="M967.3,210.8c-0.2,0.6-0.4,1-0.7,1.3h5.6v1.7h-6.5c-0.4,0.6-0.8,1.1-1.2,1.7h5.9l1.7,0.1l-0.2,2.1
						c1.6-2,2.6-4.5,3-7.5l1.5,0.2c-0.2,1-0.4,2.1-0.8,3.5h4.4v1.5h-0.9c-0.1,3-0.8,5.5-1.9,7.5c0.8,1.2,1.8,2.3,3.1,3.4l-1,1.2
						c-1.2-0.9-2.2-1.9-3-3c-0.8,1.1-1.9,2.1-3.4,3l-0.9-1.2c1.5-0.9,2.6-2,3.5-3.2c-0.7-1.3-1.2-3.1-1.7-5
						c-0.2,0.4-0.6,0.8-0.9,1.1l-1.1-0.9l-0.1,1.1h1.1v1.7h-1.3l-0.2,2h1.1v1.7h-1.2l-0.2,2.9h-2.8v-1.5h1.3l0.1-1.5h-4.5l-0.1,1.2
						l-1.7-0.1l0.4-4.8h-1.1v-1.7h1.2l0.3-3.5c-0.1,0.2-0.3,0.3-0.4,0.4l-1.3-1.1c1.2-1.1,2.3-2.7,3.4-4.8L967.3,210.8z
						 M966.8,220.8h-1.3l-0.2,2h1.3L966.8,220.8z M967.1,217.1h-1.3l-0.1,2h1.3L967.1,217.1z M968.4,220.8l-0.2,2h1.5l0.2-2H968.4z
						 M968.7,217.1l-0.2,2h1.5l0.2-2H968.7z M974.9,215.3c0.1,2.3,0.6,4.3,1.3,5.8c0.7-1.6,1.1-3.5,1.3-5.8H974.9z"/>
					<path class="st2" d="M988,215.1h-1.6v4.4l1.1-0.3l0.7,1.5l-1.7,0.6v6h-2.9v-1.7h1.2v-3.7l-1.6,0.6l-0.6-1.6l2.1-0.8v-4.9h-2
						v-1.7h2v-3.2h1.7v3.2h1.7v1.7H988z M989.7,219.3h3.7v-1.1h-5.3v-1.5h5.3v-1.1h-4v-1.5h4v-1.1h-4.9v-1.3h4.9v-1.5h1.7v1.5h4.5
						v1.5h-4.5v1.1h3.7v2.6h1.2v1.5h-1.2v2.6h-3.7v1.2h3.7v1.5h-3.7v2.3c0.6,0.1,1,0.1,1.7,0.1h3.2v1.5h-3.2c-2.9,0-5-0.7-6.4-2.1
						c-0.4,0.9-1.1,1.6-1.8,2.1l-1.1-1.1c1.3-1,2.1-2.6,2.5-4.7l1.6,0.1c-0.1,0.6-0.2,1.2-0.3,1.9c0.7,0.8,1.5,1.5,2.5,1.8V221h-3.7
						v-1.7L989.7,219.3L989.7,219.3z M997,216.8v-1.1h-2v1.1H997z M997,219.3v-1.1h-2v1.1H997z"/>
				</g>
			</g>
			<g>
				<path class="st1" d="M897.1,150v10.2h9.1V150h3V174h-3v-11.2h-9.1V174h-3V150H897.1L897.1,150z"/>
				<path class="st1" d="M916.2,158.4c1.6-1.8,3.4-2.7,5.4-2.7c2.1,0,3.9,0.9,5.5,2.7s2.2,4,2.2,6.5c0,2.6-0.8,4.7-2.2,6.5
					c-1.6,1.8-3.4,2.7-5.5,2.7s-3.9-0.9-5.4-2.7c-1.6-1.8-2.2-3.9-2.2-6.5C914,162.4,914.7,160.3,916.2,158.4z M918.4,169.4
					c0.9,1.2,2,1.9,3.2,1.9c1.2,0,2.3-0.7,3.2-1.9c0.9-1.2,1.3-2.8,1.3-4.6c0-1.8-0.4-3.2-1.3-4.6c-0.9-1.2-2-1.9-3.2-1.9
					s-2.3,0.7-3.2,1.9c-0.9,1.2-1.3,2.8-1.3,4.6C917.1,166.7,917.5,168.2,918.4,169.4z"/>
				<path class="st1" d="M931.4,156h3l3.4,13.3l2.7-13.3h2.9l3.1,13.3l2.9-13.3h3l-4.1,18h-3.2l-3-13l-2.5,13h-3.2L931.4,156z"/>
			</g>
		</g>
		<g>
			<g>
				<g>
					<path class="st3" d="M955.7,48.4C959,54,961,60.6,961,67.6c0,19.8-15.2,36-34.6,37.6v17.3c22.9-1.6,41.1-20.7,41.1-44.1
						C967.6,66.8,963.1,56.3,955.7,48.4z"/>
					<path class="st3" d="M885.5,67.6c0-7,1.9-13.7,5.3-19.2c-7.3,7.9-11.7,18.5-11.7,30.1c0,23.4,18.1,42.5,41.1,44.1v-17.3
						C900.9,103.6,885.5,87.4,885.5,67.6z"/>
					<path class="st6" d="M920.2,103.9v-7.7c-14.3-1.6-25.5-13.8-25.5-28.4c0-15.8,12.9-28.6,28.6-28.6S952,51.9,952,67.7
						c0,14.8-11.2,27-25.5,28.4v7.7c18.6-1.6,33.2-17.2,33.2-36.1c0-9.3-3.5-17.8-9.3-24.2c-7.5-5.8-16.9-9.3-27.1-9.3
						c-10.2,0-19.6,3.5-27.1,9.3c-5.7,6.4-9.3,14.9-9.3,24.2C887,86.6,901.7,102.3,920.2,103.9z"/>
					<path class="st4" d="M950.5,67.6c0-15-12.2-27.2-27.2-27.2c-15,0-27.2,12.2-27.2,27.2c0,14,10.5,25.5,24.1,27.1v-4.1h-7
						c-0.2,0-0.4-0.1-0.7-0.3c-0.1-0.2-0.1-0.4,0-0.7l2.3-4.1c-6.6-3.1-11.2-9.8-11.2-17.7c0-10.7,8.7-19.6,19.6-19.6
						c10.7,0,19.6,8.7,19.6,19.6c0,7.7-4.6,14.5-11.2,17.7l2.3,4.1c0.1,0.2,0.1,0.4,0,0.7c-0.1,0.2-0.3,0.3-0.7,0.3h-7v4.1
						C939.9,93.1,950.5,81.6,950.5,67.6z"/>
					<path class="st6" d="M941.4,67.6c0-10-8.2-18.1-18.1-18.1s-18.1,8.2-18.1,18.1c0,7.3,4.3,13.5,10.4,16.4l4.1-7.2
						c-3.7-1.5-6.4-5-6.4-9.2c0-5.5,4.5-9.8,9.8-9.8c5.5,0,9.8,4.5,9.8,9.8c0,4.1-2.7,7.8-6.4,9.2l4.1,7.2
						C937.1,81.1,941.4,74.9,941.4,67.6z"/>
					<path class="st4" d="M931.7,67.6c0-4.7-3.8-8.4-8.4-8.4c-4.7,0-8.4,3.8-8.4,8.4c0,3.7,2.3,6.8,5.6,7.9l2.2-3.8
						c0.1-0.2,0.3-0.3,0.7-0.3c0.2,0,0.4,0.1,0.7,0.3l2.2,3.8C929.4,74.4,931.7,71.3,931.7,67.6z M927.4,70.7c0.2,0.2,0.2,0.8,0,1
						c-0.1,0.1-0.3,0.2-0.6,0.2c-0.2,0-0.3-0.1-0.6-0.2l-3-3l-3,3c-0.1,0.1-0.3,0.2-0.6,0.2c-0.2,0-0.3-0.1-0.6-0.2
						c-0.2-0.2-0.2-0.8,0-1l3-3l-3-3c-0.2-0.2-0.2-0.8,0-1c0.2-0.2,0.8-0.2,1,0l3,3l3-3c0.2-0.2,0.8-0.2,1,0c0.2,0.2,0.2,0.8,0,1
						l-3,3L927.4,70.7z"/>
					<path class="st6" d="M924.9,89.8c0-0.4,0.3-0.7,0.7-0.7h6.6l-9-15.6l-9,15.6h6.6c0.4,0,0.7,0.3,0.7,0.7v32.9c0.6,0,1.1,0,1.7,0
						c0.6,0,1.1,0,1.7,0V89.8z"/>
				</g>
			</g>
			<g>
				<path class="st2" d="M920.2,105.2v-1.5c-18.6-1.6-33.2-17.2-33.2-36.1c0-9.3,3.5-17.8,9.3-24.2c-1.9,1.5-3.7,3.1-5.4,4.9
					c-3.4,5.6-5.3,12.2-5.3,19.2C885.5,87.4,900.9,103.6,920.2,105.2z"/>
				<path class="st2" d="M926.4,103.9v1.5c19.4-1.6,34.6-17.8,34.6-37.6c0-7-1.9-13.7-5.3-19.2c-1.7-1.8-3.5-3.5-5.4-4.9
					c5.7,6.4,9.3,14.9,9.3,24.2C959.6,86.6,945,102.3,926.4,103.9z"/>
				<path class="st2" d="M951.9,67.6c0-15.8-12.9-28.6-28.6-28.6c-15.8,0-28.6,12.9-28.6,28.6c0,14.8,11.2,27,25.5,28.4v-1.5
					c-13.5-1.6-24.1-13.1-24.1-27.1c0-15,12.2-27.2,27.2-27.2c15,0,27.2,12.2,27.2,27.2c0,14-10.5,25.5-24.1,27.1V96
					C940.7,94.6,951.9,82.4,951.9,67.6z"/>
				<path class="st2" d="M942.8,67.6c0-10.7-8.7-19.6-19.6-19.6c-10.7,0-19.6,8.7-19.6,19.6c0,7.7,4.6,14.5,11.2,17.7l0.7-1.2
					c-6.2-2.9-10.4-9.2-10.4-16.4c0-10,8.2-18.1,18.1-18.1s18.1,8.2,18.1,18.1c0,7.3-4.3,13.5-10.4,16.4l0.7,1.2
					C938.3,82.2,942.8,75.4,942.8,67.6z"/>
				<path class="st2" d="M933.2,67.6c0-5.5-4.5-9.8-9.8-9.8c-5.5,0-9.8,4.5-9.8,9.8c0,4.1,2.7,7.8,6.4,9.2l0.7-1.2
					c-3.2-1.1-5.6-4.3-5.6-7.9c0-4.7,3.8-8.4,8.4-8.4c4.7,0,8.4,3.8,8.4,8.4c0,3.7-2.3,6.8-5.6,7.9l0.7,1.2
					C930.5,75.4,933.2,71.9,933.2,67.6z"/>
				<path class="st2" d="M926.4,103.9v-7.7v-1.5v-4.1h7c0.2,0,0.4-0.1,0.7-0.3c0.1-0.2,0.1-0.4,0-0.7l-2.3-4.1l-0.7-1.2l-4.1-7.2
					l-0.7-1.2L924,72c-0.1-0.2-0.3-0.3-0.7-0.3c-0.2,0-0.4,0.1-0.7,0.3l-2.2,3.8l-0.7,1.2l-4.1,7.2l-0.8,1.1l-2.3,4.1
					c-0.1,0.2-0.1,0.4,0,0.7c0.1,0.2,0.3,0.3,0.7,0.3h7v4.1V96v7.7v1.5v17.3c0.4,0,0.9,0.1,1.5,0.1V89.8c0-0.4-0.3-0.7-0.7-0.7h-6.6
					l9-15.6l9,15.6h-6.6c-0.4,0-0.7,0.3-0.7,0.7v32.9c0.4,0,1,0,1.5-0.1v-17.3L926.4,103.9L926.4,103.9z"/>
				<path class="st2" d="M924.3,67.6l3-3c0.2-0.2,0.2-0.8,0-1c-0.2-0.2-0.8-0.2-1,0l-3,3l-3-3c-0.2-0.2-0.8-0.2-1,0
					c-0.2,0.2-0.2,0.8,0,1l3,3l-3,3c-0.2,0.2-0.2,0.8,0,1c0.1,0.1,0.3,0.2,0.6,0.2c0.2,0,0.3-0.1,0.6-0.2l3-3l3,3
					c0.1,0.1,0.3,0.2,0.6,0.2s0.3-0.1,0.6-0.2c0.2-0.2,0.2-0.8,0-1L924.3,67.6z"/>
				<g>
					<g>
						<g>
							<path class="st2" d="M934.9,36.7c-0.1,0-0.1,0-0.2,0c-1.5-0.4-3-0.7-4.5-1c-0.4-0.1-0.8-0.6-0.8-1c0.1-0.4,0.6-0.8,1-0.8
								c1.6,0.2,3.1,0.6,4.7,1c0.4,0.1,0.8,0.7,0.7,1.1C935.7,36.4,935.3,36.7,934.9,36.7z"/>
						</g>
						<g>
							<path class="st2" d="M923.2,123.6c-12.1,0-23.4-4.7-31.9-13.2s-13.2-19.8-13.2-31.9s4.7-23.4,13.2-31.9s19.8-13.2,31.9-13.2
								c0.4,0,0.9,0.4,0.9,0.9c0,0.4-0.4,0.9-0.9,0.9c-11.5,0-22.5,4.5-30.7,12.6c-8.2,8.2-12.6,19-12.6,30.7
								c0,11.5,4.5,22.5,12.6,30.7c8.2,8.2,19,12.6,30.7,12.6c11.5,0,22.5-4.5,30.7-12.6c8.2-8.2,12.6-19,12.6-30.7
								c0-8.2-2.2-16-6.5-22.9c-4.1-6.7-10.1-12.1-17-15.7c-0.4-0.2-0.6-0.8-0.3-1.2c0.2-0.4,0.8-0.6,1.2-0.3
								c7.3,3.7,13.4,9.4,17.7,16.3c4.5,7.2,6.8,15.3,6.8,23.8c0,12.1-4.7,23.4-13.2,31.9C946.6,118.9,935.3,123.6,923.2,123.6z"/>
						</g>
					</g>
					<g>
						<circle class="st2" cx="939.2" cy="37.2" r="1.1"/>
					</g>
				</g>
			</g>
		</g>
	</g>
	<g>
		<g>
			<g>
				<g>
					<path class="st2" d="M0.9,195.8c1.3-0.6,2.8-1.5,4.3-2.6s2.6-2.6,3.6-4.3l1.6,0.8c-0.1,0.2-0.2,0.4-0.3,0.6
						c0.8,1.1,1.8,2.1,3,3c1.2,0.9,2.6,1.7,4.4,2.3l-0.8,1.5c-0.9-0.3-1.7-0.8-2.5-1.1v1.2H9.8v2.9h4.5v1.7H9.8v2.9h6.5v1.7H1.7
						v-1.7h6.5v-2.9H3.7v-1.7h4.5v-2.9h-4v-1.1c-0.8,0.4-1.6,0.9-2.5,1.2L0.9,195.8z M8.8,191.9c-0.9,1.2-1.9,2.2-3.1,3.1
						c-0.2,0.2-0.6,0.4-0.9,0.7h8.4c-0.4-0.2-0.9-0.6-1.2-0.8C10.7,193.9,9.6,192.9,8.8,191.9z"/>
					<path class="st2" d="M26.5,193.1h-2v2.9h1.7v1.7h-1.7v3.8l1.6-0.4l0.4,1.5l4.5-2.8v-5.3h-4v-1.7h4v-3.2h1.7v3.2h4.5v1.7h-4.5
						v0.9c0.2,1,0.6,1.8,0.9,2.3l2.3-2l1,1.2l-2.7,2.2c0.9,1.5,1.9,2.6,3.4,3.6l-1,1.5c-1.6-1.1-2.9-2.6-3.9-4.4v6.5h-3.2v-1.7h1.7
						v-3l-3.7,2.2l-0.8-1.3l0,0l-5.7,1.5l-0.4-1.6l2.5-0.6v-4.3h-1.7v-1.6h1.7v-2.9h-2v-1.6h5.7L26.5,193.1L26.5,193.1z M28.1,196.1
						l1.9,2.1l-1.2,1.1l-1.9-2.1L28.1,196.1z M33.8,190.7l1.1-1.1l1.8,1.8l-1.1,1.1L33.8,190.7z"/>
					<path class="st2" d="M40.7,196.3c1.3-0.6,2.8-1.5,4.3-2.6s2.6-2.6,3.6-4.3l1.6,0.8c-0.1,0.2-0.2,0.4-0.3,0.6
						c0.8,1.1,1.8,2.1,3,3c1.2,0.9,2.6,1.7,4.4,2.3l-0.8,1.5c-1.7-0.7-3.1-1.6-4.4-2.5c-1.2-0.9-2.2-1.9-3.1-2.9
						c-0.9,1.2-1.9,2.2-3.1,3.1c-1.1,0.9-2.5,1.7-4.1,2.3L40.7,196.3z M50.1,194.8v3.7h4.5v1.7h-4.5v4.5h6.5v1.7H41.2v-1.7h2.5v-6.2
						h1.7v6.2h3.2v-9.8H50.1z"/>
					<path class="st2" d="M68.1,189.1v3.2h1.3v-3.2h1.5v3.2h1.2l1.5-2.6l1.3,0.8l-1,1.8h3v1.5h-5l-0.3,1.7h3.8v1.5h-5.7v0.9h4.8v1.5
						h-4.8v0.9H77v1.5h-5c1.6,1,3.4,1.9,5.4,2.6l-0.4,1.3c-2.7-0.8-5-2-7.2-3.5v3.9l0,0H68l0,0v-3.9c-2,1.5-4.4,2.6-7.2,3.5
						l-0.4-1.3c2-0.7,3.9-1.6,5.5-2.6h-5.3v-1.5H68v-0.8h-4.9V198H68v-0.9h-5.8v-1.5H66l-0.3-1.7h-5v-1.5h3.1l-1-1.8l1.3-0.8
						l1.5,2.6h1.2v-3.2h1.3V189.1z M69.9,195.5l0.3-1.7h-3l0.3,1.7H69.9z"/>
					<path class="st2" d="M84.7,189.9l-2.5,4.4l1.3,0.8l2-3.7l1.2,0.8l-3,5.1h1.6l-0.3-0.9l1.3-0.4l1.2,3.5l-1.5,0.6l-0.3-0.9h-1
						v7.3h-1.7v-7.3h-3v-1.7h2l0.6-1l-2.6-1.5l3.2-5.6L84.7,189.9z M81,200.1l1.5,0.2l-0.8,4.7l-1.5-0.2L81,200.1z M85.4,200.9
						l1.5-0.3l0.8,3l-1.5,0.3L85.4,200.9z M95.6,196.8c-0.9-1.6-1.6-3.5-2-5.7h-1.7v-1.7h3c0.6,3.1,1.6,5.7,3,7.7l-1.3,1
						c-0.2-0.3-0.4-0.7-0.7-1v6.6c0,1.7-0.8,2.5-2.5,2.5h-0.8v-1.7h0.8c0.6,0,0.8-0.2,0.8-0.8v-5.3h-2.1c-0.3,3.6-1.8,6.2-4.4,7.7
						l-1-1.5c2.1-1.3,3.5-3.4,3.7-6.4h-1.1v-1.7h6.3C95.6,196.7,95.6,196.8,95.6,196.8z M91.1,191.1c-0.4,2.6-1.3,4.7-2.6,6.6
						l-1.5-0.9c1.1-1.7,2-3.8,2.5-6.2L91.1,191.1z"/>
					<path class="st2" d="M104.6,189.9l-2.5,4.4l1.3,0.8l2-3.7l1.2,0.8l-3,5.1h1.6l-0.3-0.9l1.3-0.4l1.2,3.5l-1.5,0.6l-0.3-0.9h-1.3
						v7.3h-1.7v-7.3h-3v-1.7h2l0.6-1l-2.6-1.5l3.2-5.6L104.6,189.9z M100.9,200.1l1.5,0.2l-0.8,4.7l-1.5-0.2L100.9,200.1z
						 M105.4,200.9l1.5-0.3l0.8,3l-1.5,0.3L105.4,200.9z M115.5,196.8c-0.9-1.6-1.6-3.5-2-5.7h-1.7v-1.7h3c0.6,3.1,1.6,5.7,3,7.7
						l-1.3,1c-0.2-0.3-0.4-0.7-0.7-1v6.6c0,1.7-0.8,2.5-2.5,2.5h-0.8v-1.7h0.8c0.6,0,0.8-0.2,0.8-0.8v-5.3H112
						c-0.3,3.6-1.8,6.2-4.4,7.7l-1-1.5c2.1-1.3,3.5-3.4,3.7-6.4h-1.1v-1.7h6.3C115.5,196.7,115.5,196.8,115.5,196.8z M111.1,191.1
						c-0.4,2.6-1.3,4.7-2.6,6.6l-1.5-0.9c1.1-1.7,2-3.8,2.5-6.2L111.1,191.1z"/>
					<path class="st2" d="M120.5,201.9h10.6V201h-0.4c-2.9,0-5.1-0.6-6.6-1.7l-3,1.8l-0.6-1.2l2-1.2v-2.9h-2v-1.3h3.7v2.8
						c1,1.7,3.2,2.5,6.5,2.5h6.2v1.3h-4v0.9h4v1.3h-4v3h-2.9v-1.3h1.2v-1.7h-6.6l2.1,1.2l-0.7,1.2l-2.1-1.2l0.7-1.2h-3.9
						L120.5,201.9L120.5,201.9z M121.7,190l2.5,1.5l-0.7,1.1l-2.5-1.5L121.7,190z M131.4,192.7h4.5v6.3h-9v-6.3h3.2l0.4-0.8h-4.8
						v-1.3h2.8l-0.4-0.9l1.2-0.7l0.9,1.6h2.6l0.9-1.6l1.2,0.7l-0.4,0.9h2.8v1.3h-5.5L131.4,192.7z M128.4,193.8v0.6h5.7v-0.6H128.4z
						 M128.4,195.5v0.6h5.7v-0.6H128.4z M128.4,197.1v0.6h5.7v-0.6H128.4z"/>
					<path class="st2" d="M148.9,193.9c-0.1-0.8-0.2-1.6-0.3-2.3h-4.5v-1.7h5.9c0.6,7.5,3,12.5,7.2,14.9l-0.9,1.5
						c-3.6-2-6-5.8-7.3-11.4c-1.2,5.4-3.9,9.2-8.2,11.4l-0.9-1.5c4-2.1,6.5-5.9,7.6-11.2L148.9,193.9z"/>
					<path class="st2" d="M4.9,210.8c-0.2,0.6-0.4,1-0.7,1.3h5.6v1.7H3.4c-0.4,0.6-0.8,1.1-1.2,1.7h5.9l1.7,0.1l-0.2,2.1
						c1.6-2,2.6-4.5,3-7.5l1.5,0.2c-0.2,1-0.4,2.1-0.8,3.5h4.4v1.5h-0.9c-0.1,3-0.8,5.5-1.9,7.5c0.8,1.2,1.8,2.3,3.1,3.4l-1,1.2
						c-1.2-0.9-2.2-1.9-3-3c-0.8,1.1-1.9,2.1-3.4,3l-0.9-1.2c1.5-0.9,2.6-2,3.5-3.2c-0.7-1.3-1.2-3.1-1.7-5
						c-0.2,0.4-0.6,0.8-0.9,1.1l-1.1-0.9l-0.1,1.1h1.1v1.7H9.1l-0.2,2H10v1.7H8.7l-0.2,2.9H5.7v-1.5H7l0.1-1.5H2.7l-0.1,1.2
						l-1.7-0.1l0.4-4.8H0.2v-1.7h1.2l0.3-3.5c-0.1,0.2-0.3,0.3-0.4,0.4L0,215.2c1.2-1.1,2.3-2.7,3.4-4.8L4.9,210.8z M4.4,220.8H3
						l-0.2,2h1.5L4.4,220.8z M4.7,217.1H3.4l-0.1,2h1.3L4.7,217.1z M6,220.8l-0.2,2h1.5l0.2-2H6z M6.4,217.1l-0.1,2h1.3l0.1-2H6.4z
						 M12.6,215.3c0.1,2.3,0.6,4.3,1.3,5.8c0.7-1.6,1.1-3.5,1.3-5.8H12.6z"/>
					<path class="st2" d="M25.7,215.1h-1.7v4.4l1.1-0.3l0.7,1.5l-1.7,0.6v6h-2.9v-1.7h1.2v-3.7l-1.6,0.6l-0.6-1.6l2.1-0.8v-4.9h-2
						v-1.7h2v-3.2h1.7v3.2h1.7L25.7,215.1L25.7,215.1z M27.3,219.3H31v-1.1h-5.3v-1.5H31v-1.1h-4v-1.5h4v-1.1h-4.9v-1.3H31v-1.5h1.7
						v1.5h4.5v1.5h-4.5v1.1h3.7v2.6h1.2v1.5h-1.2v2.6h-3.7v1.2h3.7v1.5h-3.7v2.3c0.6,0.1,1,0.1,1.7,0.1h3.2v1.5h-3.2
						c-2.9,0-5-0.7-6.4-2.1c-0.4,0.9-1.1,1.6-1.8,2.1l-1.1-1.1c1.3-1,2.1-2.6,2.5-4.7l1.6,0.1c-0.1,0.6-0.2,1.2-0.3,1.9
						c0.7,0.8,1.5,1.5,2.5,1.8V221h-3.7v-1.7L27.3,219.3L27.3,219.3z M34.7,216.8v-1.1h-2v1.1H34.7z M34.7,219.3v-1.1h-2v1.1H34.7z"
						/>
					<path class="st2" d="M45.3,211.1l-0.8,2.8h2.7v11.9h-6v-11.9H43l0.9-3.2L45.3,211.1z M45.7,219v-3.5h-2.9v3.5H45.7z M45.7,224
						v-3.5h-2.9v3.5H45.7z M51.8,210.8c-0.2,1.1-0.4,2.1-0.7,3h5.5v9c0,3-1.5,4.5-4.5,4.5h-0.4v-1.7h0.4c1.9,0,2.9-1,2.9-2.9v-7.4
						h-4.5c-0.4,1.1-1,2.2-1.7,3l-1.5-0.9c1.5-1.9,2.3-4.3,2.8-7L51.8,210.8z M50,219.4l1.1-1.1l2.3,2.3l-1.1,1.1L50,219.4z"/>
					<path class="st2" d="M64.8,210.9l-0.7,2.9h3v1.7c-0.1,2.7-0.4,4.9-1.2,6.5l1.7,1l-0.9,1.3l-1.6-1l-0.1,0.2
						c-0.9,1.2-1.9,2.2-3.1,3.2l-1.1-1.2c1.2-0.9,2.2-1.9,2.9-3v-0.1l-1.2-0.7l-0.1,0.6l-1.6-0.3l1.5-6.5h-1.9v-1.7h2.2l0.7-3.2
						L64.8,210.9z M63.8,215.5l-1,4.6l1.8,1c0.7-1.6,1-3.5,1-5.7h-1.8V215.5z M75.6,211.1l1.3,0.9l-3.6,4.9v1.6h4v1.7h-4v7.4h-3.2
						v-1.7h1.7v-5.7h-4v-1.7h4v-3.4H73l1.7-2.5h-6v-1.7h7V211.1z"/>
					<path class="st2" d="M85.8,224.5c-0.2-0.3-0.4-0.7-0.6-1.1c-0.2,0.4-0.6,0.9-1,1.3l-1.1-0.8c-0.2,1.1-0.8,2.1-1.6,3.1l-1.3-1
						c1-1,1.5-2.1,1.5-3.6v-9.6h5.9v-2.9h1.7v1h5.3v1.2h-5.3v0.7h6.2v-0.1L97,213l-0.4,2.3l-1.7-0.2l0.2-0.9h-6.7v0.8h5.3v1.3h-5.3
						v0.2c0,0.4,0.2,0.6,0.8,0.6h4.9v-0.7h1.7v2h-6.5c-1.7,0-2.5-0.7-2.5-1.9v-0.2h-2.9V215h2.9v-0.8h-3.5v8.1c0,0.4,0,0.9-0.1,1.3
						c1.2-1.5,2-3.1,2.3-5.1l1.6,0.2l-0.1,0.8h1.3l1.5,0.1c-0.2,1.9-0.8,3.6-1.8,4.8c1,0.9,2.8,1.3,5.3,1.3h4.3v1.3h-4.3
						c-2.9,0-5-0.6-6.3-1.7c-0.7,0.6-1.6,1.2-2.9,1.7l-0.8-1.2C84.4,225.7,85.3,225.1,85.8,224.5z M86.5,220.9l-0.2,0.7
						c0.1,0.7,0.3,1.2,0.7,1.7c0.6-0.9,0.9-1.7,1-2.3H86.5z M90.5,222.5v-3.4H95v3.9c0,0.3,0.1,0.4,0.4,0.4h0.7v-0.6h1.1v2h-1.8
						c-1.3,0-1.9-0.7-1.9-1.9v-2.6h-1.5v1.9c0,1.2-0.6,2.3-1.6,3.2l-1.2-0.9C90.2,224.1,90.5,223.4,90.5,222.5z"/>
					<path class="st2" d="M106,211.1c-0.3,1.5-1,3-1.8,4.6v11.7h-1.7v-9.1c-0.3,0.6-0.8,1-1.2,1.5l-1.2-1.1c1.9-2,3.2-4.6,4.3-7.9
						L106,211.1z M117.3,213.4h-1.7v13.9h-3.2v-1.7h1.7v-12.2h-8.2v-1.7h11.4V213.4z M112,222.8h-5.7v-7.4h5.7V222.8z M110.3,221.2
						v-4h-2.5v4H110.3z"/>
					<path class="st2" d="M121,212.6h4.8c0.2-0.7,0.3-1.3,0.4-2.1l1.7,0.1c-0.1,0.7-0.2,1.3-0.3,1.9h9.3v1.7H127
						c-0.6,1.8-1.5,3.4-2.5,4.7v8.4h-1.7v-6.6c-0.6,0.6-1.2,1.1-2,1.6l-1.1-1.3c2.5-1.6,4.3-3.8,5.4-6.7h-4.4v-1.6H121z
						 M126.2,225.7h4.5v-5.3H127v-1.7h3.7v-3.2h1.7v3.2h3.7v1.7h-3.7v5.3h4.5v1.7h-10.6V225.7z"/>
					<path class="st2" d="M144,216.3c0-1.2,0.4-2.3,1.3-3.1c0.9-0.9,1.9-1.3,3.1-1.3s2.3,0.4,3.1,1.3c0.9,0.9,1.3,1.9,1.3,3.1
						c0,0.9-0.2,1.6-0.8,2.2c-0.6,0.6-1.1,0.9-1.8,0.9c-0.3,0-0.6,0.1-0.8,0.4s-0.3,0.7-0.3,1v1.9h-1.6v-1.9c0-0.9,0.2-1.6,0.8-2.2
						c0.6-0.6,1.1-0.9,1.9-0.9c0.3,0,0.6-0.1,0.8-0.4s0.3-0.7,0.3-1c0-0.8-0.3-1.5-0.9-2.1c-0.6-0.6-1.3-0.9-2.1-0.9
						s-1.5,0.3-2.1,0.9c-0.6,0.6-0.9,1.2-0.9,2v1.7h-1.6L144,216.3L144,216.3z M147.7,224.9h1.7v1.7h-1.7V224.9z"/>
				</g>
			</g>
			<g>
				<g>
					<path class="st0" d="M67,168.2l3.6-17.1h3.1l-5.4,24.1h-3.2l-2.2-17.2l-2.2,17.2h-3.2L52,151.1h3.1l3.7,17.2l2.5-17.2h3.4
						L67,168.2z"/>
					<path class="st0" d="M78,151.1h3v7.7l0.2-0.3c1.1-1.2,2.6-1.8,4.3-1.8s3,0.6,4.3,1.8c1.2,1.2,1.8,2.6,1.8,4.3v12.4h-3v-12.4
						c0-0.9-0.3-1.6-1.1-2.2c-0.8-0.7-1.6-1-2.7-1c-1,0-1.9,0.3-2.7,1s-1.1,1.3-1.1,2.2v12.4h-3L78,151.1L78,151.1z"/>
					<path class="st0" d="M95.1,177.7h1.5c1.5,0,2.3-0.6,2.8-1.8l0.9-2.5l-5.9-16.3h3.1l4.4,12l4.4-12h3.1l-6.8,18.8
						c-1.1,3-3,4.5-5.9,4.5h-1.5C95.1,180.4,95.1,177.7,95.1,177.7z"/>
				</g>
				<g>
					<path class="st1" d="M66,167.2l3.6-17.1h3.1l-5.4,24.1h-3.2l-2.2-17.2l-2.2,17.2h-3.2L51,150.1h3.1l3.7,17.2l2.5-17.2h3.2
						L66,167.2z"/>
					<path class="st1" d="M77,150h3v7.7l0.2-0.3c1.1-1.2,2.6-1.8,4.3-1.8s3,0.6,4.3,1.8s1.8,2.6,1.8,4.3V174h-3v-12.4
						c0-0.9-0.3-1.6-1.1-2.2c-0.8-0.7-1.6-1-2.7-1c-1,0-1.9,0.3-2.7,1s-1.1,1.3-1.1,2.2V174H77V150z"/>
					<path class="st1" d="M94.1,176.6h1.5c1.5,0,2.3-0.6,2.8-1.8l0.9-2.5L93.3,156h3.1l4.4,12l4.4-12h3.1l-6.7,18.8
						c-1.1,3-3,4.5-5.9,4.5h-1.5L94.1,176.6L94.1,176.6z"/>
				</g>
			</g>
		</g>
		<g>
			<g>
				<g>
					<g>
						<g>
							<path class="st3" d="M85.7,34.3c-24.4,0-44.2,19.8-44.2,44.2c0,19.2,12.3,35.7,29.5,41.7v-0.4v-4.6v-3.9
								c0-0.4,0.3-0.7,0.7-0.7h0.2c-0.8-3.6-2.7-9.7-6.7-16.4l0,0c-2.5-3.8-3.7-8.3-3.7-12.9c0-13.3,10.9-24.1,24.1-24.1
								c13.3,0,24.1,10.9,24.1,24.1c0,4.9-1.5,9.6-4.3,13.7c-3.7,6.5-5.5,12.2-6.3,15.6h0.3c0.4,0,0.7,0.3,0.7,0.7v3.9v4.6v0.4
								c17.2-6,29.5-22.5,29.5-41.7C130,54.1,110.2,34.3,85.7,34.3z M70.8,59.3c-0.1,0.2-0.3,0.3-0.7,0.3c-0.1,0-0.2,0-0.3-0.1
								L65.3,57c-0.3-0.2-0.4-0.7-0.2-1c0.2-0.3,0.7-0.4,1-0.2l4.5,2.6C70.9,58.5,71,59,70.8,59.3z M77.4,54.6
								c-0.1,0.1-0.2,0.1-0.3,0.1c-0.2,0-0.4-0.1-0.7-0.3l-2.6-4.5c-0.2-0.3-0.1-0.8,0.2-1c0.3-0.2,0.8-0.1,1,0.2l2.6,4.5
								C77.9,54,77.8,54.4,77.4,54.6z M86.5,52.2c0,0.4-0.3,0.7-0.7,0.7c-0.4,0-0.7-0.3-0.7-0.7V47c0-0.4,0.3-0.7,0.7-0.7
								c0.4,0,0.7,0.3,0.7,0.7V52.2z M97.6,49.8L95,54.3c-0.1,0.2-0.3,0.3-0.7,0.3c-0.1,0-0.2,0-0.3-0.1c-0.3-0.2-0.4-0.7-0.2-1
								l2.6-4.5c0.2-0.3,0.7-0.4,1-0.2C97.7,49,97.8,49.5,97.6,49.8z M106.1,57l-4.5,2.6c-0.1,0.1-0.2,0.1-0.3,0.1
								c-0.2,0-0.4-0.1-0.7-0.3c-0.2-0.3-0.1-0.8,0.2-1l4.5-2.6c0.3-0.2,0.8-0.1,1,0.2C106.5,56.4,106.4,56.9,106.1,57z"/>
							<rect x="79.7" y="86.5" class="st4" width="12.1" height="23.9"/>
							<path class="st4" d="M76.2,86.5c-2,0-3.7-1.7-3.7-3.7c0-2,1.7-3.7,3.7-3.7h19c2,0,3.7,1.7,3.7,3.7c0,2-1.7,3.7-3.7,3.7h-2
								v23.9h4.7c0.8-3.5,2.6-9.5,6.5-16.3l0,0c2.7-3.8,4-8.3,4-12.9c0-12.5-10.2-22.7-22.7-22.7S63,68.7,63,81.3
								c0,4.3,1.2,8.5,3.5,12.1l0,0c3.4,5.7,5.3,10.9,6.2,14.2c0.3,1.1,0.6,2,0.8,2.9h4.7V86.5H76.2z"/>
							<path class="st6" d="M72.5,120.5v0.1c4.1,1.3,8.6,2,13.2,2s9.1-0.7,13.2-2v-0.1H72.5z"/>
							<rect x="72.5" y="115.8" class="st6" width="26.4" height="3.2"/>
							<polygon class="st6" points="99,111.9 92.5,111.9 79,111.9 72.5,111.9 72.5,114.5 99,114.5 							"/>
							<path class="st6" d="M95.2,85.1c1.2,0,2.2-1,2.2-2.2s-1-2.2-2.2-2.2h-19c-1.2,0-2.2,1-2.2,2.2s1,2.2,2.2,2.2H95.2z"/>
						</g>
					</g>
					<g>
						<path class="st2" d="M85.7,46.2c-0.4,0-0.7,0.3-0.7,0.7v5.1c0,0.4,0.3,0.7,0.7,0.7c0.4,0,0.7-0.3,0.7-0.7v-5.1
							C86.5,46.6,86.2,46.2,85.7,46.2z"/>
						<path class="st2" d="M75.1,49.1c-0.2-0.3-0.7-0.4-1-0.2c-0.3,0.2-0.4,0.7-0.2,1l2.6,4.5c0.1,0.2,0.3,0.3,0.7,0.3
							c0.1,0,0.2,0,0.3-0.1c0.3-0.2,0.4-0.7,0.2-1L75.1,49.1z"/>
						<path class="st2" d="M70.6,58.3l-4.5-2.6c-0.3-0.2-0.8-0.1-1,0.2c-0.2,0.3-0.1,0.8,0.2,1l4.5,2.6c0.1,0.1,0.2,0.1,0.3,0.1
							c0.2,0,0.4-0.1,0.7-0.3C71,59,70.9,58.5,70.6,58.3z"/>
						<path class="st2" d="M105.3,55.8l-4.5,2.6c-0.3,0.2-0.4,0.7-0.2,1c0.1,0.2,0.3,0.3,0.7,0.3c0.1,0,0.2,0,0.3-0.1l4.5-2.6
							c0.3-0.2,0.4-0.7,0.2-1C106.1,55.8,105.7,55.6,105.3,55.8z"/>
						<path class="st2" d="M97.3,48.9c-0.3-0.2-0.8-0.1-1,0.2l-2.6,4.5c-0.2,0.3-0.1,0.8,0.2,1c0.1,0.1,0.2,0.1,0.3,0.1
							c0.2,0,0.4-0.1,0.7-0.3l2.6-4.5C97.8,49.5,97.7,49,97.3,48.9z"/>
						<path class="st2" d="M73.5,110.5c-0.2-0.8-0.4-1.8-0.8-2.9c-1-3.4-2.8-8.6-6.2-14.2l0,0c-2.2-3.6-3.5-7.8-3.5-12.1
							c0-12.5,10.2-22.7,22.7-22.7s22.7,10.2,22.7,22.7c0,4.6-1.3,9.1-4,12.9l0,0c-3.9,6.8-5.7,12.9-6.5,16.3h1.5
							c0.8-3.5,2.5-9.2,6.3-15.6c2.8-4,4.3-8.7,4.3-13.7c0-13.3-10.9-24.1-24.1-24.1c-13.3,0-24.1,10.9-24.1,24.1
							c0,4.6,1.2,9,3.7,12.9l0,0c4,6.7,5.9,12.9,6.7,16.4h1.2L73.5,110.5L73.5,110.5z"/>
						<path class="st2" d="M71.8,119.1h0.7v-3.2h-0.7c-0.4,0-0.7-0.3-0.7-0.7v4.6C71,119.4,71.4,119.1,71.8,119.1z"/>
						<path class="st7" d="M100.3,120.3c0.1,0,0.1,0,0.2-0.1v-0.4C100.4,120,100.4,120.1,100.3,120.3z"/>
						<path class="st2" d="M99.7,115.8H99v3.2h0.7c0.4,0,0.7,0.3,0.7,0.7v-4.6C100.4,115.6,100,115.8,99.7,115.8z"/>
						<path class="st7" d="M71,120.2c0.1,0,0.1,0,0.2,0.1c-0.1-0.1-0.2-0.3-0.2-0.4V120.2z"/>
						<path class="st2" d="M71.8,114.5h0.7v-2.6H79c-0.4,0-0.7-0.3-0.7-0.7v-0.7h-4.7h-1.5h-0.2c-0.4,0-0.7,0.3-0.7,0.7v3.9
							C71,114.7,71.4,114.5,71.8,114.5z"/>
						<path class="st2" d="M97.9,110.5h-4.7v0.7c0,0.4-0.3,0.7-0.7,0.7H99v2.6h0.7c0.4,0,0.7,0.3,0.7,0.7v-3.9
							c0-0.4-0.3-0.7-0.7-0.7h-0.3H97.9L97.9,110.5z"/>
						<path class="st7" d="M72.1,120.5c0.1,0,0.3,0.1,0.4,0.1v-0.1H72.1z"/>
						<path class="st7" d="M99,120.6c0.1,0,0.3-0.1,0.4-0.1H99V120.6z"/>
						<path class="st2" d="M91.7,111.2v-0.7H79.7v0.7c0,0.4-0.3,0.7-0.7,0.7h13.5C92.1,111.9,91.7,111.6,91.7,111.2z"/>
						<path class="st2" d="M71.8,115.8h0.7h26.4h0.7c0.4,0,0.7-0.3,0.7-0.7c0-0.3-0.3-0.7-0.7-0.7h-0.7H72.5h-0.7
							c-0.4,0-0.7,0.3-0.7,0.7C71.2,115.5,71.4,115.8,71.8,115.8z"/>
						<path class="st2" d="M99.7,119.1H99H72.5h-0.7c-0.4,0-0.7,0.3-0.7,0.7c0,0.2,0.1,0.3,0.2,0.4c0.2,0.1,0.6,0.2,0.8,0.2h0.3
							h26.4h0.4c0.2-0.1,0.6-0.1,0.8-0.2c0.1-0.1,0.2-0.3,0.2-0.4C100.4,119.4,100,119.1,99.7,119.1z"/>
						<path class="st2" d="M79.7,111.2v-0.7V86.6h-1.5v23.9v0.7c0,0.4,0.3,0.7,0.7,0.7C79.3,111.9,79.7,111.6,79.7,111.2z"/>
						<path class="st2" d="M91.7,86.5v23.9v0.7c0,0.4,0.3,0.7,0.7,0.7c0.4,0,0.7-0.3,0.7-0.7v-0.7V86.5H91.7z"/>
						<path class="st2" d="M93.2,86.5h2c2,0,3.7-1.7,3.7-3.7c0-2-1.7-3.7-3.7-3.7h-19c-2,0-3.7,1.7-3.7,3.7c0,2,1.7,3.7,3.7,3.7h2
							h1.5h12.1H93.2z M76.2,85.1c-1.2,0-2.2-1-2.2-2.2s1-2.2,2.2-2.2h19c1.2,0,2.2,1,2.2,2.2s-1,2.2-2.2,2.2H76.2z"/>
						<g>
							<g>
								<g>
									<path class="st2" d="M97.3,36.7c-0.1,0-0.1,0-0.2,0c-1.5-0.4-3-0.7-4.5-1c-0.4-0.1-0.8-0.6-0.8-1c0.1-0.4,0.6-0.8,1-0.8
										c1.6,0.2,3.1,0.6,4.7,1c0.4,0.1,0.8,0.7,0.7,1.1C98.1,36.4,97.8,36.7,97.3,36.7z"/>
								</g>
								<g>
									<path class="st2" d="M85.7,123.6c-12.1,0-23.4-4.7-31.9-13.2S40.6,90.5,40.6,78.5s4.7-23.4,13.2-31.9s19.8-13.2,31.9-13.2
										c0.4,0,0.9,0.4,0.9,0.9s-0.4,0.9-0.9,0.9c-11.5,0-22.5,4.5-30.7,12.6s-12.6,19-12.6,30.7c0,11.5,4.5,22.5,12.6,30.7
										s19,12.6,30.7,12.6c11.5,0,22.5-4.5,30.7-12.6s12.6-19,12.6-30.7c0-8.2-2.2-16-6.5-22.9c-4.1-6.7-10.1-12.1-17-15.7
										c-0.4-0.2-0.6-0.8-0.3-1.2c0.2-0.4,0.8-0.6,1.2-0.3c7.3,3.7,13.4,9.4,17.7,16.3c4.5,7.2,6.8,15.3,6.8,23.8
										c0,12.1-4.7,23.4-13.2,31.9C109.1,118.9,97.8,123.6,85.7,123.6z"/>
								</g>
							</g>
							<g>
								<path class="st2" d="M102.8,37.2c0,0.7-0.6,1.1-1.1,1.1c-0.7,0-1.1-0.6-1.1-1.1s0.6-1.1,1.1-1.1
									C102.4,36.1,102.8,36.5,102.8,37.2z"/>
							</g>
						</g>
					</g>
				</g>
			</g>
		</g>
	</g>
	<g>
		<g>
			<g>
				<g>
					<path class="st0" d="M489.6,168.2l3.6-17.1h3.1l-5.4,24.1h-3.2l-2.2-17.2l-2.2,17.2h-3.2l-5.4-24.1h3.1l3.7,17.2l2.5-17.2h3.1
						L489.6,168.2z"/>
					<path class="st0" d="M500.5,151.1h3v7.7l0.2-0.3c1.1-1.2,2.6-1.8,4.3-1.8s3,0.6,4.3,1.8c1.2,1.2,1.8,2.6,1.8,4.3v12.4h-3v-12.4
						c0-0.9-0.3-1.6-1.1-2.2c-0.8-0.7-1.6-1-2.7-1c-1,0-1.9,0.3-2.7,1c-0.8,0.7-1.1,1.3-1.1,2.2v12.4h-3v-24.1H500.5z"/>
					<path class="st0" d="M519.6,159.5c1.6-1.8,3.4-2.7,5.4-2.7c2.1,0,3.9,0.9,5.5,2.7c1.6,1.8,2.2,4,2.2,6.5c0,2.6-0.8,4.7-2.2,6.5
						c-1.6,1.8-3.4,2.7-5.5,2.7s-3.9-0.9-5.4-2.7c-1.6-1.8-2.2-3.9-2.2-6.5C517.2,163.4,518,161.3,519.6,159.5z M521.7,170.5
						c0.9,1.2,2,1.9,3.2,1.9s2.3-0.7,3.2-1.9c0.9-1.2,1.3-2.8,1.3-4.6c0-1.8-0.4-3.2-1.3-4.6c-0.9-1.2-2-1.9-3.2-1.9
						s-2.3,0.7-3.2,1.9c-0.9,1.2-1.3,2.8-1.3,4.6C520.3,167.8,520.8,169.3,521.7,170.5z"/>
				</g>
			</g>
			<g>
				<path class="st2" d="M430,194.3h-6.5v-1.6h6.5V194.3z M429.6,206.2h-5.7v-5h5.7V206.2z M429.3,196.7c1.7-1.8,2.9-4.3,3.5-7.2
					l1.5,0.2c-0.1,0.9-0.3,1.8-0.7,2.6h2.5l0.7-2.8l1.3,0.3l-0.7,2.3h3.2v1.7H437v2.5h2.9v1.7H437v2.5h2.9v1.7H437v2.5h3.7v1.7h-9
					v-10.3l-1.2,1.7L429.3,196.7v0.4h-4.9v-1.6h4.9V196.7z M429.3,191.5h-4.9v-1.6h4.9V191.5z M429.3,200h-4.9v-1.6h4.9V200z
					 M428,204.7v-1.9h-2.5v1.9H428z M433.3,193.9v2.5h2v-2.5H433.3z M435.3,200.5v-2.5h-2v2.5H435.3z M435.3,204.6v-2.5h-2v2.5
					H435.3z"/>
				<path class="st2" d="M447.4,196.2v5.6c0.8,1.9,2.5,2.9,5.1,2.9h7.9v1.6h-7.8c-2.7,0-4.6-0.7-5.7-2l-2.5,2l-1-1.2l2.5-2v-5.3
					h-2.5v-1.6H447.4z M445,189.5l2.3,2.7l-1.2,1l-2.3-2.7L445,189.5z M449.1,193.4h2.6l-0.7-1.2h-2.2v-1.7h4.9V189h1.6v1.5h4.9v1.6
					h-2.2l-0.7,1.2h2.6v10.1H457V202h1.2v-7h-3.1v1h2.2v1.3h-2.2v1h1.8v3.8h-5v-3.8h1.8v-1h-2.2v-1.3h2.2v-1h-3.1v8.5H449v-10.1
					H449.1z M455.7,193.4l0.7-1.2h-3.8l0.7,1.2H455.7z M455.6,200.9v-1.1h-2.2v1.1H455.6z"/>
				<path class="st2" d="M463.8,196.3c1.3-0.6,2.8-1.5,4.3-2.6s2.6-2.6,3.6-4.3l1.6,0.8c-0.1,0.2-0.2,0.4-0.3,0.6
					c0.8,1.1,1.8,2.1,3,3c1.2,0.9,2.6,1.7,4.4,2.3l-0.8,1.5c-1.7-0.7-3.1-1.6-4.4-2.5s-2.2-1.9-3.1-2.9c-0.9,1.2-1.9,2.2-3.1,3.1
					c-1.1,0.9-2.5,1.7-4.1,2.3L463.8,196.3z M477.7,206.2h-11.4v-6.9h11.4V206.2z M467.9,196.1h8.2v1.7h-8.2V196.1z M476,204.6v-3.7
					h-8.2v3.7H476z"/>
				<path class="st2" d="M483.7,201.9h10.6V201h-0.4c-2.9,0-5.1-0.6-6.6-1.7l-3,1.8l-0.6-1.2l2-1.2v-2.9h-2v-1.3h3.7v2.8
					c1,1.7,3.2,2.5,6.5,2.5h6.2v1.3h-4v0.9h4v1.3h-4v3h-2.9v-1.3h1.2v-1.7h-6.6l2.1,1.2l-0.7,1.2l-2.1-1.2l0.7-1.2h-3.9L483.7,201.9
					L483.7,201.9z M485,190l2.5,1.5l-0.7,1.1l-2.5-1.5L485,190z M494.6,192.7h4.5v6.3h-9v-6.3h3.2l0.4-0.8H489v-1.3h2.8l-0.4-0.9
					l1.2-0.7l0.9,1.6h2.6l0.9-1.6l1.2,0.7l-0.4,0.9h2.8v1.3h-5.3L494.6,192.7z M491.7,193.8v0.6h5.7v-0.6H491.7z M491.7,195.5v0.6
					h5.7v-0.6H491.7z M491.7,197.1v0.6h5.7v-0.6H491.7z"/>
				<path class="st2" d="M512.2,193.9c-0.1-0.8-0.2-1.6-0.3-2.3h-4.5v-1.7h5.9c0.6,7.5,3,12.5,7.2,14.9l-0.9,1.5
					c-3.7-2-6-5.8-7.3-11.4c-1.2,5.4-3.9,9.2-8.2,11.4l-0.9-1.5c4-2.1,6.5-5.9,7.6-11.2L512.2,193.9z"/>
				<path class="st2" d="M527.7,189.8c-0.2,0.6-0.4,1-0.7,1.3h5.6v1.7h-6.5c-0.4,0.6-0.8,1.1-1.2,1.7h5.9l1.7,0.1l-0.2,2.1
					c1.6-2,2.6-4.5,3-7.5l1.5,0.2c-0.2,1-0.4,2.1-0.8,3.5h4.4v1.5h-0.9c-0.1,3-0.8,5.5-1.9,7.5c0.8,1.2,1.8,2.3,3.1,3.4l-1,1.2
					c-1.2-0.9-2.2-1.9-3-3c-0.8,1.1-1.9,2.1-3.4,3l-0.9-1.2c1.5-0.9,2.6-2,3.5-3.2c-0.7-1.3-1.2-3.1-1.7-5c-0.2,0.4-0.6,0.8-0.9,1.1
					l-1.1-0.9l-0.1,1.1h1.1v1.7h-1.3l-0.2,2h1.1v1.7h-1.2l-0.2,2.9h-2.8v-1.5h1.3l0.1-1.5h-4.5l-0.1,1.2l-1.7-0.1l0.4-4.8H523v-1.7
					h1.2l0.3-3.5c-0.1,0.2-0.3,0.3-0.4,0.4l-1.3-1.1c1.2-1.1,2.3-2.7,3.4-4.8L527.7,189.8z M527.2,199.8h-1.3l-0.2,2h1.3
					L527.2,199.8z M527.5,196.1h-1.3l-0.2,2h1.3L527.5,196.1z M528.8,199.8l-0.2,2h1.5l0.2-2H528.8z M529.2,196.1l-0.2,2h1.5l0.1-2
					H529.2z M535.3,194.3c0.1,2.3,0.6,4.3,1.3,5.8c0.7-1.6,1.1-3.5,1.3-5.8H535.3z"/>
				<path class="st2" d="M548.4,193.9h-1.7v4.4l1.1-0.3l0.7,1.5l-1.7,0.6v6h-2.9v-1.7h1.2v-3.8l-1.6,0.6l-0.6-1.6l2.1-0.8v-5h-2V192
					h2v-3.2h1.7v3.2h1.7v1.9H548.4z M550.1,198.3h3.7v-1.1h-5.3v-1.5h5.3v-1.1h-4v-1.5h4V192h-4.9v-1.5h4.9v-1.5h1.7v1.5h4.5v1.5
					h-4.5v1.1h3.7v2.6h1.2v1.5h-1.2v2.6h-3.7v1.2h3.7v1.5h-3.7v2.3c0.6,0.1,1,0.1,1.7,0.1h3.2v1.5h-3.2c-2.9,0-5-0.7-6.4-2.1
					c-0.4,0.9-1.1,1.6-1.8,2.1l-1.1-1.1c1.3-1,2.1-2.6,2.5-4.7l1.6,0.1c-0.1,0.6-0.2,1.2-0.3,1.9c0.7,0.8,1.5,1.5,2.5,1.8v-4.5h-3.7
					v-1.6H550.1z M557.5,195.7v-1.1h-2v1.1H557.5z M557.5,198.3v-1.1h-2v1.1H557.5z"/>
				<path class="st2" d="M567.1,195.2c0-1.2,0.4-2.3,1.3-3.1c0.9-0.9,1.9-1.3,3.1-1.3c1.2,0,2.3,0.4,3.1,1.3
					c0.9,0.9,1.3,1.9,1.3,3.1c0,0.9-0.2,1.6-0.8,2.2c-0.6,0.6-1.1,0.9-1.8,0.9c-0.3,0-0.6,0.1-0.8,0.4c-0.2,0.3-0.3,0.7-0.3,1v1.9
					h-1.6v-1.9c0-0.9,0.2-1.6,0.8-2.2c0.6-0.6,1.1-0.9,1.9-0.9c0.3,0,0.6-0.1,0.8-0.4c0.2-0.3,0.3-0.7,0.3-1c0-0.8-0.3-1.5-0.9-2.1
					c-0.6-0.6-1.3-0.9-2.1-0.9c-0.8,0-1.5,0.3-2.1,0.9c-0.6,0.6-0.9,1.2-0.9,2v1.7H567L567.1,195.2L567.1,195.2z M570.8,203.9h1.7
					v1.7h-1.7V203.9z"/>
				<path class="st2" d="M414.4,210.6h15.6v16.8h-15.6V210.6z M428.6,226.2v-14.3h-5.7v1.3h4.1v1.1h-4.1v0.8h3.5v4.5l0.2-0.1
					l0.8,1.8l-1.2,0.6l-0.2-0.4h-0.8v0.9h2.2v1h-2.2v2.3h-2.6v-0.9h1v-1.5h-4.5l1.5,0.9L420,225l-1.7-1l0.4-0.8h-2.3v-1h7.2v-0.8
					l-6.4,0.4l-0.1-1.1l4.1-0.3v-0.7h-3.5v-4.7h3.5v-0.8h-4.5v-1.1h4.5v-1.3h-5.7v14.3L428.6,226.2L428.6,226.2z M421.3,216.9v-0.8
					h-1.8v0.8H421.3z M421.3,218.8V218h-1.8v0.8H421.3z M424.8,216.1h-1.9v0.8h1.9V216.1z M424.8,218h-1.9v0.8h1.9V218z
					 M422.9,220.5l2.6-0.2l-0.1-0.2l0.3-0.1h-2.8L422.9,220.5L422.9,220.5z"/>
				<path class="st2" d="M434.3,211.2h4l1.3,0.3l-1.6,5.4l0.7,1.3c0.6,1.2,0.8,2.2,0.8,3.2c0,1.7-0.8,2.5-2.5,2.5h-0.4v-1.5h0.4
					c0.6,0,0.8-0.3,0.8-1c0-0.7-0.2-1.6-0.6-2.6l-0.8-1.8l0,0l0,0l1.3-4.7h-2v14.7h-1.7L434.3,211.2L434.3,211.2z M444.8,216.5
					c0.4,0.6,0.8,1.2,1.1,2l2.1-2.1l1,1l-2.6,2.6c1,1.8,2.3,3.1,3.9,4.1l-0.9,1.2c-0.9-0.6-1.8-1.3-2.8-2.3v1c0,1.5-0.4,2.5-1.2,3.2
					h-1.9v-1.5h1.1c0.3-0.3,0.6-0.9,0.6-1.7c0-0.2,0-0.4,0-0.9c-1.8,1.7-3.8,2.9-6,3.7l-0.6-1.5c2.5-0.9,4.6-2.2,6.3-4.4
					c-0.1-0.2-0.1-0.7-0.2-1.1c-1.1,1-2.3,1.9-3.9,2.6l-0.6-1.5c1.2-0.6,2.6-1.5,3.8-2.7c-0.2-0.2-0.4-0.6-0.7-0.9
					c-1,0.7-2,1.1-3,1.5l-0.6-1.5c1.6-0.6,3-1.5,4.3-2.5h-4.6v-1.5h5.8l1.8-2.8l1.2,0.8l-1.3,2.1h2.7v1.5h-3.4
					C445.9,215.5,445.4,216.1,444.8,216.5z M441.3,211.4l1.3-0.8l1.1,2l-1.3,0.8L441.3,211.4z"/>
				<path class="st2" d="M469,227.3h-3.2v-1.7h1.7v-2.5h-9.2c-0.3,1.9-1.3,3.2-2.8,4l-0.9-1.5c1.5-0.8,2.2-2.3,2.2-4.7v-5.6
					c-0.6,0.3-1.2,0.8-1.9,1.1l-0.9-1.5c2.3-1.2,4.3-2.9,5.6-5l1.5,0.8c-0.1,0.2-0.3,0.4-0.6,0.8h4.8l1,1.2l-2.3,2h4.9v12.4
					L469,227.3L469,227.3z M459.1,213.4c-0.6,0.6-1.1,1.1-1.8,1.7h4.4l1.9-1.7H459.1z M462,218.3v-1.7h-3.7v1.7H462z M462,220h-3.7
					v1.2v0.4h3.7V220z M467.3,218.3v-1.7h-3.7v1.7H467.3z M467.3,221.6v-1.7h-3.7v1.7H467.3z"/>
				<path class="st2" d="M478.4,210.2l1.7,0.6l-0.1,0.2h4.7l1.3,0.9l-1.9,3.2h4.7v6.5h-11.4v3.2c0,0.6,0.2,0.8,0.8,0.8h9.5l0.8-2.1
					l1.6,0.6l-1.2,3.2H478c-1.7,0-2.5-0.8-2.5-2.5V217c-0.4,0.4-0.9,0.8-1.5,1.2l-1-1.5C475.6,215.3,477.3,213.1,478.4,210.2z
					 M477.5,216.8v3.2h4v-3.2H477.5z M483.7,212.6h-4.5c-0.6,1-1,1.8-1.6,2.5h4.6L483.7,212.6z M483.2,216.8v3.2h4v-3.2H483.2z"/>
				<path class="st2" d="M498.2,211.3l-0.7,2.9h3v1.7c-0.1,2.7-0.4,4.9-1.2,6.5l1.7,1l-0.9,1.3l-1.6-1v0.3c-0.9,1.2-1.9,2.2-3.1,3.2
					l-1.1-1.2c1.2-0.9,2.2-1.9,2.9-3v-0.1l-1.2-0.8l-0.1,0.6l-1.6-0.3l1.5-6.5h-1.9v-1.7h2.2l0.7-3.2L498.2,211.3z M497.3,215.9
					l-1,4.6l1.8,1c0.7-1.6,1-3.5,1-5.7h-1.8V215.9z M502.3,212.6h6.9v13.9h-6.9V212.6z M507.6,224.9v-10.6h-3.7v10.6H507.6z"/>
				<path class="st2" d="M519.1,211.1c-0.3,1.5-1,3-1.8,4.6v11.7h-1.7v-9.1c-0.3,0.6-0.8,1-1.2,1.5l-1.2-1.1c1.9-2,3.2-4.6,4.3-7.9
					L519.1,211.1z M530.4,213.4h-1.7v13.9h-3.2v-1.7h1.7v-12.2H519v-1.7h11.4L530.4,213.4L530.4,213.4z M525,222.8h-5.7v-7.4h5.7
					V222.8z M523.5,221.2v-4H521v4H523.5z"/>
				<path class="st2" d="M540.1,212.6c-1,1.9-2.2,3.6-3.7,4.9h9.7v6.5c0,2.1-1.1,3.2-3.2,3.2h-0.8v-1.7h0.8c1.1,0,1.7-0.6,1.7-1.7
					V219h-4c0,4.1-1.6,6.8-4.7,8.2l-1-1.5c2.7-1,4-3.2,4-6.7h-2.5v-1.6c-0.7,0.7-1.5,1.2-2.3,1.8l-1-1.5c2.1-1.3,3.9-3.4,5.5-6
					L540.1,212.6z M550.3,217.9l-1,1.3c-2.6-1.7-4.5-3.9-5.8-6.6h-2.1v-1.7h3.2C545.7,213.8,547.6,216.2,550.3,217.9z"/>
				<path class="st2" d="M568.7,213.8h-6.2v10.6h7.4v1.7h-16.3v-1.7h7.4v-10.6h-6.2v-1.7h13.9V213.8z"/>
				<path class="st2" d="M577.1,216.3c0-1.2,0.4-2.3,1.3-3.1c0.9-0.9,1.9-1.3,3.1-1.3c1.2,0,2.3,0.4,3.1,1.3
					c0.9,0.9,1.3,1.9,1.3,3.1c0,0.9-0.2,1.6-0.8,2.2c-0.6,0.6-1.1,0.9-1.8,0.9c-0.3,0-0.6,0.1-0.8,0.4c-0.2,0.3-0.3,0.7-0.3,1v1.9
					h-1.6v-1.9c0-0.9,0.2-1.6,0.8-2.2c0.6-0.6,1.1-0.9,1.9-0.9c0.3,0,0.6-0.1,0.8-0.4c0.2-0.3,0.3-0.7,0.3-1c0-0.8-0.3-1.5-0.9-2.1
					c-0.6-0.6-1.3-0.9-2.1-0.9c-0.8,0-1.5,0.3-2.1,0.9c-0.6,0.6-0.9,1.2-0.9,2v1.7H577L577.1,216.3L577.1,216.3z M580.8,224.9h1.7
					v1.7h-1.7V224.9z"/>
			</g>
			<g>
				<path class="st1" d="M488.6,167.2l3.6-17.1h3.1l-5.4,24.1h-3.2l-2.2-17.2l-2.2,17.2h-3.2l-5.4-24.1h3.1l3.7,17.2l2.5-17.2h3.1
					L488.6,167.2z"/>
				<path class="st1" d="M499.5,150h3v7.7l0.2-0.3c1.1-1.2,2.6-1.8,4.3-1.8s3,0.6,4.3,1.8c1.2,1.2,1.8,2.6,1.8,4.3V174h-3v-12.4
					c0-0.9-0.3-1.6-1.1-2.2c-0.8-0.7-1.6-1-2.7-1c-1,0-1.9,0.3-2.7,1c-0.8,0.7-1.1,1.3-1.1,2.2V174h-3V150H499.5z"/>
				<path class="st1" d="M518.4,158.4c1.6-1.8,3.4-2.7,5.4-2.7c2.1,0,3.9,0.9,5.5,2.7c1.6,1.8,2.2,4,2.2,6.5c0,2.6-0.8,4.7-2.2,6.5
					c-1.6,1.8-3.4,2.7-5.5,2.7s-3.9-0.9-5.4-2.7c-1.6-1.8-2.2-3.9-2.2-6.5C516.2,162.4,517,160.3,518.4,158.4z M520.7,169.4
					c0.9,1.2,2,1.9,3.2,1.9c1.2,0,2.3-0.7,3.2-1.9c0.9-1.2,1.3-2.8,1.3-4.6c0-1.8-0.4-3.2-1.3-4.6c-0.9-1.2-2-1.9-3.2-1.9
					c-1.2,0-2.3,0.7-3.2,1.9c-0.9,1.2-1.3,2.8-1.3,4.6C519.3,166.7,519.8,168.2,520.7,169.4z"/>
			</g>
		</g>
		<g>
			<g>
				<g>
					<path class="st2" d="M510.8,36.7c-0.1,0-0.1,0-0.2,0c-1.5-0.4-3-0.7-4.5-1c-0.4-0.1-0.8-0.6-0.8-1c0.1-0.4,0.6-0.8,1-0.8
						c1.6,0.2,3.1,0.6,4.7,1c0.4,0.1,0.8,0.7,0.7,1.1C511.6,36.4,511.3,36.7,510.8,36.7z"/>
				</g>
				<g>
					<path class="st2" d="M499.2,123.6c-12.1,0-23.4-4.7-31.9-13.2s-13.2-19.8-13.2-31.9s4.7-23.4,13.2-31.9
						c8.5-8.5,19.8-13.2,31.9-13.2c0.4,0,0.9,0.4,0.9,0.9s-0.4,0.9-0.9,0.9c-11.5,0-22.5,4.5-30.7,12.6s-12.6,19-12.6,30.7
						c0,11.5,4.5,22.5,12.6,30.7s19,12.6,30.7,12.6c11.5,0,22.5-4.5,30.7-12.6c8.2-8.2,12.6-19,12.6-30.7c0-8.2-2.2-16-6.5-22.9
						c-4.1-6.7-10.1-12.1-17-15.7c-0.4-0.2-0.6-0.8-0.3-1.2c0.2-0.4,0.8-0.6,1.2-0.3c7.3,3.7,13.4,9.4,17.7,16.3
						c4.5,7.2,6.8,15.3,6.8,23.8c0,12.1-4.7,23.4-13.2,31.9C522.7,118.9,511.3,123.6,499.2,123.6z"/>
				</g>
			</g>
			<g>
				<circle class="st2" cx="515.2" cy="37.2" r="1.1"/>
			</g>
		</g>
		<rect x="491.2" y="89.9" class="st8" width="17.3" height="12.2"/>
		<polygon class="st9" points="517.5,93.2 521,97.4 503.2,106.8 500.3,102 		"/>
		<polygon class="st9" points="499,102 496.1,106.8 478.4,97.4 481.7,93.2 		"/>
		<circle class="st8" cx="499.9" cy="73.9" r="19.1"/>
		<g>
			<path class="st2" d="M502.5,69.8c0-1.6-0.9-2.9-2.9-2.9c-1.2,0-2.5,0.6-3.4,1.7l-0.8-0.8c1-1.1,2.5-2.1,4.3-2.1
				c2.6,0,4.1,1.7,4.1,4c0,3.6-4.4,5.1-3.9,9.2h-1.2C498.2,74.5,502.5,73.1,502.5,69.8z M498.3,82.8c0-0.8,0.6-1.3,1.2-1.3
				c0.7,0,1.2,0.4,1.2,1.3c0,0.8-0.6,1.3-1.2,1.3C498.9,84.2,498.3,83.6,498.3,82.8z"/>
		</g>
		<line class="st10" x1="482.9" y1="99.8" x2="470.2" y2="111.2"/>
		<line class="st10" x1="499.6" y1="102.1" x2="499.6" y2="122.3"/>
		<line class="st10" x1="516.5" y1="99.8" x2="529.1" y2="111.2"/>
	</g>
</g>
</svg>
