<?xml version="1.0" encoding="utf-8"?>
<!-- Generator: Adobe Illustrator 25.2.1, SVG Export Plug-In . SVG Version: 6.00 Build 0)  -->
<svg version="1.1" id="圖層_1" xmlns="http://www.w3.org/2000/svg" xmlns:xlink="http://www.w3.org/1999/xlink" x="0px" y="0px"
	 viewBox="0 0 150 150" style="enable-background:new 0 0 150 150;" xml:space="preserve">
<style type="text/css">
	.st0{fill:#FFCEB6;}
	.st1{fill:#FDA000;}
	.st2{fill:#F3D922;}
	.st3{fill:#FFFFFF;}
	.st4{fill:#FFA100;}
</style>
<g>
	<path class="st0" d="M122.7,69.3l4.9-9.1c0.7-1.3,1.1-2.8,1.1-4.3l0,0c0-3.2-1.7-6.1-4.4-7.8l-1.4-0.8h-7.1v7.4l-7.7,7.3l0,0
		L122.7,69.3L122.7,69.3z"/>
	<path class="st1" d="M115.7,30.6h7.4c2,0,3.7,1.7,3.7,3.7V51c0,2-1.7,3.7-3.7,3.7h-7.4c-2,0-3.7-1.7-3.7-3.7V34.3
		C112,32.3,113.6,30.6,115.7,30.6z"/>
	<polygon class="st2" points="97.2,81.2 108,61.9 122.7,69.3 110.8,91.6 97.2,91.6 	"/>
	<path class="st0" d="M117.5,62.1v-5.3c0-1.5-0.6-3-1.7-4l-2.7-2.5c-0.7-0.6-1.7-0.7-2.4-0.1l0,0c-0.4,0.3-0.6,0.8-0.6,1.3v6.6
		l-2.1,3.8L117.5,62.1z"/>
	<polygon class="st2" points="52.8,81.2 42,61.9 27.3,69.3 39.2,91.6 52.8,91.6 	"/>
	<path class="st0" d="M27.3,69.3l-4.9-9.1c-0.7-1.3-1.1-2.8-1.1-4.3l0,0c0-3.2,1.7-6.1,4.4-7.8l1.4-0.8h7.1v7.4l7.7,7.3l0,0
		L27.3,69.3L27.3,69.3z"/>
	<path class="st2" d="M116.3,95.4v7.5h-11.6l-9.4-13.1v38.8H54.7V89.8l-9.2,12.9H28.8l14.7-22c2.4-3.6,6.4-5.8,10.8-5.8h41.6
		c4.3,0,8.4,2.2,10.8,5.8L116.3,95.4z"/>
	<polygon class="st1" points="76.9,84.2 80.5,106.4 75,112 69.5,106.4 73.2,84.2 	"/>
	<path class="st3" d="M52.8,121.2h27.7v3.7c0,2-1.7,3.7-3.7,3.7h-24V121.2z"/>
	<polygon class="st3" points="30.6,128.6 21.4,102.7 49.1,102.7 58.4,128.6 	"/>
	<circle class="st1" cx="39.9" cy="115.7" r="3.7"/>
	<polygon class="st3" points="128.6,97.2 106.4,87.9 93.5,121.2 115.7,128.6 	"/>
	<path class="st0" d="M112,110.1h7.4v-2.9c0-1.4,1.2-2.6,2.6-2.6l0,0c0.7,0,1.4,0.3,1.8,0.8l4.8,4.8v5.5c0,3.1-2.5,5.5-5.5,5.5h-7.4
		c-2,0-3.7-1.7-3.7-3.7V110.1z"/>
	<rect x="28.8" y="34.3" class="st4" width="3.7" height="7.4"/>
	<path class="st3" d="M34.3,41.7h-7.4v11.1c0,2,1.7,3.7,3.7,3.7l0,0c2,0,3.7-1.7,3.7-3.7V41.7z"/>
	<polygon class="st1" points="73.2,84.2 71.3,80.5 75,76.8 78.7,80.5 76.9,84.2 	"/>
	<path class="st0" d="M86.1,49.1v16.6c0,6.1-5,11.1-11.1,11.1l0,0c-6.1,0-11.1-5-11.1-11.1v-7.4l9.2-9.2H86.1z"/>
	<path class="st3" d="M86.1,49.1l1.2-0.6c1.5-0.8,2.5-2.4,2.5-4.1l0,0c0-2.5-2-4.6-4.6-4.6c0,0,0,0,0,0H73.2c-5.1,0-9.2,4.1-9.2,9.2
		v9.2l9.2-9.2H86.1z"/>
	<path class="st0" d="M32.5,62.1v-5.3c0-1.5,0.6-3,1.7-4l2.7-2.5c0.7-0.6,1.7-0.7,2.4-0.1l0,0c0.4,0.3,0.6,0.8,0.6,1.3v6.6l2.1,3.8
		L32.5,62.1z"/>
	<circle class="st2" cx="30.6" cy="28.8" r="7.4"/>
	<path d="M39.9,110.1c-3.1,0-5.5,2.5-5.5,5.5c0,3.1,2.5,5.5,5.5,5.5c3.1,0,5.5-2.5,5.5-5.5C45.4,112.6,42.9,110.1,39.9,110.1z
		 M39.9,117.5c-1,0-1.8-0.8-1.8-1.8s0.8-1.8,1.8-1.8s1.8,0.8,1.8,1.8C41.7,116.7,40.9,117.5,39.9,117.5z"/>
	<circle cx="73.2" cy="58.4" r="1.8"/>
	<path d="M72.6,64.4L70,67.1c1.5,1.5,3.6,2.4,5.8,2.4h4.8v-3.7h-4.8C74.6,65.8,73.4,65.3,72.6,64.4z"/>
	<circle cx="80.5" cy="58.4" r="1.8"/>
	<path d="M127,105.9l3.3-8c0.4-0.9-0.1-2-1-2.4l-14.8-6.2l-6.4-9.6c-2.7-4.1-7.4-6.6-12.3-6.6H85.6c1.5-2.2,2.3-4.8,2.3-7.4V50.3
		l0.1-0.1c3.2-1.6,4.5-5.4,2.9-8.6c-1.1-2.2-3.3-3.5-5.7-3.5H73.2c-6.1,0-11.1,5-11.1,11.1v16.6c0,2.6,0.8,5.2,2.3,7.4H54.2
		c-4.9,0-9.6,2.5-12.3,6.6l-14.1,21.2h-6.4c-1,0-1.8,0.8-1.8,1.8c0,0.2,0,0.4,0.1,0.6l9.2,25.9c0.3,0.7,1,1.2,1.7,1.2h46.2
		c3.1,0,5.5-2.5,5.5-5.5v-3.7c0-1-0.8-1.8-1.8-1.8H57l-0.5-1.4V89.8c0-1-0.8-1.8-1.8-1.8c-0.6,0-1.2,0.3-1.5,0.8l-8.7,12.2H32.2
		L45,81.8c2.1-3.1,5.5-4.9,9.2-4.9h8.5l3.2,8.1c0.4,0.9,1.5,1.4,2.4,1c0.2-0.1,0.4-0.2,0.6-0.4l1.9-1.9l0.4,0.9l-3.6,21.6
		c-0.1,0.6,0.1,1.2,0.5,1.6l5.5,5.5c0.7,0.7,1.9,0.7,2.6,0l5.5-5.5c0.4-0.4,0.6-1,0.5-1.6l-3.6-21.6l0.4-0.9l1.9,1.9
		c0.7,0.7,1.9,0.7,2.6,0c0.2-0.2,0.3-0.4,0.4-0.6l3.2-8.1h8.5c3.7,0,7.2,1.9,9.2,4.9l3.3,4.9l-1.2-0.5c-0.9-0.4-2,0.1-2.4,1
		c0,0,0,0,0,0l-3.1,8.1l-4.7-6.6c-0.6-0.8-1.7-1-2.6-0.4c-0.5,0.3-0.8,0.9-0.8,1.5v26.3l-1.7,4.4c-0.4,1,0.1,2,1.1,2.4
		c0,0,0.1,0,0.1,0l0.6,0.2v7.3h3.7v-6.1l17.9,6c0.9,0.3,1.9-0.2,2.3-1.1l2.6-6.3h3.1c4.1,0,7.4-3.3,7.4-7.4v-5.5
		c0-0.5-0.2-1-0.5-1.3L127,105.9z M78.7,123.1v1.8c0,1-0.8,1.8-1.8,1.8H59.7l-1.3-3.7H78.7z M52.8,95.6v12l-2-5.5
		c-0.3-0.7-1-1.2-1.7-1.2H49L52.8,95.6z M47.8,104.6l7.9,22.2H31.9L24,104.6H47.8z M65.8,49.1c0-4.1,3.3-7.4,7.4-7.4h12.1
		c1.5,0,2.7,1.2,2.7,2.7c0,1-0.6,2-1.5,2.4l-0.8,0.4H73.2c-0.5,0-1,0.2-1.3,0.5l-6.1,6.1V49.1z M68.3,81l-1.6-4.1h1.7
		c0.9,0.5,1.8,1,2.8,1.3L68.3,81z M75,109.4l-3.6-3.6l3.3-19.7h0.6l3.3,19.7L75,109.4z M73.6,80.9l1.4-1.4l1.4,1.4l-0.7,1.5h-1.4
		L73.6,80.9z M81.7,81l-2.8-2.8c1-0.3,1.9-0.7,2.8-1.3h1.7L81.7,81z M84.2,65.8c0,5.1-4.1,9.2-9.2,9.2c-5.1,0-9.2-4.1-9.2-9.2v-6.6
		l8.2-8.2h10.3V65.8z M97.2,95.6l2.8,3.9l-2.8,7.2V95.6z M114.6,126.3l-18.7-6.2l11.6-29.7l18.7,7.8l-2.1,5.1
		c-2.2-1.2-4.9-0.4-6.1,1.8c-0.4,0.7-0.5,1.4-0.5,2.1v1.1H112c-1,0-1.8,0.8-1.8,1.8v7.4c0,3.1,2.5,5.5,5.5,5.5h0.3L114.6,126.3z
		 M126.8,115.7c0,2-1.7,3.7-3.7,3.7h-7.4c-1,0-1.8-0.8-1.8-1.8V112h5.5c1,0,1.8-0.8,1.8-1.8v-2.9c0-0.4,0.3-0.8,0.8-0.8
		c0.2,0,0.4,0.1,0.5,0.2l4.2,4.2V115.7z"/>
	<path d="M32.7,83.3l3.3-1.7l-6.1-11.5l11.4-5.7l4.4,7.8l3.2-1.8l-7.2-12.7v-6.1c0-2-1.6-3.6-3.6-3.6c-0.7,0-1.3,0.2-1.9,0.5v-6.7
		c0-1-0.8-1.8-1.8-1.8h-1.8v-2c5-1,8.2-5.9,7.2-10.9c-1-5-5.9-8.2-10.9-7.2c-5,1-8.2,5.9-7.2,10.9c0.7,3.6,3.6,6.5,7.2,7.2v2h-1.8
		c-1,0-1.8,0.8-1.8,1.8v4.7l-0.3,0.2c-5,3-6.7,9.4-4,14.5L32.7,83.3z M25.1,28.8c0-3.1,2.5-5.5,5.5-5.5s5.5,2.5,5.5,5.5
		s-2.5,5.5-5.5,5.5C27.6,34.3,25.1,31.8,25.1,28.8z M28.8,43.6h3.7v8.4c-0.7,0.8-1.2,1.7-1.5,2.7c-1,0.2-2-0.5-2.1-1.4
		c0-0.1,0-0.2,0-0.4V43.6z M25.1,51.1v1.7c0,3.1,2.5,5.5,5.5,5.5V60h3.7v-3.2c0-1,0.4-2,1.1-2.7l2.6-2.5v6.5c0,0.3,0.1,0.6,0.2,0.9
		l1.2,2.1l-11.3,5.7l-4-7.5C22.6,56.6,23,53.3,25.1,51.1z"/>
	<path d="M112.8,80.9l2.2,3c1.3-0.9,2.4-2.2,3.2-3.6l10.9-19.2c2-3.5,1.9-7.8-0.3-11.1l-0.1,0.1V34.3c0-3.1-2.5-5.5-5.5-5.5h-7.4
		c-3.1,0-5.5,2.5-5.5,5.5v14.1c-0.2,0.1-0.4,0.3-0.6,0.4c-0.8,0.7-1.2,1.7-1.2,2.7v6.1l-7.2,12.7l3.2,1.8l4.4-7.8l11.1,5.5l-4.9,8.6
		C114.4,79.5,113.7,80.3,112.8,80.9z M115.7,32.5h1.8c0,1,0.8,1.8,1.8,1.8c1,0,1.8-0.8,1.8-1.8h1.8c1,0,1.8,0.8,1.8,1.8V51
		c0,1-0.8,1.8-1.8,1.8h-4.9c-0.3-0.5-0.7-0.9-1.1-1.3l-2.7-2.5c-0.2-0.2-0.4-0.3-0.6-0.5V34.3C113.8,33.3,114.7,32.5,115.7,32.5z
		 M110.6,61.1l1.2-2.1c0.2-0.3,0.2-0.6,0.2-0.9v-6.5l2.6,2.5c0.7,0.7,1.1,1.7,1.1,2.7V60h3.7v-3.2c0-0.1,0-0.2,0-0.3h3.7
		c1.3,0,2.7-0.5,3.7-1.4c0,0.2,0,0.4,0,0.7c0,1.2-0.3,2.4-0.9,3.5l-4.2,7.4L110.6,61.1z"/>
</g>
</svg>
