<?xml version="1.0" encoding="utf-8"?>
<!-- Generator: Adobe Illustrator 25.2.1, SVG Export Plug-In . SVG Version: 6.00 Build 0)  -->
<svg version="1.1" id="圖層_1" xmlns="http://www.w3.org/2000/svg" xmlns:xlink="http://www.w3.org/1999/xlink" x="0px" y="0px"
	 viewBox="0 0 150 150" style="enable-background:new 0 0 150 150;" xml:space="preserve">
<style type="text/css">
	.st0{fill:#020101;}
	.st1{fill:#FFFFFF;}
	.st2{fill:#F3D922;}
	.st3{fill:#FDCCB5;}
	.st4{fill:#FDA000;}
</style>
<g>
	<path class="st0" d="M26.4,141.2c-1.4,0-3.2,0.5-4.1-0.2c-0.9-0.7-0.2-2.6-0.2-3.9c0-2.5,0-2.5-2.5-2.4c-2.3,0-4.5,0-6.5-1.3
		c-2.7-1.7-4.2-4.2-4.2-7.3c0-14.9-0.1-29.8,0-44.7c0.1-8.2,6.8-14.9,15.1-15.1c3.3-0.1,6.6,0,9.9,0c-1.1-5.9-1-11.8-0.4-17.6
		c0.6-5.1,5.3-8.8,10.4-8.9c3.2-0.1,6.4,0,9.5,0c3,0,5.4,2,6.1,4.9c0.7,2.7-0.5,5.6-3,6.9c-1,0.5-1.2,1.1-1.2,2.1
		c0.1,2.2,0,4.3,0,6.5c0,2,0,4-0.9,6.1c2.3,0,4.4,0,6.5,0c2.6,0,5.2-0.3,7.7,0.4c5.9,1.5,9.8,5.3,11.5,11.1
		c1.8,6.1,3.5,12.3,5.2,18.4c0.2,0.8,0.6,1.1,1.4,1c3.6,0,7.2,0,10.8,0c0.8,0,1.3-0.2,1.8-0.8c1.3-1.4,2.7-2.7,4.1-4.1
		c1.7-1.7,3.7-2.3,5.9-1.4c2.3,0.9,3.4,2.7,3.4,5.2c0,0.8,0.2,1.1,1,1.1c1.7-0.1,3.5,0,5.2,0c1.7,0,2.5,0.8,2.6,2.5
		c0,2.9,0,5.7,0,8.6c-0.1,3.7-2.9,6.6-6.6,6.6c-10.9,0-21.8,0.1-32.7,0c-6.2,0-11.9-4.2-14-10.1c-0.6-1.8-1.1-3.6-1.7-5.4
		c-0.3,0.5-0.2,1-0.2,1.5c0,13.1,0,26.1,0,39.2c0,1.1-0.2,1.6-1.4,1.4c-1-0.1-2,0-3-0.1c0-6.9,0-13.8,0-20.7c0-1-0.2-1.4-1.3-1.4
		c-10.9,0-21.8,0-32.7,0c-1.1,0-1.3,0.3-1.3,1.4C26.4,127.4,26.4,134.3,26.4,141.2z M48.6,72c1.4,1.4,2.8,2.7,4.2,4.1
		c1.7,1.7,1.7,1.7,0,3.4c-1.4,1.4-1.4,1.4-2.8,0.1c-0.3-0.3-0.5-0.9-0.9-0.6c-0.4,0.2-0.4,0.8-0.3,1.2c0,0.2,0.1,0.5,0.1,0.7
		c1.3,6.5,2.6,13.1,3.9,19.6c0.2,1.2,0,2.1-0.8,2.9c-2,2-4,4-6,5.9c-1.4,1.4-2.4,1.4-3.8,0c-2-2-4-4-6-5.9c-0.8-0.8-1.1-1.7-0.8-2.9
		c1.3-6.5,2.6-13.1,3.9-19.6c0.1-0.4,0.2-0.8,0.1-1.2c0-0.3-0.1-0.6-0.3-0.7c-0.3-0.2-0.5,0.1-0.6,0.3c-1.8,1.5-1.8,1.5-3.4-0.1
		c-0.2-0.2-0.3-0.3-0.5-0.5c-0.8-0.6-0.8-1,0-1.7c1.7-1.6,3.4-3.3,5.2-5.1c-1.2-0.4-1.8-1.3-3-1.3c-4.2,0-8.5,0-12.7,0
		c-5.9,0.1-10.7,4.9-10.8,10.7c-0.1,11.5,0,23.1,0,34.6c0,0.8,0.2,1,1,1c2.2-0.1,4.4-0.1,6.6,0c1.1,0,1.3-0.3,1.3-1.3
		c0-9.6,0-19.1,0-28.7c0-3.2,0-3.1,3.1-3.2c1.1,0,1.3,0.3,1.3,1.4c0,9.4,0,18.8,0,28.2c0,1.1,0.2,1.5,1.4,1.5
		c10.9-0.1,21.7-0.1,32.6,0c1.1,0,1.4-0.2,1.4-1.4c-0.1-9.4,0-18.9,0-28.3c0-2.3,0.5-3.2,1.9-3.4c1.3-0.2,2.1,0.6,2.8,2.8
		c1.8,6,3.7,11.9,5.5,17.9c1.5,4.7,5.4,7.9,10,8c4.7,0.1,9.5,0,14.2,0.1c0.7,0,0.9-0.2,0.9-0.9c0-2.3-0.1-4.5,0-6.8
		c0-1-0.3-1.2-1.3-1.2c-3.8,0-7.5,0-11.3,0c-2,0-2.5-0.4-3-2.3c-2-6.8-3.9-13.7-5.9-20.5c-1.5-5.1-5.6-8.1-10.9-8.1
		c-4,0-7.9,0.1-11.9,0C51.3,70.5,49.9,70.7,48.6,72z M50.7,58.1C50.7,58.1,50.7,58.1,50.7,58.1c0-0.5,0-0.9,0-1.4
		c-0.1-1.3,0.6-3-0.3-3.7c-0.7-0.6-2.4,0-3.6-0.2c-3-0.5-5,0.8-7,2.9c-1.8,1.8-2.6,3.6-2.4,6.1c0.3,3.6,3,6.5,6.6,6.5
		c3.6,0,6.6-2.8,6.7-6.5C50.7,60.6,50.7,59.3,50.7,58.1z M108.5,110.3c1.9,0,3.9,0,5.8,0c1.8,0,2.6-0.8,2.7-2.6c0-1.7-0.1-3.5,0-5.2
		c0-0.9-0.3-1.1-1.1-1c-1.7,0.1-3.4,0-5.1,0c-1.9,0-2.6-0.8-2.7-2.7c0-0.9,0-1.7,0-2.6c0-0.5-0.1-1-0.7-1.2
		c-0.5-0.2-0.9,0.2-1.2,0.5c-1.4,1.4-2.8,2.9-4.3,4.3c-0.4,0.4-0.5,0.8-0.5,1.3c0,2.8,0.1,5.5,0,8.3c0,0.9,0.3,1,1.1,1
		C104.6,110.2,106.6,110.3,108.5,110.3z M48.2,100.3c0-0.1,0-0.2,0-0.3c-1.2-5.9-2.4-11.8-3.5-17.7c-0.1-0.3,0-0.7-0.5-0.7
		c-0.5,0-0.5,0.4-0.6,0.8c-0.9,4.6-1.5,9.4-2.9,13.9c-1,3.5-0.2,5.9,2.6,7.8c0.1,0.1,0.2,0.2,0.3,0.3c0.4,0.5,0.7,0.4,1.1,0
		c1-1.1,2.1-2.1,3.1-3.1C48,100.9,48.3,100.7,48.2,100.3z M22,125.8c0-1.2,0-2.4,0-3.6c0-0.7-0.2-0.9-0.9-0.8c-1.4,0-2.8,0-4.1,0
		c-1.2,0-2.9-0.4-3.6,0.2c-0.8,0.7-0.2,2.4-0.3,3.7c0,3.8,1.8,5,7.4,5c1.4,0,1.4,0,1.4-4.1C22,125.9,22,125.8,22,125.8z M37.6,51.8
		c0.7-0.7,1.3-1.3,1.8-1.9c0.9-1.2,2.1-1.6,3.6-1.5c2.7,0.1,5.3,0,8,0.1c1,0,1.9-0.2,2.7-0.7c0.9-0.5,1.5-1.1,1.3-2.2
		c-0.3-1.1-1.1-1.5-2.2-1.5c-2.9,0-5.8,0-8.7,0C40,44.1,37.2,47.4,37.6,51.8z M44.1,77.1c1.2,0.2,1.4-0.9,1.5-1.6
		c0-0.7-0.8-1.5-1.5-1.5c-0.7,0-1.5,0.8-1.5,1.5C42.6,76.1,42.8,77.2,44.1,77.1z"/>
	<path class="st0" d="M107.2,8.7c9,0,17.9,0,26.9,0c4.5,0,7.2,2.7,7.2,7.2c0,12.8,0,25.7,0,38.5c0,4.6-2.7,7.3-7.3,7.3
		c-11.6,0-23.3,0-34.9,0c-0.8,0-1.5,0.2-2.1,0.8c-3.7,3.1-7.5,6.2-11.2,9.4c-0.9,0.7-1.7,1.2-2.9,0.7c-1.1-0.5-1.3-1.5-1.3-2.5
		c0-2.4,0-4.8,0-7.2c0-0.9-0.3-1.2-1.2-1.1c-0.8,0.1-1.6,0.1-2.5-0.1c-3.1-0.7-5.2-3.3-5.2-6.4c0-13.3,0-26.6,0-39.9
		c0-3.7,3-6.5,6.8-6.5C88.8,8.6,98,8.7,107.2,8.7z M86.1,65.8c3.1-2.6,6-5,8.8-7.4c1-0.8,2-1.2,3.2-1.2c12,0,23.9,0,35.9,0
		c2.1,0,2.8-0.7,2.8-2.8c0-12.9,0-25.8,0-38.6c0-1.9-0.8-2.7-2.6-2.7c-18.1,0-36.2,0-54.4,0c-1.8,0-2.6,0.8-2.6,2.6
		c0,2.8,0,5.6,0,8.4c0,10.1,0,20.2,0,30.4c0,2,0.8,2.8,2.7,2.8c1,0,2,0,3,0c2.4,0,3.1,0.7,3.1,3.1C86.1,62.1,86.1,63.8,86.1,65.8z"
		/>
	<path class="st1" d="M26.4,141.2c0-6.9,0-13.8,0-20.7c0-1,0.2-1.4,1.3-1.4c10.9,0,21.8,0,32.7,0c1.1,0,1.3,0.3,1.3,1.4
		c0,6.9,0,13.8,0,20.7c-5.2,0-10.3,0-15.5,0c0-2.6,0-5.2,0-7.7c0-3.5,0-3.4-3.5-3.3c-0.7,0-0.9,0.3-0.9,1c0,3.4,0,6.7,0,10.1
		C36.7,141.2,31.6,141.2,26.4,141.2z"/>
	<path class="st0" d="M41.9,141.2c0-3.4,0-6.7,0-10.1c0-0.7,0.2-0.9,0.9-1c3.5-0.1,3.5-0.1,3.5,3.3c0,2.6,0,5.2,0,7.7
		C44.8,141.2,43.4,141.2,41.9,141.2z"/>
	<path class="st2" d="M48.6,72c1.4-1.2,2.7-1.5,4.3-1.5c4,0.1,7.9,0,11.9,0c5.2,0,9.4,3,10.9,8.1c2,6.8,3.9,13.7,5.9,20.5
		c0.6,1.9,1.1,2.3,3,2.3c3.8,0,7.5,0,11.3,0c0.9,0,1.3,0.1,1.3,1.2c-0.1,2.3-0.1,4.5,0,6.8c0,0.7-0.2,0.9-0.9,0.9
		c-4.7,0-9.5,0.1-14.2-0.1c-4.6-0.1-8.5-3.3-10-8c-1.9-6-3.7-11.9-5.5-17.9c-0.7-2.2-1.4-3-2.8-2.8c-1.4,0.2-1.9,1.1-1.9,3.4
		c0,9.4,0,18.9,0,28.3c0,1.2-0.3,1.4-1.4,1.4c-10.9,0-21.7-0.1-32.6,0c-1.2,0-1.4-0.4-1.4-1.5c0-9.4,0-18.8,0-28.2
		c0-1.1-0.2-1.4-1.3-1.4c-3.1,0.1-3.1,0-3.1,3.2c0,9.6,0,19.1,0,28.7c0,1-0.2,1.4-1.3,1.3c-2.2-0.1-4.4-0.1-6.6,0c-0.8,0-1-0.2-1-1
		c0-11.5,0-23.1,0-34.6c0-5.9,4.9-10.6,10.8-10.7c4.2-0.1,8.5,0,12.7,0c1.2,0,1.8,0.9,3,1.3c-1.8,1.8-3.5,3.5-5.2,5.1
		c-0.7,0.7-0.7,1.1,0,1.7c0.2,0.1,0.3,0.3,0.5,0.5c1.7,1.7,1.7,1.7,3.4,0.1c0.2-0.2,0.3-0.5,0.6-0.3c0.2,0.1,0.3,0.5,0.3,0.7
		c0,0.4-0.1,0.8-0.1,1.2c-1.3,6.5-2.6,13.1-3.9,19.6c-0.2,1.2,0,2.1,0.8,2.9c2,2,4,4,6,5.9c1.4,1.3,2.4,1.3,3.8,0c2-2,4-4,6-5.9
		c0.8-0.8,1.1-1.7,0.8-2.9c-1.3-6.5-2.6-13.1-3.9-19.6c0-0.2-0.1-0.5-0.1-0.7c-0.1-0.5-0.1-1,0.3-1.2c0.5-0.2,0.7,0.4,0.9,0.6
		c1.4,1.3,1.4,1.3,2.8-0.1c1.7-1.7,1.7-1.7,0-3.4C51.4,74.7,50,73.3,48.6,72z"/>
	<path class="st3" d="M50.7,58.1c0,1.2,0,2.5,0,3.7c-0.1,3.7-3.1,6.5-6.7,6.5c-3.5,0-6.3-2.9-6.6-6.5c-0.2-2.5,0.6-4.3,2.4-6.1
		c2.1-2.1,4.1-3.3,7-2.9c1.2,0.2,2.9-0.4,3.6,0.2c0.8,0.7,0.2,2.4,0.3,3.7C50.7,57.2,50.7,57.6,50.7,58.1
		C50.7,58.1,50.7,58.1,50.7,58.1z"/>
	<path class="st3" d="M108.5,110.3c-2,0-4,0-5.9,0c-0.8,0-1.1-0.1-1.1-1c0.1-2.8,0-5.5,0-8.3c0-0.5,0.1-0.9,0.5-1.3
		c1.5-1.4,2.9-2.9,4.3-4.3c0.3-0.3,0.7-0.7,1.2-0.5c0.6,0.2,0.7,0.7,0.7,1.2c0,0.9,0,1.7,0,2.6c0,1.9,0.8,2.7,2.7,2.7
		c1.7,0,3.4,0,5.1,0c0.8,0,1.1,0.1,1.1,1c-0.1,1.7,0,3.5,0,5.2c0,1.8-0.8,2.6-2.7,2.6C112.4,110.3,110.5,110.3,108.5,110.3z"/>
	<path class="st4" d="M48.2,100.3c0.1,0.4-0.2,0.6-0.4,0.9c-1,1-2.1,2.1-3.1,3.1c-0.4,0.4-0.7,0.5-1.1,0c-0.1-0.1-0.2-0.2-0.3-0.3
		c-2.8-2-3.6-4.3-2.6-7.8c1.3-4.5,1.9-9.2,2.9-13.9c0.1-0.3,0-0.8,0.6-0.8c0.4,0,0.4,0.4,0.5,0.7c1.2,5.9,2.4,11.8,3.5,17.7
		C48.2,100.1,48.2,100.2,48.2,100.3z"/>
	<path class="st3" d="M22,125.8c0,0.1,0,0.2,0,0.3c0,4.1,0,4.1-1.4,4.1c-5.7,0-7.4-1.2-7.4-5c0-1.3-0.6-3,0.3-3.7
		c0.7-0.6,2.4-0.2,3.6-0.2c1.4,0,2.8,0,4.1,0c0.7,0,0.9,0.2,0.9,0.8C22,123.4,22,124.6,22,125.8z"/>
	<path class="st1" d="M37.6,51.8c-0.4-4.4,2.4-7.7,6.5-7.8c2.9,0,5.8,0,8.7,0c1.1,0,1.9,0.4,2.2,1.5c0.3,1.1-0.4,1.7-1.3,2.2
		c-0.9,0.5-1.7,0.7-2.7,0.7c-2.7-0.1-5.3,0.1-8-0.1c-1.5-0.1-2.7,0.4-3.6,1.5C38.9,50.5,38.3,51.1,37.6,51.8z"/>
	<path class="st4" d="M44.1,77.1c-1.3,0.1-1.5-1-1.5-1.6c0-0.7,0.8-1.5,1.5-1.5c0.7,0,1.5,0.8,1.5,1.5
		C45.5,76.2,45.3,77.3,44.1,77.1z"/>
	<path class="st1" d="M86.1,65.8c0-2,0-3.7,0-5.4c0-2.5-0.7-3.1-3.1-3.1c-1,0-2,0-3,0c-2,0-2.7-0.8-2.7-2.8c0-10.1,0-20.2,0-30.4
		c0-2.8,0-5.6,0-8.4c0-1.8,0.8-2.6,2.6-2.6c18.1,0,36.2,0,54.4,0c1.9,0,2.6,0.8,2.6,2.7c0,12.9,0,25.8,0,38.6c0,2.1-0.8,2.8-2.8,2.8
		c-12,0-23.9,0-35.9,0c-1.3,0-2.3,0.3-3.2,1.2C92.1,60.8,89.2,63.2,86.1,65.8z M84.4,21.9c-0.8,0-1.6,0-2.3,0c-1.1,0-2,0.3-2.4,1.4
		c-0.5,1.1,0,1.9,0.8,2.7c1.2,1.2,2.4,2.4,3.7,3.5c0.6,0.5,0.9,1,0.7,1.9c-0.4,1.7-0.6,3.4-0.8,5.2c-0.2,1,0,1.9,0.9,2.6
		c1,0.7,1.9,0.5,2.8-0.2c1.4-1,2.9-1.9,4.3-2.9c0.5-0.4,0.9-0.4,1.5,0c1.4,1,2.9,1.9,4.3,2.9c0.9,0.6,1.8,0.8,2.7,0.2
		c1-0.6,1.2-1.6,1-2.7c-0.3-1.8-0.5-3.5-0.9-5.3c-0.1-0.7,0-1.1,0.5-1.6c1.3-1.3,2.7-2.5,4-3.8c0.8-0.7,1.1-1.6,0.7-2.6
		c-0.4-1-1.2-1.4-2.3-1.4c-1.7,0-3.3,0-5,0c-0.7,0-1.1-0.2-1.4-0.8c-0.7-1.4-1.5-2.8-2.2-4.3c-0.5-0.9-1.1-1.5-2.1-1.5
		c-1.1,0-1.8,0.6-2.2,1.6c-0.4,0.7-0.8,1.3-1.1,2.1C88.6,21.4,87.1,22.7,84.4,21.9z M113.2,21.9c-0.8,0-1.6,0-2.3,0
		c-1.1,0-2,0.3-2.5,1.4c-0.5,1.1,0,2,0.7,2.7c1.3,1.2,2.6,2.5,3.9,3.7c0.5,0.4,0.7,0.8,0.5,1.5c-0.4,1.8-0.6,3.5-0.9,5.3
		c-0.2,1.1,0,2,0.9,2.7c1,0.6,1.9,0.4,2.8-0.3c1.4-0.9,2.8-1.8,4.1-2.8c0.7-0.5,1.2-0.4,1.8,0c1.4,1,2.8,1.9,4.2,2.8
		c0.9,0.6,1.8,0.8,2.7,0.1c0.9-0.6,1.1-1.5,0.9-2.6c-0.3-1.8-0.5-3.5-0.9-5.3c-0.2-0.8,0.1-1.2,0.6-1.7c1.3-1.3,2.7-2.5,4-3.8
		c0.7-0.7,1-1.5,0.6-2.5c-0.4-1-1.2-1.4-2.3-1.4c-1.7,0-3.3,0-5,0c-0.8,0-1.1-0.2-1.5-0.9c-0.6-1.3-1.4-2.6-2.1-3.9
		c-0.5-1-1.1-1.8-2.3-1.8c-1.3,0-1.8,0.9-2.3,1.9c-0.3,0.6-0.7,1.1-0.9,1.7C117.3,21.2,115.9,22.7,113.2,21.9z M107,50.6
		c2.3,0,4.6,0,6.9,0c3.1,0,3.1,0,3.1-3.1c0-1-0.2-1.3-1.3-1.3c-5.1,0.1-10.2,0-15.3,0c-3.4,0-3.3,0-3.3,3.3c0,1,0.4,1.1,1.2,1.1
		C101.2,50.6,104.1,50.6,107,50.6z M90.5,46.2c-2.3,0-2.3,0-2.3,2.2c0,2.2,0,2.2,2.2,2.2c2.2,0,2.2,0,2.2-2.2
		C92.7,46.2,92.7,46.2,90.5,46.2z M125.8,48.5c0-2.3,0-2.3-2.2-2.3c-2.2,0-2.2,0-2.2,2.2c0,2.2,0,2.2,2.2,2.2
		C125.8,50.6,125.8,50.6,125.8,48.5z"/>
	<path class="st0" d="M84.4,21.9c2.7,0.8,4.2-0.5,5-3c0.3-0.7,0.7-1.4,1.1-2.1c0.5-0.9,1.1-1.6,2.2-1.6c1,0,1.7,0.7,2.1,1.5
		c0.7,1.4,1.5,2.8,2.2,4.3c0.3,0.6,0.7,0.9,1.4,0.8c1.7,0,3.3,0,5,0c1.1,0,1.9,0.4,2.3,1.4c0.4,1,0.1,1.9-0.7,2.6
		c-1.3,1.3-2.6,2.6-4,3.8c-0.5,0.4-0.7,0.9-0.5,1.6c0.4,1.8,0.6,3.5,0.9,5.3c0.2,1.1,0,2-1,2.7c-0.9,0.6-1.8,0.4-2.7-0.2
		c-1.4-1-2.9-1.9-4.3-2.9c-0.5-0.4-0.9-0.4-1.5,0c-1.4,1-2.9,1.9-4.3,2.9c-0.9,0.6-1.8,0.8-2.8,0.2c-0.9-0.6-1.1-1.5-0.9-2.6
		c0.3-1.7,0.5-3.5,0.8-5.2c0.2-0.9-0.1-1.4-0.7-1.9c-1.3-1.1-2.5-2.4-3.7-3.5c-0.8-0.8-1.3-1.6-0.8-2.7c0.4-1.1,1.3-1.5,2.4-1.4
		C82.8,21.9,83.6,21.9,84.4,21.9z M92.7,22.1c-1.2,2.5-2,5-5.5,4.3c2.6,1.6,2.5,3.8,2,6.3c2.4-2.6,4.7-2.2,7.2-0.1
		c-0.9-2.6-0.5-4.6,1.9-6.3C94.7,27.2,93.9,24.5,92.7,22.1z"/>
	<path class="st0" d="M113.2,21.9c2.8,0.8,4.1-0.7,5-3c0.2-0.6,0.6-1.1,0.9-1.7c0.5-1,1.1-1.9,2.3-1.9c1.2,0,1.8,0.8,2.3,1.8
		c0.7,1.3,1.4,2.6,2.1,3.9c0.3,0.7,0.7,0.9,1.5,0.9c1.7-0.1,3.3,0,5,0c1.1,0,1.9,0.4,2.3,1.4c0.4,1,0.1,1.8-0.6,2.5
		c-1.3,1.3-2.6,2.6-4,3.8c-0.5,0.5-0.7,0.9-0.6,1.7c0.4,1.7,0.6,3.5,0.9,5.3c0.2,1,0,1.9-0.9,2.6c-0.9,0.6-1.8,0.5-2.7-0.1
		c-1.4-1-2.9-1.9-4.2-2.8c-0.7-0.5-1.1-0.5-1.8,0c-1.3,1-2.7,1.8-4.1,2.8c-0.9,0.6-1.8,0.9-2.8,0.3c-1-0.6-1.1-1.6-0.9-2.7
		c0.3-1.8,0.5-3.5,0.9-5.3c0.1-0.7-0.1-1.1-0.5-1.5c-1.3-1.2-2.6-2.5-3.9-3.7c-0.8-0.8-1.2-1.6-0.7-2.7c0.5-1.1,1.4-1.4,2.5-1.4
		C111.6,21.9,112.4,21.9,113.2,21.9z M126.8,26.5c-1.3-0.3-2.6,0.1-3.6-1c-0.8-0.9-1-2.2-1.9-3.1c-0.6,1.1-1.2,2.2-1.9,3.2
		c-0.8,1.1-2.2,0.6-3.6,1c2.7,1.4,2.4,3.7,2,6.2c2.4-2.5,4.7-2.4,7.1,0C124.4,30.2,124.3,28,126.8,26.5z"/>
	<path class="st0" d="M107,50.6c-2.9,0-5.8,0-8.7,0c-0.8,0-1.2-0.1-1.2-1.1c0-3.3,0-3.3,3.3-3.3c5.1,0,10.2,0,15.3,0
		c1.1,0,1.3,0.3,1.3,1.3c0,3.1,0,3.1-3.1,3.1C111.6,50.6,109.3,50.6,107,50.6z"/>
	<path class="st0" d="M90.5,46.2c2.1,0,2.1,0,2.1,2.2c0,2.2,0,2.2-2.2,2.2c-2.2,0-2.2,0-2.2-2.2C88.3,46.2,88.3,46.2,90.5,46.2z"/>
	<path class="st0" d="M125.8,48.5c0,2.1,0,2.1-2.2,2.1c-2.2,0-2.2,0-2.2-2.2c0-2.2,0-2.2,2.2-2.2C125.8,46.2,125.8,46.2,125.8,48.5z
		"/>
	<path class="st2" d="M92.7,22.1c1.3,2.4,2,5.1,5.5,4.2c-2.4,1.6-2.8,3.7-1.9,6.3c-2.5-2.2-4.8-2.5-7.2,0.1c0.5-2.5,0.6-4.7-2-6.3
		C90.7,27.2,91.4,24.6,92.7,22.1z"/>
	<path class="st2" d="M126.8,26.5c-2.5,1.5-2.4,3.7-1.8,6.2c-2.4-2.4-4.7-2.5-7.1,0c0.4-2.5,0.7-4.8-2-6.2c1.3-0.3,2.7,0.2,3.6-1
		c0.7-1,1.2-2,1.9-3.2c0.9,0.9,1.2,2.2,1.9,3.1C124.2,26.7,125.5,26.2,126.8,26.5z"/>
</g>
</svg>
