<?xml version="1.0" encoding="utf-8"?>
<!-- Generator: Adobe Illustrator 25.2.1, SVG Export Plug-In . SVG Version: 6.00 Build 0)  -->
<svg version="1.1" id="圖層_1" xmlns="http://www.w3.org/2000/svg" xmlns:xlink="http://www.w3.org/1999/xlink" x="0px" y="0px"
	 viewBox="0 0 150 150" style="enable-background:new 0 0 150 150;" xml:space="preserve">
<style type="text/css">
	.st0{fill:#020102;}
	.st1{fill:#FEFEFE;}
	.st2{fill:#F3D922;}
	.st3{fill:#FDCCB5;}
	.st4{fill:#FEC331;}
</style>
<g>
	<path class="st0" d="M66.9,78.5c2.2,0,4.2,0,6.2,0c0.6,0,0.9-0.4,1.2-0.7c3-3,6.1-6.1,9.1-9.1c1.6-1.6,2.5-1.6,4,0
		c1.7,1.7,3.4,3.4,5.4,5.4c0-1.5,0-2.8,0-4.1c0-1.3,0-2.6,0-4c0-1.6,0.8-2.4,2.4-2.4c1.6,0,3.3-0.1,4.9,0c1,0.1,1.2-0.2,1.2-1.2
		c-0.1-5.6,0-11.1-0.1-16.7c0-1,0.2-1.3,1.2-1.2c3.1,0.1,3.1,0,3.1,3.1c0,5,0,10,0,15c0,0.8,0.2,1.1,1.1,1.1c1.6-0.1,3.3,0,4.9,0
		c1.7,0,2.5,0.8,2.5,2.5c0,2.5,0,5,0,7.5c0,0,0,0.1,0.1,0.3c1.8-1.8,3.5-3.5,5.2-5.2c1.6-1.6,2.5-1.6,4,0c3.7,3.7,7.4,7.4,11,11.1
		c1.5,1.5,1.5,2.4,0,3.9c-1.7,1.7-3.5,3.5-5.4,5.4c2.8,0,5.2,0,7.7,0c2.1,0,2.8,0.7,2.8,2.9c0,5.2,0,10.4,0,15.6
		c0,2-0.7,2.7-2.7,2.7c-2.5,0-4.9,0-7.7,0c1.7,1.7,3.1,3.1,4.6,4.6c2.7,2.7,2.7,2.9,0,5.6c-3.4,3.4-6.8,6.8-10.2,10.2
		c-1.5,1.5-2.4,1.5-3.9,0c-1.7-1.7-3.5-3.5-5.4-5.5c0,2.8,0,5.2,0,7.6c0,2.2-0.7,2.9-2.8,2.9c-5.2,0-10.3,0-15.5,0
		c-2.2,0-2.9-0.7-2.9-2.8c0-2.5,0-4.9,0-7.6c-1,1-1.8,1.8-2.6,2.6c-0.4,0.4-0.2,0.7,0,1c1.5,3.5-0.7,6.8-4.5,6.8
		c-18.2,0-36.4,0-54.6,0c-10.3,0-18.7-8.5-18.8-18.8c0-7.2,0-14.4,0-21.6c0.1-9.2,7.6-16.7,16.8-16.8c3.2,0,6.4,0,9.7,0
		c0.9,0,1.1-0.2,1.1-1.1c0-8.6,0-17.1,0-25.7c0-8.1,5.4-13.5,13.5-13.5c4.2,0,8.5,0,12.7,0c3.5,0,6.4,2,7.4,5.2
		c1,3.2-0.2,6.5-3.2,8.5c-0.6,0.4-0.7,0.8-0.7,1.4c0,5.1,0,10.2,0,15.4C69.5,72.9,69.1,74.5,66.9,78.5z M135.2,99.7
		c0-1.8,0-3.6,0-5.4c0-0.8-0.2-1-1-1c-2,0-4,0-6,0c-1.8,0-3.2-0.6-3.9-2.3c-0.7-1.7-0.1-3.2,1.1-4.4c1.4-1.4,2.7-2.8,4.1-4.1
		c0.6-0.5,0.7-0.9,0-1.5c-2.6-2.5-5.1-5-7.6-7.6c-0.6-0.6-0.9-0.5-1.5,0.1c-1.5,1.5-3,3-4.5,4.5c-1.2,1.1-2.5,1.4-4,0.8
		c-1.5-0.7-2.3-1.9-2.3-3.5c0-1.4,0-2.7,0-4.1c0-3.3,0-3.3-3.3-3.2c-0.7,0-0.9,0.1-0.9,0.9c0,2.3,0,4.5,0,6.8c0,0.6,0.1,0.8,0.7,0.9
		c1.4,0.2,1.8,1.5,0.9,2.5c-1,1.1-2.2,2.2-3.2,3.3c-0.3,0.3-0.5,0.5-0.9,0.1c-1.2-1.2-2.4-2.4-3.5-3.6c-0.7-0.8-0.4-2.1,0.5-2.2
		c1.6-0.1,1.2-1.1,1.2-2c0-1.1,0-2.3,0-3.4c0-3.3,0-3.3-3.3-3.3c-0.8,0-1,0.2-1,1c0,2,0,4,0,6c0,1.8-0.7,3.2-2.4,3.9
		c-1.7,0.7-3.1,0.2-4.3-1.1c-1.4-1.4-2.8-2.7-4.1-4.1c-0.6-0.7-1-0.7-1.7,0c-2.4,2.5-4.9,5-7.4,7.4c-0.6,0.6-0.7,0.9,0,1.6
		c1.5,1.4,2.8,2.8,4.2,4.2c1.2,1.2,1.7,2.7,1,4.3c-0.7,1.6-2,2.3-3.8,2.3c-2,0-4.1,0-6.1,0c-0.8,0-1,0.2-1,1c0,3.6,0,7.2,0,10.7
		c0,0.8,0.2,1.1,1,1c2-0.1,4.1,0,6.1,0c1.7,0,2.9,0.7,3.7,2.1c0.7,1.4,0.5,2.8-0.6,4.1c-0.4,0.5-0.5,0.8-0.3,1.4
		c0.4,1.2,0.2,2.3-0.3,3.5c-0.7,1.4-1.4,2.8-2.1,4.1c-0.3,0.6-0.2,0.9,0.4,1.2c2,0.9,4,1.9,5.9,3c0.7,0.4,1.1,0.2,1.6-0.3
		c1.1-1.2,2.4-2.4,3.6-3.6c1.2-1.2,2.7-1.6,4.2-0.9c1.6,0.7,2.3,2,2.3,3.7c0,2.1,0,4.2,0,6.2c0,0.7,0.2,0.9,0.9,0.9
		c3.6,0,7.2,0,10.9,0c0.9,0,1-0.3,1-1.1c0-1.9,0-3.9,0-5.8c0-1.8,0.6-3.2,2.3-3.9c1.7-0.7,3.2-0.2,4.4,1.1c1.4,1.4,2.8,2.8,4.2,4.2
		c0.5,0.5,0.8,0.5,1.4,0c2.5-2.6,5-5.1,7.6-7.6c0.6-0.6,0.6-0.9,0-1.5c-1.5-1.4-2.9-2.9-4.3-4.3c-1.2-1.2-1.7-2.6-1-4.2
		c0.7-1.6,2-2.4,3.8-2.4c1.9,0,3.8-0.1,5.7,0c1.2,0.1,1.5-0.4,1.4-1.5C135.1,102.9,135.2,101.3,135.2,99.7z M45.4,101.1
		c-0.6,0.7-1.2,1.5-1.9,2.2c-1.3,1.2-2.9,0.7-3.5-0.9c-0.1-0.4-0.2-0.8-0.4-1.1c-1.8-5.9-3.5-11.7-5.3-17.6c-0.2-0.7-0.5-1-1.2-1
		c-1.3,0.1-2.6,0-3.8,0c-7.1,0.1-12.6,5.6-12.7,12.7c0,7.1-0.1,14.1,0,21.2c0.1,8.3,6.5,14.8,14.8,14.8c9.5,0.1,19.1,0,28.6,0
		c0.9,0,1.1-0.2,1.1-1.1c0-3.5-0.1-7,0-10.5c0-1-0.3-1.2-1.3-1.2c-8,0-16,0-24,0c-3.9,0-6.6-2.7-6.6-6.6c0-3.1,0-6.3,0-9.4
		c0-3.1,0-3.1,3.2-3.1c0.9,0,1.1,0.2,1.1,1.1c0,3.8,0,7.5,0,11.3c0,1.7,0.8,2.5,2.5,2.5c2.4,0,4.8-0.1,7.1,0c1,0,1.3-0.3,1.4-1.2
		c0.4-3.5,0.9-7,1.5-10.5C46.1,102.2,46,101.7,45.4,101.1z M65.3,62.8c0-3.3,0-6.1,0-8.8c0-0.7-0.1-1-0.9-1c-3.4,0-6.8,0-10.2,0
		c-0.5,0-0.9,0.2-1.3,0.5c-2.8,2.8-5.5,5.6-8.3,8.3c-0.4,0.4-0.5,0.8-0.5,1.3c0,2.4,0,4.8,0,7.1c0.1,5.4,4.4,9.8,9.7,10.2
		C59.2,81,64.1,77.3,65,72C65.6,68.7,65.1,65.5,65.3,62.8z M77.8,89.1c-1.5-1.5-2.8-2.6-3.9-4c-1.6-2-3.4-2.9-5.9-2.4
		c-0.1,0-0.2,0-0.3,0c-0.7-0.1-1,0.2-1.2,0.9c-0.4,1.5-0.9,3-1.3,4.4c-1.4,4.7-2.8,9.4-4.2,14c-0.6,2-2.3,2.4-3.9,1
		c-0.4-0.4-0.7-0.8-1.1-1.1c-0.2-0.2-0.4-0.7-0.8-0.6c-0.4,0.2-0.5,0.7-0.5,1.1c0.5,3.8,1.1,7.5,1.6,11.3c0,0.3,0,0.7,0.5,0.7
		c2,0,4.1,0.3,6.1-0.1c4.9-1.2,9.7-2.7,14.7-4.1c-2.8,0-5.3,0-7.8,0c-1.8,0-2.6-0.8-2.6-2.6c0-5.3,0-10.7,0-16
		c0-1.9,0.8-2.6,2.7-2.6C72.5,89.1,75,89.1,77.8,89.1z M77.6,114.7c-4.1,1.2-8,2.3-11.8,3.3c-0.6,0.2-0.5,0.6-0.5,1
		c0,3.8,0,7.7,0,11.5c0,0.7,0.2,0.9,0.9,0.9c6.4,0,12.8,0,19.2,0c0.4,0,0.9,0.1,1-0.3c0.2-0.6-0.4-0.7-0.8-0.9
		c-3.3-1.6-6.5-3.3-9.8-4.9c-2.3-1.1-2.5-1.9-1.4-4.2C75.4,119.1,76.5,117,77.6,114.7z M44.1,56.4c2.4-2.4,4.5-4.4,6.5-6.6
		c0.7-0.7,1.5-1.1,2.6-1.1c4.3,0,8.6,0,12.8,0c2,0,3.5-1.4,3.5-3.2c0-1.8-1.4-3.1-3.4-3.1c-4.5,0-9.1,0-13.6,0c-4,0-7.4,2.8-8.1,6.8
		C43.8,51.5,44.2,53.8,44.1,56.4z M39.7,82.8c-0.2,0.3-1.4-0.7-1,0.8c1.4,4.5,2.7,8.9,4,13.4c0.2,0.8,0.5,0.7,0.9,0.2
		c1.1-1.2,2.3-2.3,3.5-3.5c0.6-0.5,0.5-0.9,0.1-1.4c-2-2.9-3.9-5.8-5.9-8.8C40.9,82.8,40.5,82.6,39.7,82.8z M62.3,82.9
		c-1.2,0.7-2.8,0.6-3.6,1.7c-1.8,2.6-3.5,5.2-5.2,7.8c-0.3,0.5-0.3,0.8,0.1,1.1c1.2,1.2,2.4,2.4,3.6,3.6c0.5,0.5,0.7,0.4,0.8-0.3
		C59.5,92.3,60.9,87.6,62.3,82.9z M50.1,114.5c0.4,0,0.7,0,0.9,0c1,0.2,1.3-0.2,1.1-1.3c-0.5-2.8-0.8-5.6-1.2-8.4
		c0-0.3,0.1-0.9-0.5-0.9c-0.4,0-0.3,0.6-0.4,0.9c-0.4,2.7-0.7,5.4-1.2,8.1C48.6,114.3,48.9,114.8,50.1,114.5z M45.4,82
		c1.6,2.5,3.3,4.9,5,7.5c1.1-1.6,2-3.1,3.1-4.7C50.4,84.6,47.9,83.4,45.4,82z M50.4,99.6c1.2,0.2,1.5-0.9,1.5-1.6
		c0-0.7-0.8-1.2-1.4-1.6c-0.2-0.1-1.7,1.4-1.5,1.6C49.3,98.7,49.2,99.8,50.4,99.6z"/>
	<path class="st0" d="M35.6,8.5c6.8,0,13.6,0,20.4,0c2.2,0,2.9,0.7,2.9,2.8c0,2.2,0.1,4.3,0,6.5c-0.1,1.2,0.3,1.4,1.4,1.3
		c1.3-0.1,2.6,0,4,0c0.8,0,1.1,0.1,1.1,1c0,3.3,0,3.3-3.2,3.3c-1,0-2.4-0.3-2.9,0.2c-0.7,0.6-0.2,2-0.2,3c0,1.6,0,3.2,0,4.8
		c0,1.9-0.8,2.6-2.7,2.6c-7.9,0-15.8,0-23.7,0c-1,0-1.2,0.2-1.2,1.2c0.1,5.6,0,11.2,0,16.8c0,0.9-0.2,1.1-1.1,1.1
		c-3.2,0-3.2,0-3.2-3.2c0-4.9,0-9.9,0-14.8c0-0.8-0.2-1.1-1.1-1.1c-3.7,0.1-7.4,0-11.1,0c-1.9,0-2.7-0.7-2.7-2.6
		c0-6.8,0-13.5,0-20.3c0-1.8,0.8-2.6,2.6-2.6C21.8,8.5,28.7,8.5,35.6,8.5z M35.7,12.8c-6,0-12.1,0-18.1,0c-0.8,0-1.1,0.2-1.1,1.1
		c0,5,0,10,0,15c0,0.7,0.2,1,0.9,1c2.2,0,4.3,0,6.5,0c3.3,0,3.3,0,3.2-3.3c0-0.6-0.1-0.9-0.8-1c-1.3-0.2-1.7-1.5-0.9-2.5
		c1.1-1.2,2.2-2.3,3.3-3.4c0.3-0.3,0.5-0.4,0.9,0c1.1,1.2,2.3,2.3,3.4,3.5c0.7,0.8,0.4,2.1-0.5,2.2c-1.4,0.2-1.2,1-1.2,1.9
		c0,0.5,0,1,0,1.5c-0.1,0.8,0.2,1.1,1.1,1.1c7.1,0,14.1,0,21.2,0c1,0,1.1-0.4,1.1-1.2c0-4.9,0-9.7,0-14.6c0-1-0.2-1.2-1.2-1.2
		C47.6,12.8,41.6,12.8,35.7,12.8z"/>
	<path class="st0" d="M103.4,8.5c6.8,0,13.7,0,20.5,0c2.2,0,2.8,0.7,2.8,2.8c0,6.6,0,13.1,0,19.7c0,2.2-0.7,2.9-2.9,2.9
		c-5.7,0-11.4,0-17.1,0c-1,0-1.2,0.3-1.2,1.2c0.1,1.4,0,2.8,0,4.2c0,0.8-0.3,0.9-1,0.9c-3.3,0-3.3,0.1-3.3-3.2c0-1,0.3-2.4-0.2-2.9
		c-0.6-0.7-2-0.2-3-0.2c-5.1,0-10.1,0-15.2,0c-2.1,0-2.8-0.7-2.8-2.8c0-2.3,0-4.6,0-6.9c0-0.7-0.2-1-0.9-1c-2.9,0-5.8,0-8.7,0
		c-0.7,0-1-0.2-1-0.9c0-3.3-0.1-3.3,3.2-3.3c2.1,0,4.2,0,6.4,0c0.8,0,1.1-0.2,1.1-1.1c-0.1-2.2,0-4.4,0-6.6c0-2.3,0.6-2.9,2.9-2.9
		C89.8,8.5,96.6,8.5,103.4,8.5z M103.4,12.8c-6,0-12,0-18,0c-0.9,0-1.1,0.2-1.1,1.1c0.1,1.5,0,2.9,0,4.4c0,0.6,0.1,1,0.8,0.9
		c1.6-0.1,3.2,0,4.8,0c0.5,0,0.7-0.1,0.8-0.7c0.3-1.5,1.5-1.9,2.6-0.9c1.1,1,2.1,2.1,3.2,3.2c0.4,0.4,0.4,0.7,0,1.1
		c-1.1,1-2,2.1-3.1,3.1C92.3,26,91,25.6,90.7,24c-0.1-0.6-0.3-0.7-0.8-0.7c-1.6,0-3.2,0-4.8,0c-0.6,0-0.8,0.2-0.8,0.8
		c0,1.5,0.1,3,0,4.5c0,0.9,0.3,1.1,1.1,1.1c12,0,24,0,36,0c0.9,0,1.1-0.2,1.1-1.1c0-4.9-0.1-9.8,0-14.7c0-1-0.3-1.2-1.2-1.2
		C115.3,12.8,109.4,12.8,103.4,12.8z"/>
	<path class="st0" d="M31.3,59.5c0,2.1,0,2.1-2.1,2.1c-2.2,0-2.2,0-2.2-2.2c0-2.1,0-2.1,2.1-2.1C31.3,57.3,31.3,57.3,31.3,59.5z"/>
	<path class="st1" d="M135.2,99.7c0,1.6-0.1,3.3,0,4.9c0.1,1.1-0.2,1.6-1.4,1.5c-1.9-0.1-3.8,0-5.7,0c-1.8,0-3.1,0.7-3.8,2.4
		c-0.7,1.6-0.2,3,1,4.2c1.4,1.4,2.8,2.9,4.3,4.3c0.6,0.6,0.6,0.9,0,1.5c-2.6,2.5-5.1,5-7.6,7.6c-0.5,0.5-0.8,0.5-1.4,0
		c-1.4-1.4-2.8-2.8-4.2-4.2c-1.3-1.3-2.7-1.8-4.4-1.1c-1.7,0.7-2.4,2.1-2.3,3.9c0,1.9,0,3.9,0,5.8c0,0.7-0.1,1.1-1,1.1
		c-3.6-0.1-7.2,0-10.9,0c-0.7,0-0.9-0.2-0.9-0.9c0-2.1,0-4.1,0-6.2c0-1.7-0.7-3-2.3-3.7c-1.6-0.7-3-0.3-4.2,0.9
		c-1.2,1.2-2.4,2.3-3.6,3.6c-0.5,0.5-0.9,0.6-1.6,0.3c-1.9-1-3.9-2-5.9-3c-0.6-0.3-0.7-0.6-0.4-1.2c0.7-1.4,1.4-2.8,2.1-4.1
		c0.6-1.1,0.8-2.3,0.3-3.5c-0.2-0.6-0.1-1,0.3-1.4c1-1.2,1.3-2.6,0.6-4.1c-0.7-1.5-2-2.2-3.7-2.1c-2,0-4.1,0-6.1,0c-0.8,0-1-0.2-1-1
		c0-3.6,0-7.2,0-10.7c0-0.7,0.2-1,1-1c2,0.1,4.1,0,6.1,0c1.8,0,3.1-0.7,3.8-2.3c0.7-1.7,0.2-3.1-1-4.3c-1.4-1.4-2.8-2.8-4.2-4.2
		c-0.7-0.6-0.6-1,0-1.6c2.5-2.4,5-4.9,7.4-7.4c0.7-0.7,1-0.6,1.7,0c1.3,1.4,2.7,2.8,4.1,4.1c1.2,1.2,2.7,1.8,4.3,1.1
		c1.7-0.7,2.4-2.1,2.4-3.9c0-2,0-4,0-6c0-0.7,0.2-1,1-1c3.3-0.1,3.3-0.1,3.3,3.3c0,1.1,0,2.3,0,3.4c0,0.9,0.3,1.9-1.2,2
		c-0.9,0.1-1.2,1.4-0.5,2.2c1.1,1.3,2.3,2.4,3.5,3.6c0.4,0.4,0.6,0.2,0.9-0.1c1.1-1.1,2.2-2.2,3.2-3.3c1-1.1,0.5-2.3-0.9-2.5
		c-0.7-0.1-0.8-0.4-0.7-0.9c0-2.3,0-4.5,0-6.8c0-0.7,0.3-0.9,0.9-0.9c3.3-0.1,3.3-0.1,3.3,3.2c0,1.4,0,2.7,0,4.1
		c0,1.7,0.8,2.9,2.3,3.5c1.5,0.6,2.9,0.3,4-0.8c1.5-1.5,3-3,4.5-4.5c0.5-0.6,0.9-0.7,1.5-0.1c2.5,2.6,5,5.1,7.6,7.6
		c0.6,0.6,0.5,0.9,0,1.5c-1.4,1.3-2.7,2.7-4.1,4.1c-1.3,1.3-1.9,2.7-1.1,4.4c0.7,1.7,2.1,2.4,3.9,2.3c2,0,4,0,6,0c0.7,0,1,0.2,1,1
		C135.2,96.1,135.2,97.9,135.2,99.7z M116.1,99.7c0-7-5.7-12.7-12.7-12.7c-6.9,0-12.7,5.7-12.7,12.6c0,7.1,5.6,12.8,12.7,12.9
		C110.4,112.4,116.1,106.7,116.1,99.7z"/>
	<path class="st2" d="M45.4,101.1c0.7,0.7,0.7,1.2,0.7,1.8c-0.5,3.5-1,7-1.5,10.5c-0.1,0.9-0.4,1.2-1.4,1.2c-2.4-0.1-4.8,0-7.1,0
		c-1.7,0-2.5-0.8-2.5-2.5c0-3.8,0-7.5,0-11.3c0-0.9-0.2-1.1-1.1-1.1c-3.2,0-3.2,0-3.2,3.1c0,3.1,0,6.3,0,9.4c0,3.9,2.7,6.6,6.6,6.6
		c8,0,16,0,24,0c0.9,0,1.3,0.2,1.3,1.2c-0.1,3.5-0.1,7,0,10.5c0,0.9-0.2,1.1-1.1,1.1c-9.5,0-19.1,0-28.6,0
		c-8.3-0.1-14.8-6.5-14.8-14.8c-0.1-7.1,0-14.1,0-21.2c0-7.1,5.6-12.6,12.7-12.7c1.3,0,2.6,0,3.8,0c0.8,0,1,0.3,1.2,1
		c1.7,5.9,3.5,11.7,5.3,17.6c0.1,0.4,0.2,0.8,0.4,1.1c0.6,1.6,2.2,2,3.5,0.9C44.2,102.6,44.7,101.8,45.4,101.1z"/>
	<path class="st3" d="M65.3,62.8c-0.2,2.7,0.3,5.9-0.2,9.2c-0.9,5.3-5.8,9-11.2,8.6c-5.3-0.4-9.6-4.9-9.7-10.2c-0.1-2.4,0-4.8,0-7.1
		c0-0.5,0.1-0.9,0.5-1.3c2.8-2.8,5.6-5.5,8.3-8.3c0.4-0.4,0.7-0.5,1.3-0.5c3.4,0,6.8,0,10.2,0c0.8,0,0.9,0.3,0.9,1
		C65.2,56.7,65.3,59.5,65.3,62.8z M57.5,74.2c0.5,0,1,0,1.5,0c2.1,0,2.1,0,2.1-2.1c0-2.1,0-2.1-2.1-2.1c-1.8,0-3.8,0.6-5.3-0.5
		c-1.7-1.3-2.5-0.3-3.5,0.8c-0.1,0.1-0.2,0.3-0.4,0.4c-0.9,0.6-0.7,1.1,0.1,1.7C52.1,74,54.7,74.4,57.5,74.2z M52.5,63.6
		c1.1,0,2.1-0.9,2.1-2.1c0-1.1-0.9-2.1-2-2.2c-1.2,0-2.2,0.9-2.2,2.1C50.4,62.7,51.4,63.6,52.5,63.6z M63.1,61.5
		c0-1.1-1-2.1-2.1-2.1c-1.2,0-2.2,1-2.1,2.2c0,1.1,1,2.1,2.2,2C62.2,63.6,63.1,62.6,63.1,61.5z"/>
	<path class="st2" d="M77.8,89.1c-2.8,0-5.3,0-7.8,0c-1.9,0-2.7,0.7-2.7,2.6c0,5.3,0,10.7,0,16c0,1.8,0.8,2.6,2.6,2.6
		c2.5,0,5,0,7.8,0c-5.1,1.4-9.8,3-14.7,4.1c-1.9,0.5-4,0.1-6.1,0.1c-0.5,0-0.5-0.4-0.5-0.7c-0.5-3.7-1.1-7.5-1.6-11.3
		c-0.1-0.5,0.1-1,0.5-1.1c0.3-0.2,0.5,0.3,0.8,0.6c0.4,0.3,0.7,0.8,1.1,1.1c1.5,1.4,3.2,1,3.9-1c1.4-4.7,2.8-9.4,4.2-14
		c0.4-1.5,0.9-2.9,1.3-4.4c0.2-0.7,0.5-1,1.2-0.9c0.1,0,0.2,0,0.3,0c2.5-0.5,4.4,0.4,5.9,2.4C75,86.5,76.4,87.6,77.8,89.1z"/>
	<path class="st3" d="M77.6,114.7c-1.2,2.3-2.2,4.4-3.2,6.5c-1.1,2.3-0.9,3,1.4,4.2c3.3,1.6,6.5,3.3,9.8,4.9c0.4,0.2,1,0.3,0.8,0.9
		c-0.2,0.5-0.7,0.3-1,0.3c-6.4,0-12.8,0-19.2,0c-0.7,0-0.9-0.2-0.9-0.9c0-3.8,0-7.7,0-11.5c0-0.4,0-0.8,0.5-1
		C69.7,117,73.5,115.9,77.6,114.7z"/>
	<path class="st1" d="M44.1,56.4c0.1-2.6-0.2-4.9,0.2-7.1c0.8-4,4.1-6.8,8.1-6.8c4.5,0,9.1,0,13.6,0c2,0,3.4,1.3,3.4,3.1
		c0,1.8-1.5,3.2-3.5,3.2c-4.3,0-8.6,0-12.8,0c-1.1,0-1.8,0.3-2.6,1.1C48.5,52,46.4,54,44.1,56.4z"/>
	<path class="st2" d="M39.7,82.8c0.8-0.2,1.3,0.1,1.6,0.7c1.9,3,3.9,5.9,5.9,8.8c0.4,0.6,0.5,0.9-0.1,1.4c-1.2,1.1-2.3,2.3-3.5,3.5
		c-0.5,0.5-0.7,0.6-0.9-0.2c-1.3-4.5-2.6-8.9-4-13.4C38.2,82,39.5,83.1,39.7,82.8z"/>
	<path class="st2" d="M62.3,82.9c-1.4,4.7-2.8,9.3-4.2,14c-0.2,0.6-0.4,0.7-0.8,0.3c-1.2-1.2-2.4-2.4-3.6-3.6
		c-0.4-0.4-0.4-0.7-0.1-1.1c1.8-2.6,3.4-5.2,5.2-7.8C59.6,83.5,61.2,83.6,62.3,82.9z"/>
	<path class="st4" d="M50.1,114.5c-1.2,0.3-1.5-0.1-1.3-1.5c0.5-2.7,0.8-5.4,1.2-8.1c0-0.3-0.1-0.9,0.4-0.9c0.6,0,0.4,0.6,0.5,0.9
		c0.4,2.8,0.7,5.6,1.2,8.4c0.2,1.1-0.1,1.4-1.1,1.3C50.7,114.5,50.5,114.5,50.1,114.5z"/>
	<path class="st3" d="M45.4,82c2.5,1.4,5,2.5,8.1,2.7c-1.1,1.6-2,3.1-3.1,4.7C48.7,86.9,47.1,84.5,45.4,82z"/>
	<path class="st4" d="M50.4,99.6c-1.2,0.1-1.1-0.9-1.5-1.5c-0.1-0.3,1.3-1.7,1.5-1.6c0.6,0.4,1.5,0.9,1.4,1.6
		C51.9,98.8,51.6,99.8,50.4,99.6z"/>
	<path class="st2" d="M35.7,12.8c5.9,0,11.8,0,17.7,0c1,0,1.2,0.3,1.2,1.2c-0.1,4.9,0,9.7,0,14.6c0,0.9-0.1,1.2-1.1,1.2
		c-7.1,0-14.1,0-21.2,0c-0.9,0-1.2-0.3-1.1-1.1c0.1-0.5,0-1,0-1.5c0-0.9-0.2-1.7,1.2-1.9c1-0.1,1.3-1.4,0.5-2.2
		c-1.1-1.2-2.3-2.3-3.4-3.5c-0.3-0.3-0.6-0.3-0.9,0c-1.1,1.1-2.3,2.2-3.3,3.4c-0.9,1-0.5,2.3,0.9,2.5c0.7,0.1,0.8,0.4,0.8,1
		c0.1,3.3,0.1,3.3-3.2,3.3c-2.2,0-4.3,0-6.5,0c-0.8,0-0.9-0.2-0.9-1c0-5,0-10,0-15c0-0.9,0.3-1.1,1.1-1.1
		C23.6,12.8,29.7,12.8,35.7,12.8z"/>
	<path class="st2" d="M103.4,12.8c6,0,11.9,0,17.9,0c1,0,1.3,0.2,1.2,1.2c-0.1,4.9,0,9.8,0,14.7c0,0.9-0.2,1.1-1.1,1.1
		c-12,0-24,0-36,0c-0.8,0-1.2-0.2-1.1-1.1c0.1-1.5,0-3,0-4.5c0-0.6,0.2-0.8,0.8-0.8c1.6,0,3.2,0,4.8,0c0.5,0,0.7,0.1,0.8,0.7
		c0.3,1.6,1.5,1.9,2.7,0.8c1.1-1,2.1-2.1,3.1-3.1c0.4-0.4,0.5-0.6,0-1.1c-1.1-1-2.1-2.1-3.2-3.2c-1.1-1-2.3-0.6-2.6,0.9
		c-0.1,0.6-0.3,0.7-0.8,0.7c-1.6,0-3.2-0.1-4.8,0c-0.8,0-0.9-0.3-0.8-0.9c0-1.5,0.1-2.9,0-4.4c0-0.9,0.2-1.1,1.1-1.1
		C91.4,12.8,97.4,12.8,103.4,12.8z"/>
	<path class="st0" d="M116.1,99.7c0,7-5.7,12.7-12.7,12.7c-7.1,0-12.7-5.8-12.7-12.9c0-6.9,5.8-12.6,12.7-12.6
		C110.4,87,116.1,92.7,116.1,99.7z M94.9,99.6c0,4.7,3.8,8.5,8.4,8.5c4.6,0,8.5-3.7,8.5-8.3c0.1-4.7-3.7-8.6-8.4-8.6
		C98.8,91.2,95,94.9,94.9,99.6z"/>
	<path class="st0" d="M57.5,74.2c-2.7,0.2-5.3-0.2-7.6-1.9c-0.8-0.6-1-1-0.1-1.7c0.1-0.1,0.3-0.2,0.4-0.4c1-1.1,1.7-2,3.5-0.8
		c1.5,1.1,3.5,0.4,5.3,0.5C61,70,61,70,61,72.1c0,2.1,0,2.1-2.1,2.1C58.4,74.2,58,74.2,57.5,74.2z"/>
	<path class="st0" d="M52.5,63.6c-1.1,0-2.1-0.9-2.1-2.1c0-1.2,1-2.2,2.2-2.1c1.1,0,2.1,1,2,2.2C54.6,62.7,53.7,63.6,52.5,63.6z"/>
	<path class="st0" d="M63.1,61.5c0,1.1-0.9,2.1-2.1,2.1c-1.1,0-2.1-0.9-2.2-2c-0.1-1.2,0.9-2.2,2.1-2.2
		C62.2,59.4,63.1,60.4,63.1,61.5z"/>
	<path class="st2" d="M94.9,99.6c0-4.7,3.9-8.5,8.6-8.4c4.7,0,8.4,3.9,8.4,8.6c-0.1,4.6-3.9,8.4-8.5,8.3
		C98.7,108.1,94.9,104.3,94.9,99.6z"/>
</g>
</svg>
