<?xml version="1.0" encoding="utf-8"?>
<!-- Generator: Adobe Illustrator 25.2.1, SVG Export Plug-In . SVG Version: 6.00 Build 0)  -->
<svg version="1.1" id="圖層_1" xmlns="http://www.w3.org/2000/svg" xmlns:xlink="http://www.w3.org/1999/xlink" x="0px" y="0px"
	 viewBox="0 0 400 630" style="enable-background:new 0 0 400 630;" xml:space="preserve">
<style type="text/css">
	.st0{fill:#FFFF56;}
	.st1{enable-background:new    ;}
	.st2{fill:none;stroke:#FEE102;stroke-width:2.2427;stroke-miterlimit:10;stroke-dasharray:5.6067,5.6067;}
	.st3{fill:none;stroke:#66665E;stroke-width:1.1213;}
	.st4{fill:#FEE102;}
	.st5{fill:#0C0C0C;}
	.st6{fill:#D1D1D1;}
	.st7{fill:none;stroke:#FFFF56;stroke-width:1.0853;stroke-miterlimit:10;}
</style>
<rect id="svg_73_1_" x="19.6" y="469.2" class="st0" width="360.7" height="3.6"/>
<g class="st1">
	<path d="M80.9,503.8c-0.1,1-0.3,1.5-0.5,1.8c-0.3,0.4-0.6,0.6-1.1,0.6c-0.4,0.1-1.1,0.1-1.8,0c0-0.4-0.2-1-0.4-1.3
		c0.6,0.1,1.2,0.1,1.5,0.1c0.3,0,0.4,0,0.5-0.3c0.1-0.2,0.2-0.4,0.3-1h-5.1c0.1-1,0.3-2.3,0.4-3.6h-1.1v-1.3h1.2
		c0.1-0.9,0.2-1.8,0.2-2.6c-0.1,0.2-0.3,0.4-0.4,0.5c-0.3-0.3-0.9-0.7-1.2-0.9c1-1.2,1.8-3.1,2.2-5.1l1.5,0.3
		c-0.1,0.5-0.3,1-0.4,1.5h5.5v1.4h-6c-0.2,0.5-0.4,0.9-0.6,1.4h5.7c0,0,0,0.5,0,0.7c0,1-0.1,2-0.1,2.8h1.2v1.3h-1.3
		c0,0.9-0.1,1.7-0.1,2.3h1.3v1.3H80.9z M79.6,502.5c0.1-0.6,0.1-1.4,0.1-2.3h-3.6c-0.1,0.8-0.2,1.6-0.2,2.3h2
		c-0.3-0.6-0.8-1.3-1.3-1.8l1-0.5c0.5,0.6,1.1,1.4,1.4,1.9l-0.7,0.4H79.6z M76.5,496.7c-0.1,0.7-0.1,1.4-0.2,2.2h1.8
		c-0.2-0.5-0.7-1.2-1.1-1.7l0.9-0.5H76.5z M79.8,498.9c0-0.6,0-1.4,0.1-2.2h-2c0.5,0.5,1,1.3,1.2,1.8l-0.7,0.4H79.8z M88.3,495.5
		c-0.4,2.7-1,4.9-1.9,6.7c0.8,1.3,1.8,2.3,3,3c-0.4,0.3-0.8,0.9-1.1,1.3c-1.1-0.7-2-1.7-2.8-2.9c-0.8,1.1-1.8,2-3.1,2.8
		c-0.2-0.3-0.7-0.9-1-1.2c1.4-0.8,2.5-1.8,3.3-3.1c-0.6-1.3-1.1-2.8-1.5-4.5c-0.2,0.5-0.5,0.9-0.7,1.2c-0.2-0.3-0.8-0.8-1.2-1.1
		c1.2-1.7,2-4.3,2.4-7.1l1.5,0.3c-0.2,1-0.4,2-0.6,2.9h4.6v1.4H88.3z M84.1,495.5c0.3,1.9,0.7,3.6,1.4,5.1c0.6-1.4,1-3.1,1.3-5.1
		H84.1z"/>
	<path d="M95.9,500v4.7c0,0.8-0.2,1.2-0.6,1.4c-0.5,0.2-1.2,0.3-2.2,0.3c-0.1-0.4-0.3-1-0.5-1.4c0.7,0,1.3,0,1.5,0
		c0.2,0,0.3-0.1,0.3-0.3v-4.2l-1.8,0.6l-0.4-1.5c0.6-0.2,1.4-0.4,2.2-0.6v-3.2h-2v-1.5h2v-3.3h1.5v3.3h1.7v1.5h-1.7v2.8
		c0.5-0.2,1.1-0.3,1.6-0.5l0.2,1.4L95.9,500z M103.3,500.4v1.2h3.8v1.3h-3.8v2c0.5,0.1,1,0.1,1.5,0.1c0.5,0,2.6,0,3.2,0
		c-0.2,0.3-0.4,1-0.5,1.4h-2.9c-2.5,0-4.3-0.5-5.5-2.2c-0.4,1-1,1.9-1.7,2.5c-0.2-0.3-0.8-0.7-1.2-0.9c1.3-1.1,1.9-2.9,2.2-5
		l1.5,0.2c-0.1,0.6-0.2,1.1-0.3,1.6c0.5,1.1,1.2,1.7,2.1,2v-4.1h-3.3v-1.2h3.3V498h-4.3v-1.2h4.3v-1h-3.3v-1.2h3.3v-1h-4v-1.3h4
		v-1.4h1.5v1.4h4.3v1.3h-4.3v1h3.6v2.3h1.2v1.2h-1.2v2.4H103.3z M103.3,496.7h2.1v-1h-2.1V496.7z M103.3,499.2h2.1V498h-2.1V499.2z"
		/>
	<path d="M114.1,498.7c0-3.5,1.4-6.2,3.4-8.1l1.3,0.6c-1.9,1.9-3.1,4.4-3.1,7.5c0,3.1,1.3,5.6,3.1,7.5l-1.3,0.6
		C115.5,504.8,114.1,502.1,114.1,498.7z"/>
	<path d="M128,501.5h-4.4l-1.1,3.6h-2l4.1-12.5h2.3l4.1,12.5h-2.1L128,501.5z M127.5,500l-0.5-1.7c-0.4-1.4-0.8-2.8-1.2-4.2h-0.1
		c-0.4,1.4-0.7,2.8-1.2,4.2l-0.5,1.7H127.5z"/>
	<path d="M133.6,506.9c0-0.8,0.5-1.5,1.4-2v-0.1c-0.5-0.3-0.8-0.8-0.8-1.5c0-0.7,0.5-1.4,1-1.7v-0.1c-0.6-0.5-1.2-1.4-1.2-2.5
		c0-2.1,1.7-3.4,3.6-3.4c0.5,0,1,0.1,1.4,0.2h3.3v1.5h-1.8c0.4,0.4,0.6,1,0.6,1.7c0,2-1.5,3.2-3.5,3.2c-0.4,0-0.9-0.1-1.3-0.3
		c-0.3,0.3-0.5,0.5-0.5,1c0,0.6,0.4,0.9,1.6,0.9h1.7c2.2,0,3.4,0.7,3.4,2.3c0,1.8-1.9,3.3-4.9,3.3
		C135.3,509.3,133.6,508.5,133.6,506.9z M140.5,506.4c0-0.8-0.6-1-1.8-1h-1.4c-0.4,0-0.9-0.1-1.3-0.1c-0.6,0.4-0.8,0.9-0.8,1.4
		c0,0.9,1,1.5,2.5,1.5C139.4,508,140.5,507.2,140.5,506.4z M139.4,498.9c0-1.3-0.8-2-1.8-2s-1.8,0.7-1.8,2c0,1.2,0.8,2,1.8,2
		C138.6,500.9,139.4,500.1,139.4,498.9z"/>
	<path d="M145.6,492.9c0-0.7,0.5-1.2,1.2-1.2s1.3,0.5,1.3,1.2c0,0.7-0.5,1.2-1.3,1.2S145.6,493.5,145.6,492.9z M145.8,495.8h1.9v9.3
		h-1.9V495.8z"/>
	<path d="M152.4,502.9v-11.4h1.9V503c0,0.5,0.2,0.7,0.5,0.7c0.1,0,0.2,0,0.3,0l0.3,1.5c-0.2,0.1-0.6,0.2-1.1,0.2
		C153,505.3,152.4,504.4,152.4,502.9z"/>
	<path d="M158.5,500.5c0-3,2.1-4.9,4.3-4.9c2.5,0,3.8,1.8,3.8,4.4c0,0.4,0,0.8-0.1,1h-6.1c0.2,1.8,1.3,2.9,2.9,2.9
		c0.8,0,1.5-0.3,2.2-0.7l0.7,1.2c-0.9,0.6-1.9,1-3.2,1C160.6,505.3,158.5,503.5,158.5,500.5z M164.9,499.6c0-1.6-0.7-2.5-2.1-2.5
		c-1.2,0-2.2,0.9-2.4,2.5H164.9z"/>
	<path d="M173.8,498.7c0,3.5-1.4,6.2-3.4,8.1l-1.3-0.6c1.9-1.9,3.1-4.4,3.1-7.5c0-3.1-1.3-5.6-3.1-7.5l1.3-0.6
		C172.4,492.5,173.8,495.2,173.8,498.7z"/>
	<path d="M181.6,499.3c1.3-0.5,2.1-1.3,2.2-2.3c-0.1,0-0.2,0-0.2,0c-0.8,0-1.4-0.5-1.4-1.4c0-0.8,0.7-1.3,1.4-1.3
		c1.1,0,1.6,0.8,1.6,2.1c0,1.9-1.2,3.3-3.1,4L181.6,499.3z"/>
	<path d="M198.9,504.6c0.5,0.1,1.1,0.1,1.7,0.1c0.7,0,4.1,0,5.2,0c-0.2,0.4-0.5,1.1-0.5,1.5h-4.7c-3.2,0-5.4-0.5-6.8-2.6
		c-0.6,1.2-1.5,2.2-2.5,3c-0.2-0.3-0.8-0.9-1.2-1.1c1.7-1.1,2.8-3,3.2-5.3l1.6,0.2c-0.1,0.6-0.3,1.1-0.4,1.6
		c0.6,1.4,1.6,2.1,2.9,2.5v-4.8h-6.8v-1.4h14.9v1.4h-6.5v1.6h5.4v1.4h-5.4V504.6z M203.6,497.2h-11.4v-5.7h11.4V497.2z M202,492.7
		h-8.3v1.1h8.3V492.7z M202,494.9h-8.3v1.1h8.3V494.9z"/>
	<path d="M224.4,497.6v1.7h-15.5v-1.7H224.4z"/>
	<path d="M243.2,504.8v1.3h-10.1v-1.3h4.5v-1.1H234v-1.2h3.5v-1h-3.4V496h3.4v-1h-4v-1.3h4v-0.9c-1.2,0.1-2.3,0.1-3.4,0.2
		c0-0.2-0.1-0.5-0.2-0.8c-0.6,0.3-1.4,0.5-2.1,0.7v2.7h2v1.5h-2v0.8c0.5,0.4,2,1.9,2.3,2.3l-0.9,1.2c-0.3-0.5-0.9-1.3-1.4-2v7h-1.5
		v-6.8c-0.6,1.5-1.4,2.9-2.1,3.9c-0.2-0.5-0.6-1.1-0.8-1.5c1-1.2,2.1-3.2,2.7-5h-2.4v-1.5h2.6v-2.3c-0.8,0.2-1.6,0.3-2.3,0.4
		c-0.1-0.4-0.3-0.9-0.5-1.2c1.9-0.3,4.1-0.8,5.3-1.4l1.1,1.1c-0.1-0.1-0.1-0.2-0.1-0.3c2.8-0.1,6.2-0.4,8.1-0.8l1,1.2
		c-1.1,0.2-2.4,0.4-3.8,0.6v1h3.8v1.3h-3.8v1h3.5v5.5h-3.5v1h3.5v1.2h-3.5v1.1H243.2z M235.6,498.3h2v-1.1h-2V498.3z M237.5,500.4
		v-1.1h-2v1.1H237.5z M239.1,497.1v1.1h2.1v-1.1H239.1z M241.1,499.3h-2.1v1.1h2.1V499.3z"/>
	<path d="M246,498.5c0.4-1.1,0.7-3,0.8-4.4l1.2,0.2c-0.1,1.4-0.4,3.4-0.8,4.6L246,498.5z M251,497.3c-0.2-0.7-0.6-1.9-1.1-2.9v12
		h-1.5v-15.6h1.5v3.1l0.9-0.4c0.5,1,1.1,2.3,1.3,3.1L251,497.3z M261.8,498.5v1.5h-5.3c-0.5,2.4-1.7,4.8-4.8,6.5
		c-0.2-0.3-0.7-0.9-1.1-1.2c2.8-1.4,3.9-3.3,4.3-5.3h-3.7v-1.5h3.9c0.1-0.6,0.1-1.3,0.1-1.9V495h-3.1v-1.5h3.1v-2.6h1.6v2.6h3.7v5
		H261.8z M256.8,496.6c0,0.6,0,1.2-0.1,1.9h2.2V495h-2.2V496.6z M258.2,500.3c1.2,1.7,2.8,3.9,3.6,5.3l-1.4,0.8
		c-0.7-1.4-2.3-3.7-3.4-5.5L258.2,500.3z"/>
	<path d="M269.6,499c-0.3,1.5-0.8,3.1-1.5,4.3c0.3,0.2,0.6,0.4,1.1,0.7c1.2,0.7,2.8,0.8,4.7,0.8c2,0,4.9-0.2,6.9-0.4
		c-0.2,0.4-0.5,1.2-0.5,1.7c-1.3,0.1-4.4,0.2-6.4,0.2c-2.2,0-3.7-0.2-4.9-0.9c-0.7-0.4-1.3-0.9-1.7-0.9c-0.4,0-1,1.1-1.5,2.1l-1-1.5
		c0.5-0.6,1-1.2,1.5-1.5l0,0c0.7-0.9,1.3-2.2,1.6-3.4h-2.4c0.5-1,1-2.4,1.5-3.7h-2v-1.4h4c-0.4,1.2-1,2.6-1.5,3.8h0.8l0.2-0.1
		L269.6,499z M267.1,494.2c-0.3-0.7-0.9-1.9-1.3-2.8l1.4-0.5c0.4,0.9,1,2,1.3,2.7L267.1,494.2z M274,493.8h-4.4v-1.3h4.4v-1.6h1.5
		v1.6h4.6v1.3h-4.6v1.2h4v4.3h-3.5c1.4,0.9,3.1,2.1,3.9,3l-1,1.1c-0.7-0.8-2.1-1.9-3.5-2.8v3.5H274v-3.6c-1,1.3-2.3,2.5-3.6,3.2
		c-0.2-0.4-0.7-0.9-1-1.2c1.5-0.6,3-1.8,4-3.1h-3.1V495h3.8V493.8z M271.7,498.1h2.3v-1.8h-2.3V498.1z M275.6,496.3v1.8h2.4v-1.8
		H275.6z"/>
	<path d="M297.4,496.6c-0.7,2.7-1.9,4.7-3.5,6.3c1.4,1,3.1,1.7,5.1,2.1c-0.4,0.4-0.8,1-1.1,1.5c-2.1-0.5-3.9-1.4-5.3-2.5
		c-1.5,1.1-3.1,1.9-5,2.4c-0.2-0.4-0.6-1.1-0.9-1.4c1.7-0.4,3.3-1.1,4.7-2.1c-1.3-1.4-2.4-3.1-3.1-5.2h-0.9
		c-0.1,2.8-0.5,6.4-2.3,8.8c-0.3-0.3-1-0.8-1.3-1c1.9-2.6,2-6.3,2-9v-4.6h12.5v1.6h-10.9v2.7h8.7l0.3-0.1L297.4,496.6z M289.9,497.7
		c0.6,1.6,1.5,3,2.7,4.1c1.2-1.1,2.1-2.5,2.7-4.1H289.9z"/>
	<path d="M309.5,497.3c-0.2,0.3-0.5,0.5-0.7,0.7c-0.2-0.2-0.6-0.5-0.9-0.7v4.2h-1.3v-4.2c-0.4,0.4-0.7,0.7-1.1,1.1
		c-0.1-0.2-0.4-0.5-0.6-0.7c0,2.7-0.3,6.3-1.6,8.8c-0.3-0.3-0.9-0.8-1.2-0.9c1.2-2.4,1.3-6,1.3-8.4v-5h6.6c-0.2-0.4-0.4-0.8-0.7-1.1
		l1.4-0.4c0.4,0.5,0.7,1.1,1,1.5h6v1.3h-4c0.4,0.4,0.7,1,0.9,1.3l-0.4,0.2h3v1h-2.8v0.8h2.3v0.9h-2.3v0.8h2.3v0.8h-2.3v0.8h3v1h-6.7
		v0.3l0.2-0.2c1,0.4,2.1,1.1,2.7,1.6l-1,1c-0.6-0.5-1.7-1.3-2.7-1.8l0.5-0.5h-1.1V497.3z M304.7,505.4c0.9-0.7,1.5-1.9,1.8-3
		l1.3,0.4c-0.4,1.2-0.9,2.5-1.9,3.3L304.7,505.4z M309,493.8c-0.3,0.6-0.6,1.2-1,1.8v1.4c1-0.9,1.9-2.3,2.4-3.6h-5.5v3.7
		c1.1-1,2.1-2.3,2.7-3.6L309,493.8z M313,505.1c0.5,0,0.6-0.2,0.7-1.4c0.3,0.2,0.9,0.4,1.3,0.5c-0.2,1.7-0.6,2.1-1.8,2.1h-2.5
		c-1.6,0-2-0.4-2-1.7v-2.1h1.4v2.1c0,0.4,0.1,0.4,0.8,0.4H313z M313.4,494.9c-0.2-0.4-0.5-0.8-0.8-1.1l1-0.4h-3.1l1.2,0.3
		c-0.2,0.4-0.4,0.8-0.6,1.2H313.4z M313.2,495.9h-2.4v0.8h2.4V495.9z M313.2,497.5h-2.4v0.8h2.4V497.5z M313.2,499.2h-2.4v0.8h2.4
		V499.2z M315.5,502.2c0.9,1,2,2.3,2.4,3.2l-1.3,0.6c-0.4-0.9-1.3-2.3-2.3-3.3L315.5,502.2z"/>
	<path d="M327.2,500.1l-1.4,1.2c-1.1-1.3-2.5-2.8-3.7-3.8l1.4-1.2C324.6,497.3,326.2,498.9,327.2,500.1z"/>
	<path d="M99.9,515.4c-0.5,1.2-1.1,2.4-1.7,3.6v11.5h-1.5v-9.2c-0.5,0.6-1,1.3-1.5,1.8c-0.2-0.4-0.6-1.2-0.9-1.6
		c1.6-1.6,3.2-4,4.1-6.5L99.9,515.4z M102.9,525.5c-0.7,1.4-1.8,3.1-2.8,4.1c-0.3-0.3-0.9-0.7-1.2-0.9c0.9-1,1.9-2.4,2.5-3.7
		L102.9,525.5z M105.4,524.4v6.1h-1.6v-6.1h-4.7V523h4.7v-1.8h-3.5v-5.5h8.8v5.5h-3.7v1.8h4.6v1.4H105.4z M101.8,519.8h5.7V517h-5.7
		V519.8z M107.4,525.1c1,1.2,2.2,2.7,2.7,3.7l-1.3,0.8c-0.5-1-1.7-2.7-2.7-3.8L107.4,525.1z"/>
	<path d="M118.5,523.6l-1.7,0.5v4.5c0,0.8-0.2,1.2-0.6,1.4c-0.5,0.3-1.2,0.3-2.2,0.3c-0.1-0.4-0.2-1.1-0.4-1.5c0.7,0,1.3,0,1.5,0
		c0.2,0,0.3-0.1,0.3-0.3v-4l-2,0.6l-0.4-1.5c0.6-0.2,1.5-0.4,2.3-0.7v-3.3h-2.1v-1.5h2.1v-3.3h1.4v3.3h1.6v1.5h-1.6v2.9l1.5-0.4
		L118.5,523.6z M128.8,516.9v1.5h-4.3v1.7h3.5v1.4h-8.5v-1.4h3.5v-1.7h-4.4v-1.5h4.4v-2h1.5v2H128.8z M126.7,523.3h2v1.4h-2v4
		c0,0.9-0.2,1.3-0.7,1.5c-0.6,0.2-1.4,0.3-2.6,0.3c-0.1-0.4-0.3-1.1-0.5-1.5c0.9,0,1.8,0,2,0c0.3,0,0.3-0.1,0.3-0.3v-3.9h-6.3v-1.4
		h6.3V522h1.5V523.3z M121.2,525.1c0.6,0.9,1.5,2.1,1.9,2.9l-1.3,0.8c-0.4-0.8-1.2-2.1-1.8-3L121.2,525.1z"/>
	<path d="M137,523.1c0,0,0,0.4,0,0.6c-0.2,3.9-0.4,5.4-0.8,5.9c-0.3,0.4-0.6,0.5-1.1,0.6c-0.4,0-1.2,0.1-2,0c0-0.5-0.2-1.1-0.5-1.5
		c0.8,0.1,1.5,0.1,1.8,0.1c0.3,0,0.4-0.1,0.6-0.2c0.3-0.3,0.4-1.4,0.6-4.1h-3.2c0.1-1.4,0.2-3.5,0.2-5.2h3V517h-3.3v-1.4h4.7v5.1
		h-3.2c0,0.8,0,1.6-0.1,2.4H137z M147.5,528.1H143v2.4h-1.4v-2.4h-4.3v-1.3h4.3v-1h-3.5V520h8.5v5.8H143v1h4.5V528.1z M141.9,519.2
		h-4v-3.7h4V519.2z M140.5,516.6H139v1.5h1.5V516.6z M139.5,522.3h2.1v-1.1h-2.1V522.3z M141.6,524.6v-1.1h-2.1v1.1H141.6z
		 M146.8,519.2h-4.1v-3.7h4.1V519.2z M145.2,521.2H143v1.1h2.2V521.2z M145.2,523.4H143v1.1h2.2V523.4z M145.5,516.6h-1.6v1.5h1.6
		V516.6z"/>
	<path d="M150.4,522.5c0.4-1.1,0.7-3,0.8-4.4l1.1,0.2c-0.1,1.4-0.4,3.4-0.8,4.6L150.4,522.5z M166,528.4v1.5h-10.4v-1.5h4.7v-3.9
		h-3.5V523h3.5v-3.2h-2.2c-0.3,1-0.7,1.8-1.1,2.5c-0.3-0.2-1-0.6-1.4-0.7c0.2-0.3,0.4-0.7,0.6-1.2l-1,0.5c-0.2-0.7-0.6-1.8-1-2.7
		v12.2h-1.6v-15.6h1.6v3.1l1-0.4c0.4,0.8,0.9,1.8,1.1,2.5c0.5-1.3,0.9-2.9,1.1-4.5l1.5,0.3c-0.1,0.8-0.3,1.7-0.5,2.5h1.8v-3.4h1.6
		v3.4h3.7v1.5h-3.7v3.2h3.3v1.5h-3.3v3.9H166z"/>
	<path d="M175.1,528.1c-0.4-0.7-1.3-1.9-2-2.8c-0.4,1.8-1.2,3.6-2.7,5c-0.2-0.3-0.7-0.8-1.1-1.1c1.9-1.6,2.5-4,2.7-6.2h-2.5v-1.4
		h2.6c0-0.4,0-0.7,0-1.1V519h-2.3v-1.4h2.3V515h1.5v2.5h2.3v1.4h-2.3v1.4c0,0.3,0,0.7,0,1.1h2.6v1.4h-2.7c0,0.2,0,0.5-0.1,0.7
		c0.7,0.7,2.4,2.8,2.8,3.3L175.1,528.1z M183.3,528.8c0.3,0,0.4-0.2,0.4-1.3c0.3,0.2,0.9,0.5,1.3,0.6c-0.2,1.7-0.5,2.1-1.5,2.1h-1.3
		c-1.3,0-1.6-0.4-1.6-1.8V525h-1c-0.3,2.5-1.1,4.4-4,5.5c-0.2-0.4-0.6-0.9-0.9-1.2c2.5-0.8,3.2-2.3,3.4-4.3h-1.5v-9.5h7.3v9.5h-1.9
		v3.3c0,0.4,0.1,0.4,0.4,0.4H183.3z M178.1,518.3h4.3v-1.4h-4.3V518.3z M178.1,520.9h4.3v-1.4h-4.3V520.9z M178.1,523.6h4.3v-1.4
		h-4.3V523.6z"/>
	<path d="M196.7,517.5h0.9v1h-0.9v1.7h-3.2v0.6h3.4v0.9h-3.4v0.6h4.1v1.1h-9.5v-1.1h3.9v-0.6h-3.2v-0.9h3.2v-0.6H189v-0.9h3.1v-0.8
		h-4v-1h4v-0.7h-3v-0.9h3v-1h1.4v1h3.2V517.5z M188,528.8c2.4-0.1,6.1-0.2,9.6-0.4l0,1.2c-3.4,0.2-7,0.4-9.4,0.5L188,528.8z
		 M196.8,524.1v3.8H189v-3.8H196.8z M190.3,525.7h1.9v-0.7h-1.9V525.7z M190.3,527.1h1.9v-0.7h-1.9V527.1z M193.5,517.5h1.9v-0.7
		h-1.9V517.5z M195.4,518.5h-1.9v0.8h1.9V518.5z M195.4,524.9h-1.9v0.7h1.9V524.9z M195.4,526.4h-1.9v0.7h1.9V526.4z M199.7,526.3
		h-1.4v-9.4h1.4V526.3z M202.9,515.2v13.3c0,0.9-0.2,1.3-0.7,1.6c-0.5,0.2-1.4,0.3-2.7,0.3c-0.1-0.4-0.3-1.1-0.5-1.5
		c0.9,0,1.8,0,2.1,0c0.3,0,0.4-0.1,0.4-0.4v-13.3H202.9z"/>
	<path d="M221.8,517.5c0,0,0,0.5,0,0.7c-0.2,7.7-0.4,10.3-1.1,11.2c-0.4,0.6-0.8,0.7-1.5,0.8c-0.6,0.1-1.6,0.1-2.6,0
		c0-0.4-0.2-1.1-0.5-1.5c1.1,0.1,2.1,0.1,2.5,0.1c0.3,0,0.5-0.1,0.7-0.3c0.5-0.6,0.8-3.1,1-9.5h-4c-0.5,1.1-1,2.1-1.5,2.9
		c-0.3-0.2-0.8-0.7-1.2-0.9v7.8h-4.6v1.3h-1.4v-12.4h1.9c0.2-0.8,0.5-1.9,0.6-2.8l1.7,0.3c-0.3,0.9-0.6,1.8-0.9,2.5h2.7v3.2
		c1.1-1.5,2-3.7,2.5-6l1.5,0.4c-0.2,0.8-0.4,1.6-0.7,2.3H221.8z M208.9,519v3.2h3.2V519H208.9z M212.1,527.3v-3.8h-3.2v3.8H212.1z
		 M217.7,526c-0.5-1-1.6-2.7-2.5-3.9l1.2-0.7c0.9,1.2,2.1,2.8,2.6,3.8L217.7,526z"/>
	<path d="M240.8,527.6v1.6h-15.2v-1.6h6.6v-9.3h-5.7v-1.6h13.4v1.6H234v9.3H240.8z"/>
	<path d="M249.6,515.4c-0.5,1.2-1,2.4-1.7,3.6v11.5h-1.6v-9c-0.4,0.6-0.9,1.2-1.4,1.7c-0.2-0.4-0.6-1.3-0.9-1.6
		c1.6-1.6,3.1-4.1,4-6.6L249.6,515.4z M254.7,519.2v2.2h4.6v1.4h-4.6v2.3h4.9v1.5h-4.9v3.9h-1.6v-11.3h-1c-0.7,1.3-1.5,2.5-2.3,3.4
		c-0.3-0.3-0.9-0.8-1.2-1.1c1.5-1.6,2.9-4,3.7-6.5l1.5,0.4c-0.3,0.7-0.6,1.5-0.9,2.2h6.8v1.5H254.7z"/>
	<path d="M269.4,519.2c-0.1,0.8-0.1,1.6-0.2,2.4h7.2c0,0,0,0.5-0.1,0.7c-0.3,4.7-0.6,6.6-1.3,7.3c-0.5,0.5-0.9,0.6-1.6,0.7
		c-0.6,0.1-1.7,0-2.9,0c0-0.5-0.2-1.1-0.6-1.5c1.2,0.1,2.4,0.1,2.8,0.1c0.4,0,0.6,0,0.8-0.2c0.5-0.4,0.8-2,1.1-5.4H269
		c-0.5,2.9-1.8,5.7-4.9,7.4c-0.2-0.4-0.7-1-1.2-1.3c4.2-2.1,4.6-6.3,4.8-10h-4.5v-1.5h7.3c-0.2-0.7-0.7-1.6-1.1-2.4l1.5-0.6
		c0.4,0.8,1,1.8,1.2,2.5l-1.1,0.5h7v1.5H269.4z"/>
	<path d="M292.1,519.4c0.4,5.4,1.6,9.4,3,9.4c0.4,0,0.6-0.9,0.7-3.1c0.4,0.4,1,0.7,1.4,0.9c-0.3,3.1-0.8,3.9-2.2,3.9
		c-2.8,0-4.1-4.9-4.6-11.1h-8.6v-1.5h8.5c0-1-0.1-2-0.1-2.9h1.7c0,1,0,2,0,2.9h4.9v1.5H292.1z M286.8,527.5c1.1-0.2,2.3-0.4,3.4-0.7
		l0.1,1.4c-2.8,0.6-5.9,1.3-8,1.8l-0.5-1.6c0.9-0.2,2.1-0.4,3.4-0.6v-4.6h-2.8v-1.5h7.4v1.5h-3V527.5z M293.9,514.9
		c0.8,0.5,1.9,1.4,2.4,2l-1.1,1c-0.5-0.6-1.5-1.5-2.3-2.1L293.9,514.9z"/>
	<path d="M303.8,520c1.5,0,2.7,1.2,2.7,2.7s-1.2,2.7-2.7,2.7c-1.5,0-2.7-1.2-2.7-2.7S302.3,520,303.8,520z M303.8,524.3
		c0.9,0,1.6-0.7,1.6-1.6s-0.7-1.6-1.6-1.6c-0.9,0-1.6,0.7-1.6,1.6S302.9,524.3,303.8,524.3z"/>
	<path d="M55,545c-0.3,2.1-0.7,5-1.4,6.8l-1.6-0.7c0.7-1.8,1.2-4.3,1.4-6.4L55,545z M58,543.6v8.1c0,0.8,0.2,0.9,1.1,0.9h2.9
		c1,0,1.1-0.6,1.2-3.4c0.4,0.3,1.1,0.6,1.5,0.7c-0.2,3.2-0.6,4.2-2.6,4.2h-3.1c-2,0-2.5-0.5-2.5-2.4v-8.1H58z M58.1,539.3
		c1.6,1,3.6,2.6,4.6,3.6l-1.2,1.2c-0.9-1.1-3-2.7-4.5-3.8L58.1,539.3z M65.5,544.3c1,2,1.9,4.6,2.2,6.3l-1.6,0.7
		c-0.3-1.7-1.2-4.4-2.1-6.4L65.5,544.3z"/>
	<path d="M73.9,546.6c-0.7-0.6-2-1.3-3.1-1.8l0.8-1.2c1.1,0.4,2.5,1.2,3.2,1.7L73.9,546.6z M71.3,553.2c0.9-1.3,2.2-3.5,3.2-5.4
		l1.2,1.1c-0.9,1.8-2,3.8-3,5.4L71.3,553.2z M72.6,539c1.1,0.4,2.5,1.2,3.2,1.7l-0.9,1.3c-0.7-0.6-2.1-1.4-3.2-1.9L72.6,539z
		 M84.6,554.4c-0.1-0.5-0.4-1-0.7-1.6c-6,0.7-6.8,0.9-7.3,1.1c-0.1-0.3-0.4-1.1-0.5-1.6c0.4-0.1,0.7-0.5,1.1-1.1
		c0.4-0.5,1.3-2.1,2.1-3.9h-3.5v-1.5H80v-2.8h-3.5v-1.5H80v-2.7h1.6v2.7h3.6v1.5h-3.6v2.8h4.3v1.5h-4.7c-0.8,1.7-1.8,3.3-2.7,4.7
		l4.7-0.5c-0.4-0.7-0.9-1.4-1.3-2l1.3-0.6c1.2,1.5,2.4,3.5,2.9,4.8L84.6,554.4z"/>
	<path d="M98.1,552.6c0.5,0.1,1.1,0.1,1.7,0.1c0.7,0,4.1,0,5.2,0c-0.2,0.4-0.5,1.1-0.5,1.5h-4.7c-3.2,0-5.4-0.5-6.8-2.6
		c-0.6,1.2-1.5,2.2-2.5,3c-0.2-0.3-0.8-0.9-1.2-1.1c1.7-1.1,2.8-3,3.2-5.3l1.6,0.2c-0.1,0.6-0.3,1.1-0.4,1.6
		c0.6,1.4,1.6,2.1,2.9,2.5v-4.8h-6.8v-1.4h14.9v1.4h-6.5v1.6h5.4v1.4h-5.4V552.6z M102.9,545.2H91.4v-5.7h11.4V545.2z M101.3,540.7
		H93v1.1h8.3V540.7z M101.3,542.9H93v1.1h8.3V542.9z"/>
	<path d="M112.5,543.3c-0.6,2.5-1.6,5.6-3.1,7.6c-0.4-0.3-1-0.7-1.4-0.9c1.5-1.8,2.4-4.7,2.8-7L112.5,543.3z M116.8,539.1v13.2
		c0,1.1-0.3,1.5-0.9,1.8c-0.7,0.3-1.8,0.3-3.4,0.3c-0.1-0.5-0.4-1.2-0.6-1.7c1.2,0.1,2.4,0.1,2.8,0c0.3,0,0.5-0.1,0.5-0.4v-13.2
		H116.8z M120.6,542.8c1.4,2.3,2.8,5.4,3.2,7.4l-1.7,0.7c-0.4-2-1.7-5.1-3.1-7.6L120.6,542.8z"/>
	<path d="M135.5,545.4v4.9c1.7-1,2.9-2.4,3.8-4.2l1.5,0.7c-2.4,4.5-6.7,6.6-13.1,7.6c-0.2-0.5-0.5-1.1-0.8-1.5
		c3.3-0.4,6-1.2,8.1-2.4h-1.3v-5.2h-6.7v-1.5h2.4v-3.8h1.6v3.8h2.9v-5h1.7v1.6h4.9v1.5h-4.9v1.9h6.3v1.5H135.5z M132.4,546.5
		c-0.9,1.5-2.4,3.1-3.7,4.1c-0.3-0.3-0.8-0.9-1.2-1.2c1.3-0.8,2.6-2.1,3.4-3.5L132.4,546.5z"/>
	<path d="M145.3,546.5c0.4-1.1,0.7-3,0.8-4.4l1.2,0.2c-0.1,1.4-0.4,3.4-0.8,4.6L145.3,546.5z M150.2,545.3c-0.2-0.7-0.6-1.9-1.1-2.9
		v12h-1.5v-15.6h1.5v3.1l0.9-0.4c0.5,1,1.1,2.3,1.3,3.1L150.2,545.3z M161.1,546.5v1.5h-5.3c-0.5,2.4-1.7,4.8-4.8,6.5
		c-0.2-0.3-0.7-0.9-1.1-1.2c2.8-1.4,3.9-3.3,4.3-5.3h-3.7v-1.5h3.9c0.1-0.6,0.1-1.3,0.1-1.9V543h-3.1v-1.5h3.1v-2.6h1.6v2.6h3.7v5
		H161.1z M156.1,544.6c0,0.6,0,1.2-0.1,1.9h2.2V543h-2.2V544.6z M157.5,548.3c1.2,1.7,2.8,3.9,3.6,5.3l-1.4,0.8
		c-0.7-1.4-2.3-3.7-3.4-5.5L157.5,548.3z"/>
	<path d="M177.4,552.9c0.9,0,1-0.3,1.1-2c0.3,0.2,0.9,0.5,1.3,0.5c-0.2,2.1-0.6,2.7-2.3,2.7h-3.7c-2,0-2.5-0.5-2.5-2.2v-7.6
		c-0.1,0.1-0.2,0.2-0.2,0.3c-0.2-0.2-0.5-0.6-0.8-0.9v1.2h-1.8v2.1h1.7v1.4h-1.7v2.8l1.9-0.5l0.2,1.4c-2.2,0.6-4.5,1.3-6.2,1.8
		l-0.4-1.5c0.3-0.1,0.5-0.1,0.8-0.2v-5.8h1.3v5.5l0.9-0.2v-6.7h-2.2v-5.3h5.3v3.8c1-1.1,1.8-2.8,2.3-4.4l1.4,0.4
		c-0.2,0.5-0.4,1-0.6,1.5h5.5v0.7c0,5.7-0.1,7.7-0.4,8.2c-0.3,0.4-0.6,0.6-1.1,0.6c-0.5,0.1-1.2,0.1-1.9,0c0-0.4-0.2-1-0.4-1.3h-2.4
		v3c0,0.7,0.2,0.9,1.2,0.9H177.4z M168.8,540.9h-2.5v2.6h2.5V540.9z M172.8,542.1c-0.3,0.6-0.6,1.1-1,1.6h4.3v5.2h-0.2
		c0.3,0,0.6,0,0.7,0c0.2,0,0.4-0.1,0.5-0.2c0.2-0.3,0.3-2,0.3-6.6H172.8z M174.8,545h-2.1v2.7h2.1V545z"/>
	<path d="M184.6,547.3c1.3-0.5,2.1-1.3,2.2-2.3c-0.1,0-0.2,0-0.2,0c-0.8,0-1.4-0.5-1.4-1.4c0-0.8,0.7-1.3,1.4-1.3
		c1.1,0,1.6,0.8,1.6,2.1c0,1.9-1.2,3.3-3.1,4L184.6,547.3z"/>
	<path d="M197.8,547c-0.3,1.5-0.8,3.1-1.6,4.3c0.3,0.2,0.6,0.4,1.2,0.7c1.2,0.7,2.8,0.8,4.7,0.8c2,0,4.9-0.2,6.9-0.4
		c-0.2,0.4-0.5,1.2-0.5,1.7c-1.3,0.1-4.4,0.2-6.4,0.2c-2.2,0-3.7-0.2-4.9-0.9c-0.7-0.4-1.3-0.9-1.7-0.9c-0.4,0-1,1.1-1.5,2.1
		l-1.1-1.5c0.5-0.6,1-1.2,1.5-1.5l0,0c0.7-0.9,1.3-2.2,1.6-3.4h-2.4c0.5-1,1-2.4,1.5-3.7h-2v-1.4h4c-0.4,1.2-1,2.6-1.5,3.8h0.9
		l0.2-0.1L197.8,547z M195.3,542.2c-0.3-0.7-0.9-1.9-1.3-2.8l1.4-0.5c0.4,0.9,1,2,1.4,2.7L195.3,542.2z M199.1,546.3
		c-0.3,0.1-0.6,0.3-0.9,0.4c-0.2-0.4-0.6-0.9-0.9-1.1c1.5-0.5,3.2-1.4,4.2-2.4h-3.7v-1.2h4.6v-1.1c-1.3,0.1-2.6,0.1-3.8,0.2
		c-0.1-0.3-0.2-0.8-0.4-1.1c3-0.1,6.6-0.4,8.5-0.8l1,1.1c-1.1,0.2-2.5,0.4-3.9,0.5v1.2h4.6v1.2h-3.8c1.1,1,2.7,1.9,4.2,2.3
		c-0.3,0.3-0.7,0.8-1,1.2c-1.4-0.5-2.9-1.5-4-2.7v2h-1.5v-1.9c-0.9,0.9-2,1.7-3.1,2.3h6.3c-0.1,0.5-0.2,1-0.3,1.4h2.8
		c0,0,0,0.4-0.1,0.6c-0.2,1.9-0.4,2.8-0.7,3.2c-0.3,0.3-0.6,0.4-1.1,0.4c-0.4,0-1.2,0-2,0c0-0.4-0.2-0.9-0.4-1.2
		c0.8,0.1,1.5,0.1,1.8,0.1c0.3,0,0.4,0,0.6-0.1c0.2-0.2,0.3-0.7,0.4-1.7h-2.9c0.1-0.4,0.3-0.9,0.4-1.4h-1.7
		c-0.3,2.2-1.2,3.8-3.8,4.6c-0.1-0.4-0.5-0.9-0.8-1.2c2.2-0.6,2.9-1.8,3.2-3.5h-1.8V546.3z"/>
	<path d="M216.2,546.9c-0.3,1.5-0.8,3.1-1.4,4.4c0.3,0.2,0.7,0.5,1.2,0.8c1.2,0.7,2.7,0.8,4.7,0.8c2.1,0,4.9-0.2,6.8-0.4
		c-0.2,0.4-0.4,1.2-0.5,1.6c-1.3,0.1-4.4,0.2-6.4,0.2c-2.2,0-3.7-0.2-4.9-0.9c-0.7-0.4-1.3-1-1.7-1s-1,1.1-1.4,2.1l-1.1-1.5
		c0.6-0.8,1.2-1.4,1.7-1.8c0.5-0.9,0.9-2.1,1.1-3.3h-2.2c0.4-1,0.9-2.4,1.3-3.7h-1.7v-1.4h3.7c-0.4,1.2-0.8,2.6-1.3,3.8h1l0.2-0.1
		L216.2,546.9z M213.7,542.2c-0.2-0.7-0.6-2-0.9-2.9l1.4-0.4c0.3,0.9,0.7,2,0.9,2.8L213.7,542.2z M218.3,551.9h-1.4v-7.3h1.3v-5.2
		h7.1v5.2h1.3v5.9c0,0.7-0.1,1-0.6,1.2c-0.5,0.2-1.1,0.2-2.1,0.2c-0.1-0.4-0.2-0.9-0.4-1.3c0.6,0,1.2,0,1.4,0c0.2,0,0.3-0.1,0.3-0.2
		v-4.6h-6.9V551.9z M223.9,550.4h-3.2v0.6h-1.2v-4.2h4.4V550.4z M219.6,544.6h1.3v-2.8h3v-1.2h-4.3V544.6z M222.7,547.8h-2v1.5h2
		V547.8z M223.8,542.9h-1.8v1.7h1.8V542.9z"/>
	<path d="M235.4,551.9c1.1,0.4,2.4,0.6,4.1,0.6c1,0,5.6,0,6.8,0c-0.3,0.4-0.5,1.1-0.6,1.6h-6.2c-3.5,0-5.7-0.5-7-2.9
		c-0.2,1.2-0.6,2.3-1.2,3.3c-0.2-0.3-0.7-0.8-1.1-1c1.1-2,1.3-4.7,1.2-7l1.3,0.1c0,0.7,0,1.4,0,2.1c0.3,1,0.7,1.7,1.2,2.3v-5.5h-3.4
		v-1.4h3.1v-1.9h-2.5v-1.4h2.5v-2h1.5v2h2.4v1.4h-2.4v1.9h2.7v1.4h-2.5v2.1h2.2v1.4h-2.2V551.9z M241.3,547.2
		c0.1,0.4,0.3,0.9,0.4,1.2c-2.8,1.7-3.3,2-3.5,2.3c-0.1-0.4-0.4-1.1-0.6-1.4c0.3-0.2,0.8-0.6,0.8-1.2v-6.4h3.2
		c-0.1-0.9-0.1-1.9-0.1-2.8h1.4c0,1,0,1.9,0,2.8h3.2v1.3h-3.2c0.1,1.5,0.2,2.8,0.4,4c0.5-1,1-2,1.2-3.1l1.2,0.3
		c-0.5,1.7-1.2,3.3-2.1,4.6c0.3,1,0.6,1.5,0.9,1.5c0.3,0,0.4-0.7,0.4-2.3c0.3,0.3,0.7,0.6,1.1,0.7c-0.2,2.3-0.6,2.9-1.7,2.9
		c-0.7,0-1.3-0.6-1.8-1.6c-0.7,0.9-1.5,1.6-2.5,2.1c-0.2-0.3-0.6-0.8-1-1.1c1.1-0.6,2.1-1.5,2.9-2.6c-0.4-1.5-0.6-3.5-0.7-5.6h-1.8
		v5.1L241.3,547.2z M244.6,541.6c-0.3-0.5-1-1.4-1.5-2.1l1.1-0.6c0.5,0.6,1.2,1.5,1.6,2L244.6,541.6z"/>
	<path d="M264.7,550.6h-7v3.8h-1.6v-3.8h-6.8v-1.5h6.8v-2.3h-5v-7.2h11.8v7.2h-5.1v2.3h7V550.6z M252.6,542.6h8.6V541h-8.6V542.6z
		 M252.6,545.5h8.6v-1.6h-8.6V545.5z"/>
	<path d="M281.1,552.9c0.8,0,1-0.3,1.1-2.4c0.3,0.3,1,0.5,1.4,0.6c-0.2,2.5-0.6,3.2-2.3,3.2H278c-2,0-2.5-0.4-2.5-1.9v-3.4h-1
		c-0.4,3-1.5,4.8-5.9,5.7c-0.1-0.4-0.5-1-0.8-1.3c4-0.7,4.8-2,5.1-4.4h-3.2V543h4.8c0.2-0.5,0.4-1.1,0.5-1.5l1.6,0.2
		c-0.2,0.5-0.5,0.9-0.7,1.3h5.8v5.9H277v3.4c0,0.5,0.2,0.6,1.1,0.6H281.1z M272,541.2h-3.7v-1.3h3.7v-1h1.5v1h1.9v1.3h-1.9v1.1H272
		V541.2z M271.2,545.4h3.6v-1.2h-3.6V545.4z M271.2,547.7h3.6v-1.2h-3.6V547.7z M277.8,541.2H276v-1.3h1.8v-1h1.5v1h3.8v1.3h-3.8
		v1.1h-1.5V541.2z M280.1,544.2h-3.8v1.2h3.8V544.2z M280.1,546.5h-3.8v1.2h3.8V546.5z M279.9,549.4c-0.3,0.7-0.7,1.4-1.1,2l1.5-0.1
		c-0.2-0.3-0.3-0.7-0.5-1l0.9-0.3c0.4,0.7,0.8,1.6,1.1,2.1l-0.9,0.4c-0.1-0.1-0.1-0.3-0.2-0.5c-2.3,0.2-2.7,0.3-3,0.4
		c-0.1-0.2-0.3-0.7-0.4-0.9c0.2,0,0.4-0.2,0.5-0.4c0.2-0.2,0.7-1.1,0.9-2L279.9,549.4z"/>
	<path d="M288.8,543.4c-0.4,0.4-0.8,0.7-1.2,1.1c-0.3-0.3-0.8-0.8-1.1-1c1.9-1.4,3.2-3.2,4-4.7l1.6,0.3c-0.3,0.5-0.6,1-0.9,1.4h3.2
		c-0.2-0.4-0.4-1-0.6-1.4l1.5-0.4c0.3,0.5,0.7,1.3,0.9,1.8h4.9v1.2h-5.3v1h4.6v1.1h-4.6v0.9h4.6v1.1h-4.6v1h5.8v1.2h-11.1v0.5h-1.6
		V543.4z M292.7,551.7c-1.2,0.9-3.3,1.8-5.1,2.2c-0.2-0.4-0.7-0.9-1-1.2c1.7-0.3,3.8-0.9,4.8-1.6L292.7,551.7z M301.9,549.3v1.3
		h-6.8v3.9h-1.6v-3.9h-6.7v-1.3h6.7v-1h1.6v1H301.9z M294.2,541.8h-3.8v1h3.8V541.8z M294.2,543.9h-3.8v0.9h3.8V543.9z M294.2,545.9
		h-3.8v1h3.8V545.9z M296.9,551c1.6,0.5,3.8,1.3,5,1.8l-0.9,1.1c-1.1-0.5-3.3-1.4-5-1.9L296.9,551z"/>
	<path d="M320.2,539.5v15h-1.7v-0.9h-10.9v0.9H306v-15H320.2z M318.5,552.1v-10.9h-10.9v10.9H318.5z M316.4,543.4v6.2h-6.7v-6.2
		H316.4z M314.8,544.8h-3.6v3.5h3.6V544.8z"/>
	<path d="M326.2,542.2c-0.5,0.5-1.2,1-1.7,1.4c-0.1-0.3-0.4-1.1-0.6-1.4c1.3-0.8,2.7-2.1,3.5-3.5l1.2,0.4c-0.1,0.2-0.2,0.4-0.3,0.6
		c0.8,0.4,1.8,1,2.3,1.4l-0.7,1.2c-0.5-0.4-1.5-1-2.4-1.5c-0.3,0.4-0.7,0.9-1.1,1.3h2.8v1.1h-2.9V542.2z M328.8,550
		c0.6,1.1,1.3,2.5,1.7,3.3c1-0.4,2-1,2.5-1.7l1.4,0.4c-0.7,0.9-1.9,1.8-2.9,2.3c-0.2-0.3-0.8-0.8-1.1-1.1l-1.1,0.5
		c-0.1-0.3-0.3-0.8-0.5-1.3c-3.2,1.3-3.7,1.5-4,1.8c-0.1-0.4-0.3-1-0.5-1.3c0.3-0.1,0.6-0.3,0.6-1V544h5v5.8h-3.6v2.5l2-0.7
		c-0.2-0.4-0.4-0.8-0.6-1.1L328.8,550z M326.3,545.1v1.1h2.2v-1.1H326.3z M328.5,548.6v-1.2h-2.2v1.2H328.5z M334.3,542.8h-3.1v-2.9
		h3.1v-1h1.4v1h3.1v2.9h-3.1v0.7h3.8v1.2h-9.1v-1.2h3.8V542.8z M336.8,551.6c1.1,0.6,2.2,1.5,3,2.1l-1.2,0.8
		c-0.7-0.6-1.9-1.5-2.9-2.2l0.8-0.7h-5.2v-6.3h7.5v6.3H336.8z M334.3,541.8v-1h-1.8v1H334.3z M332.7,547.1h4.6v-0.8h-4.6V547.1z
		 M332.7,548.9h4.6V548h-4.6V548.9z M332.7,550.6h4.6v-0.9h-4.6V550.6z M335.7,540.8v1h1.8v-1H335.7z"/>
	<path d="M344.4,547.3c1.3-0.5,2.1-1.3,2.2-2.3c-0.1,0-0.2,0-0.2,0c-0.8,0-1.4-0.5-1.4-1.4c0-0.8,0.7-1.3,1.4-1.3
		c1.1,0,1.6,0.8,1.6,2.1c0,1.9-1.2,3.3-3.1,4L344.4,547.3z"/>
	<path d="M43.1,565.6c-0.4,0.6-0.7,1.2-1.1,1.8v11.1h-1.7v-8.9c-1.6,1.8-3.6,3.4-5.8,4.6c-0.3-0.4-0.7-1.1-1.1-1.4
		c3.2-1.6,6-4.3,7.6-7.1h-7.2V564h14.6v1.6H43.1z M43.2,568.2c1.9,1.3,4.5,3.2,5.7,4.5l-1.3,1.2c-1.1-1.3-3.7-3.3-5.6-4.7
		L43.2,568.2z"/>
	<path d="M53.9,576.1h6.7v1.2h-8v-13.9h1.3v5.4h7.3v1.2h-7.3V576.1z M57.6,572c-0.6,1-1.3,2-2.1,2.7l0.9-0.1
		c-0.1-0.2-0.1-0.3-0.2-0.5l0.7-0.3c0.3,0.6,0.5,1.3,0.6,1.8l-0.7,0.3c0-0.2-0.1-0.4-0.1-0.6c-1.7,0.2-2.1,0.3-2.2,0.4
		c0-0.2-0.2-0.7-0.3-0.9c0.3,0,0.5-0.2,0.8-0.6c0.1-0.2,0.4-0.5,0.7-1c-0.8,0.2-1.1,0.2-1.2,0.3v0c-0.1-0.2-0.2-0.7-0.3-0.9
		c0.2,0,0.4-0.2,0.5-0.4c0.2-0.2,0.8-1.2,1.1-2.1l0.9,0.4c-0.3,0.7-0.7,1.4-1.1,1.9l0.8-0.1c0.2-0.3,0.4-0.6,0.5-0.9L57.6,572z
		 M56.7,568.7c0-0.2,0-0.4-0.1-0.6c-1.7,0.2-2.1,0.3-2.2,0.4c-0.1-0.2-0.2-0.7-0.3-0.9c0.2-0.1,0.5-0.3,0.8-0.6
		c0.1-0.1,0.4-0.4,0.7-0.9c-0.8,0.1-1,0.2-1.2,0.3c-0.1-0.2-0.2-0.7-0.3-0.9c0.2,0,0.3-0.2,0.5-0.4c0.2-0.2,0.8-1.2,1.1-2.1l0.9,0.4
		c-0.3,0.7-0.7,1.4-1.1,1.9l0.7-0.1c0.2-0.3,0.4-0.6,0.5-0.9l0.9,0.5c-0.6,1-1.3,1.9-2,2.6l0.9-0.1c-0.1-0.2-0.1-0.3-0.2-0.5
		l0.7-0.3c0.3,0.6,0.5,1.3,0.6,1.8L56.7,568.7z M61,572c-0.6,1-1.4,2-2.1,2.8l0.9-0.1c-0.1-0.2-0.1-0.4-0.2-0.6l0.7-0.3
		c0.3,0.6,0.5,1.4,0.6,2l-0.8,0.3c0-0.2-0.1-0.4-0.1-0.6c-1.7,0.3-2.1,0.3-2.2,0.4c-0.1-0.2-0.2-0.7-0.3-0.9c0.3,0,0.5-0.3,0.8-0.6
		c0.1-0.2,0.4-0.5,0.8-1c-0.8,0.2-1.1,0.3-1.2,0.3v0c-0.1-0.2-0.2-0.7-0.3-0.9c0.2,0,0.3-0.2,0.5-0.4c0.2-0.2,0.7-1.2,1-2.1l0.9,0.4
		c-0.3,0.7-0.6,1.4-1,1.9l0.8-0.1c0.2-0.3,0.4-0.6,0.5-1L61,572z M60.5,568.7c0-0.2-0.1-0.4-0.1-0.7c-1.9,0.3-2.3,0.4-2.5,0.5
		c0-0.2-0.2-0.7-0.3-0.9c0.2-0.1,0.5-0.2,0.8-0.6c0.1-0.1,0.4-0.5,0.8-0.9c-0.8,0.2-1.1,0.2-1.3,0.3c-0.1-0.2-0.2-0.7-0.3-0.9
		c0.2,0,0.3-0.2,0.5-0.4c0.2-0.3,0.8-1.2,1.1-2.1l0.9,0.4c-0.3,0.7-0.7,1.4-1.1,1.9l0.8-0.1c0.2-0.3,0.4-0.6,0.5-0.8l0.8,0.5
		c-0.6,0.9-1.3,1.8-2,2.6l1.1-0.1c-0.1-0.2-0.1-0.4-0.2-0.5l0.7-0.3c0.3,0.6,0.5,1.4,0.6,1.9L60.5,568.7z M67.5,569.5h-1.4v8.9h-1.3
		v-8.9h-1.6v0.5c0,2.4-0.2,5.9-1.4,8.2c-0.2-0.2-0.8-0.6-1.1-0.8c1.1-2.2,1.2-5.2,1.2-7.5v-5.6c1.5-0.4,3.1-1,4-1.6l1.2,1
		c-1.1,0.6-2.6,1.1-3.9,1.4v2.9h4.4V569.5z"/>
	<path d="M75.2,572.3c-0.2-0.5-0.6-1.4-1-2.1v8.2H73v-7.9c-0.4,1.7-1,3.3-1.6,4.4c-0.1-0.5-0.4-1.2-0.6-1.6c0.8-1.3,1.6-3.7,2-5.8
		h-1.7v-1.5H73v-3.2h1.3v3.2h1.4v0.8c1.9-1.1,3.7-2.6,4.6-4.1l1.5,0.5c-0.1,0.2-0.2,0.4-0.4,0.5c1.3,1.1,3.3,2.2,5,2.8
		c-0.3,0.4-0.5,1.1-0.7,1.5c-0.8-0.4-1.6-0.8-2.4-1.3v1.2h-5v-1c-0.6,0.4-1.2,0.8-1.8,1.1c-0.2-0.3-0.6-0.7-0.9-0.9v0.4h-1.4v1
		c0.4,0.6,1.5,2.3,1.7,2.7L75.2,572.3z M79.2,573.7c-0.1,0.4-0.3,0.8-0.4,1.2c0.7,0.4,1.4,1,1.8,1.3l-0.9,1.1
		c-0.3-0.4-1-0.9-1.5-1.3c-0.7,1.1-1.5,1.9-2.5,2.6c-0.2-0.3-0.7-0.8-1-1c1.5-0.9,2.6-2.3,3.2-4.1L79.2,573.7z M76.4,568.9h3.9v4.1
		h-3.9V568.9z M77.6,572h1.5V570h-1.5V572z M83.1,566.6c-0.9-0.6-1.8-1.2-2.5-1.9c-0.6,0.7-1.3,1.3-2,1.9H83.1z M83.9,573.6
		c-0.1,0.5-0.2,1-0.4,1.4c1,0.7,2.2,1.5,2.8,2.1l-1,1.1c-0.5-0.6-1.5-1.4-2.4-2c-0.5,0.9-1.2,1.7-2,2.3c-0.2-0.3-0.7-0.8-1-1
		c1.3-0.9,2.2-2.3,2.6-4.1L83.9,573.6z M81.2,568.9h4v4.1h-4V568.9z M82.4,572H84V570h-1.6V572z"/>
	<path d="M95.1,573.4c-0.3-0.5-1-1.2-1.6-1.9v7H92v-6.6c-0.7,0.7-1.4,1.3-2.2,1.7c-0.1-0.4-0.5-1.3-0.7-1.6c1.8-1,3.6-2.9,4.7-4.9
		h-4.2v-1.4h3.1c-0.3-0.6-0.9-1.4-1.4-2.1l1.2-0.7c0.6,0.6,1.3,1.5,1.5,2.1l-1,0.7h1.6l0.3-0.1l0.9,0.6c-0.5,1.3-1.2,2.5-2.1,3.6
		c0.7,0.6,2,1.9,2.3,2.2L95.1,573.4z M103.4,577c0.3,0,0.4-0.2,0.4-2c0.3,0.3,0.9,0.5,1.3,0.6c-0.1,2.3-0.5,2.8-1.6,2.8h-1.3
		c-1.3,0-1.6-0.4-1.6-1.9v-3.7h-1.2c-0.3,2.8-1,4.6-4,5.7c-0.2-0.4-0.5-0.9-0.8-1.2c2.7-0.8,3.2-2.3,3.5-4.5h-1.3v-9.2h7.4v9.2h-1.9
		v3.7c0,0.4,0,0.5,0.3,0.5H103.4z M98.2,566.3h4.4v-1.4h-4.4V566.3z M98.2,568.9h4.4v-1.4h-4.4V568.9z M98.2,571.6h4.4v-1.4h-4.4
		V571.6z"/>
	<path d="M123.6,574.5h-15.3v-1.5h1.6l-0.3-8.9c1.1-0.3,2.3-0.9,3.2-1.3l0.7,1.3c-0.7,0.3-1.6,0.6-2.4,0.8l0.1,1.8h2.1v1.3h-2.1
		l0.1,1.8h2.1v1.3h-2l0.1,1.8h9.2c0-0.5,0.1-1.1,0.1-1.8h-2V570h2.1c0-0.6,0-1.2,0.1-1.8h-2v-1.3h2c0-0.6,0-1.2,0-1.8h-2.2v-1.4h3.7
		c0,3-0.1,6.9-0.3,9.4h1.6V574.5z M114.4,575.6c-1.4,1-3.5,2.1-5.1,2.8c-0.2-0.3-0.6-0.9-0.9-1.2c1.6-0.6,3.7-1.7,4.7-2.6
		L114.4,575.6z M115.6,569.3c-0.2,1.2-0.5,2.3-1,3.1c-0.2-0.2-0.7-0.5-1-0.6c0.5-0.7,0.7-1.6,0.8-2.6L115.6,569.3z M116.6,568.5H114
		V563h1.4v1.4h2.7v1.3h-2.7v1.6h2.1v0h0.5v4.4c0,0.6-0.1,0.9-0.5,1c-0.4,0.2-1,0.2-1.9,0.2c-0.1-0.3-0.2-0.7-0.4-1c0.5,0,1,0,1.2,0
		c0.2,0,0.2-0.1,0.2-0.2V568.5z M122.1,578.4c-1.1-0.8-3-1.9-4.7-2.7l0.9-1.1c1.8,0.8,3.7,1.9,4.9,2.7L122.1,578.4z"/>
	<path d="M132.7,567h-5.9v-1.3h2.9c-0.3-0.6-0.7-1.6-1.2-2.3l1.2-0.5c0.5,0.7,1,1.6,1.2,2.2l-1.1,0.6h2.8V567z M128.7,577.5v0.7
		h-1.3v-5.7h4.7v5H128.7z M127.5,570.2h4.6v1.2h-4.6V570.2z M132.1,569.2h-4.6V568h4.6V569.2z M128.7,573.8v2.4h2.2v-2.4H128.7z
		 M141.9,576.7c0,0.7-0.2,1.1-0.6,1.4c-0.5,0.2-1.2,0.3-2.3,0.3c-0.1-0.4-0.2-1-0.4-1.3c0.8,0,1.5,0,1.7,0c0.2,0,0.3-0.1,0.3-0.3
		v-6.2h-5.8c0,2.5-0.3,5.9-1.5,8c-0.2-0.2-0.8-0.6-1.1-0.8c1.2-2.2,1.3-5.3,1.3-7.7v-6.4h8.4V576.7z M134.8,564.9v1.5h2.2v-1.5
		H134.8z M134.8,569.2h2.2v-1.5h-2.2V569.2z M136.5,575.5v0.8h-1.1v-4.8h4.4v4.1H136.5z M136.5,572.6v1.8h2.1v-1.8H136.5z
		 M140.6,564.9h-2.3v1.5h2.3V564.9z M140.6,569.2v-1.5h-2.3v1.5H140.6z"/>
	<path d="M149,569.8c-0.8,0.8-1.7,1.5-2.6,1.9c-0.2-0.3-0.6-0.8-0.9-1c1.1-0.4,2.2-1.2,3-2h-2.2v-3h2.8V565h-3.2v-1.2h3.2v-1h1.4v1
		h3.1v1.2h-3.1v0.7h2.7v1.3c1.1-1,1.9-2.5,2.3-4.1l1.4,0.3c-0.1,0.5-0.3,1-0.5,1.5h4.5v1.3h-1.1c-0.4,1.2-0.9,2.3-1.6,3.1
		c0.8,0.6,1.8,1.2,2.9,1.5c-0.3,0.3-0.7,0.9-0.9,1.2c-1.2-0.4-2.2-1-3-1.8c-0.9,0.8-1.9,1.3-3.1,1.8c-0.2-0.3-0.6-0.9-0.9-1.1
		c1.2-0.4,2.3-0.9,3.1-1.6c-0.5-0.6-0.9-1.3-1.3-1.9c-0.3,0.4-0.6,0.7-0.9,1c-0.2-0.3-0.7-0.8-1-1.1v1.7h-2c0.7,0.4,1.6,0.9,2,1.3
		l-0.7,0.9c-0.4-0.4-1.3-1-2.1-1.4v2H149V569.8z M154,576.7h6.9v1.3h-15.3v-1.3h2.7V574h1.5v2.7h2.7v-3.5h-5.7v-1.3h13.2v1.3H154
		v1.1h4.6v1.2H154V576.7z M147.5,567.8h1.5v-1.1h-1.5V567.8z M150.4,566.7v1.1h1.4v-1.1H150.4z M150.9,568.7h-0.5v0.6L150.9,568.7z
		 M155.8,566c0.3,0.7,0.8,1.5,1.4,2.2c0.5-0.6,0.9-1.3,1.1-2.2H155.8z"/>
	<path d="M165.9,571.3c1.3-0.5,2.1-1.3,2.2-2.3c-0.1,0-0.2,0-0.2,0c-0.8,0-1.4-0.5-1.4-1.4c0-0.8,0.7-1.3,1.4-1.3
		c1.1,0,1.6,0.8,1.6,2.1c0,1.9-1.2,3.3-3.1,4L165.9,571.3z"/>
	<path d="M181.7,571.4c-1,1.7-2.3,3.3-3.5,4.6l7.7-0.5c-0.7-1-1.4-1.9-2.1-2.7l1.4-0.6c1.5,1.7,3.1,3.9,3.9,5.4l-1.6,0.8
		c-0.2-0.4-0.5-0.9-0.8-1.4c-8.9,0.7-9.9,0.8-10.6,1.1c-0.1-0.3-0.3-1.1-0.5-1.6c0.4-0.1,0.8-0.5,1.3-1.1c0.5-0.5,1.8-2.2,2.8-4
		h-5.1v-1.6h6.7v-2.9h-5.4v-1.6h5.4v-2.5h1.7v2.5h5.6v1.6H183v2.9h6.8v1.6H181.7z"/>
	<path d="M199,567h-5.9v-1.3h2.9c-0.3-0.6-0.7-1.6-1.2-2.3l1.2-0.5c0.5,0.7,1,1.6,1.2,2.2l-1.1,0.6h2.8V567z M195,577.5v0.7h-1.3
		v-5.7h4.7v5H195z M193.8,570.2h4.6v1.2h-4.6V570.2z M198.4,569.2h-4.6V568h4.6V569.2z M195,573.8v2.4h2.2v-2.4H195z M208.2,576.7
		c0,0.7-0.2,1.1-0.6,1.4c-0.5,0.2-1.2,0.3-2.3,0.3c-0.1-0.4-0.2-1-0.4-1.3c0.8,0,1.5,0,1.7,0c0.2,0,0.3-0.1,0.3-0.3v-6.2h-5.8
		c0,2.5-0.3,5.9-1.5,8c-0.2-0.2-0.8-0.6-1.1-0.8c1.2-2.2,1.3-5.3,1.3-7.7v-6.4h8.4V576.7z M201.1,564.9v1.5h2.2v-1.5H201.1z
		 M201.1,569.2h2.2v-1.5h-2.2V569.2z M202.8,575.5v0.8h-1.1v-4.8h4.4v4.1H202.8z M202.8,572.6v1.8h2.1v-1.8H202.8z M206.9,564.9
		h-2.3v1.5h2.3V564.9z M206.9,569.2v-1.5h-2.3v1.5H206.9z"/>
	<path d="M216.2,570.8c-0.3,1.5-0.7,3.2-1.3,4.4c0.3,0.2,0.7,0.4,1.2,0.8c1.2,0.7,2.7,0.8,4.7,0.8c2.1,0,4.9-0.2,6.8-0.4
		c-0.2,0.4-0.4,1.2-0.5,1.6c-1.3,0.1-4.4,0.2-6.4,0.2c-2.2,0-3.7-0.2-4.9-0.9c-0.7-0.4-1.3-1-1.7-1c-0.4,0-1,1.1-1.4,2.1l-1.1-1.5
		c0.6-0.8,1.3-1.5,1.9-1.9c0.4-0.9,0.8-2.1,1-3.2h-2.2c0.4-1,1-2.4,1.4-3.7h-1.8v-1.4h3.8c-0.4,1.2-0.9,2.6-1.4,3.8h0.9l0.3-0.1
		L216.2,570.8z M213.9,566.2c-0.3-0.7-0.8-1.9-1.1-2.8l1.4-0.4c0.4,0.9,0.9,2,1.2,2.7L213.9,566.2z M219,565.4h-2.6v-1.2h4.6
		c-0.2-0.3-0.4-0.7-0.6-1l1.2-0.5c0.4,0.4,0.7,1,1,1.5h4.6v1.2h-2.3l0.2,0.1c-0.3,0.5-0.5,1-0.7,1.4h2.4v7.3c0,0.7-0.1,1.1-0.6,1.3
		c-0.5,0.2-1.2,0.3-2.2,0.3c-0.1-0.4-0.3-1-0.4-1.3c0.7,0,1.3,0,1.5,0c0.2,0,0.3-0.1,0.3-0.3v-6h-2.9v1h2.3v1h-2.3v1.1h1.7v3h-3.4
		v0.6h-1.1v-3.6h1.6v-1.1h-2.3v-1h2.3v-1h-2.8v7.5h-1.4v-8.7h2.2c-0.1-0.4-0.3-1-0.6-1.4L219,565.4z M222.8,566.9
		c0.2-0.4,0.5-1,0.7-1.5h-3.6c0.3,0.5,0.5,1,0.6,1.4l-0.3,0.1H222.8z M222.9,572.2h-2.3v1.1h2.3V572.2z"/>
	<path d="M238.8,565.7v2.9l0.3-0.3c1.9,0.9,4.6,2.5,5.9,3.5l-1.1,1.5c-1.1-0.9-3.2-2.3-5-3.3v8.5h-1.7v-12.7h-6.3v-1.6h15v1.6H238.8
		z"/>
	<path d="M264.7,569.6v1.7h-15.5v-1.7H264.7z"/>
	<path d="M272.3,567.3c-0.6,2.5-1.6,5.6-3.1,7.6c-0.4-0.3-1-0.7-1.4-0.9c1.5-1.8,2.4-4.7,2.8-7L272.3,567.3z M276.6,563.1v13.2
		c0,1.1-0.3,1.5-0.9,1.8c-0.7,0.3-1.8,0.3-3.4,0.3c-0.1-0.5-0.4-1.2-0.6-1.7c1.2,0.1,2.4,0.1,2.8,0c0.3,0,0.5-0.1,0.5-0.4v-13.2
		H276.6z M280.4,566.8c1.4,2.3,2.8,5.4,3.2,7.4L282,575c-0.4-2-1.7-5.1-3.1-7.6L280.4,566.8z"/>
	<path d="M295.3,569.4v4.9c1.7-1,2.9-2.4,3.8-4.2l1.5,0.7c-2.4,4.5-6.7,6.6-13.1,7.6c-0.2-0.5-0.5-1.1-0.8-1.5
		c3.3-0.4,6-1.2,8.1-2.4h-1.3v-5.2h-6.7v-1.5h2.4v-3.8h1.6v3.8h2.9v-5h1.7v1.6h4.9v1.5h-4.9v1.9h6.3v1.5H295.3z M292.2,570.5
		c-0.9,1.5-2.4,3.1-3.7,4.1c-0.3-0.3-0.8-0.9-1.2-1.2c1.3-0.8,2.6-2.1,3.4-3.5L292.2,570.5z"/>
	<path d="M320.4,565.5c0,0,0,0.5,0,0.7c-0.2,7.7-0.4,10.3-1.1,11.2c-0.4,0.6-0.8,0.7-1.5,0.8c-0.6,0.1-1.6,0.1-2.6,0
		c0-0.4-0.2-1.1-0.5-1.5c1.1,0.1,2.1,0.1,2.5,0.1c0.3,0,0.5-0.1,0.7-0.3c0.5-0.6,0.8-3.1,1-9.5h-4c-0.5,1.1-1,2.1-1.5,2.9
		c-0.3-0.2-0.8-0.7-1.2-0.9v7.8h-4.6v1.3h-1.4v-12.4h1.9c0.2-0.8,0.5-1.9,0.6-2.8l1.7,0.3c-0.3,0.9-0.6,1.8-0.9,2.5h2.7v3.2
		c1.1-1.5,2-3.7,2.5-6l1.5,0.4c-0.2,0.8-0.4,1.6-0.7,2.3H320.4z M307.5,567v3.2h3.2V567H307.5z M310.7,575.3v-3.8h-3.2v3.8H310.7z
		 M316.3,574c-0.5-1-1.6-2.7-2.5-3.9l1.2-0.7c0.9,1.2,2.1,2.8,2.6,3.8L316.3,574z"/>
	<path d="M330,567.1c-0.5,0.9-1.2,1.8-1.9,2.6v8.9h-1.6v-7.1c-0.6,0.6-1.1,1.1-1.7,1.5c-0.2-0.3-0.8-1-1.1-1.3
		c1.8-1.2,3.6-3.2,4.7-5.1L330,567.1z M329.3,563.5c-1.2,1.5-2.9,3.2-4.5,4.3c-0.2-0.4-0.6-1-0.9-1.3c1.4-0.9,3.1-2.4,3.9-3.7
		L329.3,563.5z M339.4,570H337v6.6c0,0.9-0.2,1.3-0.8,1.5c-0.6,0.2-1.7,0.2-3.2,0.2c-0.1-0.4-0.3-1.1-0.5-1.5c1.1,0,2.2,0,2.5,0
		c0.3,0,0.4-0.1,0.4-0.3V570h-5.4v-1.5h9.4V570z M339,565.4h-8.3v-1.5h8.3V565.4z"/>
	<path d="M357.9,566.7c0,0,0,0.6,0,0.7c-0.2,7-0.3,9.3-0.9,10.1c-0.4,0.5-0.7,0.7-1.3,0.7c-0.5,0.1-1.3,0.1-2.1,0
		c0-0.4-0.2-1-0.5-1.4c0.8,0.1,1.5,0.1,1.9,0.1c0.3,0,0.4-0.1,0.6-0.3c0.4-0.5,0.6-2.7,0.7-8.5h-2c-0.2,4.6-1,8.2-3.9,10.4
		c-0.3-0.4-0.8-1-1.2-1.2c0.1-0.1,0.2-0.2,0.4-0.3c-2.4,0.3-4.9,0.5-6.7,0.7l-0.2-1.4c1-0.1,2.2-0.2,3.6-0.3V575h-3.1v-1.2h3.1V573
		h-3v-5.1h3v-0.9h-3.5v-1.2h3.5v-0.9c-1.1,0.1-2.1,0.2-3.1,0.2c0-0.3-0.2-0.8-0.4-1.1c2.5-0.1,5.6-0.5,7.3-0.9l0.8,1.2
		c-0.9,0.2-2,0.4-3.2,0.5v1h3.4v1h1.8c0-1.1,0-2.3,0-3.6h1.5c0,1.3,0,2.5,0,3.6H357.9z M344.5,569.9h1.8v-1h-1.8V569.9z
		 M346.3,571.9v-1h-1.8v1H346.3z M347.7,576.1c1.1-0.1,2.2-0.2,3.2-0.3c1.3-1.9,1.8-4.4,1.9-7.5H351v-1.3h-3.3v0.9h3.2v5.1h-3.2v0.9
		h3.3v1.2h-3.3V576.1z M349.5,569.9v-1h-1.8v1H349.5z M347.7,570.9v1h1.8v-1H347.7z"/>
	<path d="M363.1,571.3c1.3-0.5,2.1-1.3,2.2-2.3c-0.1,0-0.2,0-0.2,0c-0.8,0-1.4-0.5-1.4-1.4c0-0.8,0.7-1.3,1.4-1.3
		c1.1,0,1.6,0.8,1.6,2.1c0,1.9-1.2,3.3-3.1,4L363.1,571.3z"/>
	<path d="M118.6,591h-5.4v-1.3h5.4V591z M118.2,601.5h-3.2v0.7h-1.1v-5.7h4.4V601.5z M118.1,593.2h-4.2V592h4.2V593.2z M113.9,594.2
		h4.2v1.2h-4.2V594.2z M115.7,589.7c-0.1-0.6-0.5-1.6-0.9-2.3l1.1-0.4c0.4,0.7,0.8,1.6,1,2.2L115.7,589.7z M114.9,597.8v2.5h2.1
		v-2.5H114.9z M128.5,599.1c-0.6,0.4-1.3,0.8-1.9,1.1c0.6,0.5,1.4,0.9,2.4,1.1c-0.3,0.3-0.7,0.8-0.8,1.1c-2.2-0.7-3.7-2.2-4.5-4.2
		h-0.2c-0.4,0.4-0.9,0.7-1.3,1v1.6l2.3-0.4c0,0.4,0,0.9,0.1,1.2c-2.8,0.6-3.3,0.8-3.6,0.9c-0.1-0.3-0.4-0.7-0.7-1
		c0.3-0.2,0.7-0.7,0.7-1.5v-0.2c-0.6,0.3-1.2,0.5-1.8,0.7c-0.1-0.3-0.5-0.8-0.8-1c1.2-0.3,2.4-0.8,3.4-1.3h-3V597h2.5v-0.7h-1.7v-1
		h1.7v-0.7h-2v-1h2v-0.9h-1.7v-2.9h3.9v2.9h-0.8v0.9h2.2v-0.9h-0.7v-2.9h3.9v2.9h-1.9v0.9h2.2v1h-2.2v0.7h1.9v1h-1.9v0.7h2.6v1.1
		H125c0.2,0.4,0.5,0.9,0.8,1.3c0.6-0.4,1.4-0.8,1.8-1.1L128.5,599.1z M128.6,589.2h-9.7V588h4.2c-0.1-0.3-0.3-0.7-0.5-1l1.3-0.4
		c0.3,0.4,0.5,1,0.7,1.4h4V589.2z M120.7,591.8h1.5v-1.1h-1.5V591.8z M122.6,595.3h2.2v-0.7h-2.2V595.3z M122.6,597h2.2v-0.7h-2.2
		V597z M125.3,591.8h1.5v-1.1h-1.5V591.8z"/>
	<path d="M135.4,593.8c-0.8,0.8-1.7,1.5-2.6,1.9c-0.2-0.3-0.6-0.8-0.9-1c1.1-0.4,2.2-1.2,3-2h-2.2v-3h2.8V589h-3.2v-1.2h3.2v-1h1.4
		v1h3.1v1.2h-3.1v0.7h2.7v1.3c1.1-1,1.9-2.5,2.3-4.1l1.4,0.3c-0.1,0.5-0.3,1-0.5,1.5h4.5v1.3h-1.1c-0.4,1.2-0.9,2.3-1.6,3.1
		c0.8,0.6,1.8,1.2,2.9,1.5c-0.3,0.3-0.7,0.9-0.9,1.2c-1.2-0.4-2.2-1-3-1.8c-0.9,0.8-1.9,1.3-3.1,1.8c-0.2-0.3-0.6-0.9-0.9-1.1
		c1.2-0.4,2.3-0.9,3.1-1.6c-0.5-0.6-0.9-1.3-1.3-1.9c-0.3,0.4-0.6,0.7-0.9,1c-0.2-0.3-0.7-0.8-1-1.1v1.7h-2c0.7,0.4,1.6,0.9,2,1.3
		l-0.7,0.9c-0.4-0.4-1.3-1-2.1-1.4v2h-1.4V593.8z M140.4,600.7h6.9v1.3H132v-1.3h2.7V598h1.5v2.7h2.7v-3.5h-5.7v-1.3h13.2v1.3h-5.8
		v1.1h4.6v1.2h-4.6V600.7z M133.9,591.8h1.5v-1.1h-1.5V591.8z M136.8,590.7v1.1h1.4v-1.1H136.8z M137.3,592.7h-0.5v0.6L137.3,592.7z
		 M142.2,590c0.3,0.7,0.8,1.5,1.4,2.2c0.5-0.6,0.9-1.3,1.1-2.2H142.2z"/>
	<path d="M156.6,594.7v6.3c0,0.6-0.1,1-0.5,1.2c-0.4,0.2-1,0.2-1.9,0.2c-0.1-0.4-0.3-0.9-0.4-1.2c0.6,0,1.1,0,1.3,0
		c0.2,0,0.2-0.1,0.2-0.2V599c-0.7,0.4-1.4,0.9-2,1.2l-0.5-1c-0.2,1.1-0.4,2.3-1,3.2c-0.2-0.3-0.8-0.7-1.1-0.8c0.9-1.3,1-3,1-4.4
		v-2.7h-0.8v-2.5h0.7v-4.7h5.2v4.7h0.7v2.5H156.6z M156.1,593.3h-4.2v0.9h4.2V593.3z M152.7,592.2h0.9v-2.7h1.8v-0.9h-2.6V592.2z
		 M152.9,597.4c0,0.5,0,1.2-0.1,1.8c0.7-0.3,1.5-0.7,2.5-1.2v-2.7h-2.4v1.2l0.6-0.6c0.6,0.4,1.4,0.9,1.7,1.3l-0.7,0.8
		c-0.4-0.4-1.1-1-1.6-1.4V597.4z M155.3,592.2v-1.7h-0.9v1.7H155.3z M166.2,601v1.2h-8.9V601h2.2c-0.2-0.5-0.3-1-0.5-1.4l1.1-0.3
		h-1.9V596h7v3.2h-2l1.3,0.4c-0.3,0.5-0.5,1-0.8,1.4H166.2z M166.1,595.3h-8.5v-1.2h8.5V595.3z M165.6,593.4h-7.8v-5.2h2.1v-1.3h1.3
		v1.3h1v-1.3h1.3v1.3h2.2V593.4z M159.1,590.2h1.1v-1h-1.1V590.2z M159.1,592.3h1.1v-1h-1.1V592.3z M159.7,598.2h4.1V597h-4.1V598.2
		z M160.3,599.2c0.3,0.6,0.6,1.3,0.7,1.8h1.5c0.3-0.6,0.5-1.3,0.7-1.8H160.3z M162.3,590.2v-1h-1.1v1H162.3z M161.2,591.2v1h1.1v-1
		H161.2z M164.4,589.2h-1.2v1h1.2V589.2z M164.4,591.2h-1.2v1h1.2V591.2z"/>
	<path d="M183,587.7c-0.1,6.4-0.1,13.1,0.9,13.1c0.2,0,0.3-1.1,0.3-2.5c0.3,0.4,0.6,0.9,0.9,1.2c-0.2,2.1-0.4,3-1.4,3
		c-2.2,0-2.2-6-2.2-13.3h-8.8v4.1c0,2.8-0.3,6.7-2.2,9.2c-0.3-0.3-0.9-0.7-1.3-0.9c1.8-2.4,1.9-5.8,1.9-8.4v-5.6H183z M179.9,597.8
		c0.8,1.1,1.6,2.7,1.8,3.7l-1.3,0.5c-0.1-0.4-0.2-0.8-0.4-1.2c-2.7,0.2-5.4,0.4-7.4,0.5l-0.1-1.4c1-0.1,2.3-0.1,3.7-0.2v-2.1h-2.8
		v-4.8h2.8v-1.4h-3v-1.3h7.4v1.3h-3.1v1.4h2.9v4.8h-2.9v2l1.8-0.1c-0.2-0.4-0.5-0.9-0.8-1.3L179.9,597.8z M176.2,596.3V594h-1.6v2.3
		H176.2z M177.6,594v2.3h1.6V594H177.6z"/>
	<path d="M193.3,588c-0.4,1.4-1,3.1-1.4,4.4c1,1.4,1.3,2.6,1.3,3.6c0,1-0.2,1.7-0.6,2.1c-0.3,0.2-0.5,0.3-0.9,0.3
		c-0.3,0-0.7,0-1.1,0c0-0.4-0.1-1-0.3-1.4c0.3,0,0.6,0,0.8,0c0.2,0,0.3-0.1,0.4-0.2c0.2-0.2,0.3-0.6,0.3-1.1c0-0.8-0.2-2-1.2-3.3
		c0.4-1.1,0.8-2.5,1.1-3.7h-1.7v13.5h-1.3v-14.9h3.5l0.2-0.1L193.3,588z M196.4,597.7c-0.1,0.4-0.3,0.8-0.4,1.2
		c0.7,0.4,1.4,0.9,1.8,1.3l-0.8,1.1c-0.3-0.4-0.9-0.9-1.5-1.3c-0.7,1.1-1.5,2-2.5,2.6c-0.2-0.3-0.7-0.8-1-1c1.5-0.9,2.6-2.3,3.2-4.1
		L196.4,597.7z M195.5,590.9c-0.6,0.4-1.2,0.8-1.8,1.1c-0.2-0.3-0.7-0.8-1-1.1c2-1.1,3.8-2.7,4.8-4.2l1.5,0.5
		c-0.1,0.2-0.2,0.4-0.4,0.5c1.2,1.1,3.3,2.2,5,2.8c-0.3,0.4-0.6,1.1-0.7,1.5c-0.8-0.4-1.6-0.8-2.4-1.3v1.2h-5V590.9z M193.6,592.9
		h3.9v4.1h-3.9V592.9z M194.8,596h1.5V594h-1.5V596z M200.4,590.6c-0.9-0.6-1.8-1.2-2.5-1.9c-0.6,0.7-1.3,1.3-2,1.9H200.4z
		 M201.2,597.6c-0.1,0.5-0.2,1-0.4,1.4c1,0.7,2.2,1.5,2.8,2.1l-0.9,1.1c-0.5-0.6-1.5-1.3-2.4-2c-0.5,0.9-1.2,1.7-2,2.3
		c-0.2-0.2-0.7-0.8-1-1c1.4-0.9,2.2-2.3,2.6-4.1L201.2,597.6z M198.5,592.9h4v4.1h-4V592.9z M199.7,596h1.6V594h-1.6V596z"/>
	<path d="M212.6,588.1c-0.5,1.4-1.2,3.1-1.8,4.4c1.3,1.4,1.6,2.6,1.6,3.6c0,1-0.2,1.7-0.7,2.1c-0.3,0.2-0.6,0.3-1,0.3
		c-0.3,0-0.8,0-1.2,0c0-0.4-0.2-1-0.4-1.4c0.4,0,0.7,0,1,0c0.2,0,0.4-0.1,0.5-0.2c0.3-0.2,0.4-0.6,0.4-1.1c0-0.9-0.3-2-1.6-3.3
		c0.5-1.1,1-2.5,1.3-3.7h-2.1v13.4h-1.4v-14.9h4l0.2-0.1L212.6,588.1z M221.5,588.7c-0.6,1.3-1.6,2.4-2.8,3.3c1.1,0.6,2.4,1,3.7,1.2
		c-0.3,0.3-0.7,0.9-0.9,1.3c-1.5-0.3-2.9-0.9-4.1-1.6c-1.3,0.8-2.8,1.3-4.4,1.7c-0.2-0.4-0.5-1-0.8-1.3c1.4-0.3,2.7-0.7,4-1.3
		c-0.5-0.4-1-0.9-1.3-1.4c-0.5,0.4-1,0.8-1.5,1.2c-0.2-0.4-0.7-0.9-1-1.1c1.8-1.1,3-2.6,3.7-3.9l1.6,0.3c-0.2,0.4-0.4,0.7-0.7,1.1
		h3.4l0.3-0.1L221.5,588.7z M218.5,598.6h3.7v1.4h-3.7v2.5H217V600h-4.4c0.3-0.9,0.7-2.2,0.9-3.4H213v-1.4h4v-1.1h1.5v1.1h3.2v1.4
		h-3.2V598.6z M217,598.6v-2h-2c-0.1,0.6-0.3,1.4-0.5,2H217z M215.8,589.7c0.4,0.6,1,1.2,1.7,1.6c0.8-0.5,1.4-1.1,2-1.8h-3.5
		L215.8,589.7z"/>
	<path d="M240.8,600.4v1.5h-15.1v-1.5h6.7v-2.8h-5.2v-1.5h5.2v-2h1.6v2h5.3v1.5H234v2.8H240.8z M238.9,594.6c-0.3-0.3-0.6-0.7-1-1.2
		c-8.9,0.4-9.9,0.4-10.6,0.7c-0.1-0.3-0.3-1.1-0.5-1.5c0.3-0.1,0.7-0.3,1.2-0.8c0.4-0.3,1.4-1.3,2.3-2.5h-4.2v-1.5h14.2v1.5h-8
		c-0.9,1.2-1.9,2.3-2.8,3.1l7.1-0.2c-0.6-0.6-1.3-1.1-1.9-1.6l1.3-0.8c1.5,1.1,3.4,2.8,4.3,4L238.9,594.6z"/>
	<path d="M258.9,595.8c-0.5,1.6-1.3,2.9-2.3,3.9c0.9,0.6,1.9,1.1,3.1,1.4c-0.3,0.3-0.7,0.9-1,1.3c-1.2-0.4-2.3-0.9-3.3-1.6
		c-1,0.7-2.1,1.3-3.2,1.7c-0.2-0.4-0.5-0.9-0.8-1.2v1.3H250v-1.6c-2,0.2-4.1,0.5-5.6,0.6l-0.1-1.4c0.5,0,1-0.1,1.5-0.1v-5.5h-1.4
		v-1.3h14.9v1.3h-7.8v6.6c1.1-0.3,2.1-0.8,3-1.5c-0.7-0.8-1.4-1.8-1.8-2.9l0.4-0.1h-1v-1.2h5.6l0.3-0.1L258.9,595.8z M247.9,592.6
		h-1.5v-5.2h11v5.2h-1.6v-4.1h-7.9V592.6z M247.2,594.6v1h2.8v-1H247.2z M247.2,597.6h2.8v-1h-2.8V597.6z M247.2,599.9
		c0.9-0.1,1.8-0.2,2.8-0.3v-0.8h-2.8V599.9z M255.1,589.4v1h-6.5v-1H255.1z M248.6,591.2h6.5v1h-6.5V591.2z M254.1,596.7
		c0.4,0.7,0.8,1.5,1.5,2.1c0.6-0.6,1.1-1.3,1.5-2.1H254.1z"/>
	<path d="M267.9,587.4c-0.5,1.2-1.1,2.4-1.7,3.6v11.5h-1.5v-9.1c-0.5,0.6-1,1.2-1.4,1.8c-0.2-0.4-0.6-1.2-0.9-1.6
		c1.6-1.6,3.1-4.1,4-6.5L267.9,587.4z M275.1,594.7c0.4,3.4,1,5.8,1.8,5.8c0.3,0,0.5-0.8,0.6-2.3c0.2,0.3,0.8,0.7,1.1,0.8
		c-0.4,2.6-1,3.3-1.7,3.3c-1.8,0-2.7-3.1-3.2-7.6H270v4.2l2.9-0.7c0,0.4,0,1,0,1.3c-3.7,1-4.3,1.2-4.6,1.5c-0.1-0.4-0.4-1-0.6-1.3
		c0.3-0.2,0.8-0.5,0.8-1.1v-10h0l0,0c2.8-0.4,6-1.1,7.9-1.8l1.2,1.2c-0.9,0.3-1.9,0.6-2.9,0.8c0.1,1.5,0.1,3.1,0.3,4.4h3.2v1.5
		H275.1z M273.5,593.2c-0.1-1.3-0.2-2.7-0.3-4.1c-1.1,0.2-2.2,0.4-3.3,0.6v3.6H273.5z M270,600.8h4.5v1.3H270V600.8z"/>
	<path d="M283.2,595.3c1.3-0.5,2.1-1.3,2.2-2.3c-0.1,0-0.2,0-0.2,0c-0.8,0-1.4-0.5-1.4-1.4c0-0.8,0.7-1.3,1.4-1.3
		c1.1,0,1.6,0.8,1.6,2.1c0,1.9-1.2,3.3-3.1,4L283.2,595.3z"/>
	<path d="M103.5,617.2c1.2,3.5,3.3,6.4,6.5,7.8c-0.4,0.3-0.9,1-1.2,1.5c-3.2-1.5-5.2-4.2-6.6-7.8c-0.9,3.1-2.7,6-6.6,7.8
		c-0.3-0.4-0.8-1-1.2-1.3c4-1.8,5.7-4.8,6.4-7.9h-6v-1.6h6.3c0.2-1.7,0.2-3.3,0.2-4.7h1.7c0,1.4,0,3-0.2,4.7h6.9v1.6H103.5z"/>
	<path d="M119.4,621.3c0,0.5-0.1,1-0.4,1.2c-0.3,0.3-0.7,0.3-1.3,0.3c0-0.4-0.2-1-0.4-1.3h0.8c0.1,0,0.2,0,0.2-0.2v-5.9h-1.1v11
		h-1.3v-11h-1v7.6h-1.2v-9h2.2v-3.1h1.3v3.1h2.2V621.3z M128.6,611.7v1.3h-8.7v-1.3H128.6z M119.9,619.2h8.5v7.2H127v-0.5h-5.6v0.5
		h-1.4V619.2z M127.8,614v4h-7.1v-4H127.8z M121.3,620.4v1.5h2.1v-1.5H121.3z M123.4,624.7v-1.5h-2.1v1.5H123.4z M126.4,615.2H122
		v1.6h4.4V615.2z M127,620.4h-2.2v1.5h2.2V620.4z M127,624.7v-1.5h-2.2v1.5H127z"/>
	<path d="M135.3,620.2v4.4c0,0.8-0.2,1.2-0.6,1.4c-0.5,0.3-1.1,0.3-2.2,0.3c0-0.4-0.2-1.1-0.4-1.5c0.7,0,1.3,0,1.5,0
		c0.2,0,0.3-0.1,0.3-0.3v-3.9l-1.8,0.5l-0.4-1.5c0.6-0.2,1.3-0.4,2.1-0.6v-3.4h-2v-1.5h2v-3.3h1.4v3.3h1.8v1.5h-1.8v3l1.6-0.5
		l0.2,1.4L135.3,620.2z M142.9,624.8c0.5,0.1,0.9,0.1,1.4,0.1s2.7,0,3.3,0c-0.2,0.3-0.4,1-0.4,1.4h-2.9c-2.4,0-4.1-0.4-5.2-2.7
		c-0.5,1.2-1.1,2.2-1.9,2.9c-0.2-0.3-0.8-0.7-1.2-1c1.5-1.2,2.2-3.1,2.5-5.5l1.4,0.2c-0.1,0.6-0.2,1.2-0.3,1.8
		c0.4,1.2,1.1,2,1.9,2.3v-5h-4.1v-1.3h9.8v1.3h-4.2v1.8h3.4v1.3h-3.4V624.8z M146.3,617h-8.1v-5.6h8.1V617z M144.8,612.6h-5.2v1.1
		h5.2V612.6z M144.8,614.7h-5.2v1.1h5.2V614.7z"/>
	<path d="M166,619.1h-3.6v7.3h-1.6v-7.3h-4.8c-0.1,2.8-0.9,5.5-4.3,7.4c-0.2-0.4-0.8-0.9-1.1-1.2c3-1.6,3.7-3.9,3.9-6.2h-3.7v-1.5
		h3.7v-3.4c-1,0.3-2.1,0.5-3,0.8c-0.1-0.4-0.3-1-0.6-1.3c2.7-0.6,5.6-1.6,7.3-2.6l1.2,1.3c-1,0.5-2.1,0.9-3.2,1.3v3.9h4.8v-6.4h1.6
		v6.4h3.6V619.1z"/>
	<path d="M184.7,624.4v1.5h-15.1v-1.5h6.7v-3.9h-4.8V619h4.8v-3.4h-3.8c-0.5,1-1.1,1.9-1.7,2.6c-0.3-0.3-1-0.7-1.4-1
		c1.4-1.4,2.4-3.8,3.1-6.2l1.6,0.4c-0.3,0.9-0.6,1.7-0.9,2.5h3.1v-3.2h1.6v3.2h5.9v1.5h-5.9v3.4h5.3v1.5h-5.3v3.9H184.7z"/>
	<path d="M203.6,624.7v1.3h-12.5v-1.3h5.3v-1.4h-3.8V622h3.8v-1.2h-3.2c-0.5,0.8-1.1,1.6-1.7,2.2c-0.1-0.3-0.5-1.1-0.8-1.4
		c-0.2,1.8-0.6,3.7-1.8,5.1c-0.2-0.3-0.9-0.8-1.2-1c1.4-1.6,1.5-3.9,1.5-5.6v-3.3h2.2c-0.2-0.2-0.5-0.5-0.7-0.7
		c1.3-0.2,2.8-0.5,4.2-0.9c-1.2-0.3-2.4-0.6-3.6-0.9l0.9-0.7h-2.8v-1.2h6.1c-0.2-0.4-0.5-0.8-0.8-1.1l1.1-0.5
		c0.4,0.5,0.9,1.1,1.2,1.6h5.8v1.2h-2.5l0.7,0.5c-0.7,0.3-1.5,0.7-2.4,1c1.1,0.3,2.2,0.7,3,1l-0.8,0.7h2.5v1.3h-12.5v2
		c0,0.5,0,1-0.1,1.6c0.9-0.8,1.7-2.1,2.2-3.4l1.4,0.4c-0.1,0.3-0.3,0.6-0.4,1h2.5v-1.3h1.6v1.3h4.4v1.3H198v1.2h4v1.2h-4v1.4H203.6z
		 M200.1,616.7c-0.9-0.3-2.1-0.7-3.3-1.1c-1.4,0.4-2.8,0.8-4.1,1.1H200.1z M193.1,613.6c1.2,0.3,2.6,0.6,3.9,1c1-0.3,1.9-0.6,2.6-1
		H193.1z"/>
	<path d="M221.4,614.5c0,0,0,0.6,0,0.8c-0.4,6.9-0.7,9.4-1.4,10.3c-0.5,0.5-0.9,0.7-1.6,0.8c-0.6,0.1-1.7,0.1-2.7,0
		c0-0.5-0.3-1.2-0.6-1.6c1.1,0.1,2.2,0.1,2.6,0.1c0.4,0,0.6-0.1,0.8-0.3c0.6-0.5,0.9-2.9,1.2-8.4h-5.3c-0.3,3.5-1.4,7.6-6.2,10.5
		c-0.3-0.4-0.8-1-1.2-1.3c4.4-2.5,5.5-6.1,5.8-9.2h-5.3v-1.6h5.4V614v-3.1h1.7v3.1v0.4H221.4z"/>
	<path d="M240.2,616.8c-0.7,2.7-1.9,4.8-3.6,6.3c1.2,0.8,2.7,1.5,4.4,1.9c-0.4,0.4-0.8,1.1-1.1,1.5c-1.8-0.5-3.3-1.3-4.6-2.3
		c-1.5,1.1-3.3,1.9-5.2,2.4c-0.2-0.5-0.6-1.1-0.9-1.5c1.8-0.4,3.5-1.1,4.9-2.1c-1.3-1.4-2.3-3.1-3.1-5.2h-0.5
		c-0.4,2.8-1.4,5.8-4.1,8.3c-0.2-0.4-0.8-1.1-1.1-1.3c3.5-3.2,3.8-7.4,3.8-10.3v-1.4h-2.9v-1.5h10.5c-0.3,1.5-0.7,3.4-1.1,4.8h3.1
		l0.3-0.1L240.2,616.8z M230.7,614.6c0,0.6,0,1.2-0.1,1.8h3.3c0.3-1,0.6-2.1,0.8-3.3h-4V614.6z M232.6,617.9c0.6,1.6,1.6,3,2.8,4.1
		c1.2-1.1,2.1-2.5,2.8-4.1H232.6z"/>
	<path d="M246.8,618.4c-0.6-0.5-1.8-1.3-2.8-1.7l0.9-1.2c1,0.4,2.2,1,2.8,1.6L246.8,618.4z M244.3,625.4c0.7-1.3,1.6-3.5,2.3-5.4
		l1.3,0.9c-0.6,1.8-1.4,3.8-2.1,5.4L244.3,625.4z M254.5,616.3v1h4.7v7.8c0,0.7-0.1,1-0.6,1.2c-0.4,0.2-1.1,0.2-2.1,0.2
		c-0.1-0.3-0.2-0.9-0.4-1.2c0.6,0,1.3,0,1.4,0c0.2,0,0.3-0.1,0.3-0.2v-1.4c-0.2,0.2-0.4,0.4-0.5,0.5c-0.4-0.4-0.8-1.1-1-1.9
		c-0.3,0.7-0.6,1.4-1.3,1.9c-0.1-0.2-0.3-0.4-0.5-0.5v2.5h-1.4v-2.6c-0.2,0.2-0.4,0.4-0.5,0.5c-0.4-0.4-0.7-1-0.9-1.7
		c-0.2,0.7-0.6,1.4-1.2,1.9c-0.1-0.2-0.4-0.4-0.6-0.6v2.6h-1.3v-9.1h4.5v-1h-2.4v-2.6h-2.4v-0.9l-0.9,1.1c-0.5-0.5-1.7-1.3-2.6-1.8
		l0.9-1.1c0.9,0.4,2,1,2.6,1.6v-0.4h2.4v-1.4h1.5v1.4h3.3v-1.4h1.5v1.4h2.5v1.4H257v2.6H254.5z M252.1,619.4c0.1,1.7,0.4,3.1,1,3.9
		v-4.7h-3.2v5c0.7-0.7,1.1-1.7,1.2-2.7h0.3c0-0.2,0-0.3-0.1-0.5h-0.8v-1h0.6v0H252.1z M252.1,614.9h3.3v-1.3h-3.3V614.9z
		 M254.5,618.6v4.8c0.7-0.6,1-1.6,1.1-2.5h0.3c0-0.2,0-0.3-0.1-0.5H255v-1h1.6c0.1,1.7,0.4,3.1,1.1,3.9v-4.7H254.5z"/>
	<path d="M263.1,625.3c0.8-0.7,1.6-1.9,2-2.9l1.3,0.6c-0.5,1.1-1.2,2.3-2.1,3.1L263.1,625.3z M277.9,616h-14.5v-1.3h3.8
		c-0.1-0.4-0.3-0.8-0.5-1.2l1.1-0.3h-3.6V612h5.8c-0.1-0.3-0.3-0.7-0.4-1l1.5-0.3c0.2,0.4,0.5,0.8,0.6,1.3h5.3v1.2h-3.4l1.2,0.2
		c-0.3,0.5-0.5,0.9-0.7,1.2h3.8V616z M276,621.7h-5.6c0.8,0.4,1.7,1,2.2,1.4l-1,1c-0.5-0.5-1.7-1.3-2.7-1.8l0.6-0.6h-4.3v-5H276
		V621.7z M274.4,617.7h-7.6v1h7.6V617.7z M274.4,619.7h-7.6v1h7.6V619.7z M272.3,625c0.7,0,0.8-0.2,0.9-1.6c0.3,0.2,1,0.4,1.4,0.5
		c-0.2,1.9-0.6,2.3-2.1,2.3h-3c-1.9,0-2.4-0.4-2.4-1.8v-2h1.5v2c0,0.4,0.2,0.5,1,0.5H272.3z M268.1,613.2c0.3,0.5,0.5,1,0.6,1.5h3.7
		c0.2-0.5,0.5-1,0.6-1.5H268.1z M275.8,622.2c0.8,0.9,1.8,2.1,2.2,3l-1.4,0.6c-0.4-0.8-1.2-2.1-2.1-3L275.8,622.2z"/>
	<path d="M284.5,617c0,2.8-0.2,6.8-1.6,9.5c-0.3-0.2-1-0.6-1.4-0.7c1.4-2.5,1.5-6.2,1.5-8.8v-4.5h6.4c-0.2-0.4-0.4-0.9-0.6-1.3
		l1.6-0.4c0.3,0.5,0.6,1.2,0.8,1.7h5.7v1.5h-12.4V617z M295.7,621c-0.7,1.4-1.9,2.4-3.3,3.2c1.4,0.4,3,0.7,4.7,0.8
		c-0.3,0.3-0.7,1-0.9,1.4c-2.1-0.2-4-0.7-5.6-1.4c-1.7,0.6-3.7,1-5.7,1.3c-0.1-0.4-0.4-1-0.6-1.3c1.6-0.1,3.2-0.4,4.7-0.8
		c-1-0.6-1.8-1.3-2.4-2.2l0.7-0.3H285v-1.3h9.4l0.3-0.1L295.7,621z M287.4,619.6v-2.7h-2.5v-1.3h2.5v-1.3h1.5v1.3h3.7v-1.3h1.5v1.3
		h2.6v1.3h-2.6v2.7H287.4z M288,621.8c0.6,0.7,1.5,1.3,2.6,1.8c1.1-0.5,2-1.1,2.7-1.8H288z M288.9,616.9v1.5h3.7v-1.5H288.9z"/>
	<path d="M303.8,616c1.5,0,2.7,1.2,2.7,2.7s-1.2,2.7-2.7,2.7c-1.5,0-2.7-1.2-2.7-2.7S302.3,616,303.8,616z M303.8,620.3
		c0.9,0,1.6-0.7,1.6-1.6s-0.7-1.6-1.6-1.6c-0.9,0-1.6,0.7-1.6,1.6S302.9,620.3,303.8,620.3z"/>
</g>
<g>
	<ellipse id="svg_29" class="st2" cx="197.9" cy="207.1" rx="150.4" ry="150.4"/>
	<ellipse id="svg_28" class="st3" cx="197.7" cy="207.4" rx="143.2" ry="143.2"/>
	<path id="svg_27" class="st4" d="M196.8,123.5c-31.6,0-57.3-25.7-57.3-57.3s25.7-57.3,57.3-57.3s57.3,25.7,57.3,57.3
		S228.4,123.5,196.8,123.5z"/>
	<ellipse id="svg_26" class="st4" cx="63.7" cy="172.2" rx="57.3" ry="57.3"/>
	<ellipse id="svg_25" class="st4" cx="90.4" cy="318.9" rx="57.3" ry="57.3"/>
	<ellipse id="svg_24" class="st4" cx="293.8" cy="318.9" rx="57.3" ry="57.3"/>
	<ellipse id="svg_23" class="st4" cx="336.3" cy="171.3" rx="57.3" ry="57.3"/>
	<g class="st1">
		<path class="st5" d="M40.2,166.4v16.4h-2.5v-1.1h-9.7v1.1h-2.5v-16.4h5.2c0.3-0.9,0.4-1.9,0.5-2.7L34,164
			c-0.3,0.8-0.7,1.6-0.9,2.4H40.2z M27.9,168.7v2.1h9.7v-2.1H27.9z M27.9,173.1v2.1h9.7v-2.1H27.9z M37.5,179.5v-2.1h-9.7v2.1H37.5z
			"/>
		<path class="st5" d="M62.4,179.8v2.4H43.9v-2.4h7.7v-4h-5.9v-2.4h5.9v-3.6h-6.9v-2.4h8.1c-0.8-0.8-2.1-1.7-3.1-2.5l2-1.3
			c1.3,0.8,3.1,2.1,3.9,3.1l-1.1,0.8h6.5v2.4h-6.8v3.6h5.9v2.4h-5.9v4L62.4,179.8L62.4,179.8z"/>
		<path class="st5" d="M82.8,179.1h-7.9v1.5c0,1.1-0.3,1.6-1.1,2c-0.8,0.3-2,0.3-3.5,0.3c-0.1-0.7-0.4-1.5-0.8-2c0.9,0,2.1,0,2.5,0
			c0.3,0,0.4,0,0.4-0.3v-1.3h-8.3v-1.9h8.3v-0.5c0.8-0.3,1.5-0.8,2.3-1.2h-6.5v-1.7h8.9l0.5-0.1l1.3,1.2c-1.1,0.8-2.5,1.6-3.9,2.4
			h7.6C82.8,177.4,82.8,179.1,82.8,179.1z M67,175.2h-2.3v-4.1h1.5l-0.4-6.1c1.2-0.3,3.1-0.8,4.1-1.2l0.9,1.5
			c-0.8,0.3-1.9,0.5-2.8,0.8v0.5h2.5v1.5h-2.5v0.7h2.5v1.1c0.5-0.3,0.9-0.5,1.5-0.8c-0.4-0.3-0.8-0.5-1.2-0.7l1.1-0.9
			c0.4,0.3,0.8,0.4,1.3,0.7c0.3-0.3,0.5-0.5,0.8-0.8l1.6,0.5c-0.3,0.4-0.7,0.8-1.1,1.2c0.5,0.3,0.9,0.7,1.2,0.9l-1.2,1.1
			c-0.3-0.3-0.7-0.7-1.2-1.1c-0.5,0.4-1.1,0.8-1.6,1.1h6.7l0.1-0.7h-2.4v-1.5h2.5v-0.7h-2.5v-1.5h2.5V166H76v-1.5h5.1
			c-0.1,2.1-0.3,4.8-0.4,6.7h1.5v4.1h-2.4V173H66.6v2.3H67z M68.5,171.1h3.3c-0.3-0.3-0.7-0.7-0.9-0.9v0.3h-2.4L68.5,171.1z
			 M74.8,167.3c-0.3-0.3-0.7-0.5-1.1-0.8c-0.5,0.4-1.1,0.8-1.6,1.1c-0.3-0.3-0.9-0.8-1.2-1.1c0.5-0.3,1.1-0.5,1.6-0.8
			c-0.4-0.3-0.8-0.4-1.1-0.7l1.1-0.9c0.4,0.1,0.8,0.4,1.2,0.7c0.3-0.3,0.5-0.5,0.8-0.8l1.6,0.5c-0.3,0.4-0.7,0.8-1.1,1.1
			c0.4,0.3,0.8,0.5,1.1,0.8L74.8,167.3z"/>
		<path class="st5" d="M91.2,170.3c-1.7,0.9-3.5,2-4.9,2.7l-0.8-1.9c1.3-0.5,3.3-1.5,5.3-2.4L91.2,170.3z M102,171.1
			c0,1.1-0.1,1.5-0.8,1.9c-0.7,0.3-1.6,0.3-2.8,0.3c0-0.5-0.3-1.3-0.5-1.9c0.7,0,1.3,0,1.6,0c0.3,0,0.3,0,0.3-0.3v-4.5h-4
			c0.9,0.4,2.1,0.9,2.8,1.2l-0.9,1.5l1.6-0.8l0.5,1.6c-1.6,0.9-3.5,1.9-4.9,2.7h0.5c-0.3,0.5-0.5,1.1-0.8,1.5h6.5v8.5h-2.5v-0.8
			h-8.8v0.8h-2.4v-8.5h4.8c0.1-0.4,0.3-0.9,0.4-1.3c-0.5,0.3-1.5,0.3-2.7,0.3c0-0.5-0.3-1.3-0.5-1.9c0.7,0,1.3,0,1.6,0
			c0.3,0,0.3,0,0.3-0.3v-4.5h-4c0.9,0.4,2.1,0.9,2.8,1.2l-1.1,1.6c-0.7-0.4-2-1.1-3.1-1.6l0.9-1.3h-1.5v-2h8.1v6.5
			c0,0.7,0,1.1-0.3,1.3l1.5,0.3l-0.8-1.9c0.9-0.4,2.1-0.9,3.6-1.6c-0.8-0.4-2-1.1-2.9-1.5l0.9-1.3h-1.3v-2h7.9L102,171.1L102,171.1z
			 M98.6,176.2h-8.8v1.2h8.8V176.2z M98.6,180.3v-1.2h-8.8v1.2H98.6z"/>
	</g>
	<g class="st1">
		<path class="st5" d="M303.4,169.2l1.7-2.1c1.1,1.1,2.5,1.7,3.9,1.7c1.6,0,2.4-0.7,2.4-1.7c0-1.1-0.9-1.5-2.3-2l-2-0.8
			c-1.5-0.7-3.1-1.9-3.1-4c0-2.5,2.1-4.4,5.2-4.4c1.7,0,3.5,0.7,4.8,2l-1.5,1.9c-0.9-0.8-2-1.2-3.2-1.2c-1.3,0-2.1,0.5-2.1,1.6
			c0,1.1,1.1,1.5,2.4,2l2,0.8c1.9,0.8,3.1,1.9,3.1,4.1c0,2.5-2,4.5-5.6,4.5C306.9,171.5,304.8,170.7,303.4,169.2z"/>
		<path class="st5" d="M316.2,165.5c0-3.9,2.8-6,5.9-6c1.5,0,2.5,0.5,3.3,1.2l-1.5,2c-0.5-0.5-1.1-0.8-1.7-0.8
			c-1.7,0-2.9,1.5-2.9,3.6c0,2.1,1.2,3.6,2.8,3.6c0.8,0,1.6-0.4,2.3-0.9l1.2,2c-1.1,0.9-2.5,1.3-3.7,1.3
			C318.6,171.5,316.2,169.2,316.2,165.5z"/>
		<path class="st5" d="M327.7,159.7h2.4l0.3,2h0.1c0.8-1.5,2-2.3,3.2-2.3c0.7,0,1.1,0.1,1.3,0.3l-0.5,2.5c-0.4-0.1-0.7-0.1-1.2-0.1
			c-0.9,0-2,0.5-2.7,2.3v6.8h-2.9V159.7z"/>
		<path class="st5" d="M336.5,166.9v-7.2h3.1v6.8c0,1.7,0.5,2.4,1.6,2.4c0.9,0,1.6-0.4,2.3-1.5v-7.7h3.1v11.5h-2.4l-0.3-1.6h-0.1
			c-0.9,1.2-2.1,1.9-3.6,1.9C337.6,171.5,336.5,169.8,336.5,166.9z"/>
		<path class="st5" d="M349.7,159.7h2.4l0.3,1.5h0.1c0.9-1.1,2-1.9,3.5-1.9c1.6,0,2.5,0.8,3.2,2c1.1-1.1,2.1-2,3.6-2
			c2.4,0,3.6,1.7,3.6,4.5v7.1h-3.1v-6.8c0-1.7-0.5-2.4-1.6-2.4c-0.7,0-1.3,0.4-2.3,1.3v7.9h-3.1v-6.8c0-1.7-0.5-2.4-1.6-2.4
			c-0.7,0-1.3,0.4-2.3,1.3v7.9h-2.9v-11.2L349.7,159.7L349.7,159.7z"/>
		<path class="st5" d="M321.1,188.1c-0.3,1.7-0.8,3.5-1.5,5.1c0.3,0.3,0.7,0.5,1.2,0.8c1.3,0.8,3.3,0.9,5.7,0.9c2.4,0,6-0.3,8.3-0.5
			c-0.3,0.7-0.7,1.9-0.7,2.5c-1.7,0.1-5.3,0.3-7.7,0.3c-2.7,0-4.4-0.3-5.9-1.1c-0.8-0.5-1.6-1.2-2-1.2c-0.5,0-1.2,1.3-1.7,2.5
			l-1.6-2.3c0.8-0.9,1.5-1.6,2.3-2c0.5-1.1,0.9-2.3,1.2-3.5h-2.8c0.5-1.2,1.1-2.8,1.5-4.4h-1.9v-2.1h4.8c-0.4,1.5-0.9,3.1-1.5,4.5
			h0.3h0.4L321.1,188.1z M317.7,182.4c-0.3-0.9-0.8-2.4-1.1-3.6l2.1-0.7c0.4,1.1,0.9,2.5,1.2,3.3L317.7,182.4z M322.7,182.9h-1.7v-4
			H334v4h-2.1v0.8h-3.2v0.8h4.3v6h-4.3v0.8h5.2v1.7h-5.2v1.3h-2.4v-1.3h-5.2v-1.7h5.2v-0.8H322v-6h4.3v-0.8h-3.6V182.9z
			 M323.2,180.6v1.3h3.2v-0.8h2.4v0.8h2.9v-1.3H323.2z M324.1,186.8h2.1V186h-2.1V186.8z M326.3,188.9v-0.8h-2.1v0.8H326.3z
			 M328.7,186v0.8h2.1V186H328.7z M330.8,188.1h-2.1v0.8h2.1V188.1z"/>
		<path class="st5" d="M342.7,179c-0.5,1.5-1.2,2.9-2,4.3v14h-2.4v-10.3c-0.4,0.5-0.8,1.1-1.2,1.5c-0.3-0.5-0.9-2-1.3-2.5
			c1.9-1.9,3.6-4.8,4.7-7.6L342.7,179z M349.3,183.8v2.1h5.3v2.3h-5.3v2.3h5.6v2.3h-5.6v4.5h-2.5v-13.5h-0.8c-0.8,1.5-1.7,2.9-2.7,4
			c-0.4-0.4-1.3-1.3-1.9-1.7c1.7-1.9,3.5-4.8,4.3-7.7l2.4,0.5c-0.3,0.8-0.7,1.7-1.1,2.5h7.9v2.3h-5.6V183.8z"/>
	</g>
	<g class="st1">
		<path class="st5" d="M253.4,318.7c0.5-1.3,0.8-3.6,1.1-5.3l1.7,0.3c-0.1,1.7-0.4,4.1-0.9,5.7L253.4,318.7z M259.4,317.5
			c-0.1-0.8-0.5-1.7-0.9-2.8v13.8h-2.4v-19.1h2.4v3.9l1.1-0.5c0.7,1.2,1.3,2.8,1.6,3.9L259.4,317.5z M266.5,320.8
			c-0.7,2.9-2.1,5.7-5.7,7.9c-0.3-0.5-1.2-1.5-1.7-1.9c3.1-1.5,4.4-3.7,4.9-5.9h-4v-2.3h4.4c0-0.7,0-1.3,0-1.9V315h-3.5v-2.3h3.5
			v-3.1h2.4v3.1h4.4v6h1.3v2.3h-6V320.8z M268.6,320.8c1.3,2,3.2,4.7,4.1,6.3l-2.3,1.2c-0.8-1.6-2.5-4.4-3.9-6.5L268.6,320.8z
			 M266.9,316.6c0,0.7,0,1.2,0,1.9h2.1v-3.7h-2v1.9H266.9z"/>
		<path class="st5" d="M280.1,319.2c-0.3,1.9-0.9,3.6-1.7,5.1c0.3,0.1,0.7,0.4,1.2,0.7c1.5,0.8,3.3,0.9,5.7,0.9c2.3,0,6-0.3,8.3-0.5
			c-0.3,0.7-0.7,1.9-0.7,2.5c-1.7,0.1-5.3,0.3-7.7,0.3c-2.7,0-4.4-0.3-5.9-1.1c-0.8-0.4-1.6-1.1-2-1.1c-0.5,0-1.2,1.3-1.7,2.4
			L274,326c0.7-0.8,1.3-1.3,2-1.7c0.8-1.1,1.3-2.4,1.7-3.7h-2.8c0.5-1.2,1.1-2.8,1.7-4.4h-2v-2h5.1c-0.5,1.5-1.1,3.1-1.6,4.5h0.5
			h0.4L280.1,319.2z M276.7,313.6c-0.4-0.9-1.1-2.4-1.5-3.6l2.1-0.8c0.5,1.1,1.2,2.5,1.6,3.3L276.7,313.6z M285.1,313.2H280v-2h5.1
			v-1.7h2.4v1.7h5.3v2h-5.3v1.1h4.7v5.5h-3.9c1.6,0.9,3.5,2.3,4.4,3.1l-1.5,1.6c-0.8-0.8-2.3-2-3.7-2.9v3.6h-2.4v-3.7
			c-1.1,1.3-2.5,2.7-4,3.3c-0.3-0.5-1.1-1.5-1.5-1.9c1.7-0.7,3.3-1.9,4.5-3.2h-3.5v-5.5h4.5L285.1,313.2L285.1,313.2z M282.8,317.9
			h2.3v-1.7h-2.3V317.9z M287.5,316.2v1.7h2.3v-1.7H287.5z"/>
		<path class="st5" d="M300.4,319c-0.4,1.9-0.9,3.7-1.6,5.3c0.3,0.3,0.7,0.5,1.2,0.8c1.3,0.8,3.3,0.9,5.7,0.9c2.4,0,6-0.3,8.3-0.5
			c-0.3,0.7-0.7,1.9-0.7,2.5c-1.7,0.1-5.3,0.3-7.7,0.3c-2.7,0-4.4-0.3-5.9-1.1c-0.8-0.5-1.6-1.2-2-1.2c-0.5,0-1.2,1.3-1.7,2.5
			l-1.6-2.3c0.7-0.8,1.5-1.5,2.1-2c0.4-1.1,0.8-2.3,1.2-3.6h-2.7c0.5-1.2,1.1-2.8,1.5-4.4h-1.9v-2.1h4.8c-0.4,1.5-0.9,3.1-1.3,4.5
			h0.8l0.4-0.1L300.4,319z M297,313.6c-0.3-0.9-0.8-2.4-1.1-3.5l2.1-0.7c0.4,1.1,0.9,2.5,1.2,3.3L297,313.6z M303.4,314.3
			c-0.4,0.8-0.8,1.5-1.2,2.1c-0.5-0.4-1.6-0.9-2.3-1.2c1.2-1.2,2-3.3,2.5-5.5l2.4,0.4c-0.1,0.7-0.3,1.2-0.5,1.9h1.5v-2.8h2.4v2.8
			h4.3v2.1h-4.3v0.9c0,0.4,0,0.9,0,1.3h5.3v2.3h-5.7l0,0c2,1.3,4.4,3.1,5.5,4.4l-1.9,1.6c-0.9-1.2-2.7-2.8-4.5-4
			c-0.9,1.6-2.4,3.1-4.7,4.1c-0.3-0.5-1.1-1.5-1.6-1.9c2.8-1.1,4.1-2.7,4.7-4.4h-4.9v-2.3h5.3c0-0.5,0-0.9,0-1.5v-0.9h-2.3
			L303.4,314.3L303.4,314.3z"/>
		<path class="st5" d="M322.6,310.3c-0.5,1.2-1.2,2.5-1.9,3.7v14.4h-2.5v-10.7c-0.7,0.8-1.3,1.6-2.1,2.3c-0.3-0.5-0.9-1.9-1.3-2.5
			c2.3-1.9,4.4-4.9,5.6-8L322.6,310.3z M328.2,317.8c0.5,4.5,1.6,7.6,3.3,7.7c0.5,0,0.7-0.9,0.9-3.2c0.4,0.5,1.5,1.2,2,1.3
			c-0.5,4-1.6,4.9-2.8,4.8c-3.5-0.3-5.1-4.1-5.9-10.4l-4,0.5l-0.4-2.4l4.1-0.5c-0.1-1.9-0.3-3.9-0.3-6h2.5c0,2,0.1,3.9,0.3,5.6
			l5.9-0.8l0.4,2.3L328.2,317.8z M331.8,314.2c-0.5-0.9-1.7-2.4-2.8-3.5l1.9-1.1c1.1,0.9,2.4,2.3,2.9,3.3L331.8,314.2z"/>
	</g>
	<g class="st1">
		<path class="st5" d="M57.1,318.8c-0.3,1.9-0.9,3.6-1.7,5.1c0.3,0.1,0.7,0.4,1.2,0.7c1.5,0.8,3.3,0.9,5.7,0.9c2.3,0,6-0.3,8.3-0.5
			c-0.3,0.7-0.7,1.9-0.8,2.5c-1.6,0.1-5.3,0.3-7.6,0.3c-2.7,0-4.4-0.3-5.9-1.1c-0.8-0.4-1.6-1.1-2-1.1c-0.5,0-1.2,1.3-1.7,2.4
			l-1.6-2.4c0.7-0.8,1.3-1.3,2-1.7c0.8-1.1,1.3-2.4,1.7-3.6h-2.8c0.5-1.2,1.2-2.8,1.7-4.4h-2v-2.1h5.1c-0.5,1.5-1.1,3.1-1.6,4.5h0.5
			H56L57.1,318.8z M53.5,313.2c-0.3-0.9-1.1-2.4-1.5-3.6l2.1-0.8c0.5,1.1,1.2,2.5,1.6,3.3L53.5,313.2z M58.3,318.3
			c-0.3,0.1-0.5,0.3-0.8,0.3c-0.3-0.5-0.9-1.3-1.5-1.7c1.7-0.5,3.5-1.3,4.8-2.4h-4.1v-1.9H62v-1.1c-1.5,0.1-2.9,0.1-4.3,0.1
			c0-0.5-0.3-1.2-0.5-1.6c3.6-0.1,7.7-0.4,10.2-0.9l1.5,1.6c-1.3,0.3-2.9,0.5-4.5,0.7v1.2h5.3v1.9h-4.1c1.2,0.9,2.9,1.7,4.7,2.1
			c-0.5,0.4-1.1,1.2-1.5,1.7c-1.6-0.5-3.2-1.5-4.4-2.8v1.9H62v-1.7c-0.9,0.8-2,1.6-3.1,2.1h7.2c-0.1,0.5-0.3,1.1-0.3,1.6h3.5
			c0,0,0,0.5-0.1,0.8c-0.1,2.3-0.4,3.3-0.9,3.7c-0.4,0.4-0.9,0.5-1.5,0.5c-0.5,0-1.5,0.1-2.5,0c0-0.5-0.3-1.3-0.5-1.7
			c0.8,0.1,1.7,0.1,2,0.1c0.3,0,0.5,0,0.7-0.1s0.4-0.7,0.4-1.6h-3.6c0.1-0.4,0.3-0.9,0.4-1.5h-1.5c-0.4,2.5-1.3,4.3-4.7,5.3
			c-0.3-0.5-0.8-1.3-1.2-1.7c2.5-0.7,3.3-1.9,3.6-3.6h-2v-1.3L58.3,318.3L58.3,318.3z"/>
		<path class="st5" d="M74.6,322.5v1.7h-2.3V310h6.8v12.6L74.6,322.5L74.6,322.5z M74.6,312.2v2.9h2.3v-2.9H74.6z M76.8,320.4v-3.1
			h-2.3v3.1H76.8z M89.8,325.2c0,1.3-0.3,1.9-1.1,2.3c-0.8,0.4-2,0.4-3.7,0.4c-0.1-0.7-0.5-1.7-0.8-2.4c1.1,0,2.3,0,2.7,0
			c0.4,0,0.5-0.1,0.5-0.5v-3.6H83c-0.5,2.4-1.5,4.8-3.5,6.5c-0.4-0.5-1.3-1.3-1.9-1.6c3.1-2.5,3.3-6.4,3.3-9.5v-7.1h8.8
			C89.8,309.7,89.8,325.2,89.8,325.2z M87.4,319.5v-2.7h-4v0.3c0,0.7,0,1.5-0.1,2.3L87.4,319.5L87.4,319.5z M83.4,312v2.7h4V312
			H83.4z"/>
		<path class="st5" d="M105.4,309.3c0.9,2.9,3.1,5.9,5.9,7.3c-0.5,0.5-1.3,1.6-1.7,2.3c-0.5-0.4-1.1-0.8-1.6-1.2
			c-0.3,6-0.5,8.4-1.2,9.2c-0.5,0.7-1.1,0.9-1.9,0.9c-0.7,0.1-1.9,0.1-3.1,0c0-0.8-0.4-1.7-0.8-2.4c1.1,0.1,2.1,0.1,2.7,0.1
			c0.4,0,0.5,0,0.8-0.3c0.4-0.4,0.7-2.3,0.8-6.5h-4c-0.5,3.9-1.9,7.5-7.1,9.3c-0.3-0.7-1.1-1.7-1.6-2.3c4.7-1.5,5.7-4.1,6.1-7.2
			h-3.5v-1.3c-0.5,0.5-1.1,1.1-1.5,1.5c-0.4-0.5-1.5-1.3-2-1.7c2.3-1.6,4.1-4.4,5.1-7.5l2.5,0.7c-0.8,2.3-1.9,4.4-3.2,6.1h10.6
			c-1.3-1.5-2.4-3.2-3.1-4.9h-3.2v-2.3L105.4,309.3L105.4,309.3z"/>
		<path class="st5" d="M131.2,324.4h-7.9v1.5c0,1.2-0.4,1.7-1.3,2c-0.9,0.3-2.3,0.3-4.1,0.3c-0.1-0.7-0.5-1.5-0.8-2
			c1.2,0,2.8,0,3.1,0c0.4,0,0.5-0.1,0.5-0.4v-1.3h-7.9v-2h7.9v-0.8l0,0l0,0c0.8-0.1,1.7-0.4,2.5-0.8h-8.4v-1.9h12.4l0.5-0.1l1.6,1.3
			c-1.6,0.9-3.6,1.7-5.7,2.3h7.7L131.2,324.4L131.2,324.4z M130.8,312.5H113v-2h7.5c-0.1-0.4-0.3-0.9-0.4-1.2l2.5-0.4
			c0.3,0.5,0.5,1.1,0.7,1.6h7.5C130.8,310.5,130.8,312.5,130.8,312.5z M115.4,318v-4.5h13.2v4.5H115.4z M117.8,316.3h8.3v-1.2h-8.3
			V316.3z"/>
	</g>
	<g class="st1">
		<path class="st5" d="M176.1,67v2.4h-18.7V67h4.4v-3.9h-3.7v-2.4h3.7V57h2.5v3.7h4.7V57h2.5v3.7h3.9v2.4h-3.9V67
			C171.6,67,176.1,67,176.1,67z M165.3,71.2c-1.5,1.7-3.7,3.6-5.7,4.8c-0.5-0.5-1.5-1.3-2-1.7c1.9-1.1,4.1-2.7,5.2-4L165.3,71.2z
			 M164.4,67h4.7v-3.9h-4.7V67z M170.4,70.1c1.7,1.2,4.3,3.2,5.6,4.4l-2.4,1.5c-1.1-1.2-3.6-3.2-5.3-4.7L170.4,70.1z"/>
		<path class="st5" d="M195.9,73.1c0,1.2-0.3,2-1.1,2.4c-0.8,0.4-1.9,0.5-3.6,0.5c-0.1-0.7-0.5-1.7-0.8-2.4c1.1,0,2.3,0,2.7,0
			c0.4,0,0.5-0.1,0.5-0.5v-13h-12.6V76h-2.4V57.7H196L195.9,73.1L195.9,73.1z M192.3,63.6h-10.2v-2h10.2V63.6z M185.3,72v1.3h-2.3
			v-8.1h8.3V72H185.3z M185.3,67.2V70h3.9v-2.8H185.3z"/>
		<path class="st5" d="M214.9,58v17.8h-2.5v-1.3h-9.5v1.3h-2.4V58H214.9z M202.8,60.2v2.4h9.5v-2.4H202.8z M202.8,64.9v2.4h9.5v-2.4
			H202.8z M212.3,72v-2.4h-9.5V72H212.3z"/>
		<path class="st5" d="M224.7,69.1c-0.3-0.5-0.5-1.5-1.1-2.3v9.1h-2.1v-8.5c-0.5,1.9-1.2,3.6-2,4.7c-0.3-0.7-0.8-1.9-1.1-2.5
			c1.1-1.6,2.3-4.4,2.8-6.7H219v-2.3h2.5v-3.7h2.3v3.7h2v2.3h-2v0.9c0.5,0.7,2,3.1,2.4,3.6L224.7,69.1z M229.5,71.7
			c-0.7,1.5-1.9,2.9-2.8,3.9c-0.4-0.4-1.3-0.9-1.9-1.3c1.1-0.8,2-2,2.5-3.2L229.5,71.7z M229.1,59.4h-3.5v-1.9h11.6v1.9h-3.6v0.9
			h3.3v4.9h-11v-4.9h3.1V59.4z M232.6,70.7v5.2h-2.1v-5.2h-4.7v-1.9h11.6v1.9H232.6z M227,68v-1.9h9.2V68H227z M228.1,63.7h1.1v-1.5
			h-1.1V63.7z M232,59.4h-1.1v0.9h1.1V59.4z M230.9,63.7h1.1v-1.5h-1.1V63.7z M235.2,71.1c0.9,0.9,2,2.3,2.5,3.2l-1.9,1.1
			c-0.4-0.9-1.5-2.4-2.4-3.3L235.2,71.1z M233.7,62.1v1.6h1.2v-1.5L233.7,62.1L233.7,62.1z"/>
	</g>
	<g>
		<ellipse id="svg_22" class="st6" cx="197.7" cy="207.4" rx="57.3" ry="57.3"/>
		<g class="st1">
			<path class="st5" d="M174.3,190.7c-0.4,3.3-1.1,6.1-2.2,8.3c0.9,1.5,2,2.7,3.5,3.5c-0.6,0.4-1.3,1.5-1.7,2.1
				c-1.2-0.8-2.4-1.9-3.3-3.3c-0.9,1.2-2.1,2.2-3.5,3.1c-0.3-0.4-1.1-1.5-1.7-1.9c1.7-0.9,2.9-2,3.8-3.5c-0.7-1.5-1.2-3.1-1.7-4.9
				c-0.2,0.3-0.4,0.7-0.7,1c-0.3-0.4-1.1-1.2-1.7-1.7v1.2h1.3v2.1h-1.5c0,0.9-0.1,1.8-0.1,2.5h1.5v2h-1.7c-0.1,1.1-0.3,1.8-0.6,2.1
				c-0.3,0.7-0.8,0.8-1.5,1c-0.6,0.1-1.3,0.1-2.2,0.1c0-0.7-0.2-1.6-0.6-2.1c0.7,0.1,1.3,0.1,1.7,0.1c0.3,0,0.4-0.1,0.7-0.3
				c0.1-0.1,0.2-0.3,0.2-0.7h-6.4c0.2-1.2,0.3-2.8,0.6-4.5h-1.3V195h1.5c0.1-0.8,0.1-1.6,0.2-2.2l0,0c-0.4-0.4-1.5-1.1-2-1.5
				c1.2-1.6,2.2-4,2.8-6.5l2.4,0.4c-0.1,0.6-0.2,1.1-0.4,1.7h6.7v2.2H159c-0.2,0.6-0.4,1-0.7,1.5h7.1v1l-0.1,1.8
				c1.5-2.1,2.4-5.4,2.8-8.7l2.4,0.3c-0.2,1.2-0.4,2.5-0.8,3.6h5.5v2.2L174.3,190.7L174.3,190.7z M159.1,196.7
				c-0.1,0.9-0.1,1.7-0.2,2.5h1.9c-0.3-0.6-0.9-1.3-1.3-1.9l1-0.6H159.1z M159.4,192.3c-0.1,0.8-0.1,1.6-0.2,2.2h1.7
				c-0.2-0.6-0.7-1.2-1.2-1.8l1-0.6h-1.2L159.4,192.3L159.4,192.3z M162.8,199.1c0-0.7,0.1-1.5,0.1-2.5H161c0.6,0.7,1.1,1.3,1.5,2
				l-0.8,0.4H162.8z M163.1,194.6c0-0.7,0-1.5,0.1-2.2h-1.8c0.6,0.6,1,1.3,1.2,1.9l-0.7,0.3H163.1z M169.2,190.7
				c0.3,2,0.8,3.9,1.6,5.6c0.6-1.7,1-3.5,1.2-5.6H169.2z"/>
			<path class="st5" d="M183.8,195.8c-0.7,0.2-1.5,0.4-2.1,0.7v5.4c0,1.2-0.2,1.8-0.9,2.2s-1.6,0.4-2.9,0.4
				c-0.1-0.7-0.3-1.7-0.7-2.4c0.8,0,1.6,0,1.8,0s0.3-0.1,0.3-0.3v-4.7l-2,0.6l-0.6-2.5c0.8-0.1,1.6-0.3,2.6-0.7v-3.7H177v-2.4h2.2
				v-4h2.4v4h1.9v2.4h-1.9v3l1.8-0.4L183.8,195.8z M191.2,202c0.6,0.1,1.2,0.1,1.8,0.1c0.7,0,3.3,0,4.1,0c-0.3,0.6-0.6,1.6-0.7,2.1
				h-3.6c-2.9,0-5.3-0.6-7-2.5c-0.4,1.2-1.1,2.1-1.9,2.9c-0.3-0.3-1.3-1.1-1.9-1.5c1.6-1.3,2.4-3.6,2.7-6.2l2.4,0.2
				c-0.1,0.7-0.2,1.3-0.3,2c0.6,1,1.2,1.6,2.1,2v-4.6h-4v-1.9h4v-1.1h-5.3v-2h5.3v-1h-4v-1.9h4v-0.9H184v-2h4.9v-1.6h2.4v1.6h5.4v2
				h-5.4v0.9h4.5v2.9h1.3v2h-1.3v3h-4.5v1.2h4.8v2h-4.8v2L191.2,202L191.2,202z M191.2,191.8h2.1v-1h-2.1V191.8z M191.2,194.9h2.1
				v-1.1h-2.1V194.9z"/>
			<path class="st5" d="M217.5,185.1v19.3H215v-1h-13.3v1h-2.2V185h18.1L217.5,185.1L217.5,185.1z M215,201.5V187h-13.3v14.5H215z
				 M214.6,198.4h-2.8v1.3c0,0.8-0.2,1.1-0.8,1.2c-0.6,0.2-1.5,0.2-2.6,0.2c-0.1-0.4-0.3-0.9-0.6-1.2c0.6,0,1.3,0,1.5,0
				c0.2,0,0.3-0.1,0.3-0.2v-1.2h-3.8c0.6,0.6,1.1,1.2,1.5,1.8l-1.7,0.8c-0.2-0.6-0.9-1.3-1.5-1.9l1.3-0.7h-3.4v-1.3h7.5v-0.7h2.1
				v0.7h1.1c-0.1-0.2-0.3-0.4-0.7-0.8c-3.6,0.1-7.1,0.2-9.8,0.2l-0.1-1.3c1.3,0,3,0,4.8,0v-0.7h-4.3v-4.4h4.3v-0.7h-4.8v-1.3h4.8
				v-0.8h2.1v0.8h4.9v1.3h-4.9v0.7h4.3v4.4h-1.1c0.7,0.6,1.3,1.2,1.8,1.7l-1.1,0.8h1.2v1.3H214.6z M205.1,191.8h2.4v-0.7h-2.4V191.8
				z M207.3,193.5v-0.7H205v0.7H207.3z M209.4,191.2v0.7h2.2v-0.7H209.4z M211.7,192.8h-2.2v0.7h2.2V192.8z M209.4,195.2h1.7
				l-0.2-0.2l0.8-0.4h-2.2V195.2z"/>
			<path class="st5" d="M227.5,186.2c-0.6,1.8-1.2,4.1-1.9,5.8c1.2,1.7,1.6,3.1,1.6,4.3c0,1.3-0.2,2.2-1,2.8
				c-0.3,0.2-0.8,0.3-1.2,0.4c-0.3,0-0.9,0.1-1.3,0c0-0.7-0.2-1.6-0.6-2.1c0.3,0,0.7,0,0.9,0c0.2,0,0.4-0.1,0.6-0.2
				c0.2-0.2,0.3-0.7,0.3-1.2c0-1-0.2-2.4-1.5-3.8c0.4-1.3,0.9-3.3,1.2-4.7h-1.7v16.8h-2.2v-19h4.7l0.3-0.1L227.5,186.2z
				 M239.7,192.3c-0.8,0.6-1.7,1.1-2.6,1.6c0.8,2.2,2,4.6,3.3,5.9c-0.6,0.3-1.2,1.1-1.6,1.6c-1.3-1.6-2.6-4.1-3.4-6.5h-0.1
				c1,3.4,0.6,7-0.7,8.2c-0.7,0.8-1.3,1.1-2.5,1.1c-0.4,0-1.1,0-1.8,0c0-0.7-0.2-1.6-0.6-2.2c0.7,0.1,1.5,0.1,1.9,0.1
				c0.6,0,0.8-0.1,1.1-0.6s0.7-1.5,0.7-2.8c-1.6,1.2-3.7,2.4-5.4,3c-0.3-0.6-1-1.3-1.5-1.8c2.4-0.7,5.2-2.1,6.7-3.7
				c-0.1-0.3-0.2-0.8-0.3-1.1c-1.2,1-2.8,2-4.1,2.7c-0.3-0.6-0.9-1.3-1.3-1.8c1.6-0.6,3.6-1.7,4.8-2.7c-0.2-0.3-0.4-0.8-0.8-1.1
				c-1.1,0.8-2.4,1.5-3.5,2c-0.3-0.4-1-1.3-1.5-1.8c1.6-0.6,3.1-1.5,4.4-2.4h-3.7v-2.2h3.4c-0.6-0.8-1.3-1.6-2-2.1l1.9-1.1
				c1,0.8,2,1.8,2.6,2.6l-1,0.8h1.9c0.7-0.9,1.6-2.4,1.9-3.4l2.5,0.7c-0.6,0.9-1.2,1.9-1.8,2.7h3.3v2.2h-5.7
				c-0.2,0.3-0.6,0.6-0.9,0.9c0.6,0.7,1.1,1.5,1.5,2.2c1.2-0.8,2.6-1.7,3.6-2.5L239.7,192.3z"/>
			<path class="st5" d="M175.4,226.1v2.6h-19.5v-2.6h8.2V215H157v-2.7h17.2v2.7h-7.2v11.1H175.4z"/>
			<path class="st5" d="M184.1,211c-0.6,1.5-1.2,3-2,4.5v14.7h-2.6v-10.8c-0.4,0.6-0.9,1.1-1.3,1.6c-0.2-0.7-1-2.1-1.5-2.7
				c1.9-1.9,3.8-4.9,4.9-8.1L184.1,211z M190.9,216.2v2.2h5.6v2.4h-5.6v2.5h5.8v2.4h-5.8v4.8h-2.6v-14.1h-0.8
				c-0.9,1.6-1.8,3-2.8,4.1c-0.4-0.4-1.5-1.3-1.9-1.8c1.9-1.9,3.6-5,4.6-8.1l2.5,0.7c-0.3,0.9-0.7,1.8-1,2.7h8.3v2.5h-6.3V216.2z"/>
			<path class="st5" d="M207.2,216.2c-0.1,0.9-0.1,1.7-0.2,2.6h9.2c0,0,0,0.8-0.1,1.1c-0.3,5.8-0.8,8.2-1.7,9.1
				c-0.7,0.7-1.3,0.9-2.2,1c-0.8,0.1-2.2,0.1-3.7,0c0-0.8-0.4-1.8-0.9-2.5c1.5,0.1,2.9,0.2,3.6,0.2c0.4,0,0.8,0,1-0.2
				c0.6-0.4,0.9-2.4,1.2-6.2h-6.7c-0.8,3.6-2.4,7-6.2,9.2c-0.3-0.7-1.2-1.6-1.9-2.1c5.2-2.7,5.6-7.5,5.8-12.1H199v-2.5h9.1
				c-0.3-0.8-0.9-1.9-1.2-2.8l2.5-0.9c0.6,1,1.2,2.2,1.6,3l-1.5,0.7h8.9v2.5h-11.1L207.2,216.2L207.2,216.2z"/>
			<path class="st5" d="M224,220.3c-0.8-0.7-2.7-1.7-4-2.4l1.3-1.9c1.3,0.6,3.1,1.3,4,2.1L224,220.3z M220.8,228.3
				c1.1-1.7,2.8-4.3,4-6.7l1.9,1.7c-1.1,2.2-2.5,4.7-3.8,6.7L220.8,228.3z M225.3,214.7c-0.9-0.8-2.6-1.8-4-2.4l1.3-1.9
				c1.3,0.6,3.1,1.5,4,2.1L225.3,214.7z M237.5,230.3c-0.1-0.6-0.4-1.2-0.8-1.9c-7.2,0.9-8.3,1-9,1.3c-0.1-0.6-0.6-1.8-0.9-2.6
				c0.4-0.1,0.9-0.6,1.3-1.3c0.3-0.6,1.5-2.5,2.2-4.6h-4v-2.4h5v-3h-4.3v-2.5h4.3v-3.3h2.6v3.3h4.4v2.5H234v3h5.2v2.4h-5.6
				c-0.9,1.9-1.9,3.9-3,5.5l5-0.6c-0.4-0.8-0.9-1.6-1.5-2.2l2.1-1c1.5,1.9,3,4.4,3.6,6.1L237.5,230.3z"/>
		</g>
	</g>
	<circle class="st7" cx="196.8" cy="66.2" r="48.7"/>
	<circle class="st7" cx="336.3" cy="171.3" r="48.7"/>
	<circle class="st7" cx="63.7" cy="172.2" r="48.7"/>
	<circle class="st7" cx="90.4" cy="318.9" r="48.7"/>
	<circle class="st7" cx="293.8" cy="318.9" r="48.7"/>
</g>
<g class="st1">
	<path d="M128.2,421.4c1.2,1.8,2.8,4.3,3.6,5.8l-2.6,1.5c-0.7-1.6-2.4-4.2-3.5-6.2l2.1-1.1H126c-0.6,2.8-2.2,5.5-5.4,7.4
		c-0.4-0.6-1.4-1.7-2-2.2c2.7-1.3,4-3.2,4.5-5.2h-3.5v-2.7h3.9c0-0.5,0-1,0-1.4v-1.7h-3.1c0.2,0.6,0.4,1.2,0.5,1.6l-2.1,0.9
		c-0.1-0.5-0.3-1.2-0.5-1.8v12.4h-2.8v-11.1c-0.1,0.9-0.3,1.7-0.5,2.4l-2.1-0.7c0.5-1.3,0.8-3.5,0.9-5.2l1.7,0.2v-4.2h2.8v3.7
		l1.1-0.5c0.3,0.6,0.6,1.4,0.9,2.2v-2.6h3.2v-2.9h2.9v2.9h4.2v5.7h1v2.7H128.2z M126.4,417.2c0,0.5,0,0.9,0,1.4h1.4v-3.1h-1.4V417.2
		z"/>
	<path d="M147.2,422.2c-1,1.2-2.2,2.1-3.4,2.8c-0.4-0.6-1.2-1.6-1.8-2.1c-0.2,0.5-0.4,1-0.6,1.5c0.2,0.1,0.5,0.3,0.9,0.5
		c1.3,0.7,3.3,0.8,5.5,0.8c2,0,5.8-0.2,8-0.6c-0.3,0.8-0.8,2.2-0.9,3c-1.7,0.1-5,0.2-7.3,0.2c-2.6,0-4.2-0.2-5.6-0.9
		c-0.8-0.4-1.5-1-1.9-1c-0.5,0-1.2,1.3-1.7,2.3l-1.8-2.8c0.6-0.6,1.3-1.2,2-1.5c0.6-0.9,1.1-2,1.4-3.1h-2.7c0.5-1.1,1-2.7,1.5-4.2
		h-1.7v-2.5h5.2c-0.4,1.4-0.9,2.9-1.4,4.3h0.1l0.4-0.1l1.6,0.7c-0.2,1.2-0.5,2.3-0.8,3.4c1.5-0.6,3-1.5,4-2.6H143v-5.5h4.2v-0.8
		h-4.6v-2.4h4.6v-1.5h2.8v1.5h4.9v2.4H150v0.8h4.4v5.5H151c1.5,0.8,3.1,1.8,4,2.6l-1.7,1.9c-0.7-0.7-2-1.6-3.3-2.4v2.9h-2.8V422.2z
		 M139,414.3c-0.3-0.9-1-2.4-1.4-3.5l2.5-0.9c0.5,1.1,1.1,2.4,1.5,3.3L139,414.3z M145.6,418.1h1.6v-1.3h-1.6V418.1z M150,416.8v1.3
		h1.6v-1.3H150z"/>
	<path d="M165.2,418c0-0.2,0-0.3-0.1-0.5c-3.2,0.4-3.7,0.5-4.1,0.6c-0.1-0.4-0.4-1.3-0.6-1.7c0.4-0.1,0.8-0.4,1.2-0.8
		c0.2-0.2,0.5-0.5,0.9-0.9c-1,0.1-1.4,0.2-1.6,0.3c-0.1-0.4-0.4-1.3-0.6-1.7c0.3-0.1,0.6-0.3,0.8-0.6c0.3-0.3,1.1-1.5,1.6-2.7
		l1.9,0.6c-0.5,0.9-1.1,1.9-1.7,2.6l0.9,0c0.3-0.4,0.5-0.7,0.8-1.1l1.6,0.7v-1.1h2.2c-0.1-0.4-0.3-0.8-0.4-1.1l2.1-0.7
		c0.3,0.5,0.6,1.3,0.7,1.8h1.6v1.5h-6.2V413c-0.9,1.2-1.9,2.3-2.8,3.2l1.3-0.1c-0.1-0.3-0.2-0.5-0.3-0.7l1.5-0.4
		c0.4,0.8,0.7,1.9,0.8,2.6L165.2,418z M175.3,424c-0.6,0.8-1.4,1.4-2.3,1.9c1.8,0.3,3.8,0.5,5.9,0.5c-0.5,0.5-1.1,1.6-1.4,2.2
		c-2.9-0.2-5.5-0.6-7.8-1.3c-2.4,0.8-5.2,1.1-8,1.4c-0.2-0.6-0.9-1.7-1.3-2.3c2.1-0.1,4-0.2,5.8-0.5c-0.6-0.4-1.2-0.7-1.8-1.2
		c-0.8,0.5-1.7,1-2.5,1.4c-0.3-0.5-1.1-1.6-1.5-2.1c2.1-0.6,4-1.8,5-3.2L165,421c-0.1-0.7-0.3-1.7-0.5-2.5l1.4-0.4
		c0.3,0.8,0.5,1.8,0.6,2.5l-0.9,0.3l2.3,0.7c-0.1,0.2-0.2,0.3-0.4,0.5h10.2v2H175.3z M162.3,418.6c0,1.2-0.2,2.5-0.5,3.4
		c-0.3-0.2-1-0.6-1.4-0.8c0.3-0.8,0.3-1.9,0.3-2.9L162.3,418.6z M162.8,421.5c0-0.8-0.1-2-0.3-2.9l1.5-0.3c0.2,0.9,0.3,2.1,0.4,2.9
		L162.8,421.5z M172.1,415h-5.4v-1.4h5.4V415z M172.1,416.9h-5.4v-1.4h5.4V416.9z M166.8,421.1v-3.6h5.2v3.6H166.8z M166.8,424
		c0.8,0.5,1.7,0.8,2.7,1.2c0.9-0.3,1.6-0.7,2.2-1.2H166.8z M168.4,419.7h2v-0.8h-2V419.7z M177.1,417.9c0-0.2,0-0.4-0.1-0.5
		c-3.1,0.4-3.7,0.5-4.1,0.6c-0.1-0.4-0.4-1.2-0.6-1.7c0.4-0.1,0.7-0.3,1.2-0.8c0.2-0.1,0.5-0.4,0.8-0.8c-1,0.1-1.4,0.2-1.6,0.3
		c-0.1-0.4-0.4-1.3-0.6-1.7c0.3-0.1,0.5-0.3,0.8-0.6c0.3-0.3,1.1-1.5,1.6-2.6l1.9,0.6c-0.5,0.9-1.1,1.9-1.7,2.6l0.8,0
		c0.3-0.4,0.5-0.8,0.8-1.2l1.7,0.8c-0.5,0.7-1.1,1.4-1.6,2.1l1.4-0.4c0.4,0.9,0.7,2.1,0.8,2.8L177.1,417.9z M174.3,418.6
		c-0.1,1.1-0.3,2.3-0.6,3.1c-0.4-0.3-1.1-0.6-1.5-0.8c0.2-0.8,0.3-1.8,0.4-2.7L174.3,418.6z M174.9,421.3c0-0.8-0.1-1.9-0.3-2.8
		l1.5-0.3c0.2,0.9,0.4,2.1,0.4,2.8L174.9,421.3z M176.7,416c-0.1-0.3-0.2-0.6-0.3-0.9c-0.3,0.4-0.6,0.7-0.9,1L176.7,416z
		 M177.1,421.1c-0.1-0.8-0.3-1.9-0.6-2.8l1.4-0.4c0.3,0.9,0.6,2,0.7,2.8L177.1,421.1z"/>
	<path d="M202,414.4c0,0,0,0.9,0,1.2c-0.2,7.9-0.3,10.9-0.9,11.8c-0.5,0.7-1,1-1.7,1.1c-0.6,0.1-1.5,0.1-2.5,0.1
		c-0.1-0.8-0.4-1.9-0.8-2.7c0.8,0.1,1.5,0.1,1.8,0.1c0.3,0,0.5-0.1,0.7-0.4c0.4-0.5,0.5-2.8,0.6-8.7H198c-0.3,5.3-1.2,9.2-4.4,11.8
		c-0.3-0.5-0.8-1.1-1.3-1.5c-3,0.3-6,0.6-8.3,0.8l-0.3-2.4c1.1-0.1,2.4-0.1,3.8-0.2v-0.8h-3.3v-2h3.3v-0.5h-3.2v-6.2h3.2v-0.5h-3.7
		v-2h3.7v-0.5c-1.1,0.1-2.1,0.1-3.1,0.1c-0.1-0.6-0.4-1.4-0.6-2c2.9-0.1,6.2-0.5,8.5-0.9l1.2,2.1c-1,0.2-2.2,0.4-3.4,0.5v0.7h3.5v2
		h-3.5v0.5h3.3v6.2h-3.3v0.5h3.4v2c1.2-2,1.6-4.5,1.8-7.6h-1.5v-2.6h1.6c0-1.2,0-2.6,0-4h2.7c0,1.4,0,2.7,0,4H202z M186.6,418.2h1
		v-0.6h-1V418.2z M187.6,420.4v-0.6h-1v0.6H187.6z M190.2,417.6v0.6h1v-0.6H190.2z M191.1,419.8h-1v0.6h1V419.8z M190.2,425.3
		c1-0.1,2.1-0.2,3.1-0.2c0.1-0.1,0.2-0.3,0.3-0.4h-3.4V425.3z"/>
	<path d="M225.5,413.1c0,0,0,0.9,0,1.2c-0.2,8.7-0.4,11.9-1.3,13c-0.6,0.9-1.2,1.1-2.1,1.3c-0.8,0.1-2,0.1-3.2,0.1
		c0-0.8-0.4-2-0.9-2.8c1.3,0.1,2.4,0.1,3,0.1c0.4,0,0.6-0.1,0.9-0.4c0.6-0.6,0.8-3.5,1-10h-3.7c-0.5,1.1-1.1,2.1-1.7,2.9
		c-0.4-0.3-1-0.8-1.6-1.2v9.3h-5.1v1.4h-2.6v-14.8h2.2c0.2-1,0.4-2.2,0.4-3.2l3.1,0.4c-0.3,1-0.7,1.9-1,2.8h2.9v2.6
		c1-1.6,1.8-3.7,2.3-5.7l2.7,0.6c-0.2,0.8-0.5,1.5-0.7,2.3H225.5z M213.2,415.7h-2.6v2.6h2.6V415.7z M213.2,424.2v-3.4h-2.6v3.4
		H213.2z M219.7,423.6c-0.5-1.2-1.7-3.1-2.6-4.6l2.2-1.3c0.9,1.3,2.2,3.2,2.7,4.3L219.7,423.6z"/>
	<path d="M237.9,424.9H234v1.8h-2.6v-15.5h6.5V424.9z M234,413.7v3h1.2v-3H234z M235.2,422.4v-3.2H234v3.2H235.2z M245.2,414.5v1.5
		h3.7v2.4h-1.3v1.2h1.7v2.5h-1.7v3.7c0,1.3-0.2,2-1.1,2.4c-0.9,0.4-2,0.5-3.4,0.5c-0.1-0.8-0.5-1.9-0.9-2.7c0.8,0,1.9,0,2.2,0
		s0.4-0.1,0.4-0.3V422h-6.6v-2.5h6.6v-1.2h-6.1V416h3.7v-1.5h-4.2V412h4.2v-2h2.8v2h4.2v2.5H245.2z M241.1,422.1
		c0.7,0.9,1.7,2.2,2.3,3.1l-2.5,1.4c-0.4-0.8-1.4-2.2-2.1-3.2L241.1,422.1z"/>
	<path d="M261.8,411.1c-0.5,1.1-1,2.3-1.7,3.4v14.1h-3v-9.8c-0.6,0.7-1.1,1.3-1.7,1.8c-0.3-0.7-1.1-2.2-1.6-2.9c2-1.8,4-4.6,5.2-7.5
		L261.8,411.1z M267.3,418.5c0.5,3.9,1.4,6.5,2.6,6.7c0.4,0,0.6-0.9,0.7-3c0.5,0.6,1.8,1.4,2.3,1.6c-0.5,4-1.8,4.9-2.9,4.8
		c-3.4-0.4-4.9-3.8-5.6-9.7l-3.4,0.5l-0.4-2.7l3.5-0.5c-0.1-1.7-0.2-3.7-0.3-5.7h2.9c0,1.9,0.1,3.7,0.2,5.3l5.4-0.7l0.4,2.7
		L267.3,418.5z M270.3,414.7c-0.4-0.9-1.5-2.3-2.4-3.3l2.2-1.3c0.9,0.9,2.1,2.2,2.6,3.2L270.3,414.7z"/>
	<path d="M282.2,418.9c-1.1,0-2.1-0.7-2.1-2c0-1.2,1-2,2.2-2c1.5,0,2.4,1.1,2.4,2.9c0,2.3-1.5,4.2-4.2,4.9l-0.7-1.9
		c1.5-0.4,2.4-1.2,2.6-2.1H282.2z"/>
	<path d="M29.7,434.5c-0.5,1.3-1.1,2.6-1.8,3.9v13.7h-2.7v-9.5c-0.3,0.4-0.6,0.8-1,1.1c-0.3-0.7-1-2.3-1.5-3
		c1.7-1.7,3.3-4.4,4.3-7.1L29.7,434.5z M36.7,439.6v9.5c0,1.3-0.2,2.1-1,2.5c-0.8,0.5-1.8,0.6-3.1,0.6c-0.1-0.8-0.5-2.1-1-2.9
		c0.8,0,1.6,0,1.9,0c0.3,0,0.4-0.1,0.4-0.3v-9.5H32c-0.6,1.1-1.2,2-1.8,2.8c-0.5-0.5-1.6-1.5-2.3-1.9c1.5-1.6,2.7-4.2,3.4-6.9
		l2.8,0.6c-0.3,0.9-0.5,1.8-0.9,2.7h6.1l0.4-0.1l2,0.4c-0.2,1.7-0.6,3.6-0.8,4.8l-2.4-0.4c0.1-0.5,0.2-1.3,0.3-2H36.7z M33.4,443.1
		c-0.5,2.4-1.5,5-2.6,6.5c-0.5-0.5-1.7-1.2-2.4-1.5c1-1.3,1.8-3.5,2.2-5.6L33.4,443.1z M39.5,442.3c1,2,1.7,4.6,2,6.3l-2.7,1
		c-0.2-1.7-0.9-4.4-1.8-6.4L39.5,442.3z"/>
	<path d="M60.4,441.5L60,443h2.8v2.2h-7.5c-0.1,0.2-0.2,0.5-0.3,0.7h6.8v3.8c0,1.1-0.2,1.7-0.9,2.1c-0.7,0.4-1.5,0.4-2.6,0.4
		c-0.1-0.7-0.5-1.7-0.8-2.3c0.5,0,1.1,0,1.3,0c0.2,0,0.3-0.1,0.3-0.2v-1.5h-1.6v3.9h-2.6v-3.9h-1.6v3.9h-2.6v-3.9h-1.5v4h-2.7v-6.2
		h5.7c0-0.2,0.1-0.5,0.1-0.7h-7.2V443h2.8l-0.5-1.5h-2.3V437h7.4v-0.6H46v-2h15.8v2h-6.5v0.6h7.5v4.5H60.4z M47.8,439v2.3
		c0.9-0.1,2-0.3,3.2-0.4c-0.8-0.3-2-0.6-2.9-0.8l0.6-1.1H47.8z M59.3,443c-1.1-0.3-2.7-0.7-4-0.9l0.5-1.5c0.2,0,0.3,0,0.5,0.1
		l-0.7-1.1c0.5-0.1,1.2-0.3,1.9-0.5h-2.3v3.5h-2.8V439h-2.4c0.7,0.2,1.5,0.3,1.9,0.5l-0.6,1.3l0.7-0.1l0.1,1.5
		c-1,0.3-1.9,0.5-2.8,0.7H59.3z M60,439h-0.8l0.7,1c-0.8,0.3-1.8,0.6-2.7,0.7c1,0.2,2,0.4,2.8,0.6V439z"/>
	<path d="M80.7,447c-0.4,0.7-0.9,1.2-1.4,1.7c1.9,0.5,3.7,1,5.1,1.4l-2.5,2c-1.3-0.5-3.1-1-5.2-1.6c-2.3,1-5.3,1.5-9.2,1.7
		c-0.2-0.8-0.6-1.8-1-2.4c2.1-0.1,3.9-0.2,5.4-0.5c-1.1-0.2-2.2-0.5-3.3-0.7c0.4-0.5,0.9-1.1,1.3-1.7h-3.4v-2.3h5
		c0.3-0.5,0.6-1,0.8-1.5h-4.6v-5.8h4.2v-0.8h-5.1v-2.4h17.3v2.4h-5.2v0.8h4.7v5.8H73.3l1.9,0.4c-0.2,0.4-0.4,0.7-0.5,1.1h4.2
		c0.1-0.3,0.3-0.7,0.4-1.1l2.8,0.7l-0.1,0.4h2.7v2.3H80.7z M70.3,441h1.5v-1.4h-1.5V441z M73,447.3c1,0.2,2.1,0.4,3.1,0.6
		c0.5-0.3,0.9-0.6,1.2-1h-4.1L73,447.3z M74.5,437.4h1.7v-0.8h-1.7V437.4z M76.2,441v-1.4h-1.7v1.4H76.2z M78.9,439.6v1.4h1.8v-1.4
		H78.9z"/>
	<path d="M98.4,446.1c-0.3,0.9-0.6,1.7-1.3,2.4c2.5,0.7,5.7,0.6,9.5,0.5c-0.5,0.6-1,1.9-1.2,2.8c-4.1,0-7.8-0.2-10.7-1.4
		c-1.3,0.7-3,1.3-5.1,1.7c-0.3-0.6-1.1-1.9-1.7-2.5c1.6-0.2,2.9-0.5,4-0.9c-0.6-0.5-1.2-1.2-1.7-1.9l1.9-0.8h-2v-8.4h5.7v-0.9h-7.3
		v-2.5h17.4v2.5h-7v0.9h5.8v8.4H98.4z M92.7,440.9h3V440h-3V440.9z M92.7,443.9h3v-0.4V443h-3V443.9z M92.9,446.1
		c0.5,0.5,1,0.9,1.5,1.3c0.4-0.4,0.7-0.8,0.9-1.3H92.9z M98.8,440v0.9h3V440H98.8z M101.7,443h-3v0.5v0.3h3V443z"/>
	<path d="M127.3,435.3v2.4h-17.5v-2.4h7.3c-0.1-0.4-0.3-0.8-0.4-1.2l3-0.7c0.2,0.6,0.5,1.3,0.8,1.9H127.3z M127,449.7
		c0,1.2-0.3,1.7-1.2,2c-0.8,0.3-2,0.3-3.4,0.3c-0.1-0.5-0.3-1-0.5-1.5h-5.1v0.7h-2.6V446h8.7v4.1c0.4,0,0.7,0,0.8,0
		c0.3,0,0.4-0.1,0.4-0.4v-4.2h-11.1v6.7h-2.8v-9H127V449.7z M125.2,442.6h-13v-4.4h13V442.6z M122.2,440.1h-7.1v0.7h7.1V440.1z
		 M120.4,447.9h-3.6v0.7h3.6V447.9z"/>
	<path d="M148.4,439.5c-0.4,2.9-1.1,5.2-2.1,7.2c0.9,1.3,2.1,2.4,3.4,3.2c-0.6,0.5-1.5,1.6-2,2.3c-1.2-0.8-2.2-1.8-3.1-3
		c-1.1,1.3-2.4,2.3-4,3.1c-0.4-0.5-1.4-1.6-2-2.1c2-0.8,3.4-1.9,4.5-3.4c-0.5-0.9-0.8-1.8-1.2-2.8c-0.2,0.3-0.4,0.6-0.7,0.9
		c-0.3-0.5-0.9-1.3-1.4-1.9l-1.2,0.7c-0.1-0.2-0.2-0.5-0.3-0.7c-0.2,0.9-0.5,1.7-0.8,2.4c1,1.1,1.9,2.3,2.4,3.2l-2.3,1.8
		c-0.4-0.7-0.9-1.5-1.5-2.3c-1,1.6-2.2,2.9-3.7,3.9c-0.4-0.5-1.3-1.6-1.9-2.1c1.6-0.9,2.9-2.3,3.8-3.9c-0.5-0.6-1.1-1.2-1.6-1.8
		c-0.2,0.3-0.3,0.5-0.5,0.7c-0.4-0.5-1.4-1.4-1.9-1.8c0.9-1.1,1.9-2.7,2.5-4.3h-1.9v-2.5h3.7c-0.2-0.6-0.5-1.3-0.8-1.9l2.5-0.8
		c0.4,0.7,0.9,1.6,1,2.2l-1.4,0.5h4.6v2.5h-2c0.6,0.8,1.2,1.7,1.7,2.5c1.1-2,1.7-4.8,2.1-7.7l2.6,0.4c-0.2,1-0.3,2-0.5,3h4.6v2.6
		H148.4z M138,441.8c-0.5-0.8-1-1.7-1.6-2.4l1.2-0.7h-3.8l1.7,0.5c-0.5,1.2-1.2,2.5-1.9,3.7l1.1-0.8c0.3,0.3,0.6,0.6,0.9,1
		c0.2-0.5,0.3-1.1,0.4-1.6L138,441.8z M144,439.5c-0.1,0.4-0.3,0.8-0.4,1.2c0.3,1.1,0.7,2.2,1.1,3.2c0.5-1.3,0.8-2.7,1-4.4H144z"/>
	<path d="M160.2,444.2l-2.5,2.2c-1.2-1.4-2.8-3.1-4.2-4.3l2.5-2.1C157.4,441.1,159.4,443.1,160.2,444.2z"/>
	<path d="M180.5,449.9h2v1.8h-18v-1.8h2.2c-0.3-0.4-0.8-1-1.1-1.3c1.2-0.4,2.3-1,2.7-1.8l2,0.4c-0.1,0.2-0.2,0.3-0.3,0.5
		c0.7,0.3,1.4,0.7,1.9,1l-0.8,1.2h1v-3h-6.5v-1.7h15.9v1.7h-6.7v3h1.2c-0.3-0.4-0.8-1-1.1-1.3c1.1-0.4,2-0.9,2.3-1.8l2,0.3
		c-0.1,0.1-0.1,0.3-0.2,0.4c0.9,0.3,1.8,0.7,2.4,1L180.5,449.9z M182.4,436.4v3.5h-2.9v-1.9h-0.8l0.7,0.9c-0.7,0.3-1.6,0.5-2.4,0.7
		c1.1,0.2,2.2,0.5,2.9,0.7l-0.3,1.1h2v3.2h-5v-3.2h2c-1.1-0.3-2.4-0.6-3.5-0.8l0.4-1.2l0.5,0.1l-0.5-0.7c0.6-0.1,1.5-0.4,2.3-0.7
		h-2.8v2.8H172v-2.8h-2.9c0.9,0.2,1.8,0.4,2.4,0.6l-0.4,0.9l0.8-0.1l0.1,1.2c-1.1,0.3-2.2,0.5-3.2,0.7h1.6v3.2h-4.9v-3.2h2.1
		l-0.5-1.2c0.9-0.1,2-0.3,3.3-0.4c-0.8-0.3-1.8-0.5-2.6-0.7l0.5-1h-0.8v1.9h-2.8v-3.5h7.4v-0.6h-6.3v-1.7h15.6v1.7h-6.5v0.6H182.4z
		 M168.3,442.6h-1v0.8h1V442.6z M170.5,449.9c-0.5-0.3-1.1-0.6-1.7-0.9c-0.4,0.4-0.9,0.7-1.4,0.9H170.5z M176,441.4v3.2h-5v-3.2H176
		z M174,442.6h-1.1v0.8h1.1V442.6z M179.9,449.9c-0.6-0.3-1.4-0.7-2.1-0.9c-0.4,0.4-0.8,0.7-1.3,0.9H179.9z M179.6,442.6h-1.1v0.8
		h1.1V442.6z"/>
	<path d="M189.5,443.4c-0.8-0.6-2.5-1.5-3.7-2.1l1.5-2.1c1.1,0.5,2.9,1.3,3.8,1.9L189.5,443.4z M186,450c1-1.4,2.5-3.8,3.7-6.1
		l2.1,1.9c-1,2.1-2.2,4.2-3.4,6.1L186,450z M190.3,438c-0.8-0.6-2.4-1.5-3.5-2.2l1.6-2.1c1,0.5,2.8,1.4,3.6,1.9L190.3,438z
		 M199.5,442v2.1h4v8h-2.7v-0.7h-5.3v0.8h-2.6v-8.1h3.9V442h-5v-2.7h5v-1.8c-1.2,0.2-2.4,0.3-3.6,0.4c-0.1-0.7-0.5-1.8-0.8-2.4
		c3.3-0.3,6.8-1,9-1.9l2.2,2.2c-1.3,0.5-2.6,0.9-4.1,1.2v2.3h4.8v2.7H199.5z M200.8,446.6h-5.3v2.2h5.3V446.6z"/>
	<path d="M225.5,436.6c0,0,0,0.9,0,1.2c-0.2,8.7-0.4,11.9-1.3,13c-0.6,0.9-1.2,1.1-2.1,1.3c-0.8,0.1-2,0.1-3.2,0.1
		c0-0.8-0.4-2-0.9-2.8c1.3,0.1,2.4,0.1,3,0.1c0.4,0,0.6-0.1,0.9-0.4c0.6-0.6,0.8-3.5,1-10h-3.7c-0.5,1.1-1.1,2.1-1.7,2.9
		c-0.4-0.3-1-0.8-1.6-1.2v9.3h-5.1v1.4h-2.6v-14.8h2.2c0.2-1,0.4-2.2,0.4-3.2l3.1,0.4c-0.3,1-0.7,1.9-1,2.8h2.9v2.6
		c1-1.6,1.8-3.7,2.3-5.7l2.7,0.6c-0.2,0.8-0.5,1.5-0.7,2.3H225.5z M213.2,439.2h-2.6v2.6h2.6V439.2z M213.2,447.7v-3.4h-2.6v3.4
		H213.2z M219.7,447.1c-0.5-1.2-1.7-3.1-2.6-4.6l2.2-1.3c0.9,1.3,2.2,3.2,2.7,4.3L219.7,447.1z"/>
	<path d="M247.2,448v2.9h-18.1V448h7.3v-9.5h-6.2v-3h15.8v3h-6.4v9.5H247.2z"/>
	<path d="M257.2,434.5c-0.5,1.3-1.1,2.7-1.8,4v13.7h-2.9v-9.2c-0.3,0.3-0.5,0.6-0.8,0.9c-0.3-0.7-1-2.4-1.5-3.1
		c1.7-1.7,3.3-4.4,4.3-7.1L257.2,434.5z M263.7,439.4v1.6h4.8v2.6h-4.8v1.8h5v2.6h-5v4.1h-2.9v-12.8h-0.4c-0.8,1.4-1.6,2.7-2.5,3.6
		c-0.5-0.5-1.5-1.5-2.2-2c1.7-1.7,3.2-4.5,4.1-7.3l2.7,0.7c-0.3,0.8-0.5,1.5-0.9,2.3h7.3v2.7H263.7z"/>
	<path d="M280.2,439.4c0,0.6-0.1,1.3-0.1,1.9h8.5c0,0,0,0.8-0.1,1.2c-0.3,5.3-0.7,7.5-1.6,8.4c-0.7,0.7-1.4,0.9-2.4,1.1
		c-0.8,0.1-2.1,0.1-3.4,0c0-0.8-0.5-2-1-2.8c1.3,0.1,2.7,0.1,3.3,0.1c0.4,0,0.7,0,1-0.3c0.5-0.4,0.8-2,1.1-5h-5.7
		c-0.7,3.2-2.1,6.2-5.6,8.2c-0.4-0.8-1.3-1.8-2.1-2.4c4.5-2.5,4.9-6.6,5-10.6h-4.8v-2.8h8.1c-0.3-0.7-0.7-1.6-1.1-2.3l2.8-1.1
		c0.5,0.9,1.1,2,1.4,2.8l-1.3,0.6h8v2.8H280.2z"/>
	<path d="M297.3,443.2c-0.8-0.7-2.4-1.6-3.7-2.1l1.5-2.1c1.2,0.4,2.9,1.2,3.8,1.9L297.3,443.2z M300.1,445.8c-1,2.1-2.2,4.2-3.4,6.1
		l-2.4-1.9c1-1.4,2.5-3.8,3.7-6.1L300.1,445.8z M298.4,438.1c-0.7-0.7-2.4-1.6-3.6-2.2l1.6-2.1c1.2,0.5,2.9,1.3,3.7,2L298.4,438.1z
		 M309.5,452.2c-0.1-0.5-0.3-1-0.6-1.6c-6.1,0.8-7.2,0.9-8,1.3c-0.2-0.6-0.6-2-1-2.8c0.5-0.2,0.8-0.5,1.3-1.3c0.3-0.5,1.1-2,1.7-3.8
		h-3.3v-2.7h4.4v-2.3h-3.7v-2.7h3.7v-2.7h2.9v2.7h3.8v2.7H307v2.3h4.5v2.7h-5.2c-0.7,1.6-1.5,3.2-2.4,4.6l3.8-0.4
		c-0.4-0.6-0.7-1.2-1.1-1.7l2.3-1.1c1.3,1.7,2.7,4,3.2,5.6L309.5,452.2z"/>
	<path d="M332.8,440.6c-0.7,3-1.9,5.3-3.6,7.2c1.3,0.8,2.8,1.4,4.5,1.8c-0.7,0.6-1.5,1.9-2,2.7c-1.9-0.6-3.5-1.4-4.9-2.5
		c-1.6,1.2-3.5,2-5.6,2.7c-0.4-0.8-1.1-2-1.7-2.7c1.9-0.5,3.6-1.2,5.1-2.2c-1.1-1.4-2.1-3.2-2.8-5.1h-0.1c-0.5,3.2-1.7,6.8-4.8,9.4
		c-0.4-0.8-1.5-2-2.1-2.5c3.7-3,4.2-8,4.2-11v-1.3h-2.9v-2.8h12.7c-0.3,1.8-0.7,3.9-1,5.5h2.3l0.5-0.1L332.8,440.6z M322.1,437.1
		v1.4c0,0.4,0,0.9,0,1.4h2.5c0.2-0.8,0.5-1.8,0.6-2.7H322.1z M324.7,442.5c0.5,1.2,1.3,2.3,2.2,3.3c0.9-0.9,1.5-2,2.1-3.3H324.7z"/>
	<path d="M354.4,434.1v18.1h-2.7v-0.9H340v0.9h-2.6v-18.1H354.4z M351.7,449.1v-13H340v13H351.7z M350.3,445.1h1.1v1.5H349v0.9
		c0,0.9-0.2,1.2-0.8,1.3c-0.6,0.2-1.4,0.2-2.4,0.2c-0.1-0.5-0.3-1-0.5-1.4c0.4,0,1,0,1.2,0c0.2,0,0.3-0.1,0.3-0.2v-0.8h-2.8
		c0.4,0.5,0.8,1,1,1.4l-1.9,0.9c-0.2-0.5-0.7-1.2-1.1-1.7l1.2-0.6h-2.9v-1.5h6.4v-0.4c-2.2,0.1-4.3,0.1-6,0.2l-0.1-1.5
		c1.1,0,2.5,0,4.1,0V443h-3.7v-4h3.7v-0.5h-4.1v-1.5h4.1v-0.6h2.3v0.6h4.2v1.5H347v0.5h3.8v4H350c0.5,0.4,1,0.9,1.4,1.3L350.3,445.1
		z M343.1,440.5h1.6v-0.4h-1.6V440.5z M344.7,442v-0.5h-1.6v0.5H344.7z M347,440.1v0.4h1.5v-0.4H347z M347,441.5v0.5h1.5v-0.5H347z
		 M347,443v0.5l1.1,0l0,0l0.6-0.4H347z M349,445.1h0.7c-0.1-0.2-0.3-0.3-0.4-0.5l-0.3,0V445.1z"/>
	<path d="M365.4,435.4c-0.5,1.7-1.1,3.9-1.6,5.4c1.1,1.4,1.3,2.7,1.3,3.8c0,1.4-0.3,2.2-0.9,2.7c-0.3,0.2-0.7,0.4-1.2,0.5
		c-0.3,0-0.8,0.1-1.3,0.1c0-0.5-0.1-1.2-0.3-1.8v6.2h-2.5v-17.8h4.2l0.4-0.1L365.4,435.4z M361.4,445.4c0.2,0,0.3,0,0.4,0
		c0.2,0,0.4,0,0.5-0.2c0.2-0.2,0.3-0.5,0.3-1c0-0.8-0.2-2-1.1-3.2c0.3-1.2,0.6-2.8,0.9-4.2h-1V445.4z M376.7,441.3
		c-0.7,0.4-1.4,0.8-2.1,1.2c0.6,1.8,1.7,3.9,2.7,5.1c-0.6,0.4-1.4,1.3-1.8,1.8c-0.9-1.3-1.9-3.1-2.6-5c0.6,2.7,0.2,5.4-0.8,6.4
		c-0.7,0.9-1.4,1.2-2.5,1.2c-0.5,0-1,0-1.6,0c0-0.7-0.2-1.8-0.7-2.5c0.7,0.1,1.3,0.1,1.8,0.1c0.5,0,0.7-0.1,1-0.6
		c0.2-0.3,0.4-0.9,0.5-1.7c-1.4,1-3.1,1.9-4.5,2.4c-0.4-0.6-1.1-1.5-1.7-2c2.1-0.5,4.7-1.8,6-3.1c-0.1-0.3-0.1-0.5-0.2-0.8
		c-1.1,0.8-2.4,1.6-3.5,2.2c-0.3-0.6-1-1.5-1.5-2c1.4-0.4,3.2-1.3,4.2-2.2c-0.2-0.3-0.3-0.5-0.5-0.8c-0.9,0.6-1.9,1.2-2.9,1.6
		c-0.3-0.5-1.1-1.5-1.6-2c1.2-0.4,2.5-1,3.6-1.7h-2.8v-2.4h2.7c-0.5-0.6-1.1-1.2-1.6-1.7l2.1-1.3c0.9,0.7,1.8,1.6,2.3,2.3l-0.9,0.6
		h1.5c0.6-0.8,1.3-2,1.6-2.9l2.7,0.8c-0.5,0.8-1,1.5-1.5,2.2h2.5v2.4h-5.1c-0.2,0.3-0.5,0.5-0.8,0.7c0.5,0.5,0.8,1.1,1.2,1.7
		c1.1-0.6,2.3-1.4,3.1-2.1L376.7,441.3z"/>
</g>
</svg>
