<?xml version="1.0" encoding="utf-8"?>
<!-- Generator: Adobe Illustrator 25.2.1, SVG Export Plug-In . SVG Version: 6.00 Build 0)  -->
<svg version="1.1" id="圖層_1" xmlns="http://www.w3.org/2000/svg" xmlns:xlink="http://www.w3.org/1999/xlink" x="0px" y="0px"
	 viewBox="0 0 850 400" style="enable-background:new 0 0 850 400;" xml:space="preserve">
<style type="text/css">
	.st0{fill:#FFFF56;}
	.st1{fill:none;stroke:#FEE102;stroke-width:2.3634;stroke-miterlimit:10;stroke-dasharray:5.9084,5.9084;}
	.st2{fill:none;stroke:#66665E;stroke-width:1.1817;}
	.st3{fill:#FEE102;}
	.st4{enable-background:new    ;}
	.st5{fill:#0C0C0C;}
	.st6{fill:#D1D1D1;}
	.st7{fill:none;stroke:#FFFF56;stroke-width:1.1437;stroke-miterlimit:10;}
</style>
<rect id="svg_73" x="462" y="162.9" class="st0" width="354.7" height="4.2"/>
<ellipse id="svg_29" class="st1" cx="208.7" cy="215.3" rx="158.5" ry="158.5"/>
<ellipse id="svg_28" class="st2" cx="208.5" cy="215.6" rx="150.9" ry="150.9"/>
<path id="svg_27" class="st3" d="M207.6,127.2c-33.3,0-60.4-27.1-60.4-60.4s27.1-60.4,60.4-60.4s60.4,27.1,60.4,60.4
	S240.9,127.2,207.6,127.2z"/>
<ellipse id="svg_26" class="st3" cx="67.3" cy="178.6" rx="60.4" ry="60.4"/>
<ellipse id="svg_25" class="st3" cx="95.5" cy="333.1" rx="60.4" ry="60.4"/>
<ellipse id="svg_24" class="st3" cx="309.8" cy="333.1" rx="60.4" ry="60.4"/>
<ellipse id="svg_23" class="st3" cx="354.6" cy="177.6" rx="60.4" ry="60.4"/>
<g class="st4">
	<path class="st5" d="M42.5,172.4v17.3h-2.7v-1.1H29.6v1.1h-2.7v-17.3h5.5c0.3-1,0.4-2,0.6-2.8l3.1,0.3c-0.3,0.8-0.7,1.7-1,2.5H42.5
		z M29.6,174.8v2.3h10.3v-2.3H29.6z M29.6,179.4v2.3h10.3v-2.3H29.6z M39.7,186.2V184H29.4v2.3H39.7z"/>
	<path class="st5" d="M65.9,186.5v2.5H46.5v-2.5h8.2v-4.2h-6.2v-2.5h6.2v-3.8h-7.3v-2.5h8.6c-0.8-0.8-2.3-1.8-3.2-2.7l2.1-1.4
		c1.4,0.8,3.2,2.3,4.1,3.2l-1.1,0.8h6.9v2.5h-7.2v3.8h6.2v2.5h-6.2v4.2L65.9,186.5L65.9,186.5z"/>
	<path class="st5" d="M87.4,185.8h-8.3v1.5c0,1.1-0.3,1.7-1.1,2.1c-0.8,0.3-2.1,0.3-3.7,0.3c-0.1-0.7-0.4-1.5-0.8-2.1
		c1,0,2.3,0,2.7,0c0.3,0,0.4,0,0.4-0.3v-1.4h-8.7v-2h8.7v-0.6c0.8-0.3,1.5-0.8,2.4-1.3h-6.9v-1.8h9.4l0.6-0.1l1.4,1.3
		c-1.1,0.8-2.7,1.7-4.1,2.5h8C87.4,184,87.4,185.8,87.4,185.8z M70.8,181.7h-2.4v-4.4H70l-0.4-6.5c1.3-0.3,3.2-0.8,4.4-1.3l1,1.5
		c-0.8,0.3-2,0.6-3,0.8v0.6h2.7v1.5h-2.7v0.7h2.7v1.1c0.6-0.3,1-0.6,1.5-0.8c-0.4-0.3-0.8-0.6-1.3-0.7l1.1-1
		c0.4,0.3,0.8,0.4,1.4,0.7c0.3-0.3,0.6-0.6,0.8-0.8l1.7,0.6c-0.3,0.4-0.7,0.8-1.1,1.3c0.6,0.3,1,0.7,1.3,1l-1.3,1.1
		c-0.3-0.3-0.7-0.7-1.3-1.1c-0.6,0.4-1.1,0.8-1.7,1.1h7l0.1-0.7h-2.5v-1.5h2.7v-0.7h-2.7v-1.5h2.7V172h-3v-1.5h5.3
		c-0.1,2.3-0.3,5.1-0.4,7h1.5v4.4h-2.5v-2.5H70.4v2.4H70.8z M72.4,177.3h3.5c-0.3-0.3-0.7-0.7-1-1v0.3h-2.5L72.4,177.3z M79,173.4
		c-0.3-0.3-0.7-0.6-1.1-0.8c-0.6,0.4-1.1,0.8-1.7,1.1c-0.3-0.3-1-0.8-1.3-1.1c0.6-0.3,1.1-0.6,1.7-0.8c-0.4-0.3-0.8-0.4-1.1-0.7
		l1.1-1c0.4,0.1,0.8,0.4,1.3,0.7c0.3-0.3,0.6-0.6,0.8-0.8l1.7,0.6c-0.3,0.4-0.7,0.8-1.1,1.1c0.4,0.3,0.8,0.6,1.1,0.8L79,173.4z"/>
	<path class="st5" d="M96.3,176.5c-1.8,1-3.7,2.1-5.2,2.8l-0.8-2c1.4-0.6,3.5-1.5,5.6-2.5L96.3,176.5z M107.7,177.3
		c0,1.1-0.1,1.5-0.8,2c-0.7,0.3-1.7,0.3-3,0.3c0-0.6-0.3-1.4-0.6-2c0.7,0,1.4,0,1.7,0c0.3,0,0.3,0,0.3-0.3v-4.8h-4.2
		c1,0.4,2.3,1,3,1.3l-1,1.5l1.7-0.8l0.6,1.7c-1.7,1-3.7,2-5.2,2.8h0.6c-0.3,0.6-0.6,1.1-0.8,1.5h6.9v9H104v-0.8h-9.3v0.8h-2.5v-9
		h5.1c0.1-0.4,0.3-1,0.4-1.4c-0.6,0.3-1.5,0.3-2.8,0.3c0-0.6-0.3-1.4-0.6-2c0.7,0,1.4,0,1.7,0c0.3,0,0.3,0,0.3-0.3v-4.8h-4.2
		c1,0.4,2.3,1,3,1.3l-1.1,1.7c-0.7-0.4-2.1-1.1-3.2-1.7l1-1.4h-1.5v-2.1h8.6v6.9c0,0.7,0,1.1-0.3,1.4l1.5,0.3l-0.8-2
		c1-0.4,2.3-1,3.8-1.7c-0.8-0.4-2.1-1.1-3.1-1.5l1-1.4h-1.4V170h8.3L107.7,177.3L107.7,177.3z M104,182.7h-9.3v1.3h9.3V182.7z
		 M104,187v-1.3h-9.3v1.3H104z"/>
</g>
<g class="st4">
	<path class="st5" d="M319.9,175.4l1.8-2.3c1.1,1.1,2.7,1.8,4.1,1.8c1.7,0,2.5-0.7,2.5-1.8s-1-1.5-2.4-2.1l-2.1-0.8
		c-1.5-0.7-3.2-2-3.2-4.2c0-2.7,2.3-4.6,5.5-4.6c1.8,0,3.7,0.7,5.1,2.1l-1.5,2c-1-0.8-2.1-1.3-3.4-1.3c-1.4,0-2.3,0.6-2.3,1.7
		s1.1,1.5,2.5,2.1l2.1,0.8c2,0.8,3.2,2,3.2,4.4c0,2.7-2.1,4.8-5.9,4.8C323.5,177.8,321.4,176.9,319.9,175.4z"/>
	<path class="st5" d="M333.4,171.4c0-4.1,3-6.3,6.2-6.3c1.5,0,2.7,0.6,3.5,1.3l-1.5,2.1c-0.6-0.6-1.1-0.8-1.8-0.8
		c-1.8,0-3.1,1.5-3.1,3.8c0,2.3,1.3,3.8,3,3.8c0.8,0,1.7-0.4,2.4-1l1.3,2.1c-1.1,1-2.7,1.4-3.9,1.4
		C335.9,177.8,333.4,175.4,333.4,171.4z"/>
	<path class="st5" d="M345.5,165.4h2.5l0.3,2.1h0.1c0.8-1.5,2.1-2.4,3.4-2.4c0.7,0,1.1,0.1,1.4,0.3l-0.6,2.7
		c-0.4-0.1-0.7-0.1-1.3-0.1c-1,0-2.1,0.6-2.8,2.4v7.2h-3.1V165.4z"/>
	<path class="st5" d="M354.8,173v-7.6h3.2v7.2c0,1.8,0.6,2.5,1.7,2.5c1,0,1.7-0.4,2.4-1.5v-8.2h3.2v12.1h-2.5l-0.3-1.7h-0.1
		c-1,1.3-2.3,2-3.8,2C355.9,177.8,354.8,175.9,354.8,173z"/>
	<path class="st5" d="M368.7,165.4h2.5l0.3,1.5h0.1c1-1.1,2.1-2,3.7-2c1.7,0,2.7,0.8,3.4,2.1c1.1-1.1,2.3-2.1,3.8-2.1
		c2.5,0,3.8,1.8,3.8,4.8v7.5h-3.2V170c0-1.8-0.6-2.5-1.7-2.5c-0.7,0-1.4,0.4-2.4,1.4v8.3h-3.2V170c0-1.8-0.6-2.5-1.7-2.5
		c-0.7,0-1.4,0.4-2.4,1.4v8.3h-3.1v-11.8L368.7,165.4L368.7,165.4z"/>
	<path class="st5" d="M338.5,195.3c-0.3,1.8-0.8,3.7-1.5,5.3c0.3,0.3,0.7,0.6,1.3,0.8c1.4,0.8,3.5,1,6.1,1s6.3-0.3,8.7-0.6
		c-0.3,0.7-0.7,2-0.7,2.7c-1.8,0.1-5.6,0.3-8.2,0.3c-2.8,0-4.6-0.3-6.2-1.1c-0.8-0.6-1.7-1.3-2.1-1.3c-0.6,0-1.3,1.4-1.8,2.7
		l-1.7-2.4c0.8-1,1.5-1.7,2.4-2.1c0.6-1.1,1-2.4,1.3-3.7h-3c0.6-1.3,1.1-3,1.5-4.6h-2v-2.3h5.1c-0.4,1.5-1,3.2-1.5,4.8h0.3h0.4
		L338.5,195.3z M335,189.2c-0.3-1-0.8-2.5-1.1-3.8l2.3-0.7c0.4,1.1,1,2.7,1.3,3.5L335,189.2z M340.2,189.8h-1.8v-4.2h13.8v4.2h-2.3
		v0.8h-3.4v0.8h4.5v6.3h-4.5v0.8h5.5v1.8h-5.5v1.4H344v-1.4h-5.5v-1.8h5.5v-0.8h-4.5v-6.3h4.5v-0.8h-3.8V189.8z M340.8,187.4v1.4
		h3.4V188h2.5v0.8h3.1v-1.4H340.8z M341.8,193.9h2.3V193h-2.3V193.9z M344,196.1v-0.8h-2.3v0.8H344z M346.5,193v0.8h2.3V193H346.5z
		 M348.8,195.3h-2.3v0.8h2.3V195.3z"/>
	<path class="st5" d="M361.3,185.7c-0.6,1.5-1.3,3.1-2.1,4.5V205h-2.5v-10.8c-0.4,0.6-0.8,1.1-1.3,1.5c-0.3-0.6-1-2.1-1.4-2.7
		c2-2,3.8-5.1,4.9-8L361.3,185.7z M368.2,190.8v2.3h5.6v2.4h-5.6v2.4h5.9v2.4h-5.9v4.8h-2.7v-14.2h-0.8c-0.8,1.5-1.8,3.1-2.8,4.2
		c-0.4-0.4-1.4-1.4-2-1.8c1.8-2,3.7-5.1,4.5-8.2l2.5,0.6c-0.3,0.8-0.7,1.8-1.1,2.7h8.3v2.4h-5.9V190.8z"/>
</g>
<g class="st4">
	<path class="st5" d="M267.2,332.9c0.6-1.4,0.8-3.8,1.1-5.6l1.8,0.3c-0.1,1.8-0.4,4.4-1,6.1L267.2,332.9z M273.6,331.6
		c-0.1-0.8-0.6-1.8-1-3v14.5H270V323h2.5v4.1l1.1-0.6c0.7,1.3,1.4,3,1.7,4.1L273.6,331.6z M281,335.1c-0.7,3.1-2.3,6.1-6.1,8.3
		c-0.3-0.6-1.3-1.5-1.8-2c3.2-1.5,4.6-3.9,5.2-6.2h-4.2v-2.4h4.6c0-0.7,0-1.4,0-2v-2h-3.7v-2.4h3.7v-3.2h2.5v3.2h4.6v6.3h1.4v2.4
		H281V335.1z M283.3,335.1c1.4,2.1,3.4,4.9,4.4,6.6l-2.4,1.3c-0.8-1.7-2.7-4.6-4.1-6.9L283.3,335.1z M281.4,330.6c0,0.7,0,1.3,0,2
		h2.3v-3.9h-2.1v2H281.4z"/>
	<path class="st5" d="M295.4,333.4c-0.3,2-1,3.8-1.8,5.3c0.3,0.1,0.7,0.4,1.3,0.7c1.5,0.8,3.5,1,6.1,1c2.4,0,6.3-0.3,8.7-0.6
		c-0.3,0.7-0.7,2-0.7,2.7c-1.8,0.1-5.6,0.3-8.2,0.3c-2.8,0-4.6-0.3-6.2-1.1c-0.8-0.4-1.7-1.1-2.1-1.1c-0.6,0-1.3,1.4-1.8,2.5
		l-1.7-2.5c0.7-0.8,1.4-1.4,2.1-1.8c0.8-1.1,1.4-2.5,1.8-3.9h-3c0.6-1.3,1.1-3,1.8-4.6h-2.1v-2.1h5.3c-0.6,1.5-1.1,3.2-1.7,4.8h0.6
		h0.4L295.4,333.4z M291.7,327.5c-0.4-1-1.1-2.5-1.5-3.8l2.3-0.8c0.6,1.1,1.3,2.7,1.7,3.5L291.7,327.5z M300.6,327.1h-5.3V325h5.3
		v-1.8h2.5v1.8h5.6v2.1h-5.6v1.1h4.9v5.8H304c1.7,1,3.7,2.4,4.6,3.2l-1.5,1.7c-0.8-0.8-2.4-2.1-3.9-3.1v3.8h-2.5v-3.9
		c-1.1,1.4-2.7,2.8-4.2,3.5c-0.3-0.6-1.1-1.5-1.5-2c1.8-0.7,3.5-2,4.8-3.4h-3.7v-5.8h4.8L300.6,327.1L300.6,327.1z M298.2,332h2.4
		v-1.8h-2.4V332z M303.1,330.2v1.8h2.4v-1.8H303.1z"/>
	<path class="st5" d="M316.8,333.2c-0.4,2-1,3.9-1.7,5.6c0.3,0.3,0.7,0.6,1.3,0.8c1.4,0.8,3.5,1,6.1,1s6.3-0.3,8.7-0.6
		c-0.3,0.7-0.7,2-0.7,2.7c-1.8,0.1-5.6,0.3-8.2,0.3c-2.8,0-4.6-0.3-6.2-1.1c-0.8-0.6-1.7-1.3-2.1-1.3c-0.6,0-1.3,1.4-1.8,2.7
		l-1.7-2.4c0.7-0.8,1.5-1.5,2.3-2.1c0.4-1.1,0.8-2.4,1.3-3.8h-2.8c0.6-1.3,1.1-3,1.5-4.6h-2v-2.3h5.1c-0.4,1.5-1,3.2-1.4,4.8h0.8
		l0.4-0.1L316.8,333.2z M313.1,327.5c-0.3-1-0.8-2.5-1.1-3.7l2.3-0.7c0.4,1.1,1,2.7,1.3,3.5L313.1,327.5z M319.9,328.2
		c-0.4,0.8-0.8,1.5-1.3,2.3c-0.6-0.4-1.7-1-2.4-1.3c1.3-1.3,2.1-3.5,2.7-5.8l2.5,0.4c-0.1,0.7-0.3,1.3-0.6,2h1.5v-3h2.5v3h4.5v2.3
		h-4.5v1c0,0.4,0,1,0,1.4h5.6v2.4h-6.1l0,0c2.1,1.4,4.6,3.2,5.8,4.6l-2,1.7c-1-1.3-2.8-3-4.8-4.2c-1,1.7-2.5,3.2-4.9,4.4
		c-0.3-0.6-1.1-1.5-1.7-2c3-1.1,4.4-2.8,4.9-4.6h-5.2v-2.4h5.6c0-0.6,0-1,0-1.5v-1h-2.4L319.9,328.2L319.9,328.2z"/>
	<path class="st5" d="M340.1,324c-0.6,1.3-1.3,2.7-2,3.9v15.2h-2.7v-11.3c-0.7,0.8-1.4,1.7-2.3,2.4c-0.3-0.6-1-2-1.4-2.7
		c2.4-2,4.6-5.2,5.9-8.4L340.1,324z M346,331.9c0.6,4.8,1.7,8,3.5,8.2c0.6,0,0.7-1,1-3.4c0.4,0.6,1.5,1.3,2.1,1.4
		c-0.6,4.2-1.7,5.2-3,5.1c-3.7-0.3-5.3-4.4-6.2-11l-4.2,0.6l-0.4-2.5l4.4-0.6c-0.1-2-0.3-4.1-0.3-6.3h2.7c0,2.1,0.1,4.1,0.3,5.9
		l6.2-0.8l0.4,2.4L346,331.9z M349.8,328.1c-0.6-1-1.8-2.5-3-3.7l2-1.1c1.1,1,2.5,2.4,3.1,3.5L349.8,328.1z"/>
</g>
<g class="st4">
	<path class="st5" d="M60.3,333c-0.3,2-1,3.8-1.8,5.3c0.3,0.1,0.7,0.4,1.3,0.7c1.5,0.8,3.5,1,6.1,1c2.4,0,6.3-0.3,8.7-0.6
		c-0.3,0.7-0.7,2-0.8,2.7c-1.7,0.1-5.6,0.3-8,0.3c-2.8,0-4.6-0.3-6.2-1.1c-0.8-0.4-1.7-1.1-2.1-1.1c-0.6,0-1.3,1.4-1.8,2.5l-1.7-2.5
		c0.7-0.8,1.4-1.4,2.1-1.8c0.8-1.1,1.4-2.5,1.8-3.8h-3c0.6-1.3,1.3-3,1.8-4.6h-2.1v-2.3h5.3c-0.6,1.5-1.1,3.2-1.7,4.8h0.6h0.4
		L60.3,333z M56.5,327.1c-0.3-1-1.1-2.5-1.5-3.8l2.3-0.8c0.6,1.1,1.3,2.7,1.7,3.5L56.5,327.1z M61.6,332.4c-0.3,0.1-0.6,0.3-0.8,0.3
		c-0.3-0.6-1-1.4-1.5-1.8c1.8-0.6,3.7-1.4,5.1-2.5h-4.4v-2h5.6v-1.1c-1.5,0.1-3.1,0.1-4.5,0.1c0-0.6-0.3-1.3-0.6-1.7
		c3.8-0.1,8.2-0.4,10.7-1l1.5,1.7c-1.4,0.3-3.1,0.6-4.8,0.7v1.3h5.6v2h-4.4c1.3,1,3.1,1.8,4.9,2.3c-0.6,0.4-1.1,1.3-1.5,1.8
		c-1.7-0.6-3.4-1.5-4.6-3v2h-2.4v-1.8c-1,0.8-2.1,1.7-3.2,2.3h7.6c-0.1,0.6-0.3,1.1-0.3,1.7h3.7c0,0,0,0.6-0.1,0.8
		c-0.1,2.4-0.4,3.5-1,3.9c-0.4,0.4-1,0.6-1.5,0.6c-0.6,0-1.5,0.1-2.7,0c0-0.6-0.3-1.4-0.6-1.8c0.8,0.1,1.8,0.1,2.1,0.1
		s0.6,0,0.7-0.1c0.1-0.1,0.4-0.7,0.4-1.7h-3.8c0.1-0.4,0.3-1,0.4-1.5h-1.5c-0.4,2.7-1.4,4.5-4.9,5.6c-0.3-0.6-0.8-1.4-1.3-1.8
		c2.7-0.7,3.5-2,3.8-3.8h-2.1v-1.4L61.6,332.4L61.6,332.4z"/>
	<path class="st5" d="M78.8,336.9v1.8h-2.4v-15.1h7.2v13.2L78.8,336.9L78.8,336.9z M78.8,326.1v3.1h2.4v-3.1H78.8z M81.1,334.7v-3.2
		h-2.4v3.2H81.1z M94.8,339.7c0,1.4-0.3,2-1.1,2.4c-0.8,0.4-2.1,0.4-3.9,0.4c-0.1-0.7-0.6-1.8-0.8-2.5c1.1,0,2.4,0,2.8,0
		s0.6-0.1,0.6-0.6v-3.8h-4.6c-0.6,2.5-1.5,5.1-3.7,6.9c-0.4-0.6-1.4-1.4-2-1.7c3.2-2.7,3.5-6.8,3.5-10v-7.5h9.3
		C94.8,323.4,94.8,339.7,94.8,339.7z M92.3,333.7v-2.8H88v0.3c0,0.7,0,1.5-0.1,2.4L92.3,333.7L92.3,333.7z M88,325.8v2.8h4.2v-2.8
		H88z"/>
	<path class="st5" d="M111.3,323c1,3.1,3.2,6.2,6.2,7.7c-0.6,0.6-1.4,1.7-1.8,2.4c-0.6-0.4-1.1-0.8-1.7-1.3
		c-0.3,6.3-0.6,8.9-1.3,9.7c-0.6,0.7-1.1,1-2,1c-0.7,0.1-2,0.1-3.2,0c0-0.8-0.4-1.8-0.8-2.5c1.1,0.1,2.3,0.1,2.8,0.1
		c0.4,0,0.6,0,0.8-0.3c0.4-0.4,0.7-2.4,0.8-6.9h-4.2c-0.6,4.1-2,7.9-7.5,9.9c-0.3-0.7-1.1-1.8-1.7-2.4c4.9-1.5,6.1-4.4,6.5-7.6h-3.7
		v-1.4c-0.6,0.6-1.1,1.1-1.5,1.5c-0.4-0.6-1.5-1.4-2.1-1.8c2.4-1.7,4.4-4.6,5.3-7.9l2.7,0.7c-0.8,2.4-2,4.6-3.4,6.5h11.1
		c-1.4-1.5-2.5-3.4-3.2-5.2h-3.4v-2.4L111.3,323L111.3,323z"/>
	<path class="st5" d="M138.4,338.9h-8.3v1.5c0,1.3-0.4,1.8-1.4,2.1c-1,0.3-2.4,0.3-4.4,0.3c-0.1-0.7-0.6-1.5-0.8-2.1
		c1.3,0,3,0,3.2,0c0.4,0,0.6-0.1,0.6-0.4v-1.4H119v-2.1h8.3v-0.8l0,0l0,0c0.8-0.1,1.8-0.4,2.7-0.8h-8.9v-2h13.1l0.6-0.1l1.7,1.4
		c-1.7,1-3.8,1.8-6.1,2.4h8.2L138.4,338.9L138.4,338.9z M138,326.4h-18.7v-2.1h7.9c-0.1-0.4-0.3-1-0.4-1.3l2.7-0.4
		c0.3,0.6,0.6,1.1,0.7,1.7h7.9C138,324.3,138,326.4,138,326.4z M121.8,332.1v-4.8h13.9v4.8H121.8z M124.4,330.3h8.7v-1.3h-8.7V330.3
		z"/>
</g>
<g class="st4">
	<path class="st5" d="M185.8,67.7v2.5h-19.7v-2.5h4.6v-4.1h-3.9v-2.5h3.9v-3.9h2.7v3.9h4.9v-3.9h2.7v3.9h4.1v2.5H181v4.1
		C181,67.7,185.8,67.7,185.8,67.7z M174.4,72.1c-1.5,1.8-3.9,3.8-6.1,5.1c-0.6-0.6-1.5-1.4-2.1-1.8c2-1.1,4.4-2.8,5.5-4.2
		L174.4,72.1z M173.4,67.7h4.9v-4.1h-4.9V67.7z M179.7,70.9c1.8,1.3,4.5,3.4,5.9,4.6l-2.5,1.5c-1.1-1.3-3.8-3.4-5.6-4.9L179.7,70.9z
		"/>
	<path class="st5" d="M206.6,74c0,1.3-0.3,2.1-1.1,2.5s-2,0.6-3.8,0.6c-0.1-0.7-0.6-1.8-0.8-2.5c1.1,0,2.4,0,2.8,0
		c0.4,0,0.6-0.1,0.6-0.6V60.4H191v16.7h-2.5V57.8h18.3L206.6,74L206.6,74z M202.8,64h-10.7v-2.1h10.7V64z M195.5,72.9v1.4h-2.4v-8.6
		h8.7v7.2H195.5z M195.5,67.8v3h4.1v-3H195.5z"/>
	<path class="st5" d="M226.6,58.1v18.7h-2.7v-1.4h-10v1.4h-2.5V58.1H226.6z M213.9,60.5v2.5h10v-2.5H213.9z M213.9,65.4V68h10v-2.5
		H213.9z M223.9,72.9v-2.5h-10v2.5H223.9z"/>
	<path class="st5" d="M237,69.8c-0.3-0.6-0.6-1.5-1.1-2.4V77h-2.3v-9c-0.6,2-1.3,3.8-2.1,4.9c-0.3-0.7-0.8-2-1.1-2.7
		c1.1-1.7,2.4-4.6,3-7H231v-2.4h2.7v-3.9h2.4v3.9h2.1v2.4H236v1c0.6,0.7,2.1,3.2,2.5,3.8L237,69.8z M242.1,72.6
		c-0.7,1.5-2,3.1-3,4.1c-0.4-0.4-1.4-1-2-1.4c1.1-0.8,2.1-2.1,2.7-3.4L242.1,72.6z M241.7,59.7H238v-2h12.2v2h-3.8v1h3.5v5.2h-11.5
		v-5.2h3.2V59.7z M245.3,71.5V77h-2.3v-5.5h-4.9v-2h12.2v2H245.3z M239.4,68.7v-2h9.7v2H239.4z M240.5,64.2h1.1v-1.5h-1.1V64.2z
		 M244.6,59.7h-1.1v1h1.1V59.7z M243.5,64.2h1.1v-1.5h-1.1V64.2z M248,71.9c1,1,2.1,2.4,2.7,3.4l-2,1.1c-0.4-1-1.5-2.5-2.5-3.5
		L248,71.9z M246.4,62.5v1.7h1.3v-1.5L246.4,62.5L246.4,62.5z"/>
</g>
<g>
	<ellipse id="svg_22" class="st6" cx="208.5" cy="215.6" rx="60.4" ry="60.4"/>
	<g class="st4">
		<path class="st5" d="M183.9,198c-0.5,3.4-1.2,6.4-2.4,8.7c0.9,1.5,2.1,2.8,3.7,3.7c-0.6,0.5-1.4,1.5-1.8,2.2
			c-1.3-0.8-2.5-2-3.4-3.4c-0.9,1.3-2.2,2.4-3.7,3.3c-0.4-0.5-1.2-1.5-1.8-2c1.8-0.9,3.1-2.1,4-3.7c-0.7-1.5-1.3-3.3-1.8-5.2
			c-0.2,0.4-0.5,0.7-0.7,1.1c-0.4-0.5-1.2-1.3-1.8-1.8v1.3h1.4v2.2h-1.5c0,0.9-0.1,1.9-0.1,2.6h1.5v2.1h-1.8
			c-0.1,1.2-0.4,1.9-0.6,2.2c-0.4,0.7-0.8,0.8-1.5,1.1c-0.6,0.1-1.4,0.1-2.4,0.1c0-0.7-0.2-1.7-0.6-2.2c0.7,0.1,1.4,0.1,1.8,0.1
			c0.4,0,0.5-0.1,0.7-0.4c0.1-0.1,0.2-0.4,0.2-0.7h-6.7c0.2-1.3,0.4-3,0.6-4.7h-1.4v-2.2h1.5c0.1-0.8,0.1-1.7,0.2-2.4l0,0
			c-0.5-0.5-1.5-1.2-2.1-1.5c1.3-1.7,2.4-4.3,3-6.9l2.5,0.5c-0.1,0.6-0.2,1.2-0.5,1.8h7.1v2.4h-7.9c-0.2,0.6-0.5,1.1-0.7,1.5h7.4
			v1.1l-0.1,1.9c1.5-2.2,2.5-5.7,3-9.2l2.5,0.4c-0.2,1.3-0.5,2.6-0.8,3.8h5.8v2.4L183.9,198L183.9,198z M167.8,204.3
			c-0.1,0.9-0.1,1.8-0.2,2.6h2c-0.4-0.6-0.9-1.4-1.4-2l1.1-0.6H167.8z M168.2,199.7c-0.1,0.8-0.1,1.7-0.2,2.4h1.8
			c-0.2-0.6-0.7-1.3-1.3-1.9l1.1-0.6h-1.3L168.2,199.7L168.2,199.7z M171.7,206.9c0-0.7,0.1-1.5,0.1-2.6h-2c0.6,0.7,1.2,1.4,1.5,2.1
			l-0.8,0.5H171.7z M172.1,202.2c0-0.7,0-1.5,0.1-2.4h-1.9c0.6,0.6,1.1,1.4,1.3,2l-0.7,0.4H172.1z M178.5,198
			c0.4,2.1,0.8,4.1,1.7,5.9c0.6-1.8,1.1-3.7,1.3-5.9H178.5z"/>
		<path class="st5" d="M193.8,203.3c-0.7,0.2-1.5,0.5-2.2,0.7v5.7c0,1.3-0.2,1.9-0.9,2.4c-0.7,0.5-1.7,0.5-3.1,0.5
			c-0.1-0.7-0.4-1.8-0.7-2.5c0.8,0,1.7,0,1.9,0s0.4-0.1,0.4-0.4v-5l-2.1,0.6l-0.6-2.6c0.8-0.1,1.7-0.4,2.7-0.7v-3.9h-2.4v-2.5h2.4
			v-4.3h2.5v4.3h2v2.5h-2v3.2l1.9-0.5L193.8,203.3z M201.6,210c0.6,0.1,1.3,0.1,1.9,0.1c0.7,0,3.4,0,4.4,0c-0.4,0.6-0.6,1.7-0.7,2.2
			h-3.8c-3.1,0-5.6-0.6-7.3-2.6c-0.5,1.3-1.2,2.2-2,3.1c-0.4-0.4-1.4-1.2-2-1.5c1.7-1.4,2.5-3.8,2.8-6.5l2.5,0.2
			c-0.1,0.7-0.2,1.4-0.4,2.1c0.6,1.1,1.3,1.7,2.2,2.1v-4.8H195v-2h4.3v-1.2h-5.6v-2.1h5.6V198H195v-2h4.3v-0.9h-5.2v-2.1h5.2v-1.7
			h2.5v1.7h5.7v2.1h-5.7v0.9h4.7v3.1h1.4v2.1h-1.4v3.2h-4.7v1.3h5.1v2.1h-5.1v2.1L201.6,210L201.6,210z M201.6,199.2h2.2v-1.1h-2.2
			V199.2z M201.6,202.4h2.2v-1.2h-2.2V202.4z"/>
		<path class="st5" d="M229.4,192.1v20.3h-2.6v-1.1h-14.1v1.1h-2.4V192h19L229.4,192.1L229.4,192.1z M226.8,209.4v-15.2h-14.1v15.2
			H226.8z M226.3,206.2h-3v1.4c0,0.8-0.2,1.2-0.8,1.3c-0.6,0.2-1.5,0.2-2.7,0.2c-0.1-0.5-0.4-0.9-0.6-1.3c0.6,0,1.4,0,1.5,0
			c0.2,0,0.4-0.1,0.4-0.2v-1.3h-4c0.6,0.6,1.2,1.3,1.5,1.9l-1.8,0.8c-0.2-0.6-0.9-1.4-1.5-2l1.4-0.7h-3.5v-1.4h7.9v-0.7h2.2v0.7h1.2
			c-0.1-0.2-0.4-0.5-0.7-0.8c-3.8,0.1-7.4,0.2-10.3,0.2l-0.1-1.4c1.4,0,3.2,0,5.1,0v-0.7H214v-4.6h4.5v-0.7h-5.1v-1.4h5.1v-0.8h2.2
			v0.8h5.2v1.4h-5.2v0.7h4.5v4.6h-1.2c0.7,0.6,1.4,1.3,1.9,1.8l-1.2,0.8h1.3v1.4H226.3z M216.3,199.2h2.5v-0.7h-2.5V199.2z
			 M218.6,201v-0.7h-2.5v0.7H218.6z M220.9,198.5v0.7h2.4v-0.7H220.9z M223.2,200.3h-2.4v0.7h2.4V200.3z M220.9,202.7h1.8l-0.2-0.2
			l0.8-0.5h-2.4V202.7z"/>
		<path class="st5" d="M239.9,193.3c-0.6,1.9-1.3,4.4-2,6.1c1.3,1.8,1.7,3.3,1.7,4.5c0,1.4-0.2,2.4-1.1,3c-0.4,0.2-0.8,0.4-1.3,0.5
			c-0.4,0-0.9,0.1-1.4,0c0-0.7-0.2-1.7-0.6-2.2c0.4,0,0.7,0,0.9,0c0.2,0,0.5-0.1,0.6-0.2c0.2-0.2,0.4-0.7,0.4-1.3
			c0-1.1-0.2-2.5-1.5-4c0.5-1.4,0.9-3.4,1.3-5h-1.8v17.7h-2.4v-20h5l0.4-0.1L239.9,193.3z M252.8,199.7c-0.8,0.6-1.8,1.2-2.7,1.7
			c0.8,2.4,2.1,4.8,3.4,6.3c-0.6,0.4-1.3,1.2-1.7,1.7c-1.4-1.7-2.7-4.4-3.5-6.9h-0.1c1.1,3.5,0.6,7.3-0.7,8.6
			c-0.7,0.8-1.4,1.2-2.6,1.2c-0.5,0-1.2,0-1.9,0c0-0.7-0.2-1.7-0.6-2.4c0.7,0.1,1.5,0.1,2,0.1c0.6,0,0.8-0.1,1.2-0.6s0.7-1.5,0.7-3
			c-1.7,1.3-3.9,2.5-5.7,3.2c-0.4-0.6-1.1-1.4-1.5-1.9c2.5-0.7,5.4-2.2,7.1-3.9c-0.1-0.4-0.2-0.8-0.4-1.2c-1.3,1.1-3,2.1-4.4,2.8
			c-0.4-0.6-0.9-1.4-1.4-1.9c1.7-0.6,3.8-1.8,5.1-2.8c-0.2-0.4-0.5-0.8-0.8-1.2c-1.2,0.8-2.5,1.5-3.7,2.1c-0.4-0.5-1.1-1.4-1.5-1.9
			c1.7-0.6,3.3-1.5,4.6-2.5h-3.9v-2.4h3.5c-0.6-0.8-1.4-1.7-2.1-2.2l2-1.2c1.1,0.8,2.1,1.9,2.7,2.7l-1.1,0.8h2
			c0.7-0.9,1.7-2.5,2-3.5l2.6,0.7c-0.6,0.9-1.3,2-1.9,2.8h3.4v2.4h-6c-0.2,0.4-0.6,0.6-0.9,0.9c0.6,0.7,1.2,1.5,1.5,2.4
			c1.3-0.8,2.7-1.8,3.8-2.6L252.8,199.7z"/>
		<path class="st5" d="M185,235.4v2.7h-20.6v-2.7h8.6v-11.7h-7.4v-2.8h18.1v2.8h-7.6v11.7H185z"/>
		<path class="st5" d="M194.2,219.4c-0.6,1.5-1.3,3.2-2.1,4.7v15.5h-2.7v-11.3c-0.5,0.6-0.9,1.2-1.4,1.7c-0.2-0.7-1.1-2.2-1.5-2.8
			c2-2,4-5.2,5.2-8.5L194.2,219.4z M201.4,224.8v2.4h5.9v2.5h-5.9v2.6h6.1v2.5h-6.1v5.1h-2.7V225h-0.8c-0.9,1.7-1.9,3.2-3,4.4
			c-0.5-0.5-1.5-1.4-2-1.9c2-2,3.8-5.3,4.8-8.5l2.6,0.7c-0.4,0.9-0.7,1.9-1.1,2.8h8.7v2.6h-6.6V224.8z"/>
		<path class="st5" d="M218.5,224.8c-0.1,0.9-0.1,1.8-0.2,2.7h9.7c0,0,0,0.8-0.1,1.2c-0.4,6.1-0.8,8.6-1.8,9.6
			c-0.7,0.7-1.4,0.9-2.4,1.1c-0.8,0.1-2.4,0.1-3.9,0c0-0.8-0.5-1.9-0.9-2.6c1.5,0.1,3.1,0.2,3.8,0.2c0.5,0,0.8,0,1.1-0.2
			c0.6-0.5,0.9-2.5,1.3-6.5h-7.1c-0.8,3.8-2.5,7.3-6.5,9.7c-0.4-0.7-1.3-1.7-2-2.2c5.4-2.8,5.9-7.9,6.1-12.8h-5.7v-2.6h9.6
			c-0.4-0.8-0.9-2-1.3-3l2.6-0.9c0.6,1.1,1.3,2.4,1.7,3.2l-1.5,0.7h9.3v2.6h-11.7L218.5,224.8L218.5,224.8z"/>
		<path class="st5" d="M236.2,229.2c-0.8-0.7-2.8-1.8-4.3-2.5l1.4-2c1.4,0.6,3.3,1.4,4.3,2.2L236.2,229.2z M232.8,237.6
			c1.2-1.8,3-4.5,4.3-7.1l2,1.8c-1.2,2.4-2.6,5-4,7.1L232.8,237.6z M237.5,223.3c-0.9-0.8-2.7-1.9-4.3-2.5l1.4-2
			c1.4,0.6,3.3,1.5,4.3,2.2L237.5,223.3z M250.4,239.7c-0.1-0.6-0.5-1.3-0.8-2c-7.6,0.9-8.7,1.1-9.5,1.4c-0.1-0.6-0.6-1.9-0.9-2.7
			c0.5-0.1,0.9-0.6,1.4-1.4c0.4-0.6,1.5-2.6,2.4-4.8h-4.3v-2.5h5.3v-3.2h-4.5v-2.6h4.5v-3.4h2.7v3.4h4.6v2.6h-4.6v3.2h5.4v2.5h-5.9
			c-0.9,2-2,4.1-3.2,5.8l5.3-0.6c-0.5-0.8-0.9-1.7-1.5-2.4l2.2-1.1c1.5,2,3.2,4.6,3.8,6.4L250.4,239.7z"/>
	</g>
</g>
<g class="st4">
	<path d="M477.4,114.8c1.2,1.8,2.8,4.3,3.6,5.8l-2.6,1.5c-0.7-1.6-2.4-4.2-3.5-6.2l2.1-1.1h-1.8c-0.6,2.8-2.2,5.5-5.4,7.4
		c-0.4-0.6-1.4-1.7-2-2.2c2.7-1.3,4-3.2,4.5-5.2h-3.5v-2.7h3.9c0-0.5,0-1,0-1.4V109h-3.1c0.2,0.6,0.4,1.2,0.5,1.6l-2.1,0.9
		c-0.1-0.5-0.3-1.2-0.5-1.8v12.4h-2.8V111c-0.1,0.9-0.3,1.7-0.5,2.4l-2.1-0.7c0.5-1.3,0.8-3.5,0.9-5.2l1.7,0.2v-4.2h2.8v3.7l1.1-0.5
		c0.3,0.6,0.6,1.4,0.9,2.2v-2.6h3.2v-2.9h2.9v2.9h4.2v5.7h1v2.7H477.4z M475.6,110.7c0,0.5,0,0.9,0,1.4h1.4V109h-1.4V110.7z"/>
	<path d="M496.4,115.6c-1,1.2-2.2,2.1-3.4,2.8c-0.4-0.6-1.2-1.6-1.8-2.1c-0.2,0.5-0.4,1-0.6,1.5c0.2,0.1,0.5,0.3,0.9,0.5
		c1.3,0.7,3.3,0.8,5.5,0.8c2,0,5.8-0.2,8-0.6c-0.3,0.8-0.8,2.2-0.9,3c-1.7,0.1-5,0.2-7.3,0.2c-2.6,0-4.2-0.2-5.6-0.9
		c-0.8-0.4-1.5-1-1.9-1c-0.5,0-1.2,1.3-1.7,2.3l-1.8-2.8c0.6-0.6,1.3-1.2,2-1.5c0.6-0.9,1.1-2,1.4-3.1h-2.7c0.5-1.1,1-2.7,1.5-4.2
		h-1.7V108h5.2c-0.4,1.4-0.9,2.9-1.4,4.3h0.1l0.4-0.1l1.6,0.7c-0.2,1.2-0.5,2.3-0.8,3.4c1.5-0.6,3-1.5,4-2.6h-2.9v-5.5h4.2v-0.8
		h-4.6V105h4.6v-1.5h2.8v1.5h4.9v2.4h-4.9v0.8h4.4v5.5h-3.3c1.5,0.8,3.1,1.8,4,2.6l-1.7,1.9c-0.7-0.7-2-1.6-3.3-2.4v2.9h-2.8V115.6z
		 M488.2,107.7c-0.3-0.9-1-2.4-1.4-3.5l2.5-0.9c0.5,1.1,1.1,2.4,1.5,3.3L488.2,107.7z M494.8,111.5h1.6v-1.3h-1.6V111.5z
		 M499.2,110.2v1.3h1.6v-1.3H499.2z"/>
	<path d="M514.4,111.4c0-0.2,0-0.3-0.1-0.5c-3.2,0.4-3.7,0.5-4.1,0.6c-0.1-0.4-0.4-1.3-0.6-1.7c0.4-0.1,0.8-0.4,1.2-0.8
		c0.2-0.2,0.5-0.5,0.9-0.9c-1,0.1-1.4,0.2-1.6,0.3c-0.1-0.4-0.4-1.3-0.6-1.7c0.3-0.1,0.6-0.3,0.8-0.6c0.3-0.3,1.1-1.5,1.6-2.7
		l1.9,0.6c-0.5,0.9-1.1,1.9-1.7,2.6l0.9,0c0.3-0.4,0.5-0.7,0.8-1.1l1.6,0.7v-1.1h2.2c-0.1-0.4-0.3-0.8-0.4-1.1l2.1-0.7
		c0.3,0.5,0.6,1.3,0.7,1.8h1.6v1.5h-6.2v-0.2c-0.9,1.2-1.9,2.3-2.8,3.2l1.3-0.1c-0.1-0.3-0.2-0.5-0.3-0.7l1.5-0.4
		c0.4,0.8,0.7,1.9,0.8,2.6L514.4,111.4z M524.5,117.5c-0.6,0.8-1.4,1.4-2.3,1.9c1.8,0.3,3.8,0.5,5.9,0.5c-0.5,0.5-1.1,1.6-1.4,2.2
		c-2.9-0.2-5.5-0.6-7.8-1.3c-2.4,0.8-5.2,1.1-8,1.4c-0.2-0.6-0.9-1.7-1.3-2.3c2.1-0.1,4-0.2,5.8-0.5c-0.6-0.4-1.2-0.7-1.8-1.2
		c-0.8,0.5-1.7,1-2.5,1.4c-0.3-0.5-1.1-1.6-1.5-2.1c2.1-0.6,4-1.8,5-3.2l-0.4,0.1c-0.1-0.7-0.3-1.7-0.5-2.5l1.4-0.4
		c0.3,0.8,0.5,1.8,0.6,2.5l-0.9,0.3l2.3,0.7c-0.1,0.2-0.2,0.3-0.4,0.5h10.2v2H524.5z M511.5,112c0,1.2-0.2,2.5-0.5,3.4
		c-0.3-0.2-1-0.6-1.4-0.8c0.3-0.8,0.3-1.9,0.3-2.9L511.5,112z M512,114.9c0-0.8-0.1-2-0.3-2.9l1.5-0.3c0.2,0.9,0.3,2.1,0.4,2.9
		L512,114.9z M521.3,108.4h-5.4V107h5.4V108.4z M521.3,110.3h-5.4v-1.4h5.4V110.3z M516,114.5v-3.6h5.2v3.6H516z M516,117.5
		c0.8,0.5,1.7,0.8,2.7,1.2c0.9-0.3,1.6-0.7,2.2-1.2H516z M517.6,113.1h2v-0.8h-2V113.1z M526.3,111.4c0-0.2,0-0.4-0.1-0.5
		c-3.1,0.4-3.7,0.5-4.1,0.6c-0.1-0.4-0.4-1.2-0.6-1.7c0.4-0.1,0.7-0.3,1.2-0.8c0.2-0.1,0.5-0.4,0.8-0.8c-1,0.1-1.4,0.2-1.6,0.3
		c-0.1-0.4-0.4-1.3-0.6-1.7c0.3-0.1,0.5-0.3,0.8-0.6c0.3-0.3,1.1-1.5,1.6-2.6l1.9,0.6c-0.5,0.9-1.1,1.9-1.7,2.6l0.8,0
		c0.3-0.4,0.5-0.8,0.8-1.2l1.7,0.8c-0.5,0.7-1.1,1.4-1.6,2.1l1.4-0.4c0.4,0.9,0.7,2.1,0.8,2.8L526.3,111.4z M523.6,112
		c-0.1,1.1-0.3,2.3-0.6,3.1c-0.4-0.3-1.1-0.6-1.5-0.8c0.2-0.8,0.3-1.8,0.4-2.7L523.6,112z M524.1,114.8c0-0.8-0.1-1.9-0.3-2.8
		l1.5-0.3c0.2,0.9,0.4,2.1,0.4,2.8L524.1,114.8z M525.9,109.4c-0.1-0.3-0.2-0.6-0.3-0.9c-0.3,0.4-0.6,0.7-0.9,1L525.9,109.4z
		 M526.3,114.6c-0.1-0.8-0.3-1.9-0.6-2.8l1.4-0.4c0.3,0.9,0.6,2,0.7,2.8L526.3,114.6z"/>
	<path d="M551.2,107.8c0,0,0,0.9,0,1.2c-0.2,7.9-0.3,10.9-0.9,11.8c-0.5,0.7-1,1-1.7,1.1c-0.6,0.1-1.5,0.1-2.5,0.1
		c-0.1-0.8-0.4-1.9-0.8-2.7c0.8,0.1,1.5,0.1,1.8,0.1c0.3,0,0.5-0.1,0.7-0.4c0.4-0.5,0.5-2.8,0.6-8.7h-1.2c-0.3,5.3-1.2,9.2-4.4,11.8
		c-0.3-0.5-0.8-1.1-1.3-1.5c-3,0.3-6,0.6-8.3,0.8l-0.3-2.4c1.1-0.1,2.4-0.1,3.8-0.2v-0.8h-3.3v-2h3.3v-0.5h-3.2v-6.2h3.2v-0.5h-3.7
		v-2h3.7v-0.5c-1.1,0.1-2.1,0.1-3.1,0.1c-0.1-0.6-0.4-1.4-0.6-2c2.9-0.1,6.2-0.5,8.5-0.9l1.2,2.1c-1,0.2-2.2,0.4-3.4,0.5v0.7h3.5v2
		h-3.5v0.5h3.3v6.2h-3.3v0.5h3.4v2c1.2-2,1.6-4.5,1.8-7.6H543v-2.6h1.6c0-1.2,0-2.6,0-4h2.7c0,1.4,0,2.7,0,4H551.2z M535.8,111.7h1
		v-0.6h-1V111.7z M536.8,113.9v-0.6h-1v0.6H536.8z M539.4,111.1v0.6h1v-0.6H539.4z M540.3,113.3h-1v0.6h1V113.3z M539.4,118.7
		c1-0.1,2.1-0.2,3.1-0.2c0.1-0.1,0.2-0.3,0.3-0.4h-3.4V118.7z"/>
	<path d="M574.7,106.5c0,0,0,0.9,0,1.2c-0.2,8.7-0.4,11.9-1.3,13c-0.6,0.9-1.2,1.1-2.1,1.3c-0.8,0.1-2,0.1-3.2,0.1
		c0-0.8-0.4-2-0.9-2.8c1.3,0.1,2.4,0.1,3,0.1c0.4,0,0.6-0.1,0.9-0.4c0.6-0.6,0.8-3.5,1-10h-3.7c-0.5,1.1-1.1,2.1-1.7,2.9
		c-0.4-0.3-1-0.8-1.6-1.2v9.3h-5.1v1.4h-2.6v-14.8h2.2c0.2-1,0.4-2.2,0.4-3.2l3.1,0.4c-0.3,1-0.7,1.9-1,2.8h2.9v2.6
		c1-1.6,1.8-3.7,2.3-5.7l2.7,0.6c-0.2,0.8-0.5,1.5-0.7,2.3H574.7z M562.4,109.1h-2.6v2.6h2.6V109.1z M562.4,117.6v-3.4h-2.6v3.4
		H562.4z M568.9,117c-0.5-1.2-1.7-3.1-2.6-4.6l2.2-1.3c0.9,1.3,2.2,3.2,2.7,4.3L568.9,117z"/>
	<path d="M587.1,118.3h-3.8v1.8h-2.6v-15.5h6.5V118.3z M583.2,107.2v3h1.2v-3H583.2z M584.4,115.8v-3.2h-1.2v3.2H584.4z
		 M594.4,107.9v1.5h3.7v2.4h-1.3v1.2h1.7v2.5h-1.7v3.7c0,1.3-0.2,2-1.1,2.4c-0.9,0.4-2,0.5-3.4,0.5c-0.1-0.8-0.5-1.9-0.9-2.7
		c0.8,0,1.9,0,2.2,0s0.4-0.1,0.4-0.3v-3.7h-6.6V113h6.6v-1.2h-6.1v-2.4h3.7v-1.5h-4.2v-2.5h4.2v-2h2.8v2h4.2v2.5H594.4z
		 M590.4,115.5c0.7,0.9,1.7,2.2,2.3,3.1l-2.5,1.4c-0.4-0.8-1.4-2.2-2.1-3.2L590.4,115.5z"/>
	<path d="M611,104.5c-0.5,1.1-1,2.3-1.7,3.4v14.1h-3v-9.8c-0.6,0.7-1.1,1.3-1.7,1.8c-0.3-0.7-1.1-2.2-1.6-2.9c2-1.8,4-4.6,5.2-7.5
		L611,104.5z M616.5,111.9c0.5,3.9,1.4,6.5,2.6,6.7c0.4,0,0.6-0.9,0.7-3c0.5,0.6,1.8,1.4,2.3,1.6c-0.5,4-1.8,4.9-2.9,4.8
		c-3.4-0.4-4.9-3.8-5.6-9.7l-3.4,0.5l-0.4-2.7l3.5-0.5c-0.1-1.7-0.2-3.7-0.3-5.7h2.9c0,1.9,0.1,3.7,0.2,5.3l5.4-0.7l0.4,2.7
		L616.5,111.9z M619.5,108.1c-0.4-0.9-1.5-2.3-2.4-3.3l2.2-1.3c0.9,0.9,2.1,2.2,2.6,3.2L619.5,108.1z"/>
	<path d="M631.5,112.3c-1.1,0-2.1-0.7-2.1-2c0-1.2,1-2,2.2-2c1.5,0,2.4,1.1,2.4,2.9c0,2.3-1.5,4.2-4.2,4.9l-0.7-1.9
		c1.5-0.4,2.4-1.2,2.6-2.1H631.5z"/>
	<path d="M469,127.9c-0.5,1.3-1.1,2.6-1.8,3.9v13.7h-2.7v-9.5c-0.3,0.4-0.6,0.8-1,1.1c-0.3-0.7-1-2.3-1.5-3c1.7-1.7,3.3-4.4,4.3-7.1
		L469,127.9z M476.1,133v9.5c0,1.3-0.2,2.1-1,2.5c-0.8,0.5-1.8,0.6-3.1,0.6c-0.1-0.8-0.5-2.1-1-2.9c0.8,0,1.6,0,1.9,0
		c0.3,0,0.4-0.1,0.4-0.3V133h-1.9c-0.6,1.1-1.2,2-1.8,2.8c-0.5-0.5-1.6-1.5-2.3-1.9c1.5-1.6,2.7-4.2,3.4-6.9l2.8,0.6
		c-0.3,0.9-0.5,1.8-0.9,2.7h6.1l0.4-0.1l2,0.4c-0.2,1.7-0.6,3.6-0.8,4.8l-2.4-0.4c0.1-0.5,0.2-1.3,0.3-2H476.1z M472.7,136.6
		c-0.5,2.4-1.5,5-2.6,6.5c-0.5-0.5-1.7-1.2-2.4-1.5c1-1.3,1.8-3.5,2.2-5.6L472.7,136.6z M478.9,135.8c1,2,1.7,4.6,2,6.3l-2.7,1
		c-0.2-1.7-0.9-4.4-1.8-6.4L478.9,135.8z"/>
	<path d="M499.7,135l-0.4,1.5h2.8v2.2h-7.5c-0.1,0.2-0.2,0.5-0.3,0.7h6.8v3.8c0,1.1-0.2,1.7-0.9,2.1c-0.7,0.4-1.5,0.4-2.6,0.4
		c-0.1-0.7-0.5-1.7-0.8-2.3c0.5,0,1.1,0,1.3,0c0.2,0,0.3-0.1,0.3-0.2v-1.5h-1.6v3.9h-2.6v-3.9h-1.6v3.9h-2.6v-3.9h-1.5v4h-2.7v-6.2
		h5.7c0-0.2,0.1-0.5,0.1-0.7h-7.2v-2.2h2.8l-0.5-1.5h-2.3v-4.5h7.4v-0.6h-6.5v-2h15.8v2h-6.5v0.6h7.5v4.5H499.7z M487.2,132.5v2.3
		c0.9-0.1,2-0.3,3.2-0.4c-0.8-0.3-2-0.6-2.9-0.8l0.6-1.1H487.2z M498.7,136.5c-1.1-0.3-2.7-0.7-4-0.9l0.5-1.5c0.2,0,0.3,0,0.5,0.1
		L495,133c0.5-0.1,1.2-0.3,1.9-0.5h-2.3v3.5h-2.8v-3.5h-2.4c0.7,0.2,1.5,0.3,1.9,0.5l-0.6,1.3l0.7-0.1l0.1,1.5
		c-1,0.3-1.9,0.5-2.8,0.7H498.7z M499.4,132.5h-0.8l0.7,1c-0.8,0.3-1.8,0.6-2.7,0.7c1,0.2,2,0.4,2.8,0.6V132.5z"/>
	<path d="M520.1,140.4c-0.4,0.7-0.9,1.2-1.4,1.7c1.9,0.5,3.7,1,5.1,1.4l-2.5,2c-1.3-0.5-3.1-1-5.2-1.6c-2.3,1-5.3,1.5-9.2,1.7
		c-0.2-0.8-0.6-1.8-1-2.4c2.1-0.1,3.9-0.2,5.4-0.5c-1.1-0.2-2.2-0.5-3.3-0.7c0.4-0.5,0.9-1.1,1.3-1.7h-3.4v-2.3h5
		c0.3-0.5,0.6-1,0.8-1.5H507v-5.8h4.2v-0.8h-5.1v-2.4h17.3v2.4h-5.2v0.8h4.7v5.8h-10.3l1.9,0.4c-0.2,0.4-0.4,0.7-0.5,1.1h4.2
		c0.1-0.3,0.3-0.7,0.4-1.1l2.8,0.7l-0.1,0.4h2.7v2.3H520.1z M509.7,134.4h1.5v-1.4h-1.5V134.4z M512.3,140.8c1,0.2,2.1,0.4,3.1,0.6
		c0.5-0.3,0.9-0.6,1.2-1h-4.1L512.3,140.8z M513.9,130.8h1.7v-0.8h-1.7V130.8z M515.6,134.4v-1.4h-1.7v1.4H515.6z M518.3,133.1v1.4
		h1.8v-1.4H518.3z"/>
	<path d="M537.8,139.6c-0.3,0.9-0.6,1.7-1.3,2.4c2.5,0.7,5.7,0.6,9.5,0.5c-0.5,0.6-1,1.9-1.2,2.8c-4.1,0-7.8-0.2-10.7-1.4
		c-1.3,0.7-3,1.3-5.1,1.7c-0.3-0.6-1.1-1.9-1.7-2.5c1.6-0.2,2.9-0.5,4-0.9c-0.6-0.5-1.2-1.2-1.7-1.9l1.9-0.8h-2v-8.4h5.7v-0.9h-7.3
		v-2.5h17.4v2.5h-7v0.9h5.8v8.4H537.8z M532.1,134.3h3v-0.9h-3V134.3z M532.1,137.3h3v-0.4v-0.5h-3V137.3z M532.2,139.6
		c0.5,0.5,1,0.9,1.5,1.3c0.4-0.4,0.7-0.8,0.9-1.3H532.2z M538.1,133.5v0.9h3v-0.9H538.1z M541.1,136.4h-3v0.5v0.3h3V136.4z"/>
	<path d="M566.7,128.7v2.4h-17.5v-2.4h7.3c-0.1-0.4-0.3-0.8-0.4-1.2l3-0.7c0.2,0.6,0.5,1.3,0.8,1.9H566.7z M566.3,143.1
		c0,1.2-0.3,1.7-1.2,2c-0.8,0.3-2,0.3-3.4,0.3c-0.1-0.5-0.3-1-0.5-1.5h-5.1v0.7h-2.6v-5.3h8.7v4.1c0.4,0,0.7,0,0.8,0
		c0.3,0,0.4-0.1,0.4-0.4v-4.2h-11v6.7h-2.8v-9h16.7V143.1z M564.6,136h-13v-4.4h13V136z M561.6,133.5h-7.1v0.7h7.1V133.5z
		 M559.7,141.3h-3.6v0.7h3.6V141.3z"/>
	<path d="M587.8,133c-0.4,2.9-1.1,5.2-2.1,7.2c0.9,1.3,2.1,2.4,3.4,3.2c-0.6,0.5-1.5,1.6-2,2.3c-1.2-0.8-2.2-1.8-3.1-3
		c-1.1,1.3-2.4,2.3-4,3.1c-0.4-0.5-1.4-1.6-2-2.1c2-0.8,3.4-1.9,4.5-3.4c-0.5-0.9-0.8-1.8-1.2-2.8c-0.2,0.3-0.4,0.6-0.7,0.9
		c-0.3-0.5-0.9-1.3-1.4-1.9l-1.2,0.7c-0.1-0.2-0.2-0.5-0.3-0.7c-0.2,0.9-0.5,1.7-0.8,2.4c1,1.1,1.9,2.3,2.4,3.2l-2.3,1.8
		c-0.4-0.7-0.9-1.5-1.5-2.3c-1,1.6-2.2,2.9-3.7,3.9c-0.4-0.5-1.3-1.6-1.9-2.1c1.6-0.9,2.9-2.3,3.8-3.9c-0.5-0.6-1.1-1.2-1.6-1.8
		c-0.2,0.3-0.3,0.5-0.5,0.7c-0.4-0.5-1.4-1.4-1.9-1.8c0.9-1.1,1.9-2.7,2.5-4.3h-1.9v-2.5h3.7c-0.2-0.6-0.5-1.3-0.8-1.9l2.5-0.8
		c0.4,0.7,0.9,1.6,1,2.2l-1.4,0.5h4.6v2.5h-2c0.6,0.8,1.2,1.7,1.7,2.5c1.1-2,1.7-4.8,2.1-7.7l2.6,0.4c-0.2,1-0.3,2-0.5,3h4.6v2.6
		H587.8z M577.3,135.3c-0.5-0.8-1-1.7-1.6-2.4l1.2-0.7h-3.8l1.7,0.5c-0.5,1.2-1.2,2.5-1.9,3.7l1.1-0.8c0.3,0.3,0.6,0.6,0.9,1
		c0.2-0.5,0.3-1.1,0.4-1.6L577.3,135.3z M583.3,133c-0.1,0.4-0.3,0.8-0.4,1.2c0.3,1.1,0.7,2.2,1.1,3.2c0.5-1.3,0.8-2.7,1-4.4H583.3z
		"/>
	<path d="M599.6,137.6l-2.5,2.2c-1.2-1.4-2.8-3.1-4.2-4.3l2.5-2.1C596.7,134.5,598.7,136.5,599.6,137.6z"/>
	<path d="M619.8,143.3h2v1.8h-18v-1.8h2.2c-0.3-0.4-0.8-1-1.1-1.3c1.2-0.4,2.3-1,2.7-1.8l2,0.4c-0.1,0.2-0.2,0.3-0.3,0.5
		c0.7,0.3,1.5,0.7,1.9,1l-0.8,1.2h1v-3h-6.5v-1.7h15.9v1.7H614v3h1.2c-0.3-0.4-0.8-1-1.1-1.3c1.1-0.4,2-0.9,2.3-1.8l2,0.3
		c-0.1,0.1-0.1,0.3-0.2,0.4c0.9,0.3,1.8,0.7,2.4,1L619.8,143.3z M621.8,129.9v3.5h-2.9v-1.9H618l0.7,0.9c-0.7,0.3-1.6,0.5-2.4,0.7
		c1.1,0.2,2.2,0.5,2.9,0.7l-0.3,1.1h2v3.2h-5v-3.2h2c-1.1-0.3-2.4-0.6-3.5-0.8l0.4-1.2l0.5,0.1l-0.5-0.7c0.6-0.1,1.5-0.4,2.3-0.7
		h-2.8v2.8h-2.8v-2.8h-2.9c0.9,0.2,1.8,0.4,2.4,0.6l-0.4,0.9l0.8-0.1l0.1,1.2c-1.1,0.3-2.2,0.5-3.2,0.7h1.6v3.2h-4.9v-3.2h2.1
		l-0.5-1.2c0.9-0.1,2-0.3,3.3-0.4c-0.8-0.3-1.8-0.5-2.6-0.7l0.5-1h-0.8v1.9H604v-3.5h7.4v-0.6h-6.3v-1.7h15.6v1.7h-6.5v0.6H621.8z
		 M607.7,136h-1v0.8h1V136z M609.8,143.3c-0.5-0.3-1.1-0.6-1.7-0.9c-0.4,0.4-0.9,0.7-1.4,0.9H609.8z M615.3,134.8v3.2h-5v-3.2H615.3
		z M613.3,136h-1.1v0.8h1.1V136z M619.3,143.3c-0.6-0.3-1.4-0.7-2.1-0.9c-0.4,0.4-0.8,0.7-1.3,0.9H619.3z M618.9,136h-1.1v0.8h1.1
		V136z"/>
	<path d="M628.9,136.9c-0.8-0.6-2.5-1.5-3.7-2.1l1.5-2.1c1.1,0.5,2.9,1.3,3.8,1.9L628.9,136.9z M625.4,143.5c1-1.4,2.5-3.8,3.7-6.1
		l2.1,1.9c-1,2.1-2.2,4.2-3.4,6.1L625.4,143.5z M629.7,131.5c-0.8-0.6-2.4-1.5-3.5-2.2l1.6-2.1c1,0.5,2.8,1.4,3.6,1.9L629.7,131.5z
		 M638.9,135.4v2.1h4v8h-2.7v-0.7h-5.3v0.8h-2.6v-8.1h3.9v-2.1h-5v-2.7h5v-1.8c-1.2,0.2-2.4,0.3-3.6,0.4c-0.1-0.7-0.5-1.8-0.8-2.4
		c3.3-0.3,6.8-1,9-1.9l2.2,2.2c-1.3,0.5-2.6,0.9-4.1,1.2v2.3h4.8v2.7H638.9z M640.1,140h-5.3v2.2h5.3V140z"/>
	<path d="M664.8,130c0,0,0,0.9,0,1.2c-0.2,8.7-0.4,11.9-1.3,13c-0.6,0.9-1.2,1.1-2.1,1.3c-0.8,0.1-2,0.1-3.2,0.1
		c0-0.8-0.4-2-0.9-2.8c1.3,0.1,2.4,0.1,3,0.1c0.4,0,0.6-0.1,0.9-0.4c0.6-0.6,0.8-3.5,1-10h-3.7c-0.5,1.1-1.1,2.1-1.7,2.9
		c-0.4-0.3-1-0.8-1.6-1.2v9.3H650v1.4h-2.6v-14.8h2.2c0.2-1,0.4-2.2,0.4-3.2l3.1,0.4c-0.3,1-0.7,1.9-1,2.8h2.9v2.6
		c1-1.6,1.8-3.7,2.3-5.7l2.7,0.6c-0.2,0.8-0.5,1.5-0.7,2.3H664.8z M652.6,132.7H650v2.6h2.6V132.7z M652.6,141.1v-3.4H650v3.4H652.6
		z M659,140.5c-0.5-1.2-1.7-3.1-2.6-4.6l2.2-1.3c0.9,1.3,2.2,3.2,2.7,4.3L659,140.5z"/>
	<path d="M686.6,141.5v2.9h-18.1v-2.9h7.3v-9.5h-6.2v-3h15.8v3H679v9.5H686.6z"/>
	<path d="M696.6,128c-0.5,1.3-1.1,2.7-1.8,4v13.7h-2.9v-9.2c-0.3,0.3-0.5,0.6-0.8,0.9c-0.3-0.7-1-2.4-1.5-3.1
		c1.7-1.7,3.3-4.4,4.3-7.1L696.6,128z M703.1,132.9v1.6h4.8v2.6h-4.8v1.8h5v2.6h-5v4.1h-2.9v-12.8h-0.4c-0.8,1.4-1.6,2.7-2.5,3.6
		c-0.5-0.5-1.5-1.5-2.2-2c1.7-1.7,3.2-4.5,4.1-7.3l2.7,0.7c-0.3,0.8-0.5,1.5-0.9,2.3h7.3v2.7H703.1z"/>
	<path d="M719.6,132.8c0,0.6-0.1,1.3-0.1,1.9h8.5c0,0,0,0.8-0.1,1.2c-0.3,5.3-0.7,7.5-1.6,8.4c-0.7,0.7-1.4,0.9-2.4,1.1
		c-0.8,0.1-2.1,0.1-3.4,0c0-0.8-0.5-2-1-2.8c1.3,0.1,2.7,0.1,3.3,0.1c0.4,0,0.7,0,1-0.3c0.5-0.4,0.8-2,1.1-5H719
		c-0.7,3.2-2.1,6.2-5.6,8.2c-0.4-0.8-1.3-1.8-2.1-2.4c4.5-2.5,4.9-6.6,5-10.6h-4.8V130h8.1c-0.3-0.7-0.7-1.6-1.1-2.3l2.8-1.1
		c0.5,0.9,1.1,2,1.4,2.8l-1.3,0.6h8v2.8H719.6z"/>
	<path d="M736.7,136.7c-0.8-0.7-2.4-1.6-3.7-2.1l1.5-2.1c1.2,0.4,2.9,1.2,3.8,1.9L736.7,136.7z M739.5,139.3c-1,2.1-2.2,4.2-3.4,6.1
		l-2.4-1.9c1-1.4,2.5-3.8,3.7-6.1L739.5,139.3z M737.8,131.5c-0.7-0.7-2.4-1.6-3.6-2.2l1.6-2.1c1.2,0.5,2.9,1.3,3.7,2L737.8,131.5z
		 M748.9,145.6c-0.1-0.5-0.3-1-0.6-1.6c-6.1,0.8-7.2,0.9-8,1.3c-0.2-0.6-0.6-2-1-2.8c0.5-0.2,0.8-0.5,1.3-1.3c0.3-0.5,1.1-2,1.7-3.8
		H739v-2.7h4.4v-2.3h-3.7v-2.7h3.7V127h2.9v2.7h3.8v2.7h-3.8v2.3h4.5v2.7h-5.2c-0.7,1.6-1.5,3.2-2.4,4.6l3.8-0.4
		c-0.4-0.6-0.7-1.2-1.1-1.7l2.3-1.1c1.3,1.7,2.7,4,3.2,5.6L748.9,145.6z"/>
	<path d="M772.1,134c-0.7,3-1.9,5.3-3.6,7.2c1.3,0.8,2.8,1.4,4.5,1.8c-0.7,0.6-1.5,1.9-2,2.7c-1.9-0.6-3.5-1.4-4.9-2.5
		c-1.6,1.2-3.5,2-5.6,2.7c-0.4-0.8-1.1-2-1.7-2.7c1.9-0.5,3.6-1.2,5.1-2.2c-1.1-1.4-2.1-3.2-2.8-5.1h-0.1c-0.5,3.2-1.7,6.8-4.8,9.4
		c-0.4-0.8-1.5-2-2.1-2.5c3.7-3,4.2-8,4.2-11v-1.3h-2.9v-2.8h12.7c-0.3,1.8-0.7,3.9-1,5.5h2.3l0.5-0.1L772.1,134z M761.4,130.5v1.4
		c0,0.4,0,0.9,0,1.4h2.5c0.2-0.8,0.5-1.8,0.6-2.7H761.4z M764,135.9c0.5,1.2,1.3,2.3,2.2,3.3c0.9-0.9,1.5-2,2.1-3.3H764z"/>
	<path d="M793.7,127.5v18.1H791v-0.9h-11.7v0.9h-2.6v-18.1H793.7z M791,142.6v-13h-11.7v13H791z M789.7,138.6h1.1v1.5h-2.4v0.9
		c0,0.9-0.2,1.2-0.8,1.3c-0.6,0.2-1.4,0.2-2.4,0.2c-0.1-0.5-0.3-1-0.5-1.4c0.4,0,1,0,1.2,0c0.2,0,0.3-0.1,0.3-0.2V140h-2.8
		c0.4,0.5,0.8,1,1,1.4l-1.9,0.9c-0.2-0.5-0.7-1.2-1.1-1.7l1.2-0.6h-2.9v-1.5h6.4v-0.4c-2.2,0.1-4.3,0.1-6,0.2l-0.1-1.5
		c1.1,0,2.5,0,4.1,0v-0.5h-3.7v-4h3.7V132h-4.1v-1.5h4.1v-0.6h2.3v0.6h4.2v1.5h-4.2v0.5h3.8v4h-0.7c0.5,0.4,1,0.9,1.4,1.3
		L789.7,138.6z M782.4,133.9h1.6v-0.4h-1.6V133.9z M784,135.4v-0.5h-1.6v0.5H784z M786.3,133.5v0.4h1.5v-0.4H786.3z M786.3,134.9
		v0.5h1.5v-0.5H786.3z M786.3,136.5v0.5l1.1,0l0,0l0.6-0.4H786.3z M788.4,138.6h0.7c-0.1-0.2-0.3-0.3-0.4-0.5l-0.3,0V138.6z"/>
	<path d="M804.8,128.8c-0.5,1.7-1.1,3.9-1.6,5.4c1.1,1.4,1.3,2.7,1.3,3.8c0,1.4-0.3,2.2-0.9,2.7c-0.3,0.2-0.7,0.4-1.2,0.5
		c-0.3,0-0.8,0.1-1.3,0.1c0-0.5-0.1-1.2-0.3-1.8v6.2h-2.5v-17.8h4.2l0.4-0.1L804.8,128.8z M800.8,138.8c0.2,0,0.3,0,0.4,0
		c0.2,0,0.4,0,0.5-0.2c0.2-0.2,0.3-0.5,0.3-1c0-0.8-0.2-2-1.1-3.2c0.3-1.2,0.6-2.8,0.9-4.2h-1V138.8z M816.1,134.7
		c-0.7,0.4-1.4,0.8-2.1,1.2c0.6,1.8,1.7,3.9,2.7,5.1c-0.6,0.4-1.4,1.3-1.8,1.8c-0.9-1.3-1.9-3.1-2.6-5c0.6,2.7,0.2,5.4-0.8,6.4
		c-0.7,0.9-1.4,1.2-2.5,1.2c-0.5,0-1,0-1.6,0c0-0.7-0.2-1.8-0.7-2.5c0.7,0.1,1.3,0.1,1.8,0.1c0.5,0,0.7-0.1,1-0.6
		c0.2-0.3,0.4-0.9,0.5-1.7c-1.4,1-3.1,1.9-4.5,2.4c-0.4-0.6-1.1-1.5-1.7-2c2.1-0.5,4.7-1.8,6-3.1c-0.1-0.3-0.1-0.5-0.2-0.8
		c-1.1,0.8-2.4,1.6-3.5,2.2c-0.3-0.6-1-1.5-1.5-2c1.4-0.4,3.2-1.3,4.2-2.2c-0.2-0.3-0.3-0.5-0.5-0.8c-0.9,0.6-1.9,1.2-2.9,1.6
		c-0.3-0.5-1.1-1.5-1.6-2c1.2-0.4,2.5-1,3.6-1.7h-2.8V130h2.7c-0.5-0.6-1.1-1.2-1.6-1.7l2.1-1.3c0.9,0.7,1.8,1.6,2.3,2.3L809,130
		h1.5c0.6-0.8,1.3-2,1.6-2.9l2.7,0.8c-0.5,0.8-1,1.5-1.5,2.2h2.5v2.4h-5.1c-0.2,0.3-0.5,0.5-0.8,0.7c0.5,0.5,0.8,1.1,1.2,1.7
		c1.1-0.6,2.3-1.4,3.1-2.1L816.1,134.7z"/>
</g>
<g class="st4">
	<path d="M470.8,218.4c-0.1,1.1-0.3,1.7-0.5,2.1c-0.3,0.5-0.7,0.6-1.2,0.7c-0.5,0.1-1.3,0.1-2,0c0-0.4-0.2-1.1-0.4-1.5
		c0.7,0.1,1.4,0.1,1.7,0.1c0.3,0,0.4,0,0.6-0.3c0.1-0.2,0.2-0.5,0.3-1.1h-5.7c0.2-1.1,0.3-2.5,0.5-4h-1.2v-1.5h1.3
		c0.1-1,0.2-2,0.2-2.9c-0.1,0.2-0.3,0.4-0.4,0.6c-0.3-0.3-1-0.8-1.4-1c1.1-1.3,2-3.5,2.5-5.7l1.7,0.3c-0.1,0.6-0.3,1.1-0.5,1.7h6.1
		v1.5h-6.7c-0.2,0.6-0.5,1-0.7,1.5h6.4c0,0,0,0.6,0,0.8c0,1.2-0.1,2.2-0.1,3.1h1.4v1.5h-1.4c0,1-0.1,1.9-0.2,2.6h1.5v1.4H470.8z
		 M469.3,216.9c0.1-0.7,0.1-1.6,0.2-2.6h-4c-0.1,0.9-0.2,1.8-0.2,2.6h2.3c-0.3-0.6-0.9-1.4-1.4-2l1.1-0.6c0.6,0.6,1.3,1.5,1.5,2.1
		l-0.8,0.5H469.3z M465.9,210.4c-0.1,0.8-0.1,1.6-0.2,2.4h2c-0.2-0.6-0.7-1.4-1.3-1.9l1-0.5H465.9z M469.6,212.9
		c0-0.7,0-1.5,0.1-2.4h-2.2c0.6,0.6,1.1,1.4,1.4,2l-0.8,0.4H469.6z M479.1,209.1c-0.4,3-1.1,5.5-2.2,7.5c0.9,1.4,2,2.6,3.3,3.4
		c-0.4,0.3-0.9,0.9-1.2,1.4c-1.3-0.8-2.3-1.9-3.2-3.2c-0.9,1.3-2,2.3-3.4,3.1c-0.2-0.3-0.8-1-1.2-1.3c1.6-0.9,2.8-2,3.7-3.4
		c-0.7-1.5-1.2-3.1-1.7-5c-0.2,0.5-0.5,1-0.8,1.4c-0.3-0.3-0.9-0.9-1.3-1.2c1.3-1.9,2.2-4.8,2.7-7.9l1.6,0.3
		c-0.2,1.1-0.5,2.2-0.7,3.3h5.1v1.6H479.1z M474.4,209.1c0.3,2.1,0.8,4,1.6,5.7c0.7-1.6,1.1-3.5,1.4-5.7H474.4z"/>
	<path d="M486.6,214.1v5.3c0,0.9-0.2,1.3-0.7,1.6c-0.5,0.3-1.3,0.3-2.5,0.3c-0.1-0.4-0.3-1.2-0.5-1.6c0.7,0,1.5,0,1.7,0
		c0.2,0,0.3-0.1,0.3-0.3v-4.7l-2,0.6l-0.5-1.7c0.7-0.2,1.5-0.4,2.5-0.7v-3.6h-2.2v-1.6h2.2v-3.7h1.6v3.7h1.9v1.6h-1.9v3.2
		c0.6-0.2,1.2-0.4,1.8-0.6l0.3,1.6L486.6,214.1z M494.9,214.6v1.4h4.2v1.4h-4.2v2.2c0.5,0.1,1.1,0.1,1.7,0.1c0.5,0,2.9,0,3.6,0
		c-0.2,0.4-0.4,1.1-0.5,1.5h-3.2c-2.8,0-4.8-0.5-6.2-2.5c-0.5,1.1-1.1,2.1-1.9,2.8c-0.3-0.3-0.9-0.8-1.3-1c1.4-1.3,2.2-3.2,2.5-5.6
		l1.6,0.2c-0.1,0.6-0.2,1.3-0.4,1.8c0.6,1.2,1.3,1.9,2.3,2.3v-4.6h-3.7v-1.4h3.7v-1.3h-4.8v-1.4h4.8v-1.2h-3.7v-1.4h3.7v-1.1h-4.5
		v-1.4h4.5v-1.6h1.7v1.6h4.8v1.4h-4.8v1.1h4v2.5h1.3v1.4H499v2.7H494.9z M494.9,210.5h2.4v-1.2h-2.4V210.5z M494.9,213.2h2.4v-1.3
		h-2.4V213.2z"/>
	<path d="M506,212.6c0-3.9,1.6-6.9,3.8-9.1l1.4,0.7c-2.1,2.2-3.5,4.9-3.5,8.4c0,3.5,1.4,6.2,3.5,8.4l-1.4,0.7
		C507.6,219.5,506,216.5,506,212.6z"/>
	<path d="M520.6,215.8h-4.9l-1.2,4h-2.2l4.6-14h2.5l4.6,14h-2.3L520.6,215.8z M520.1,214.1l-0.6-1.9c-0.5-1.5-0.9-3.1-1.3-4.7h-0.1
		c-0.4,1.6-0.8,3.1-1.3,4.7l-0.6,1.9H520.1z"/>
	<path d="M526,221.8c0-0.9,0.6-1.7,1.5-2.3v-0.1c-0.5-0.3-0.9-0.9-0.9-1.7c0-0.8,0.6-1.5,1.2-1.9v-0.1c-0.7-0.6-1.4-1.5-1.4-2.8
		c0-2.4,1.9-3.8,4-3.8c0.6,0,1.1,0.1,1.5,0.3h3.7v1.6h-2c0.4,0.4,0.7,1.1,0.7,1.9c0,2.3-1.7,3.6-3.9,3.6c-0.5,0-1-0.1-1.5-0.3
		c-0.3,0.3-0.6,0.6-0.6,1.1c0,0.6,0.4,1,1.7,1h1.9c2.5,0,3.8,0.8,3.8,2.5c0,2-2.1,3.6-5.5,3.6C527.8,224.5,526,223.6,526,221.8z
		 M533.7,221.2c0-0.9-0.7-1.1-2-1.1h-1.6c-0.5,0-1-0.1-1.4-0.2c-0.6,0.5-0.9,1-0.9,1.5c0,1,1.1,1.6,2.8,1.6
		C532.5,223.1,533.7,222.2,533.7,221.2z M532.4,212.9c0-1.4-0.9-2.2-2-2.2s-2,0.8-2,2.2c0,1.4,0.9,2.2,2,2.2
		S532.4,214.3,532.4,212.9z"/>
	<path d="M538.4,206.1c0-0.8,0.6-1.3,1.4-1.3c0.8,0,1.4,0.5,1.4,1.3c0,0.8-0.6,1.3-1.4,1.3C539,207.4,538.4,206.9,538.4,206.1z
		 M538.7,209.4h2.2v10.4h-2.2V209.4z"/>
	<path d="M545.1,217.4v-12.7h2.2v12.8c0,0.6,0.3,0.8,0.5,0.8c0.1,0,0.2,0,0.4,0l0.3,1.7c-0.3,0.1-0.6,0.2-1.2,0.2
		C545.7,220.1,545.1,219.1,545.1,217.4z"/>
	<path d="M550.9,214.6c0-3.4,2.3-5.5,4.8-5.5c2.8,0,4.3,2,4.3,5c0,0.4,0,0.9-0.1,1.1h-6.8c0.2,2,1.4,3.2,3.2,3.2
		c0.9,0,1.7-0.3,2.5-0.8l0.8,1.4c-1,0.6-2.2,1.1-3.5,1.1C553.2,220.1,550.9,218.1,550.9,214.6z M558.1,213.7c0-1.8-0.8-2.8-2.3-2.8
		c-1.3,0-2.5,1-2.7,2.8H558.1z"/>
	<path d="M567.1,212.6c0,3.9-1.6,6.9-3.8,9.1l-1.4-0.7c2.1-2.2,3.5-4.9,3.5-8.4c0-3.5-1.4-6.2-3.5-8.4l1.4-0.7
		C565.5,205.7,567.1,208.7,567.1,212.6z"/>
	<path d="M574.8,213.4c1.5-0.6,2.3-1.4,2.4-2.6c-0.1,0-0.2,0-0.3,0c-0.9,0-1.6-0.5-1.6-1.5c0-1,0.7-1.5,1.6-1.5
		c1.2,0,1.8,0.9,1.8,2.4c0,2.1-1.3,3.7-3.5,4.4L574.8,213.4z"/>
	<path d="M593.2,219.3c0.6,0.1,1.3,0.1,1.9,0.1c0.8,0,4.6,0,5.8,0c-0.2,0.4-0.5,1.2-0.6,1.7H595c-3.6,0-6-0.5-7.6-2.9
		c-0.7,1.4-1.7,2.5-2.8,3.3c-0.3-0.3-0.9-1-1.3-1.3c1.9-1.2,3.1-3.3,3.6-6l1.8,0.2c-0.1,0.6-0.3,1.2-0.5,1.8
		c0.7,1.5,1.7,2.4,3.2,2.8v-5.3h-7.6v-1.6h16.6v1.6h-7.3v1.8h6v1.5h-6V219.3z M598.5,211h-12.8v-6.4h12.8V211z M596.7,205.9h-9.3
		v1.3h9.3V205.9z M596.7,208.4h-9.3v1.3h9.3V208.4z"/>
	<path d="M620.7,211.5v1.9h-17.3v-1.9H620.7z"/>
	<path d="M640.8,219.5v1.4h-11.3v-1.4h5v-1.2h-3.9v-1.4h3.9v-1.1h-3.8v-6.2h3.8v-1.1H630v-1.4h4.5v-1c-1.3,0.1-2.6,0.2-3.8,0.2
		c0-0.2-0.1-0.6-0.2-0.9c-0.7,0.3-1.5,0.5-2.4,0.7v3h2.3v1.7h-2.3v0.9c0.5,0.4,2.2,2.1,2.5,2.6l-1,1.4c-0.3-0.5-0.9-1.4-1.5-2.2v7.8
		h-1.7v-7.6c-0.7,1.7-1.5,3.3-2.4,4.3c-0.2-0.5-0.6-1.2-0.9-1.6c1.1-1.3,2.3-3.6,3.1-5.6h-2.7v-1.7h2.9v-2.6
		c-0.9,0.2-1.8,0.3-2.6,0.4c-0.1-0.4-0.3-1-0.5-1.4c2.1-0.3,4.5-0.9,6-1.5l1.2,1.3c-0.1-0.1-0.1-0.3-0.2-0.4
		c3.1-0.1,6.9-0.4,9.1-0.9l1.1,1.3c-1.2,0.3-2.7,0.5-4.3,0.6v1.2h4.2v1.4h-4.2v1.1h3.9v6.2h-3.9v1.1h3.9v1.4h-3.9v1.2H640.8z
		 M632.3,212.1h2.2v-1.3h-2.2V212.1z M634.5,214.6v-1.3h-2.2v1.3H634.5z M636.2,210.9v1.3h2.3v-1.3H636.2z M638.5,213.3h-2.3v1.3
		h2.3V213.3z"/>
	<path d="M643,212.4c0.5-1.3,0.8-3.4,1-4.9l1.3,0.2c-0.1,1.6-0.4,3.8-0.9,5.1L643,212.4z M648.6,211.1c-0.2-0.8-0.7-2.1-1.2-3.2
		v13.4h-1.7v-17.4h1.7v3.5l1-0.4c0.6,1.1,1.2,2.6,1.4,3.5L648.6,211.1z M660.7,212.4v1.7h-5.9c-0.5,2.7-1.9,5.4-5.4,7.3
		c-0.2-0.4-0.8-1-1.3-1.4c3.1-1.6,4.4-3.7,4.8-5.9h-4.1v-1.7h4.4c0.1-0.7,0.1-1.4,0.1-2.1v-1.8h-3.5v-1.6h3.5v-2.9h1.8v2.9h4.1v5.6
		H660.7z M655.1,210.3c0,0.7,0,1.4-0.1,2.1h2.5v-4h-2.4V210.3z M656.6,214.4c1.3,1.9,3.1,4.4,4,5.9l-1.6,0.9
		c-0.8-1.5-2.5-4.2-3.8-6.1L656.6,214.4z"/>
	<path d="M668.4,213c-0.3,1.7-0.9,3.4-1.7,4.8c0.3,0.2,0.7,0.5,1.3,0.8c1.3,0.8,3.1,0.9,5.3,0.9c2.3,0,5.5-0.2,7.7-0.4
		c-0.2,0.5-0.5,1.4-0.6,1.9c-1.4,0.1-5,0.2-7.2,0.2c-2.5,0-4.1-0.2-5.5-1c-0.8-0.4-1.5-1-1.9-1c-0.4,0-1.1,1.2-1.7,2.3l-1.2-1.7
		c0.5-0.7,1.1-1.3,1.7-1.7l0,0c0.8-1,1.4-2.4,1.8-3.8h-2.7c0.5-1.1,1.2-2.7,1.7-4.1h-2.2v-1.6h4.5c-0.5,1.3-1.1,2.9-1.7,4.2h1
		l0.3-0.1L668.4,213z M665.7,207.6c-0.3-0.8-1-2.2-1.5-3.2l1.5-0.5c0.5,1,1.1,2.2,1.5,3L665.7,207.6z M673.4,207.2h-4.9v-1.5h4.9
		v-1.8h1.7v1.8h5.2v1.5h-5.2v1.3h4.4v4.8h-3.9c1.6,1,3.4,2.4,4.4,3.3l-1.1,1.2c-0.8-0.9-2.4-2.1-3.9-3.2v3.9h-1.7v-4
		c-1.1,1.5-2.6,2.8-4.1,3.5c-0.3-0.4-0.8-1-1.1-1.3c1.6-0.7,3.4-2,4.5-3.5h-3.5v-4.8h4.2V207.2z M670.8,212h2.6v-2.1h-2.6V212z
		 M675.1,209.9v2.1h2.7v-2.1H675.1z"/>
	<path d="M698.6,210.2c-0.8,3-2.1,5.3-4,7.1c1.6,1.1,3.4,1.9,5.7,2.4c-0.4,0.4-0.9,1.2-1.2,1.7c-2.4-0.6-4.3-1.5-5.9-2.8
		c-1.6,1.2-3.5,2.1-5.6,2.7c-0.2-0.5-0.7-1.2-1-1.6c1.9-0.5,3.7-1.3,5.2-2.4c-1.5-1.6-2.6-3.5-3.5-5.8h-1c-0.1,3.1-0.6,7.1-2.5,9.8
		c-0.3-0.3-1.1-0.9-1.5-1.1c2.1-2.9,2.3-7,2.3-10V205h14v1.7h-12.2v3.1h9.7l0.3-0.1L698.6,210.2z M690.2,211.5
		c0.7,1.8,1.7,3.4,3,4.6c1.3-1.3,2.4-2.8,3-4.6H690.2z"/>
	<path d="M711.1,211.1c-0.2,0.3-0.5,0.6-0.8,0.8c-0.2-0.2-0.6-0.6-1-0.8v4.7h-1.5v-4.7c-0.4,0.4-0.8,0.8-1.2,1.2
		c-0.2-0.2-0.4-0.5-0.7-0.8c0,3-0.4,7-1.7,9.8c-0.3-0.3-1-0.9-1.3-1c1.4-2.7,1.5-6.6,1.5-9.4v-5.6h7.4c-0.2-0.5-0.5-0.9-0.7-1.3
		l1.5-0.5c0.4,0.5,0.8,1.2,1.1,1.7h6.7v1.5h-4.4c0.4,0.5,0.8,1.1,1,1.5l-0.5,0.2h3.3v1.1h-3.1v0.9h2.6v1h-2.6v0.9h2.6v1h-2.6v0.9
		h3.4v1.1h-7.5v0.4l0.2-0.2c1.1,0.5,2.4,1.3,3.1,1.8l-1.1,1.1c-0.6-0.6-1.9-1.4-3-2l0.6-0.5h-1.3V211.1z M705.7,220.1
		c1-0.8,1.7-2.1,2.1-3.3l1.4,0.5c-0.4,1.3-1,2.8-2.1,3.6L705.7,220.1z M710.5,207.2c-0.3,0.7-0.7,1.3-1.1,2v1.6c1.1-1,2.1-2.5,2.7-4
		H706v4.1c1.2-1.1,2.4-2.6,3.1-4.1L710.5,207.2z M715,219.8c0.6,0,0.7-0.2,0.8-1.5c0.3,0.2,1,0.5,1.4,0.6c-0.2,1.9-0.6,2.4-2,2.4
		h-2.8c-1.8,0-2.3-0.4-2.3-1.9v-2.4h1.6v2.4c0,0.4,0.1,0.5,0.9,0.5H715z M715.4,208.4c-0.2-0.4-0.6-0.9-0.9-1.3l1.1-0.4h-3.4
		l1.3,0.4c-0.2,0.4-0.4,0.9-0.6,1.3H715.4z M715.2,209.5h-2.7v0.9h2.7V209.5z M715.2,211.4h-2.7v0.9h2.7V211.4z M715.2,213.2h-2.7
		v0.9h2.7V213.2z M717.8,216.6c1,1.1,2.2,2.6,2.6,3.6l-1.4,0.7c-0.4-1-1.5-2.5-2.5-3.6L717.8,216.6z"/>
	<path d="M729.9,214.2l-1.6,1.4c-1.2-1.5-2.8-3.1-4.2-4.2l1.6-1.3C727.1,211.1,728.8,212.9,729.9,214.2z"/>
	<path d="M468.7,227.3c-0.6,1.3-1.2,2.7-1.9,4v12.8h-1.7v-10.3c-0.5,0.7-1.1,1.4-1.7,2c-0.2-0.4-0.7-1.4-1-1.8
		c1.8-1.7,3.6-4.5,4.6-7.3L468.7,227.3z M472.1,238.6c-0.8,1.6-2.1,3.4-3.1,4.6c-0.3-0.3-1-0.8-1.4-1c1-1.1,2.1-2.7,2.8-4.1
		L472.1,238.6z M474.9,237.4v6.8h-1.8v-6.8h-5.2v-1.6h5.2v-2h-3.9v-6.2h9.8v6.2h-4.1v2h5.2v1.6H474.9z M470.9,232.2h6.4v-3.1h-6.4
		V232.2z M477.2,238.1c1.2,1.3,2.4,3,3.1,4.1l-1.4,0.9c-0.6-1.2-1.9-3-3-4.3L477.2,238.1z"/>
	<path d="M488.6,236.4l-1.9,0.6v5c0,0.9-0.2,1.3-0.7,1.6c-0.5,0.3-1.3,0.3-2.5,0.3c-0.1-0.4-0.3-1.2-0.5-1.6c0.8,0,1.5,0,1.7,0
		c0.2,0,0.3-0.1,0.3-0.3v-4.5l-2.2,0.7l-0.4-1.7c0.7-0.2,1.6-0.4,2.6-0.7V232h-2.3v-1.7h2.3v-3.7h1.6v3.7h1.8v1.7h-1.8v3.3l1.7-0.5
		L488.6,236.4z M500.1,229v1.6h-4.8v1.9h3.9v1.6h-9.5v-1.6h3.9v-1.9h-4.9V229h4.9v-2.2h1.7v2.2H500.1z M497.8,236.1h2.2v1.6h-2.2
		v4.4c0,1-0.2,1.4-0.8,1.7c-0.6,0.3-1.6,0.3-2.9,0.3c-0.1-0.5-0.3-1.2-0.5-1.7c1,0,2,0,2.2,0c0.3,0,0.4-0.1,0.4-0.3v-4.4H489v-1.6
		h7.1v-1.5h1.7V236.1z M491.6,238.1c0.7,1,1.7,2.4,2.1,3.2l-1.5,0.9c-0.4-0.9-1.3-2.3-2-3.3L491.6,238.1z"/>
	<path d="M508.3,235.9c0,0,0,0.5,0,0.7c-0.2,4.3-0.4,6-0.9,6.6c-0.3,0.4-0.7,0.6-1.3,0.6c-0.5,0-1.3,0.1-2.2,0
		c0-0.5-0.2-1.2-0.5-1.7c0.9,0.1,1.7,0.1,2,0.1c0.3,0,0.5-0.1,0.6-0.2c0.3-0.3,0.5-1.6,0.7-4.6h-3.6c0.1-1.5,0.2-3.9,0.2-5.8h3.4
		v-2.5H503v-1.6h5.3v5.7h-3.6c0,0.9,0,1.8-0.1,2.7H508.3z M520.1,241.4h-5v2.7h-1.6v-2.7h-4.8V240h4.8v-1.1h-3.9v-6.4h9.5v6.4h-4
		v1.1h5V241.4z M513.8,231.5h-4.5v-4.2h4.5V231.5z M512.3,228.6h-1.7v1.7h1.7V228.6z M511.1,235h2.3v-1.3h-2.3V235z M513.5,237.5
		v-1.3h-2.3v1.3H513.5z M519.4,231.5h-4.6v-4.2h4.6V231.5z M517.5,233.8h-2.5v1.3h2.5V233.8z M517.5,236.3h-2.5v1.3h2.5V236.3z
		 M517.9,228.6h-1.8v1.7h1.8V228.6z"/>
	<path d="M522.4,235.2c0.5-1.3,0.8-3.4,1-4.9l1.3,0.2c-0.1,1.6-0.4,3.8-0.9,5.2L522.4,235.2z M539.9,241.8v1.7h-11.6v-1.7h5.3v-4.3
		h-3.9v-1.7h3.9v-3.6H531c-0.4,1.1-0.8,2-1.2,2.8c-0.4-0.2-1.1-0.6-1.6-0.8c0.2-0.4,0.5-0.8,0.7-1.3l-1.1,0.5c-0.2-0.8-0.7-2-1.1-3
		v13.6H525v-17.4h1.8v3.5l1.1-0.5c0.5,0.9,1,2.1,1.2,2.8c0.6-1.5,1-3.3,1.3-5.1l1.7,0.3c-0.1,1-0.3,1.9-0.6,2.8h2v-3.8h1.8v3.8h4.1
		v1.7h-4.1v3.6h3.7v1.7h-3.7v4.3H539.9z"/>
	<path d="M549,241.5c-0.5-0.8-1.4-2.1-2.3-3.2c-0.5,2-1.3,4-3,5.5c-0.3-0.4-0.8-0.9-1.3-1.2c2.1-1.8,2.8-4.5,3-6.9h-2.8v-1.6h2.9
		c0-0.4,0-0.8,0-1.2v-1.6H543v-1.6h2.6v-2.8h1.7v2.8h2.5v1.6h-2.5v1.6c0,0.4,0,0.8,0,1.2h2.9v1.6h-3c0,0.3,0,0.5-0.1,0.8
		c0.7,0.8,2.7,3.1,3.2,3.7L549,241.5z M558.2,242.2c0.3,0,0.4-0.2,0.4-1.4c0.3,0.3,1,0.5,1.4,0.6c-0.2,1.9-0.6,2.3-1.7,2.3h-1.5
		c-1.4,0-1.8-0.5-1.8-2.1V238h-1.1c-0.3,2.8-1.2,4.9-4.5,6.1c-0.2-0.4-0.6-1-1-1.3c2.8-0.9,3.5-2.6,3.8-4.8h-1.6v-10.6h8.2V238h-2.1
		v3.7c0,0.5,0.1,0.5,0.4,0.5H558.2z M552.4,230.5h4.8V229h-4.8V230.5z M552.4,233.5h4.8v-1.5h-4.8V233.5z M552.4,236.5h4.8v-1.6
		h-4.8V236.5z"/>
	<path d="M572.2,229.6h1v1.2h-1v1.9h-3.6v0.7h3.8v1h-3.8v0.7h4.6v1.2h-10.6v-1.2h4.4v-0.7h-3.5v-1h3.5v-0.7h-3.4v-1h3.4v-0.9h-4.5
		v-1.2h4.5v-0.8h-3.4v-1h3.4v-1.1h1.6v1.1h3.6V229.6z M562.5,242.3c2.6-0.1,6.8-0.2,10.7-0.4l0,1.3c-3.8,0.2-7.8,0.4-10.5,0.5
		L562.5,242.3z M572.3,237v4.2h-8.6V237H572.3z M565.1,238.7h2.1V238h-2.1V238.7z M565.1,240.4h2.1v-0.8h-2.1V240.4z M568.7,229.6
		h2.1v-0.8h-2.1V229.6z M570.7,230.8h-2.1v0.9h2.1V230.8z M570.8,238h-2.1v0.8h2.1V238z M570.8,239.5h-2.1v0.8h2.1V239.5z
		 M575.6,239.5H574V229h1.6V239.5z M579.2,227.1V242c0,1-0.2,1.5-0.8,1.7c-0.6,0.2-1.6,0.3-3,0.3c-0.1-0.5-0.3-1.2-0.6-1.7
		c1,0,2,0,2.4,0c0.3,0,0.4-0.1,0.4-0.4v-14.9H579.2z"/>
	<path d="M599.3,229.6c0,0,0,0.6,0,0.8c-0.3,8.6-0.5,11.5-1.3,12.5c-0.5,0.6-0.9,0.8-1.7,0.9c-0.7,0.1-1.8,0.1-2.9,0
		c0-0.5-0.2-1.2-0.6-1.7c1.2,0.1,2.3,0.1,2.8,0.1c0.4,0,0.6-0.1,0.8-0.3c0.6-0.6,0.9-3.5,1.1-10.7h-4.5c-0.5,1.2-1.1,2.3-1.7,3.2
		c-0.3-0.3-1-0.7-1.4-1v8.7h-5.1v1.4h-1.6v-13.9h2.1c0.3-0.9,0.6-2.2,0.7-3.1l1.9,0.3c-0.3,0.9-0.7,2-1,2.8h3v3.6
		c1.3-1.6,2.3-4.2,2.8-6.7l1.7,0.4c-0.2,0.9-0.5,1.7-0.8,2.6H599.3z M584.9,231.3v3.6h3.5v-3.6H584.9z M588.4,240.6v-4.2h-3.5v4.2
		H588.4z M594.8,239.1c-0.5-1.2-1.8-3-2.8-4.4l1.4-0.8c1,1.3,2.3,3.1,2.9,4.2L594.8,239.1z"/>
	<path d="M619.6,241v1.8h-17V241h7.4v-10.4h-6.4v-1.8h15v1.8H612V241H619.6z"/>
	<path d="M628.5,227.3c-0.5,1.3-1.2,2.7-1.9,4v12.8h-1.8v-10c-0.5,0.7-1,1.3-1.6,1.9c-0.2-0.4-0.7-1.4-1-1.8
		c1.8-1.8,3.5-4.6,4.5-7.3L628.5,227.3z M634.2,231.5v2.4h5.2v1.6h-5.2v2.5h5.4v1.7h-5.4v4.4h-1.8v-12.6h-1.1
		c-0.8,1.5-1.7,2.8-2.6,3.8c-0.3-0.3-1-0.9-1.4-1.2c1.7-1.7,3.2-4.5,4.1-7.2l1.7,0.5c-0.3,0.8-0.6,1.7-1,2.5h7.6v1.7H634.2z"/>
	<path d="M649.7,231.6c-0.1,0.9-0.1,1.8-0.2,2.7h8.1c0,0,0,0.6-0.1,0.8c-0.4,5.2-0.7,7.3-1.5,8.1c-0.5,0.5-1,0.7-1.8,0.7
		c-0.7,0.1-1.9,0-3.2,0c0-0.5-0.3-1.2-0.6-1.7c1.3,0.1,2.6,0.1,3.2,0.1c0.4,0,0.7,0,0.9-0.2c0.5-0.4,0.9-2.2,1.2-6.1h-6.4
		c-0.6,3.3-2,6.3-5.5,8.2c-0.3-0.5-0.8-1.1-1.3-1.4c4.7-2.4,5.1-7,5.3-11.2h-5v-1.7h8.1c-0.2-0.8-0.8-1.8-1.2-2.7l1.7-0.6
		c0.5,0.9,1.1,2,1.3,2.8l-1.3,0.6h7.8v1.7H649.7z"/>
	<path d="M674.1,231.8c0.4,6,1.7,10.5,3.4,10.5c0.5,0,0.7-1,0.8-3.5c0.4,0.4,1.1,0.8,1.6,1c-0.3,3.4-0.9,4.4-2.5,4.4
		c-3.1,0-4.6-5.5-5.1-12.4h-9.6v-1.7h9.5c0-1.1-0.1-2.2-0.1-3.3h1.9c0,1.1,0,2.2,0,3.3h5.5v1.7H674.1z M668.2,240.8
		c1.3-0.2,2.5-0.5,3.8-0.8l0.1,1.6c-3.2,0.7-6.6,1.5-9,2l-0.5-1.8c1-0.2,2.3-0.4,3.8-0.7V236h-3.2v-1.7h8.2v1.7h-3.3V240.8z
		 M676.1,226.8c0.9,0.6,2.1,1.5,2.6,2.2l-1.2,1.1c-0.5-0.7-1.6-1.7-2.6-2.3L676.1,226.8z"/>
	<path d="M686.2,232.5c1.7,0,3,1.3,3,3s-1.3,3-3,3c-1.6,0-3-1.3-3-3S684.6,232.5,686.2,232.5z M686.2,237.2c1,0,1.8-0.8,1.8-1.8
		s-0.8-1.8-1.8-1.8c-1,0-1.8,0.8-1.8,1.8S685.2,237.2,686.2,237.2z"/>
	<path d="M466.2,256.4c-0.3,2.3-0.8,5.5-1.6,7.6l-1.8-0.7c0.7-2,1.3-4.8,1.6-7.2L466.2,256.4z M469.4,254.8v9.1c0,0.9,0.2,1,1.2,1
		h3.2c1.1,0,1.3-0.6,1.4-3.8c0.4,0.3,1.2,0.6,1.7,0.8c-0.2,3.6-0.7,4.7-2.9,4.7h-3.5c-2.2,0-2.8-0.6-2.8-2.7v-9.1H469.4z M469.6,250
		c1.7,1.2,4.1,2.9,5.2,4.1l-1.3,1.3c-1-1.2-3.3-3-5.1-4.2L469.6,250z M477.8,255.5c1.1,2.3,2.1,5.1,2.5,7.1l-1.8,0.7
		c-0.3-1.9-1.3-4.9-2.4-7.2L477.8,255.5z"/>
	<path d="M486.2,258.1c-0.7-0.6-2.3-1.5-3.5-2.1l0.9-1.3c1.2,0.5,2.8,1.3,3.5,1.9L486.2,258.1z M483.4,265.5c1-1.4,2.5-3.9,3.6-6
		l1.3,1.2c-1,2-2.2,4.3-3.4,6L483.4,265.5z M484.8,249.7c1.2,0.5,2.8,1.3,3.6,1.9l-1,1.5c-0.7-0.7-2.3-1.6-3.5-2.1L484.8,249.7z
		 M498.3,266.9c-0.2-0.5-0.4-1.1-0.8-1.8c-6.7,0.8-7.6,1-8.1,1.2c-0.1-0.4-0.4-1.3-0.6-1.8c0.4-0.1,0.8-0.5,1.2-1.2
		c0.4-0.5,1.5-2.4,2.3-4.4h-3.9v-1.7h4.7v-3.1h-3.9v-1.7h3.9v-3.1h1.8v3.1h4v1.7h-4v3.1h4.8v1.7h-5.2c-0.9,1.9-2,3.7-3,5.3l5.3-0.6
		c-0.5-0.8-1-1.5-1.5-2.2l1.4-0.7c1.3,1.7,2.7,3.9,3.2,5.4L498.3,266.9z"/>
	<path d="M512.4,264.9c0.6,0.1,1.3,0.1,1.9,0.1c0.8,0,4.6,0,5.8,0c-0.2,0.4-0.5,1.2-0.6,1.7h-5.2c-3.6,0-6-0.5-7.6-2.9
		c-0.7,1.4-1.7,2.5-2.8,3.3c-0.3-0.3-0.9-1-1.3-1.3c1.9-1.2,3.1-3.3,3.6-6l1.8,0.2c-0.1,0.6-0.3,1.2-0.5,1.8
		c0.7,1.5,1.7,2.4,3.2,2.8v-5.3h-7.6v-1.6h16.6v1.6h-7.3v1.8h6v1.5h-6V264.9z M517.7,256.6h-12.8v-6.4h12.8V256.6z M515.9,251.5
		h-9.3v1.3h9.3V251.5z M515.9,254h-9.3v1.3h9.3V254z"/>
	<path d="M527.5,254.5c-0.7,2.8-1.8,6.3-3.5,8.5c-0.4-0.3-1.2-0.8-1.6-1c1.6-2,2.7-5.3,3.1-7.8L527.5,254.5z M532.3,249.8v14.8
		c0,1.2-0.3,1.7-1,2c-0.8,0.3-2,0.3-3.8,0.3c-0.1-0.5-0.4-1.4-0.7-1.9c1.3,0.1,2.7,0.1,3.1,0c0.4,0,0.5-0.1,0.5-0.5v-14.8H532.3z
		 M536.6,253.9c1.6,2.6,3.2,6,3.6,8.3l-1.9,0.8c-0.4-2.2-1.9-5.7-3.4-8.5L536.6,253.9z"/>
	<path d="M552.3,256.8v5.5c1.9-1.2,3.3-2.7,4.3-4.7l1.7,0.8c-2.6,5-7.5,7.4-14.6,8.5c-0.2-0.5-0.5-1.2-0.9-1.7
		c3.6-0.5,6.7-1.3,9.1-2.7h-1.4v-5.8h-7.5v-1.7h2.7v-4.2h1.8v4.2h3.2v-5.6h1.9v1.8h5.5v1.7h-5.5v2.1h7v1.7H552.3z M548.9,258.1
		c-1,1.7-2.7,3.5-4.2,4.6c-0.3-0.3-0.9-1-1.3-1.3c1.4-0.9,2.9-2.4,3.8-3.9L548.9,258.1z"/>
	<path d="M562.3,258c0.5-1.3,0.8-3.4,1-4.9l1.3,0.2c-0.1,1.6-0.4,3.8-0.9,5.1L562.3,258z M567.8,256.7c-0.2-0.8-0.7-2.1-1.2-3.2
		v13.4h-1.7v-17.4h1.7v3.5l1-0.4c0.6,1.1,1.2,2.6,1.4,3.5L567.8,256.7z M579.9,258v1.7H574c-0.5,2.7-1.9,5.4-5.4,7.3
		c-0.2-0.4-0.8-1-1.3-1.4c3.1-1.6,4.4-3.7,4.8-5.9h-4.1V258h4.4c0.1-0.7,0.1-1.4,0.1-2.1v-1.8h-3.5v-1.6h3.5v-2.9h1.8v2.9h4.1v5.6
		H579.9z M574.4,255.9c0,0.7,0,1.4-0.1,2.1h2.5v-4h-2.4V255.9z M575.9,260c1.3,1.9,3.1,4.4,4,5.9l-1.6,0.9c-0.8-1.5-2.5-4.2-3.8-6.1
		L575.9,260z"/>
	<path d="M597.3,265.2c1,0,1.1-0.4,1.2-2.2c0.4,0.2,1,0.5,1.5,0.6c-0.2,2.4-0.7,3.1-2.6,3.1h-4.1c-2.2,0-2.8-0.5-2.8-2.5v-8.5
		c-0.1,0.1-0.2,0.2-0.2,0.3c-0.2-0.3-0.6-0.7-0.9-1v1.3h-2v2.4h1.9v1.5h-1.9v3.1l2.2-0.6l0.2,1.5c-2.4,0.7-5,1.4-6.9,2l-0.4-1.7
		c0.3-0.1,0.6-0.1,0.9-0.2v-6.5h1.4v6.1l1-0.3v-7.4h-2.4v-5.9h6v4.2c1.1-1.3,2-3.1,2.5-4.9l1.6,0.4c-0.2,0.6-0.4,1.1-0.6,1.7h6.1
		v0.8c0,6.4-0.1,8.6-0.5,9.2c-0.3,0.5-0.7,0.6-1.3,0.7c-0.5,0.1-1.3,0.1-2.1,0c0-0.4-0.2-1.1-0.4-1.5H592v3.4c0,0.8,0.2,1,1.4,1
		H597.3z M587.6,251.8h-2.8v2.9h2.8V251.8z M592,253.1c-0.3,0.7-0.7,1.3-1.1,1.8h4.8v5.9h-0.2c0.3,0,0.6,0,0.8,0
		c0.2,0,0.4-0.1,0.6-0.3c0.3-0.4,0.3-2.2,0.3-7.4H592z M594.3,256.4H592v3h2.3V256.4z"/>
	<path d="M604.3,259c1.5-0.6,2.3-1.4,2.4-2.6c-0.1,0-0.2,0-0.3,0c-0.9,0-1.6-0.5-1.6-1.5c0-1,0.7-1.5,1.6-1.5c1.2,0,1.8,0.9,1.8,2.4
		c0,2.1-1.3,3.7-3.5,4.4L604.3,259z"/>
	<path d="M618.1,258.6c-0.3,1.7-0.9,3.4-1.7,4.8c0.3,0.2,0.7,0.5,1.3,0.8c1.3,0.8,3.1,0.9,5.3,0.9c2.3,0,5.5-0.2,7.7-0.4
		c-0.2,0.5-0.5,1.4-0.5,1.9c-1.5,0.1-5,0.2-7.2,0.2c-2.5,0-4.1-0.2-5.5-1c-0.8-0.4-1.4-1-1.9-1s-1.1,1.2-1.6,2.3l-1.2-1.7
		c0.6-0.7,1.1-1.3,1.7-1.7l0,0c0.8-1,1.4-2.4,1.8-3.8h-2.7c0.5-1.1,1.1-2.7,1.7-4.1H613V254h4.5c-0.5,1.4-1.1,2.9-1.7,4.2h1l0.3-0.1
		L618.1,258.6z M615.3,253.2c-0.3-0.8-1-2.2-1.5-3.2l1.5-0.6c0.5,1,1.2,2.3,1.5,3.1L615.3,253.2z M619.5,257.8
		c-0.3,0.2-0.6,0.3-1,0.4c-0.2-0.4-0.7-1-1-1.3c1.7-0.6,3.5-1.6,4.7-2.7h-4.2v-1.3h5.1v-1.2c-1.4,0.1-2.9,0.2-4.2,0.2
		c-0.1-0.3-0.2-0.9-0.4-1.2c3.3-0.1,7.3-0.4,9.6-0.9l1.1,1.2c-1.2,0.3-2.8,0.5-4.3,0.6v1.4h5.2v1.3h-4.3c1.2,1.1,3,2.1,4.7,2.5
		c-0.4,0.3-0.8,0.9-1.1,1.3c-1.6-0.6-3.3-1.7-4.5-3v2.2h-1.7v-2.1c-1,1-2.2,1.9-3.4,2.5h7.1c-0.1,0.5-0.2,1.1-0.4,1.6h3.1
		c0,0,0,0.4-0.1,0.6c-0.2,2.1-0.4,3.1-0.8,3.5c-0.3,0.3-0.7,0.4-1.3,0.5c-0.5,0-1.3,0-2.3,0c0-0.4-0.2-1-0.4-1.3
		c0.9,0.1,1.7,0.1,2,0.1c0.3,0,0.5,0,0.6-0.2c0.2-0.2,0.4-0.7,0.5-1.9h-3.2c0.2-0.5,0.3-1,0.4-1.6h-1.9c-0.4,2.4-1.3,4.2-4.3,5.2
		c-0.2-0.4-0.6-1-0.9-1.3c2.5-0.7,3.3-2,3.6-3.9h-2V257.8z"/>
	<path d="M637.7,258.4c-0.4,1.7-0.9,3.5-1.6,4.9c0.4,0.2,0.8,0.5,1.4,0.9c1.3,0.8,3,0.9,5.3,0.9c2.3,0,5.5-0.2,7.6-0.4
		c-0.2,0.5-0.5,1.3-0.5,1.8c-1.5,0.1-4.9,0.2-7.2,0.2c-2.5,0-4.1-0.2-5.5-1c-0.8-0.4-1.4-1.1-1.9-1.1s-1.1,1.2-1.6,2.4l-1.2-1.6
		c0.7-0.9,1.3-1.6,1.9-2c0.5-1,1-2.4,1.3-3.7h-2.4c0.5-1.1,1-2.7,1.5-4.1h-1.9V254h4.1c-0.4,1.3-1,2.9-1.4,4.2h1.1l0.3-0.1
		L637.7,258.4z M634.9,253.2c-0.2-0.8-0.7-2.2-1-3.2l1.5-0.5c0.4,1,0.8,2.2,1,3.1L634.9,253.2z M640,264.1h-1.5v-8.2h1.5v-5.8h7.9
		v5.8h1.4v6.6c0,0.7-0.1,1.2-0.6,1.4c-0.5,0.2-1.3,0.2-2.4,0.2c-0.1-0.4-0.2-1-0.4-1.4c0.7,0,1.3,0,1.5,0c0.2,0,0.3-0.1,0.3-0.2
		v-5.2H640V264.1z M646.3,262.4h-3.6v0.7h-1.3v-4.7h4.9V262.4z M641.5,255.9h1.5v-3.1h3.3v-1.4h-4.8V255.9z M645,259.5h-2.3v1.7h2.3
		V259.5z M646.3,254h-2v1.9h2V254z"/>
	<path d="M658.2,264.1c1.2,0.5,2.7,0.6,4.6,0.6c1.1,0,6.3,0,7.6,0c-0.3,0.4-0.6,1.2-0.7,1.7h-6.9c-3.9,0-6.3-0.6-7.9-3.2
		c-0.2,1.3-0.6,2.5-1.3,3.6c-0.2-0.4-0.8-0.9-1.2-1.1c1.3-2.2,1.4-5.3,1.3-7.8l1.5,0.1c0,0.8,0,1.5,0,2.3c0.4,1.1,0.8,1.9,1.4,2.5
		v-6.1h-3.8v-1.6h3.4v-2.1h-2.8v-1.5h2.8v-2.2h1.6v2.2h2.7v1.5h-2.7v2.1h3.1v1.6h-2.8v2.4h2.4v1.5h-2.4V264.1z M664.8,258.8
		c0.1,0.4,0.3,1,0.4,1.4c-3.1,1.9-3.6,2.2-3.9,2.5c-0.1-0.4-0.5-1.2-0.7-1.5c0.3-0.2,0.9-0.6,0.9-1.4v-7.1h3.5
		c-0.1-1-0.1-2.1-0.1-3.2h1.6c0,1.1,0,2.1,0,3.2h3.6v1.5h-3.5c0.1,1.7,0.3,3.2,0.5,4.4c0.6-1.1,1.1-2.2,1.4-3.4l1.4,0.4
		c-0.6,1.9-1.3,3.7-2.3,5.1c0.3,1.1,0.7,1.7,1,1.7c0.3,0,0.4-0.8,0.5-2.5c0.3,0.3,0.8,0.7,1.2,0.8c-0.2,2.5-0.7,3.3-1.9,3.3
		c-0.8,0-1.4-0.7-2-1.8c-0.8,1-1.7,1.8-2.8,2.4c-0.2-0.4-0.7-0.9-1.1-1.2c1.2-0.7,2.3-1.7,3.3-2.9c-0.4-1.7-0.7-3.9-0.8-6.2h-2v5.7
		L664.8,258.8z M668.6,252.6c-0.4-0.6-1.1-1.6-1.7-2.3l1.2-0.6c0.6,0.7,1.4,1.6,1.7,2.2L668.6,252.6z"/>
	<path d="M690,262.6h-7.8v4.3h-1.8v-4.3h-7.6V261h7.6v-2.5h-5.6v-8.1H688v8.1h-5.7v2.5h7.8V262.6z M676.5,253.6h9.6v-1.7h-9.6V253.6
		z M676.5,256.9h9.6v-1.8h-9.6V256.9z"/>
	<path d="M707.5,265.2c0.9,0,1.1-0.4,1.2-2.7c0.4,0.3,1.1,0.5,1.5,0.6c-0.2,2.8-0.7,3.6-2.6,3.6h-3.6c-2.2,0-2.8-0.5-2.8-2.1v-3.8
		h-1.1c-0.4,3.4-1.6,5.4-6.6,6.4c-0.2-0.4-0.6-1.2-0.9-1.5c4.4-0.8,5.4-2.3,5.7-4.9h-3.6v-6.6h5.4c0.2-0.6,0.4-1.2,0.6-1.7l1.8,0.3
		c-0.3,0.5-0.5,1-0.8,1.4h6.5v6.6h-5.3v3.8c0,0.6,0.2,0.7,1.2,0.7H707.5z M697.2,252.1h-4.1v-1.5h4.1v-1.1h1.7v1.1h2.1v1.5h-2.1v1.2
		h-1.7V252.1z M696.4,256.8h4v-1.3h-4V256.8z M696.4,259.4h4V258h-4V259.4z M703.7,252.1h-2v-1.5h2v-1.1h1.7v1.1h4.3v1.5h-4.3v1.2
		h-1.7V252.1z M706.3,255.5h-4.2v1.3h4.2V255.5z M706.3,258h-4.2v1.4h4.2V258z M706.1,261.2c-0.3,0.8-0.8,1.6-1.2,2.2l1.7-0.1
		c-0.2-0.4-0.4-0.7-0.6-1.1l1-0.3c0.4,0.7,1,1.8,1.2,2.4l-1,0.4c-0.1-0.2-0.1-0.3-0.2-0.5c-2.6,0.2-3,0.3-3.3,0.4
		c-0.1-0.2-0.3-0.7-0.4-1c0.2,0,0.4-0.2,0.6-0.5c0.2-0.2,0.7-1.3,1-2.2L706.1,261.2z"/>
	<path d="M715.1,254.6c-0.4,0.4-0.9,0.8-1.4,1.2c-0.3-0.4-0.9-0.9-1.3-1.2c2.1-1.5,3.6-3.6,4.4-5.2l1.8,0.3c-0.3,0.5-0.6,1.1-1,1.6
		h3.6c-0.2-0.5-0.5-1.1-0.7-1.5l1.7-0.5c0.4,0.6,0.8,1.4,1,2h5.5v1.4h-6v1.1h5.1v1.2h-5.1v1h5.2v1.2h-5.2v1.1h6.5v1.4h-12.4v0.5
		h-1.7V254.6z M719.4,263.8c-1.3,1-3.7,2.1-5.7,2.5c-0.2-0.4-0.7-1-1.1-1.4c1.9-0.3,4.2-1,5.4-1.8L719.4,263.8z M729.8,261.1v1.4
		h-7.6v4.4h-1.7v-4.4h-7.5v-1.4h7.5V260h1.7v1.2H729.8z M721,252.8h-4.2v1.1h4.2V252.8z M721,255.1h-4.2v1h4.2V255.1z M721,257.3
		h-4.2v1.1h4.2V257.3z M724.1,263.1c1.7,0.6,4.3,1.4,5.6,2l-1,1.2c-1.3-0.6-3.7-1.5-5.5-2.1L724.1,263.1z"/>
	<path d="M749.2,250.2v16.7h-1.9v-1h-12.1v1h-1.8v-16.7H749.2z M747.3,264.2V252h-12.1v12.2H747.3z M745,254.6v7h-7.5v-7H745z
		 M743.2,256.2h-4v3.9h4V256.2z"/>
	<path d="M755,253.2c-0.6,0.6-1.3,1.1-1.9,1.6c-0.1-0.3-0.5-1.2-0.7-1.6c1.5-0.9,3-2.3,3.9-3.9l1.4,0.5c-0.1,0.2-0.2,0.4-0.4,0.6
		c0.9,0.5,2,1.1,2.6,1.5l-0.8,1.4c-0.6-0.5-1.7-1.1-2.7-1.7c-0.4,0.5-0.8,1-1.3,1.4h3.1v1.2H755V253.2z M757.9,262
		c0.7,1.2,1.5,2.8,1.9,3.7c1.1-0.5,2.2-1.1,2.8-1.9l1.6,0.5c-0.8,1-2.1,2-3.3,2.6c-0.3-0.3-0.9-0.9-1.2-1.2l-1.2,0.6
		c-0.2-0.4-0.4-0.9-0.6-1.4c-3.6,1.4-4.1,1.7-4.5,2c-0.1-0.4-0.3-1.1-0.6-1.5c0.3-0.1,0.7-0.4,0.7-1.1v-9.1h5.6v6.5h-4.1v2.8
		l2.2-0.8c-0.2-0.4-0.4-0.9-0.6-1.2L757.9,262z M755.1,256.5v1.3h2.5v-1.3H755.1z M757.6,260.4V259h-2.5v1.3H757.6z M764,253.9h-3.5
		v-3.2h3.5v-1.2h1.6v1.2h3.5v3.2h-3.5v0.8h4.3v1.3h-10.2v-1.3h4.3V253.9z M766.8,263.7c1.2,0.7,2.5,1.6,3.3,2.3l-1.3,0.9
		c-0.8-0.7-2.1-1.7-3.2-2.5l0.9-0.8h-5.8v-7h8.4v7H766.8z M764,252.8v-1.1h-2v1.1H764z M762.2,258.7h5.2v-0.9h-5.2V258.7z
		 M762.2,260.7h5.2v-0.9h-5.2V260.7z M762.2,262.7h5.2v-1h-5.2V262.7z M765.6,251.7v1.1h2v-1.1H765.6z"/>
	<path d="M774.3,259c1.5-0.6,2.3-1.4,2.4-2.6c-0.1,0-0.2,0-0.3,0c-0.9,0-1.6-0.5-1.6-1.5c0-1,0.7-1.5,1.6-1.5c1.2,0,1.8,0.9,1.8,2.4
		c0,2.1-1.3,3.7-3.5,4.4L774.3,259z"/>
	<path d="M473.7,275.4c-0.4,0.6-0.8,1.3-1.3,2v12.4h-1.9v-10c-1.8,2-4,3.8-6.5,5.1c-0.3-0.5-0.8-1.2-1.2-1.6
		c3.6-1.8,6.7-4.8,8.5-7.9h-8v-1.8h16.3v1.8H473.7z M473.8,278.3c2.1,1.4,5,3.6,6.4,5l-1.5,1.4c-1.3-1.5-4.1-3.7-6.2-5.3
		L473.8,278.3z"/>
	<path d="M484.8,287.1h7.4v1.4h-8.9V273h1.5v6h8.2v1.3h-8.2V287.1z M488.9,282.5c-0.7,1.1-1.5,2.2-2.3,3.1l1-0.1
		c-0.1-0.2-0.1-0.4-0.2-0.6l0.8-0.3c0.3,0.6,0.6,1.5,0.6,2L488,287c0-0.2-0.1-0.4-0.2-0.7c-1.9,0.3-2.3,0.3-2.5,0.5
		c0-0.2-0.2-0.7-0.3-1c0.3,0,0.5-0.3,0.9-0.6c0.2-0.2,0.5-0.6,0.8-1.1c-0.9,0.2-1.2,0.3-1.4,0.4v0c-0.1-0.2-0.2-0.7-0.4-1
		c0.2,0,0.4-0.2,0.6-0.5c0.2-0.3,0.9-1.3,1.2-2.4l1,0.4c-0.3,0.8-0.8,1.5-1.2,2.1l0.9-0.1c0.2-0.3,0.4-0.7,0.6-1L488.9,282.5z
		 M488,278.8c0-0.2,0-0.4-0.1-0.7c-1.9,0.3-2.3,0.4-2.5,0.5c-0.1-0.2-0.2-0.7-0.3-1c0.2-0.1,0.5-0.3,0.9-0.6c0.2-0.2,0.4-0.5,0.8-1
		c-0.9,0.2-1.2,0.3-1.3,0.3c-0.1-0.2-0.2-0.8-0.3-1c0.2,0,0.4-0.2,0.6-0.5c0.2-0.3,0.9-1.3,1.2-2.3l1,0.4c-0.3,0.8-0.8,1.5-1.2,2.1
		l0.8-0.1c0.2-0.3,0.4-0.7,0.6-1l0.9,0.6c-0.7,1.1-1.5,2.1-2.3,2.9l1-0.1c-0.1-0.2-0.1-0.4-0.2-0.6l0.8-0.3c0.3,0.6,0.6,1.5,0.6,2.1
		L488,278.8z M492.8,282.4c-0.7,1.1-1.5,2.2-2.3,3.1l1-0.1c-0.1-0.2-0.2-0.5-0.2-0.7l0.8-0.3c0.3,0.7,0.6,1.6,0.7,2.2l-0.9,0.3
		c0-0.2-0.1-0.5-0.1-0.7c-1.9,0.3-2.3,0.4-2.5,0.5c-0.1-0.2-0.2-0.8-0.4-1c0.3,0,0.5-0.3,0.9-0.7c0.2-0.2,0.5-0.6,0.9-1.1
		c-0.9,0.2-1.2,0.3-1.4,0.4v0c-0.1-0.2-0.2-0.7-0.4-1c0.2,0,0.4-0.2,0.6-0.5c0.2-0.3,0.8-1.3,1.1-2.4l1,0.4
		c-0.3,0.8-0.7,1.5-1.1,2.1l0.9-0.1c0.2-0.3,0.4-0.7,0.6-1.1L492.8,282.4z M492.2,278.8c0-0.2-0.1-0.5-0.2-0.8
		c-2.1,0.3-2.6,0.4-2.8,0.5c0-0.2-0.2-0.7-0.3-1c0.3-0.1,0.5-0.3,0.9-0.6c0.1-0.2,0.5-0.5,0.9-1c-1,0.2-1.2,0.3-1.4,0.4
		c-0.1-0.2-0.2-0.8-0.3-1c0.2,0,0.4-0.2,0.6-0.5c0.2-0.3,0.9-1.3,1.2-2.4l1,0.4c-0.3,0.8-0.8,1.5-1.2,2.1l0.9-0.1
		c0.2-0.3,0.4-0.6,0.6-1l0.9,0.6c-0.7,1-1.5,2.1-2.3,2.9l1.2-0.1c-0.1-0.2-0.2-0.4-0.2-0.6l0.8-0.3c0.3,0.7,0.6,1.5,0.7,2.1
		L492.2,278.8z M500.1,279.8h-1.5v10H497v-10h-1.8v0.6c0,2.7-0.2,6.6-1.6,9.2c-0.3-0.3-0.9-0.7-1.3-0.9c1.3-2.4,1.4-5.8,1.4-8.4
		v-6.2c1.6-0.4,3.5-1.1,4.5-1.8l1.3,1.1c-1.2,0.6-2.9,1.2-4.4,1.6v3.2h4.9V279.8z"/>
	<path d="M507.7,282.9c-0.2-0.6-0.7-1.5-1.1-2.4v9.2h-1.4v-8.9c-0.5,1.9-1.1,3.7-1.8,4.9c-0.1-0.5-0.5-1.3-0.7-1.7
		c0.9-1.5,1.8-4.1,2.3-6.5h-1.9v-1.6h2.1v-3.6h1.4v3.6h1.6v0.9c2.2-1.2,4.1-2.9,5.1-4.6l1.7,0.6c-0.1,0.2-0.3,0.4-0.4,0.6
		c1.4,1.2,3.6,2.5,5.5,3.1c-0.3,0.4-0.6,1.2-0.7,1.7c-0.9-0.4-1.8-0.9-2.7-1.4v1.3h-5.6v-1.1c-0.6,0.5-1.3,0.9-2,1.3
		c-0.2-0.3-0.6-0.7-1-1v0.5h-1.6v1.1c0.5,0.7,1.7,2.6,1.9,3L507.7,282.9z M512.1,284.4c-0.1,0.5-0.3,0.9-0.5,1.3
		c0.7,0.5,1.6,1.1,2,1.5l-1,1.2c-0.4-0.4-1.1-1-1.7-1.5c-0.7,1.2-1.7,2.2-2.8,2.9c-0.2-0.3-0.8-0.9-1.2-1.1c1.7-1,2.9-2.6,3.5-4.6
		L512.1,284.4z M509,279.1h4.4v4.6H509V279.1z M510.3,282.5h1.7v-2.2h-1.7V282.5z M516.6,276.5c-1-0.6-2-1.4-2.8-2.1
		c-0.7,0.8-1.4,1.5-2.2,2.1H516.6z M517.4,284.3c-0.1,0.6-0.3,1.1-0.4,1.6c1.1,0.8,2.4,1.7,3.1,2.4l-1.1,1.2
		c-0.6-0.6-1.7-1.5-2.7-2.3c-0.6,1-1.3,1.9-2.2,2.5c-0.2-0.3-0.8-0.9-1.2-1.1c1.5-1,2.5-2.6,2.9-4.6L517.4,284.3z M514.4,279.1h4.5
		v4.6h-4.5V279.1z M515.8,282.5h1.8v-2.2h-1.8V282.5z"/>
	<path d="M528.9,284c-0.4-0.5-1.1-1.4-1.7-2.1v7.8h-1.7v-7.4c-0.8,0.7-1.6,1.4-2.4,1.9c-0.1-0.5-0.5-1.4-0.7-1.7
		c2-1.1,4-3.2,5.2-5.4h-4.7v-1.6h3.5c-0.4-0.7-1-1.6-1.6-2.3l1.3-0.8c0.7,0.7,1.4,1.7,1.7,2.4l-1.1,0.8h1.8l0.3-0.1l1,0.7
		c-0.6,1.4-1.4,2.8-2.3,4c0.8,0.7,2.2,2.1,2.6,2.5L528.9,284z M538.3,288.1c0.3,0,0.4-0.3,0.5-2.3c0.3,0.3,1,0.6,1.5,0.7
		c-0.2,2.5-0.6,3.2-1.8,3.2H537c-1.4,0-1.8-0.5-1.8-2.1v-4.1h-1.4c-0.3,3.1-1.1,5.2-4.5,6.3c-0.2-0.4-0.6-1-0.9-1.3
		c3-0.9,3.6-2.6,3.9-5.1h-1.5v-10.3h8.2v10.3h-2.1v4.1c0,0.5,0,0.6,0.4,0.6H538.3z M532.4,276.1h4.9v-1.6h-4.9V276.1z M532.4,279
		h4.9v-1.6h-4.9V279z M532.4,282h4.9v-1.6h-4.9V282z"/>
	<path d="M559.9,285.3h-17.1v-1.6h1.8l-0.3-9.9c1.2-0.4,2.6-1,3.5-1.4l0.8,1.4c-0.8,0.3-1.8,0.6-2.7,0.9l0.1,2h2.4v1.5h-2.3l0.1,2
		h2.3v1.5H546l0.1,2h10.3c0-0.6,0.1-1.3,0.1-2h-2.2v-1.5h2.3c0-0.7,0-1.3,0.1-2h-2.2v-1.5h2.3c0-0.7,0-1.4,0-2.1h-2.5v-1.5h4.1
		c0,3.3-0.1,7.7-0.3,10.5h1.7V285.3z M549.6,286.6c-1.6,1.1-3.9,2.4-5.7,3.1c-0.2-0.4-0.7-1-1-1.3c1.8-0.7,4.1-1.9,5.3-2.9
		L549.6,286.6z M550.9,279.5c-0.2,1.3-0.6,2.6-1.1,3.4c-0.3-0.2-0.8-0.6-1.2-0.7c0.5-0.8,0.8-1.8,0.9-2.9L550.9,279.5z M552.1,278.6
		h-2.9v-6.2h1.5v1.6h3v1.5h-3v1.7h2.3v0h0.6v4.9c0,0.7-0.1,1-0.6,1.2c-0.5,0.2-1.1,0.2-2.1,0.2c-0.1-0.4-0.2-0.8-0.4-1.1
		c0.6,0,1.2,0,1.3,0c0.2,0,0.2-0.1,0.2-0.2V278.6z M558.2,289.6c-1.2-0.9-3.3-2.1-5.3-3l1-1.3c2,0.9,4.1,2.1,5.5,3L558.2,289.6z"/>
	<path d="M569.1,276.9h-6.6v-1.4h3.2c-0.3-0.7-0.8-1.7-1.3-2.5l1.3-0.6c0.5,0.8,1.1,1.8,1.4,2.5l-1.3,0.6h3.2V276.9z M564.7,288.6
		v0.8h-1.4v-6.4h5.3v5.6H564.7z M563.3,280.5h5.2v1.4h-5.2V280.5z M568.5,279.4h-5.2V278h5.2V279.4z M564.7,284.5v2.7h2.4v-2.7
		H564.7z M579.3,287.7c0,0.8-0.2,1.3-0.7,1.5c-0.5,0.3-1.3,0.3-2.6,0.3c-0.1-0.4-0.3-1.1-0.5-1.5c0.9,0,1.7,0,1.9,0
		c0.3,0,0.4-0.1,0.4-0.4v-6.9h-6.5c0,2.8-0.3,6.6-1.7,9c-0.2-0.3-0.9-0.7-1.2-0.9c1.4-2.4,1.5-6,1.5-8.6v-7.2h9.4V287.7z
		 M571.4,274.6v1.7h2.5v-1.7H571.4z M571.4,279.4h2.5v-1.7h-2.5V279.4z M573.3,286.4v0.9h-1.3v-5.4h5v4.5H573.3z M573.3,283.2v2h2.3
		v-2H573.3z M577.9,274.6h-2.5v1.7h2.5V274.6z M577.9,279.4v-1.7h-2.5v1.7H577.9z"/>
	<path d="M586.4,280c-0.9,0.9-1.9,1.7-2.9,2.2c-0.2-0.3-0.7-0.9-1-1.1c1.2-0.4,2.5-1.3,3.4-2.2h-2.5v-3.4h3.1v-0.8h-3.6v-1.3h3.6
		v-1.1h1.6v1.1h3.5v1.3H588v0.8h3.1v1.4c1.2-1.1,2.1-2.8,2.6-4.6l1.6,0.4c-0.2,0.6-0.3,1.1-0.6,1.7h5v1.4h-1.2
		c-0.4,1.4-1,2.5-1.8,3.5c0.9,0.7,2,1.3,3.3,1.7c-0.3,0.3-0.8,1-1,1.4c-1.3-0.5-2.4-1.2-3.4-2c-1,0.9-2.2,1.5-3.5,2
		c-0.2-0.3-0.7-1-1-1.3c1.4-0.4,2.5-1,3.5-1.8c-0.6-0.7-1-1.4-1.4-2.2c-0.3,0.4-0.6,0.8-1,1.1c-0.2-0.3-0.8-0.9-1.1-1.2v1.9h-2.3
		c0.8,0.4,1.8,1,2.3,1.4l-0.7,1c-0.5-0.5-1.5-1.1-2.3-1.6v2.2h-1.6V280z M592,287.8h7.7v1.5h-17.1v-1.5h3v-3h1.7v3h3v-3.9h-6.4v-1.5
		h14.7v1.5H592v1.2h5.2v1.3H592V287.8z M584.7,277.8h1.7v-1.2h-1.7V277.8z M588,276.6v1.2h1.6v-1.2H588z M588.5,278.9H588v0.7
		L588.5,278.9z M594,275.7c0.4,0.8,0.9,1.6,1.5,2.4c0.6-0.7,1-1.5,1.3-2.4H594z"/>
	<path d="M604.3,281.8c1.5-0.6,2.3-1.4,2.4-2.6c-0.1,0-0.2,0-0.3,0c-0.9,0-1.6-0.5-1.6-1.5c0-1,0.7-1.5,1.6-1.5
		c1.2,0,1.8,0.9,1.8,2.4c0,2.1-1.3,3.7-3.5,4.4L604.3,281.8z"/>
	<path d="M621,281.8c-1.2,1.9-2.5,3.7-3.9,5.1l8.6-0.6c-0.7-1.1-1.5-2.1-2.3-3l1.6-0.7c1.7,1.9,3.5,4.4,4.4,6l-1.7,0.9
		c-0.2-0.5-0.5-1-0.9-1.6c-9.9,0.8-11.1,0.9-11.9,1.2c-0.1-0.4-0.4-1.3-0.6-1.7c0.4-0.1,0.9-0.5,1.4-1.2c0.5-0.5,2-2.4,3.1-4.4h-5.7
		V280h7.5v-3.2h-6.1v-1.8h6.1v-2.8h1.9v2.8h6.2v1.8h-6.2v3.2h7.6v1.8H621z"/>
	<path d="M639.4,276.9h-6.6v-1.4h3.2c-0.3-0.7-0.8-1.7-1.3-2.5l1.3-0.6c0.5,0.8,1.1,1.8,1.4,2.5l-1.3,0.6h3.2V276.9z M635,288.6v0.8
		h-1.4v-6.4h5.3v5.6H635z M633.6,280.5h5.2v1.4h-5.2V280.5z M638.8,279.4h-5.2V278h5.2V279.4z M635,284.5v2.7h2.4v-2.7H635z
		 M649.6,287.7c0,0.8-0.2,1.3-0.7,1.5c-0.5,0.3-1.3,0.3-2.6,0.3c-0.1-0.4-0.3-1.1-0.5-1.5c0.9,0,1.7,0,1.9,0c0.3,0,0.4-0.1,0.4-0.4
		v-6.9h-6.5c0,2.8-0.3,6.6-1.7,9c-0.2-0.3-0.9-0.7-1.2-0.9c1.4-2.4,1.5-6,1.5-8.6v-7.2h9.4V287.7z M641.7,274.6v1.7h2.5v-1.7H641.7z
		 M641.7,279.4h2.5v-1.7h-2.5V279.4z M643.6,286.4v0.9h-1.3v-5.4h5v4.5H643.6z M643.6,283.2v2h2.3v-2H643.6z M648.2,274.6h-2.5v1.7
		h2.5V274.6z M648.2,279.4v-1.7h-2.5v1.7H648.2z"/>
	<path d="M657.7,281.2c-0.3,1.7-0.8,3.5-1.5,5c0.3,0.2,0.7,0.5,1.3,0.9c1.3,0.8,3.1,0.9,5.3,0.9c2.3,0,5.5-0.2,7.6-0.4
		c-0.2,0.5-0.5,1.3-0.5,1.8c-1.5,0.1-4.9,0.2-7.1,0.2c-2.5,0-4.1-0.2-5.5-1c-0.8-0.4-1.4-1.1-1.9-1.1s-1.1,1.2-1.6,2.4l-1.2-1.6
		c0.7-1,1.5-1.7,2.1-2.1c0.5-1,0.9-2.3,1.1-3.6h-2.5c0.5-1.1,1.1-2.6,1.6-4.1h-2v-1.6h4.2c-0.4,1.3-1,2.9-1.5,4.2h1l0.3-0.1
		L657.7,281.2z M655.1,276c-0.3-0.8-0.9-2.2-1.3-3.2l1.5-0.5c0.4,1,1,2.2,1.3,3L655.1,276z M660.8,275.1h-2.9v-1.4h5.1
		c-0.2-0.4-0.4-0.8-0.7-1.1l1.4-0.6c0.4,0.5,0.8,1.1,1.1,1.6h5.2v1.4h-2.6l0.2,0.1c-0.3,0.6-0.6,1.1-0.8,1.6h2.7v8.1
		c0,0.8-0.1,1.2-0.7,1.4c-0.6,0.3-1.3,0.3-2.4,0.3c-0.1-0.4-0.3-1.1-0.5-1.5c0.7,0,1.4,0,1.7,0c0.2,0,0.3-0.1,0.3-0.3v-6.7h-3.3v1.2
		h2.6v1.1h-2.6v1.2h1.9v3.4h-3.8v0.6h-1.3v-4h1.8v-1.2h-2.5v-1.1h2.5v-1.2h-3.1v8.3h-1.6v-9.7h2.4c-0.1-0.5-0.3-1.1-0.6-1.5
		L660.8,275.1z M665.1,276.8c0.3-0.5,0.6-1.1,0.8-1.7h-4c0.3,0.5,0.6,1.2,0.6,1.6l-0.3,0.1H665.1z M665.2,282.7h-2.6v1.3h2.6V282.7z
		"/>
	<path d="M682,275.5v3.2l0.3-0.4c2.1,1,5.1,2.8,6.6,3.9l-1.3,1.6c-1.2-1-3.6-2.5-5.6-3.7v9.5h-1.9v-14.2h-7v-1.8h16.8v1.8H682z"/>
	<path d="M710,279.9v1.9h-17.3v-1.9H710z"/>
	<path d="M717.5,277.3c-0.7,2.8-1.8,6.3-3.5,8.5c-0.4-0.3-1.2-0.8-1.6-1c1.6-2,2.7-5.3,3.1-7.8L717.5,277.3z M722.3,272.6v14.8
		c0,1.2-0.3,1.7-1,2c-0.8,0.3-2,0.3-3.8,0.3c-0.1-0.5-0.4-1.4-0.7-1.9c1.3,0.1,2.7,0.1,3.1,0c0.4,0,0.5-0.1,0.5-0.5v-14.8H722.3z
		 M726.6,276.7c1.6,2.6,3.2,6,3.6,8.3l-1.9,0.8c-0.4-2.2-1.9-5.7-3.4-8.5L726.6,276.7z"/>
	<path d="M742.3,279.6v5.5c1.9-1.2,3.3-2.7,4.3-4.7l1.7,0.8c-2.6,5-7.5,7.4-14.6,8.5c-0.2-0.5-0.5-1.2-0.9-1.7
		c3.6-0.5,6.7-1.3,9.1-2.7h-1.4v-5.8h-7.5v-1.7h2.7v-4.2h1.8v4.2h3.2v-5.6h1.9v1.8h5.5v1.7h-5.5v2.1h7v1.7H742.3z M738.9,280.9
		c-1,1.7-2.7,3.5-4.2,4.6c-0.3-0.3-0.9-1-1.3-1.3c1.4-0.9,2.9-2.4,3.8-3.9L738.9,280.9z"/>
	<path d="M769.4,275.2c0,0,0,0.6,0,0.8c-0.3,8.6-0.5,11.5-1.3,12.5c-0.5,0.6-0.9,0.8-1.7,0.9c-0.7,0.1-1.8,0.1-2.9,0
		c0-0.5-0.2-1.2-0.6-1.7c1.2,0.1,2.3,0.1,2.8,0.1c0.4,0,0.6-0.1,0.8-0.3c0.6-0.6,0.9-3.5,1.1-10.7h-4.5c-0.5,1.2-1.1,2.3-1.7,3.2
		c-0.3-0.3-1-0.7-1.4-1v8.7H755v1.4h-1.6v-13.9h2.1c0.3-0.9,0.6-2.2,0.7-3.1l1.9,0.3c-0.3,0.9-0.7,2-1,2.8h3v3.6
		c1.3-1.6,2.3-4.2,2.8-6.7l1.7,0.4c-0.2,0.9-0.5,1.7-0.8,2.6H769.4z M755,276.9v3.6h3.5v-3.6H755z M758.5,286.2V282H755v4.2H758.5z
		 M764.8,284.7c-0.5-1.2-1.8-3-2.8-4.4l1.4-0.8c1,1.3,2.3,3.1,2.9,4.2L764.8,284.7z"/>
	<path d="M779.1,277c-0.6,1-1.3,2-2.1,2.9v9.9h-1.8v-8c-0.6,0.6-1.3,1.2-1.9,1.7c-0.2-0.4-0.9-1.1-1.3-1.5c2-1.4,4-3.6,5.3-5.7
		L779.1,277z M778.4,273c-1.3,1.7-3.3,3.6-5,4.8c-0.2-0.4-0.7-1.1-1-1.4c1.6-1,3.4-2.7,4.4-4.1L778.4,273z M789.7,280.3H787v7.3
		c0,1-0.2,1.5-0.9,1.7c-0.7,0.2-1.9,0.3-3.5,0.3c-0.1-0.5-0.4-1.2-0.6-1.7c1.2,0,2.5,0,2.8,0c0.4,0,0.5-0.1,0.5-0.4v-7.3h-6v-1.7
		h10.5V280.3z M789.3,275.1H780v-1.7h9.2V275.1z"/>
	<path d="M809.4,276.6c0,0,0,0.6,0,0.8c-0.2,7.8-0.4,10.4-1,11.3c-0.4,0.6-0.8,0.7-1.4,0.8c-0.6,0.1-1.4,0.1-2.3,0
		c0-0.5-0.2-1.1-0.5-1.6c0.9,0.1,1.7,0.1,2.1,0.1c0.3,0,0.5-0.1,0.6-0.3c0.4-0.5,0.6-3,0.8-9.5h-2.2c-0.2,5.2-1.1,9.2-4.3,11.7
		c-0.3-0.5-0.9-1.1-1.3-1.4c0.1-0.1,0.3-0.2,0.4-0.3c-2.7,0.3-5.5,0.6-7.5,0.8l-0.3-1.5c1.1-0.1,2.5-0.2,4-0.3v-1.4h-3.5v-1.3h3.5
		v-1H793v-5.7h3.4v-1h-3.9v-1.3h3.9v-1c-1.2,0.1-2.4,0.2-3.5,0.2c0-0.4-0.2-0.9-0.4-1.3c2.8-0.2,6.2-0.5,8.2-1l0.9,1.3
		c-1,0.2-2.3,0.4-3.6,0.6v1.2h3.8v1.1h2c0-1.3,0-2.6,0-4h1.7c0,1.4,0,2.8,0,4H809.4z M794.4,280.2h2V279h-2V280.2z M796.4,282.4
		v-1.2h-2v1.2H796.4z M798,287.1c1.2-0.1,2.4-0.2,3.6-0.4c1.5-2.1,2-4.9,2.1-8.4h-2v-1.4H798v1h3.5v5.7H798v1h3.6v1.3H798V287.1z
		 M800,280.2V279h-2v1.1H800z M798,281.2v1.2h2v-1.2H798z"/>
	<path d="M814.2,281.8c1.5-0.6,2.3-1.4,2.4-2.6c-0.1,0-0.2,0-0.3,0c-0.9,0-1.6-0.5-1.6-1.5c0-1,0.7-1.5,1.6-1.5
		c1.2,0,1.8,0.9,1.8,2.4c0,2.1-1.3,3.7-3.5,4.4L814.2,281.8z"/>
	<path d="M468.8,299.7h-6v-1.4h6V299.7z M468.3,311.5h-3.6v0.8h-1.3v-6.4h4.9V311.5z M468.2,302.2h-4.7v-1.4h4.7V302.2z
		 M463.5,303.3h4.7v1.4h-4.7V303.3z M465.6,298.2c-0.2-0.7-0.6-1.8-1-2.6l1.3-0.5c0.5,0.8,0.9,1.8,1.1,2.5L465.6,298.2z
		 M464.7,307.3v2.8h2.3v-2.8H464.7z M479.9,308.8c-0.6,0.4-1.4,0.9-2.1,1.2c0.7,0.6,1.6,1,2.6,1.3c-0.3,0.3-0.7,0.9-0.9,1.3
		c-2.5-0.8-4.1-2.5-5-4.7h-0.3c-0.4,0.4-1,0.8-1.5,1.1v1.7l2.5-0.5c0,0.4,0,1,0.1,1.3c-3.2,0.7-3.7,0.9-4,1
		c-0.1-0.3-0.5-0.8-0.7-1.1c0.3-0.2,0.8-0.8,0.8-1.7v-0.2c-0.6,0.3-1.3,0.6-2,0.8c-0.2-0.3-0.6-0.9-0.9-1.1c1.3-0.3,2.7-0.9,3.8-1.5
		h-3.4v-1.3h2.8v-0.8h-1.9v-1.1h1.9v-0.8h-2.2v-1.1h2.2v-1h-1.9v-3.2h4.3v3.2h-0.9v1h2.5v-1H475v-3.2h4.4v3.2h-2.1v1h2.5v1.1h-2.5
		v0.8h2.1v1.1h-2.1v0.8h2.9v1.3H476c0.2,0.5,0.6,1,0.9,1.4c0.7-0.4,1.5-0.9,2.1-1.3L479.9,308.8z M480,297.7h-10.9v-1.3h4.7
		c-0.2-0.4-0.3-0.8-0.5-1.1l1.5-0.4c0.3,0.5,0.6,1.1,0.8,1.5h4.5V297.7z M471.1,300.6h1.6v-1.2h-1.6V300.6z M473.2,304.5h2.5v-0.8
		h-2.5V304.5z M473.2,306.5h2.5v-0.8h-2.5V306.5z M476.3,300.6h1.7v-1.2h-1.7V300.6z"/>
	<path d="M487.6,302.8c-0.9,0.9-1.9,1.7-2.9,2.2c-0.2-0.3-0.7-0.9-1-1.1c1.2-0.4,2.5-1.3,3.4-2.2h-2.5v-3.4h3.1v-0.8H484v-1.3h3.6
		v-1.1h1.6v1.1h3.5v1.3h-3.5v0.8h3.1v1.4c1.2-1.1,2.1-2.8,2.6-4.6l1.6,0.4c-0.2,0.6-0.3,1.1-0.6,1.7h5v1.4h-1.2
		c-0.4,1.4-1,2.5-1.8,3.5c0.9,0.7,2,1.3,3.3,1.7c-0.3,0.3-0.8,1-1,1.4c-1.3-0.5-2.4-1.2-3.4-2c-1,0.9-2.2,1.5-3.5,2
		c-0.2-0.3-0.7-1-1-1.3c1.4-0.4,2.5-1,3.5-1.8c-0.6-0.7-1-1.4-1.4-2.2c-0.3,0.4-0.6,0.8-1,1.1c-0.2-0.3-0.8-0.9-1.1-1.2v1.9h-2.3
		c0.8,0.4,1.8,1,2.3,1.4l-0.7,1c-0.5-0.5-1.5-1.1-2.3-1.6v2.2h-1.6V302.8z M493.2,310.5h7.7v1.5h-17.1v-1.5h3v-3h1.7v3h3v-3.9H485
		v-1.5h14.7v1.5h-6.5v1.2h5.2v1.3h-5.2V310.5z M485.9,300.6h1.7v-1.2h-1.7V300.6z M489.2,299.4v1.2h1.6v-1.2H489.2z M489.7,301.7
		h-0.6v0.7L489.7,301.7z M495.2,298.5c0.4,0.8,0.9,1.6,1.5,2.4c0.6-0.7,1-1.5,1.3-2.4H495.2z"/>
	<path d="M511.3,303.8v7c0,0.7-0.1,1.1-0.6,1.3c-0.5,0.2-1.1,0.2-2.1,0.2c-0.1-0.4-0.3-1-0.5-1.3c0.7,0,1.3,0,1.5,0
		c0.2,0,0.2-0.1,0.2-0.2v-2.1c-0.8,0.5-1.5,0.9-2.2,1.4L507,309c-0.2,1.3-0.5,2.6-1.2,3.6c-0.2-0.3-0.9-0.7-1.2-0.9
		c1-1.4,1.1-3.4,1.1-4.9v-3h-0.9V301h0.8v-5.3h5.8v5.3h0.8v2.8H511.3z M510.8,302.2H506v1h4.7V302.2z M506.9,301h1v-3h2v-1h-2.9V301
		z M507.1,306.8c0,0.6,0,1.3-0.1,2c0.8-0.3,1.7-0.8,2.8-1.3v-3h-2.7v1.3l0.7-0.7c0.7,0.4,1.5,1,1.9,1.4l-0.8,0.9
		c-0.4-0.4-1.2-1.1-1.8-1.5V306.8z M509.9,301v-1.9h-1v1.9H509.9z M522,310.9v1.3h-9.9v-1.3h2.5c-0.2-0.5-0.4-1.1-0.6-1.6l1.3-0.4
		h-2.1v-3.6h7.8v3.6h-2.2l1.4,0.4c-0.3,0.5-0.6,1.1-0.9,1.6H522z M521.8,304.5h-9.5v-1.3h9.5V304.5z M521.4,302.4h-8.7v-5.9h2.3
		v-1.4h1.4v1.4h1.1v-1.4h1.4v1.4h2.5V302.4z M514,298.8h1.3v-1.1H514V298.8z M514,301.1h1.3V300H514V301.1z M514.7,307.8h4.6v-1.3
		h-4.6V307.8z M515.4,308.9c0.3,0.6,0.6,1.4,0.8,2h1.7c0.3-0.6,0.6-1.4,0.8-2H515.4z M517.6,298.8v-1.1h-1.2v1.1H517.6z M516.4,300
		v1.2h1.2V300H516.4z M520,297.7h-1.3v1.1h1.3V297.7z M520,300h-1.3v1.2h1.3V300z"/>
	<path d="M540.7,296c-0.1,7.2-0.1,14.6,0.9,14.6c0.2,0,0.3-1.2,0.3-2.8c0.3,0.5,0.7,1,1,1.3c-0.2,2.4-0.5,3.4-1.5,3.4
		c-2.5,0-2.5-6.7-2.5-14.9h-9.8v4.6c0,3.1-0.3,7.5-2.4,10.3c-0.3-0.3-1-0.8-1.4-1c2-2.7,2.2-6.5,2.2-9.3V296H540.7z M537.3,307.3
		c0.9,1.3,1.8,3,2.1,4.2l-1.5,0.5c-0.1-0.4-0.2-0.9-0.5-1.4c-3,0.2-6,0.5-8.2,0.6l-0.1-1.6c1.1-0.1,2.6-0.2,4.2-0.2V307h-3.1v-5.3
		h3.1v-1.6h-3.3v-1.4h8.3v1.4h-3.4v1.6h3.2v5.3h-3.2v2.2l2-0.1c-0.3-0.5-0.6-1-0.9-1.4L537.3,307.3z M533.2,305.6v-2.5h-1.7v2.5
		H533.2z M534.8,303.1v2.5h1.8v-2.5H534.8z"/>
	<path d="M552.3,296.4c-0.5,1.6-1.1,3.5-1.6,5c1.1,1.5,1.4,2.9,1.4,4c0,1.1-0.2,1.9-0.7,2.3c-0.3,0.2-0.6,0.3-1,0.4
		c-0.3,0-0.8,0-1.2,0c0-0.4-0.1-1.1-0.4-1.5c0.4,0,0.6,0,0.9,0c0.2,0,0.4-0.1,0.5-0.2c0.2-0.2,0.3-0.7,0.3-1.2c0-1-0.2-2.2-1.4-3.6
		c0.4-1.3,0.9-2.8,1.2-4.1h-1.9v15H547v-16.6h3.9l0.2-0.1L552.3,296.4z M555.8,307.2c-0.1,0.5-0.3,0.9-0.5,1.3c0.7,0.4,1.6,1,2,1.5
		l-0.9,1.2c-0.4-0.4-1-1-1.7-1.5c-0.7,1.2-1.7,2.2-2.8,2.9c-0.2-0.3-0.8-0.9-1.2-1.2c1.7-1,2.9-2.6,3.5-4.6L555.8,307.2z
		 M554.7,299.6c-0.6,0.5-1.3,0.9-2,1.3c-0.2-0.3-0.8-0.9-1.2-1.2c2.2-1.2,4.3-3,5.4-4.7l1.7,0.6c-0.1,0.2-0.3,0.4-0.4,0.6
		c1.4,1.2,3.6,2.5,5.5,3.1c-0.3,0.4-0.6,1.2-0.8,1.7c-0.9-0.4-1.8-0.9-2.7-1.4v1.3h-5.6V299.6z M552.7,301.9h4.4v4.6h-4.4V301.9z
		 M554,305.3h1.7v-2.2H554V305.3z M560.2,299.3c-1-0.6-2-1.4-2.8-2.1c-0.7,0.7-1.4,1.5-2.3,2.1H560.2z M561.1,307.1
		c-0.1,0.6-0.3,1.1-0.5,1.6c1.1,0.8,2.5,1.7,3.1,2.4l-1,1.2c-0.6-0.6-1.7-1.5-2.7-2.3c-0.6,1-1.3,1.9-2.2,2.5
		c-0.2-0.3-0.8-0.9-1.2-1.1c1.5-1,2.5-2.6,2.9-4.5L561.1,307.1z M558.1,301.9h4.5v4.6h-4.5V301.9z M559.4,305.3h1.8v-2.2h-1.8V305.3
		z"/>
	<path d="M573.9,296.5c-0.6,1.6-1.3,3.4-2,4.9c1.4,1.5,1.7,2.9,1.7,4c0,1.1-0.2,1.9-0.8,2.3c-0.3,0.2-0.6,0.3-1.1,0.4
		c-0.4,0-0.9,0-1.3,0c0-0.4-0.2-1.1-0.4-1.5c0.4,0,0.8,0,1.1,0c0.2,0,0.5-0.1,0.6-0.2c0.3-0.2,0.4-0.6,0.4-1.2c0-1-0.4-2.2-1.8-3.7
		c0.5-1.3,1.1-2.8,1.5-4.1h-2.3v15h-1.5v-16.6h4.5l0.2-0.1L573.9,296.5z M583.8,297.2c-0.7,1.5-1.8,2.7-3.1,3.7
		c1.2,0.6,2.6,1.1,4.2,1.3c-0.3,0.3-0.8,1-1,1.4c-1.7-0.4-3.3-1-4.6-1.8c-1.5,0.9-3.2,1.5-4.9,1.9c-0.2-0.4-0.6-1.1-0.9-1.4
		c1.5-0.3,3.1-0.8,4.4-1.5c-0.6-0.5-1.1-1-1.5-1.6c-0.5,0.5-1.1,0.9-1.7,1.4c-0.2-0.4-0.8-1-1.1-1.2c2-1.3,3.3-2.9,4.1-4.3l1.7,0.3
		c-0.2,0.4-0.5,0.8-0.8,1.3h3.8l0.3-0.1L583.8,297.2z M580.4,308.2h4.1v1.5h-4.1v2.8h-1.7v-2.8h-4.9c0.4-1,0.7-2.5,1-3.8h-0.6v-1.5
		h4.4v-1.3h1.7v1.3h3.6v1.5h-3.6V308.2z M578.8,308.2V306h-2.2c-0.2,0.7-0.4,1.5-0.6,2.2H578.8z M577.4,298.2
		c0.5,0.7,1.1,1.3,1.9,1.8c0.9-0.6,1.6-1.3,2.2-2h-3.9L577.4,298.2z"/>
	<path d="M605.4,310.2v1.7h-16.9v-1.7h7.5v-3.1h-5.8v-1.6h5.8v-2.2h1.8v2.2h6v1.6h-6v3.1H605.4z M603.2,303.7
		c-0.3-0.4-0.6-0.8-1.1-1.3c-10,0.4-11.1,0.5-11.9,0.7c-0.1-0.4-0.4-1.3-0.6-1.7c0.4-0.1,0.8-0.4,1.3-0.9c0.4-0.3,1.5-1.5,2.6-2.8
		h-4.7v-1.6h15.8v1.6h-8.9c-1,1.3-2.1,2.5-3.1,3.5l8-0.3c-0.7-0.6-1.4-1.3-2.1-1.8l1.4-0.9c1.7,1.3,3.8,3.1,4.8,4.4L603.2,303.7z"/>
	<path d="M625.6,305.1c-0.5,1.8-1.4,3.2-2.5,4.4c1,0.7,2.2,1.2,3.5,1.5c-0.4,0.3-0.8,1-1.1,1.4c-1.4-0.4-2.6-1-3.6-1.8
		c-1.1,0.8-2.3,1.5-3.6,1.9c-0.2-0.4-0.6-1-0.9-1.4v1.4h-1.7v-1.7c-2.3,0.2-4.5,0.5-6.3,0.7l-0.2-1.6c0.5,0,1.1-0.1,1.7-0.2v-6.1
		h-1.6v-1.4h16.6v1.4h-8.7v7.4c1.2-0.3,2.3-0.9,3.3-1.7c-0.8-0.9-1.5-2-2-3.2l0.5-0.1H618v-1.4h6.3l0.3-0.1L625.6,305.1z
		 M613.4,301.5h-1.7v-5.8h12.3v5.8h-1.8V297h-8.8V301.5z M612.6,303.7v1.1h3.1v-1.1H612.6z M612.6,307.1h3.1V306h-3.1V307.1z
		 M612.6,309.6c1-0.1,2.1-0.2,3.1-0.3v-0.9h-3.1V309.6z M621.3,297.9v1.1h-7.2v-1.1H621.3z M614.1,299.9h7.2v1.1h-7.2V299.9z
		 M620.2,306.1c0.4,0.8,1,1.6,1.6,2.3c0.7-0.7,1.3-1.5,1.7-2.3H620.2z"/>
	<path d="M635.7,295.7c-0.5,1.4-1.2,2.7-1.9,4v12.8h-1.7v-10.2c-0.5,0.7-1.1,1.4-1.6,2c-0.2-0.4-0.7-1.4-1-1.8
		c1.8-1.8,3.5-4.5,4.5-7.3L635.7,295.7z M643.7,303.8c0.4,3.8,1.2,6.5,2,6.5c0.3,0,0.5-0.9,0.7-2.6c0.3,0.3,0.9,0.7,1.2,0.9
		c-0.4,2.9-1.1,3.7-1.9,3.7c-2,0-3-3.4-3.6-8.5H638v4.7l3.3-0.8c0,0.5,0,1.1,0,1.5c-4.1,1.2-4.8,1.4-5.2,1.7
		c-0.1-0.4-0.4-1.1-0.6-1.4c0.3-0.2,0.9-0.5,0.9-1.3V297h0l0,0c3.2-0.5,6.7-1.2,8.8-2l1.3,1.3c-0.9,0.3-2.1,0.7-3.3,0.9
		c0.1,1.7,0.2,3.4,0.3,5h3.6v1.6H643.7z M641.9,302.2c-0.1-1.4-0.2-3-0.3-4.6c-1.2,0.2-2.4,0.5-3.6,0.6v4H641.9z M638,310.6h5.1v1.4
		H638V310.6z"/>
	<path d="M652.7,304.6c1.5-0.6,2.3-1.4,2.4-2.6c-0.1,0-0.2,0-0.3,0c-0.9,0-1.6-0.5-1.6-1.5c0-1,0.7-1.5,1.6-1.5
		c1.2,0,1.8,0.9,1.8,2.4c0,2.1-1.3,3.7-3.5,4.4L652.7,304.6z"/>
	<path d="M472.9,325c1.3,4,3.7,7.2,7.3,8.7c-0.4,0.4-1,1.1-1.3,1.7c-3.6-1.7-5.9-4.7-7.3-8.8c-1,3.4-3,6.7-7.3,8.8
		c-0.3-0.5-0.9-1.1-1.3-1.5c4.5-2,6.4-5.4,7.1-8.8h-6.7v-1.8h7.1c0.2-1.9,0.2-3.7,0.2-5.2h1.9c0,1.5,0,3.4-0.3,5.2h7.7v1.8H472.9z"
		/>
	<path d="M490.5,329.6c0,0.6-0.1,1.1-0.4,1.3c-0.3,0.3-0.8,0.3-1.4,0.3c0-0.4-0.2-1.1-0.4-1.5h0.9c0.1,0,0.2,0,0.2-0.2V323H488v12.3
		h-1.5V323h-1.1v8.5h-1.3v-10h2.5v-3.5h1.5v3.5h2.5V329.6z M500.9,318.8v1.4h-9.7v-1.4H500.9z M491.2,327.2h9.5v8.1h-1.6v-0.6h-6.3
		v0.6h-1.6V327.2z M500,321.4v4.5h-8v-4.5H500z M492.8,328.6v1.7h2.3v-1.7H492.8z M495.1,333.3v-1.7h-2.3v1.7H495.1z M498.4,322.8
		h-4.9v1.8h4.9V322.8z M499.1,328.6h-2.5v1.7h2.5V328.6z M499.1,333.3v-1.7h-2.5v1.7H499.1z"/>
	<path d="M508.4,328.3v4.9c0,0.9-0.2,1.3-0.7,1.6c-0.5,0.3-1.3,0.3-2.5,0.3c0-0.4-0.2-1.2-0.5-1.6c0.8,0,1.5,0,1.7,0
		c0.2,0,0.3-0.1,0.3-0.3v-4.4l-2,0.6l-0.4-1.7c0.7-0.2,1.5-0.4,2.4-0.6v-3.8h-2.2v-1.6h2.2v-3.7h1.6v3.7h2v1.6h-2v3.3l1.8-0.5
		l0.2,1.6L508.4,328.3z M516.9,333.4c0.5,0.1,1,0.1,1.6,0.1c0.6,0,3,0,3.7,0c-0.2,0.4-0.4,1.1-0.5,1.6h-3.3c-2.6,0-4.6-0.5-5.9-3
		c-0.5,1.3-1.2,2.4-2.1,3.2c-0.3-0.3-0.9-0.8-1.3-1.1c1.7-1.3,2.5-3.4,2.8-6.1l1.6,0.2c-0.1,0.7-0.2,1.4-0.4,2
		c0.5,1.4,1.2,2.2,2.1,2.6v-5.5h-4.6V326h11v1.4h-4.7v2h3.8v1.4h-3.8V333.4z M520.6,324.8h-9.1v-6.3h9.1V324.8z M518.9,319.8h-5.8
		v1.3h5.8V319.8z M518.9,322.2h-5.8v1.3h5.8V322.2z"/>
	<path d="M542.7,327.1h-4v8.2h-1.8v-8.2h-5.4c-0.2,3.1-1,6.1-4.8,8.2c-0.2-0.4-0.9-1-1.3-1.3c3.3-1.8,4.1-4.4,4.3-6.9h-4.1v-1.7h4.2
		v-3.8c-1.1,0.3-2.3,0.6-3.4,0.9c-0.1-0.4-0.4-1.1-0.6-1.4c3-0.7,6.2-1.7,8.1-2.9l1.3,1.4c-1.1,0.6-2.3,1-3.6,1.5v4.4h5.3v-7.2h1.8
		v7.2h4V327.1z"/>
	<path d="M563.5,333v1.7h-16.9V333h7.5v-4.4h-5.4V327h5.4v-3.8H550c-0.6,1.1-1.2,2.1-1.9,2.9c-0.4-0.3-1.1-0.8-1.6-1.1
		c1.5-1.6,2.7-4.2,3.4-6.9l1.8,0.4c-0.3,1-0.6,1.9-1,2.8h3.4v-3.5h1.8v3.5h6.6v1.7H556v3.8h5.9v1.7H556v4.4H563.5z"/>
	<path d="M584.7,333.3v1.4h-13.9v-1.4h6v-1.6h-4.2v-1.4h4.2V329h-3.6c-0.6,0.9-1.2,1.8-1.9,2.4c-0.1-0.3-0.6-1.2-0.9-1.6
		c-0.2,2-0.7,4.1-2,5.7c-0.3-0.3-1-0.9-1.3-1.1c1.5-1.8,1.7-4.4,1.7-6.3v-3.7h2.4c-0.2-0.3-0.6-0.6-0.8-0.8c1.4-0.2,3.1-0.6,4.7-1
		c-1.4-0.4-2.7-0.7-4-1l1-0.7h-3.1v-1.4h6.8c-0.3-0.4-0.6-0.9-0.9-1.2l1.2-0.6c0.5,0.5,1,1.3,1.3,1.8h6.4v1.4H581l0.8,0.5
		c-0.8,0.4-1.7,0.8-2.7,1.1c1.3,0.4,2.5,0.7,3.4,1.1l-0.9,0.8h2.8v1.4h-13.9v2.3c0,0.6,0,1.1-0.1,1.7c1-0.9,1.9-2.3,2.4-3.8l1.5,0.4
		c-0.1,0.4-0.3,0.7-0.5,1.1h2.8v-1.4h1.7v1.4h4.9v1.4h-4.9v1.4h4.4v1.4h-4.4v1.6H584.7z M580.8,324.4c-1-0.4-2.3-0.8-3.7-1.2
		c-1.6,0.5-3.2,0.9-4.6,1.2H580.8z M572.9,320.9c1.4,0.3,2.9,0.7,4.3,1.1c1.1-0.3,2.1-0.7,2.9-1.1H572.9z"/>
	<path d="M604.6,321.9c0,0,0,0.6,0,0.9c-0.4,7.7-0.8,10.5-1.6,11.5c-0.5,0.6-1,0.8-1.7,0.9c-0.7,0.1-1.9,0.1-3,0
		c0-0.5-0.3-1.3-0.6-1.8c1.3,0.1,2.4,0.1,2.9,0.1c0.4,0,0.6-0.1,0.9-0.3c0.6-0.6,1-3.2,1.4-9.4h-5.9c-0.3,3.9-1.6,8.5-7,11.7
		c-0.3-0.4-1-1.1-1.4-1.4c4.9-2.8,6.2-6.9,6.5-10.3H589v-1.8h6v-0.5v-3.5h1.9v3.5v0.5H604.6z"/>
	<path d="M625.6,324.5c-0.8,3-2.1,5.3-4,7.1c1.4,0.9,3,1.7,4.9,2.1c-0.4,0.4-1,1.2-1.2,1.7c-2-0.6-3.7-1.4-5.2-2.5
		c-1.7,1.2-3.7,2.1-5.8,2.7c-0.2-0.5-0.7-1.3-1-1.7c2-0.5,3.9-1.2,5.5-2.3c-1.5-1.6-2.6-3.5-3.4-5.8h-0.5c-0.4,3.1-1.5,6.5-4.6,9.3
		c-0.3-0.5-0.9-1.2-1.3-1.5c3.9-3.5,4.2-8.2,4.2-11.5v-1.6H610v-1.7h11.8c-0.4,1.7-0.8,3.8-1.2,5.4h3.4l0.3-0.1L625.6,324.5z
		 M615,322.1c0,0.6,0,1.3-0.1,2h3.7c0.3-1.1,0.6-2.4,0.9-3.6H615V322.1z M617.1,325.8c0.7,1.8,1.8,3.3,3.1,4.6
		c1.3-1.3,2.4-2.8,3.1-4.6H617.1z"/>
	<path d="M633,326.3c-0.6-0.6-2-1.4-3.1-1.9l1-1.3c1.1,0.4,2.5,1.2,3.1,1.8L633,326.3z M630.2,334.1c0.7-1.5,1.8-3.9,2.5-6l1.4,1
		c-0.7,2-1.6,4.2-2.4,6L630.2,334.1z M641.6,323.9v1.1h5.2v8.8c0,0.7-0.2,1.1-0.7,1.3c-0.5,0.2-1.3,0.2-2.4,0.2
		c-0.1-0.4-0.2-1-0.4-1.3c0.7,0,1.4,0,1.6,0c0.2,0,0.3-0.1,0.3-0.3v-1.6c-0.2,0.2-0.5,0.4-0.6,0.6c-0.5-0.5-0.9-1.2-1.1-2.1
		c-0.3,0.8-0.7,1.6-1.4,2.1c-0.1-0.2-0.3-0.4-0.5-0.6v2.8H640v-2.9c-0.2,0.2-0.5,0.4-0.6,0.6c-0.4-0.5-0.8-1.1-1-1.9
		c-0.3,0.8-0.7,1.6-1.3,2.1c-0.1-0.2-0.4-0.5-0.6-0.7v2.9h-1.5V325h5.1v-1.1h-2.7V321h-2.7v-1l-1,1.3c-0.6-0.6-1.9-1.5-2.9-2l1-1.2
		c1,0.4,2.2,1.2,2.9,1.8v-0.4h2.7v-1.6h1.7v1.6h3.7v-1.6h1.7v1.6h2.8v1.6h-2.8v2.9H641.6z M638.9,327.4c0.1,1.9,0.4,3.5,1.1,4.4
		v-5.2h-3.6v5.6c0.8-0.8,1.2-1.9,1.3-3h0.3c0-0.2,0-0.4-0.1-0.6h-1v-1.1h0.7v0H638.9z M639,322.4h3.7V321H639V322.4z M641.6,326.6
		v5.4c0.8-0.7,1.1-1.8,1.3-2.8h0.3c0-0.2,0-0.4-0.1-0.6h-1v-1.1h1.8c0.1,1.9,0.5,3.5,1.3,4.4v-5.2H641.6z"/>
	<path d="M651.2,334c0.9-0.8,1.8-2.1,2.3-3.3l1.5,0.6c-0.6,1.2-1.3,2.6-2.3,3.5L651.2,334z M667.7,323.6h-16.2v-1.4h4.2
		c-0.1-0.5-0.3-0.9-0.6-1.4l1.3-0.3h-4v-1.4h6.5c-0.2-0.4-0.3-0.8-0.5-1.1l1.7-0.3c0.3,0.4,0.5,0.9,0.7,1.4h6v1.4h-3.8l1.3,0.3
		c-0.3,0.5-0.5,1-0.8,1.4h4.3V323.6z M665.6,330h-6.2c0.9,0.5,1.9,1.1,2.4,1.6l-1.1,1.1c-0.6-0.6-1.9-1.5-3-2l0.7-0.7h-4.8v-5.6
		h11.9V330z M663.8,325.6h-8.5v1.1h8.5V325.6z M663.8,327.8h-8.5v1.1h8.5V327.8z M661.5,333.7c0.7,0,0.9-0.2,0.9-1.7
		c0.4,0.2,1.1,0.5,1.5,0.6c-0.2,2.1-0.7,2.6-2.3,2.6h-3.3c-2.1,0-2.6-0.4-2.6-2v-2.3h1.7v2.2c0,0.5,0.2,0.6,1.1,0.6H661.5z
		 M656.8,320.5c0.3,0.5,0.6,1.2,0.7,1.7h4.1c0.3-0.5,0.6-1.2,0.7-1.7H656.8z M665.4,330.5c1,1,2,2.4,2.4,3.3l-1.5,0.7
		c-0.4-0.9-1.4-2.4-2.3-3.4L665.4,330.5z"/>
	<path d="M675.1,324.7c0,3.1-0.2,7.6-1.8,10.6c-0.4-0.3-1.2-0.6-1.6-0.8c1.5-2.8,1.7-6.9,1.7-9.8v-5.1h7.2c-0.2-0.5-0.4-1-0.6-1.5
		l1.8-0.4c0.3,0.6,0.6,1.3,0.9,1.9h6.4v1.6h-13.9V324.7z M687.6,329.2c-0.8,1.6-2.1,2.7-3.7,3.6c1.6,0.5,3.4,0.8,5.3,1
		c-0.4,0.4-0.8,1.1-1,1.5c-2.3-0.2-4.5-0.8-6.3-1.5c-1.9,0.7-4.1,1.2-6.4,1.4c-0.1-0.4-0.4-1.1-0.7-1.5c1.8-0.2,3.6-0.4,5.2-0.9
		c-1.1-0.7-2-1.5-2.7-2.4l0.7-0.3h-2.3v-1.4h10.5l0.3-0.1L687.6,329.2z M678.3,327.7v-3h-2.8v-1.4h2.8v-1.5h1.7v1.5h4.1v-1.5h1.7
		v1.5h2.9v1.4h-2.9v3H678.3z M679.1,330.1c0.7,0.8,1.7,1.5,2.9,2c1.2-0.5,2.2-1.2,3-2H679.1z M680,324.7v1.7h4.1v-1.7H680z"/>
	<path d="M696.7,323.7c1.7,0,3,1.3,3,3s-1.3,3-3,3c-1.6,0-3-1.3-3-3S695,323.7,696.7,323.7z M696.7,328.4c1,0,1.8-0.8,1.8-1.8
		s-0.8-1.8-1.8-1.8c-1,0-1.8,0.8-1.8,1.8S695.7,328.4,696.7,328.4z"/>
</g>
<rect id="svg_73_1_" x="462" y="-227.4" class="st0" width="354.7" height="4.2"/>
<text transform="matrix(1 0 0 1 461.9679 -270.0216)" class="st4"><tspan x="0" y="0" style="font-family:'SourceHanSansTWHK-Heavy-B5pc-H'; font-size:19.5926px; letter-spacing:3;">快速變動的時代，</tspan><tspan x="0" y="23.5" style="font-family:'SourceHanSansTWHK-Heavy-B5pc-H'; font-size:19.5926px; letter-spacing:1;">你需要更高效、靈活的工作方法及團隊</tspan></text>
<text transform="matrix(1 0 0 1 461.9672 -170.4352)" class="st4"><tspan x="0" y="0" style="font-family:'SourceHanSansTWHK-Medium-B5pc-H'; font-size:19px;">敏捷（Agile），是一種快速反應、</tspan><tspan x="0" y="22.8" style="font-family:'SourceHanSansTWHK-Medium-B5pc-H'; font-size:19px;">保持彈性規劃的工作方式。</tspan><tspan x="0" y="45.6" style="font-family:'SourceHanSansTWHK-Medium-B5pc-H'; font-size:19px;">心法是小步快跑，透過越早蒐集回饋，</tspan><tspan x="0" y="68.4" style="font-family:'SourceHanSansTWHK-Medium-B5pc-H'; font-size:19px;">不斷檢視與調整，去調適下一小步的行動，</tspan><tspan x="0" y="91.2" style="font-family:'SourceHanSansTWHK-Medium-B5pc-H'; font-size:19px; letter-spacing:1;">讓整體風險降至最低，</tspan><tspan x="0" y="114" style="font-family:'SourceHanSansTWHK-Medium-B5pc-H'; font-size:19px; letter-spacing:1;">大幅提升生產力及滿意度。</tspan></text>
<circle class="st7" cx="207.6" cy="66.9" r="51.4"/>
<circle class="st7" cx="354.6" cy="177.6" r="51.4"/>
<circle class="st7" cx="67.3" cy="178.6" r="51.4"/>
<circle class="st7" cx="95.5" cy="333.1" r="51.4"/>
<circle class="st7" cx="309.8" cy="333.1" r="51.4"/>
</svg>
