<?xml version="1.0" encoding="utf-8"?>
<!-- Generator: Adobe Illustrator 25.2.1, SVG Export Plug-In . SVG Version: 6.00 Build 0)  -->
<svg version="1.1" id="圖層_1" xmlns="http://www.w3.org/2000/svg" xmlns:xlink="http://www.w3.org/1999/xlink" x="0px" y="0px"
	 viewBox="0 0 1366 768" style="enable-background:new 0 0 1366 768;" xml:space="preserve">
<style type="text/css">
	.st0{fill:#FFE100;}
	.st1{fill:#231815;}
	.st2{fill:#717071;}
	.st3{fill:url(#SVGID_1_);}
</style>
<g>
	<rect x="254.6" y="279.2" class="st0" width="863.6" height="102"/>
	<g>
		<path class="st1" d="M437.1,254.4c-3.1,23.9-8.5,44.2-16.7,60.9c6.6,10.5,15.2,19.3,25.4,25.2c-4.1,3.5-9.8,10.5-12.5,15.3
			c-9.3-6.1-17.2-14.1-23.4-23.4c-6.9,8.8-15.3,16.5-25.4,22.8c-2.3-3.3-8.5-10.5-12.3-13.8c11.9-6.4,21.3-15.2,28.3-25.8
			c-5-10.9-9-23.2-12.1-36.4c-1.6,2.5-3,4.9-4.5,7c-2.4-3.1-8.5-9.1-12.4-11.9l-0.4,9.3h9.9v15.3h-10.5c-0.4,6.9-0.8,12.8-1.1,17.9
			H380V332h-12.1c-1.1,8.1-2.4,12.9-4.3,15.3c-2.9,4.8-6.1,6.1-10.6,7c-4.3,0.8-10.3,0.8-16.7,0.5c-0.4-4.5-2-11.3-4.4-15.8
			c5.1,0.5,9.8,0.6,12.3,0.6c2.3,0,3.3-0.5,4.8-2.6c0.6-1,1.3-2.5,1.9-5h-46.7c1.4-9.1,2.9-20.8,4.1-33.1h-9.6v-15.3h11
			c0.5-5.6,0.8-11.1,1.3-16.7l-0.1,0.1c-3.3-3-10.6-8.1-14.8-10.5c9.4-11.3,16.4-29.4,20.2-47.5l17.3,3.5c-0.8,4.3-1.9,8.1-3,12.3
			h49.5v16h-55.2c-1.6,3.8-3.1,7.4-4.9,10.9h52.1v7.5l-0.5,13.4c10.6-15.3,17.4-39.3,20.9-63.6l17.4,2.9c-1.4,8.8-3.3,17.8-5.5,26
			h39.9v16.8h-7v-0.3H437.1z M324.8,298.6c-0.5,6.3-1.1,12.3-1.8,17.9h14.1c-2.4-4.4-6.3-9.6-9.9-13.6l7.8-4.3H324.8L324.8,298.6z
			 M327.4,266.5c-0.5,5.5-0.8,11.1-1.3,16.8h12.3c-2-4.3-5.1-9.1-8.6-13l7.4-3.8H327.4z M352.6,316.5c0.4-4.9,0.8-10.6,1.1-17.9
			h-14.3c4.3,4.5,8.4,10.3,10.4,14.5l-5.8,3.5h8.5L352.6,316.5L352.6,316.5z M354.3,283.3c0.1-5.1,0.4-10.6,0.5-16.8h-13.4
			c3.9,4.3,7.5,9.9,9.1,14.1l-5,2.6L354.3,283.3L354.3,283.3z M399.3,254.4c2.5,14.8,6.1,28.7,11.1,41.1c4.3-11.9,7.3-25.7,9.1-41.1
			H399.3z"/>
		<path class="st1" d="M505.4,291.3c-5,1.6-10,3.1-15.2,4.5v39.8c0,8.6-1.4,13.4-6.1,16.4c-4.9,3-11.5,3.6-21.9,3.5
			c-0.5-4.5-2.5-12.3-4.5-17.3c5.5,0.4,11,0.4,12.9,0.1c1.9,0,2.6-0.6,2.6-2.6V301c-5.1,1.6-10.4,3-14.9,4.3l-4.1-17.9
			c5.4-1.1,11.9-2.9,19-4.5v-27.2h-16.5v-17.2h16.5v-29.6h17v29.6h14.3v17.2h-14.3v22.7l12.8-3.6L505.4,291.3z M560.3,337.4
			c4.3,0.5,8.6,0.6,13.1,0.6c4.9,0,23.5,0,30.1-0.4c-2.4,3.9-4.5,11.5-5.1,16h-26c-21.7,0-38.7-3.8-50.6-18.5
			c-3.6,8.4-8.1,15.4-13.8,20.9c-2.9-2.9-10.3-7.9-14.1-10.3c11.3-9.9,17-26,19.3-44.5l17,2.3c-0.8,5-1.6,9.9-2.9,14.6
			c4.1,7,9.4,11.6,15.9,14.6V299h-29.4v-13.8h29.4v-8h-38.6v-14.5h38.6v-7.3h-29.4v-14h29.4V235h-36.1v-14.6h36.1v-11.6h17.2v11.8
			h39.4v14.6h-39.4v6.6h33.3V263h9.8v14.5h-9.8v21.9h-33.3v9.1h34.4v14.6h-34.4v14.3H560.3z M560.3,262.9h16v-7.3h-16V262.9z
			 M560.3,285.3h16v-8h-16V285.3z"/>
		<path class="st1" d="M758.3,325.8v18.9H615.4v-18.9h59.9v-81.3h-51.5V225h125.6v19.5h-52.8v81.3H758.3z"/>
		<path class="st1" d="M822.9,215c-4.1,11-9.3,22.2-15.2,32.7v107.7h-18.9v-78.6c-3.3,3.9-6.6,7.9-9.8,11.3
			c-1.8-4.5-7-15.3-10.4-19.9c14.3-14.1,27.9-36.4,35.8-58.9L822.9,215z M872.7,252v16.5h40.7v17h-40.7v17.8h42.8v17.3h-42.8v34.9
			h-19.2V252.1h-6c-6.3,11.6-13.5,22.3-20.5,30.6c-3-3.5-10.4-10-14.3-13c13.8-14.1,26.3-36.8,33.3-59.2l18,4.5
			c-2.3,6.6-4.8,13-7.8,19.5h61v17.8h-44.6L872.7,252L872.7,252z"/>
		<path class="st1" d="M1074,275.1h-12.1V334c0,8.8-1.3,13.6-6.9,16.8c-5.4,3-13,3.1-23.4,3.1c-0.5-5.1-2.6-12.8-5-18
			c6.3,0.4,12.9,0.4,14.9,0.1c2,0,2.6-0.5,2.6-2.4v-58.5h-13.6v-12.5h-22.9v92.3h-16.4v-92.3h-20.8v-10.9
			c-2.5,5.5-5.6,11.5-9.1,17.2v86.6H944v-62.6c-3,3.5-6,6.6-8.8,9.3c-1.8-3.8-7-13.1-10.3-17.2c11.9-10.5,23.9-26.9,30.7-43.4
			l14.8,4.9v-1.1h20.8V209h16.4v36.4h23.5V258h43.1L1074,275.1z M970.4,214.6c-8.1,14-20.8,29-32.7,38.6c-2.3-3.8-6.6-10.6-9.6-13.8
			c9.8-7.9,20.4-20.4,25.3-30.6L970.4,214.6z M986.5,271.1c0,29.9-1.8,49.7-13.8,61.6c-1.6-3.3-5.6-8.5-8.8-10.9
			c8.8-9.9,9.4-25.2,9.6-50.8L986.5,271.1L986.5,271.1L986.5,271.1z M1021.7,242.5c-2.3-5.4-7.3-14-11.9-20.3l11.3-6.1
			c4.9,6,10.3,14.3,12.8,19.7L1021.7,242.5z M1027.6,328.3c-12.4,0-14.8-4.8-14.8-18.4v-38.7h13.4V310c0,4.3,0,5.5,1,5.5h3.6
			c1.6,0,3.6-0.4,5.1-0.8c0.4,3.5,0.8,9.6,1.3,12.5c-1.9,1-4.1,1-6.6,1L1027.6,328.3L1027.6,328.3z M1071.9,237h-37.4v-16.5h37.4
			V237z"/>
	</g>
	<g>
		<path class="st1" d="M475.1,456.7h14.1v6.1h-14.1v6.4c0,3.8-0.8,5.6-3.5,6.8c-2.8,1-6.4,1.1-11.5,1.1c-0.4-2.3-1.5-5-2.5-7.1
			c3.4,0.3,7.3,0.3,8.3,0.1c1.1,0,1.5-0.3,1.5-1v-6.3h-21c2.8,1.9,5.6,4.3,7.1,6.1l-6,5c-1.8-2.3-5.9-5.8-9.1-8.1l3.6-3h-15.2v-6.1
			h40.3v-2.4h-3.5c-8,0-13.9-0.5-18.7-3c-2.6-1.3-4.6-2.9-6.1-2.9c-2,0-5.4,3.4-8.1,6.9l-4.3-6.5c1.8-1.5,3.6-3,5.5-4.1
			c1.9-2.1,3.8-5.1,5.1-8.1h-9.6c1.6-2.8,3.5-6.3,5-9.8h-6.1V421h6.1c-0.6-2-1.8-4.9-2.5-7.1l6.9-2.1c0.9,2.3,2.3,5.4,2.9,7.4
			l-5.5,1.9h9c-1.5,3.1-3.3,6.5-4.9,9.8h3l1.1-0.4l3.9,1.6c-1.1,3.8-2.9,7.6-5,10.9c1.4,0.5,2.8,1.5,4.9,2.5
			c4.3,2.1,10.6,2.4,17.8,2.4c7.5,0,19.5-0.5,26.9-1.6c-0.9,2-2,5.4-2.1,7.4c-3.1,0.3-8.4,0.4-13.5,0.5v2.6L475.1,456.7L475.1,456.7
			z M461.5,425.1c0.3-0.8,0.4-1.5,0.5-2.3h-16.8v-5.5h9.9c-0.6-1.5-1.5-3.1-2.3-4.4l6.5-1.6c1.3,1.9,2.6,4.3,3.4,6.1h8.4
			c1.1-1.9,2.3-4.1,2.9-5.9l7.8,1.4c-1,1.6-2.1,3.1-3,4.5h10v5.5h-19.2c-0.4,0.8-0.8,1.5-1,2.3h15v20.7h-33.8v-20.7h11.6v-0.1H461.5
			z M475.8,428.7h-18.3v2.1h18.3V428.7z M475.8,434.3h-18.3v2.3h18.3V434.3z M475.8,440h-18.3v2.3h18.3V440z"/>
		<path class="st1" d="M539.5,415.5c0,13,1.9,38.3,27.3,53.3c-1.8,1.5-5.1,5-6.6,7.1c-14.3-8.6-21.7-21.8-25.4-34.1
			c-5.1,15.5-13.5,26.9-25.5,34.2c-1.5-1.8-5.4-5.1-7.5-6.8c14.4-7.3,22.7-20.7,26.4-38.8l4.3,0.8c-0.5-2.6-0.8-5.1-1-7.5h-15.8
			v-8.4h23.9v0.2H539.5z"/>
		<path class="st1" d="M642.1,431.1v5.9h-12.5l-0.5,5.4h-39.9l0.8-5.4h-10.9v-5.9h11.6l0.8-5.3h39.2l-0.5,5.3H642.1z M623.6,466.8
			c6.1,1.6,12.1,3.5,16.3,4.8l-5.6,5c-5-1.9-13-4.6-21-6.8l2.9-3.1h-12.6l4.1,3c-5.8,3-15.5,5.6-23.5,6.9c-1-1.6-2.9-4.1-4.4-5.6
			c6.1-0.9,13.3-2.4,18.2-4.3h-10v-22.4h45v22.4h-9.4V466.8z M588.3,429.3H581v-12h25.3c-0.5-1.5-1.4-2.9-2-4.1l7.1-2
			c1.1,1.9,2.4,4.1,3.1,6.1h25.3v12h-7.6v-5.6h-43.8L588.3,429.3L588.3,429.3z M596,450.5h28.8v-2H596V450.5z M596,456.6h28.8v-2.1
			H596V456.6z M596,462.8h28.8v-2.3H596V462.8z M597,438.3h9.1l0.3-2.3h-9.1L597,438.3z M598.1,429.9l-0.3,2h9l0.3-2H598.1z
			 M621.8,438.3l0.3-2.3h-8.9l-0.3,2.3H621.8z M622.5,429.9h-8.8l-0.1,2h8.8L622.5,429.9z"/>
		<path class="st1" d="M676.5,466.6v9.6h-7.8v-9.6H654v-7.1h14.8V456h-12v-25h32.4v25h-12.6v3.5h14.3v7.1H676.5z M671.5,428.2H656
			v-14.8h15.5V428.2z M665.5,418.6h-3.6v4.5h3.6V418.6z M663.5,440.5h5.8v-3.6h-5.8V440.5z M663.5,449.9h5.8v-3.8h-5.8V449.9z
			 M689.6,428.2H674v-14.8h15.7v14.8H689.6z M682,437h-5.9v3.6h5.9V437z M682,446.2h-5.9v3.8h5.9V446.2z M683.5,418.6h-3.6v4.5h3.6
			V418.6z M717.3,441.3c-2.1,6.6-5.5,13.1-9.5,18.9c1.1,3.9,2.5,6.1,4,6.3c1.1,0,1.9-3.3,2.3-9.5c1.3,1.8,4.6,3.9,6,4.6
			c-1.8,12-5.3,14.8-8.3,14.6c-4.1-0.3-7.4-3.4-9.6-9c-3.1,3.4-6.8,6.1-10.5,8.3c-1.4-1.9-3.8-4.3-5.9-5.8
			c5.1-2.4,9.9-6.3,13.9-10.8c-1.3-5.6-2.3-12.4-3-20.3l-5.8,0.8l-0.9-7.6l6-0.8c-0.4-5.9-0.6-12.3-0.8-19h7.8
			c0.1,6.3,0.3,12.4,0.6,18.2l14.8-1.8l0.9,7.5l-14.9,1.9c0.4,4.5,0.9,8.8,1.5,12.5c2.3-3.9,4.1-8.1,5.5-12.4L717.3,441.3z
			 M711.5,427.8c-1.1-3.1-3.9-8.3-6.5-12l6.3-3.3c2.8,3.6,5.8,8.4,6.9,11.6L711.5,427.8z"/>
		<path class="st1" d="M766.6,467.3h25.5v7.4h-58.9v-7.4H758v-8.4h-17.9v-7.1H758v-7.9h-14.5v-6c-3,2-6,3.8-8.8,5.1
			c-1.1-2-3.1-4.9-5-6.6c7.6-3.1,16.3-8.9,22.8-15h-9.1v-7.6h23.5c6,8.8,17,17.4,28.8,21.8c-1.8,1.8-4.3,5.1-5.5,7.5
			c-3-1.4-5.9-3-8.8-4.9v5.6h-14.8v7.9h18.2v7.1h-18.2L766.6,467.3L766.6,467.3z M779,436.6c-6.4-4.5-12.1-9.8-16.7-15.2
			c-4.5,5.4-10.8,10.8-17,15.2H779z"/>
		<path class="st1" d="M871.1,464.6h-11.8V476h-7.8v-11.4h-12.8v-7h12.8v-6.3h-5.8c-0.9,2-1.8,3.8-2.8,5.4c-1.1-0.9-3.6-2.1-5.4-2.9
			v14.6c0,3.3-0.5,5.4-2.6,6.5s-5,1.4-9.1,1.4c-0.3-2-1.4-5.1-2.4-7c2.8,0.1,5.5,0.1,6.3,0.1c0.9,0,1.1-0.3,1.1-1.1v-10H817
			c-0.8,6.5-2.3,13.3-5.5,18.2c-1.1-1.1-4.1-3-5.6-3.6c4.6-7.1,5-17.4,5-25.2v-10.3c-1.4-1.4-3.9-3.5-5.4-4.4
			c4.8-5,8.4-13.1,10.3-21.3l7.3,1.5c-0.4,1.6-0.9,3.4-1.5,4.9h6.3l1-0.4l4.8,2.9c-1,2.8-2.4,5.9-3.8,8.8h7.8v4.3
			c5.8-2.6,7.8-6.6,8.8-11.6h-7.8v-6.8h30.7c0,0-0.1,1.8-0.1,2.6c-0.4,11-0.9,15.8-2.4,17.5c-1.1,1.5-2.5,2-4.3,2.3
			c-1.5,0.3-4.3,0.3-7,0.3c-0.1-2.1-0.9-4.9-1.9-6.6c2.1,0.3,4,0.3,5,0.3c0.9,0,1.4-0.1,1.9-0.8c0.6-0.8,1-3.1,1.3-8.9h-8
			c-1.1,7.1-3.8,12.9-10.9,16.8l6.1,1.3c-0.3,1.5-0.5,3-1,4.4h3.4v-6.3h7.8v6.3h10.4v6.9h-10.4v6.3h11.8v7.1h0V464.6z M819.4,424.3
			c-0.8,1.8-1.5,3.5-2.4,5h6c0.8-1.5,1.4-3.4,1.9-5H819.4z M817.6,447.6c0,1.5,0,3-0.1,4.5h4v-5.8h-3.9V447.6L817.6,447.6z
			 M817.6,440.6h3.9v-5.3h-3.9V440.6z M826.9,440.6h3.9v-5.3h-3.9V440.6z M830.9,452.1v-5.8H827v5.8H830.9z M837.5,452.5
			c2.3-3.5,3.9-8.6,4.8-13.5c-0.5,0.3-1,0.5-1.5,0.8c-0.6-1.4-2-3.4-3.4-4.8v17.5H837.5z"/>
		<path class="st1" d="M905.1,455c-1-2.1-2.6-5.4-4.4-8.4v29.6h-7.9v-26.8c-2.1,5.9-4.5,11.3-7.4,15c-0.8-2.4-2.6-5.6-3.9-7.6
			c4.4-5.5,8.3-14.9,10.3-23h-8.4V426h9.4v-14.3h7.9V426h9.4v7.8h-9.4v2.6c2.5,3.1,7.9,10.4,9.1,12.1L905.1,455z M946.9,442.6H938
			v33.6h-8.1v-33.6h-9c-0.3,10.5-1.8,24.4-7.8,33.4c-1.5-1.3-4.9-3.4-6.9-4.1c6.3-9.1,6.9-22.5,6.9-32.3v-20.4
			c8.5-1.6,17.7-4.1,23.3-6.9l6.9,6.5c-6.5,2.8-14.6,4.9-22.4,6.3v9.8h26.2v7.8L946.9,442.6L946.9,442.6z"/>
	</g>
	<g>
		<rect x="372" y="454.5" class="st1" width="15.3" height="15.3"/>
		<rect x="340.5" y="423.1" class="st1" width="15.3" height="15.3"/>
	</g>
	<g>
		<rect x="988.2" y="454.5" class="st1" width="15.3" height="15.3"/>
		<rect x="1019.7" y="423" class="st1" width="15.3" height="15.3"/>
	</g>
	<g>
		<path class="st2" d="M476.3,548.4l2.1,1l-2.1,4.3l-2.1-1L476.3,548.4z M481.7,535.8v1.3l3.6,3.6l-1.6,1.6l-1.9-1.9v5.3h-2.4v-5.9
			c-0.8,1.8-1.8,3.1-3.1,4.3l-1.6-1.9c1.9-1.5,3-3.6,3.5-6.4h-2.9v-2.4h4.1v-3.6h2.4v3.6h3.6v2.4L481.7,535.8L481.7,535.8z
			 M480.4,548h2.4v1.8c0,1.6,0.8,2.4,2.4,2.4h5.6V550h2.4v4.5h-8c-3.1,0-4.8-1.6-4.8-4.8V548z M485,547.8l1.5-1.9l2.8,2.4l-1.5,1.9
			L485,547.8z M497.1,530.7v14.6h-10.6v-14.6H497.1z M488.8,534.9h6v-2.1h-6V534.9z M488.8,539.1h6V537h-6V539.1z M494.7,543.3v-2.1
			h-6v2.1H494.7z M496.4,553.7l-2.1-4.3l2.1-1l2.1,4.3L496.4,553.7z"/>
		<path class="st2" d="M527.4,534.9h-7.1v2.4h-2.4v-2.4h-4.8v2.4h-2.4v-2.4h-7.1v-2.4h7.1v-2.4h2.4v2.4h4.8v-2.4h2.4v2.4h7.1V534.9z
			 M512.1,539.1c-0.5,1.1-1,2.1-1.4,3.1v12.4h-2.4v-8.5c-1.1,1.6-2.1,2.6-2.9,3.4l-1.9-1.6c2.8-2.6,4.9-5.8,6.3-9.5L512.1,539.1z
			 M526.2,542.8c-2.6,1.5-5.4,2.5-8.4,3.1v5.1c0,0.8,0.4,1.3,1.3,1.3h4.8c0.8,0,1.3-0.4,1.3-1.3v-1.3h2.4v1.3c0,2.4-1.3,3.6-3.6,3.6
			h-4.8c-2.4,0-3.6-1.3-3.6-3.6v-12.5h2.4v4.9c2.4-0.5,4.8-1.5,7.3-2.9L526.2,542.8z"/>
		<path class="st2" d="M552.9,540.9l0.6-0.6l1.8,0.6h0.6v2.4h-22.7v-2.4H552.9z"/>
		<path class="st2" d="M567.4,537.3v1.8l3.3,3.3l-1.6,1.6l-1.6-1.5V555H565v-10.6c-0.8,1.4-1.8,2.5-2.8,3.6l-1.6-1.6
			c2.1-2,3.6-4.8,4.5-8.3v-1h-3.6v-2.4h3.6v-5.4h2.4v5.4h3v2.4h-3.1L567.4,537.3L567.4,537.3z M569.8,554.7l-1.3-1.9
			c1.6-0.8,3-2,4.1-3.5h-3v-1.9h4.1l1.9,1.1C574.3,551.3,572.3,553.3,569.8,554.7z M575.6,553.2h1.3v-7.3h-4v-2h5.3l-3.9-1.6
			l0.6-1.5h-4.6v-2h6.5v-1.5H572v-2h4.8v-1.5h-5.4v-2h2.8l-0.8-1.5l2.3-1l1.4,2.5h2.6h0.3l1.3-2.5l2.1,1l-0.8,1.6h2.3v2h-5.6v1.5
			h4.8v2h-4.8v1.5h6.5v2h-9.9l3.4,1.4l-0.8,1.6h0.6c0,1,0.3,1.9,0.6,2.5c0.4,0.6,0.8,1.1,1,1.5l3.6-2.5l1.3,1.6l-3.6,2.4
			c1.1,1.3,2.8,2.4,4.9,3.1l-1.1,1.9c-3.3-1.5-5.4-3.3-6.6-5.3v5.9h-3.4v-1.8H575.6z"/>
		<path class="st2" d="M597.7,530.7l-1.1,4.1h3.9v17.3h-8.9v-17.3h2.6l1.3-4.8L597.7,530.7z M598.1,542.4v-5H594v5H598.1z
			 M598.1,549.8v-5H594v5H598.1z M607.1,530.5c-0.3,1.6-0.6,3-1,4.4h8V548c0,4.4-2.1,6.5-6.5,6.5H607v-2.4h0.6
			c2.8,0,4.1-1.4,4.1-4.1v-10.8h-6.5c-0.6,1.8-1.5,3.1-2.5,4.5l-2.1-1.3c2.1-2.8,3.5-6.1,4.1-10.4L607.1,530.5z M604.5,543l1.6-1.6
			l3.4,3.4l-1.6,1.6L604.5,543z"/>
		<path class="st2" d="M627.8,551h-7.1v-18.5h7.1V551z M625.4,540.3v-5.4H623v5.4H625.4z M625.4,548.6v-6H623v6H625.4z M642.7,536.1
			h-4.8v3h6.5v2.4h-4.1v2.4h3.6v2.4h-3.6v8.4h-4.8v-2.4h2.4v-6h-7.8v-2.4h7.8v-2.4H629v-2.4h6.5v-3h-4.8v-2.4h4.8v-3.6h2.4v3.6h4.8
			V536.1L642.7,536.1z M631,548.8l1.8-1.8l2.5,2.5l-1.8,1.8L631,548.8z"/>
		<path class="st2" d="M659.6,530.7v9.9h-7.4v14h-2.4v-23.8h9.8L659.6,530.7L659.6,530.7z M657.2,534.6v-1.8h-5v1.8H657.2z
			 M657.2,538.5v-1.8h-5v1.8H657.2z M665.8,542.4v9.9h-9.5v-9.9H665.8z M663.5,546.3v-1.8h-4.8v1.8H663.5z M663.5,550.2v-1.8h-4.8
			v1.8H663.5z M672.4,554.5H668v-2.4h2.1v-11.6h-7.4v-9.9h9.9v23.9H672.4z M670,534.6v-1.8h-5v1.8H670z M670,536.8h-5v1.8h5V536.8z"
			/>
		<path class="st2" d="M681,547.1c0.6-0.6,1.3-0.9,2.1-0.9s1.5,0.3,2.1,0.9c0.6,0.6,0.9,1.3,0.9,2.1c0,2-2,4.1-6,6.5l3-3.6
			c-0.9,0-1.5-0.3-2.1-0.9c-0.6-0.6-0.9-1.3-0.9-2.1C680.1,548.4,680.4,547.6,681,547.1z"/>
		<path class="st2" d="M721.9,544.4h-8.4v6.5c0,0.8,0.4,1.3,1.3,1.3h4.1v-2.4h2.4v4.8h-6.5c-2.4,0-3.6-1.3-3.6-3.6v-6.5h-3.6
			c0,5.4-2.9,8.8-8.6,10.1l-0.9-2.3c4.8-1,7.1-3.6,7.1-7.9H698V542h23.8v2.4H721.9z M698.7,532.5h10.1v-2.4h2.4v2.4h10.1v5.4h-2.4
			v-3H701v3h-2.4L698.7,532.5L698.7,532.5z M717.2,539.6h-14.3v-2.4h14.3V539.6z"/>
		<path class="st2" d="M739.7,529.5h2.4v5.4h8.4v2.4h-8.3c0.1,4,0.6,6.9,1.4,8.5c1.5-2,2.6-4.3,3.6-6.8l2.3,1.1
			c-1.3,3.4-2.8,6.1-4.6,8.1c1,1.9,2.6,3,4.6,3.5v-2h2.4v4.8c-3.9,0-6.9-1.5-8.6-4.4c-2,1.9-4.4,3.4-7.1,4.4l-1.1-2.3
			c2.9-1.3,5.3-2.8,7-4.5c-1.1-2.5-1.8-6-1.9-10.6h-8.4v3h7.1v6c0,2.4-1.3,3.6-3.6,3.6H734v-2.4h1.3c0.8,0,1.3-0.4,1.3-1.3v-3.6
			h-4.8c-0.1,4.4-0.9,8.4-2.6,11.9l-2.3-1.1c1.5-2.9,2.3-6.6,2.4-11.3v-7.3H740v-5.3h-0.3V529.5z M743.9,532l1.5-1.9l2.8,2.3
			l-1.5,1.9L743.9,532z"/>
		<path class="st2" d="M780.2,533.1h-10.8v3h9.5v18.5h-4.8v-2.4h2.4V548l-1.3,1.4c-0.9-0.8-1.6-1.6-2.1-2.8l-2.4,2.8l-1.4-1.3v5.3
			H767v-5.5l-1.3,1.4c-0.9-0.8-1.6-1.6-2.1-2.8l-2.4,2.8l-1.4-1.3v6.4h-2.4v-18.5h9.5v-3h-10.8v-2.4H780v2.6L780.2,533.1
			L780.2,533.1z M759.9,538.5v8.9l2.9-3.4l-0.3-1.4H761v-2.4h3.6c0.1,2.9,1,5.1,2.5,6.6v-8.4L759.9,538.5L759.9,538.5z M769.4,538.5
			v8.9l2.9-3.4l-0.3-1.4h-1.5v-2.4h3.6c0.1,2.9,1,5.1,2.5,6.6v-8.4L769.4,538.5L769.4,538.5z"/>
		<path class="st2" d="M793.3,530.1c-0.5,2.1-1.4,4.4-2.5,6.8v17.7h-2.4v-13.9c-0.5,0.8-1.1,1.5-1.8,2.1l-1.9-1.6
			c2.8-2.9,4.8-6.8,6.1-11.6L793.3,530.1z M802.1,530.1v3h6v2.4h-1.9l-1.3,4.8h4.3v2.4h-16.7v-2.4h4.3l-1.3-4.8h-1.8v-2.4h6v-3
			H802.1z M807,554.5h-11.9V545H807V554.5z M804.5,552.2v-4.8h-7.1v4.8H804.5z M797.9,535.5l1.3,4.8h3.4l1.3-4.8H797.9z"/>
		<path class="st2" d="M821.4,530.7l-1.1,4.1h3.9v17.3h-8.9v-17.3h2.6l1.3-4.8L821.4,530.7z M821.7,542.4v-5h-4.1v5H821.7z
			 M821.7,549.8v-5h-4.1v5H821.7z M830.8,530.5c-0.3,1.6-0.6,3-1,4.4h8V548c0,4.4-2.1,6.5-6.5,6.5h-0.6v-2.4h0.6
			c2.8,0,4.1-1.4,4.1-4.1v-10.8h-6.5c-0.6,1.8-1.5,3.1-2.5,4.5l-2.1-1.3c2.1-2.8,3.5-6.1,4.1-10.4L830.8,530.5z M828.1,543l1.6-1.6
			l3.4,3.4l-1.6,1.6L828.1,543z"/>
		<path class="st2" d="M844.9,531.4h9.5v-1.8h2.4v1.8h9.5v2.3h-9.5v1.4h7.1v5.8h-7.1v1.4h8.4v3.5h2.4v2.3h-2.4v3.5h-8.4v3.5h-4.1
			v-2.3h1.8v-1.3H846v-2.3h8.4v-1.4h-10.8v-2.3h10.8v-1.4H846v-2.3h8.4v-1.4h-7.1v-5.8h7.1v-1.4h-9.5V531.4L844.9,531.4z M854.4,537
			h-4.8v1.4h4.8V537z M861.6,537h-4.8v1.4h4.8V537z M856.8,545.4h6V544h-6V545.4z M856.8,548.9h6v-1.4h-6V548.9z"/>
		<path class="st2" d="M878.1,538.5c0-1.8,0.6-3.4,1.9-4.6s2.9-1.9,4.6-1.9c1.8,0,3.4,0.6,4.6,1.9s1.9,2.9,1.9,4.6
			c0,1.3-0.4,2.3-1.3,3.3c-0.8,0.9-1.6,1.3-2.6,1.3c-0.5,0-0.9,0.3-1.1,0.8c-0.3,0.4-0.4,1-0.4,1.5v2.9h-2.3v-2.9
			c0-1.3,0.4-2.3,1.1-3.3c0.8-0.9,1.6-1.4,2.8-1.4c0.4,0,0.8-0.3,1.1-0.8c0.3-0.4,0.5-1,0.5-1.5c0-1.1-0.4-2.1-1.3-3
			c-0.9-0.9-1.9-1.3-3-1.3s-2.1,0.4-3,1.3c-0.9,0.9-1.3,1.9-1.3,3v2.5H878L878.1,538.5L878.1,538.5L878.1,538.5z M883.5,551.2h2.5
			v2.4h-2.5V551.2z"/>
		<path class="st2" d="M380.5,568.9c-0.5,2.1-1.4,4.4-2.5,6.8v17.7h-2.4v-13.9c-0.5,0.8-1.1,1.5-1.8,2.1L372,580
			c2.8-2.9,4.8-6.8,6.1-11.6L380.5,568.9z M386,569.4c-0.3,1.3-0.5,2.4-0.9,3.1h9.3l0.1-0.4l2.3,0.9l-2.1,5.6l-2.3-0.9l1-2.8h-3.9
			v18.5h-5V591h2.6v-16H384c-0.9,1.4-2.3,2.8-4.1,4.3l-1.6-1.9c2.9-2.1,4.8-5,5.4-8.4L386,569.4z M382.9,580.2l2.3,1l-3.9,8.8
			l-2.3-1L382.9,580.2z M394.9,590l-3.9-8.8l2.3-1l3.9,8.8L394.9,590z"/>
		<path class="st2" d="M403.5,578.3l2.3,0.6l-2.5,9.3l-2.3-0.6L403.5,578.3z M408.2,587v-11.4h2.4v9.6c0.8-0.6,1.5-1.3,2.3-2
			c2.8-2.8,5-6.1,6.6-10.1l2.3,1c-1.6,3.9-3.9,7.4-6.8,10.5c-1.4,1.4-2.9,2.8-4.4,3.9v0.9c0,1.3,0.6,1.8,1.8,1.8h5.4
			c1.1,0,1.8-0.5,2-1.6l0.5-2l2.3,0.6l-0.4,2c-0.6,2.3-2.1,3.4-4.4,3.4h-5.4c-2.5,0-3.9-1.1-4.1-3.5c-1.6,1-3.4,1.9-5.3,2.6
			l-1.3-2.1C404,589.5,406.2,588.3,408.2,587z M409.8,571.1l1.3-2.1l6.1,3.6l-1.3,2L409.8,571.1z M421.1,580l2.3-0.9l2.9,7.1
			l-2.3,0.9L421.1,580z"/>
		<path class="st2" d="M452.2,570.9h-8.4v1.5h10.8v5.5h-2.4v-3.5h-8.4v5.9h-2.4v-5.9H433v3.5h-2.4v-5.5h10.8v-1.5H433v-2h19v2H452.2
			z M430.8,581.2h23.8v2.1h-11.8l-0.6,1.5h11.3v8.6H449v-2.1h2.1v-4.5H447v6h-2.4v-6H441v6h-2.4v-6h-4.1v6.5h-2.4v-8.6h7.5l0.6-1.5
			h-9.4L430.8,581.2L430.8,581.2z M440,577.1h-5.4v-1.5h5.4V577.1z M440,579.8h-5.4v-1.6h5.4V579.8z M450.7,577.1h-5.4v-1.5h5.4
			V577.1z M450.7,579.8h-5.4v-1.6h5.4V579.8z"/>
		<path class="st2" d="M467.9,590.1c1.3,0.6,2.9,1,4.9,1h11.6v2.3h-11.8c-3.9,0-6.6-1-8.3-3l-3.6,3l-1.5-1.8l3.5-2.9v-7h-3.5v-2.4
			h5.9v7.6C465.6,588.3,466.5,589.5,467.9,590.1l-0.8-2.1c1.5-0.4,3-1,4.6-1.9h-5.4v-2h4.1v-1.6h-3v-2h3v-1.8h2.3v1.8h3.9v-1.8h2.3
			v1.8h3v2h-3v1.6h4.1v2h-5.3c1.6,0.9,3.1,1.5,4.6,1.9l-0.6,2.1c-2-0.5-3.8-1.3-5.4-2.3l1-1.9H472l1,1.9
			C471.5,588.8,469.8,589.6,467.9,590.1z M461.6,569.8l3.5,4l-1.8,1.5l-3.4-4L461.6,569.8z M474.3,569.3v5.5h-5v1.1
			c0,0.4,0.1,0.5,0.5,0.5h3.1v-0.9h2v2.9H470c-2,0-3-0.9-3-2.5v-3h5v-1.6h-5v-2H474.3z M476.6,584.1v-1.6h-3.9v1.6H476.6z
			 M483.2,569.3v5.5h-5v1.1c0,0.4,0.1,0.5,0.5,0.5h2.9v-0.9h2.3v2.9H479c-2,0-3.1-0.9-3.1-2.5v-3h5v-1.6h-5v-2H483.2z"/>
		<path class="st2" d="M496.2,576.1h-2.4v6.4l1.6-0.5l0.9,2.3l-2.5,0.9v8.3h-4.1V591h1.8v-5l-2.3,0.9l-0.8-2.3l3.1-1.3V576h-3v-2.4
			h3v-4.8h2.4v4.8h2.4v2.4L496.2,576.1L496.2,576.1z M496.2,580.7h7.8v-1.6h-5.4v-2.3h5.4v-1.6h-6.5v-6h14.9v6h-6v1.6h4.8v2.1h-4.8
			v1.6h7.1v2.1h-3.4l-0.8,1.6h3.6v2.1h-6.5v1.6h5.4v2.1h-5.4v3.4h-2.5V590h-6v-2.1h6v-1.6h-7.1v-2.1h4.1l-0.8-1.6h-3.9v-2h0V580.7z
			 M501.6,573.1v-1.6h-1.8v1.6H501.6z M502.7,582.8l0.8,1.6h3.1l0.8-1.6H502.7z M505.7,573.1v-1.6h-1.8v1.6H505.7z M509.8,573.1
			v-1.6H508v1.6H509.8z"/>
		<path class="st2" d="M542.5,580.5h-13.1v12.9H527v-2.8l-9.3,1.5l-0.3-1.9l2.4-0.4v-9.4h-2.4v-2h25L542.5,580.5L542.5,580.5z
			 M539,568.9v8.3h-17.9v-8.3H539z M527.1,588.6v-1.1h-4.8v1.9L527.1,588.6z M527.1,582v-1.5h-4.8v1.5H527.1z M527.1,585.5V584h-4.8
			v1.5H527.1z M536.6,572.2v-1.3h-13.1v1.3H536.6z M536.6,573.9h-13.1v1.3h13.1V573.9z M541.6,582.7c-1.1,2.5-2.4,4.5-3.8,6
			c1.4,1.1,2.9,2,4.8,2.8l-1.3,1.9c-2-0.9-3.6-1.9-5.1-3.1c-1.4,1.1-3,2.1-5.1,3.1l-1.3-1.9c2-0.9,3.5-1.8,4.8-2.8
			c-1.3-1.3-2.4-2.8-3.3-4.8h-0.9v-2.1h9.3L541.6,582.7z M538.8,584.1h-5c0.6,1.1,1.5,2.1,2.5,3.1
			C537.1,586.2,538,585.2,538.8,584.1z"/>
		<path class="st2" d="M567.6,593.4H563V591h2.1v-2.6h-9.5v5h-2.4v-11.3c-1.4,1.4-2.9,2.5-4.6,3.4l-1.4-2.1c3.5-1.9,6.1-4.8,7.8-8.5
			h-7.1v-2.4h8c0.4-1.1,0.6-2.3,0.8-3.6l2.4,0.1c-0.1,1.3-0.4,2.4-0.8,3.5h12.8v2.4h-13.5l-0.9,2.1h10.8v16.4L567.6,593.4
			L567.6,593.4z M565.2,581.5v-2.1h-9.5v2.1H565.2z M565.2,586v-2.1h-9.5v2.1H565.2z"/>
		<path class="st2" d="M583,568.6c-0.4,2.1-1.1,4.5-2.1,7v17.8h-2.4V580c-0.4,0.6-0.8,1.3-1.3,1.8l-2-1.5c2.5-3,4.4-7,5.4-12
			L583,568.6z M599,578.7v11.1h-4c1.9,1,3.9,1.6,5.9,1.9l-0.5,1.9c-2.6-0.5-5-1.4-7.3-2.6l0.8-1.3H590l0.6,1.3
			c-2.1,1.1-4.6,2-7.3,2.6l-0.5-1.9c2-0.4,4-1,5.9-2h-3.9v-11.1L599,578.7L599,578.7z M600.9,569.3v1.8h-5.4v1.4h4.8v4.9h-16.7v-4.9
			h4.8v-1.4H583v-1.8H600.9z M586,575.6h2.4v-1.4H586V575.6z M596.6,581.8v-1.4h-9.5v1.4H596.6z M596.6,584.8v-1.3h-9.5v1.3H596.6z
			 M596.6,586.7h-9.5v1.3h9.5V586.7z M590.7,572.4h2.4V571h-2.4V572.4z M590.7,575.6h2.4v-1.4h-2.4V575.6z M595.5,574.2v1.4h2.4
			v-1.4H595.5z"/>
		<path class="st2" d="M612.8,568.9c-0.5,2.1-1.4,4.4-2.5,6.8v17.7h-2.4v-13.9c-0.5,0.8-1.1,1.5-1.8,2.1l-1.9-1.6
			c2.8-2.9,4.8-6.8,6.1-11.6L612.8,568.9z M614.4,578.4v12.8h15.5v2.1H612v-14.9L614.4,578.4L614.4,578.4z M629.3,573.2h-6.5v2.4
			h4.8v13.6h-11.3v-13.6h4.1v-2.4h-7.1v-2.1h7.1v-2.6h2.4v2.6h6.5V573.2z M625.2,579.5v-1.8h-6.5v1.8H625.2z M625.2,583.2v-1.8h-6.5
			v1.8H625.2z M625.2,585.3h-6.5v1.8h6.5V585.3z"/>
		<path class="st2" d="M641.4,569.6l-1.1,4.1h3.9V591h-8.9v-17.3h2.6l1.3-4.8L641.4,569.6z M641.8,581.2v-5h-4.1v5H641.8z
			 M641.8,588.6v-5h-4.1v5H641.8z M650.8,569.3c-0.3,1.6-0.6,3-1,4.4h8v13.1c0,4.4-2.1,6.5-6.5,6.5h-0.6V591h0.6
			c2.8,0,4.1-1.4,4.1-4.1v-10.8h-6.5c-0.6,1.8-1.5,3.1-2.5,4.5l-2.1-1.3c2.1-2.8,3.5-6.1,4.1-10.4L650.8,569.3z M648.2,581.8
			l1.6-1.6l3.4,3.4l-1.6,1.6L648.2,581.8z"/>
		<path class="st2" d="M665,570.2h9.5v-1.8h2.4v1.8h9.5v2.3h-9.5v1.4h7.1v5.8h-7.1v1.4h8.4v3.5h2.4v2.3h-2.4v3.5h-8.4v3.5h-4.1v-2.3
			h1.8v-1.3h-8.4V588h8.4v-1.4h-10.8v-2.3h10.8V583h-8.4v-2.3h8.4v-1.4h-7.1v-5.8h7.1v-1.4H665V570.2L665,570.2z M674.5,575.8h-4.8
			v1.4h4.8V575.8z M681.6,575.8h-4.8v1.4h4.8V575.8z M676.9,584.2h6v-1.4h-6V584.2z M676.9,587.7h6v-1.4h-6V587.7z"/>
		<path class="st2" d="M693.4,586.3l1.6-1.6l5.9,5.9l-1.6,1.6L693.4,586.3z"/>
		<path class="st2" d="M712.7,570.2h23.8v2.4h-11.4l-1,3.6h11.3v17.3h-4.8v-2.4h2.4v-12.5h-4v13.1h-2.4v-13.1h-3.9v13.1h-2.4v-13.1
			h-4v14.9h-2.4v-17.3h7.8l1-3.6h-10L712.7,570.2L712.7,570.2z"/>
		<path class="st2" d="M765,570.2v2.4h-8.8c-0.5,1-0.9,1.8-1.4,2.4v18.5h-2.4v-15c-1.1,1.3-2.4,2.5-3.8,3.8
			c-1.9,1.5-3.8,2.8-5.8,3.8l-1.3-2.1c2.3-1.1,4.4-2.6,6.5-4.6c2-1.9,3.8-4,5.1-6.5h-11v-2.4H765V570.2z M765.6,583.6l-1.4,2.1
			c-3.3-1.8-6-4.1-8.3-6.9l1.9-1.6C760,579.7,762.5,581.8,765.6,583.6z"/>
		<path class="st2" d="M794.1,582.7H784v2.4h7.8v2.4H784v3.5c0.6,0.1,1.3,0.1,1.8,0.1h8.9v2.4h-8.9c-4.5,0-7.9-1.3-10.1-3.9
			c-0.8,1.3-1.6,2.5-2.9,3.9l-2-1.5c1.9-2.1,3.4-4.8,4.6-7.8l2.4,0.6c-0.3,0.8-0.6,1.5-0.9,2.1c1.1,1.6,2.8,2.9,4.6,3.5v-7.8h-10.1
			v-2.4h22.7V582.7L794.1,582.7L794.1,582.7z M774.4,568.9h16.7v9.5h-16.7V568.9z M776.9,571.1v1.6h11.9v-1.6H776.9z M788.8,576.4
			v-1.6h-11.9v1.6H788.8z"/>
		<path class="st2" d="M806.6,568.7c-0.4,2-1,4.1-1.9,6.3v18.4h-2.4v-13.8c-0.5,0.9-1,1.6-1.6,2.3l-2-1.5c2.5-3,4.4-7,5.4-12
			L806.6,568.7z M814.3,576.1h-3v4.5h2.8v9.9h-7.8v-9.9h2.6v-4.5h-3v-2.4h3v-4.8h2.4v4.8h3V576.1z M811.6,588.1v-5h-3v5H811.6z
			 M817.7,585.3c-0.9-1.9-1.5-3.9-2-6.1c-0.3,0.4-0.5,0.8-0.9,1.1l-2-1.5c2.4-2.9,4-6.3,4.9-10l2.4,0.5c-0.3,1.1-0.6,2.4-1.1,3.8
			h5.5v2.4h-1.3c-0.5,3.6-1.5,7-2.8,9.9c1.1,2.5,2.6,4.6,4.5,6.4l-1.9,1.6c-1.6-1.8-3-3.6-4-5.4c-0.9,1.8-2.1,3.5-4,5.3l-1.9-1.4
			C815,590,816.5,587.8,817.7,585.3z M820.7,575.6H818l-0.5,0.8c0.4,2.1,0.9,4,1.6,5.9C819.9,580.1,820.4,577.9,820.7,575.6z"/>
		<path class="st2" d="M852.9,583.2h-8.4v6.5c0,0.8,0.4,1.3,1.3,1.3h4.1v-2.4h2.4v4.8h-6.5c-2.4,0-3.6-1.3-3.6-3.6v-6.5h-3.6
			c0,5.4-2.9,8.8-8.6,10.1l-0.9-2.3c4.8-1,7.1-3.6,7.1-7.9H829v-2.4h23.8v2.4L852.9,583.2L852.9,583.2z M829.7,571.3h10.1v-2.4h2.4
			v2.4h10.1v5.4H850v-3h-17.9v3h-2.4L829.7,571.3L829.7,571.3z M848.2,578.4h-14.3V576h14.3V578.4z"/>
		<path class="st2" d="M858.8,593.4l-1.8-1.8c2-2,3-4.6,3-7.9v-8.1h9.5v8.4h-7.1C862.4,587.8,861.2,591.1,858.8,593.4z M869.6,572.6
			h-10.8v-2.4h10.8V572.6z M862.4,581.5h4.8v-3.6h-4.8V581.5z M882,570.9c-2.3,1.1-4.9,1.8-7.6,2.1v4.9h8.4v2.4h-3v13.1h-2.4v-13.1
			h-3c-0.5,5.4-2.1,9.4-5.1,11.9l-1.8-1.6c3-2.6,4.5-6.9,4.4-12.6v-7.1h2c2.5-0.3,4.9-0.9,7.1-1.8L882,570.9z"/>
		<path class="st2" d="M907.6,593.4h-4.5V591h2.1v-2.6h-9.5v5h-2.4v-11.3c-1.4,1.4-2.9,2.5-4.6,3.4l-1.4-2.1
			c3.5-1.9,6.1-4.8,7.8-8.5H888v-2.4h8c0.4-1.1,0.6-2.3,0.8-3.6l2.4,0.1c-0.1,1.3-0.4,2.4-0.8,3.5h12.8v2.4h-13.4l-0.9,2.1h10.8
			L907.6,593.4L907.6,593.4z M905.3,581.5v-2.1h-9.5v2.1H905.3z M905.3,586v-2.1h-9.5v2.1H905.3z"/>
		<path class="st2" d="M923.3,569.6l-1.1,4.1h3.9V591h-8.9v-17.3h2.6l1.3-4.8L923.3,569.6z M923.7,581.2v-5h-4.1v5H923.7z
			 M923.7,588.6v-5h-4.1v5H923.7z M932.7,569.3c-0.3,1.6-0.6,3-1,4.4h8v13.1c0,4.4-2.1,6.5-6.5,6.5h-0.6V591h0.6
			c2.8,0,4.1-1.4,4.1-4.1v-10.8h-6.5c-0.6,1.8-1.5,3.1-2.5,4.5l-2.1-1.3c2.1-2.8,3.5-6.1,4.1-10.4L932.7,569.3z M930,581.8l1.6-1.6
			l3.4,3.4l-1.6,1.6L930,581.8z"/>
		<path class="st2" d="M946.8,570.2h9.5v-1.8h2.4v1.8h9.5v2.3h-9.5v1.4h7.1v5.8h-7.1v1.4h8.4v3.5h2.4v2.3h-2.4v3.5h-8.4v3.5h-4.1
			v-2.3h1.8v-1.3H948V588h8.4v-1.4h-10.8v-2.3h10.8V583H948v-2.3h8.4v-1.4h-7.1v-5.8h7.1v-1.4h-9.5L946.8,570.2L946.8,570.2z
			 M956.3,575.8h-4.8v1.4h4.8V575.8z M963.5,575.8h-4.8v1.4h4.8V575.8z M958.7,584.2h6v-1.4h-6V584.2z M958.7,587.7h6v-1.4h-6V587.7
			z"/>
		<path class="st2" d="M988.1,570.8l-0.5,15.5h-2.1l-0.5-15.5H988.1z M985.4,590h2.5v2.4h-2.5V590z"/>
		<path class="st2" d="M509.6,630.4c-0.3,0.8-0.6,1.4-1,2h8.1v2.4h-9.5c-0.6,0.9-1.3,1.6-1.9,2.4h8.6l2.4,0.3l-0.3,3.1
			c2.3-2.9,3.8-6.6,4.4-11l2.3,0.4c-0.3,1.5-0.6,3.1-1.1,5h6.4v2.3h-1.3c-0.3,4.4-1.1,8-2.8,11c1.1,1.9,2.6,3.5,4.5,4.9l-1.5,1.8
			c-1.9-1.4-3.4-2.8-4.4-4.4c-1.1,1.6-2.8,3.1-4.9,4.4l-1.4-1.8c2.1-1.3,3.8-2.9,5-4.8c-1-2-1.9-4.5-2.4-7.4
			c-0.4,0.6-0.8,1.1-1.3,1.8l-1.6-1.3l-0.1,1.6h1.8v2.4h-1.9l-0.3,3h1.6v2.4h-2l-0.4,4.1h-4.1v-2.1h1.9l0.3-2.1h-6.5l-0.1,1.8
			l-2.4-0.3l0.6-7h-1.8v-2.4h1.9l0.5-5.1c-0.3,0.3-0.5,0.5-0.8,0.8l-1.9-1.6c1.8-1.6,3.4-4,4.9-7.1L509.6,630.4z M508.7,644.9h-2
			l-0.3,3h2L508.7,644.9z M509.2,639.6h-2l-0.3,3h2L509.2,639.6z M511.2,644.9l-0.3,3h2.1l0.3-3H511.2z M511.6,639.6l-0.3,3h2.1
			l0.3-3H511.6z M520.7,636.9c0.3,3.4,0.9,6.1,1.9,8.4c1-2.3,1.6-5.1,1.9-8.4H520.7z"/>
		<path class="st2" d="M539.9,636.5h-2.4v6.4l1.6-0.5l0.9,2.3l-2.5,0.9v8.9h-4.1v-2.4h1.8v-5.6l-2.3,0.9l-0.8-2.3l3.1-1.3v-7.3h-3
			v-2.4h3v-4.8h2.4v4.8h2.4v2.4L539.9,636.5L539.9,636.5z M542.3,642.8h5.4v-1.6h-7.8v-2.1h7.8v-1.6h-6v-2.1h6v-1.6h-7.1v-2.1h7.1
			v-2.1h2.4v2.3h6.5v2.1H550v1.6h5.4v3.8h1.8v2.1h-1.9v3.8h-5.4v1.8h5.4v2.1h-5.4v3.4c0.8,0.1,1.5,0.3,2.4,0.3h4.8v2.1h-4.8
			c-4.1,0-7.3-1-9.4-3.1c-0.6,1.3-1.6,2.3-2.6,3.1l-1.6-1.6c1.9-1.5,3.1-3.8,3.5-6.9l2.3,0.3c-0.1,0.8-0.3,1.8-0.6,2.8
			c1,1.3,2.3,2.1,3.6,2.6v-6.6H542v-2.4h0.3V642.8z M552.9,639.1v-1.6h-3v1.6H552.9z M552.9,642.8v-1.6h-3v1.6H552.9z"/>
		<path class="st2" d="M585.1,631.2v2.4h-8.8c-0.5,1-0.9,1.8-1.4,2.4v18.5h-2.4v-15c-1.1,1.3-2.4,2.5-3.8,3.8
			c-1.9,1.5-3.8,2.8-5.8,3.8l-1.3-2.1c2.3-1.1,4.4-2.6,6.5-4.6c2-1.9,3.8-4,5.1-6.5h-11v-2.4h22.7v-0.3H585.1z M585.6,644.6
			l-1.4,2.1c-3.3-1.8-6-4.1-8.3-6.9l1.9-1.6C580.1,640.8,582.6,642.9,585.6,644.6z"/>
		<path class="st2" d="M614.1,643.7H604v2.4h7.8v2.4H604v3.5c0.6,0.1,1.3,0.1,1.8,0.1h8.9v2.4h-8.9c-4.5,0-7.9-1.3-10.1-3.9
			c-0.8,1.3-1.6,2.5-2.9,3.9l-2-1.5c1.9-2.1,3.4-4.8,4.6-7.8l2.4,0.6c-0.3,0.8-0.6,1.5-0.9,2.1c1.1,1.6,2.8,2.9,4.6,3.5v-7.8h-10.1
			v-2.4h22.8L614.1,643.7L614.1,643.7z M594.5,630h16.7v9.5h-16.7V630z M596.9,632v1.6h11.9V632H596.9z M608.7,637.4v-1.6h-11.9v1.6
			H608.7z"/>
		<path class="st2" d="M620.5,635.3l1.8,0.3l-1.1,7.1l-1.8-0.3L620.5,635.3z M623,630h2.4v24.4H623V630z M626,634.8l1.8-0.5l1.1,4
			l-1.8,0.5L626,634.8z M635.5,647.8c-1.3,2.9-3.8,5.1-7.5,6.5l-1-2.3c4.1-1.5,6.5-4.3,7.1-8.3h-6.9v-2.4h7.1v-5h-4.8V634h4.8v-4.1
			h2.4v4.1h5.4v7.4h2.4v2.4H637c0.6,3.9,3,6.6,7.1,8.3l-1,2.3C639.3,653,636.8,650.7,635.5,647.8z M636.7,641.6h3v-5h-3V641.6z"/>
		<path class="st2" d="M651.8,646.9c0.6-0.6,1.3-0.9,2.1-0.9s1.5,0.3,2.1,0.9c0.6,0.6,0.9,1.3,0.9,2.1c0,2-2,4.1-6,6.5l3-3.6
			c-0.9,0-1.5-0.3-2.1-0.9c-0.6-0.6-0.9-1.3-0.9-2.1C650.9,648.2,651.2,647.6,651.8,646.9z"/>
		<path class="st2" d="M669,631.2h23.8v2.4h-11.4l-1,3.6h11.3v17.3h-4.8v-2.4h2.4v-12.5h-4v13.1h-2.4v-13.1H679v13.1h-2.4v-13.1h-4
			v14.9h-2.4v-17.3h7.8l1-3.6h-10L669,631.2L669,631.2z"/>
		<path class="st2" d="M721.3,643.7h-10.1v2.4h7.8v2.4h-7.8v3.5c0.6,0.1,1.3,0.1,1.8,0.1h8.9v2.4H713c-4.5,0-7.9-1.3-10.1-3.9
			c-0.8,1.3-1.6,2.5-2.9,3.9l-2-1.5c1.9-2.1,3.4-4.8,4.6-7.8l2.4,0.6c-0.3,0.8-0.6,1.5-0.9,2.1c1.1,1.6,2.8,2.9,4.6,3.5v-7.8h-10.1
			v-2.4h22.7V643.7L721.3,643.7L721.3,643.7z M701.7,630h16.7v9.5h-16.7V630z M704,632v1.6h11.9V632H704z M715.9,637.4v-1.6H704v1.6
			H715.9z"/>
		<path class="st2" d="M727.7,635.3l1.8,0.3l-1.1,7.1l-1.8-0.3L727.7,635.3z M730.2,630h2.4v24.4h-2.4V630z M733.2,634.8l1.8-0.5
			l1.1,4l-1.8,0.5L733.2,634.8z M742.7,647.8c-1.3,2.9-3.8,5.1-7.5,6.5l-1-2.3c4.1-1.5,6.5-4.3,7.1-8.3h-7v-2.4h7.1v-5h-4.8V634h4.8
			v-4.1h2.4v4.1h5.4v7.4h2.4v2.4h-7.5c0.6,3.9,3,6.6,7.1,8.3l-1,2.3C746.5,653,744,650.7,742.7,647.8z M743.9,641.6h3v-5h-3V641.6z"
			/>
		<path class="st2" d="M762.3,639.6v8.8c1.5,2.5,4.6,3.8,9.5,3.8h8.4v2.4h-8.4c-4.5,0-7.9-1-10-2.9l-4,2.9l-1.4-2l3.6-2.4v-8.1h-3.6
			v-2.4L762.3,639.6L762.3,639.6z M759,630.4l3.5,3.3l-1.6,1.8l-3.5-3.3L759,630.4z M779.5,634.2H773v2.1h5.4v6.9h-4.1
			c1.9,1.9,3.9,3.4,6,4.3l-1.3,2.1c-1.8-0.8-3.8-2-6-4v5.4h-2.4v-5.4c-2,1.9-4,3.3-5.9,4l-1.1-2.1c2.3-1.1,4.1-2.5,5.8-4.1h-4.1
			v-6.9h5.4v-2.1h-6.5V632h6.5v-2.5h2.4v2.4h6.5v2.3H779.5z M770.6,638.7h-3v2.1h3V638.7z M776,638.7h-3v2.1h3V638.7z"/>
		<path class="st2" d="M808.1,633.5h-17.3v3.6h14l2.3,0.9c-1.3,4.1-3.1,7.5-5.6,10c2,1.9,4.5,3.3,7.8,4.1l-1,2.3
			c-3.5-1-6.4-2.5-8.5-4.5c-2.3,1.9-5.1,3.5-8.4,4.5l-1-2.3c2.9-0.9,5.5-2.3,7.8-4.1c-2-2.3-3.4-5.1-4.4-8.5H791v0.6
			c0,5.9-1.3,10.8-3.8,14.3l-2.1-1.3c2.4-3.3,3.6-7.6,3.6-13v-8.9h19.7v2.3L808.1,633.5L808.1,633.5z M799.8,646.3
			c1.6-1.8,3.1-4,4.3-6.8h-7.9C796.9,642.2,798.2,644.4,799.8,646.3z"/>
		<path class="st2" d="M828.2,629.2v2h10.1v2.1h-5.8l1.6,0.8l-0.9,1.6h4.4v1.8H833v1.1h4v1.8h-4v1.3h4v1.8h-4v1.1h4.8v1.8h-12.5
			v-6.8c-0.4,0.6-1,1.1-1.5,1.5l-0.9-1v6.1h-2.3v-5.3c-0.3,0.4-0.9,0.9-1.6,1.3l-0.9-1.1v1.5c0,4.5-0.8,8.3-2,11.4l-2.4-0.9
			c1.3-2.9,2-6.4,2-10.5v-11.3h10.1v-2L828.2,629.2L828.2,629.2z M820.1,648.3l2,1l-2,4.1l-2-1L820.1,648.3z M818.1,640.1
			c2.3-1.8,3.8-4,4.6-6.8h-4.6V640.1z M822.9,638.1v0.8c1.9-1.6,3.3-3.5,4.1-5.6h-3.9l1.9,0.6C824.2,635.5,823.6,637,822.9,638.1z
			 M822.9,648.2h2.3v2.6c0,1.1,0.5,1.6,1.6,1.6h5.8v-1.8h2.3v3.8h-8c-2.6,0-3.9-1.3-3.9-3.6L822.9,648.2L822.9,648.2z M827,648.2
			l1.4-1.8l2.6,2.3l-1.4,1.8L827,648.2z M828,635.7h3.3l1.3-2.4h-5.3l1.8,0.5C828.5,634.8,828.2,635.4,828,635.7z M827.6,637.3v1.1
			h3v-1.1H827.6z M830.6,641.4v-1.3h-3v1.3H830.6z M830.6,644.3v-1.1h-3v1.1H830.6z M837.6,653.3l-2-4.1l2-1l2,4L837.6,653.3z"/>
		<path class="st2" d="M857.2,631.8l-0.5,15.5h-2.1l-0.5-15.5H857.2z M854.3,650.9h2.5v2.4h-2.5V650.9z"/>
		<path class="st2" d="M236.1,677.4c0-1-0.4-1.8-1-2.5c-0.8-0.8-1.5-1.1-2.5-1.1s-1.9,0.4-2.5,1.1c-0.8,0.8-1,1.5-1,2.5v7.8
			c0,1,0.4,1.9,1,2.5c0.6,0.8,1.5,1,2.5,0.9c1,0,1.8-0.4,2.5-1.1c0.8-0.8,1-1.8,1-2.8v-1.8h-3v-2.1h5.4v10h-2.4v-1.3
			c-1,0.9-2.3,1.4-3.6,1.4c-1.6,0-3-0.6-4.3-1.8c-1.1-1.1-1.8-2.5-1.8-4.1v-7.6c0-1.6,0.6-3,1.8-4.1c1.1-1.1,2.5-1.8,4.3-1.8
			c1.6,0,3,0.6,4.3,1.8c1.1,1.1,1.8,2.5,1.8,4.1v1.1h-2.4v-1.1H236.1z"/>
		<path class="st2" d="M246,678.4c1.3-1.5,2.6-2.1,4.3-2.1c1.6,0,3.1,0.8,4.3,2.1c1.3,1.5,1.8,3.1,1.8,5.1s-0.6,3.8-1.8,5.1
			c-1.3,1.4-2.6,2.1-4.3,2.1c-1.6,0-3.1-0.8-4.3-2.1c-1.3-1.4-1.8-3.1-1.8-5.1C244.3,681.6,244.9,679.9,246,678.4z M247.8,687.3
			c0.8,1,1.6,1.5,2.6,1.5s1.9-0.5,2.6-1.5c0.8-1,1.1-2.3,1.1-3.6c0-1.4-0.4-2.6-1.1-3.6c-0.8-1-1.6-1.5-2.6-1.5s-1.9,0.5-2.6,1.5
			c-0.8,1-1.1,2.3-1.1,3.6S247,686.3,247.8,687.3z"/>
		<path class="st2" d="M261.5,678.4c1.3-1.5,2.6-2.1,4.3-2.1c1.6,0,3.1,0.8,4.3,2.1c1.3,1.5,1.8,3.1,1.8,5.1s-0.6,3.8-1.8,5.1
			c-1.3,1.4-2.6,2.1-4.3,2.1c-1.6,0-3.1-0.8-4.3-2.1c-1.3-1.4-1.8-3.1-1.8-5.1C259.8,681.6,260.3,679.9,261.5,678.4z M263.3,687.3
			c0.8,1,1.6,1.5,2.6,1.5s1.9-0.5,2.6-1.5s1.1-2.3,1.1-3.6c0-1.4-0.4-2.6-1.1-3.6c-0.8-1-1.6-1.5-2.6-1.5s-1.9,0.5-2.6,1.5
			c-0.8,1-1.1,2.3-1.1,3.6S262.5,686.3,263.3,687.3z"/>
		<path class="st2" d="M276.8,678.1c1.1-1.3,2.5-1.9,4.1-1.9c1.1,0,2.1,0.3,3,0.9v-0.6h2.4v13.1c0,1.5-0.5,2.9-1.6,4s-2.5,1.6-4,1.6
			s-2.9-0.5-4-1.6c-0.6-0.6-1-1.3-1.3-1.9h2.6c0.1,0.1,0.1,0.3,0.3,0.4c0.6,0.6,1.4,1,2.4,1c0.9,0,1.6-0.4,2.3-1
			c0.6-0.6,1-1.5,1-2.4V688c-0.9,0.6-1.9,0.9-3,0.9c-1.6,0-3-0.6-4.1-1.9c-1.1-1.3-1.8-2.8-1.8-4.4
			C275.1,680.9,275.7,679.4,276.8,678.1z M278.6,679.7c-0.8,0.8-1.1,1.8-1.1,2.9c0,1.1,0.4,2,1.1,2.9c0.8,0.8,1.8,1.1,2.9,1.1
			c0.9,0,1.8-0.3,2.4-0.8v-6.4c-0.8-0.5-1.5-0.8-2.4-0.8C280.3,678.5,279.4,678.9,278.6,679.7z"/>
		<path class="st2" d="M290.3,671.7h2.4v16.7h0.9v2.4h-3.3V671.7z"/>
		<path class="st2" d="M298.3,678.4c1.1-1.5,2.6-2.1,4.3-2.1c1.6,0,3,0.8,4.3,2.1c1.1,1.5,1.8,3.1,1.8,5.1v0.9h-9.4
			c0.1,1,0.5,2,1,2.8c0.6,1,1.5,1.5,2.5,1.5s1.8-0.5,2.5-1.5c0.3-0.3,0.4-0.6,0.5-1h2.5c-0.3,0.9-0.8,1.8-1.4,2.5
			c-1.1,1.4-2.6,2.1-4.3,2.1s-3-0.8-4.3-2.1c-1.1-1.4-1.8-3.1-1.8-5.1C296.6,681.6,297.2,679.9,298.3,678.4z M302.6,678.5
			c-1,0-1.9,0.5-2.5,1.5c-0.5,0.8-0.9,1.5-1,2.4h7c-0.1-0.9-0.5-1.8-1-2.4C304.4,679,303.6,678.5,302.6,678.5z"/>
		<path class="st2" d="M313.2,686.1l1.6-1.6l5.9,5.9l-1.6,1.6L313.2,686.1z"/>
		<path class="st2" d="M338.2,671.7h2.6l5,19h-2.6l-1.3-4.8H337l-1.3,4.8h-2.6L338.2,671.7z M337.7,683.9h3.8l-1.9-7.5L337.7,683.9z
			"/>
		<path class="st2" d="M361.1,686.9c-1.1,1.3-2.5,1.9-4.1,1.9c-1.3,0-2.4-0.4-3.4-1.3v7.5h-2.4v-18.5h2.4v0.9c1-0.8,2.1-1.3,3.4-1.3
			c1.6,0,3,0.6,4.1,1.9c1.1,1.3,1.8,2.8,1.8,4.4C362.8,684.3,362.2,685.8,361.1,686.9z M359.2,679.7c-0.8-0.8-1.8-1.3-2.9-1.3
			s-2,0.4-2.8,1.3v5.6c0.8,0.8,1.8,1.3,2.8,1.3c1.1,0,2.1-0.4,2.9-1.1c0.8-0.8,1.1-1.8,1.1-2.9C360.5,681.4,360,680.5,359.2,679.7z"
			/>
		<path class="st2" d="M376.2,686.9c-1.1,1.3-2.5,1.9-4.1,1.9c-1.3,0-2.4-0.4-3.4-1.3v7.5h-2.4v-18.5h2.4v0.9c1-0.8,2.1-1.3,3.4-1.3
			c1.6,0,3,0.6,4.1,1.9s1.8,2.8,1.8,4.4C378,684.3,377.4,685.8,376.2,686.9z M374.4,679.7c-0.8-0.8-1.8-1.3-2.9-1.3s-2,0.4-2.8,1.3
			v5.6c0.8,0.8,1.8,1.3,2.8,1.3c1.1,0,2.1-0.4,2.9-1.1c0.8-0.8,1.1-1.8,1.1-2.9C375.6,681.4,375.1,680.5,374.4,679.7z"/>
		<path class="st2" d="M381.9,671.7h2.4v16.7h0.9v2.4h-3.3V671.7z"/>
		<path class="st2" d="M389.9,678.4c1.1-1.5,2.6-2.1,4.3-2.1s3,0.8,4.3,2.1c1.1,1.5,1.8,3.1,1.8,5.1v0.9h-9.4c0.1,1,0.5,2,1,2.8
			c0.6,1,1.5,1.5,2.5,1.5s1.8-0.5,2.5-1.5c0.3-0.3,0.4-0.6,0.5-1h2.5c-0.3,0.9-0.8,1.8-1.4,2.5c-1.1,1.4-2.6,2.1-4.3,2.1
			c-1.6,0-3-0.8-4.3-2.1c-1.1-1.4-1.8-3.1-1.8-5.1C388.1,681.6,388.7,679.9,389.9,678.4z M394.1,678.5c-1,0-1.9,0.5-2.5,1.5
			c-0.5,0.8-0.9,1.5-1,2.4h7c-0.1-0.9-0.5-1.8-1-2.4C395.9,679,395.1,678.5,394.1,678.5z"/>
		<path class="st2" d="M404.8,686.1l1.6-1.6l5.9,5.9l-1.6,1.6L404.8,686.1z"/>
		<path class="st2" d="M431.6,671.7c1.5,0,2.9,0.5,4,1.6s1.6,2.5,1.6,4s-0.5,2.9-1.6,4s-2.5,1.6-4,1.6h-4v7.8h-2.4v-19L431.6,671.7
			L431.6,671.7z M427.6,680.9h4c0.9,0,1.6-0.4,2.3-1c0.6-0.6,1-1.5,1-2.4s-0.4-1.8-1-2.4c-0.6-0.6-1.4-1-2.3-1h-4V680.9z"/>
		<path class="st2" d="M454.2,681.4v2.4h2.4v2.4h-2.5c-0.3,1.1-0.8,2.1-1.6,3c-1.1,1.1-2.6,1.8-4.3,1.8h-0.6c-1.6,0-3-0.6-4.3-1.8
			c-1.1-1.1-1.8-2.5-1.8-4.3v-1.3c0-1.6,0.6-3,1.8-4.3c0.9-0.9,1.9-1.4,3-1.6v-0.1v-2.4c0-1,0.4-1.8,1-2.5s1.5-1,2.5-1
			s1.8,0.4,2.5,1c0.8,0.8,1,1.5,1,2.5c0,1.4-0.5,2.4-1.4,3.4c-0.9,0.9-2,1.4-3.4,1.4v1.3c0,0.6,0.3,1.3,0.8,1.6
			c0.5,0.5,1,0.8,1.6,0.8h0.6v-2.4L454.2,681.4L454.2,681.4L454.2,681.4z M450.9,687.4c0.4-0.4,0.6-0.9,0.9-1.4h-0.4
			c-1.4,0-2.4-0.5-3.4-1.4c-0.9-0.9-1.4-2-1.4-3.4v-1c-0.5,0.1-0.9,0.5-1.4,0.9c-0.8,0.8-1,1.5-1,2.5v1.3c0,1,0.4,1.9,1,2.5
			c0.6,0.8,1.5,1,2.5,1h0.6C449.2,688.5,450.1,688.1,450.9,687.4z M450.1,674.1c-0.4,0-0.6,0.1-0.9,0.4c-0.3,0.3-0.4,0.5-0.4,0.9
			v2.4c0.6,0,1.3-0.3,1.6-0.8c0.5-0.5,0.8-1,0.8-1.6c0-0.4-0.1-0.6-0.4-0.9C450.7,674.2,450.4,674.1,450.1,674.1z"/>
		<path class="st2" d="M471.6,677.4c0-1-0.4-1.8-1-2.5c-0.8-0.8-1.5-1.1-2.5-1.1s-1.9,0.4-2.5,1.1c-0.6,0.8-1,1.5-1,2.5v7.8
			c0,1,0.4,1.9,1,2.5c0.6,0.8,1.5,1,2.5,0.9c1,0,1.8-0.4,2.5-1.1c0.8-0.8,1-1.8,1-2.8v-1.8h-3v-2.1h5.4v10h-2.4v-1.3
			c-1,0.9-2.3,1.4-3.6,1.4c-1.6,0-3-0.6-4.3-1.8c-1.1-1.1-1.8-2.5-1.8-4.1v-7.6c0-1.6,0.6-3,1.8-4.1c1.1-1.1,2.5-1.8,4.3-1.8
			c1.6,0,3,0.6,4.3,1.8c1.1,1.1,1.8,2.5,1.8,4.1v1.1h-2.4L471.6,677.4L471.6,677.4z"/>
		<path class="st2" d="M480,669.7h11.3V668h2.4v1.8H505v4.1h-1.8v0.5h-3.6v1.1h5.4v1.8h-1.3v2.9h-10.8v-2.9h-1.3v-1.8h2.3l-1.4-1.3
			l2.5-2.8h-12.9v1.1h8.9v1.6h-3.1v1.1h2.3v1.6h-2.3v1.1l3.1-0.4l0.3,1.6l-10,1.4l-0.3-1.6l4.5-0.6V677h-2.8v-1.6h2.8v-1.1h-3.6
			v-0.4h-2.3v-4.1h0.4V669.7z M483.5,680.9h17.9v9.6h-12.1l0.4,1.9l-8.3,1.4l-0.4-1.9l8.1-1.4h-5.6V680.9z M485.9,682.6v0.9H499
			v-0.9H485.9z M485.9,685.3v0.9H499v-0.9H485.9z M485.9,688v0.9H499V688H485.9z M497.3,674.4h-1.9l-1,1.1h3v-1.1H497.3z
			 M495.7,690.6l8.3,1.4l-0.4,1.9l-8.3-1.5L495.7,690.6z M497.3,678.4v-1.1h-1.8v1.1H497.3z M496.6,671.5l0.8,0.8l-0.4,0.4h5.6v-1.1
			L496.6,671.5L496.6,671.5z M501.4,677.2h-1.8v1.1h1.8V677.2z"/>
		<path class="st2" d="M517.1,669.1c-0.5,2.1-1.4,4.4-2.5,6.8v17.4h-2.4v-13.5c-0.5,0.8-1.1,1.5-1.8,2.1l-1.9-1.6
			c2.8-2.9,4.8-6.8,6.1-11.6L517.1,669.1z M531,670.6c-1.6,0.4-3.3,0.5-4.8,0.8c-0.3,0.6-0.5,1.3-0.8,1.8h8v2h-4.8
			c1.3,1.5,3.1,3,5.5,4.3l-1.3,2.1c-1.4-0.6-2.6-1.5-3.8-2.6v2.3h-9v-1.9c-0.8,0.8-1.8,1.5-2.9,2.3l-1.5-2c2-1.3,3.6-2.6,5-4.4h-4.3
			v-2h6c0.4-0.5,0.6-1,0.8-1.5c-1.4,0.1-3.1,0.1-5.1,0.1l-0.1-2.1c5,0,9-0.4,12-1L531,670.6z M533,682.4v10.9h-4.1V691h1.8v-6.4H519
			v8.6h-2.4v-10.9L533,682.4L533,682.4z M528.7,685.8v5.1h-8v-5.1H528.7z M526.7,678h-4.1v1.1h4.1V678z M526.4,689v-1.3h-3.3v1.3
			H526.4z M524,675.1c-0.1,0.3-0.4,0.6-0.5,0.9h2.6c-0.3-0.3-0.4-0.6-0.6-0.9H524z"/>
		<path class="st2" d="M538.9,676.5h5.4v-2.4h-3.6v-2.4h3.6v-3h2.4v3h3v1.8c0.6-0.8,1.3-1.5,1.9-2.3l1.9,1.4
			c-1.1,1.5-2.3,2.8-3.4,3.9h2v2.4h-4.4c-0.6,0.5-1.3,1-1.8,1.5c-0.4,0.3-0.8,0.6-1.3,0.9h6.3v11.9h-9.5v-9.8
			c-0.6,0.4-1.4,0.9-2.3,1.4l-1.1-2c2.5-1.4,4.6-2.6,6.3-3.9h-5.1v-2.4L538.9,676.5L538.9,676.5z M548.4,686.1v-2.4h-4.8v2.4H548.4z
			 M548.4,690.9v-2.4h-4.8v2.4H548.4z M546.6,676.5h0.3c0.8-0.8,1.5-1.5,2.3-2.4h-2.5L546.6,676.5L546.6,676.5z M559.8,677.9
			l1.1,1.6c1.5,2.1,2.4,4,2.4,5.4c0,2.8-1.4,4.1-4.1,4.1h-1.8v-2.4h1.8c1.3,0,1.8-0.6,1.8-1.8c0-0.9-0.6-2.3-1.9-4l-1.9-2.6l2.4-5.9
			h-3.4v20.9h-2.4V670h6.8l2.3,0.9L559.8,677.9z"/>
		<path class="st2" d="M568.6,671.7h7.1c0.3-1,0.5-2,0.6-3l2.4,0.3c-0.1,1-0.4,1.9-0.6,2.8h13.6v2.4h-14.3c-0.9,2.6-2,4.9-3.6,6.9
			v12.3h-2.3v-9.6c-0.9,0.9-1.9,1.6-2.9,2.3l-1.6-2c3.5-2.3,6.1-5.5,7.8-9.8h-6.3L568.6,671.7L568.6,671.7z M576.3,690.9h6.5v-7.8
			h-5.4v-2.4h5.4V676h2.4v4.8h5.4v2.4h-5.4v7.8h6.5v2.4h-15.5L576.3,690.9L576.3,690.9L576.3,690.9z"/>
		<path class="st2" d="M620,693.3h-4.8v-2.4h2.4v-7.1h-6.8v8.4h-2.4v-8.4h-6.8c-0.3,3.8-1.1,6.9-2.5,9.5l-2.3-1
			c1.5-3,2.4-6.8,2.5-11.3v-11.5H620V693.3z M608.5,675.4v-3.6h-6.6v3.6H608.5z M608.5,681.4v-3.6h-6.6v3.6H608.5z M617.6,675.4
			v-3.6h-6.8v3.6H617.6z M617.6,681.4v-3.6h-6.8v3.6H617.6z"/>
		<path class="st2" d="M632.9,669.5l-1.1,4.1h3.9v17.3h-8.9v-17.3h2.6l1.3-4.8L632.9,669.5z M633.3,681v-5h-4.1v5H633.3z
			 M633.3,688.5v-5h-4.1v5H633.3z M642.4,669.1c-0.3,1.6-0.6,3-1,4.4h8v13.1c0,4.4-2.1,6.5-6.5,6.5h-0.6v-2.4h0.6
			c2.8,0,4.1-1.4,4.1-4.1v-10.8h-6.5c-0.6,1.8-1.5,3.1-2.5,4.5l-2.1-1.3c2.1-2.8,3.5-6.1,4.1-10.4L642.4,669.1z M639.8,681.6
			l1.6-1.6l3.4,3.4l-1.6,1.6L639.8,681.6z"/>
		<path class="st2" d="M655.8,668.9h22.7v24.4h-22.7V668.9z M676.7,691.4v-20.9h-8.4v2h6v1.6h-6v1.1h5v6.6l0.3-0.1l1.1,2.6l-1.8,0.8
			l-0.4-0.8l-0.9,0.1v1.3h3.3v1.5h-3.3v3.5H668v-1.3h1.4v-2.1H663l2.1,1.3l-0.8,1.3l-2.5-1.4l0.6-1.1H659v-1.5h10.4v-1.1l-9.3,0.8
			L660,684l6-0.5v-1h-5v-7h5v-1.1h-6.6v-1.6h6.6v-2h-8.4v20.9h19v-0.3H676.7z M666.1,678v-1.1h-2.6v1.1H666.1z M666.1,680.7v-1.1
			h-2.6v1.1H666.1z M671.1,676.9h-2.8v1.1h2.8V676.9z M671.1,679.6h-2.8v1.1h2.8V679.6z M668.5,683.1l3.8-0.3l-0.1-0.4l0.5-0.3h-4.1
			L668.5,683.1L668.5,683.1z"/>
		<path class="st2" d="M685,669.7h6l2,0.6l-2.4,7.9l1,2c0.8,1.8,1.1,3.4,1.3,4.8c0,2.4-1.3,3.6-3.6,3.6h-0.6v-2.1h0.6
			c0.8,0,1.3-0.5,1.3-1.5s-0.3-2.3-0.9-3.8l-1.1-2.6l0,0l0,0l2-6.8h-3v21.4h-2.4v-23.5L685,669.7L685,669.7z M700.4,677.4
			c0.6,0.9,1.1,1.9,1.6,2.9l3.1-3l1.5,1.5l-3.8,3.8c1.5,2.5,3.5,4.6,5.8,6.1l-1.4,1.9c-1.3-0.8-2.6-1.9-4-3.5v1.5
			c0,2.1-0.6,3.6-1.8,4.6h-2.8v-2.3h1.6c0.5-0.5,0.8-1.4,0.8-2.5c0-0.3,0-0.8-0.1-1.4c-2.5,2.5-5.5,4.3-8.8,5.4l-0.8-2.1
			c3.6-1.3,6.8-3.4,9.1-6.4c-0.1-0.4-0.3-0.9-0.4-1.6c-1.6,1.5-3.5,2.8-5.6,3.8l-0.8-2.1c1.9-0.9,3.6-2.1,5.5-3.9
			c-0.3-0.4-0.6-0.9-1-1.4c-1.4,0.9-2.9,1.6-4.5,2.3l-0.8-2.1c2.3-0.9,4.4-2,6.3-3.6h-6.8V673h8.4l2.5-4.1l1.9,1.1l-1.9,3h3.9v2.3
			h-4.9C702,676,701.3,676.7,700.4,677.4z M695.3,670l1.9-1.1l1.8,2.9l-1.9,1.1L695.3,670z"/>
		<path class="st2" d="M718.4,670.6h6v2.1h-2.8l0.6,1.9l-2.3,0.8l-1-2.6h-1.6c-0.6,1.1-1.4,2-2.1,2.8l-2-1.4
			c1.5-1.6,2.6-3.6,3.6-5.9l2.4,0.5C719.1,669.5,718.7,670.1,718.4,670.6z M714.2,676.2h10.1v-1.8h2.4v1.8h10.1v5h-2.4v-3h-17.9v3
			h-2.4L714.2,676.2L714.2,676.2z M732.6,679.7v5.5h-11.9v1.6h12.5v6.4h-14.9v-13.5H732.6z M730.2,683.3v-1.5h-9.5v1.5H730.2z
			 M730.8,691.3v-2.4h-10.1v2.4H730.8z M729.8,670.6h7.3v2.1h-4l0.8,1.8l-2.3,0.8l-1-2.5h-1.8c-0.4,0.6-0.9,1.3-1.3,1.9l-2.1-1.3
			c1.1-1.5,2.1-3.1,3-5.1l2.4,0.5C730.5,669.5,730.2,670.1,729.8,670.6z"/>
		<path class="st2" d="M751,673h-3v4.8h2.4v2.4H748v6l3-0.8l0.6,2.3l-8.9,2.4l-0.6-2.3l3.6-1v-6.6h-2.4v-2.4h2.4V673h-3v-2.4h8.4
			L751,673L751,673z M765.9,669.4v13.1h-5.4v2.4h4.8v2.4h-4.8v3.6h6.5v2.4h-16.7v-2.4h7.8v-3.6h-4.8v-2.4h4.8v-2.4h-5.4v-13.1H765.9
			z M758.1,674.7v-3h-3v3H758.1z M758.1,677.1h-3v3h3V677.1z M760.5,674.7h3v-3h-3V674.7z M763.5,677.1h-3v3h3V677.1z"/>
		<path class="st2" d="M775,683.5l2.1,1l-3.6,8.1l-2.1-1L775,683.5z M772.8,675.5l4.4,3l-1.4,2l-4.4-3L772.8,675.5z M773.9,669.4
			l4.4,3.1l-1.4,2l-4.4-3.1L773.9,669.4z M793.2,676h-5.4v4.1h7.8v2.4h-8.9h-0.1l-2.3,6.9l6.9-0.8l-2.5-3.6l2-1.3l5.6,8.3l-2,1.3
			l-1.6-2.4l-15.3,1.6l-0.3-2.4l4.5-0.5l2.3-7.1h-6.3v-2.4h7.8V676H780v-2.4h5.4v-4.8h2.4v4.8h5.4L793.2,676L793.2,676z"/>
		<path class="st2" d="M803.6,685.8c0.6-0.6,1.3-0.9,2.1-0.9s1.5,0.3,2.1,0.9c0.6,0.6,0.9,1.3,0.9,2.1c0,2-2,4.1-6,6.5l3-3.6
			c-0.9,0-1.5-0.3-2.1-0.9c-0.6-0.6-0.9-1.3-0.9-2.1C802.7,687,803,686.4,803.6,685.8z"/>
		<path class="st2" d="M828.5,678.4v0.6l4.5,4.5l-1.6,1.6l-2.8-2.8v10.9h-2.4v-9.4c-1,1.6-2.1,3.1-3.6,4.3l-1.6-1.6
			c2.4-2,4.1-4.6,5-8h-4.5v-2.4h4.8v-3c-1.1,0.3-2.5,0.5-3.9,0.6l-0.5-2.4c3.4-0.5,6.5-1.3,9.4-2.3l0.9,2.4
			c-1.3,0.4-2.5,0.8-3.6,1.1v3.6h4.1v2.4h-4.1v-0.1H828.5z M838,671.7v15.5h-2.4v-15.5H838z M843.9,669.4v23.8h-4.8v-2.4h2.4v-21.4
			L843.9,669.4L843.9,669.4z"/>
		<path class="st2" d="M872.8,693.3H868v-2.4h2.4v-7.1h-6.8v8.4h-2.4v-8.4h-6.8c-0.3,3.8-1.1,6.9-2.5,9.5l-2.3-1
			c1.5-3,2.4-6.8,2.5-11.3v-11.5h20.5L872.8,693.3L872.8,693.3z M861.3,675.4v-3.6h-6.6v3.6H861.3z M861.3,681.4v-3.6h-6.6v3.6
			H861.3z M870.4,675.4v-3.6h-6.8v3.6H870.4z M870.4,681.4v-3.6h-6.8v3.6H870.4z"/>
		<path class="st2" d="M886.5,675.4c-1.5,4.8-3.3,9-5.4,12.5l-2.1-1.4c2.1-3.4,3.8-7.4,5.1-11.9L886.5,675.4z M892.1,669.4v23.8
			h-4.8v-2.4h2.4v-21.4L892.1,669.4L892.1,669.4z M902.7,686.6l-2.1,1.4c-2.1-3.6-3.9-7.8-5.4-12.5l2.4-0.6
			C899,679.2,900.7,683.3,902.7,686.6z"/>
		<path class="st2" d="M921.2,668.2v3.3h8.4v2.4h-8.4v3.3H932v2.4h-10.8v8.4h-4.8v-2.4h2.4v-6H908v-2.4h4.1v-5.6h2.4v5.6h4.1v-8.9
			L921.2,668.2L921.2,668.2z M914,680.9l1.8,1.5c-2,2.4-4.1,4.1-6.6,5.4l-0.9-2.4C910.4,684.5,912.3,682.9,914,680.9z M925.8,684.8
			l1.8,1.8c-4.1,4.3-9.6,6.4-16.8,6.6l-0.5-2.4C916.6,690.8,921.8,688.8,925.8,684.8z M924.4,682.6l1.3-2.1c2.8,1.5,4.8,3,6.3,4.5
			l-1.8,1.8C928.5,685.3,926.7,683.9,924.4,682.6z"/>
		<path class="st2" d="M937.7,674.1l1.8,0.3l-1.1,7.1l-1.8-0.3L937.7,674.1z M940.2,668.9h2.4v24.4h-2.4V668.9z M943.2,673.6
			l1.8-0.5l1.1,4l-1.8,0.5L943.2,673.6z M952.7,686.6c-1.3,2.9-3.8,5.1-7.5,6.5l-1-2.3c4.1-1.5,6.5-4.3,7.1-8.3h-6.9v-2.4h7.1v-5
			h-4.8v-2.4h4.8v-4.1h2.4v4.1h5.4v7.4h2.4v2.4h-7.5c0.6,3.9,3,6.6,7.1,8.3l-1,2.3C956.5,691.8,954,689.6,952.7,686.6z M953.8,680.4
			h3v-5h-3V680.4z"/>
		<path class="st2" d="M966.2,669.4h9v8.5h-3v3.4h3v2.3h-3v5.3l2.5-0.6l0.5,2.1l-9.8,2.4l-0.5-2.3l1.1-0.3v-9h2.3v8.4l1.5-0.4v-11.4
			H966v-8.4H966.2z M972.9,675.5v-3.6h-4.1v3.6H972.9z M981.1,671.7h8.4v11.9c0,2.4-1.3,3.6-3.6,3.6h-1.3v-2.4h1.3
			c0.8,0,1.3-0.4,1.3-1.3V674h-7c-0.4,0.9-0.9,1.6-1.4,2.4h6v7.1H980v6c0,0.8,0.4,1.3,1.3,1.3h7.1v-2.4h2.4v4.8h-9.5
			c-2.4,0-3.6-1.3-3.6-3.6v-11.5l-0.4,0.5l-2-1.5c2.1-2.6,3.6-5.5,4.4-8.9l2.5,0.4C981.9,669.9,981.5,670.9,981.1,671.7z
			 M982.4,681.4V679H980v2.4H982.4z"/>
		<path class="st2" d="M996,686.1l1.6-1.6l5.9,5.9l-1.6,1.6L996,686.1z"/>
		<path class="st2" d="M1023.6,676h-3v5.3l2.1-0.8l0.9,2.3l-3,1.1v9.5h-4.1V691h1.8v-6.3l-2.8,1l-0.8-2.3l3.6-1.3V676h-3.6v-2.4h3.6
			V669h2.4v4.8h3v2.3L1023.6,676L1023.6,676z M1037.9,674.7h-4.8v3h6.5v2.4h-4.1v2.4h3.6v2.4h-3.6v8.4h-4.8v-2.4h2.4v-6h-7.8v-2.4
			h7.8v-2.4h-8.9v-2.4h6.5v-3h-4.8v-2.4h4.8v-3.6h2.4v3.6h4.8V674.7L1037.9,674.7z M1026.2,687.5l1.8-1.8l2.5,2.5l-1.8,1.8
			L1026.2,687.5z"/>
		<path class="st2" d="M1050.4,669.1l-3.5,6l1.6,0.9l2.9-5l1.8,1l-4.3,7.5h2.1l-0.3-2l2-0.3l0.8,5.5l-2,0.3l-0.3-1.5h-1.4v12h-2v-12
			h-4.1v-2h2.8l1-1.8l-3.3-1.9l4.4-7.8L1050.4,669.1z M1045,683.8l2,0.4l-1.3,7.1l-2-0.4L1045,683.8z M1050.5,684.6l2-0.4l0.9,4.9
			l-1.8,0.4L1050.5,684.6z M1053.8,691.9l5.5-1.5l0.4,1.6l-5.5,1.5L1053.8,691.9z M1053.9,669.2h6.3V668h2.3v1.3h6.3v1.6h-6.3v0.8
			h5.1v1.6H1055v-1.6h5.1v-0.8h-6.3L1053.9,669.2L1053.9,669.2z M1053.9,674.1h14.8v6.5h-14.9L1053.9,674.1L1053.9,674.1z
			 M1055,681.4h12.5v8.9H1055V681.4z M1066.4,679v-0.8h-1.8c-1.9,0-2.9-0.6-2.9-2v-0.5h-1.4c-0.3,1.8-1.6,2.8-4.1,2.9l-0.3-0.6v1
			L1066.4,679L1066.4,679z M1056.1,677c1.1-0.1,1.8-0.5,2-1.3h-2V677z M1057.3,683v0.8h8V683H1057.3z M1065.3,685.4h-8v0.8h8V685.4z
			 M1065.3,688.6v-0.9h-8v0.9H1065.3z M1063.3,690.4l5.5,1.5l-0.4,1.6l-5.5-1.5L1063.3,690.4z M1064.1,675.7v0.4
			c0,0.3,0.3,0.4,0.6,0.4h1.8v-0.8L1064.1,675.7L1064.1,675.7z"/>
		<path class="st2" d="M1078.8,678.4v8.8c1.5,2.5,4.6,3.8,9.5,3.8h9.5v2.4h-9.5c-4.5,0-7.9-1-10-2.9l-4,2.9l-1.4-2l3.6-2.4v-8.1
			h-3.6v-2.4L1078.8,678.4L1078.8,678.4z M1075.5,669.4l3.5,3.3l-1.6,1.8l-3.5-3.3L1075.5,669.4z M1080.7,678.4h6.9
			c0.1-1.1,0.3-2.3,0.3-3.6h-3.4c-0.5,0.9-1,1.8-1.6,2.6l-1.9-1.4c1.4-1.9,2.4-3.9,3-6.3l2.3,0.4c-0.1,0.9-0.4,1.6-0.5,2.3h2.1v-3.6
			h2.4v3.6h5.4v2.4h-5.4c0,1.3-0.1,2.5-0.3,3.6h6.8v2.4h-5.8c1,2.9,2.8,5,5.4,6.3l-1.3,2.1c-2.9-1.4-5-3.6-6.1-6.9
			c-1.1,3.1-3.3,5.4-6,6.8l-1.3-2.1c2.6-1.3,4.4-3.4,5.3-6.3h-6.3V678.4L1080.7,678.4z"/>
		<path class="st2" d="M1110.5,669.4c-0.5,2.1-1.4,4.4-2.5,6.8v17.2h-2.4V680c-0.5,0.8-1.1,1.5-1.8,2.1l-1.9-1.6
			c2.8-2.9,4.8-6.8,6.1-11.6L1110.5,669.4z M1126.4,678.4h-7.8c0.3,6,2,10.1,5.4,12.5l0.8-2.1l2.3,0.8l-1.3,3.6l0,0h-2.3
			c-4.5-2.4-6.9-7.3-7.1-14.9h-6v-2.4h6v-7.1h2.4v7.1h7.8v2.5L1126.4,678.4L1126.4,678.4z M1122,669.2l3.4,3.4l-1.6,1.6l-3.4-3.4
			L1122,669.2z"/>
		<path class="st2" d="M1134.4,685.8c0.6-0.6,1.3-0.9,2.1-0.9c0.8,0,1.5,0.3,2.1,0.9c0.6,0.6,0.9,1.3,0.9,2.1c0,2-2,4.1-6,6.5l3-3.6
			c-0.9,0-1.5-0.3-2.1-0.9c-0.6-0.6-0.9-1.3-0.9-2.1S1133.8,686.4,1134.4,685.8z"/>
		<path class="st2" d="M387.7,710.5h7.1c0.3-1,0.5-2,0.6-3l2.4,0.3c-0.1,1-0.4,1.9-0.6,2.8h13.6v2.4h-14.3c-0.9,2.6-2,4.9-3.6,6.9
			v12.3h-2.4v-9.6c-0.9,0.9-1.9,1.6-2.9,2.3l-1.6-2c3.5-2.3,6.1-5.5,7.8-9.8h-6.3v-2.4h0.2V710.5z M395.4,729.7h6.5v-7.8h-5.4v-2.4
			h5.4v-4.8h2.4v4.8h5.4v2.4h-5.4v7.8h6.5v2.4h-15.5v-2.4H395.4z"/>
		<path class="st2" d="M429.3,707v2.1h10.8v2.4h-23.8v-2.4h10.8V707H429.3z M439.5,720.1v12h-4.8v-2.3h2.4v-7.4h-17.9v9.6h-2.4v-12
			h22.7V720.1z M435.3,712.9v5.9H421v-5.9H435.3z M433.8,723.9v5.6h-11.3v-5.6H433.8z M433,715.1h-9.5v1.8h9.5V715.1z M431.4,727.5
			V726h-6.5v1.5H431.4z"/>
		<path class="st2" d="M459,707v2.4h9.5v2.4h-5.4v1.8h4.8v2.4h-4.8v4.1h-9.5V716h-3.5v-2.4h3.6v-1.8h-4.1v6.5
			c-0.1,4.9-0.9,9-2.5,12.3l-2.3-1c1.5-3,2.3-6.6,2.4-11.3v-8.9h9.5V707H459z M451.9,721.9h11.9l2.3,1.5c-1.4,1.9-2.9,3.4-4.6,4.5
			c1.9,0.9,4.3,1.6,7,2l-0.6,2.1c-3.6-0.8-6.5-1.6-8.8-2.8c-2.1,1-5.1,2-9,2.8l-0.5-2c2.5-0.4,5-1,7.5-2c-1.4-1-2.5-2.3-3.4-3.6
			h-1.8V721.9L451.9,721.9z M456.1,711.8v1.8h4.8v-1.8H456.1z M460.9,717.8V716h-4.8v1.8H460.9z M462.2,724.3h-5.6
			c0.8,1,1.6,1.9,2.6,2.5C460.4,726.2,461.2,725.3,462.2,724.3z"/>
		<path class="st2" d="M497.7,708.8v2.4h-8.8c-0.5,1-0.9,1.8-1.4,2.4v18.5h-2.4v-15c-1.1,1.3-2.4,2.5-3.8,3.8
			c-1.9,1.5-3.8,2.8-5.8,3.8l-1.3-2.1c2.3-1.1,4.4-2.6,6.5-4.6c2-1.9,3.8-4,5.1-6.5h-11v-2.4h22.7v-0.3H497.7z M498.3,722.2
			l-1.4,2.1c-3.3-1.8-6-4.1-8.3-6.9l1.9-1.6C492.7,718.4,495.3,720.6,498.3,722.2z"/>
		<path class="st2" d="M504.2,709.2h8.5v2.3h-3.3c-0.1,2.3-0.6,4.1-1.3,5.8h3.9v12.5h-6.8v-8.6l-0.8,0.8l-1.6-1.8
			c2.4-1.9,3.8-4.8,4.1-8.6h-3v-2.3h0.3V709.2z M509.8,727.5v-8h-2.1v8H509.8z M513,710.5h5.4c0.4-1,0.6-2.1,0.8-3.4l2.3,0.3
			c-0.3,1.1-0.4,2.1-0.6,3h7.1v4.4h-2.3v-2H520c-0.5,1.4-1,2.5-1.8,3.6h2.4l1.9-3.3l2,1.1l-1.3,2.1h4v2.3h-4.4v2.1h3.3v2.3h-3.3v2.1
			h3.3v2.3h-3.3v2.1h4.4v2.3h-12v-11.6l-1.1,1.1l-1.6-1.8c2.1-1.9,3.8-4.1,5-6.9h-2.3v2H513V710.5z M517.6,720.9h3v-2.1h-3V720.9z
			 M517.6,725.3h3v-2.1h-3V725.3z M517.6,729.7h3v-2.1h-3V729.7z"/>
		<path class="st2" d="M551.8,717.8h-6v3.6h6v2.4h-6v5.1c2.4,0.6,5.1,0.9,8.4,0.9h2.4v2.4h-2.4c-3.8,0-6.9-0.4-9.5-1.1
			c-2.8-0.8-5-2-6.5-3.9c-0.9,2-2.3,3.6-3.8,5l-1.6-1.9c1.4-1.1,2.4-2.5,3.3-4.1c0.9-1.8,1.5-3.9,1.9-6.3l2.4,0.4
			c-0.3,1.5-0.6,2.9-1,4c0.5,1.1,1.1,1.9,1.9,2.4c0.8,0.6,1.5,1.1,2.4,1.4v-10.3h-6v-2.4H552L551.8,717.8L551.8,717.8z M533.2,710.3
			h10.1v-3h2.4v3h10.1v6h-2.4v-3.6h-17.9v3.6h-2.4L533.2,710.3L533.2,710.3z"/>
		<path class="st2" d="M568.6,708.3l-1.1,4.1h3.9v17.3h-8.9v-17.3h2.6l1.3-4.8L568.6,708.3z M568.9,719.8v-5h-4.1v5H568.9z
			 M568.9,727.3v-5h-4.1v5H568.9z M578.1,708c-0.3,1.6-0.6,3-1,4.4h8v13.1c0,4.4-2.1,6.5-6.5,6.5H578v-2.4h0.6
			c2.8,0,4.1-1.4,4.1-4.1v-10.8h-6.5c-0.6,1.8-1.5,3.1-2.5,4.5l-2.1-1.3c2.1-2.8,3.5-6.1,4.1-10.4L578.1,708z M575.3,720.4l1.6-1.6
			l3.4,3.4l-1.6,1.6L575.3,720.4z"/>
		<path class="st2" d="M590.6,709.4h8.1v2.3h-2.6v5.6h2v2.3h-2v5.6l2-0.8l0.8,2.1l-7.8,2.8l-0.8-2.1l3.5-1.3v-6.4h-2.4v-2.3h2.4
			v-5.6h-3.3L590.6,709.4L590.6,709.4z M601,718.3h12v5.9l0,0l1.3,1.5l-2.4,2c1,0.6,2.3,1.3,3.6,1.6l-0.8,1.9
			c-2.8-0.9-5-2.3-6.6-3.8v4.9h-2.3v-4.8c-1.8,1.5-3.9,2.8-6.5,3.8l-0.8-1.9c3-1.1,5.4-2.6,7.1-4.8H601V718.3L601,718.3z
			 M598.6,714.7h16.8v2h-16.8V714.7z M599.7,707.7h14.4v5.5h-14.4V707.7z M603.9,711.2v-1.6h-1.8v1.6H603.9z M610.8,722.4v-2.1h-7.5
			v2.1H610.8z M607.9,711.2v-1.6h-1.8v1.6H607.9z M608.4,724.4c0.6,0.6,1.3,1.3,1.9,1.9l2.4-1.9H608.4L608.4,724.4z M611.9,711.2
			v-1.6h-1.8v1.6H611.9z"/>
		<path class="st2" d="M627.2,716.6h-2.4v7.4l2.1-0.6l0.6,2.3l-8,2.1l-0.6-2.3l3.5-1v-8.1h-3V714h3v-6h2.4v6h2.4V716.6z
			 M642.1,716.8v9h-2.9v2.5c0,0.9,0.5,1.4,1.5,1.4h1.8v-2h2.1v4.3h-3.9c-2.5,0-3.9-1.3-3.9-3.6v-2.5h-1.9c-0.4,4.1-2.9,6.1-7.4,6.1
			h-0.6v-2.3h0.6c3,0,4.6-1.3,5-3.9h-2.4v-9H642.1L642.1,716.8z M634.9,707h2.4v2.1h6v2H641l-0.6,2.1h4v2h-16.7v-2h4l-0.6-2.1H629
			v-2h6L634.9,707L634.9,707z M639.7,718.8h-7.1v1.6h7.1V718.8z M632.5,722.3v1.6h7.1v-1.6H632.5z M633.7,711.1l0.5,2.1h3.9l0.5-2.1
			H633.7z"/>
		<path class="st2" d="M650.3,713.1h9.5v-5.4h2.4v5.4h9.5v10.8h-9.5v8.4h-2.4v-8.4h-9.5V713.1z M659.8,721.3v-6h-7.1v6H659.8z
			 M662.2,721.3h7.1v-6h-7.1V721.3z"/>
		<path class="st2" d="M686,714.4h-2.4v6.1l2.1-0.8l0.9,2.3l-3,1.1v8.9h-4.1v-2.4h1.8V724l-2.8,1l-0.8-2.3l3.6-1.3v-7h-3.6v-2.5h3.6
			v-4.8h2.4v4.8h2.4v2.4L686,714.4L686,714.4z M687.3,719.2h14.9v2.1h-6.6v2.4h5.4v2.1h-5.4v3.8c1,0.3,2.3,0.4,3.6,0.4h3.6v2.1h-3.6
			c-4.1,0-7.3-1-9.4-3.1c-0.6,1.3-1.6,2.3-2.6,3.1l-1.6-1.6c2.1-1.5,3.4-4,3.8-7.4l2.1,0.1c-0.1,1.3-0.3,2.3-0.6,3.3
			c0.6,0.9,1.5,1.6,2.4,2.1v-7.4h-6L687.3,719.2L687.3,719.2L687.3,719.2z M688.4,707.7h12.5v9.9h-12.5V707.7z M698.5,711.6v-1.8
			h-7.8v1.8H698.5z M698.5,715.4v-1.8h-7.8v1.8H698.5z"/>
		<path class="st2" d="M720.6,707v2.1h10.8v2.4h-23.8v-2.4h10.8V707H720.6z M730.7,720.1v12h-4.8v-2.3h2.4v-7.4h-17.9v9.6H708v-12
			h22.7V720.1z M726.4,712.9v5.9h-14.3v-5.9H726.4z M724.9,723.9v5.6h-11.3v-5.6H724.9z M724.1,715.1h-9.5v1.8h9.5V715.1z
			 M722.6,727.5V726h-6.5v1.5H722.6z"/>
		<path class="st2" d="M737.1,707.7h22.7v24.4h-22.7V707.7z M758,730.3v-20.9h-8.4v2h6v1.6h-6v1.1h5v6.6l0.3-0.1l1.1,2.6l-1.8,0.8
			l-0.4-0.8l-1.1,0.1v1.3h3.3v1.5h-3.3v3.5H749v-1.4h1.4v-2.1h-6.5l2.1,1.3l-0.8,1.3l-2.5-1.4l0.6-1.1H740v-1.5h10.4v-1.1l-9.3,0.8
			l-0.1-1.6l6-0.5v-1h-5v-7h5v-1.1h-6.6v-1.6h6.6v-2h-8.4v20.9H758V730.3z M747.4,716.8v-1.1h-2.6v1.1H747.4z M747.4,719.6v-1.1
			h-2.6v1.1H747.4z M752.4,715.7h-2.8v1.1h2.8V715.7z M752.4,718.4h-2.8v1.1h2.8V718.4z M749.6,722.1l3.8-0.3l-0.1-0.4l0.5-0.3h-4.1
			L749.6,722.1L749.6,722.1z"/>
		<path class="st2" d="M766.3,708.5h6l2,0.6l-2.4,7.9l1,2c0.8,1.8,1.1,3.4,1.3,4.8c0,2.4-1.3,3.6-3.6,3.6H770v-2.1h0.6
			c0.8,0,1.3-0.5,1.3-1.5s-0.3-2.3-0.9-3.8l-1.1-2.6l0,0l0,0l2-6.8h-3V732h-2.4v-23.5L766.3,708.5L766.3,708.5z M781.7,716.2
			c0.6,0.9,1.1,1.9,1.6,2.9l3.1-3l1.5,1.5l-3.8,3.8c1.5,2.5,3.5,4.6,5.8,6.1l-1.4,1.9c-1.3-0.8-2.6-1.9-4-3.5v1.5
			c0,2.1-0.6,3.6-1.8,4.6H780v-2.3h1.6c0.5-0.5,0.8-1.4,0.8-2.5c0-0.3,0-0.8-0.1-1.4c-2.5,2.5-5.5,4.3-8.8,5.4l-0.8-2.1
			c3.6-1.3,6.8-3.4,9.1-6.4c-0.1-0.4-0.3-0.9-0.4-1.6c-1.6,1.5-3.5,2.8-5.6,3.8l-0.8-2.1c1.9-0.9,3.6-2.1,5.5-3.9
			c-0.3-0.4-0.6-0.9-1-1.4c-1.4,0.9-2.9,1.6-4.5,2.3l-0.8-2.1c2.3-0.9,4.4-2,6.3-3.6h-6.8v-2.3h8.4l2.5-4.1l1.9,1.1l-1.9,3h3.9v2.3
			h-4.9C783.3,714.9,782.5,715.6,781.7,716.2z M776.5,708.8l1.9-1.1l1.8,2.9l-1.9,1.1L776.5,708.8z"/>
		<path class="st2" d="M802.1,707.8v8.8h-4.3l-0.8,3.6h2.8l2.3,0.4l-0.8,7.6c-0.3,2.5-1.6,3.9-4,3.9h-1.8v-2.4h1.8
			c0.9,0,1.4-0.5,1.6-1.5l0.6-5.6h-2.9l-0.3,1l-2.4-0.5l1.6-8.9h4v-4h-5.4v-2.4L802.1,707.8L802.1,707.8z M804.3,715.2H818v9.8h-5.6
			v1.6h6.9v2.3h-6.9v3.3H810v-3.3h-6.9v-2.3h6.9V725h-5.6v-9.8H804.3z M803.7,707.7h6.5v6h-6.5V707.7z M807.8,711.4v-1.6H806v1.6
			H807.8z M806.7,717.4v1.6h3.3v-1.6H806.7z M806.7,721.2v1.6h3.3v-1.6H806.7z M812.1,707.7h6.5v6h-6.5V707.7z M812.3,717.4v1.6h3.3
			v-1.6H812.3z M812.3,721.2v1.6h3.3v-1.6H812.3z M816.2,711.4v-1.6h-1.8v1.6H816.2z"/>
		<path class="st2" d="M824.4,712.9l1.8,0.3l-1.1,7.1l-1.8-0.3L824.4,712.9z M826.9,707.7h2.4v24.4h-2.4V707.7z M829.9,711.3
			l1.8-0.5l1.1,4l-1.8,0.5L829.9,711.3z M837.1,709.4c-0.4,1.4-0.6,2.8-1,4.1h3.3v-6h2.4v6h6v2.4h-6v5.4h5.4v2.4h-5.4v6h6.5v2.4
			h-15.5v-2.4h6.5v-6h-5.4v-2.4h5.4v-5.4h-4.1c-0.5,1.6-1.3,3-1.9,4.1l-2.1-1.3c1.6-2.4,2.8-5.8,3.6-10.1L837.1,709.4z"/>
		<path class="st2" d="M860.8,717.2v0.6l3.9,3.9l-1.6,1.6l-2.3-2.3v11h-2.4v-9.4c-1,1.6-2.1,3.1-3.6,4.3l-1.6-1.6c2.4-2,4.1-4.6,5-8
			h-4.5v-2.4h4.8v-3.3c-1.1,0.3-2.4,0.5-3.5,0.6l-0.5-2.3c3.3-0.5,6.1-1.3,8.8-2.3l0.9,2.1c-1,0.4-2.1,0.8-3.3,1v3.9h3.6v2.4h-3.6
			v0.2H860.8z M876.8,731.5H866v-20.3h10.8V731.5z M874.5,729.1v-15.5h-6v15.5H874.5z"/>
		<path class="st2" d="M887.3,717.4v8.3c1.1,2.8,3.6,4.1,7.6,4.1h11.6v2.3H895c-3.9,0-6.6-1-8.3-3l-3.6,3l-1.5-1.8l3.5-2.9v-7.6
			h-3.5v-2.3h5.8v-0.1H887.3z M883.8,707.5l3.5,4l-1.8,1.5l-3.4-4L883.8,707.5z M889.7,713.2h3.8l-1-1.9h-3.4V709h7.3v-2h2.3v2.1
			h7.3v2.3h-3.4l-1,1.9h3.8v14.8h-4v-2h1.8v-10.4h-4.5v1.5h3.3v2h-3.3v1.5h2.6v5.5H894v-5.5h2.6v-1.5h-3.1v-2.1h3.3v-1.5h-4.5V728
			H890v-14.8H889.7z M899.4,713.2l1-1.9h-5.5l1,1.9H899.4z M899.2,724.2v-1.6h-3.4v1.6H899.2z"/>
		<path class="st2" d="M924.9,706.8v2H935v2.1h-5.8l1.6,0.8l-0.9,1.6h4.4v1.8h-4.8v1.1h4v1.8h-4v1.3h4v1.8h-4v1.1h4.9v1.8H922v-6.8
			c-0.4,0.6-1,1.1-1.5,1.5l-0.9-1v6.1h-2.3v-5.3c-0.3,0.4-0.9,0.9-1.6,1.3l-0.9-1.1v1.5c0,4.5-0.8,8.3-2,11.4l-2.4-0.9
			c1.3-2.9,2-6.4,2-10.5v-11.3h10.1v-2L924.9,706.8L924.9,706.8z M916.8,726l2,1l-2,4.1l-2-1L916.8,726z M914.8,717.7
			c2.3-1.8,3.8-4,4.6-6.8h-4.6V717.7z M919.5,715.8v0.8c1.9-1.6,3.3-3.5,4.1-5.6h-3.9l1.9,0.6C921,713.3,920.3,714.7,919.5,715.8z
			 M919.5,725.8h2.3v2.6c0,1.1,0.5,1.6,1.6,1.6h5.8v-1.8h2.3v3.8h-8c-2.6,0-3.9-1.3-3.9-3.6L919.5,725.8L919.5,725.8z M923.7,725.8
			l1.4-1.8l2.6,2.3l-1.4,1.8L923.7,725.8z M924.7,713.3h3.3l1.3-2.4H924l1.8,0.5C925.3,712.4,924.9,713.1,924.7,713.3z M924.3,715.1
			v1.1h3v-1.1H924.3z M927.4,719.1v-1.3h-3v1.3H927.4z M927.4,722.1v-1.3h-3v1.1h3V722.1z M934.3,731l-2-4.1l2-1l2,4L934.3,731z"/>
		<path class="st2" d="M950.5,714.2v-6.3h2.4v6.3h10.8v13.1c0,3.1-1.6,4.8-4.8,4.8h-2.4v-2.4h2.4c1.6,0,2.4-0.8,2.4-2.4v-10.8h-8.4
			c-0.6,8.3-4.1,13.5-10.6,15.5l-1.3-2.1c5.8-1.9,9-6.4,9.4-13.3H941v-2.4L950.5,714.2L950.5,714.2L950.5,714.2z"/>
		<path class="st2" d="M971.2,723.8c0.8-0.9,1.8-1.3,3-1.3c1.1,0,2.1,0.4,2.9,1.3c0.9,0.9,1.3,1.8,1.3,2.9c0,1.1-0.4,2.1-1.3,3
			c-0.9,0.8-1.8,1.3-2.9,1.3c-1.1,0-2.1-0.4-3-1.3c-0.8-0.8-1.3-1.8-1.3-3C970.1,725.6,970.5,724.6,971.2,723.8z M972.6,728.3
			c0.5,0.5,1,0.8,1.8,0.8c0.6,0,1.3-0.3,1.6-0.8c0.5-0.5,0.8-1,0.8-1.8c0-0.6-0.3-1.3-0.8-1.6c-0.5-0.5-1-0.8-1.6-0.8
			s-1.3,0.3-1.8,0.8s-0.8,1-0.8,1.6C971.9,727.3,972.1,728,972.6,728.3z"/>
	</g>
</g>
<linearGradient id="SVGID_1_" gradientUnits="userSpaceOnUse" x1="474.5" y1="662.5" x2="891.5" y2="662.5" gradientTransform="matrix(1 0 0 -1 0 770)">
	<stop  offset="0" style="stop-color:#BCD3DF"/>
	<stop  offset="1" style="stop-color:#F2F2F2"/>
</linearGradient>
<rect x="474.5" y="66.6" class="st3" width="417" height="81.8"/>
<g>
	<path class="st1" d="M539.8,119.5c8.4-7.1,14.2-12.8,14.6-17.3c0.2-2.9-1.2-4.4-3.7-4.4c-2.1,0-3.9,1.4-5.6,3l-3.7-4
		c3.3-3.2,6.3-4.8,10.8-4.8c6,0,9.9,3.9,9.4,9.8c-0.5,5.4-5.6,11.3-10.8,16.1c1.6-0.2,3.7-0.4,5.1-0.4h5.8l-0.6,6.3h-21.7
		L539.8,119.5z"/>
	<path class="st1" d="M566.3,107.9c0.9-10.8,5.9-16,12.5-16s10.6,5.4,9.7,16c-0.9,10.8-5.9,16.4-12.5,16.4
		C569.3,124.3,565.4,118.7,566.3,107.9z M581.4,107.9c0.7-8.5-0.9-10.3-3.1-10.3s-4.1,1.8-4.9,10.3c-0.8,8.6,0.8,10.6,3.1,10.6
		S580.7,116.5,581.4,107.9z"/>
	<path class="st1" d="M590.9,119.5c8.4-7.1,14.2-12.8,14.6-17.3c0.2-2.9-1.2-4.4-3.7-4.4c-2.1,0-3.9,1.4-5.6,3l-3.7-4
		c3.3-3.2,6.3-4.8,10.8-4.8c6,0,9.9,3.9,9.4,9.8c-0.5,5.4-5.6,11.3-10.8,16.1c1.6-0.2,3.7-0.4,5.1-0.4h5.8l-0.6,6.3h-21.7
		L590.9,119.5z"/>
	<path class="st1" d="M616.5,119.5c8.4-7.1,14.2-12.8,14.6-17.3c0.2-2.9-1.2-4.4-3.7-4.4c-2.1,0-3.9,1.4-5.6,3l-3.7-4
		c3.3-3.2,6.3-4.8,10.8-4.8c6,0,9.9,3.9,9.4,9.8c-0.5,5.4-5.6,11.3-10.8,16.1c1.6-0.2,3.7-0.4,5.1-0.4h5.8l-0.6,6.3h-21.7
		L616.5,119.5z"/>
	<path class="st1" d="M659.4,101.4c-0.5,4.1-1.5,9-3.8,13.8c1.9,1.9,3.5,3.7,4.6,5.1l-4.5,5.1c-0.9-1.3-2.2-2.9-3.6-4.5
		c-1.9,2.6-4.3,5-7.4,7.1c-0.8-1.3-2.6-3.4-3.9-4.3c3.2-2.1,5.5-4.5,7.3-7.1c-1.9-2-3.8-4-5.5-5.8c0.8-2.4,1.7-5.2,2.5-8.4l-1.9,0.1
		v-5.8l3.2-0.1c0.6-2.9,1.1-5.9,1.5-8.6l6,0.3c-0.4,2.6-1,5.3-1.5,8l1.8-0.1l0.2-2.4h5.7l-0.2,2.1l2.2-0.1l-0.5,5.5L659.4,101.4z
		 M651.3,110.9c1.3-3.2,2-6.4,2.4-9.2l-2.6,0.2c-0.6,2.4-1.3,4.8-1.9,7L651.3,110.9z M682.1,110.6h-7.9l-0.9,10.7
		c-0.3,3-1,4.5-3,5.4c-2.1,0.9-4.6,1-7.9,1c-0.1-1.7-0.8-4.2-1.5-5.8c1.9,0.1,4.4,0.1,5.1,0.1c0.7,0,1-0.2,1-0.8l0.9-10.6h-8.4
		l0.5-5.8h8.4l0.3-3.5c1.8-1.5,3.6-3.7,5.1-5.8h-11.5l0.5-5.5h15.4l1.5-0.3l3.8,2.9c-2.3,3.1-5.2,6.6-8.5,9.5l-0.2,2.6h7.9
		L682.1,110.6z"/>
	<path class="st1" d="M697.6,125.5h-7.9l-0.1,1.7h-4.7l1.3-14.7h12.7L697.6,125.5z M701.5,99.5h-16l0.4-4.7h6.3
		c-0.5-1.6-1.1-3.4-1.7-4.9l4.5-2.2c0.8,1.8,1.8,4.2,2.3,5.8l-2.4,1.3h7.1L701.5,99.5z M698.8,111.1h-12.7l0.4-4.5h12.7L698.8,111.1
		z M686.6,105.3l0.4-4.5h12.6l-0.4,4.5H686.6z M690.4,117.2l-0.3,3.4h3.2l0.3-3.4H690.4z M723.7,113.8h-8.9l-1.2,13.9h-6l1.2-13.9
		h-8.7l0.5-5.8h8.7l1.1-12.6H703l0.5-5.7h21.6l-0.5,5.7h-8.2l-1.1,12.6h8.9L723.7,113.8z M707.8,96.8c0.6,3,0.9,6.8,0.9,9.4
		l-5.2,1.1c0.2-2.6-0.1-6.5-0.6-9.5L707.8,96.8z M716.1,106.1c1.1-2.6,2.3-6.7,2.9-9.7l5.7,1.1c-1.4,3.5-2.8,7.2-4,9.7L716.1,106.1z
		"/>
	<path class="st1" d="M748.1,95.1c0,0-0.2,2-0.3,2.7c-2.1,17.5-3.3,24.3-4.9,26.3c-1.2,1.6-2.2,2.2-3.7,2.5c-1.3,0.3-3,0.3-4.9,0.3
		c0.1-1.7-0.3-4.3-1.1-6.1c-1.2,2.5-2.6,4.8-4.3,6.9c-0.9-1.6-2.8-3.5-4.3-4.5c4.7-5.6,6.5-13.3,7.6-22.2h-4.5l0.5-6h4.6
		c0.2-2.4,0.4-4.7,0.6-7.2h6.2c-0.2,2.4-0.5,4.9-0.7,7.2L748.1,95.1L748.1,95.1z M738.2,101.1c-1,7.3-2.4,13.9-5,19.6
		c1.2,0.1,2.3,0.2,3.1,0.2c0.6,0,1-0.2,1.5-0.8c1-1.2,1.9-6.1,3.5-18.9L738.2,101.1L738.2,101.1z M766.2,92.4l-3,34h-6.4l0.2-2.5
		h-4.2l-0.2,2.9h-6.1l3-34.4H766.2z M757.6,118l1.7-19.7h-4.2l-1.7,19.7H757.6z"/>
	<path class="st1" d="M776.7,104.7l-2,23h-6l3.4-38.4h16.8l-1.3,15.4H776.7z M794,118.7l-0.7,8.3H788l0.7-8.3h-2.9
		c-0.7,2.9-2.5,6.8-6.1,9.2c-0.7-1-2.4-2.6-3.6-3.4c2.4-1.4,3.7-3.7,4.4-5.7h-3.6l0.4-4.9h3.9l0.2-2.4H778l0.4-4.7h20.1l-0.4,4.7
		h-3.5l-0.2,2.4h4.1l-0.4,4.9L794,118.7L794,118.7z M782.2,100.4l0.1-1.6h-5.1l-0.1,1.6H782.2z M777.6,93.6l-0.1,1.4h5.1l0.1-1.4
		H777.6z M789.1,113.7l0.2-2.4h-2.8l-0.2,2.4H789.1z M805.4,120.9c-0.3,2.9-0.9,4.5-2.6,5.5c-1.8,1-4.1,1.2-7.3,1.1
		c0-1.6-0.6-4.5-1.2-6c1.6,0.1,3.6,0.1,4.2,0.1c0.6,0,0.9-0.3,0.9-0.8l1.4-16h-11.1l1.4-15.5h17.1L805.4,120.9z M801.1,100.6
		l0.1-1.7H796l-0.1,1.7H801.1z M796.4,93.6l-0.1,1.4h5.3l0.1-1.4H796.4z"/>
	<path class="st1" d="M813.9,119.6c0.2-2.6,2.5-4.6,5.4-4.6s4.8,2,4.6,4.6c-0.2,2.7-2.5,4.6-5.4,4.6S813.6,122.3,813.9,119.6z
		 M816.3,99.3l0.4-7h9.2l-0.9,7l-2.9,13.3h-5.2L816.3,99.3z"/>
</g>
<rect x="474.5" y="101.9" class="st0" width="15.3" height="15.3"/>
<rect x="876.2" y="101.9" class="st0" width="15.3" height="15.3"/>
</svg>
