<?xml version="1.0" encoding="utf-8"?>
<!-- Generator: Adobe Illustrator 25.2.1, SVG Export Plug-In . SVG Version: 6.00 Build 0)  -->
<svg version="1.1" id="圖層_1" xmlns="http://www.w3.org/2000/svg" xmlns:xlink="http://www.w3.org/1999/xlink" x="0px" y="0px"
	 viewBox="0 0 350 300" style="enable-background:new 0 0 350 300;" xml:space="preserve">
<style type="text/css">
	.st0{fill:#FFE100;}
	.st1{fill:#231815;}
	.st2{fill:#717071;}
	.st3{fill:url(#SVGID_1_);}
</style>
<g>
	<rect x="32.1" y="92.7" class="st0" width="288.1" height="34"/>
	<g>
		<path class="st1" d="M93,84.4c-1,8-2.8,14.7-5.6,20.3c2.2,3.5,5.1,6.4,8.5,8.4c-1.4,1.2-3.3,3.5-4.2,5.1c-3.1-2-5.7-4.7-7.8-7.8
			c-2.3,2.9-5.1,5.5-8.5,7.6c-0.8-1.1-2.8-3.5-4.1-4.6c4-2.1,7.1-5.1,9.4-8.6c-1.7-3.6-3-7.7-4.1-12.2c-0.5,0.8-1,1.6-1.5,2.3
			c-0.8-1-2.8-3-4.1-4v3.2h3.3v5.1h-3.5c-0.1,2.3-0.3,4.3-0.4,6H74v5.1h-4.1c-0.4,2.7-0.8,4.3-1.4,5.1c-1,1.6-2,2-3.6,2.3
			c-1.4,0.3-3.4,0.3-5.6,0.2c-0.1-1.5-0.7-3.8-1.5-5.3c1.7,0.2,3.3,0.2,4.1,0.2s1.1-0.2,1.6-0.9c0.2-0.3,0.4-0.8,0.6-1.7H48.6
			c0.5-3,1-6.9,1.4-11h-3.2v-5.1h3.7c0.2-1.9,0.3-3.7,0.4-5.6l0,0c-1.1-1-3.6-2.7-4.9-3.5c3.1-3.8,5.5-9.8,6.7-15.8l5.8,1.2
			c-0.3,1.4-0.6,2.7-1,4.1H74v5.3H55.5c-0.5,1.3-1,2.5-1.6,3.6h17.4v2.5L71,90.5c3.6-5.1,5.8-13.1,7-21.2l5.8,1
			c-0.4,2.8-1.1,5.8-1.8,8.6h13.3v5.6L93,84.4L93,84.4z M55.5,99.1c-0.2,2.1-0.4,4.1-0.6,6h4.7c-0.8-1.5-2.1-3.2-3.3-4.6l2.6-1.4
			H55.5L55.5,99.1z M56.4,88.5c-0.2,1.8-0.3,3.7-0.4,5.6h4.1c-0.7-1.4-1.7-3-2.9-4.3l2.5-1.3C59.7,88.5,56.4,88.5,56.4,88.5z
			 M64.8,105.1c0.1-1.6,0.3-3.6,0.4-6h-4.8c1.4,1.5,2.8,3.4,3.5,4.8l-1.9,1.2H64.8L64.8,105.1z M65.4,94c0-1.7,0.1-3.6,0.2-5.6h-4.5
			c1.3,1.4,2.5,3.3,3,4.7L62.4,94H65.4L65.4,94z M80.4,84.4c0.8,4.9,2,9.6,3.7,13.7c1.4-4,2.4-8.6,3-13.7H80.4z"/>
		<path class="st1" d="M115.8,96.7c-1.7,0.5-3.3,1-5.1,1.5v13.3c0,2.9-0.5,4.5-2,5.5c-1.6,1-3.8,1.2-7.3,1.2
			c-0.2-1.5-0.8-4.1-1.5-5.8c1.8,0.1,3.7,0.1,4.3,0c0.6,0,0.9-0.2,0.9-0.9V100c-1.7,0.5-3.5,1-5,1.4l-1.4-6c1.8-0.4,4-1,6.3-1.5
			v-9.1h-5.5v-5.7h5.5v-9.9h5.7v9.9h4.8v5.7h-4.8v7.6l4.3-1.2L115.8,96.7z M134.1,112.1c1.4,0.2,2.9,0.2,4.4,0.2c1.6,0,7.9,0,10-0.1
			c-0.8,1.3-1.5,3.8-1.7,5.3h-8.7c-7.2,0-12.9-1.3-16.9-6.2c-1.2,2.8-2.7,5.1-4.6,7c-1-1-3.4-2.6-4.7-3.4c3.8-3.3,5.7-8.7,6.4-14.8
			l5.7,0.8c-0.3,1.7-0.5,3.3-1,4.9c1.4,2.3,3.1,3.9,5.3,4.9V99.4h-9.8v-4.6h9.8v-2.7h-12.9v-4.8h12.9v-2.4h-9.8v-4.8h9.8v-2.2h-12
			V73h12v-3.9h5.7v4h13.2V78H134v2.2h11.1v7.1h3.3v4.8h-3.3v7.3H134v3h11.5v4.9H134v4.8C134,112.1,134.1,112.1,134.1,112.1z
			 M134.1,87.2h5.3v-2.4h-5.3V87.2z M134.1,94.7h5.3V92h-5.3V94.7z"/>
		<path class="st1" d="M200.1,108.2v6.3h-47.7v-6.3h20V81.1h-17.2v-6.5h41.9v6.5h-17.6v27.1H200.1z"/>
		<path class="st1" d="M221.7,71.2c-1.4,3.7-3.1,7.4-5.1,10.9v36h-6.3V91.8c-1.1,1.3-2.2,2.6-3.3,3.8c-0.6-1.5-2.3-5.1-3.5-6.6
			c4.8-4.7,9.3-12.2,11.9-19.6L221.7,71.2z M238.3,83.6v5.5h13.6v5.7h-13.6v5.9h14.3v5.8h-14.3v11.6h-6.4V83.6h-2
			c-2.1,3.9-4.5,7.4-6.8,10.2c-1-1.2-3.5-3.3-4.8-4.3c4.6-4.7,8.8-12.3,11.1-19.8l6,1.5c-0.8,2.2-1.6,4.3-2.6,6.5h20.3v5.9H238.3
			L238.3,83.6z"/>
		<path class="st1" d="M305.4,91.3h-4.1v19.6c0,2.9-0.4,4.6-2.3,5.6c-1.8,1-4.3,1-7.8,1c-0.2-1.7-0.9-4.3-1.7-6c2.1,0.1,4.3,0.1,5,0
			c0.7,0,0.9-0.2,0.9-0.8V91.3h-4.6v-4.2h-7.6v30.8h-5.5V87.1h-6.9v-3.6c-0.8,1.8-1.9,3.8-3,5.7v28.9H262V97.2c-1,1.2-2,2.2-2.9,3.1
			c-0.6-1.3-2.3-4.4-3.4-5.7c4-3.5,8-9,10.2-14.5l4.9,1.6v-0.4h6.9V69.2h5.5v12.2h7.9v4.3h14.4L305.4,91.3z M270.9,71.1
			c-2.7,4.7-6.9,9.7-10.9,12.9c-0.8-1.3-2.2-3.6-3.2-4.6c3.3-2.6,6.8-6.8,8.4-10.2L270.9,71.1z M276.2,90c0,10-0.6,16.6-4.6,20.5
			c-0.5-1.1-1.9-2.8-2.9-3.6c2.9-3.3,3.1-8.4,3.2-17L276.2,90L276.2,90z M288,80.4c-0.8-1.8-2.4-4.7-4-6.8l3.8-2
			c1.6,2,3.4,4.8,4.3,6.6L288,80.4z M289.9,109c-4.1,0-4.9-1.6-4.9-6.1V90h4.5v12.9c0,1.4,0,1.8,0.3,1.8h1.2c0.5,0,1.2-0.1,1.7-0.3
			c0.1,1.2,0.3,3.2,0.4,4.2c-0.6,0.3-1.4,0.3-2.2,0.3L289.9,109L289.9,109z M304.7,78.6h-12.5v-5.5h12.5V78.6z"/>
	</g>
	<g>
		<path class="st1" d="M105.7,151.9h4.7v2h-4.7v2.2c0,1.3-0.3,1.9-1.2,2.3c-0.9,0.3-2.1,0.4-3.8,0.4c-0.1-0.8-0.5-1.7-0.8-2.4
			c1.1,0.1,2.4,0.1,2.8,0c0.4,0,0.5-0.1,0.5-0.3V154h-7c0.9,0.6,1.9,1.4,2.4,2l-2,1.7c-0.6-0.8-2-1.9-3-2.7l1.2-1h-5.1v-2H103v-0.9
			h-1.2c-2.7,0-4.6-0.2-6.2-1c-0.9-0.4-1.5-1-2-1c-0.7,0-1.8,1.1-2.7,2.3l-1.4-2.2c0.6-0.5,1.2-1,1.8-1.4c0.6-0.7,1.3-1.7,1.7-2.7
			h-3.2c0.5-0.9,1.2-2.1,1.7-3.3h-2v-1.9h2c-0.2-0.7-0.6-1.6-0.8-2.4l2.3-0.7c0.3,0.8,0.8,1.8,1,2.5l-2,0.7h3
			c-0.5,1-1.1,2.2-1.6,3.3h1l0.4-0.1l1.3,0.5c-0.4,1.3-1,2.5-1.7,3.6c0.5,0.2,0.9,0.5,1.6,0.8c1.4,0.7,3.6,0.8,5.9,0.8
			c2.5,0,6.5-0.2,9-0.5c-0.3,0.7-0.7,1.8-0.7,2.5c-1,0.1-2.8,0.1-4.5,0.2L105.7,151.9L105.7,151.9z M101.1,141.3
			c0.1-0.3,0.1-0.5,0.2-0.8h-5.6v-1.8H99c-0.2-0.5-0.5-1-0.8-1.5l2.2-0.5c0.4,0.6,0.9,1.4,1.1,2h2.8c0.4-0.6,0.8-1.4,1-2l2.6,0.5
			c-0.3,0.5-0.7,1-1,1.5h3.3v1.8h-6.4c-0.1,0.3-0.3,0.5-0.3,0.8h5v6.9H97.2v-6.9H101.1L101.1,141.3z M105.9,142.5h-6.1v0.7h6.1
			V142.5z M105.9,144.4h-6.1v0.8h6.1V144.4z M105.9,146.3h-6.1v0.8h6.1V146.3z"/>
		<path class="st1" d="M127.1,138.2c0,4.3,0.6,12.8,9.1,17.8c-0.6,0.5-1.7,1.7-2.2,2.4c-4.8-2.9-7.2-7.3-8.5-11.4
			c-1.7,5.2-4.5,9-8.5,11.4c-0.5-0.6-1.8-1.7-2.5-2.3c4.8-2.4,7.6-6.9,8.8-12.9l1.4,0.3c-0.2-0.9-0.3-1.7-0.3-2.5h-5.3v-2.9
			L127.1,138.2L127.1,138.2z"/>
		<path class="st1" d="M161.3,143.3v2h-4.2l-0.1,1.8h-13.3l0.3-1.8h-3.6v-2h3.9l0.3-1.8h13.1l-0.2,1.8H161.3z M155.2,155.2
			c2,0.5,4.1,1.2,5.4,1.6l-1.9,1.7c-1.7-0.6-4.3-1.5-7-2.3l1-1h-4.2l1.4,1c-1.9,1-5.2,1.9-7.9,2.3c-0.3-0.5-1-1.4-1.5-1.9
			c2-0.3,4.4-0.8,6.1-1.4h-3.3v-7.5h15v7.5L155.2,155.2L155.2,155.2z M143.4,142.7H141v-4h8.4c-0.2-0.5-0.5-1-0.7-1.4l2.4-0.7
			c0.4,0.6,0.8,1.4,1,2h8.4v4H158v-1.9h-14.6V142.7L143.4,142.7z M146,149.8h9.6v-0.7H146V149.8z M146,151.9h9.6v-0.8H146V151.9z
			 M146,153.9h9.6v-0.8H146V153.9z M146.3,145.8h3l0.1-0.8h-3L146.3,145.8z M146.7,143l-0.1,0.7h3l0.1-0.7H146.7z M154.6,145.8
			l0.1-0.8h-3l-0.1,0.8H154.6z M154.8,143h-2.9v0.7h2.9V143z"/>
		<path class="st1" d="M172.8,155.2v3.2h-2.6v-3.2h-4.9v-2.4h4.9v-1.2h-4v-8.4H177v8.4h-4.2v1.2h4.8v2.4H172.8z M171.2,142.4H166
			v-4.9h5.2V142.4z M169.2,139.2H168v1.5h1.2V139.2z M168.5,146.5h1.9v-1.2h-1.9V146.5z M168.5,149.6h1.9v-1.3h-1.9V149.6z
			 M177.2,142.4H172v-4.9h5.2V142.4z M174.7,145.3h-2v1.2h2V145.3z M174.7,148.4h-2v1.3h2V148.4z M175.2,139.2H174v1.5h1.2V139.2z
			 M186.4,146.8c-0.7,2.2-1.8,4.4-3.2,6.3c0.4,1.3,0.8,2,1.3,2.1c0.4,0,0.6-1.1,0.8-3.2c0.4,0.6,1.5,1.3,2,1.5
			c-0.6,4-1.8,4.9-2.8,4.9c-1.4-0.1-2.5-1.1-3.2-3c-1,1.1-2.3,2-3.5,2.8c-0.5-0.6-1.3-1.4-2-1.9c1.7-0.8,3.3-2.1,4.6-3.6
			c-0.4-1.9-0.8-4.1-1-6.8l-1.9,0.3l-0.3-2.5l2-0.3c-0.1-2-0.2-4.1-0.3-6.3h2.6c0,2.1,0.1,4.1,0.2,6.1l4.9-0.6l0.3,2.5l-5,0.6
			c0.1,1.5,0.3,2.9,0.5,4.2c0.8-1.3,1.4-2.7,1.8-4.1L186.4,146.8z M184.5,142.2c-0.4-1-1.3-2.8-2.2-4l2.1-1.1
			c0.9,1.2,1.9,2.8,2.3,3.9L184.5,142.2z"/>
		<path class="st1" d="M202.9,155.4h8.5v2.5h-19.6v-2.5h8.2v-2.8h-6v-2.4h6v-2.6h-4.8v-2c-1,0.7-2,1.3-2.9,1.7
			c-0.4-0.7-1-1.6-1.7-2.2c2.5-1,5.4-3,7.6-5h-3v-2.5h7.9c2,2.9,5.7,5.8,9.6,7.3c-0.6,0.6-1.4,1.7-1.8,2.5c-1-0.5-2-1-2.9-1.6v1.9
			h-4.9v2.6h6.1v2.4h-6.1v2.7L202.9,155.4L202.9,155.4z M207,145.2c-2.1-1.5-4.1-3.3-5.6-5.1c-1.5,1.8-3.6,3.6-5.7,5.1H207z"/>
		<path class="st1" d="M237.7,154.5h-3.9v3.8h-2.6v-3.8H227v-2.3h4.3v-2.1h-1.9c-0.3,0.7-0.6,1.3-0.9,1.8c-0.4-0.3-1.2-0.7-1.8-1
			v4.9c0,1.1-0.2,1.8-0.9,2.2s-1.7,0.5-3,0.5c-0.1-0.7-0.5-1.7-0.8-2.3c0.9,0,1.8,0,2.1,0s0.4-0.1,0.4-0.4v-3.3h-4.6
			c-0.3,2.2-0.8,4.4-1.8,6.1c-0.4-0.4-1.4-1-1.9-1.2c1.5-2.4,1.7-5.8,1.7-8.4v-3.4c-0.5-0.5-1.3-1.2-1.8-1.5
			c1.6-1.7,2.8-4.4,3.4-7.1l2.4,0.5c-0.1,0.5-0.3,1.1-0.5,1.6h2.1l0.3-0.1l1.6,1c-0.3,0.9-0.8,2-1.3,2.9h2.6v1.4
			c1.9-0.9,2.6-2.2,2.9-3.9H227v-2.3h10.2c0,0,0,0.6,0,0.9c-0.1,3.7-0.3,5.3-0.8,5.8c-0.4,0.5-0.8,0.7-1.4,0.8
			c-0.5,0.1-1.4,0.1-2.3,0.1c0-0.7-0.3-1.6-0.6-2.2c0.7,0.1,1.3,0.1,1.7,0.1c0.3,0,0.5,0,0.6-0.3c0.2-0.3,0.3-1,0.4-3H232
			c-0.4,2.4-1.3,4.3-3.6,5.6l2,0.4c-0.1,0.5-0.2,1-0.3,1.5h1.1v-2.1h2.6v2.1h3.5v2.3h-3.5v2h3.9V154.5L237.7,154.5z M220.5,141.1
			c-0.3,0.6-0.5,1.2-0.8,1.7h2c0.3-0.5,0.5-1.1,0.6-1.7H220.5z M219.9,148.8c0,0.5,0,1,0,1.5h1.3v-1.9h-1.3V148.8L219.9,148.8z
			 M219.9,146.5h1.3v-1.8h-1.3V146.5z M223,146.5h1.3v-1.8H223V146.5z M224.3,150.3v-1.9H223v1.9H224.3z M226.5,150.5
			c0.8-1.2,1.3-2.9,1.6-4.5c-0.2,0.1-0.3,0.2-0.5,0.3c-0.2-0.5-0.7-1.1-1.1-1.6V150.5L226.5,150.5z"/>
		<path class="st1" d="M249.1,151.3c-0.3-0.7-0.9-1.8-1.5-2.8v9.9H245v-8.9c-0.7,2-1.5,3.8-2.5,5c-0.3-0.8-0.9-1.9-1.3-2.5
			c1.5-1.8,2.8-5,3.4-7.7h-2.8v-2.6h3.1v-4.8h2.6v4.8h3.1v2.6h-3.1v0.8c0.8,1,2.6,3.5,3,4.1L249.1,151.3z M263,147.2h-3v11.2h-2.7
			v-11.2h-3c-0.1,3.5-0.6,8.1-2.6,11.2c-0.5-0.4-1.6-1.1-2.3-1.4c2.1-3,2.3-7.5,2.3-10.8v-6.8c2.8-0.5,5.9-1.4,7.8-2.3l2.3,2.2
			c-2.2,0.9-4.9,1.6-7.5,2.1v3.3h8.7L263,147.2L263,147.2z"/>
	</g>
	<g>
		<rect x="71.3" y="151.1" class="st1" width="5.1" height="5.1"/>
		<rect x="60.8" y="140.7" class="st1" width="5.1" height="5.1"/>
	</g>
	<g>
		<rect x="276.8" y="151.1" class="st1" width="5.1" height="5.1"/>
		<rect x="287.3" y="140.6" class="st1" width="5.1" height="5.1"/>
	</g>
	<g>
		<g>
			<path class="st2" d="M87.1,201.5l0.9,0.3l-0.9,1.8l-0.9-0.3L87.1,201.5z M89.4,196v0.6l1.6,1.6l-0.7,0.7l-0.8-0.8v2.3h-1v-2.6
				c-0.3,0.8-0.8,1.3-1.3,1.8l-0.7-0.8c0.8-0.7,1.3-1.6,1.6-2.7h-1.3v-1h1.8v-1.6h1v1.6h1.6v1H89.4L89.4,196z M88.8,201.3h1v0.8
				c0,0.7,0.3,1,1,1h2.5v-0.9h1v1.9h-3.5c-1.3,0-2.1-0.7-2.1-2.1V201.3z M90.9,201.3l0.7-0.8l1.1,1l-0.7,0.8L90.9,201.3z M96.1,194
				v6.3h-4.7V194H96.1z M92.5,195.7h2.6v-0.9h-2.6V195.7z M92.5,197.5h2.6v-0.9h-2.6V197.5z M95.1,199.3v-0.9h-2.6v0.9H95.1z
				 M95.9,203.8l-0.9-1.8l0.9-0.3l0.9,1.8L95.9,203.8z"/>
			<path class="st2" d="M109.1,195.7h-3.1v1h-1v-1H103v1h-1v-1h-3.1v-1h3.1v-1h1v1h2.1v-1h1v1h3.1V195.7z M102.5,197.5
				c-0.2,0.6-0.3,0.9-0.7,1.3v5.3h-1v-3.7c-0.6,0.7-0.9,1.1-1.3,1.4l-0.8-0.7c1.1-1.1,2.1-2.5,2.7-4.1L102.5,197.5z M108.7,199.1
				c-1.1,0.7-2.3,1-3.7,1.3v2.2c0,0.3,0.1,0.6,0.6,0.6h2.1c0.3,0,0.6-0.1,0.6-0.6v-0.6h1v0.6c0,1-0.6,1.6-1.6,1.6h-2.1
				c-1,0-1.6-0.6-1.6-1.6V197h1v2.1c1-0.2,2.1-0.7,3.1-1.3L108.7,199.1z"/>
			<path class="st2" d="M120.1,198.3l0.2-0.2l0.8,0.2h0.2v1h-9.7v-1H120.1z"/>
			<path class="st2" d="M126.4,196.7v0.8l1.4,1.4l-0.7,0.7l-0.7-0.7v5.5h-1v-4.7c-0.3,0.7-0.8,1-1.1,1.6l-0.7-0.7
				c0.9-0.9,1.6-2.1,1.9-3.7v-0.3h-1.6v-1h1.6v-2.3h1v2.3h1.3v1L126.4,196.7L126.4,196.7z M127.4,204.2l-0.6-0.8
				c0.7-0.3,1.3-0.9,1.8-1.6h-1.3v-0.9h1.8l0.8,0.6C129.3,202.7,128.5,203.5,127.4,204.2z M130,203.5h0.6v-3.1h-1.8v-0.9h2.3
				l-1.7-0.7l0.2-0.7h-1.9v-0.9h2.9v-0.7h-2.2v-0.9h2.1V195h-2.3v-0.9h1.1l-0.3-0.7l1-0.3l0.7,1h1.1h0.1l0.6-1l0.9,0.3l-0.3,0.7h1
				v0.9h-2.5v0.7h2.1v0.9h-2.1v0.7h2.9v0.9h-4.2l1.4,0.7l-0.3,0.7h0.2c0,0.3,0.1,0.8,0.2,1c0.1,0.2,0.3,0.6,0.3,0.7l1.6-1l0.6,0.7
				l-1.6,1c0.6,0.6,1.1,1,2.1,1.3L134,204c-1.4-0.7-2.3-1.4-2.9-2.3v2.6h-1.4v-0.7h0.2V203.5z"/>
			<path class="st2" d="M139.5,194l-0.6,1.8h1.7v7.5h-3.9v-7.5h1.1l0.6-2.1L139.5,194z M139.6,199v-2.2h-1.7v2.2H139.6z
				 M139.6,202.1v-2.2h-1.7v2.2H139.6z M143.5,193.7c-0.1,0.7-0.2,1.3-0.3,1.9h3.5v5.7c0,1.9-0.9,2.9-2.9,2.9h-0.2v-1h0.2
				c1.1,0,1.8-0.7,1.8-1.8v-4.7h-2.9c-0.2,0.8-0.7,1.3-1,1.9l-0.9-0.6c0.9-1.1,1.6-2.6,1.8-4.6L143.5,193.7z M142.4,199.2l0.7-0.7
				l1.4,1.4l-0.7,0.7L142.4,199.2z"/>
			<path class="st2" d="M152.5,202.5h-3.2v-8h3.1v8H152.5z M151.5,198.1v-2.3h-1v2.3H151.5z M151.5,201.6V199h-1v2.6H151.5z
				 M158.9,196.2h-2.1v1.3h2.9v1h-1.8v1h1.6v1h-1.6v3.7h-2.1v-1h1v-2.6h-3.3v-1h3.3v-1H153v-1h2.9v-1.3h-2.1v-1h2.1v-1.6h1v1.6h2.1
				L158.9,196.2L158.9,196.2z M153.9,201.6l0.8-0.8l1,1l-0.8,0.8L153.9,201.6z"/>
			<path class="st2" d="M166.2,194v4.2H163v6h-1.1v-10.2L166.2,194L166.2,194z M165.2,195.6v-0.8H163v0.8H165.2z M165.2,197.3v-0.8
				H163v0.8H165.2z M168.8,199v4.2h-4.1V199H168.8z M167.8,200.6v-0.8h-2.1v0.8H167.8z M167.8,202.3v-0.8h-2.1v0.8H167.8z
				 M171.6,204.1h-1.8v-1h0.9v-5h-3.2v-4.2h4.2L171.6,204.1L171.6,204.1z M170.7,195.6v-0.8h-2.2v0.8H170.7z M170.7,196.5h-2.2v0.8
				h2.2V196.5z"/>
			<path class="st2" d="M175.3,201c0.2-0.2,0.6-0.3,0.9-0.3s0.7,0.1,0.9,0.3c0.2,0.2,0.3,0.6,0.3,0.9c0,0.9-0.9,1.8-2.6,2.9l1.3-1.6
				c-0.3,0-0.7-0.1-0.9-0.3s-0.3-0.6-0.3-0.9S175.1,201.1,175.3,201z"/>
			<path class="st2" d="M193,199.7h-3.7v2.9c0,0.3,0.1,0.6,0.6,0.6h1.8v-1h1v2.1H190c-1,0-1.6-0.6-1.6-1.6v-2.9h-1.6
				c0,2.3-1.3,3.8-3.8,4.5l-0.3-1c2.1-0.3,3.1-1.6,3.1-3.3h-3.1v-1h10.2L193,199.7L193,199.7z M183,194.6h4.5v-1h1v1h4.5v2.3h-1
				v-1.3h-7.8v1.3h-1v-2.3H183z M191,197.6h-6.2v-1h6.2V197.6z"/>
			<path class="st2" d="M200.7,193.4h1v2.3h3.7v1h-3.7c0,1.7,0.2,3,0.7,3.7c0.7-0.9,1.1-1.8,1.6-3l1,0.6c-0.6,1.4-1.1,2.6-1.9,3.5
				c0.3,0.8,1.1,1.3,1.9,1.6v-0.9h1v2.1c-1.7,0-3-0.7-3.8-1.9c-0.9,0.8-1.9,1.4-3.1,1.9l-0.6-1c1.3-0.6,2.3-1.1,3-1.9
				c-0.6-1-0.8-2.6-0.8-4.7h-3.7v1.3h3.1v2.6c0,1-0.6,1.6-1.6,1.6h-0.6v-0.9h0.6c0.3,0,0.6-0.1,0.6-0.6V199h-2.1
				c0,1.9-0.3,3.7-1.1,5.1l-1-0.6c0.7-1.3,1-2.9,1-4.9v-3.1h4.7V193.4L200.7,193.4z M202.5,194.4l0.7-0.8l1.1,1l-0.7,0.8
				L202.5,194.4z"/>
			<path class="st2" d="M218.1,195h-4.7v1.3h4.1v8h-2.1v-1h1v-1.8l-0.6,0.7c-0.3-0.3-0.7-0.7-0.9-1.1l-1,1.1l-0.7-0.6v2.3h-1v-2.3
				l-0.6,0.7c-0.3-0.3-0.7-0.7-0.9-1.1l-1,1.1l-0.7-0.6v2.7h-1v-8h4.1v-1.3h-4.7v-1h10.2L218.1,195L218.1,195z M209.4,197.3v3.9
				l1.3-1.4l-0.1-0.7h-0.7v-1h1.6c0,1.3,0.3,2.2,1,2.9v-3.7H209.4L209.4,197.3z M213.5,197.3v3.9l1.3-1.4l-0.1-0.7h-0.7v-1h1.6
				c0,1.3,0.3,2.2,1,2.9v-3.7H213.5L213.5,197.3z"/>
			<path class="st2" d="M223.9,193.6c-0.2,0.9-0.7,1.9-1,3v7.6h-1v-5.9c-0.2,0.3-0.6,0.7-0.8,0.9l-0.8-0.7c1.1-1.3,2.1-3,2.6-5
				L223.9,193.6z M227.6,193.6v1.3h2.6v1h-0.8l-0.6,2.1h1.8v1h-7.2v-1h1.8l-0.6-2.1h-0.7V195h2.6v-1.3h0.9V193.6z M229.7,204.1h-5.1
				V200h5.1V204.1z M228.6,203.1V201h-3.1v2.1H228.6z M225.8,196l0.6,2.1h1.4l0.6-2.1H225.8z"/>
			<path class="st2" d="M235.9,194l-0.6,1.8h1.7v7.5h-3.9v-7.5h1.1l0.6-2.1L235.9,194z M236.1,199v-2.2h-1.8v2.2H236.1z
				 M236.1,202.1v-2.2h-1.8v2.2H236.1z M239.9,193.7c-0.1,0.7-0.2,1.3-0.3,1.9h3.5v5.7c0,1.9-0.9,2.9-2.9,2.9h-0.2v-1h0.2
				c1.1,0,1.8-0.7,1.8-1.8v-4.7h-2.9c-0.2,0.8-0.7,1.3-1,1.9l-0.9-0.6c0.9-1.1,1.6-2.6,1.8-4.6L239.9,193.7z M238.8,199.2l0.7-0.7
				l1.4,1.4l-0.7,0.7L238.8,199.2z"/>
			<path class="st2" d="M246,194.2h4.1v-0.8h1v0.8h4.1v1h-4.1v0.7h3.1v2.5h-3.1v0.7h3.7v1.6h1v1h-1v1.6h-3.7v1.6h-1.8v-1h0.8v-0.6
				h-3.7v-1h3.7v-0.7h-4.7v-1h4.7v-0.7h-3.7v-1h3.7v-0.7H247v-2.5h3.1V195H246L246,194.2L246,194.2z M250.2,196.6h-2.1v0.7h2.1
				V196.6z M253.3,196.6h-2.1v0.7h2.1V196.6z M251.2,200.2h2.6v-0.7h-2.6V200.2z M251.2,201.6h2.6v-0.7h-2.6V201.6z"/>
			<path class="st2" d="M260.4,197.3c0-0.8,0.2-1.4,0.8-1.9c0.6-0.6,1.3-0.8,1.9-0.8c0.8,0,1.4,0.2,1.9,0.8c0.6,0.6,0.8,1.3,0.8,1.9
				c0,0.6-0.1,1-0.6,1.4c-0.3,0.3-0.7,0.6-1.1,0.6c-0.2,0-0.3,0.1-0.6,0.3c-0.1,0.1-0.1,0.3-0.1,0.7v1.3h-1v-1.3
				c0-0.6,0.1-1,0.6-1.4c0.3-0.3,0.7-0.7,1.1-0.7c0.1,0,0.3-0.1,0.6-0.3c0.1-0.1,0.2-0.3,0.2-0.7c0-0.6-0.1-0.9-0.6-1.3
				c-0.3-0.3-0.8-0.6-1.3-0.6s-0.9,0.1-1.3,0.6c-0.3,0.3-0.6,0.8-0.6,1.3v1h-1L260.4,197.3L260.4,197.3z M262.8,202.7h1v1h-1V202.7z
				"/>
			<path class="st2" d="M45.8,210.3c-0.2,0.9-0.7,1.9-1,3v7.6h-1V215c-0.2,0.3-0.6,0.7-0.8,0.9l-0.8-0.7c1.1-1.3,2.1-3,2.6-5
				L45.8,210.3z M48.2,210.6c-0.1,0.6-0.2,1-0.3,1.3h4v-0.1l1,0.3l-0.9,2.5l-1-0.3l0.3-1.1h-1.7v8h-2.2v-1h1.1v-6.8h-1.3
				c-0.3,0.7-1,1.1-1.8,1.8l-0.7-0.8c1.3-0.9,2.1-2.2,2.3-3.7L48.2,210.6z M46.8,215.2l1,0.3l-1.7,3.8l-1-0.3L46.8,215.2z
				 M52.1,219.4l-1.7-3.8l1-0.3l1.7,3.8L52.1,219.4z"/>
			<path class="st2" d="M55.7,214.5l1,0.2l-1,4l-1-0.2L55.7,214.5z M57.7,218v-4.9h1v4.1c0.3-0.2,0.7-0.6,1-0.9
				c1.1-1.1,2.2-2.6,2.9-4.5l1,0.3c-0.7,1.7-1.7,3.2-3,4.6c-0.7,0.7-1.3,1.1-1.9,1.7v0.3c0,0.6,0.2,0.8,0.8,0.8h2.3
				c0.6,0,0.8-0.2,0.9-0.7l0.2-0.9l1,0.2l-0.1,0.9c-0.2,1-0.9,1.4-1.9,1.4h-2.3c-1,0-1.7-0.6-1.8-1.6c-0.7,0.3-1.4,0.8-2.3,1.1
				l-0.6-0.9C56,219.2,57,218.7,57.7,218z M58.5,211.2l0.6-0.9l2.6,1.6l-0.6,0.9L58.5,211.2z M63.3,215.1l1-0.3l1.3,3.1l-1,0.3
				L63.3,215.1z"/>
			<path class="st2" d="M76.7,211.2h-3.7v0.7h4.7v2.3h-1v-1.6h-3.7v2.6h-1v-2.6h-3.7v1.6h-1v-2.3H72v-0.7h-3.7v-0.9h8.2v0.9H76.7z
				 M67.6,215.6h10.2v0.9h-5l-0.2,0.7h4.9v3.8h-1.9v-0.9h0.9v-1.9h-1.8v2.6h-1v-2.6h-1.6v2.6h-1v-2.6h-1.8v2.9h-1v-3.8h3.2l0.2-0.7
				h-4L67.6,215.6L67.6,215.6z M71.4,213.8h-2.3v-0.7h2.3V213.8z M71.4,215.1h-2.3v-0.7h2.3V215.1z M76,213.8h-2.3v-0.7H76V213.8z
				 M76,215.1h-2.3v-0.7H76V215.1z"/>
			<path class="st2" d="M83.5,219.5c0.6,0.2,1.3,0.3,2.1,0.3h5v1h-5c-1.7,0-2.9-0.3-3.7-1.3l-1.6,1.3l-0.6-0.8l1.6-1.3v-3h-1.6v-1
				h2.6v3.2C82.5,218.7,82.9,219.2,83.5,219.5l-0.3-0.9c0.7-0.1,1.3-0.3,1.9-0.8h-2.3v-0.9h1.8v-0.7h-1.3v-0.9h1.3v-0.8h1v0.8h1.7
				v-0.8h1v0.8h1.3v0.9h-1.3v0.7h1.8v0.9h-2.3c0.7,0.3,1.3,0.7,1.9,0.8l-0.2,0.9c-0.9-0.2-1.7-0.6-2.3-1l0.3-0.8h-2.3l0.3,0.8
				C85.2,219,84.4,219.2,83.5,219.5z M80.8,210.7l1.6,1.7l-0.8,0.7l-1.4-1.7L80.8,210.7z M86.3,210.4v2.3h-2.2v0.6
				c0,0.1,0,0.2,0.2,0.2h1.3v-0.3h0.9v1.3h-2.1c-0.9,0-1.3-0.3-1.3-1v-1.3h2.2v-0.8h-2.2v-0.9H86.3L86.3,210.4z M87.3,216.9v-0.7
				h-1.7v0.7H87.3z M90.1,210.4v2.3h-2.2v0.6c0,0.1,0,0.2,0.2,0.2h1.3v-0.3h1v1.3h-2.1c-0.9,0-1.3-0.3-1.3-1v-1.3h2.2v-0.8h-2.2
				v-0.9H90.1L90.1,210.4z"/>
			<path class="st2" d="M95.7,213.5h-1v2.7l0.7-0.2l0.3,1l-1,0.3v3.7h-1.8v-1h0.8v-2.2l-1,0.3l-0.3-1l1.3-0.6v-3.1h-1.3v-1h1.3v-2.1
				h1v2.1h1L95.7,213.5L95.7,213.5z M95.7,215.4H99v-0.7h-2.3v-1H99V213h-2.9v-2.6h6.5v2.6H100v0.7h2.1v0.9H100v0.7h3.1v0.9h-1.4
				l-0.3,0.7h1.6v0.9h-2.9v0.7h2.3v0.9h-2.3v1.4h-1v-1.4h-2.6v-0.9h2.6v-0.7H96v-0.9h1.8l-0.3-0.7h-1.8V215.4L95.7,215.4z
				 M98.1,212.1v-0.7h-0.8v0.7H98.1z M98.5,216.4l0.3,0.7h1.3l0.3-0.7H98.5z M99.9,212.1v-0.7h-0.8v0.7H99.9z M101.5,212.1v-0.7
				h-0.8v0.7H101.5z"/>
			<path class="st2" d="M115.6,215.4h-5.7v5.6H109v-1.1l-4,0.7l-0.1-0.8l1-0.1v-4.1h-1v-0.9h10.8L115.6,215.4L115.6,215.4z
				 M114.2,210.3v3.7h-7.8v-3.7H114.2z M109,218.8v-0.6H107v0.8L109,218.8z M109,216v-0.7H107v0.7H109z M109,217.5v-0.7H107v0.7H109
				z M113.1,211.8v-0.6h-5.7v0.6H113.1z M113.1,212.6h-5.7v0.6h5.7V212.6z M115.2,216.2c-0.6,1-1,1.9-1.7,2.6
				c0.7,0.6,1.3,0.9,2.1,1.1l-0.6,0.8c-0.9-0.3-1.6-0.8-2.2-1.3c-0.7,0.6-1.3,0.9-2.2,1.3l-0.6-0.8c0.9-0.3,1.6-0.8,2.1-1.1
				c-0.6-0.6-1-1.1-1.4-2.1h-0.2v-0.9h4L115.2,216.2z M114.1,216.9h-2.2c0.2,0.6,0.7,0.9,1,1.3C113.3,217.8,113.7,217.2,114.1,216.9
				z"/>
			<path class="st2" d="M126.5,220.9h-1.9v-1h0.9v-1.1h-4.1v2.2h-1V216c-0.7,0.7-1.3,1-1.9,1.4l-0.7-0.9c1.6-0.8,2.6-2.1,3.3-3.7
				h-3.1v-1h3.5c0.1-0.6,0.2-1,0.3-1.6h1c0,0.6-0.1,1-0.3,1.6h5.6v1h-5.8l-0.3,0.9h4.7L126.5,220.9L126.5,220.9z M125.5,215.8v-0.9
				h-4.1v0.9H125.5z M125.5,217.7v-0.9h-4.1v0.9H125.5z"/>
			<path class="st2" d="M133.1,210.2c-0.1,0.9-0.6,1.9-0.9,3v7.6h-1V215c-0.1,0.2-0.3,0.6-0.6,0.8l-0.9-0.6c1-1.3,1.9-3,2.3-5.1
				L133.1,210.2z M140.1,214.6v4.8h-1.7c0.8,0.3,1.7,0.7,2.6,0.8l-0.2,0.8c-1.1-0.2-2.2-0.7-3.1-1.1l0.3-0.6h-1.8l0.2,0.6
				c-0.9,0.6-1.9,0.9-3.1,1.1l-0.2-0.8c0.9-0.1,1.7-0.3,2.6-0.9H134v-4.8L140.1,214.6L140.1,214.6z M140.9,210.4v0.8h-2.3v0.7h2.1
				v2.1h-7.3v-2.1h2.1v-0.7h-2.3v-0.8H140.9z M134.4,213.1h1v-0.6h-1V213.1z M139,215.9v-0.7h-4.1v0.7H139z M139,217.1v-0.5h-4.1
				v0.6h4.1V217.1z M139,217.9h-4.1v0.6h4.1V217.9z M136.4,211.9h1v-0.7h-1V211.9z M136.4,213.1h1v-0.6h-1V213.1z M138.5,212.7v0.7
				h1v-0.7H138.5z"/>
			<path class="st2" d="M146,210.3c-0.2,0.9-0.7,1.9-1,3v7.6h-1V215c-0.2,0.3-0.6,0.7-0.8,0.9l-0.8-0.7c1.1-1.3,2.1-3,2.6-5
				L146,210.3z M146.7,214.5v5.6h6.7v0.9h-7.8v-6.5H146.7L146.7,214.5z M153.1,212.1h-2.9v1h2.1v5.9h-4.9v-5.9h1.8v-1h-3.1v-0.9h3.1
				V210h1v1.1h2.9V212.1z M151.3,214.8V214h-2.9v0.8H151.3z M151.3,216.6v-0.8h-2.9v0.8H151.3z M151.3,217.5h-2.9v0.8h2.9V217.5z"/>
			<path class="st2" d="M158.3,210.6l-0.6,1.8h1.7v7.5h-3.9v-7.5h1.1l0.6-2.1L158.3,210.6z M158.6,215.6v-2.2h-1.8v2.2H158.6z
				 M158.6,218.8v-2.2h-1.8v2.2H158.6z M162.4,210.4c-0.1,0.7-0.2,1.3-0.3,1.9h3.5v5.7c0,1.9-0.9,2.9-2.9,2.9h-0.2v-1h0.2
				c1.1,0,1.8-0.7,1.8-1.8v-4.7h-2.9c-0.2,0.8-0.7,1.3-1,1.9l-0.9-0.6c0.9-1.1,1.6-2.6,1.8-4.6L162.4,210.4z M161.3,215.9l0.7-0.7
				l1.4,1.4l-0.7,0.7L161.3,215.9z"/>
			<path class="st2" d="M168.5,210.8h4.1V210h1v0.8h4.1v1h-4.1v0.7h3.1v2.5h-3.1v0.7h3.7v1.6h1v1h-1v1.6h-3.7v1.6h-1.8v-1h0.8V220
				H169v-1h3.7v-0.7h-4.7v-1h4.7v-0.7H169v-1h3.7v-0.7h-3.1v-2.5h3.1v-0.7h-4.1L168.5,210.8L168.5,210.8z M172.6,213.2h-2.1v0.7h2.1
				V213.2z M175.6,213.2h-1.9v0.7h2.1v-0.7H175.6z M173.6,216.9h2.6v-0.7h-2.6V216.9z M173.6,218.5h2.6v-0.7h-2.6V218.5z"/>
			<path class="st2" d="M180.8,217.8l0.7-0.7l2.6,2.6l-0.7,0.7L180.8,217.8z"/>
			<path class="st2" d="M189,210.8h10.2v1h-4.9l-0.3,1.6h4.9v7.5h-2.1v-1h1v-5.5h-1.7v5.7h-1v-5.7h-1.7v5.7h-1v-5.7h-1.7v6.5h-1
				v-7.5h3.3l0.3-1.6H189L189,210.8L189,210.8z"/>
			<path class="st2" d="M211.6,210.8v1h-3.8c-0.2,0.3-0.3,0.8-0.7,1v8h-1v-6.5c-0.6,0.6-1,1-1.7,1.7c-0.8,0.7-1.7,1.1-2.5,1.7
				l-0.6-0.9c1-0.6,1.9-1.1,2.9-1.9c0.9-0.8,1.7-1.7,2.2-2.9h-4.6v-1L211.6,210.8L211.6,210.8z M212,216.7l-0.7,0.9
				c-1.4-0.8-2.6-1.8-3.7-3l0.8-0.7C209.5,215,210.5,215.9,212,216.7z"/>
			<path class="st2" d="M224.1,216.2h-4.5v1h3.3v1h-3.3v1.6c0.2,0,0.6,0,0.8,0h3.9v1h-3.9c-1.9,0-3.3-0.6-4.5-1.7
				c-0.3,0.6-0.7,1-1.3,1.7l-0.9-0.7c0.8-0.9,1.4-2.1,1.9-3.3l1,0.2c-0.1,0.3-0.2,0.7-0.3,0.9c0.6,0.7,1.1,1.3,1.9,1.6v-3.3h-4.5v-1
				h9.8L224.1,216.2L224.1,216.2z M215.6,210.3h7.2v4.1h-7.2V210.3z M216.7,211.2v0.7h5.1v-0.7H216.7z M221.9,213.6v-0.7h-5.3v0.7
				H221.9z"/>
			<path class="st2" d="M229.6,210.2c-0.1,0.9-0.3,1.8-0.8,2.7v7.9h-1v-5.9c-0.2,0.3-0.3,0.7-0.7,1l-0.9-0.7c1-1.3,1.9-3,2.3-5.1
				L229.6,210.2z M232.9,213.5h-1.3v1.9h1.1v4.2h-3.3v-4.2h1.1v-1.9h-1.4v-1h1.3v-2.1h1v2.1h1.3L232.9,213.5L232.9,213.5z
				 M231.7,218.6v-2.2h-1.4v2.2H231.7z M234.2,217.5c-0.3-0.8-0.7-1.7-0.9-2.6c-0.1,0.1-0.2,0.3-0.3,0.6l-0.9-0.7
				c1-1.3,1.7-2.7,2.1-4.2l1,0.2c-0.1,0.6-0.2,1-0.6,1.7h2.3v1h-0.6c-0.2,1.6-0.7,3-1.1,4.2c0.6,1,1.1,1.9,1.9,2.7l-0.8,0.7
				c-0.7-0.8-1.3-1.6-1.7-2.3c-0.3,0.8-0.9,1.6-1.7,2.3l-0.8-0.7C233.1,219.4,233.8,218.5,234.2,217.5z M235.6,213.1h-1.1l-0.2,0.3
				c0.1,0.9,0.3,1.7,0.7,2.6C235.3,215.1,235.5,214.2,235.6,213.1z"/>
			<path class="st2" d="M249.5,216.6h-3.7v2.9c0,0.3,0.1,0.6,0.6,0.6h1.8v-1h1v2.1h-2.9c-1,0-1.6-0.6-1.6-1.6v-2.9h-1.6
				c0,2.3-1.3,3.8-3.8,4.5l-0.3-1c2.1-0.3,3.1-1.6,3.1-3.3h-3.1v-1.1h10.2L249.5,216.6L249.5,216.6z M239.5,211.3h4.5v-1h1v1h4.5
				v2.3h-1v-1.3h-7.8v1.3h-1.1V211.3L239.5,211.3z M247.5,214.5h-6.2v-1h6.2V214.5z"/>
			<path class="st2" d="M252,220.9l-0.8-0.8c0.9-0.9,1.3-1.9,1.3-3.3v-3.5h4.1v3.7h-3.1C253.6,218.5,253.1,219.9,252,220.9z
				 M256.6,211.9H252v-1h4.7v1H256.6z M253.6,215.8h2.1v-1.6h-2.1V215.8z M262.1,211.2c-1,0.6-2.1,0.8-3.2,0.9v2.1h3.7v1h-1.4v5.7
				h-1v-5.7h-1.3c-0.2,2.3-0.9,4-2.2,5.1l-0.8-0.7c1.3-1.1,1.9-3,1.9-5.5v-3.1h0.9c1-0.1,2.1-0.3,3.1-0.8L262.1,211.2z"/>
			<path class="st2" d="M273,220.9h-1.9v-1h0.9v-1.1h-4v2.2h-1V216c-0.7,0.7-1.3,1-1.9,1.4l-0.7-0.9c1.6-0.8,2.6-2.1,3.3-3.7h-3.1
				v-1h3.5c0.1-0.6,0.2-1,0.3-1.6h1c0,0.6-0.1,1-0.3,1.6h5.6v1h-5.8l-0.3,0.9h4.7v7.1H273V220.9z M272,215.8v-0.9h-4v0.9H272z
				 M272,217.7v-0.9h-4v0.9H272z"/>
			<path class="st2" d="M279.8,210.6l-0.6,1.8h1.7v7.5H277v-7.5h1.1l0.6-2.1L279.8,210.6z M280,215.6v-2.2h-1.8v2.2H280z M280,218.8
				v-2.2h-1.8v2.2H280z M283.9,210.4c-0.1,0.7-0.2,1.3-0.3,1.9h3.5v5.7c0,1.9-0.9,2.9-2.9,2.9H284v-1h0.2c1.1,0,1.8-0.7,1.8-1.8
				v-4.7h-2.9c-0.2,0.8-0.7,1.3-1,1.9l-0.9-0.6c0.9-1.1,1.6-2.6,1.8-4.6L283.9,210.4z M282.7,215.9l0.7-0.7l1.4,1.4l-0.7,0.7
				L282.7,215.9z"/>
			<path class="st2" d="M290.1,210.8h4.1V210h1v0.8h4.1v1h-4.1v0.7h3.1v2.5h-3.1v0.7h3.7v1.6h1v1h-1v1.6h-3.7v1.6h-1.8v-1h0.8V220
				h-3.7v-1h3.7v-0.7h-4.7v-1h4.7v-0.7h-3.7v-1h3.7v-0.7h-3.1v-2.5h3.1v-0.7h-4.1V210.8L290.1,210.8z M294.2,213.2h-2.1v0.7h2.1
				V213.2z M297.2,213.2h-2.1v0.7h2.1V213.2z M295.2,216.9h2.6v-0.7h-2.6V216.9z M295.2,218.5h2.6v-0.7h-2.6V218.5z"/>
			<path class="st2" d="M307.9,211.1l-0.2,6.7h-0.9l-0.2-6.7H307.9z M306.7,219.4h1v1h-1V219.4z"/>
		</g>
		<g>
			<path class="st2" d="M101.7,236.8c-0.1,0.3-0.2,0.7-0.3,0.9h3.5v1h-4.1c-0.2,0.3-0.6,0.7-0.8,1h3.8l1,0.1l-0.1,1.3
				c1-1.3,1.7-2.9,1.9-4.8l1,0.1c-0.1,0.7-0.2,1.3-0.6,2.2h2.7v1h-0.6c-0.1,1.9-0.6,3.5-1.1,4.8c0.6,0.8,1.1,1.6,1.9,2.1l-0.7,0.8
				c-0.8-0.7-1.4-1.1-1.9-1.9c-0.6,0.7-1.1,1.3-2.1,1.9l-0.7-0.8c0.9-0.6,1.7-1.3,2.2-2.1c-0.3-0.9-0.8-1.9-1-3.2
				c-0.1,0.2-0.3,0.6-0.6,0.8l-0.7-0.6v0.7h0.8v1h-0.8l-0.1,1.3h0.7v1H104l-0.1,1.8h-1.8v-0.9h0.8l0.1-0.9h-2.9v0.8l-1-0.1l0.2-3
				h-0.8v-1h0.8l0.2-2.2c-0.1,0.1-0.2,0.2-0.3,0.3l-0.8-0.7c0.8-0.7,1.4-1.7,2.1-3.1L101.7,236.8z M101.4,243.1h-0.9l-0.1,1.3h0.9
				L101.4,243.1z M101.5,240.9h-0.9l-0.1,1.3h0.9L101.5,240.9z M102.4,243.1l-0.1,1.3h0.9l0.1-1.3H102.4z M102.5,240.9l-0.1,1.3h0.9
				l0.1-1.3H102.5z M106.5,239.6c0.1,1.4,0.3,2.6,0.8,3.7c0.3-1,0.7-2.2,0.8-3.7H106.5z"/>
			<path class="st2" d="M114.8,239.5h-1v2.7l0.7-0.2l0.3,1l-1,0.3v3.9H112v-1h0.8v-2.5l-1,0.3l-0.3-1l1.3-0.6v-3h-1.3v-1h1.3v-2.1h1
				v2.1h1L114.8,239.5L114.8,239.5z M115.9,242.2h2.3v-0.7h-3.3v-0.9h3.3V240h-2.6V239h2.6v-0.7h-3.1v-0.9h3.1v-0.9h1v1h2.9v0.9
				h-2.9v0.7h2.3v1.7h0.8v0.9h-0.8v1.7h-2.3v0.8h2.3v0.9h-2.3v1.4c0.3,0,0.7,0.1,1,0.1h2.1v0.9h-2.1c-1.8,0-3.1-0.3-4-1.3
				c-0.2,0.6-0.7,1-1.1,1.3l-0.7-0.7c0.8-0.7,1.3-1.7,1.6-3l1,0.1c0,0.3-0.1,0.8-0.2,1.1c0.3,0.6,1,0.9,1.6,1.1v-2.9h-2.6
				L115.9,242.2L115.9,242.2z M120.3,240.5v-0.7h-1.3v0.7H120.3z M120.3,242.2v-0.7h-1.3v0.7H120.3z"/>
			<path class="st2" d="M134.3,237.2v1h-3.8c-0.2,0.3-0.3,0.8-0.7,1v8h-1v-6.5c-0.6,0.6-1,1-1.7,1.7c-0.8,0.7-1.7,1.1-2.5,1.7
				l-0.6-0.9c1-0.6,1.9-1.1,2.9-1.9c0.9-0.8,1.7-1.7,2.2-2.9h-4.6v-1.3H134.3L134.3,237.2z M134.5,242.9l-0.7,0.9
				c-1.4-0.8-2.6-1.8-3.7-3l0.8-0.7C132.1,241.3,133.2,242.2,134.5,242.9z"/>
			<path class="st2" d="M146.7,242.6h-4.5v1h3.3v1h-3.3v1.6c0.2,0,0.6,0,0.8,0h3.9v1H143c-1.9,0-3.3-0.6-4.5-1.7
				c-0.3,0.6-0.7,1-1.3,1.7l-0.9-0.7c0.8-0.9,1.4-2.1,1.9-3.3l1,0.2c-0.1,0.3-0.2,0.7-0.3,0.9c0.6,0.7,1.1,1.3,1.9,1.6v-3.3h-4.5v-1
				h9.8v1L146.7,242.6L146.7,242.6z M138.4,236.6h7.2v4.1h-7.2V236.6z M139.4,237.6v0.7h5.1v-0.7H139.4z M144.4,240v-0.7h-5.1v0.7
				H144.4z"/>
			<path class="st2" d="M149.5,239l0.8,0.1l-0.6,3.1l-0.8-0.1L149.5,239z M150.6,236.6h1v10.5h-1V236.6z M151.9,238.7l0.8-0.2
				l0.6,1.7l-0.8,0.2L151.9,238.7z M156.1,244.3c-0.6,1.3-1.7,2.2-3.2,2.9l-0.3-1c1.8-0.7,2.9-1.8,3.1-3.7h-3v-1h3.1v-2.2h-2.1v-1
				h2.1v-1.8h1v1.8h2.3v3.2h1v1h-3.2c0.2,1.7,1.3,2.9,3.1,3.7l-0.3,1C157.7,246.5,156.6,245.7,156.1,244.3z M156.4,241.6h1.3v-2.2
				h-1.3V241.6z"/>
			<path class="st2" d="M163,243.9c0.2-0.2,0.6-0.3,0.9-0.3c0.3,0,0.7,0.1,0.9,0.3c0.2,0.2,0.3,0.6,0.3,0.9c0,0.9-0.9,1.8-2.6,2.9
				l1.3-1.6c-0.3,0-0.7-0.1-0.9-0.3c-0.2-0.2-0.3-0.6-0.3-0.9C162.7,244.5,162.8,244.2,163,243.9z"/>
			<path class="st2" d="M170.4,237.2h10.2v1h-4.9l-0.3,1.6h4.9v7.5h-2.1v-1h1v-5.5h-1.7v5.7h-1v-5.7h-1.7v5.7h-1v-5.7H172v6.5h-1
				v-7.5h3.3l0.3-1.6h-4.2V237.2L170.4,237.2z"/>
			<path class="st2" d="M193,242.6h-4.5v1h3.3v1h-3.3v1.6c0.2,0,0.6,0,0.8,0h3.9v1h-3.9c-1.9,0-3.3-0.6-4.5-1.7
				c-0.3,0.6-0.7,1-1.3,1.7l-0.9-0.7c0.8-0.9,1.4-2.1,1.9-3.3l1,0.2c-0.1,0.3-0.2,0.7-0.3,0.9c0.6,0.7,1.1,1.3,1.9,1.6v-3.3h-4.5v-1
				h9.8L193,242.6L193,242.6z M184.5,236.6h7.2v4.1h-7.2V236.6z M185.5,237.6v0.7h5.1v-0.7H185.5z M190.8,240v-0.7h-5.1v0.7H190.8z"
				/>
			<path class="st2" d="M195.8,239l0.8,0.1l-0.6,3.1l-0.8-0.1L195.8,239z M196.8,236.6h1v10.5h-1V236.6z M198.1,238.7l0.8-0.2
				l0.6,1.7l-0.8,0.2L198.1,238.7z M202.2,244.3c-0.6,1.3-1.7,2.2-3.2,2.9l-0.3-1c1.8-0.7,2.9-1.8,3.1-3.7h-3v-1h3.1v-2.2h-2.1v-1
				h2.1v-1.8h1v1.8h2.3v3.2h1v1H203c0.2,1.7,1.3,2.9,3.1,3.7l-0.3,1C203.9,246.5,202.7,245.7,202.2,244.3z M202.7,241.6h1.3v-2.2
				h-1.3V241.6z"/>
			<path class="st2" d="M210.6,240.9v3.8c0.7,1,1.9,1.7,4.1,1.7h3.7v1h-3.7c-1.9,0-3.3-0.3-4.2-1.3l-1.7,1.3l-0.7-0.9l1.6-1v-3.5
				h-1.6v-1H210.6z M209.4,236.8l1.6,1.4l-0.7,0.8l-1.6-1.4L209.4,236.8z M218.1,238.5h-2.9v0.9h2.3v3h-1.8c0.8,0.8,1.7,1.4,2.6,1.8
				l-0.6,0.9c-0.8-0.3-1.7-0.9-2.6-1.7v2.3h-1v-2.3c-0.9,0.8-1.7,1.4-2.6,1.7l-0.6-0.9c1-0.6,1.8-1,2.5-1.8h-1.8v-3h2.3v-0.9h-2.9
				v-1h2.9v-1h1v1h2.9L218.1,238.5L218.1,238.5z M214.3,240.4H213v0.9h1.3V240.4z M216.5,240.4h-1.3v0.9h1.3V240.4z"/>
			<path class="st2" d="M230.4,238.2h-7.4v1.6h6l1,0.3c-0.6,1.8-1.3,3.2-2.5,4.2c0.9,0.8,1.9,1.4,3.3,1.8l-0.3,1
				c-1.6-0.3-2.7-1-3.7-1.9c-1,0.8-2.2,1.6-3.7,1.9l-0.3-1c1.3-0.3,2.3-1,3.3-1.8c-0.9-1-1.4-2.2-1.9-3.7h-1.4v0.2
				c0,2.6-0.6,4.7-1.7,6.2l-0.9-0.6c1-1.4,1.6-3.2,1.6-5.6v-3.9h8.6L230.4,238.2L230.4,238.2z M226.9,243.7c0.7-0.8,1.3-1.7,1.8-3
				h-3.3C225.6,242,226.1,242.9,226.9,243.7z"/>
			<path class="st2" d="M239,236.3v0.9h4.5v0.9H241l0.7,0.3l-0.3,0.7h1.9v0.8h-2.1v0.6h1.7v0.8h-1.7v0.6h1.7v0.8h-1.7v0.6h2.1v0.8
				h-5.5v-3c-0.1,0.2-0.3,0.6-0.7,0.7l-0.3-0.3v2.6h-1v-2.3c-0.1,0.1-0.3,0.3-0.7,0.6l-0.3-0.6v0.7c0,1.9-0.3,3.7-0.9,4.9l-1-0.3
				c0.6-1.3,0.9-2.7,0.9-4.6v-5.3h4.5v-0.9H239L239,236.3z M235.5,244.5l0.9,0.3l-0.9,1.8l-0.9-0.3L235.5,244.5z M234.8,241
				c1-0.8,1.7-1.7,1.9-3h-1.9V241z M236.9,240.2v0.3c0.8-0.7,1.4-1.6,1.8-2.5H237l0.8,0.2C237.3,239,237.1,239.6,236.9,240.2z
				 M236.9,244.5h1v1.1c0,0.6,0.2,0.7,0.7,0.7h2.5v-0.8h1v1.7h-3.5c-1.1,0-1.7-0.6-1.7-1.6V244.5L236.9,244.5z M238.6,244.5l0.7-0.8
				l1.1,1l-0.7,0.8L238.6,244.5z M239,239.2h1.4l0.6-1h-2.3l0.8,0.2C239.1,238.7,239,239,239,239.2z M238.8,239.8v0.6h1.3v-0.6
				H238.8z M240.1,241.6V241h-1.3v0.6H240.1z M240.1,242.9v-0.6h-1.3v0.6H240.1z M243.1,246.8l-0.9-1.8l0.9-0.3l0.9,1.7L243.1,246.8
				z"/>
			<path class="st2" d="M251.6,237.4l-0.2,6.7h-0.9l-0.2-6.7H251.6z M250.3,245.8h1v1h-1V245.8z"/>
		</g>
		<g>
			<path class="st2" d="M53.7,257.1c0-0.3-0.1-0.8-0.3-1c-0.3-0.3-0.7-0.6-1-0.6s-0.8,0.1-1,0.6c-0.3,0.3-0.3,0.7-0.3,1v3.3
				c0,0.3,0.1,0.8,0.3,1c0.2,0.3,0.7,0.3,1,0.3s0.8-0.1,1-0.6c0.3-0.3,0.3-0.8,0.3-1.1v-0.8h-1.3v-0.9h2.3v4.2h-1v-0.2
				c-0.3,0.3-1,0.7-1.6,0.7c-0.7,0-1.3-0.2-1.8-0.8c-0.6-0.6-0.8-1-0.8-1.8v-3.2c0-0.7,0.2-1.3,0.8-1.8c0.6-0.6,1-0.8,1.8-0.8
				c0.7,0,1.3,0.2,1.8,0.8s0.8,1,0.8,1.8v0.6h-1V257.1z"/>
			<path class="st2" d="M58,257.5c0.6-0.7,1.1-0.9,1.8-0.9c0.7,0,1.3,0.3,1.8,0.9c0.6,0.7,0.8,1.3,0.8,2.2c0,0.9-0.2,1.7-0.8,2.2
				c-0.6,0.7-1.1,0.9-1.8,0.9c-0.7,0-1.3-0.3-1.8-0.9c-0.6-0.7-0.8-1.3-0.8-2.2C57.3,258.9,57.6,258.1,58,257.5z M58.8,261.4
				c0.3,0.3,0.7,0.7,1.1,0.7c0.6,0,0.8-0.2,1.1-0.7c0.3-0.5,0.6-1,0.6-1.6c0-0.7-0.1-1.1-0.6-1.6c-0.3-0.3-0.7-0.7-1.1-0.7
				c-0.6,0-0.8,0.2-1.1,0.7c-0.3,0.3-0.6,1-0.6,1.6C58.2,260.4,58.5,261,58.8,261.4z"/>
			<path class="st2" d="M64.7,257.5c0.6-0.7,1.1-0.9,1.8-0.9c0.7,0,1.3,0.3,1.8,0.9c0.6,0.7,0.8,1.3,0.8,2.2c0,0.9-0.2,1.7-0.8,2.2
				c-0.6,0.7-1.1,0.9-1.8,0.9c-0.7,0-1.3-0.3-1.8-0.9c-0.6-0.7-0.8-1.3-0.8-2.2C63.9,258.9,64.2,258.1,64.7,257.5z M65.4,261.4
				c0.3,0.3,0.7,0.7,1.1,0.7c0.3,0,0.8-0.2,1.1-0.7c0.3-0.3,0.6-1,0.6-1.6c0-0.7-0.1-1.1-0.6-1.6c-0.3-0.3-0.7-0.7-1.1-0.7
				c-0.3,0-0.8,0.2-1.1,0.7c-0.3,0.3-0.6,1-0.6,1.6C64.9,260.4,65.1,261,65.4,261.4z"/>
			<path class="st2" d="M71.2,257.4c0.6-0.6,1-0.8,1.8-0.8c0.6,0,0.9,0.1,1.3,0.3v-0.2h1v5.7c0,0.7-0.2,1.3-0.7,1.7
				c-0.3,0.3-1,0.7-1.7,0.7c-0.7,0-1.3-0.2-1.7-0.7c-0.2-0.2-0.3-0.6-0.6-0.8h1.1c0,0,0,0.1,0.1,0.1c0.2,0.2,0.7,0.3,1,0.3
				s0.7-0.1,1-0.3c0.2-0.2,0.3-0.7,0.3-1v-0.8c-0.3,0.2-0.8,0.3-1.3,0.3c-0.7,0-1.3-0.2-1.8-0.8c-0.6-0.6-0.8-1.1-0.8-1.9
				C70.6,258.7,70.8,258,71.2,257.4z M72,258.1c-0.3,0.3-0.6,0.8-0.6,1.3c0,0.5,0.1,0.9,0.6,1.3c0.3,0.3,0.8,0.6,1.3,0.6
				c0.3,0,0.8-0.1,1-0.3v-2.7c-0.3-0.2-0.7-0.3-1-0.3C72.8,257.6,72.5,257.8,72,258.1z"/>
			<path class="st2" d="M77.1,254.7h1v7.2h0.3v1h-1.4C77.1,262.9,77.1,254.7,77.1,254.7z"/>
			<path class="st2" d="M80.6,257.5c0.6-0.7,1.1-0.9,1.8-0.9s1.3,0.3,1.8,0.9c0.6,0.7,0.8,1.3,0.8,2.2v0.3h-4c0,0.3,0.2,0.9,0.3,1.1
				c0.2,0.3,0.7,0.7,1,0.7s0.8-0.2,1-0.7c0.1-0.1,0.1-0.2,0.2-0.3h1.1c-0.1,0.3-0.3,0.8-0.7,1c-0.6,0.7-1.1,0.9-1.8,0.9
				c-0.7,0-1.3-0.3-1.8-0.9c-0.6-0.7-0.8-1.3-0.8-2.2C79.8,258.9,80,258.1,80.6,257.5z M82.4,257.6c-0.3,0-0.8,0.2-1,0.7
				c-0.2,0.3-0.3,0.7-0.3,1h3c0-0.3-0.2-0.8-0.3-1C83.2,257.8,82.8,257.6,82.4,257.6z"/>
			<path class="st2" d="M87.1,260.8l0.7-0.7l2.6,2.6l-0.7,0.7L87.1,260.8z"/>
			<path class="st2" d="M97.8,254.7H99l2.2,8.1H100l-0.6-2.1h-2.1l-0.6,2.1h-1.1L97.8,254.7z M97.5,259.9h1.7l-0.8-3.2L97.5,259.9z"
				/>
			<path class="st2" d="M107.7,261.3c-0.6,0.6-1,0.8-1.8,0.8c-0.6,0-1-0.1-1.4-0.6v3.2h-1v-8h1v0.3c0.3-0.3,0.9-0.6,1.4-0.6
				c0.7,0,1.3,0.2,1.8,0.8c0.6,0.6,0.8,1.1,0.8,1.9C108.3,260,108.1,260.7,107.7,261.3z M106.9,258.1c-0.3-0.3-0.8-0.6-1.3-0.6
				c-0.6,0-0.9,0.1-1.1,0.6v2.5c0.3,0.3,0.8,0.6,1.1,0.6c0.6,0,0.9-0.1,1.3-0.6c0.3-0.3,0.6-0.8,0.6-1.3
				C107.4,258.9,107.1,258.4,106.9,258.1z"/>
			<path class="st2" d="M114.2,261.3c-0.6,0.6-1,0.8-1.8,0.8c-0.6,0-1-0.1-1.4-0.6v3.2h-1v-8h1v0.3c0.3-0.3,0.9-0.6,1.4-0.6
				c0.7,0,1.3,0.2,1.8,0.8c0.6,0.6,0.8,1.1,0.8,1.9C115,260,114.6,260.7,114.2,261.3z M113.3,258.1c-0.3-0.3-0.8-0.6-1.3-0.6
				s-0.9,0.1-1.1,0.6v2.5c0.3,0.3,0.8,0.6,1.1,0.6c0.6,0,0.9-0.1,1.3-0.6c0.3-0.3,0.6-0.8,0.6-1.3
				C113.9,258.8,113.7,258.4,113.3,258.1z"/>
			<path class="st2" d="M116.7,254.7h1v7.2h0.3v1h-1.4V254.7z"/>
			<path class="st2" d="M120,257.5c0.6-0.7,1.1-0.9,1.8-0.9s1.3,0.3,1.8,0.9c0.6,0.7,0.8,1.3,0.8,2.2v0.3h-4c0,0.3,0.2,0.9,0.3,1.1
				c0.2,0.3,0.7,0.7,1,0.7c0.3,0,0.8-0.2,1-0.7c0.1-0.1,0.1-0.2,0.2-0.3h1c-0.1,0.3-0.3,0.8-0.7,1c-0.6,0.7-1.1,0.9-1.8,0.9
				s-1.3-0.3-1.8-0.9c-0.6-0.7-0.8-1.3-0.8-2.2C119.3,258.9,119.5,258.1,120,257.5z M121.8,257.6c-0.3,0-0.8,0.2-1,0.7
				c-0.2,0.3-0.3,0.7-0.3,1h3c0-0.3-0.2-0.8-0.3-1C122.6,257.8,122.4,257.6,121.8,257.6z"/>
			<path class="st2" d="M126.5,260.8l0.7-0.7l2.6,2.6l-0.7,0.7L126.5,260.8z"/>
			<path class="st2" d="M138,254.7c0.7,0,1.3,0.2,1.7,0.7c0.6,0.6,0.7,1,0.7,1.7c0,0.7-0.2,1.3-0.7,1.7c-0.6,0.6-1,0.7-1.7,0.7h-1.7
				v3.3h-1v-8.1L138,254.7L138,254.7z M136.3,258.7h1.7c0.3,0,0.7-0.1,1-0.3c0.2-0.2,0.3-0.7,0.3-1c0-0.3-0.1-0.8-0.3-1
				c-0.2-0.2-0.7-0.3-1-0.3h-1.7V258.7z"/>
			<path class="st2" d="M147.8,258.8v1h1v1h-1c-0.1,0.6-0.3,0.9-0.7,1.3c-0.6,0.6-1.1,0.8-1.8,0.8h-0.2c-0.7,0-1.3-0.2-1.8-0.8
				c-0.6-0.6-0.8-1-0.8-1.8v-0.6c0-0.7,0.2-1.3,0.8-1.8c0.3-0.3,0.8-0.7,1.3-0.7l0,0v-1c0-0.3,0.1-0.8,0.3-1c0.2-0.3,0.7-0.3,1-0.3
				c0.3,0,0.8,0.1,1,0.3c0.3,0.3,0.3,0.7,0.3,1c0,0.7-0.2,1-0.7,1.4s-0.9,0.7-1.4,0.7v0.6c0,0.2,0.1,0.6,0.3,0.7
				c0.2,0.2,0.3,0.3,0.7,0.3h0.2v-0.9L147.8,258.8L147.8,258.8z M146.4,261.4c0.1-0.1,0.2-0.3,0.3-0.7h-0.1c-0.7,0-1-0.2-1.4-0.7
				c-0.3-0.3-0.7-0.9-0.7-1.4v-0.3c-0.2,0-0.3,0.2-0.7,0.3c-0.3,0.3-0.3,0.7-0.3,1v0.6c0,0.3,0.1,0.8,0.3,1c0.2,0.3,0.7,0.3,1,0.3
				h0.2C145.7,261.9,146,261.8,146.4,261.4z M146,255.7c-0.1,0-0.2,0-0.3,0.1c-0.1,0.1-0.1,0.2-0.1,0.3v1c0.2,0,0.6-0.1,0.7-0.3
				c0.2-0.2,0.3-0.3,0.3-0.7c0-0.1,0-0.2-0.1-0.3C146.2,255.7,146.1,255.7,146,255.7z"/>
			<path class="st2" d="M155.4,257.1c0-0.3-0.1-0.8-0.3-1c-0.3-0.3-0.7-0.6-1-0.6c-0.3,0-0.8,0.1-1,0.6c-0.2,0.3-0.3,0.7-0.3,1v3.3
				c0,0.3,0.1,0.8,0.3,1c0.2,0.3,0.7,0.3,1,0.3c0.3,0,0.8-0.1,1-0.6c0.3-0.3,0.3-0.8,0.3-1.1v-0.8h-1.3v-0.9h2.3v4.2h-1v-0.2
				c-0.3,0.3-1,0.7-1.6,0.7c-0.7,0-1.3-0.2-1.8-0.8c-0.6-0.6-0.8-1-0.8-1.8v-3.2c0-0.7,0.2-1.3,0.8-1.8s1-0.8,1.8-0.8
				c0.7,0,1.3,0.2,1.8,0.8s0.8,1,0.8,1.8v0.6h-1C155.4,257.8,155.4,257.1,155.4,257.1z"/>
			<path class="st2" d="M158.9,253.8h4.9V253h1v0.8h4.9v1.8h-0.9v0.2h-1.6v0.6h2.3v0.8H169v1.3h-4.7v-1.3h-0.6v-0.8h1l-0.7-0.6
				l1-1.1h-5.6v0.6h3.9v0.7h-0.9v0.6h1v0.7h-1v0.6l1.3-0.1l0.1,0.7l-4.2,0.7l-0.1-0.7l1.9-0.2v-0.7h-1.1v-0.7h1.1v-0.6h-1.6V256h-1
				v-1.8h0.1C158.9,254,158.9,253.8,158.9,253.8z M160.5,258.7h7.8v4.1H163l0.1,0.8l-3.7,0.7l-0.1-0.8l3.5-0.7h-2.5v-4.1
				L160.5,258.7L160.5,258.7z M161.5,259.4v0.3h5.7v-0.3H161.5z M161.5,260.5v0.3h5.7v-0.3H161.5z M161.5,261.6v0.3h5.7v-0.3H161.5z
				 M166.4,255.8h-0.8l-0.3,0.6h1.3L166.4,255.8L166.4,255.8z M165.6,262.8l3.7,0.7l-0.1,0.8l-3.7-0.7L165.6,262.8z M166.4,257.5
				V257h-0.8v0.6H166.4z M166.1,254.6l0.3,0.3l-0.1,0.1h2.5v-0.6L166.1,254.6L166.1,254.6z M168.2,257h-0.8v0.6h0.8V257z"/>
			<path class="st2" d="M175,253.5c-0.2,0.9-0.7,1.9-1,3v7.5h-1.1v-5.8c-0.2,0.3-0.6,0.7-0.8,0.9l-0.8-0.7c1.1-1.3,2.1-3,2.6-5
				L175,253.5z M180.9,254.1c-0.7,0.1-1.4,0.2-2.1,0.3c-0.1,0.2-0.2,0.6-0.3,0.8h3.5v0.9H180c0.6,0.7,1.3,1.3,2.3,1.8l-0.6,0.9
				c-0.7-0.2-1.1-0.7-1.7-1.1v1h-3.9v-0.9c-0.3,0.3-0.8,0.7-1.3,1l-0.7-0.9c0.9-0.6,1.6-1.1,2.2-1.9h-1.8v-0.8h2.6
				c0.1-0.2,0.2-0.3,0.3-0.7c-0.7,0-1.3,0-2.2,0v-0.9c2.2,0,3.9-0.1,5.1-0.3L180.9,254.1z M181.8,259.4v4.7H180v-1h0.8v-2.7h-5v3.8
				h-1v-4.7H181.8L181.8,259.4z M179.9,260.7v2.2h-3.5v-2.2H179.9z M179.1,257.4h-1.8v0.6h1.8V257.4z M179,262.1v-0.6h-1.4v0.6H179z
				 M178,256c0,0.1-0.1,0.2-0.2,0.3h1.1c-0.1-0.1-0.1-0.2-0.2-0.3H178z"/>
			<path class="st2" d="M184.2,256.7h2.3v-1h-1.6v-1h1.6v-1.3h1v1.3h1.3v0.8c0.2-0.3,0.6-0.7,0.8-1l0.8,0.7c-0.6,0.7-1,1.1-1.4,1.7
				h0.9v1H188c-0.2,0.2-0.6,0.3-0.8,0.7c-0.1,0.1-0.3,0.2-0.6,0.3h2.7v5.1h-4.1v-4.2c-0.2,0.1-0.7,0.3-1,0.7l-0.6-0.9
				c1-0.7,1.9-1.1,2.7-1.7h-2.1L184.2,256.7L184.2,256.7z M188.4,260.8v-1h-2.1v1H188.4z M188.4,262.9v-1h-2.1v1H188.4z
				 M187.7,256.7L187.7,256.7c0.3-0.3,0.8-0.7,1-1h-1V256.7z M193.3,257.4l0.6,0.7c0.7,0.9,1,1.7,1,2.3c0,1.1-0.7,1.8-1.8,1.8h-0.8
				v-1h0.8c0.6,0,0.8-0.2,0.8-0.8c0-0.3-0.2-1-0.8-1.7l-0.8-1.1l1-2.6h-1.4v9h-1v-10h3l1,0.3L193.3,257.4z"/>
			<path class="st2" d="M197,254.7h3.1c0.1-0.3,0.2-0.9,0.2-1.3l1,0.1c0,0.3-0.1,0.8-0.2,1.1h5.9v1h-6.2c-0.3,1.1-0.9,2.1-1.6,3v5.3
				h-1v-4.1c-0.3,0.3-0.8,0.7-1.3,1l-0.7-0.9c1.6-1,2.6-2.3,3.3-4.2h-2.7v-1H197z M200.5,262.9h2.9v-3.3H201v-1h2.3v-2.1h1v2.1h2.3
				v1h-2.3v3.3h2.9v1h-6.7V262.9L200.5,262.9z"/>
			<path class="st2" d="M219.3,263.9h-2.1v-1h1v-3.1h-3v3.7h-1v-3.7h-3c-0.1,1.7-0.6,3-1,4.1l-1-0.3c0.7-1.3,1-3,1-4.9v-4.9h8.8
				v10.2H219.3L219.3,263.9z M214.3,256.2v-1.6h-2.9v1.6H214.3z M214.3,258.8v-1.6h-2.9v1.6H214.3z M218.3,256.2v-1.6h-3v1.6H218.3z
				 M218.3,258.8v-1.6h-3v1.6H218.3z"/>
			<path class="st2" d="M224.9,253.8l-0.6,1.8h1.7v7.5h-3.9v-7.5h1.1l0.6-2.1L224.9,253.8z M225,258.7v-2.2h-1.8v2.2H225z
				 M225,261.9v-2.2h-1.8v2.2H225z M229,253.5c-0.1,0.7-0.2,1.3-0.3,1.9h3.5v5.7c0,1.9-0.9,2.9-2.9,2.9h-0.2v-1h0.2
				c1.1,0,1.8-0.7,1.8-1.8v-4.7h-2.9c-0.2,0.8-0.7,1.3-1,1.9l-0.9-0.6c0.9-1.1,1.6-2.6,1.8-4.6L229,253.5z M227.8,258.9l0.7-0.7
				l1.4,1.4l-0.7,0.7L227.8,258.9z"/>
			<path class="st2" d="M234.7,253.3h9.8v10.5h-9.8V253.3z M243.7,263.2v-9h-3.7v0.9h2.6v0.7h-2.6v0.6h2.2v2.9h0.1l0.6,1.1l-0.8,0.3
				l-0.1-0.3h-0.3v0.6h1.4v0.7h-1.4v1.6h-1.7v-0.6h0.7v-0.9h-2.7l0.9,0.6l-0.3,0.6l-1-0.7l0.2-0.6h-1.6V261h4.6v-0.6l-4,0.3V260
				l2.6-0.2v-0.3h-2.2v-3h2.2v-0.6h-2.9v-0.7h2.9v-0.9h-3.7v9L243.7,263.2L243.7,263.2z M239.3,257.4v-0.6h-1.1v0.6H239.3z
				 M239.3,258.6V258h-1.1v0.6H239.3z M241.3,256.8h-1.1v0.6h1.1V256.8z M241.3,258h-1.1v0.6h1.1V258z M240.3,259.6l1.7-0.1v-0.1
				l0.2-0.1h-1.8L240.3,259.6L240.3,259.6z"/>
			<path class="st2" d="M247.4,253.8h2.6l0.9,0.2l-1,3.3l0.3,0.9c0.3,0.8,0.6,1.4,0.6,2.1c0,1-0.6,1.6-1.6,1.6H249V261h0.2
				c0.3,0,0.6-0.2,0.6-0.7s-0.1-1-0.3-1.7l-0.6-1.1l0,0l0,0l0.9-3h-1.3v9.1h-1L247.4,253.8L247.4,253.8z M254,257.1
				c0.2,0.3,0.6,0.8,0.7,1.3l1.3-1.3l0.7,0.7l-1.7,1.7c0.7,1,1.6,1.9,2.5,2.6l-0.7,0.8c-0.6-0.3-1.1-0.8-1.7-1.6v0.7
				c0,0.9-0.2,1.6-0.8,1.9h-1.1v-1h0.7c0.2-0.2,0.3-0.7,0.3-1c0-0.1,0-0.3,0-0.7c-1,1-2.3,1.8-3.8,2.3l-0.3-0.9
				c1.6-0.6,3-1.4,3.9-2.7c0-0.1-0.1-0.3-0.1-0.7c-0.7,0.7-1.6,1.1-2.5,1.7l-0.3-0.9c0.8-0.3,1.6-0.9,2.3-1.7
				c-0.1-0.1-0.2-0.3-0.3-0.7c-0.7,0.3-1.3,0.7-1.9,1l-0.3-0.9c1-0.3,1.9-0.9,2.7-1.6h-3v-1h3.7l1-1.8l0.8,0.6L255,255h1.7v1h-2.1
				C254.6,256.5,254.3,256.8,254,257.1z M251.7,253.9l0.8-0.6l0.8,1.3l-0.8,0.6L251.7,253.9z"/>
			<path class="st2" d="M261.7,254.1h2.6v0.9h-1.1l0.2,0.8l-1,0.3l-0.3-1.1h-0.7c-0.2,0.6-0.7,0.9-0.9,1.1l-0.9-0.7
				c0.7-0.7,1.1-1.6,1.6-2.6l1,0.2C262,253.8,261.9,254,261.7,254.1z M259.9,256.6h4.5v-0.8h1v0.8h4.5v2.2h-1v-1.3h-7.8v1.3h-1
				L259.9,256.6L259.9,256.6z M267.8,258.1v2.3h-5.1v0.7h5.5v2.7h-6.5V258L267.8,258.1L267.8,258.1z M266.8,259.7V259h-4.1v0.7
				H266.8z M267.1,263v-1h-4.5v1H267.1z M266.7,254.1h3.1v0.9H268l0.3,0.8l-1,0.3l-0.3-1h-0.8c-0.1,0.2-0.3,0.6-0.6,0.8l-0.9-0.6
				c0.6-0.7,0.9-1.3,1.3-2.2l1,0.2C266.9,253.8,266.8,254,266.7,254.1z"/>
			<path class="st2" d="M275.8,255.1h-1.3v2.1h1v1h-1v2.6l1.3-0.3l0.2,1l-3.9,1l-0.2-1l1.6-0.3v-2.9h-1v-1h1v-2.1h-1.3v-1h3.7v0.9
				H275.8z M282.2,253.6v5.7h-2.3v1h2.1v1h-2.1v1.6h2.9v1h-7.3v-1h3.3v-1.6h-2.1v-1h2.1v-1h-2.3v-5.7H282.2z M278.9,255.9v-1.3h-1.3
				v1.3H278.9z M278.9,257h-1.3v1.3h1.3V257z M279.9,255.9h1.3v-1.3h-1.3V255.9z M281.3,257H280v1.3h1.3V257z"/>
			<path class="st2" d="M286.2,259.7l0.9,0.3l-1.6,3.5l-0.9-0.3L286.2,259.7z M285.1,256.4l1.9,1.3l-0.7,0.9l-1.9-1.3L285.1,256.4z
				 M285.6,253.6l1.9,1.3l-0.7,0.9l-1.9-1.3L285.6,253.6z M294,256.5h-2.3v1.8h3.3v1h-3.9l0,0l-1,3l3-0.3l-1-1.6l0.9-0.6l2.5,3.7
				l-0.9,0.6l-0.7-1l-6.6,0.7l-0.1-1l1.9-0.2l1-3.1h-2.7v-1h3.3v-1.8h-2.3v-1h2.3v-2.3h1v2.1h2.3V256.5L294,256.5z"/>
			<path class="st2" d="M298.4,260.7c0.2-0.2,0.6-0.3,0.9-0.3c0.3,0,0.7,0.1,0.9,0.3s0.3,0.6,0.3,0.9c0,0.9-0.9,1.8-2.6,2.9l1.3-1.6
				c-0.3,0-0.7-0.1-0.9-0.3c-0.2-0.2-0.3-0.6-0.3-0.9C298,261.3,298.2,261,298.4,260.7z"/>
		</g>
		<g>
			<path class="st2" d="M109.5,274.1v0.2l1.9,1.9l-0.7,0.7l-1.1-1.1v4.7h-1v-4c-0.3,0.7-0.9,1.3-1.6,1.8l-0.7-0.7
				c1-0.9,1.8-1.9,2.2-3.5h-1.8v-0.9h2.1v-1.3c-0.6,0.1-1,0.2-1.7,0.2l-0.2-1c1.4-0.2,2.9-0.6,4-1l0.3,1c-0.6,0.1-1,0.3-1.6,0.6v1.6
				h1.8v1L109.5,274.1L109.5,274.1z M113.7,271.2v6.7h-1v-6.7H113.7z M116.3,270.2v10.2h-2.1v-1h1v-9.1H116.3L116.3,270.2z"/>
			<path class="st2" d="M128.7,280.5h-2.1v-1h1v-3.1h-3v3.7h-1v-3.7h-3c-0.1,1.7-0.6,3-1,4.1l-1-0.3c0.7-1.3,1-3,1-4.9v-4.9h8.8
				L128.7,280.5L128.7,280.5z M123.8,272.7v-1.6H121v1.6H123.8z M123.8,275.3v-1.6H121v1.6H123.8z M127.7,272.7v-1.6h-3v1.6H127.7z
				 M127.7,275.3v-1.6h-3v1.6H127.7z"/>
			<path class="st2" d="M134.7,272.7c-0.7,2.1-1.4,3.9-2.3,5.5l-0.9-0.7c0.9-1.4,1.7-3.2,2.2-5.1L134.7,272.7z M136.9,270.2v10.2
				h-2.1v-1h1v-9.1H136.9L136.9,270.2z M141.6,277.6l-0.9,0.7c-0.9-1.6-1.7-3.3-2.3-5.5l1-0.2C139.9,274.4,140.7,276.2,141.6,277.6z
				"/>
			<path class="st2" d="M149.5,269.6v1.4h3.7v1h-3.7v1.4h4.7v1h-4.7v3.7h-2.1v-1h1v-2.6h-4.7v-1h1.8v-2.5h1v2.5h1.8v-3.9
				L149.5,269.6L149.5,269.6z M146.5,275.2l0.8,0.7c-0.9,1-1.8,1.8-2.9,2.3l-0.3-1C144.8,276.7,145.7,276,146.5,275.2z M151.5,276.9
				l0.8,0.8c-1.8,1.8-4.1,2.7-7.2,2.9l-0.2-1C147.5,279.4,149.7,278.5,151.5,276.9z M151,275.9l0.6-0.9c1.1,0.7,2.1,1.3,2.7,1.9
				l-0.8,0.8C152.7,277,152,276.5,151,275.9z"/>
			<path class="st2" d="M156.8,272.3l0.8,0.1l-0.6,3.1l-0.8-0.1L156.8,272.3z M157.8,269.9h1v10.5h-1V269.9z M159.1,272l0.8-0.2
				l0.6,1.7l-0.8,0.2L159.1,272z M163.2,277.6c-0.6,1.3-1.7,2.2-3.2,2.9l-0.3-1c1.8-0.7,2.9-1.8,3.1-3.7h-3v-1h3.1v-2.2h-2.2v-1h2.1
				v-1.8h1v1.8h2.3v3.2h1v1h-3.2c0.2,1.7,1.3,2.9,3.1,3.7l-0.3,1C164.8,279.9,163.8,279,163.2,277.6z M163.6,275h1.3v-2.2h-1.3V275z
				"/>
			<path class="st2" d="M169,270.2h3.9v3.7h-1.3v1.4h1.3v1h-1.3v2.3l1-0.2l0.2,0.9l-4.2,1l-0.2-1l0.6-0.1v-3.9h1v3.7l0.7-0.1v-4.9
				H169L169,270.2L169,270.2z M171.9,272.9v-1.6H170v1.6H171.9z M175.4,271.2h3.7v5.1c0,1-0.6,1.6-1.6,1.6h-0.6v-1h0.6
				c0.3,0,0.6-0.1,0.6-0.6v-4.1h-3c-0.1,0.3-0.3,0.7-0.7,1h2.6v3.1h-2.1v2.6c0,0.3,0.1,0.6,0.6,0.6h3.1v-1h1v2.1h-4.1
				c-1,0-1.6-0.6-1.6-1.6v-4.9l-0.1,0.2l-0.9-0.7c0.9-1.1,1.6-2.3,1.9-3.9l1,0.1C175.7,270.4,175.6,270.8,175.4,271.2z M176,275.3
				v-1h-1v1H176z"/>
			<path class="st2" d="M181.8,277.4l0.7-0.7l2.6,2.6l-0.7,0.7L181.8,277.4z"/>
			<path class="st2" d="M193.7,273.1h-1.3v2.3l0.9-0.3l0.3,1l-1.3,0.6v4.1h-1.8v-1h0.8v-2.7l-1.1,0.3l-0.3-1l1.6-0.6v-2.5h-1.6v-1
				h1.6v-2.1h1v2.1h1.3L193.7,273.1L193.7,273.1z M199.9,272.5h-2.1v1.3h2.9v1h-1.8v1h1.6v1h-1.6v3.7h-2.1v-1h1v-2.6h-3.3v-1h3.3v-1
				H194v-1h2.9v-1.3h-2.1v-1h2.1v-1.6h1v1.6h2.1L199.9,272.5L199.9,272.5z M194.9,278.1l0.8-0.8l1,1l-0.8,0.8L194.9,278.1z"/>
			<path class="st2" d="M205.2,270.1l-1.6,2.6l0.7,0.3l1.3-2.2l0.8,0.3l-1.8,3.2h0.9l-0.1-0.9l0.9-0.1l0.3,2.3l-0.9,0.1l-0.1-0.7
				h-0.7v5.1h-0.9v-5.1h-1.8v-0.8h1.1l0.3-0.8l-1.4-0.8l1.9-3.3L205.2,270.1z M202.9,276.4l0.9,0.1l-0.6,3.1l-0.9-0.1L202.9,276.4z
				 M205.3,276.7l0.9-0.1l0.3,2.1l-0.8,0.1L205.3,276.7z M206.8,279.9l2.3-0.7l0.1,0.7l-2.3,0.7L206.8,279.9z M206.8,270.2h2.7v-0.6
				h1v0.6h2.7v0.7h-2.7v0.3h2.2v0.7h-5.5v-0.7h2.2v-0.3h-2.7v-0.7H206.8z M206.8,272.3h6.3v2.9h-6.5L206.8,272.3L206.8,272.3z
				 M207.2,275.3h5.5v3.9h-5.5V275.3z M212.2,274.3V274h-0.8c-0.8,0-1.3-0.2-1.3-0.9v-0.2h-0.7c-0.1,0.8-0.7,1.1-1.8,1.3l-0.1-0.2
				v0.3h4.7L212.2,274.3L212.2,274.3z M207.8,273.5c0.6,0,0.8-0.2,0.9-0.6h-0.9V273.5z M208.2,276.1v0.3h3.5v-0.3H208.2z
				 M211.7,277.2h-3.5v0.3h3.5V277.2z M211.7,278.4v-0.3h-3.5v0.3H211.7z M210.8,279.2l2.3,0.7l-0.1,0.7l-2.3-0.7L210.8,279.2z
				 M211.1,272.9v0.1c0,0.1,0.1,0.1,0.2,0.1h0.8v-0.3L211.1,272.9L211.1,272.9z"/>
			<path class="st2" d="M217.5,274.1v3.8c0.7,1,1.9,1.7,4.1,1.7h4.1v1h-4.1c-1.9,0-3.3-0.3-4.2-1.3l-1.7,1.3l-0.7-0.9l1.6-1v-3.5
				H215v-1L217.5,274.1L217.5,274.1z M216,270.2l1.6,1.4l-0.7,0.8l-1.6-1.4L216,270.2z M218.3,274.1h3c0-0.6,0.1-1,0.1-1.6H220
				c-0.2,0.3-0.3,0.8-0.7,1.1l-0.8-0.7c0.7-0.8,1-1.7,1.3-2.7l1,0.1c0,0.3-0.1,0.7-0.2,1h0.9v-1.6h1v1.6h2.3v1h-2.3
				c0,0.6,0,1-0.1,1.6h3v1h-2.5c0.3,1.3,1.1,2.2,2.3,2.7l-0.6,0.9c-1.3-0.7-2.2-1.6-2.6-3c-0.6,1.3-1.4,2.3-2.6,3l-0.6-0.9
				c1.1-0.6,1.9-1.4,2.3-2.7h-2.7L218.3,274.1L218.3,274.1z"/>
			<path class="st2" d="M231.2,270.2c-0.2,0.9-0.7,1.9-1,3v7.4h-1v-5.7c-0.2,0.3-0.6,0.7-0.8,0.9l-0.8-0.7c1.1-1.3,2.1-3,2.6-5
				L231.2,270.2z M238.1,274.1h-3.3c0.1,2.6,0.9,4.5,2.3,5.5l0.3-0.9l1,0.3l-0.6,1.6l0,0h-1c-1.9-1-3-3.1-3.1-6.5h-2.6v-1h2.6V270h1
				v3.1h3.3L238.1,274.1L238.1,274.1z M236.1,270.2l1.4,1.4l-0.7,0.7l-1.4-1.4L236.1,270.2z"/>
			<path class="st2" d="M241.5,277.3c0.2-0.2,0.6-0.3,0.9-0.3c0.3,0,0.7,0.1,0.9,0.3c0.2,0.2,0.3,0.6,0.3,0.9c0,0.9-0.9,1.8-2.6,2.9
				l1.3-1.6c-0.3,0-0.7-0.1-0.9-0.3c-0.2-0.2-0.3-0.6-0.3-0.9C241.1,277.8,241.3,277.5,241.5,277.3z"/>
		</g>
		<g>
			<path class="st2" d="M48,289h3.1c0.1-0.3,0.2-0.9,0.2-1.3l1,0.1c0,0.3-0.1,0.8-0.2,1.1h5.9v1h-6.2c-0.3,1.1-0.9,2.1-1.6,3v5.3h-1
				v-4.1c-0.3,0.3-0.8,0.7-1.3,1l-0.7-0.9c1.6-1,2.6-2.3,3.3-4.2H48V289L48,289z M51.4,297.1h2.9v-3.3H52v-1h2.3v-2.1h0.9v2.1h2.3v1
				h-2.3v3.3h2.9v1h-6.7L51.4,297.1L51.4,297.1z"/>
			<path class="st2" d="M66.1,287.4v0.9h4.7v1H60.3v-1H65v-0.9H66.1z M70.4,293v5.1h-2.1v-1h1v-3.2h-7.8v4.1h-1v-5.1h9.8
				C70.4,292.9,70.4,293,70.4,293z M68.7,289.9v2.6h-6.2v-2.6H68.7z M68,294.7v2.5h-4.9v-2.5H68z M67.5,290.9h-4.1v0.8h4.1V290.9z
				 M67,296.2v-0.7h-2.9v0.7H67z"/>
			<path class="st2" d="M78.8,287.4v1h4.1v1h-2.3v0.8h2.1v1h-2.1v1.8h-4.1v-1.8H75v-1h1.6v-0.8h-1.8v2.9c0,2.1-0.3,3.9-1,5.3l-1-0.3
				c0.7-1.3,1-2.9,1-4.9v-3.9h4.1v-1L78.8,287.4L78.8,287.4z M75.8,293.9h5.1l1,0.7c-0.7,0.8-1.3,1.4-1.9,1.9c0.8,0.3,1.8,0.7,3,0.9
				l-0.2,0.9c-1.6-0.3-2.9-0.7-3.8-1.1c-0.9,0.3-2.2,0.9-3.9,1.1l-0.2-0.9c1-0.1,2.2-0.3,3.2-0.9c-0.7-0.3-1-1-1.4-1.6h-0.8
				L75.8,293.9L75.8,293.9z M77.6,289.5v0.8h2.1v-0.8H77.6z M79.6,292.1v-0.8h-2.1v0.8H79.6z M80.2,294.8h-2.5
				c0.3,0.3,0.7,0.8,1.1,1C79.4,295.7,79.8,295.3,80.2,294.8z"/>
			<path class="st2" d="M95.5,288.2v1h-3.8c-0.2,0.3-0.3,0.8-0.7,1v8h-1v-6.5c-0.6,0.6-1,1-1.7,1.7c-0.8,0.7-1.7,1.1-2.5,1.7
				l-0.6-0.9c1-0.6,1.9-1.1,2.9-1.9c0.9-0.8,1.7-1.7,2.2-2.9h-4.6v-1L95.5,288.2L95.5,288.2z M95.7,293.9l-0.7,0.9
				c-1.4-0.8-2.6-1.8-3.7-3l0.8-0.7C93.3,292.3,94.5,293.2,95.7,293.9z"/>
			<path class="st2" d="M98.4,288.3h3.7v1h-1.5c0,1-0.2,1.8-0.6,2.5h1.7v5.5h-3v-3.8l-0.3,0.3l-0.7-0.8c1-0.8,1.7-2.1,1.8-3.8h-1.3
				L98.4,288.3L98.4,288.3z M100.6,296.2v-3.5h-0.9v3.5H100.6z M102.1,289h2.3c0.1-0.3,0.2-0.9,0.3-1.4l1,0.1
				c-0.1,0.6-0.1,0.9-0.2,1.3h3.1v1.9h-1V290h-2.5c-0.2,0.7-0.3,1-0.8,1.6h1l0.8-1.4l0.9,0.6l-0.6,0.9h1.7v1h-1.9v0.9h1.4v1h-1.4
				v0.9h1.4v1h-1.4v0.9h1.9v1H103v-5l-0.6,0.6l-0.7-0.8c0.9-0.8,1.7-1.8,2.2-3h-1.1v0.9h-1V289H102.1L102.1,289z M104.1,293.4h1.3
				v-0.9h-1.3V293.4z M104.1,295.3h1.3v-0.9h-1.3V295.3z M104.1,297.1h1.3v-0.9h-1.3V297.1z"/>
			<path class="st2" d="M118.8,292.1h-2.6v1.6h2.6v1h-2.6v2.2c1,0.2,2.2,0.3,3.7,0.3h1v1h-1c-1.7,0-3-0.1-4.1-0.6
				c-1.1-0.3-2.2-0.9-2.9-1.7c-0.3,0.9-1,1.6-1.7,2.2l-0.7-0.8c0.7-0.6,1-1,1.4-1.8s0.7-1.7,0.8-2.7l1,0.1c-0.1,0.7-0.2,1.3-0.3,1.7
				c0.2,0.6,0.6,0.8,0.8,1c0.3,0.2,0.7,0.6,1,0.7v-4.5h-2.6v-1h6.2v1.3H118.8z M110.8,288.9h4.5v-1.3h1v1.3h4.5v2.6h-1v-1.6h-7.8
				v1.6h-1.1V288.9L110.8,288.9z"/>
			<path class="st2" d="M126,288l-0.6,1.8h1.7v7.5h-3.8v-7.5h1.1l0.6-2.1L126,288z M126.3,292.9v-2.2h-1.8v2.2H126.3z M126.3,296.2
				V294h-1.8v2.2H126.3z M130.2,287.8c-0.1,0.7-0.2,1.3-0.3,1.9h3.5v5.7c0,1.9-0.9,2.9-2.9,2.9h-0.3v-1h0.2c1.1,0,1.8-0.7,1.8-1.8
				v-4.7h-2.9c-0.2,0.8-0.7,1.3-1,1.9l-0.9-0.6c0.9-1.1,1.6-2.6,1.8-4.6L130.2,287.8z M128.9,293.2l0.7-0.7l1.4,1.4l-0.7,0.7
				L128.9,293.2z"/>
			<path class="st2" d="M135.6,288.4h3.5v1H138v2.5h0.9v1H138v2.5l0.9-0.3l0.3,0.9l-3.3,1.1l-0.3-0.9l1.6-0.6V293h-1v-1h1v-2.5h-1.4
				L135.6,288.4L135.6,288.4z M140,292.2h5.1v2.6l0,0l0.6,0.7l-1,0.9c0.3,0.2,1,0.6,1.6,0.7l-0.3,0.8c-1.1-0.3-2.2-1-2.9-1.7v2.1h-1
				v-2.1c-0.8,0.7-1.7,1.1-2.9,1.7l-0.3-0.8c1.3-0.6,2.3-1.1,3.1-2.1h-2.1L140,292.2L140,292.2z M139,290.7h7.2v0.9H139V290.7z
				 M139.4,287.7h6.2v2.3h-6.2V287.7z M141.3,289.2v-0.7h-0.8v0.7H141.3z M144.2,294v-0.9H141v0.9H144.2z M143,289.2v-0.7h-0.8v0.7
				H143z M143.2,294.9c0.2,0.2,0.6,0.6,0.8,0.8l1-0.8H143.2L143.2,294.9z M144.8,289.2v-0.7H144v0.7H144.8z"/>
			<path class="st2" d="M151.3,291.6h-1v3.2l0.9-0.2l0.2,1l-3.5,0.9l-0.2-1l1.6-0.3v-3.5H148v-1h1.3V288h1v2.6h1L151.3,291.6
				L151.3,291.6z M157.7,291.6v3.9h-1.3v1c0,0.3,0.2,0.7,0.7,0.7h0.8v-0.9h0.9v1.8h-1.7c-1,0-1.7-0.6-1.7-1.6v-1h-0.7
				c-0.1,1.8-1.3,2.6-3.2,2.6h-0.2V297h0.2c1.3,0,1.9-0.6,2.2-1.7h-1v-3.9L157.7,291.6L157.7,291.6z M154.7,287.4h1v0.9h2.6v0.9h-1
				l-0.2,0.9h1.7v0.9h-7.2v-0.9h1.7l-0.2-0.9h-0.8v-0.9h2.6v-0.9H154.7z M156.7,292.5h-3.1v0.7h3.1V292.5z M153.7,294v0.7h3.1V294
				H153.7z M154.1,289.1l0.2,0.9h1.7l0.2-0.9H154.1z"/>
			<path class="st2" d="M161.4,290h4.1v-2.3h1v2.3h4.1v4.7h-4.1v3.7h-1v-3.7h-4.1V290z M165.5,293.5v-2.6h-3.1v2.6H165.5z
				 M166.5,293.5h3.1v-2.6h-3.1V293.5z"/>
			<path class="st2" d="M176.7,290.6h-1v2.6l0.9-0.3l0.3,1l-1.3,0.6v3.9h-1.8v-1h0.8V295l-1.1,0.3l-0.3-1l1.6-0.6v-3h-1.6v-1h1.6
				v-2.1h1v2.1h1L176.7,290.6L176.7,290.6z M177.2,292.6h6.5v0.9h-2.9v1h2.3v0.9h-2.3v1.7c0.3,0.1,1,0.1,1.6,0.1h1.6v0.9h-1.6
				c-1.8,0-3.1-0.3-4-1.3c-0.2,0.6-0.7,1-1.1,1.3l-0.7-0.7c0.9-0.7,1.4-1.7,1.7-3.2h0.9c0,0.6-0.1,1-0.2,1.4c0.2,0.3,0.7,0.7,1,0.9
				v-3.1h-2.6L177.2,292.6L177.2,292.6z M177.7,287.7h5.5v4.2h-5.5V287.7z M182.1,289.3v-0.8h-3.3v0.8H182.1z M182.1,291v-0.8h-3.3
				v0.8H182.1z"/>
			<path class="st2" d="M191.6,287.4v0.9h4.7v1h-10.2v-1h4.7v-0.9H191.6z M195.9,293v5.1h-2.1v-1h1v-3.2h-7.8v4.1h-1v-5.1h9.8V293z
				 M194.1,289.9v2.6H188v-2.6H194.1z M193.4,294.7v2.5h-4.9v-2.5H193.4z M193.1,290.9H189v0.8h4.1V290.9z M192.4,296.2v-0.7h-2.9
				v0.7H192.4z"/>
			<path class="st2" d="M198.7,287.7h9.8v10.5h-9.8V287.7z M207.7,297.5v-9H204v0.9h2.6v0.7H204v0.6h2.2v2.9h0.1l0.6,1.1l-0.8,0.3
				l-0.1-0.3h-0.5v0.6h1.4v0.7h-1.4v1.6h-1.7v-0.7h0.7v-0.9h-2.9l0.9,0.6l-0.3,0.6l-1-0.7l0.2-0.6h-1.4v-0.7h4.6v-0.6l-4,0.3v-0.7
				l2.6-0.2v-0.5h-2.2v-3h2.2V290h-2.9v-0.7h2.9v-0.9h-3.7v9h8.1V297.5z M203.1,291.6V291H202v0.6H203.1z M203.1,292.9v-0.6H202v0.6
				H203.1z M205.3,291.1h-1.1v0.6h1.1V291.1z M205.3,292.3h-1.1v0.6h1.1V292.3z M204,293.9l1.7-0.1v-0.1l0.2-0.1h-1.8L204,293.9
				L204,293.9z"/>
			<path class="st2" d="M211.4,288.1h2.6l0.9,0.2l-1,3.3l0.3,0.9c0.3,0.8,0.6,1.4,0.6,2.1c0,1-0.6,1.6-1.6,1.6H213v-0.9h0.2
				c0.3,0,0.6-0.2,0.6-0.7s-0.1-1-0.3-1.7l-0.6-1.1l0,0l0,0l0.9-3h-1.4v9.1h-1V288.1L211.4,288.1z M218,291.3
				c0.2,0.3,0.6,0.8,0.7,1.3l1.3-1.3l0.7,0.7l-1.7,1.7c0.7,1,1.6,1.9,2.5,2.6l-0.7,0.8c-0.6-0.3-1.1-0.8-1.7-1.6v0.7
				c0,0.9-0.2,1.6-0.8,1.9h-1.1V297h0.7c0.2-0.2,0.3-0.7,0.3-1c0-0.1,0-0.3,0-0.7c-1,1-2.3,1.8-3.8,2.3l-0.3-0.9
				c1.6-0.6,3-1.4,3.9-2.7c0-0.1-0.1-0.3-0.1-0.7c-0.7,0.7-1.6,1.1-2.5,1.7l-0.3-0.9c0.8-0.3,1.6-0.9,2.3-1.7
				c-0.1-0.1-0.2-0.3-0.3-0.7c-0.7,0.3-1.3,0.7-1.9,1l-0.3-0.9c1-0.3,1.9-0.9,2.7-1.6h-3v-1h3.7l1-1.8l0.8,0.6l-0.8,1.3h1.7v1h-2.1
				C218.7,290.8,218.3,291,218,291.3z M215.7,288.2l0.8-0.6l0.8,1.3l-0.8,0.6L215.7,288.2z"/>
			<path class="st2" d="M226.8,287.7v3.8h-1.8l-0.3,1.6h1.1l1,0.1l-0.3,3.2c-0.1,1-0.7,1.7-1.7,1.7h-0.8V297h0.8
				c0.3,0,0.7-0.2,0.7-0.7l0.2-2.5h-1.3l-0.1,0.3l-1-0.2l0.7-3.9h1.7v-1.7h-2.3v-1L226.8,287.7L226.8,287.7z M227.8,290.9h5.9v4.2
				h-2.5v0.7h3v1h-3v1.4h-1v-1.4h-3v-1h3v-0.7h-2.5L227.8,290.9L227.8,290.9z M227.4,287.7h2.9v2.6h-2.9V287.7z M229.2,289.2v-0.7
				h-0.8v0.7H229.2z M228.8,291.9v0.7h1.4v-0.7H228.8z M228.8,293.5v0.7h1.4v-0.7H228.8z M231.1,287.7h2.9v2.6h-2.9V287.7z
				 M231.1,291.9v0.7h1.4v-0.7H231.1z M231.1,293.5v0.7h1.4v-0.7H231.1z M232.8,289.2v-0.7H232v0.7H232.8z"/>
			<path class="st2" d="M236.3,289.9l0.8,0.1l-0.6,3.1l-0.8-0.1L236.3,289.9z M237.5,287.7h1v10.5h-1V287.7z M238.7,289.2l0.8-0.2
				l0.6,1.7l-0.8,0.2L238.7,289.2z M241.8,288.4c-0.1,0.7-0.2,1.1-0.3,1.8h1.4v-2.6h1v2.6h2.6v1h-2.6v2.3h2.3v1h-2.3v2.6h2.9v1H240
				v-1h2.9v-2.5h-2.3v-1.1h2.3v-2.3H241c-0.2,0.7-0.6,1.3-0.8,1.8l-0.9-0.6c0.7-1,1.1-2.5,1.6-4.5L241.8,288.4z"/>
			<path class="st2" d="M252.1,291.8v0.2l1.7,1.7l-0.7,0.7l-1-1v4.7h-1v-4c-0.3,0.7-0.9,1.3-1.6,1.8l-0.7-0.7c1-0.9,1.8-1.9,2.2-3.5
				H249v-1h2.1v-1.4c-0.6,0.1-1,0.2-1.6,0.2l-0.2-1c1.4-0.2,2.6-0.6,3.8-1l0.3,0.9c-0.3,0.1-0.9,0.3-1.4,0.3v1.7h1.6v1L252.1,291.8
				L252.1,291.8z M259.1,297.9h-4.7v-8.8h4.7V297.9z M258,296.9v-6.7h-2.6v6.7H258z"/>
			<path class="st2" d="M263.5,291.9v3.7c0.6,1.1,1.6,1.8,3.2,1.8h5v1h-5c-1.7,0-2.9-0.3-3.7-1.3l-1.6,1.3l-0.7-0.8l1.6-1.3v-3.2
				h-1.6v-1L263.5,291.9L263.5,291.9z M262,287.7l1.6,1.7l-0.8,0.7l-1.4-1.7L262,287.7z M264.5,290h1.7l-0.3-0.8h-1.4v-0.9h3.1v-0.9
				h1v0.9h3.1v1h-1.4l-0.3,0.8h1.7v6.3H270v-0.9h0.8v-4.6h-1.9v0.7h1.4v0.9h-1.4v0.7h1.1v2.3h-3.1v-2.3h1.1v-0.7h-1.3v-0.9h1.4v-0.7
				h-1.9v5.3h-1.6V290H264.5z M268.8,290l0.3-0.8h-2.3l0.3,0.8H268.8z M268.5,294.8v-0.7h-1.4v0.7H268.5z"/>
			<path class="st2" d="M279.7,287.3v0.9h4.5v0.9h-2.5l0.7,0.3l-0.3,0.7h1.9v0.8h-2.1v0.6h1.7v0.8h-1.7v0.6h1.7v0.8h-1.7v0.6h2.1
				v0.8h-5.5v-3c-0.1,0.2-0.3,0.6-0.7,0.7l-0.3-0.3v2.6h-1.1v-2.3c-0.1,0.1-0.3,0.3-0.7,0.6l-0.3-0.6v0.7c0,1.9-0.3,3.7-0.9,4.9
				l-1-0.3c0.6-1.3,0.9-2.7,0.9-4.6v-4.9h4.5v-0.9h1V287.3L279.7,287.3z M276.2,295.6l0.9,0.3l-0.9,1.8l-0.9-0.3L276.2,295.6z
				 M275.3,291.9c1-0.8,1.7-1.7,1.9-3h-1.9V291.9z M277.3,291.1v0.3c0.8-0.7,1.4-1.6,1.8-2.5h-1.7l0.8,0.2
				C278,290.1,277.7,290.7,277.3,291.1z M277.3,295.6h1v1.1c0,0.6,0.2,0.7,0.7,0.7h2.5v-0.8h1v1.7H279c-1.1,0-1.7-0.6-1.7-1.6V295.6
				z M279.2,295.6l0.7-0.8l1.1,1l-0.7,0.8L279.2,295.6z M279.6,290.1h1.4l0.6-1h-2.3l0.8,0.2C279.8,289.8,279.7,290,279.6,290.1z
				 M279.5,290.9v0.6h1.3v-0.6H279.5z M280.7,292.6v-0.6h-1.3v0.6H280.7z M280.7,293.9v-0.6h-1.3v0.6H280.7L280.7,293.9z
				 M283.7,297.8l-0.9-1.8l0.9-0.3l0.9,1.7L283.7,297.8z"/>
			<path class="st2" d="M290.7,290.6v-2.7h1v2.7h4.7v5.7c0,1.3-0.7,2.1-2.1,2.1h-1v-1h1c0.7,0,1-0.3,1-1v-4.7h-3.7
				c-0.2,3.7-1.8,5.8-4.7,6.7l-0.6-0.9c2.5-0.8,3.9-2.7,4-5.7h-3.9v-1L290.7,290.6L290.7,290.6z"/>
			<path class="st2" d="M299.6,294.7c0.3-0.3,0.8-0.6,1.3-0.6s0.9,0.1,1.3,0.6c0.3,0.3,0.6,0.8,0.6,1.3c0,0.6-0.1,0.9-0.6,1.3
				c-0.3,0.3-0.8,0.6-1.3,0.6s-0.9-0.1-1.3-0.6c-0.3-0.3-0.6-0.8-0.6-1.3C299.2,295.5,299.4,294.9,299.6,294.7z M300.3,296.6
				c0.2,0.2,0.3,0.3,0.8,0.3c0.2,0,0.6-0.1,0.7-0.3c0.2-0.2,0.3-0.3,0.3-0.8c0-0.2-0.1-0.6-0.3-0.7c-0.2-0.2-0.3-0.3-0.7-0.3
				c-0.2,0-0.6,0.1-0.8,0.3c-0.2,0.2-0.3,0.3-0.3,0.7C300,296.2,300,296.5,300.3,296.6z"/>
		</g>
	</g>
</g>
<g>
	
		<linearGradient id="SVGID_1_" gradientUnits="userSpaceOnUse" x1="78.7" y1="-176" x2="271.4" y2="-176" gradientTransform="matrix(1 0 0 -1 0 -151.8)">
		<stop  offset="0" style="stop-color:#BCD3DF"/>
		<stop  offset="1" style="stop-color:#F2F2F2"/>
	</linearGradient>
	<rect x="78.7" y="5.3" class="st3" width="192.7" height="37.8"/>
	<g>
		<path class="st1" d="M108.8,29.8c3.9-3.3,6.6-5.9,6.7-8c0.1-1.3-0.6-2-1.7-2c-1,0-1.8,0.6-2.6,1.4l-1.7-1.8c1.5-1.5,2.9-2.2,5-2.2
			c2.8,0,4.6,1.8,4.3,4.5c-0.2,2.5-2.6,5.2-5,7.4c0.7-0.1,1.7-0.2,2.4-0.2h2.7l-0.3,2.9h-10L108.8,29.8z"/>
		<path class="st1" d="M121.1,24.4c0.4-5,2.7-7.4,5.8-7.4c3,0,4.9,2.5,4.5,7.4c-0.4,5-2.7,7.6-5.8,7.6
			C122.5,32,120.7,29.4,121.1,24.4z M128.1,24.4c0.3-3.9-0.4-4.8-1.4-4.8s-1.9,0.8-2.3,4.8s0.4,4.9,1.4,4.9S127.7,28.4,128.1,24.4z"
			/>
		<path class="st1" d="M132.4,29.8c3.9-3.3,6.6-5.9,6.7-8c0.1-1.3-0.6-2-1.7-2c-1,0-1.8,0.6-2.6,1.4l-1.7-1.8c1.5-1.5,2.9-2.2,5-2.2
			c2.8,0,4.6,1.8,4.3,4.5c-0.2,2.5-2.6,5.2-5,7.4c0.7-0.1,1.7-0.2,2.4-0.2h2.7l-0.3,2.9h-10L132.4,29.8z"/>
		<path class="st1" d="M144.3,29.8c3.9-3.3,6.6-5.9,6.7-8c0.1-1.3-0.6-2-1.7-2c-1,0-1.8,0.6-2.6,1.4l-1.7-1.8c1.5-1.5,2.9-2.2,5-2.2
			c2.8,0,4.6,1.8,4.3,4.5c-0.2,2.5-2.6,5.2-5,7.4c0.7-0.1,1.7-0.2,2.4-0.2h2.7l-0.3,2.9h-10L144.3,29.8z"/>
		<path class="st1" d="M164.1,21.4c-0.2,1.9-0.7,4.2-1.8,6.4c0.9,0.9,1.6,1.7,2.1,2.4l-2.1,2.4c-0.4-0.6-1-1.3-1.7-2.1
			c-0.9,1.2-2,2.3-3.4,3.3c-0.4-0.6-1.2-1.6-1.8-2c1.5-1,2.5-2.1,3.4-3.3c-0.9-0.9-1.8-1.8-2.5-2.7c0.4-1.1,0.8-2.4,1.2-3.9h-0.9
			v-2.7h1.5c0.3-1.3,0.5-2.7,0.7-4l2.8,0.1c-0.2,1.2-0.5,2.4-0.7,3.7h0.8l0.1-1.1h2.6l-0.1,1h1l-0.2,2.5H164.1z M160.4,25.8
			c0.6-1.5,0.9-3,1.1-4.3l-1.2,0.1c-0.3,1.1-0.6,2.2-0.9,3.2L160.4,25.8z M174.6,25.7h-3.7l-0.4,4.9c-0.1,1.4-0.5,2.1-1.4,2.5
			c-1,0.4-2.1,0.5-3.7,0.5c0-0.8-0.4-1.9-0.7-2.7c0.9,0,2,0,2.4,0c0.3,0,0.5-0.1,0.5-0.4l0.4-4.9h-3.9l0.2-2.7h3.9l0.1-1.6
			c0.8-0.7,1.7-1.7,2.4-2.7h-5.3l0.2-2.5h7.1l0.7-0.1l1.8,1.3c-1.1,1.4-2.4,3-3.9,4.4l-0.1,1.2h3.7L174.6,25.7z"/>
		<path class="st1" d="M181.7,32.6H178v0.8h-2.2l0.6-6.8h5.9L181.7,32.6z M183.5,20.5h-7.4l0.2-2.2h2.9c-0.2-0.7-0.5-1.6-0.8-2.3
			l2.1-1c0.4,0.8,0.8,1.9,1.1,2.7l-1.1,0.6h3.3L183.5,20.5z M182.3,25.9h-5.9l0.2-2.1h5.9L182.3,25.9z M176.7,23.2l0.2-2.1h5.8
			l-0.2,2.1H176.7z M178.4,28.7l-0.1,1.6h1.5l0.1-1.6H178.4z M193.8,27.1h-4.1l-0.6,6.4h-2.8l0.6-6.4h-4l0.2-2.7h4l0.5-5.8h-3.4
			l0.2-2.6h10l-0.2,2.6h-3.8l-0.5,5.8h4.1L193.8,27.1z M186.5,19.3c0.3,1.4,0.4,3.1,0.4,4.3l-2.4,0.5c0.1-1.2,0-3-0.3-4.4
			L186.5,19.3z M190.3,23.6c0.5-1.2,1.1-3.1,1.3-4.5l2.6,0.5c-0.6,1.6-1.3,3.3-1.8,4.5L190.3,23.6z"/>
		<path class="st1" d="M205.1,18.5c0,0-0.1,0.9-0.1,1.2c-1,8.1-1.5,11.2-2.3,12.2c-0.6,0.7-1,1-1.7,1.2c-0.6,0.1-1.4,0.1-2.3,0.1
			c0-0.8-0.1-2-0.5-2.8c-0.6,1.2-1.2,2.2-2,3.2c-0.4-0.7-1.3-1.6-2-2.1c2.2-2.6,3-6.1,3.5-10.3h-2.1l0.2-2.8h2.1
			c0.1-1.1,0.2-2.2,0.3-3.3h2.9c-0.1,1.1-0.2,2.3-0.3,3.3L205.1,18.5L205.1,18.5z M200.5,21.3c-0.5,3.4-1.1,6.4-2.3,9.1
			c0.6,0,1.1,0.1,1.4,0.1c0.3,0,0.5-0.1,0.7-0.4c0.5-0.6,0.9-2.8,1.6-8.7L200.5,21.3L200.5,21.3z M213.4,17.3L212.1,33h-3l0.1-1.2
			h-1.9l-0.1,1.3h-2.8l1.4-15.9h7.6L213.4,17.3L213.4,17.3z M209.5,29.1l0.8-9.1h-1.9l-0.8,9.1H209.5z"/>
		<path class="st1" d="M218.3,22.9l-0.9,10.6h-2.8l1.6-17.7h7.8l-0.6,7.1H218.3z M226.3,29.4l-0.3,3.8h-2.4l0.3-3.8h-1.3
			c-0.3,1.3-1.2,3.1-2.8,4.3c-0.3-0.5-1.1-1.2-1.7-1.6c1.1-0.6,1.7-1.7,2-2.6h-1.7l0.2-2.3h1.8l0.1-1.1h-1.6l0.2-2.2h9.3l-0.2,2.2
			h-1.6l-0.1,1.1h1.9l-0.2,2.3L226.3,29.4L226.3,29.4z M220.8,21v-0.7h-2.4V21H220.8z M218.7,17.8v0.6h2.4v-0.6H218.7z M224,27.1
			l0.1-1.1h-1.3l-0.1,1.1H224z M231.6,30.4c-0.1,1.3-0.4,2.1-1.2,2.5c-0.8,0.5-1.9,0.6-3.4,0.5c0-0.7-0.3-2.1-0.6-2.8
			c0.7,0,1.7,0,1.9,0c0.3,0,0.4-0.1,0.4-0.4l0.6-7.4h-5.1l0.6-7.2h7.9L231.6,30.4z M229.6,21v-0.8h-2.4V21H229.6z M227.4,17.8v0.6
			h2.4v-0.6H227.4z"/>
		<path class="st1" d="M235.5,29.8c0.1-1.2,1.2-2.1,2.5-2.1s2.2,0.9,2.1,2.1c-0.1,1.2-1.2,2.1-2.5,2.1
			C236.3,32,235.4,31.1,235.5,29.8z M236.6,20.4l0.2-3.2h4.3l-0.4,3.2l-1.3,6.1H237L236.6,20.4z"/>
	</g>
	<rect x="78.7" y="21.6" class="st0" width="7.1" height="7.1"/>
	<rect x="264.3" y="21.6" class="st0" width="7.1" height="7.1"/>
</g>
</svg>
